<svg xmlns="http://www.w3.org/2000/svg" xmlns:xlink="http://www.w3.org/1999/xlink" contentStyleType="text/css" height="599px" preserveAspectRatio="none" style="width:370px;height:599px;background:#FFFFFF;" version="1.1" viewBox="0 0 370 599" width="370px" zoomAndPan="magnify"><defs/><g><!--class Catalogue--><g id="elem_Catalogue"><rect codeLine="2" fill="#F1F1F1" height="96.8906" id="Catalogue" rx="2.5" ry="2.5" style="stroke:#181818;stroke-width:0.5;" width="235" x="7" y="338.49"/><ellipse cx="85.25" cy="354.49" fill="#ADD1B2" rx="11" ry="11" style="stroke:#181818;stroke-width:1.0;"/><path d="M88.2188,360.1306 Q87.6406,360.4275 87,360.5681 Q86.3594,360.7244 85.6563,360.7244 Q83.1563,360.7244 81.8281,359.0838 Q80.5156,357.4275 80.5156,354.3025 Q80.5156,351.1775 81.8281,349.5213 Q83.1563,347.865 85.6563,347.865 Q86.3594,347.865 87,348.0213 Q87.6563,348.1775 88.2188,348.4744 L88.2188,351.1931 Q87.5938,350.615 87,350.3494 Q86.4063,350.0681 85.7813,350.0681 Q84.4375,350.0681 83.75,351.1463 Q83.0625,352.2088 83.0625,354.3025 Q83.0625,356.3963 83.75,357.4744 Q84.4375,358.5369 85.7813,358.5369 Q86.4063,358.5369 87,358.2713 Q87.5938,357.99 88.2188,357.4119 L88.2188,360.1306 Z " fill="#000000"/><text fill="#000000" font-family="sans-serif" font-size="14" lengthAdjust="spacing" textLength="70" x="105.75" y="359.3367">Catalogue</text><line style="stroke:#181818;stroke-width:0.5;" x1="8" x2="241" y1="370.49" y2="370.49"/><ellipse cx="18" cy="384.1384" fill="none" rx="3" ry="3" style="stroke:#038048;stroke-width:1.0;"/><text fill="#000000" font-family="sans-serif" font-size="14" lengthAdjust="spacing" textLength="83" x="27" y="387.4851">String name</text><ellipse cx="18" cy="400.4353" fill="none" rx="3" ry="3" style="stroke:#038048;stroke-width:1.0;"/><text fill="#000000" font-family="sans-serif" font-size="14" lengthAdjust="spacing" textLength="209" x="27" y="403.782">List&lt;Publication&gt; publications</text><ellipse cx="18" cy="416.7322" fill="none" rx="3" ry="3" style="stroke:#038048;stroke-width:1.0;"/><text fill="#000000" font-family="sans-serif" font-size="14" lengthAdjust="spacing" textLength="134" x="27" y="420.0789">Organization owner</text><line style="stroke:#181818;stroke-width:0.5;" x1="8" x2="241" y1="427.3806" y2="427.3806"/></g><!--class Organization--><g id="elem_Organization"><rect codeLine="8" fill="#F1F1F1" height="80.5938" id="Organization" rx="2.5" ry="2.5" style="stroke:#181818;stroke-width:0.5;" width="119" x="65" y="512.38"/><ellipse cx="80" cy="528.38" fill="#ADD1B2" rx="11" ry="11" style="stroke:#181818;stroke-width:1.0;"/><path d="M82.9688,534.0206 Q82.3906,534.3175 81.75,534.4581 Q81.1094,534.6144 80.4063,534.6144 Q77.9063,534.6144 76.5781,532.9738 Q75.2656,531.3175 75.2656,528.1925 Q75.2656,525.0675 76.5781,523.4113 Q77.9063,521.755 80.4063,521.755 Q81.1094,521.755 81.75,521.9113 Q82.4063,522.0675 82.9688,522.3644 L82.9688,525.0831 Q82.3438,524.505 81.75,524.2394 Q81.1563,523.9581 80.5313,523.9581 Q79.1875,523.9581 78.5,525.0363 Q77.8125,526.0988 77.8125,528.1925 Q77.8125,530.2863 78.5,531.3644 Q79.1875,532.4269 80.5313,532.4269 Q81.1563,532.4269 81.75,532.1613 Q82.3438,531.88 82.9688,531.3019 L82.9688,534.0206 Z " fill="#000000"/><text fill="#000000" font-family="sans-serif" font-size="14" lengthAdjust="spacing" textLength="87" x="94" y="533.2267">Organization</text><line style="stroke:#181818;stroke-width:0.5;" x1="66" x2="183" y1="544.38" y2="544.38"/><ellipse cx="76" cy="558.0284" fill="none" rx="3" ry="3" style="stroke:#038048;stroke-width:1.0;"/><text fill="#000000" font-family="sans-serif" font-size="14" lengthAdjust="spacing" textLength="83" x="85" y="561.3751">String name</text><ellipse cx="76" cy="574.3253" fill="none" rx="3" ry="3" style="stroke:#038048;stroke-width:1.0;"/><text fill="#000000" font-family="sans-serif" font-size="14" lengthAdjust="spacing" textLength="92" x="85" y="577.672">PKI certificate</text><line style="stroke:#181818;stroke-width:0.5;" x1="66" x2="183" y1="584.9738" y2="584.9738"/></g><!--class Publication--><g id="elem_Publication"><rect codeLine="13" fill="#F1F1F1" height="96.8906" id="Publication" rx="2.5" ry="2.5" style="stroke:#181818;stroke-width:0.5;" width="159" x="45" y="7"/><ellipse cx="83.4" cy="23" fill="#ADD1B2" rx="11" ry="11" style="stroke:#181818;stroke-width:1.0;"/><path d="M86.3688,28.6406 Q85.7906,28.9375 85.15,29.0781 Q84.5094,29.2344 83.8063,29.2344 Q81.3063,29.2344 79.9781,27.5938 Q78.6656,25.9375 78.6656,22.8125 Q78.6656,19.6875 79.9781,18.0313 Q81.3063,16.375 83.8063,16.375 Q84.5094,16.375 85.15,16.5313 Q85.8063,16.6875 86.3688,16.9844 L86.3688,19.7031 Q85.7438,19.125 85.15,18.8594 Q84.5563,18.5781 83.9313,18.5781 Q82.5875,18.5781 81.9,19.6563 Q81.2125,20.7188 81.2125,22.8125 Q81.2125,24.9063 81.9,25.9844 Q82.5875,27.0469 83.9313,27.0469 Q84.5563,27.0469 85.15,26.7813 Q85.7438,26.5 86.3688,25.9219 L86.3688,28.6406 Z " fill="#000000"/><text fill="#000000" font-family="sans-serif" font-size="14" lengthAdjust="spacing" textLength="75" x="102.6" y="27.8467">Publication</text><line style="stroke:#181818;stroke-width:0.5;" x1="46" x2="203" y1="39" y2="39"/><ellipse cx="56" cy="52.6484" fill="none" rx="3" ry="3" style="stroke:#038048;stroke-width:1.0;"/><text fill="#000000" font-family="sans-serif" font-size="14" lengthAdjust="spacing" textLength="69" x="65" y="55.9951">String title</text><ellipse cx="56" cy="68.9453" fill="none" rx="3" ry="3" style="stroke:#038048;stroke-width:1.0;"/><text fill="#000000" font-family="sans-serif" font-size="14" lengthAdjust="spacing" textLength="121" x="65" y="72.292">String description</text><ellipse cx="56" cy="85.2422" fill="none" rx="3" ry="3" style="stroke:#038048;stroke-width:1.0;"/><text fill="#000000" font-family="sans-serif" font-size="14" lengthAdjust="spacing" textLength="133" x="65" y="88.5889">Metadata metadata</text><line style="stroke:#181818;stroke-width:0.5;" x1="46" x2="203" y1="95.8906" y2="95.8906"/></g><!--class Metadata--><g id="elem_Metadata"><rect codeLine="19" fill="#F1F1F1" height="80.5938" id="Metadata" rx="2.5" ry="2.5" style="stroke:#181818;stroke-width:0.5;" width="163" x="200" y="180.89"/><ellipse cx="245.25" cy="196.89" fill="#ADD1B2" rx="11" ry="11" style="stroke:#181818;stroke-width:1.0;"/><path d="M248.2188,202.5306 Q247.6406,202.8275 247,202.9681 Q246.3594,203.1244 245.6563,203.1244 Q243.1563,203.1244 241.8281,201.4838 Q240.5156,199.8275 240.5156,196.7025 Q240.5156,193.5775 241.8281,191.9213 Q243.1563,190.265 245.6563,190.265 Q246.3594,190.265 247,190.4213 Q247.6563,190.5775 248.2188,190.8744 L248.2188,193.5931 Q247.5938,193.015 247,192.7494 Q246.4063,192.4681 245.7813,192.4681 Q244.4375,192.4681 243.75,193.5463 Q243.0625,194.6088 243.0625,196.7025 Q243.0625,198.7963 243.75,199.8744 Q244.4375,200.9369 245.7813,200.9369 Q246.4063,200.9369 247,200.6713 Q247.5938,200.39 248.2188,199.8119 L248.2188,202.5306 Z " fill="#000000"/><text fill="#000000" font-family="sans-serif" font-size="14" lengthAdjust="spacing" textLength="64" x="265.75" y="201.7367">Metadata</text><line style="stroke:#181818;stroke-width:0.5;" x1="201" x2="362" y1="212.89" y2="212.89"/><ellipse cx="211" cy="226.5384" fill="none" rx="3" ry="3" style="stroke:#038048;stroke-width:1.0;"/><text fill="#000000" font-family="sans-serif" font-size="14" lengthAdjust="spacing" textLength="102" x="220" y="229.8851">String property</text><ellipse cx="211" cy="242.8353" fill="none" rx="3" ry="3" style="stroke:#038048;stroke-width:1.0;"/><text fill="#000000" font-family="sans-serif" font-size="14" lengthAdjust="spacing" textLength="137" x="220" y="246.182">String requirements</text><line style="stroke:#181818;stroke-width:0.5;" x1="201" x2="362" y1="253.4838" y2="253.4838"/></g><!--link Publication to Catalogue--><g id="link_Publication_Catalogue"><path codeLine="25" d="M119.28,104.25 C117.01,127.37 114.62,155.54 113.5,180.89 C111.92,216.68 111.92,225.7 113.5,261.49 C114.62,286.84 116.4237,309.0387 118.6937,332.1587 " fill="none" id="Publication-to-Catalogue" style="stroke:#181818;stroke-width:1.0;"/><polygon fill="#181818" points="119.28,338.13,122.3814,328.7822,118.7914,333.1539,114.4197,329.5639,119.28,338.13" style="stroke:#181818;stroke-width:1.0;"/><text fill="#000000" font-family="sans-serif" font-size="13" lengthAdjust="spacing" textLength="67" x="114.5" y="225.7569">belongs to</text><text fill="#000000" font-family="sans-serif" font-size="13" lengthAdjust="spacing" textLength="7" x="111.1083" y="123.8918">*</text><text fill="#000000" font-family="sans-serif" font-size="13" lengthAdjust="spacing" textLength="8" x="109.9834" y="327.2883">1</text></g><!--link Metadata to Catalogue--><g id="link_Metadata_Catalogue"><path codeLine="26" d="M243.49,261.83 C221.44,284.83 197.6733,309.6199 174.4133,333.8699 " fill="none" id="Metadata-to-Catalogue" style="stroke:#181818;stroke-width:1.0;"/><polygon fill="#181818" points="170.26,338.2,179.3767,334.4737,173.7211,334.5916,173.6033,328.936,170.26,338.2" style="stroke:#181818;stroke-width:1.0;"/><text fill="#000000" font-family="sans-serif" font-size="13" lengthAdjust="spacing" textLength="67" x="212.5" y="304.5569">belongs to</text><text fill="#000000" font-family="sans-serif" font-size="13" lengthAdjust="spacing" textLength="7" x="229.8743" y="281.5803">*</text><text fill="#000000" font-family="sans-serif" font-size="13" lengthAdjust="spacing" textLength="8" x="168.1325" y="327.3681">1</text></g><!--link Publication to Metadata--><g id="link_Publication_Metadata"><path codeLine="27" d="M170.33,104.25 C193.59,128.51 217.3578,153.2888 239.3978,176.2788 " fill="none" id="Publication-to-Metadata" style="stroke:#181818;stroke-width:1.0;"/><polygon fill="#181818" points="243.55,180.61,240.2091,171.3451,240.0898,177.0007,234.4342,176.8814,243.55,180.61" style="stroke:#181818;stroke-width:1.0;"/><text fill="#000000" font-family="sans-serif" font-size="13" lengthAdjust="spacing" textLength="66" x="212.5" y="146.9569">defined by</text><text fill="#000000" font-family="sans-serif" font-size="13" lengthAdjust="spacing" textLength="7" x="169.0181" y="123.8918">*</text><text fill="#000000" font-family="sans-serif" font-size="13" lengthAdjust="spacing" textLength="8" x="228.602" y="169.7252">1</text></g><!--link Catalogue to Organization--><g id="link_Catalogue_Organization"><path codeLine="28" d="M124.5,435.73 C124.5,459.99 124.5,483.11 124.5,506.1 " fill="none" id="Catalogue-to-Organization" style="stroke:#181818;stroke-width:1.0;"/><polygon fill="#181818" points="124.5,512.1,128.5,503.1,124.5,507.1,120.5,503.1,124.5,512.1" style="stroke:#181818;stroke-width:1.0;"/><text fill="#000000" font-family="sans-serif" font-size="13" lengthAdjust="spacing" textLength="60" x="125.5" y="478.4469">owned by</text><text fill="#000000" font-family="sans-serif" font-size="13" lengthAdjust="spacing" textLength="7" x="117.0297" y="455.3704">*</text><text fill="#000000" font-family="sans-serif" font-size="13" lengthAdjust="spacing" textLength="8" x="115.8375" y="501.2152">1</text></g><!--SRC=[ZP7DQi904CVl-nH3BaABXrv3yM8lebAnJx19nZYmsTtkJ2WgldjtLP8DjE1jFlxpcwyPVE21B09Q8I5aLHlD34ijshYsHxWeWDSl2MHRiBh3v6w8vNtNLuPgBUJi0lpeS59yXbPREjy2u7ui1dLL3_OaznT-jrv1ZK7ea90uLcOj9uLnT8EPto3NWNpIfUWMHJTn8UWUnaWSKZdE1-TZ-rCM2lZTKy0kdebJzGpsQExh7icpoYShNWgOpnTGl1NP7Kkeq3ZRCeXJGzidjF-X1qOPzqq_RA0wgH6IQoSdBsyFIUfV]--></g></svg>