<svg xmlns="http://www.w3.org/2000/svg" xmlns:xlink="http://www.w3.org/1999/xlink" contentStyleType="text/css" height="457px" preserveAspectRatio="none" style="width:1001px;height:457px;background:#FFFFFF;" version="1.1" viewBox="0 0 1001 457" width="1001px" zoomAndPan="magnify"><defs/><g><rect fill="#FFFFFF" height="246.0625" style="stroke:#181818;stroke-width:1.0;" width="10" x="258" y="112.4297"/><rect fill="#FFFFFF" height="29.1328" style="stroke:#181818;stroke-width:1.0;" width="10" x="536" y="141.5625"/><rect fill="#FFFFFF" height="29.1328" style="stroke:#181818;stroke-width:1.0;" width="10" x="683" y="199.8281"/><rect fill="#FFFFFF" height="29.1328" style="stroke:#181818;stroke-width:1.0;" width="10" x="891" y="258.0938"/><line style="stroke:#181818;stroke-width:0.5;stroke-dasharray:5.0,5.0;" x1="24" x2="24" y1="81.2969" y2="376.4922"/><line style="stroke:#181818;stroke-width:0.5;stroke-dasharray:5.0,5.0;" x1="262.5" x2="262.5" y1="81.2969" y2="376.4922"/><line style="stroke:#181818;stroke-width:0.5;stroke-dasharray:5.0,5.0;" x1="541" x2="541" y1="81.2969" y2="376.4922"/><line style="stroke:#181818;stroke-width:0.5;stroke-dasharray:5.0,5.0;" x1="688" x2="688" y1="81.2969" y2="376.4922"/><line style="stroke:#181818;stroke-width:0.5;stroke-dasharray:5.0,5.0;" x1="896" x2="896" y1="81.2969" y2="376.4922"/><text fill="#000000" font-family="sans-serif" font-size="14" lengthAdjust="spacing" textLength="32" x="5" y="77.9951">User</text><ellipse cx="24" cy="13.5" fill="#E2E2F0" rx="8" ry="8" style="stroke:#181818;stroke-width:0.5;"/><path d="M24,21.5 L24,48.5 M11,29.5 L37,29.5 M24,48.5 L11,63.5 M24,48.5 L37,63.5 " fill="none" style="stroke:#181818;stroke-width:0.5;"/><text fill="#000000" font-family="sans-serif" font-size="14" lengthAdjust="spacing" textLength="32" x="5" y="388.4873">User</text><ellipse cx="24" cy="400.2891" fill="#E2E2F0" rx="8" ry="8" style="stroke:#181818;stroke-width:0.5;"/><path d="M24,408.2891 L24,435.2891 M11,416.2891 L37,416.2891 M24,435.2891 L11,450.2891 M24,435.2891 L37,450.2891 " fill="none" style="stroke:#181818;stroke-width:0.5;"/><rect fill="#E2E2F0" height="30.2969" rx="2.5" ry="2.5" style="stroke:#181818;stroke-width:0.5;" width="197" x="164.5" y="50"/><text fill="#000000" font-family="sans-serif" font-size="14" lengthAdjust="spacing" textLength="183" x="171.5" y="69.9951">OpenCatalogi Installation A</text><rect fill="#E2E2F0" height="30.2969" rx="2.5" ry="2.5" style="stroke:#181818;stroke-width:0.5;" width="197" x="164.5" y="375.4922"/><text fill="#000000" font-family="sans-serif" font-size="14" lengthAdjust="spacing" textLength="183" x="171.5" y="395.4873">OpenCatalogi Installation A</text><rect fill="#E2E2F0" height="30.2969" rx="2.5" ry="2.5" style="stroke:#181818;stroke-width:0.5;" width="76" x="503" y="50"/><text fill="#000000" font-family="sans-serif" font-size="14" lengthAdjust="spacing" textLength="62" x="510" y="69.9951">Directory</text><rect fill="#E2E2F0" height="30.2969" rx="2.5" ry="2.5" style="stroke:#181818;stroke-width:0.5;" width="76" x="503" y="375.4922"/><text fill="#000000" font-family="sans-serif" font-size="14" lengthAdjust="spacing" textLength="62" x="510" y="395.4873">Directory</text><rect fill="#E2E2F0" height="30.2969" rx="2.5" ry="2.5" style="stroke:#181818;stroke-width:0.5;" width="198" x="589" y="50"/><text fill="#000000" font-family="sans-serif" font-size="14" lengthAdjust="spacing" textLength="184" x="596" y="69.9951">OpenCatalogi Installation B</text><rect fill="#E2E2F0" height="30.2969" rx="2.5" ry="2.5" style="stroke:#181818;stroke-width:0.5;" width="198" x="589" y="375.4922"/><text fill="#000000" font-family="sans-serif" font-size="14" lengthAdjust="spacing" textLength="184" x="596" y="395.4873">OpenCatalogi Installation B</text><rect fill="#E2E2F0" height="30.2969" rx="2.5" ry="2.5" style="stroke:#181818;stroke-width:0.5;" width="198" x="797" y="50"/><text fill="#000000" font-family="sans-serif" font-size="14" lengthAdjust="spacing" textLength="184" x="804" y="69.9951">OpenCatalogi Installation C</text><rect fill="#E2E2F0" height="30.2969" rx="2.5" ry="2.5" style="stroke:#181818;stroke-width:0.5;" width="198" x="797" y="375.4922"/><text fill="#000000" font-family="sans-serif" font-size="14" lengthAdjust="spacing" textLength="184" x="804" y="395.4873">OpenCatalogi Installation C</text><rect fill="#FFFFFF" height="246.0625" style="stroke:#181818;stroke-width:1.0;" width="10" x="258" y="112.4297"/><rect fill="#FFFFFF" height="29.1328" style="stroke:#181818;stroke-width:1.0;" width="10" x="536" y="141.5625"/><rect fill="#FFFFFF" height="29.1328" style="stroke:#181818;stroke-width:1.0;" width="10" x="683" y="199.8281"/><rect fill="#FFFFFF" height="29.1328" style="stroke:#181818;stroke-width:1.0;" width="10" x="891" y="258.0938"/><polygon fill="#181818" points="246,108.4297,256,112.4297,246,116.4297,250,112.4297" style="stroke:#181818;stroke-width:1.0;"/><line style="stroke:#181818;stroke-width:1.0;" x1="24" x2="252" y1="112.4297" y2="112.4297"/><text fill="#000000" font-family="sans-serif" font-size="13" lengthAdjust="spacing" textLength="215" x="31" y="107.3638">Execute Federated Search(query)</text><polygon fill="#181818" points="524,137.5625,534,141.5625,524,145.5625,528,141.5625" style="stroke:#181818;stroke-width:1.0;"/><line style="stroke:#181818;stroke-width:1.0;" x1="268" x2="530" y1="141.5625" y2="141.5625"/><text fill="#000000" font-family="sans-serif" font-size="13" lengthAdjust="spacing" textLength="147" x="275" y="136.4966">Get known installations</text><polygon fill="#181818" points="279,166.6953,269,170.6953,279,174.6953,275,170.6953" style="stroke:#181818;stroke-width:1.0;"/><line style="stroke:#181818;stroke-width:1.0;" x1="273" x2="540" y1="170.6953" y2="170.6953"/><text fill="#000000" font-family="sans-serif" font-size="13" lengthAdjust="spacing" textLength="244" x="285" y="165.6294">Return list of known installations (B, C)</text><polygon fill="#181818" points="671,195.8281,681,199.8281,671,203.8281,675,199.8281" style="stroke:#181818;stroke-width:1.0;"/><line style="stroke:#181818;stroke-width:1.0;" x1="268" x2="677" y1="199.8281" y2="199.8281"/><text fill="#000000" font-family="sans-serif" font-size="13" lengthAdjust="spacing" textLength="88" x="275" y="194.7622">Query (query)</text><polygon fill="#181818" points="279,224.9609,269,228.9609,279,232.9609,275,228.9609" style="stroke:#181818;stroke-width:1.0;"/><line style="stroke:#181818;stroke-width:1.0;" x1="273" x2="687" y1="228.9609" y2="228.9609"/><text fill="#000000" font-family="sans-serif" font-size="13" lengthAdjust="spacing" textLength="89" x="285" y="223.895">Return results</text><polygon fill="#181818" points="879,254.0938,889,258.0938,879,262.0938,883,258.0938" style="stroke:#181818;stroke-width:1.0;"/><line style="stroke:#181818;stroke-width:1.0;" x1="268" x2="885" y1="258.0938" y2="258.0938"/><text fill="#000000" font-family="sans-serif" font-size="13" lengthAdjust="spacing" textLength="88" x="275" y="253.0278">Query (query)</text><polygon fill="#181818" points="279,283.2266,269,287.2266,279,291.2266,275,287.2266" style="stroke:#181818;stroke-width:1.0;"/><line style="stroke:#181818;stroke-width:1.0;" x1="273" x2="895" y1="287.2266" y2="287.2266"/><text fill="#000000" font-family="sans-serif" font-size="13" lengthAdjust="spacing" textLength="89" x="285" y="282.1606">Return results</text><line style="stroke:#181818;stroke-width:1.0;" x1="268" x2="310" y1="316.3594" y2="316.3594"/><line style="stroke:#181818;stroke-width:1.0;" x1="310" x2="310" y1="316.3594" y2="329.3594"/><line style="stroke:#181818;stroke-width:1.0;" x1="269" x2="310" y1="329.3594" y2="329.3594"/><polygon fill="#181818" points="279,325.3594,269,329.3594,279,333.3594,275,329.3594" style="stroke:#181818;stroke-width:1.0;"/><text fill="#000000" font-family="sans-serif" font-size="13" lengthAdjust="spacing" textLength="114" x="275" y="311.2935">Aggregate results</text><polygon fill="#181818" points="35,354.4922,25,358.4922,35,362.4922,31,358.4922" style="stroke:#181818;stroke-width:1.0;"/><line style="stroke:#181818;stroke-width:1.0;" x1="29" x2="262" y1="358.4922" y2="358.4922"/><text fill="#000000" font-family="sans-serif" font-size="13" lengthAdjust="spacing" textLength="167" x="41" y="353.4263">Return aggregated results</text><!--SRC=[ZP11JiCm44NtFiLNLwq45yW2oJPGiKA0EC386O95P0Tx0lJss265HXJHXILxvi_xVqnEOi9ZvgG6IkAT7oW8LhS31qj2VUmyRa8kjvx4nm2z0cNefVpI9wwatTGihrDfPXemfyhj9BTArSGulu1kSFN1RXJ6DRUSIBZ50rDop-lNaTDkeyY9VolrabdfEbFYDTYou2N4zm1_O91_r7M9ScQJUvOn1VG-2-BJiKcipHdiHhMyG7nPcWPtDGr-XJBAB2qIvx6NVCWnCyN-IR7A_aknCwM8TDSbxcfnhviwzLE_2RJNjCTW-XC0]--></g></svg>