<svg xmlns="http://www.w3.org/2000/svg" xmlns:xlink="http://www.w3.org/1999/xlink" contentStyleType="text/css" height="1085px" preserveAspectRatio="none" style="width:861px;height:1085px;background:#FFFFFF;" version="1.1" viewBox="0 0 861 1085" width="861px" zoomAndPan="magnify"><defs/><g><text fill="#888888" font-family="sans-serif" font-size="10" lengthAdjust="spacing" textLength="63" x="784.1452" y="9.2822">Components</text><text fill="#000000" font-family="sans-serif" font-size="14" font-weight="bold" lengthAdjust="spacing" textLength="110" x="368.5726" y="35.6357">Open Catalogi</text><!--cluster Azure--><g id="cluster_Azure"><path d="M16.6456,948.0264 C19.2188,942.1942 24.7678,940.993 29.0412,946.0998 C32.2118,939.8613 36.464,939.544 40.5432,945.223 C43.5646,940.6327 46.8534,940.639 50.4899,944.499 C53.9835,938.1371 59.3564,938.5873 62.9162,944.4316 C66.4943,938.9778 69.9715,939.2568 73.9452,944.0039 C78.6402,939.5684 83.6997,940.6478 86.3358,946.4869 C89.1308,940.5258 94.0987,940.931 97.1681,946.2227 C100.5923,941.0367 105.7787,940.62 108.7294,946.7081 C115.7736,948.9034 118.044,954.8852 112.6459,960.5906 C119.6722,963.6392 120.1962,969.0734 114.0125,973.5184 C121.6257,975.9781 122.9073,983.1729 117.1273,988.4302 C121.3996,992.9918 121.7273,998.3105 114.673,1000.5851 C121.1334,1006.424 120.5032,1011.7951 112.4415,1015.4547 C117.2674,1020.5781 116.9484,1026.9067 109.3736,1029.278 C106.2066,1034.8602 100.5524,1036.4535 96.4847,1030.2642 C92.4064,1034.7939 89.2629,1034.9951 86.3982,1029.091 C83.5386,1035.2121 79.259,1035.2078 74.8631,1030.769 C71.7329,1037.2788 67.6703,1036.9067 63.3158,1032.0083 C59.0662,1038.0911 53.6225,1035.7405 51.0791,1030.2105 C48.3384,1034.5092 43.072,1034.6656 40.5381,1029.9682 C36.1299,1035.7982 31.2098,1035.3485 28.5951,1028.3045 C24.838,1035.0497 20.6882,1035.4779 16.1998,1028.9895 C10.2011,1025.107 9.3273,1018.9504 16.1387,1015.0119 C9.9611,1010.4519 9.5107,1005.9194 16.4822,1001.6988 C9.5577,998.644 8.8401,992.3061 15.7677,988.5014 C9.0378,984.489 8.1874,979.0783 14.9184,974.263 C8.5869,970.3096 7.868,963.5222 15.4248,960.0642 C9.8974,956.1366 11.1199,950.8331 16.6456,948.0264 " fill="none" style="stroke:#181818;stroke-width:1.0;"/><text fill="#000000" font-family="sans-serif" font-size="14" font-weight="bold" lengthAdjust="spacing" textLength="47" x="38.1452" y="964.285">Azure</text></g><!--cluster Internet--><g id="cluster_Internet"><path d="M355.407,70.149 C359.9469,60.6664 369.1068,59.6783 375.4536,68.1293 C381.0412,57.943 388.6094,59.2387 395.184,67.0471 C401.0522,58.9009 409.1821,57.6507 414.73,67.3971 C422.2504,57.465 429.2281,59.5406 435.9071,68.348 C440.1905,58.2371 447.6504,57.6899 454.0795,66.2606 C460.9228,55.9375 466.9353,56.332 473.9656,66.0753 C479.9619,58.4359 486.8421,58.0491 491.434,67.5099 C498.0049,59.0158 503.863,57.1353 510.7316,67.2004 C517.0981,58.6453 526.297,58.6476 531.4799,68.5321 C536.4239,58.1815 542.8743,57.4207 549.9709,66.4817 C557.3896,58.5916 563.6046,58.1832 568.848,68.7113 C572.9144,57.4716 582.9758,57.8029 589.4318,66.2074 C596.5951,57.9474 604.5783,59.0277 609.9805,68.2744 C619.6305,58.3444 628.7362,61.4405 633.6452,73.3999 C634.8258,72.1766 636.125,72.9312 636.4469,74.3207 C649.3991,83.2738 647.5178,92.6939 635.0642,100.2945 C647.2115,107.2954 646.0465,117.4066 636.0927,125.316 C645.6572,132.8483 645.7372,141.0916 634.986,147.6157 C648.1655,161.5236 642.1962,171.7574 626.6452,177.6999 C628.7532,178.5656 629.0589,179.6817 627.5458,181.4233 C622.5395,192.0012 613.9905,190.2374 607.8218,182.6881 C603.5322,190.7655 595.3475,191.3938 590.5566,183.2207 C584.0119,193.3935 574.3508,193.8076 568.8082,182.2191 C563.9941,190.9668 558.106,193.2556 551.104,184.4222 C547.2083,196.4721 536.6834,196.1518 529.5285,187.883 C523.8298,194.6461 518.7914,196.4049 513.2681,187.6987 C508.0244,196.9298 501.167,199.0752 494.3791,189.2276 C487.8156,201.3279 479.3076,199.3628 472.4895,189.4812 C465.6553,197.1605 457.7551,195.8529 454.8825,185.5929 C448.297,195.0285 441.494,194.6194 435.675,184.8273 C429.1131,193.6789 421.5262,194.9727 414.4459,185.4254 C407.3247,195.4298 399.5133,195.305 393.5848,184.2442 C387.1195,192.5196 381.791,190.5936 376.9483,182.5863 C361.1804,192.1886 352.8596,187.1144 347.6452,170.6999 C348.0793,170.6801 348.2361,170.9901 348.0495,171.3539 C336.6966,166.5355 333.2715,158.8964 342.9297,149.2182 C331.0936,144.5564 330.5745,133.6718 338.9335,125.5939 C326.4534,115.2983 328.8706,104.8069 343.8663,99.7571 C329.5067,85.7922 337.7436,70.2632 354.6452,66.3999 C356.8924,67.1008 356.7531,68.7181 355.407,70.149 " fill="none" style="stroke:#181818;stroke-width:1.0;"/><text fill="#000000" font-family="sans-serif" font-size="14" font-weight="bold" lengthAdjust="spacing" textLength="63" x="459.1452" y="84.395">Internet</text></g><!--cluster Kubernetes--><g id="cluster_Kubernetes"><path d="M44.1877,381.3359 C61.0385,355.4491 76.2276,359.9084 93.0429,381.3725 C104.103,360.0461 121.1481,355.4017 136.0148,377.6155 C148.0787,357.0201 165.3102,355.7986 179.8225,374.9145 C196.565,355.435 213.0977,355.3529 223.8626,380.777 C236.9968,352.9663 260.7703,352.0338 275.8632,378.9147 C285.1413,358.6337 305.1839,354.7945 317.1683,376.2354 C329.9158,356.6111 342.4438,352.8873 359.3536,371.6629 C374.566,347.4712 397.3527,350.7101 409.255,375.0653 C421.2726,355.3136 439.9724,353.1375 451.2029,375.8429 C465.2024,351.8161 481.4264,355.4425 496.5437,374.6713 C513.8702,351.8698 534.3767,357.2146 545.7008,381.0044 C556.3956,359.52 577.5691,360.8945 589.7335,379.3857 C605.7583,357.6496 619.9951,358.6782 631.9556,383.1032 C649.4628,362.7339 665.553,361.0345 681.6452,384.6999 C686.9959,382.5724 691.3044,385.6263 689.8394,391.5966 C706.5532,407.5554 703.2212,425.1175 683.596,435.9624 C706.5146,446.0537 708.8287,462.6354 692.1989,480.3855 C714.7818,490.8569 710.9674,510.4138 692.8946,521.572 C717.0695,535.3057 718.6963,552.1903 695.7356,568.7618 C713.7959,580.6729 711.395,601.4441 692.5522,610.5435 C712.3416,626.0618 709.3521,643.5239 689.3541,656.2587 C707.9032,667.9311 712.1658,682.8649 693.0349,697.8704 C716.1456,716.6768 712.3024,733.0945 685.8712,744.2484 C711.2037,755.9598 712.0705,775.4515 688.3185,789.8001 C710.4991,812.325 703.3205,830.1053 674.6452,838.2899 C680.2178,837.6923 681.1997,840.96 679.8604,845.4189 C665.7608,870.7061 644.4826,866.3857 631.9247,843.8728 C621.3612,866.3145 599.0196,863.6728 587.4022,845.0144 C572.8489,866.7077 556.4658,865.4186 540.9754,846.0745 C530.1784,866.4601 513.1074,864.789 500.0381,848.6192 C488.0441,870.3566 466.3106,872.7943 454.7461,848.1994 C439.6723,872.1038 424.8583,868.9664 408.8802,849.1479 C398.8944,870.7579 377.7643,869.5915 366.2658,850.7411 C350.8082,872.9616 333.9166,877.7861 317.086,852.1521 C301.9315,873.3707 283.2065,870.2029 273.1139,847.1271 C261.1382,866.6202 242.3655,872.7014 228.1064,849.5362 C211.402,874.7124 195.2396,868.1775 180.2746,847.7132 C163.1263,867.3303 149.6072,865.7639 136.3502,843.6202 C123.3078,863.7932 102.2586,860.7293 91.7768,840.776 C70.9198,863.3254 47.4324,862.4083 35.6452,831.2899 C36.353,831.226 36.7318,831.5833 36.5181,832.3088 C18.3695,818.1838 21.3452,802.3269 40.4148,791.7802 C18.1931,778.5571 14.484,762.5776 35.974,745.1883 C15.1072,733.2132 12.4322,716.3532 33.1215,701.6551 C10.8279,687.1192 6,670.6932 29.7692,652.9847 C14.1732,637.5899 11.0238,623.3865 33.4964,611.404 C13.6735,599.5232 12.2245,583.2855 29.3249,567.8669 C10.0958,549.7542 12.9216,534.5722 37.158,524.2687 C11.9887,508.438 13.7487,492.9707 37.3075,477.2951 C15.4256,464.5025 15.7541,443.8795 38.7111,432.4917 C17.1493,416.5782 14.5811,390.0502 42.6452,377.6999 C44.772,378.0021 45.2247,379.6916 44.1877,381.3359 " fill="none" style="stroke:#181818;stroke-width:1.0;"/><text fill="#000000" font-family="sans-serif" font-size="14" font-weight="bold" lengthAdjust="spacing" textLength="93" x="312.1452" y="395.695">Kubernetes</text></g><!--cluster Layer 5 (interaction)--><g id="cluster_Layer 5 (interaction)"><path d="M54.1452,412.6999 L216.1452,412.6999 A3.75,3.75 0 0 1 218.6452,415.1999 L225.6452,434.9967 L445.1452,434.9967 A2.5,2.5 0 0 1 447.6452,437.4967 L447.6452,574.4999 A2.5,2.5 0 0 1 445.1452,576.9999 L54.1452,576.9999 A2.5,2.5 0 0 1 51.6452,574.4999 L51.6452,415.1999 A2.5,2.5 0 0 1 54.1452,412.6999 " fill="none" style="stroke:#000000;stroke-width:1.5;"/><line style="stroke:#000000;stroke-width:1.5;" x1="51.6452" x2="225.6452" y1="434.9967" y2="434.9967"/><text fill="#000000" font-family="sans-serif" font-size="14" font-weight="bold" lengthAdjust="spacing" textLength="161" x="55.6452" y="427.695">Layer 5 (interaction)</text></g><!--cluster React NL Design--><g id="cluster_React NL Design"><path d="M78.1452,455.6999 L207.1452,455.6999 A3.75,3.75 0 0 1 209.6452,458.1999 L216.6452,477.9967 L217.1452,477.9967 A2.5,2.5 0 0 1 219.6452,480.4967 L219.6452,550.4999 A2.5,2.5 0 0 1 217.1452,552.9999 L78.1452,552.9999 A2.5,2.5 0 0 1 75.6452,550.4999 L75.6452,458.1999 A2.5,2.5 0 0 1 78.1452,455.6999 " fill="none" style="stroke:#000000;stroke-width:1.5;"/><line style="stroke:#000000;stroke-width:1.5;" x1="75.6452" x2="216.6452" y1="477.9967" y2="477.9967"/><text fill="#000000" font-family="sans-serif" font-size="14" font-weight="bold" lengthAdjust="spacing" textLength="128" x="79.6452" y="470.695">React NL Design</text></g><!--cluster Vue NL Design--><g id="cluster_Vue NL Design"><path d="M246.1452,455.6999 L362.1452,455.6999 A3.75,3.75 0 0 1 364.6452,458.1999 L371.6452,477.9967 L421.1452,477.9967 A2.5,2.5 0 0 1 423.6452,480.4967 L423.6452,550.4999 A2.5,2.5 0 0 1 421.1452,552.9999 L246.1452,552.9999 A2.5,2.5 0 0 1 243.6452,550.4999 L243.6452,458.1999 A2.5,2.5 0 0 1 246.1452,455.6999 " fill="none" style="stroke:#000000;stroke-width:1.5;"/><line style="stroke:#000000;stroke-width:1.5;" x1="243.6452" x2="371.6452" y1="477.9967" y2="477.9967"/><text fill="#000000" font-family="sans-serif" font-size="14" font-weight="bold" lengthAdjust="spacing" textLength="115" x="247.6452" y="470.695">Vue NL Design</text></g><!--cluster layer4--><g id="cluster_layer4"><path d="M474.1452,455.6999 L593.1452,455.6999 A3.75,3.75 0 0 1 595.6452,458.1999 L602.6452,477.9967 L663.1452,477.9967 A2.5,2.5 0 0 1 665.6452,480.4967 L665.6452,550.4999 A2.5,2.5 0 0 1 663.1452,552.9999 L474.1452,552.9999 A2.5,2.5 0 0 1 471.6452,550.4999 L471.6452,458.1999 A2.5,2.5 0 0 1 474.1452,455.6999 " fill="none" style="stroke:#000000;stroke-width:1.5;"/><line style="stroke:#000000;stroke-width:1.5;" x1="471.6452" x2="602.6452" y1="477.9967" y2="477.9967"/><text fill="#000000" font-family="sans-serif" font-size="14" font-weight="bold" lengthAdjust="spacing" textLength="118" x="475.6452" y="470.695">Layer 4 (Logic)</text></g><!--cluster layer2--><g id="cluster_layer2"><path d="M138.1452,633.9999 L240.1452,633.9999 A3.75,3.75 0 0 1 242.6452,636.4999 L249.6452,656.2967 L492.1452,656.2967 A2.5,2.5 0 0 1 494.6452,658.7967 L494.6452,811.7899 A2.5,2.5 0 0 1 492.1452,814.2899 L138.1452,814.2899 A2.5,2.5 0 0 1 135.6452,811.7899 L135.6452,636.4999 A2.5,2.5 0 0 1 138.1452,633.9999 " fill="none" style="stroke:#000000;stroke-width:1.5;"/><line style="stroke:#000000;stroke-width:1.5;" x1="135.6452" x2="249.6452" y1="656.2967" y2="656.2967"/><text fill="#000000" font-family="sans-serif" font-size="14" font-weight="bold" lengthAdjust="spacing" textLength="101" x="139.6452" y="648.995">Layer 2 (API)</text></g><!--cluster Open Catalogi App--><g id="cluster_Open Catalogi App"><path d="M178.1452,684.9999 L325.1452,684.9999 A3.75,3.75 0 0 1 327.6452,687.4999 L334.6452,707.2967 L460.1452,707.2967 A2.5,2.5 0 0 1 462.6452,709.7967 L462.6452,779.7899 A2.5,2.5 0 0 1 460.1452,782.2899 L178.1452,782.2899 A2.5,2.5 0 0 1 175.6452,779.7899 L175.6452,687.4999 A2.5,2.5 0 0 1 178.1452,684.9999 " fill="none" style="stroke:#000000;stroke-width:1.5;"/><line style="stroke:#000000;stroke-width:1.5;" x1="175.6452" x2="334.6452" y1="707.2967" y2="707.2967"/><text fill="#000000" font-family="sans-serif" font-size="14" font-weight="bold" lengthAdjust="spacing" textLength="146" x="179.6452" y="699.995">Open Catalogi App</text></g><!--cluster Layer 1 (data)--><g id="cluster_Layer 1 (data)"><path d="M142.1452,895.2899 L253.1452,895.2899 A3.75,3.75 0 0 1 255.6452,897.7899 L262.6452,917.5867 L492.1452,917.5867 A2.5,2.5 0 0 1 494.6452,920.0867 L494.6452,1057.0899 A2.5,2.5 0 0 1 492.1452,1059.5899 L142.1452,1059.5899 A2.5,2.5 0 0 1 139.6452,1057.0899 L139.6452,897.7899 A2.5,2.5 0 0 1 142.1452,895.2899 " fill="none" style="stroke:#000000;stroke-width:1.5;"/><line style="stroke:#000000;stroke-width:1.5;" x1="139.6452" x2="262.6452" y1="917.5867" y2="917.5867"/><text fill="#000000" font-family="sans-serif" font-size="14" font-weight="bold" lengthAdjust="spacing" textLength="110" x="143.6452" y="910.285">Layer 1 (data)</text></g><!--cluster Search index--><g id="cluster_Search index"><path d="M166.1452,938.2899 L270.1452,938.2899 A3.75,3.75 0 0 1 272.6452,940.7899 L279.6452,960.5867 L329.1452,960.5867 A2.5,2.5 0 0 1 331.6452,963.0867 L331.6452,1033.0899 A2.5,2.5 0 0 1 329.1452,1035.5899 L166.1452,1035.5899 A2.5,2.5 0 0 1 163.6452,1033.0899 L163.6452,940.7899 A2.5,2.5 0 0 1 166.1452,938.2899 " fill="none" style="stroke:#000000;stroke-width:1.5;"/><line style="stroke:#000000;stroke-width:1.5;" x1="163.6452" x2="279.6452" y1="960.5867" y2="960.5867"/><text fill="#000000" font-family="sans-serif" font-size="14" font-weight="bold" lengthAdjust="spacing" textLength="103" x="167.6452" y="953.285">Search index</text></g><!--cluster Object Store--><g id="cluster_Object Store"><path d="M358.1452,938.2899 L458.1452,938.2899 A3.75,3.75 0 0 1 460.6452,940.7899 L467.6452,960.5867 L468.1452,960.5867 A2.5,2.5 0 0 1 470.6452,963.0867 L470.6452,1033.0899 A2.5,2.5 0 0 1 468.1452,1035.5899 L358.1452,1035.5899 A2.5,2.5 0 0 1 355.6452,1033.0899 L355.6452,940.7899 A2.5,2.5 0 0 1 358.1452,938.2899 " fill="none" style="stroke:#000000;stroke-width:1.5;"/><line style="stroke:#000000;stroke-width:1.5;" x1="355.6452" x2="467.6452" y1="960.5867" y2="960.5867"/><text fill="#000000" font-family="sans-serif" font-size="14" font-weight="bold" lengthAdjust="spacing" textLength="99" x="359.6452" y="953.285">Object Store</text></g><!--entity identity--><g id="elem_identity"><rect fill="#F1F1F1" height="46.2969" rx="2.5" ry="2.5" style="stroke:#181818;stroke-width:0.5;" width="77" x="23.1452" y="973.2899"/><rect fill="#F1F1F1" height="10" style="stroke:#181818;stroke-width:0.5;" width="15" x="80.1452" y="978.2899"/><rect fill="#F1F1F1" height="2" style="stroke:#181818;stroke-width:0.5;" width="4" x="78.1452" y="980.2899"/><rect fill="#F1F1F1" height="2" style="stroke:#181818;stroke-width:0.5;" width="4" x="78.1452" y="984.2899"/><text fill="#000000" font-family="sans-serif" font-size="14" lengthAdjust="spacing" textLength="37" x="38.1452" y="1006.285">ADFS</text></g><!--entity user--><g id="elem_user"><ellipse cx="371.6452" cy="101.8999" fill="#F1F1F1" rx="8" ry="8" style="stroke:#181818;stroke-width:0.5;"/><path d="M371.6452,109.8999 L371.6452,136.8999 M358.6452,117.8999 L384.6452,117.8999 M371.6452,136.8999 L358.6452,151.8999 M371.6452,136.8999 L384.6452,151.8999 " fill="none" style="stroke:#181818;stroke-width:0.5;"/><text fill="#000000" font-family="sans-serif" font-size="14" lengthAdjust="spacing" textLength="32" x="355.6452" y="166.395">User</text></g><!--entity adminUser--><g id="elem_adminUser"><ellipse cx="443.6452" cy="101.8999" fill="#F1F1F1" rx="8" ry="8" style="stroke:#181818;stroke-width:0.5;"/><path d="M443.6452,109.8999 L443.6452,136.8999 M430.6452,117.8999 L456.6452,117.8999 M443.6452,136.8999 L430.6452,151.8999 M443.6452,136.8999 L456.6452,151.8999 " fill="none" style="stroke:#181818;stroke-width:0.5;"/><text fill="#000000" font-family="sans-serif" font-size="14" lengthAdjust="spacing" textLength="43" x="422.1452" y="166.395">Admin</text></g><!--entity externalCatalouge--><g id="elem_externalCatalouge"><ellipse cx="562.6452" cy="101.8999" fill="#F1F1F1" rx="8" ry="8" style="stroke:#181818;stroke-width:0.5;"/><path d="M562.6452,109.8999 L562.6452,136.8999 M549.6452,117.8999 L575.6452,117.8999 M562.6452,136.8999 L549.6452,151.8999 M562.6452,136.8999 L575.6452,151.8999 " fill="none" style="stroke:#181818;stroke-width:0.5;"/><text fill="#000000" font-family="sans-serif" font-size="14" lengthAdjust="spacing" textLength="126" x="499.6452" y="166.395">Externe Catalogus</text></g><!--entity ui--><g id="elem_ui"><rect fill="#F1F1F1" height="46.2969" rx="2.5" ry="2.5" style="stroke:#181818;stroke-width:0.5;" width="105" x="99.1452" y="490.6999"/><rect fill="#F1F1F1" height="10" style="stroke:#181818;stroke-width:0.5;" width="15" x="184.1452" y="495.6999"/><rect fill="#F1F1F1" height="2" style="stroke:#181818;stroke-width:0.5;" width="4" x="182.1452" y="497.6999"/><rect fill="#F1F1F1" height="2" style="stroke:#181818;stroke-width:0.5;" width="4" x="182.1452" y="501.6999"/><text fill="#000000" font-family="sans-serif" font-size="14" lengthAdjust="spacing" textLength="65" x="114.1452" y="523.695">Search UI</text></g><!--entity admin--><g id="elem_admin"><rect fill="#F1F1F1" height="46.2969" rx="2.5" ry="2.5" style="stroke:#181818;stroke-width:0.5;" width="147" x="260.1452" y="490.6999"/><rect fill="#F1F1F1" height="10" style="stroke:#181818;stroke-width:0.5;" width="15" x="387.1452" y="495.6999"/><rect fill="#F1F1F1" height="2" style="stroke:#181818;stroke-width:0.5;" width="4" x="385.1452" y="497.6999"/><rect fill="#F1F1F1" height="2" style="stroke:#181818;stroke-width:0.5;" width="4" x="385.1452" y="501.6999"/><text fill="#000000" font-family="sans-serif" font-size="14" lengthAdjust="spacing" textLength="107" x="275.1452" y="523.695">Admin Interface</text></g><!--entity service--><g id="elem_service"><rect fill="#F1F1F1" height="46.2969" rx="2.5" ry="2.5" style="stroke:#181818;stroke-width:0.5;" width="162" x="487.6452" y="490.6999"/><rect fill="#F1F1F1" height="10" style="stroke:#181818;stroke-width:0.5;" width="15" x="629.6452" y="495.6999"/><rect fill="#F1F1F1" height="2" style="stroke:#181818;stroke-width:0.5;" width="4" x="627.6452" y="497.6999"/><rect fill="#F1F1F1" height="2" style="stroke:#181818;stroke-width:0.5;" width="4" x="627.6452" y="501.6999"/><text fill="#000000" font-family="sans-serif" font-size="14" lengthAdjust="spacing" textLength="122" x="502.6452" y="523.695">Synchronysations</text></g><!--entity SearchAPI--><g id="elem_SearchAPI"><rect fill="#F1F1F1" height="46.2969" rx="2.5" ry="2.5" style="stroke:#181818;stroke-width:0.5;" width="113" x="191.1452" y="719.9999"/><rect fill="#F1F1F1" height="10" style="stroke:#181818;stroke-width:0.5;" width="15" x="284.1452" y="724.9999"/><rect fill="#F1F1F1" height="2" style="stroke:#181818;stroke-width:0.5;" width="4" x="282.1452" y="726.9999"/><rect fill="#F1F1F1" height="2" style="stroke:#181818;stroke-width:0.5;" width="4" x="282.1452" y="730.9999"/><text fill="#000000" font-family="sans-serif" font-size="14" lengthAdjust="spacing" textLength="73" x="206.1452" y="752.995">Search API</text></g><!--entity ObjectsAPI--><g id="elem_ObjectsAPI"><rect fill="#F1F1F1" height="46.2969" rx="2.5" ry="2.5" style="stroke:#181818;stroke-width:0.5;" width="108" x="338.6452" y="719.9999"/><rect fill="#F1F1F1" height="10" style="stroke:#181818;stroke-width:0.5;" width="15" x="426.6452" y="724.9999"/><rect fill="#F1F1F1" height="2" style="stroke:#181818;stroke-width:0.5;" width="4" x="424.6452" y="726.9999"/><rect fill="#F1F1F1" height="2" style="stroke:#181818;stroke-width:0.5;" width="4" x="424.6452" y="730.9999"/><text fill="#000000" font-family="sans-serif" font-size="14" lengthAdjust="spacing" textLength="68" x="353.6452" y="752.995">Admin API</text></g><!--entity search--><g id="elem_search"><rect fill="#F1F1F1" height="46.2969" rx="2.5" ry="2.5" style="stroke:#181818;stroke-width:0.5;" width="136" x="179.6452" y="973.2899"/><rect fill="#F1F1F1" height="10" style="stroke:#181818;stroke-width:0.5;" width="15" x="295.6452" y="978.2899"/><rect fill="#F1F1F1" height="2" style="stroke:#181818;stroke-width:0.5;" width="4" x="293.6452" y="980.2899"/><rect fill="#F1F1F1" height="2" style="stroke:#181818;stroke-width:0.5;" width="4" x="293.6452" y="984.2899"/><text fill="#000000" font-family="sans-serif" font-size="14" lengthAdjust="spacing" textLength="96" x="194.6452" y="1006.285">Elastic Search</text></g><!--entity db--><g id="elem_db"><rect fill="#F1F1F1" height="46.2969" rx="2.5" ry="2.5" style="stroke:#181818;stroke-width:0.5;" width="71" x="371.1452" y="973.2899"/><rect fill="#F1F1F1" height="10" style="stroke:#181818;stroke-width:0.5;" width="15" x="422.1452" y="978.2899"/><rect fill="#F1F1F1" height="2" style="stroke:#181818;stroke-width:0.5;" width="4" x="420.1452" y="980.2899"/><rect fill="#F1F1F1" height="2" style="stroke:#181818;stroke-width:0.5;" width="4" x="420.1452" y="984.2899"/><text fill="#000000" font-family="sans-serif" font-size="14" lengthAdjust="spacing" textLength="31" x="386.1452" y="1006.285">ORC</text></g><!--entity f5extern--><g id="elem_f5extern"><ellipse cx="204.6452" cy="277.6999" fill="#F1F1F1" rx="8" ry="8" style="stroke:#181818;stroke-width:0.5;"/><text fill="#000000" font-family="sans-serif" font-size="14" lengthAdjust="spacing" textLength="138" x="135.6452" y="307.695">F5 extern (port 443)</text></g><!--entity f5intern--><g id="elem_f5intern"><ellipse cx="443.6452" cy="277.6999" fill="#F1F1F1" rx="8" ry="8" style="stroke:#181818;stroke-width:0.5;"/><text fill="#000000" font-family="sans-serif" font-size="14" lengthAdjust="spacing" textLength="134" x="376.6452" y="307.695">F5 intern (port 443)</text></g><!--entity hipp--><g id="elem_hipp"><ellipse cx="783.6452" cy="513.8499" fill="#F1F1F1" rx="8" ry="8" style="stroke:#181818;stroke-width:0.5;"/><text fill="#000000" font-family="sans-serif" font-size="14" lengthAdjust="spacing" textLength="141" x="713.1452" y="543.845">Hipp (outd of scope)</text></g><!--link externalCatalouge to hipp--><g id="link_externalCatalouge_hipp"><path d="M587.4598,175.2476 C637.3298,261.0676 751.3513,457.2718 776.1113,499.8918 " fill="none" id="externalCatalouge-hipp" style="stroke:#181818;stroke-width:1.0;stroke-dasharray:7.0,7.0;"/><polygon fill="#181818" points="584.4452,170.0599,585.5086,179.8511,586.9574,174.383,592.4256,175.8317,584.4452,170.0599" style="stroke:#181818;stroke-width:1.0;"/><polygon fill="#181818" points="779.1252,505.0799,778.063,495.2885,776.6136,500.7565,771.1456,499.3071,779.1252,505.0799" style="stroke:#181818;stroke-width:1.0;"/><text fill="#000000" font-family="sans-serif" font-size="13" lengthAdjust="spacing" textLength="29" x="662.6452" y="282.2668">PKIO</text></g><!--link hipp to SearchAPI--><g id="link_hipp_SearchAPI"><path d="M769.8441,525.0943 C750.8041,539.0343 709.2952,567.7099 665.6452,584.9999 C617.8252,603.9299 603.6752,603.5299 552.6452,609.9999 C527.0552,613.2399 342.8052,604.7999 320.6452,617.9999 C282.9352,640.4399 264.3998,684.7283 255.3498,713.9583 " fill="none" id="hipp-SearchAPI" style="stroke:#181818;stroke-width:1.0;stroke-dasharray:7.0,7.0;"/><polygon fill="#181818" points="774.6852,521.5499,765.0605,523.6391,770.6509,524.5036,769.7864,530.094,774.6852,521.5499" style="stroke:#181818;stroke-width:1.0;"/><polygon fill="#181818" points="253.5752,719.6899,260.0582,712.2756,255.0541,714.9136,252.4161,709.9095,253.5752,719.6899" style="stroke:#181818;stroke-width:1.0;"/><text fill="#000000" font-family="sans-serif" font-size="13" lengthAdjust="spacing" textLength="156" x="643.6452" y="606.0668">Catalogus uitwisselingen</text></g><!--link user to f5extern--><g id="link_user_f5extern"><path d="M350.7834,150.5505 C315.9834,180.5905 244.5668,242.2389 217.9268,265.2389 " fill="none" id="user-f5extern" style="stroke:#181818;stroke-width:1.0;stroke-dasharray:7.0,7.0;"/><polygon fill="#181818" points="355.3252,146.6299,345.8987,149.4829,351.5404,149.8971,351.1262,155.5387,355.3252,146.6299" style="stroke:#181818;stroke-width:1.0;"/><polygon fill="#181818" points="213.3852,269.1599,222.8116,266.306,217.1699,265.8924,217.5836,260.2506,213.3852,269.1599" style="stroke:#181818;stroke-width:1.0;"/><text fill="#000000" font-family="sans-serif" font-size="13" lengthAdjust="spacing" textLength="116" x="289.6452" y="214.7668">Browser ANONIEM</text></g><!--link adminUser to f5intern--><g id="link_adminUser_f5intern"><path d="M443.6452,176.0499 C443.6452,209.7499 443.6452,244.6699 443.6452,262.9599 " fill="none" id="adminUser-f5intern" style="stroke:#181818;stroke-width:1.0;stroke-dasharray:7.0,7.0;"/><polygon fill="#181818" points="443.6452,170.0499,439.6452,179.0499,443.6452,175.0499,447.6452,179.0499,443.6452,170.0499" style="stroke:#181818;stroke-width:1.0;"/><polygon fill="#181818" points="443.6452,268.9599,447.6452,259.9599,443.6452,263.9599,439.6452,259.9599,443.6452,268.9599" style="stroke:#181818;stroke-width:1.0;"/><text fill="#000000" font-family="sans-serif" font-size="13" lengthAdjust="spacing" textLength="146" x="444.6452" y="214.7668">Browser MET JWT Claim</text></g><!--link f5extern to ui--><g id="link_f5extern_ui"><path d="M190.7797,287.9461 C177.5397,297.1561 158.1852,313.0799 148.6452,336.6999 C127.7352,388.4499 136.8559,450.0845 144.5659,484.5645 " fill="none" id="f5extern-ui" style="stroke:#181818;stroke-width:1.0;stroke-dasharray:7.0,7.0;"/><polygon fill="#181818" points="195.7052,284.5199,186.0328,286.3756,191.6007,287.3751,190.6012,292.9429,195.7052,284.5199" style="stroke:#181818;stroke-width:1.0;"/><polygon fill="#181818" points="145.8752,490.4199,147.8149,480.7639,144.7842,485.5404,140.0077,482.5096,145.8752,490.4199" style="stroke:#181818;stroke-width:1.0;"/><text fill="#000000" font-family="sans-serif" font-size="13" lengthAdjust="spacing" textLength="250" x="149.6452" y="349.7668">Alleen openbare endpoints en objecten</text></g><!--link f5intern to admin--><g id="link_f5intern_admin"><path d="M437.4335,291.9202 C422.4435,323.8202 370.547,434.3095 346.737,484.9795 " fill="none" id="f5intern-admin" style="stroke:#181818;stroke-width:1.0;stroke-dasharray:7.0,7.0;"/><polygon fill="#181818" points="439.9852,286.4899,432.5374,292.9342,437.8588,291.0151,439.7779,296.3365,439.9852,286.4899" style="stroke:#181818;stroke-width:1.0;"/><polygon fill="#181818" points="344.1852,490.4099,351.6331,483.9655,346.3117,485.8846,344.3926,480.5632,344.1852,490.4099" style="stroke:#181818;stroke-width:1.0;"/><text fill="#000000" font-family="sans-serif" font-size="13" lengthAdjust="spacing" textLength="90" x="414.6452" y="349.7668">Alle endpionts</text></g><!--link ui to SearchAPI--><g id="link_ui_SearchAPI"><path d="M163.5395,542.9972 C181.9395,586.5672 217.4206,670.5927 235.7906,714.0827 " fill="none" id="ui-SearchAPI" style="stroke:#181818;stroke-width:1.0;stroke-dasharray:7.0,7.0;"/><polygon fill="#181818" points="161.2052,537.4699,161.0217,547.317,163.1504,542.076,168.3915,544.2047,161.2052,537.4699" style="stroke:#181818;stroke-width:1.0;"/><polygon fill="#181818" points="238.1252,719.6099,238.308,709.7627,236.1797,715.0039,230.9385,712.8756,238.1252,719.6099" style="stroke:#181818;stroke-width:1.0;"/><text fill="#000000" font-family="sans-serif" font-size="13" lengthAdjust="spacing" textLength="90" x="192.6452" y="606.0668">Alle endpionts</text></g><!--link admin to ObjectsAPI--><g id="link_admin_ObjectsAPI"><path d="M341.0228,543.2774 C352.3328,586.8474 373.9976,670.3124 385.2876,713.8024 " fill="none" id="admin-ObjectsAPI" style="stroke:#181818;stroke-width:1.0;stroke-dasharray:7.0,7.0;"/><polygon fill="#181818" points="339.5152,537.4699,337.9049,547.1862,340.7715,542.3095,345.6482,545.1761,339.5152,537.4699" style="stroke:#181818;stroke-width:1.0;"/><polygon fill="#181818" points="386.7952,719.6099,388.4055,709.8935,385.5389,714.7703,380.6621,711.9037,386.7952,719.6099" style="stroke:#181818;stroke-width:1.0;"/><text fill="#000000" font-family="sans-serif" font-size="13" lengthAdjust="spacing" textLength="90" x="358.6452" y="606.0668">Alle endpionts</text></g><!--link ObjectsAPI to db--><g id="link_ObjectsAPI_db"><path d="M393.8852,766.4499 C396.5352,814.0099 402.3809,918.9992 405.0509,966.8392 " fill="none" id="ObjectsAPI-to-db" style="stroke:#181818;stroke-width:1.0;stroke-dasharray:7.0,7.0;"/><polygon fill="#181818" points="405.3852,972.8299,408.8775,963.6209,405.1066,967.8376,400.8899,964.0667,405.3852,972.8299" style="stroke:#181818;stroke-width:1.0;"/><text fill="#000000" font-family="sans-serif" font-size="13" lengthAdjust="spacing" textLength="43" x="400.6452" y="875.3568">Persist</text></g><!--link SearchAPI to search--><g id="link_SearchAPI_search"><path d="M247.6452,766.4499 C247.6452,814.0099 247.6452,918.9899 247.6452,966.8299 " fill="none" id="SearchAPI-to-search" style="stroke:#181818;stroke-width:1.0;stroke-dasharray:7.0,7.0;"/><polygon fill="#181818" points="247.6452,972.8299,251.6452,963.8299,247.6452,967.8299,243.6452,963.8299,247.6452,972.8299" style="stroke:#181818;stroke-width:1.0;"/><text fill="#000000" font-family="sans-serif" font-size="13" lengthAdjust="spacing" textLength="50" x="248.6452" y="875.3568">Look up</text></g><!--link layer2 to identity--><g id="link_layer2_identity"><path d="M135.5833,768.8607 C135.5023,769.1089 135.4208,769.3585 135.3389,769.6097 C135.011,770.6144 134.6752,771.6433 134.3318,772.6955 C128.8377,789.5305 121.4015,812.3174 113.3752,836.9124 C97.3227,886.1024 80.7717,936.8209 70.8167,967.3259 " fill="none" id="layer2-to-identity" style="stroke:#181818;stroke-width:1.0;stroke-dasharray:7.0,7.0;"/><polygon fill="#181818" points="68.9552,973.0299,75.55,965.7149,70.5064,968.2766,67.9448,963.233,68.9552,973.0299" style="stroke:#181818;stroke-width:1.0;"/><text fill="#000000" font-family="sans-serif" font-size="13" lengthAdjust="spacing" textLength="36" x="103.6452" y="875.3568">AUTH</text></g><!--link service to ObjectsAPI--><g id="link_service_ObjectsAPI"><path d="M551.1252,537.4699 C517.3952,581.0399 447.449,671.3761 413.769,714.8661 " fill="none" id="service-to-ObjectsAPI" style="stroke:#181818;stroke-width:1.0;stroke-dasharray:7.0,7.0;"/><polygon fill="#181818" points="410.0952,719.6099,418.7684,714.9433,413.1567,715.6567,412.4433,710.045,410.0952,719.6099" style="stroke:#181818;stroke-width:1.0;"/><text fill="#000000" font-family="sans-serif" font-size="13" lengthAdjust="spacing" textLength="36" x="507.6452" y="606.0668">AUTH</text></g><text fill="#888888" font-family="sans-serif" font-size="10" lengthAdjust="spacing" textLength="165" x="341.0726" y="1074.8721">Common Gateway | Components</text><!--SRC=[RLJ1Sjem4BthAtOukHTcciB5q-cCIqX3Gq8cG7l8v23i1TGOoMF99JJ9ltSbMJQ6tApTj-_jMwriXCanXbc14aRSy5nj15ihPR2COQHsEoNX1pUuvmTuiu52IPH6iotohCQ441EIojOyHUXT3G5Vw2GXAbHfO33uyga7NCDwwECdO7Vw0EpZ7UfhKHGGgSfaeDQWKrMWHsyfmLYQgog3NlAlAh7tok0nkRoQFu45Y8pw5ER0tXlOnF6Z8IHFZIgXjzHOEhgAFa8moNP2kYYtNykZrDZPmJ2zIZkODybp7wqsoAneKBsfLauLDUcoWgVFV4FEflo09GmXScw9NoX9rbvRn0DI5EwcS8bQRAJDmUCSUPbkOJdnBYjXfPgINnMU5ZWtC0aZzMNE65NQDayw6a0qfRr8_PXp6njuvODCjwMI1yrjhzepqN3-YXG_Ohg0ABcV7F5S4CyHghE7a1H5no6LFjbAVwHJuoLaPgi_c1fjKrRzdNL6uNlu35562cwmRQwM43B35oywphas8gtLWZNxtI7raZ2dPK1VE7iOUNIsylCyMmRuskz_S_iQm_tDPCRifmystk9se-XApLveZRcG6wJNmEnkUdnuJp5yBzNUXfExsTraVCkQJGt0-esroDln0dx-Ni0evsB70fE7LoA69C-HxeCUc5pn4W5bLYXYeVMcgFDDtJJ4hiwf-bA7fxMWNqCbpjoT85oT1xMNU8PgKm3zJEqbmRCL3H5BBRHX3N-RzbSMmrIfPwWALgzTI8T_0aaj5zUitjqctUc50Fy1]--></g></svg>