<svg xmlns="http://www.w3.org/2000/svg" xmlns:xlink="http://www.w3.org/1999/xlink" contentStyleType="text/css" height="1023px" preserveAspectRatio="none" style="width:1045px;height:1023px;background:#FFFFFF;" version="1.1" viewBox="0 0 1045 1023" width="1045px" zoomAndPan="magnify"><defs/><g><text fill="#888888" font-family="sans-serif" font-size="10" lengthAdjust="spacing" textLength="63" x="968.303" y="9.2822">Components</text><text fill="#000000" font-family="sans-serif" font-size="14" font-weight="bold" lengthAdjust="spacing" textLength="110" x="460.6515" y="35.6357">Open Catalogi</text><!--cluster Internet--><g id="cluster_Internet"><path d="M125.1442,96.7005 C133.5662,86.5323 139.3682,89.9074 145.306,99.2655 C150.7389,88.6693 158.4431,89.3652 164.5165,98.6465 C169.2498,89.4244 177.0996,87.2277 184.5764,95.5008 C191.5724,87.0856 198.993,87.3311 204.7164,96.924 C210.6895,88.3558 217.7258,91.1183 222.1574,98.5993 C226.3904,86.9758 237.2394,86.1751 243.7915,96.2914 C248.5438,85.789 258.6272,85.7849 263.9907,95.6864 C270.5911,86.294 278.2727,85.921 284.9306,95.6232 C290.8672,86.6575 298.4338,86.7992 304.0547,95.9564 C309.7517,87.6031 318.5068,85.7247 323.9017,96.2736 C330.8891,85.7894 340.3817,87.6727 344.8401,98.7315 C348.7674,88.9148 356.0921,89.4564 362.1378,96.5667 C370.7227,86.7871 377.9081,89.0578 384.5311,98.8155 C394.0858,89.0537 402.2855,89.9012 408,102.7938 C409.5904,101.3221 410.9158,101.8695 411.4336,103.8582 C423.9243,109.8956 426.8552,118.2248 415.9922,128.5703 C427.8473,135.5391 429.8916,144.7402 419.0575,154.4014 C427.0211,162.5844 428.106,173.0289 414.6014,176.9736 C426.2009,194.7748 420.4723,203.3237 401,207.0938 C402.9432,207.634 403.4586,209.4018 401.8116,210.741 C397.1758,219.3449 388.5388,220.7128 382.9613,211.7516 C377.3143,220.1118 367.7864,222.1476 362.0992,211.7965 C356.89,222.1771 349.6238,222.8523 342.5493,213.6596 C337.8032,224.4943 328.4337,224.5114 321.3738,216.2215 C316.6519,224.3377 307.3188,225.3368 302.4188,216.4196 C298.2589,226.6022 290.0965,228.857 282.8816,219.4694 C277.8614,229.8955 271.6385,229.6633 264.2778,221.8576 C258.5121,229.4041 249.9104,230.4328 245.4323,220.4718 C238.0438,231.2492 228.5071,229.1817 223.7599,217.8792 C217.7165,228.6653 207.7457,224.9327 203.2728,216.2285 C195.9048,224.4658 187.8087,225.3389 182.4401,214.0908 C175.8079,222.9647 169.2521,223.3397 162.5701,214.1455 C154.1919,222.4639 147.0517,219.6014 143.7568,209.0716 C130.3131,218.5004 119.839,218.2263 115,200.0938 C115.6335,199.6364 116.2433,199.8867 116.3369,200.6738 C106.4973,193.4788 107.3267,185.1639 117.6565,179.2088 C104.5231,173.2623 100.7108,161.5132 113.9724,151.9936 C104.9836,143.8493 105.7559,136.7814 116.3846,130.8782 C101.618,116.9294 105.7014,104.7705 122,95.7938 C123.5148,94.506 124.5037,94.9566 125.1442,96.7005 " fill="none" style="stroke:#181818;stroke-width:1.0;"/><text fill="#000000" font-family="sans-serif" font-size="14" font-weight="bold" lengthAdjust="spacing" textLength="63" x="230" y="113.7889">Internet</text></g><!--cluster Federatief netwerk--><g id="cluster_Federatief netwerk"><path d="M801.0561,325.5098 C806.3318,316.0742 812.8428,316.2445 818.9461,324.6814 C822.4568,318.3733 828.1738,317.7229 832.0755,324.2824 C837.8818,317.0877 845.2527,316.4693 850.0413,325.415 C853.987,318.0853 860.0381,316.9947 865.3618,323.9356 C868.6408,316.8168 874.8899,318.2292 878.3768,323.7209 C882.8123,316.2383 888.0709,314.7079 894.4918,321.4756 C899.2284,315.8084 906.5755,316.6623 909.4453,323.6768 C914.1329,316.1087 920.6008,314.7629 926.1961,322.6959 C931.2311,316.1958 936.2941,316.465 940.8479,323.2275 C946.2357,315.3777 954.6744,315.1529 958.2127,325.0384 C960.8601,318.3031 966.6784,318.1695 971.1583,322.9846 C978.0585,314.3252 983.5657,315.4959 989.0847,324.3947 C994.0858,318.2643 999.0488,320.2318 1002.449,326.1677 C1010.8141,316.982 1020.6847,318.187 1024,331.0938 C1026.0899,331.0247 1026.7118,332.2807 1025.838,334.0526 C1033.3784,337.9222 1033.6398,342.6732 1027.7413,348.3339 C1037.365,353.5185 1037.272,359.7355 1028.6279,365.8451 C1036.1576,369.8937 1036.4124,377.2806 1028.9109,381.5992 C1037.3937,386.5584 1038.303,393.7747 1029.3042,399.1261 C1036.6353,403.7717 1037.5303,411.6888 1029.3822,416.4042 C1037.7978,421.8176 1037.1145,426.676 1029.1718,431.8668 C1036.4666,437.073 1034.9332,445.3041 1027.5618,449.1436 C1033.8575,460.3614 1032.827,471.2255 1017,472.3938 C1019.197,472.2734 1019.7523,473.2666 1019.1069,475.2459 C1013.6315,483.0596 1007.019,483.2059 1002.9035,473.9546 C998.6772,483.1447 993.2587,483.4216 986.1439,477.0693 C982.3979,482.8582 976.4576,483.1085 972.8353,476.9317 C970.1832,485.7033 964.3002,486.1916 958.1923,480.4084 C953.7698,487.5137 947.6869,487.7321 942.3058,481.5548 C936.81,490.8741 930.3333,491.1433 924.7337,481.6519 C921.6456,487.4701 916.0603,489.1591 911.8743,482.8125 C906.0234,490.0545 899.995,489.6379 895.4327,481.4402 C890.1295,488.8006 884.3693,488.7398 879.8033,480.6923 C874.7025,487.9002 869.4305,487.7448 865.4262,479.6614 C859.2218,486.5945 851.8939,485.659 847.8353,477.2079 C841.9551,485.2894 836.1375,483.2419 831.9004,475.5481 C826.4157,482.6449 822.1323,480.8506 817.8792,474.2842 C804.8912,484.2043 797.563,480.7886 794,465.3938 C795.2055,465.2555 795.6753,466.0293 795.075,467.0577 C786.37,463.2791 784.948,455.6518 793.4445,450.2087 C785.1307,444.6105 785.0291,437.9498 793.3144,432.2314 C784.2205,428.2787 783.7848,423.1575 789.7999,415.9445 C781.5337,411.479 781.5587,405.3807 788.7254,399.8827 C782.7256,394.0908 781.7719,387.0767 791.0456,383.4401 C782.4111,378.0008 784.2393,371.7014 791.2847,366.4831 C784.5679,361.3189 783.805,353.0866 793.2448,349.8232 C785.3062,338.5729 788.2081,329.0957 801,324.0938 C801.6674,324.5155 801.7008,325.0361 801.0561,325.5098 " fill="none" style="stroke:#181818;stroke-width:1.0;"/><text fill="#000000" font-family="sans-serif" font-size="14" font-weight="bold" lengthAdjust="spacing" textLength="152" x="833" y="342.0889">Federatief netwerk</text></g><!--cluster Catalogi--><g id="cluster_Catalogi"><path d="M812.5,359.0938 L876.5,359.0938 A3.75,3.75 0 0 1 879,361.5938 L886,381.3906 L1005.5,381.3906 A2.5,2.5 0 0 1 1008,383.8906 L1008,453.8938 A2.5,2.5 0 0 1 1005.5,456.3938 L812.5,456.3938 A2.5,2.5 0 0 1 810,453.8938 L810,361.5938 A2.5,2.5 0 0 1 812.5,359.0938 " fill="none" style="stroke:#000000;stroke-width:1.5;"/><line style="stroke:#000000;stroke-width:1.5;" x1="810" x2="886" y1="381.3906" y2="381.3906"/><text fill="#000000" font-family="sans-serif" font-size="14" font-weight="bold" lengthAdjust="spacing" textLength="63" x="814" y="374.0889">Catalogi</text></g><!--cluster Externe Applicaties--><g id="cluster_Externe Applicaties"><path d="M518.148,68.7386 C523.2656,59.3796 531.8283,61.2846 536.3397,69.3708 C543.5604,58.2458 552.8786,57.4973 559.8219,69.6507 C565.933,60.543 572.9931,60.1261 580.1453,68.4359 C585.5099,59.3204 594.9212,60.691 599.4101,69.3833 C605.2113,59.8241 614.1171,56.6288 621.1271,68.1372 C626.7053,59.036 632.7152,61.0347 638.3423,68.0849 C645.0992,57.1813 654.3227,56.8851 661.7528,67.3473 C667.9063,58.107 673.8099,58.3328 681.126,66.0163 C687.3153,57.2605 693.4786,57.9568 698.7159,66.9592 C705.2111,56.3536 715.6633,55.9375 721.116,67.9898 C726.9769,57.4855 735.6427,57.8239 742.5311,66.8639 C749.8409,57.3797 755.6245,60.0082 761.6646,68.2355 C769.4611,60.2282 775.3809,60.7272 780.3436,71.1132 C791.5078,57.9029 799.7218,59.8601 807,74.7938 C808.1993,74.5882 808.993,74.976 808.7403,76.3717 C819.6466,81.9316 823.045,88.7208 813.3936,98.5868 C823.8419,105.4866 824.2369,115.4973 813.858,122.7967 C823.0883,126.7528 827.5135,133.9135 818.3015,142.1122 C828.6328,151.6086 827.0368,163.2453 812.4637,166.8691 C824.1,173.7242 824.2007,180.572 813.3967,188.3996 C823.7077,202.81 816.8004,214.7981 800,216.0938 C801.0089,215.4812 801.7476,216.1716 801.7689,217.175 C795.4293,225.7161 789.4833,227.5256 782.1533,218.2663 C776.9294,227.4286 770.7943,229.162 763.2659,220.7419 C755.2826,231.5389 747.8724,233.4089 739.2551,221.4096 C733.149,231.4034 727.0062,231.5908 719.8692,222.4542 C716.713,233.2752 709.2946,234.8426 701.9475,226.3413 C695.7691,237.3132 687.8178,237.0315 681.497,226.4766 C675.1152,238.9544 666.1503,236.8812 658.3609,228.0015 C652.7469,234.3734 645.1805,235.0981 641.3962,225.9956 C634.1051,235.8128 625.5609,234.3599 619.913,224.2261 C612.6321,233.3506 606.1842,236.0684 598.519,224.6258 C592.7526,234.205 585.5913,233.7516 580.2253,224.242 C571.5481,232.67 563.5283,230.1572 558.6478,219.8657 C553.3894,230.3766 546.2188,230.2601 539.949,220.8133 C526.159,230.8022 511.6157,228.614 509,209.0938 C510.4136,208.3335 511.6089,208.9199 511.5211,210.6275 C501.0512,205.0978 496.9241,195.9182 508.1737,187.2752 C497.1694,182.8773 497.2749,171.9364 505.4993,165.2081 C494.4833,161.4321 491.9472,152.2602 500.4881,143.8875 C491.5375,134.7256 492.1296,127.351 503.6509,121.0207 C494.7563,111.4752 497.1913,104.4624 508.1884,99.0193 C494.6915,86.4793 501.0843,73.2259 516,67.7938 C517.1583,67.1197 517.8355,67.49 518.148,68.7386 " fill="none" style="stroke:#181818;stroke-width:1.0;"/><text fill="#000000" font-family="sans-serif" font-size="14" font-weight="bold" lengthAdjust="spacing" textLength="152" x="582" y="85.7889">Externe Applicaties</text></g><!--cluster Bronnen--><g id="cluster_Bronnen"><path d="M527.5,102.7938 L595.5,102.7938 A3.75,3.75 0 0 1 598,105.2938 L605,125.0906 L788.5,125.0906 A2.5,2.5 0 0 1 791,127.5906 L791,197.5938 A2.5,2.5 0 0 1 788.5,200.0938 L527.5,200.0938 A2.5,2.5 0 0 1 525,197.5938 L525,105.2938 A2.5,2.5 0 0 1 527.5,102.7938 " fill="none" style="stroke:#000000;stroke-width:1.5;"/><line style="stroke:#000000;stroke-width:1.5;" x1="525" x2="605" y1="125.0906" y2="125.0906"/><text fill="#000000" font-family="sans-serif" font-size="14" font-weight="bold" lengthAdjust="spacing" textLength="67" x="529" y="117.7889">Bronnen</text></g><!--cluster Kubernetes--><g id="cluster_Kubernetes"><path d="M92.8978,286.4024 C107.4976,259.9407 124.0542,260.856 142.3954,282.5573 C154.5331,256.9536 178.6924,257.0056 193.2042,280.0793 C204.3245,262.7498 224.446,261.8415 234.5451,281.2291 C245.3786,257.7729 266.8785,256.156 279.7547,279.245 C295.0768,258.8925 310.0024,255.0091 327.6763,276.5551 C344.6643,254.6422 360.2315,253.2386 375.1983,278.5875 C386.5711,256.4128 404.8586,254.3254 421.6799,272.2759 C439.3752,248.9615 454.5961,249.6112 468.3945,275.9426 C485.8072,256.2006 501.5945,251.4065 518.2038,276.8286 C531.5015,257.3973 551.9929,258.9125 561.1406,281.1091 C579.8237,254.5972 599.072,256.2337 614.4747,284.3139 C624.9949,265.3845 640.5815,258.6805 656.721,278.1279 C670.3652,254.7461 695.218,256.5724 706.7977,280.3215 C725.857,257.9609 742.2746,265.9144 754,288.0938 C757.0035,287.3914 758.0994,289.2241 757.5045,291.8653 C779.9268,308.8476 786.7268,326.5614 758.7957,344.7726 C776.4495,355.1819 782.5116,373.0513 761.1184,385.6778 C781.1029,400.1852 778.7009,424.4602 757.2481,435.7657 C781.6477,450.6859 788.077,468.3729 763.4708,489.0194 C783.6983,501.1731 784.6543,518.1508 763.5947,530.428 C786.782,546.6266 787.0449,573.1337 757.6492,583.4343 C783.056,595.0009 784.58,614.9397 761.2651,630.2679 C778.6063,643.4058 779.9251,663.5821 757.7726,673.5319 C780.5197,689.2515 787.2253,710.661 758.7824,727.3413 C782.0623,749.3493 774.1066,766.7074 747,776.6838 C748.0076,776.435 748.8189,777.0739 748.5308,778.1646 C736.8148,799.2455 714.0145,803.5111 701.1323,779.3875 C689.0059,802.2329 667.3374,801.984 654.2497,780.4019 C643.4509,800.3405 624.4817,802.9399 609.4647,785.4492 C598.9195,806.7698 576.2142,814.1732 561.4359,789.9092 C544.5435,814.0372 529.5378,811.8194 513.9972,788.556 C501.5772,809.0935 485.8282,807.7056 473.5078,788.4547 C456.5025,809.3147 440.6179,812.5278 425.4971,786.524 C415.9234,813.5042 393.0008,814.0272 377.2915,792.6391 C361.6237,811.1484 346.3851,812.4121 332.0054,791.1717 C313.519,817.9197 294.3664,814.7984 279.8452,787.355 C266.1007,811.1698 248.6087,807.2865 235.4514,786.7671 C218.6797,811.4626 196.791,804.622 186.4942,780.3002 C170.4299,800.8317 151.9267,803.8429 138.0176,778.0451 C120.308,800.5922 94.2751,795.1663 84,769.6838 C86.8878,766.7323 90.2949,766.9727 92.1523,770.9043 C70.6578,761.0674 71.8785,741.0365 90.3086,729.425 C59.9319,717.0821 62.6292,694.5029 84.0739,676.101 C60.7051,663.1329 66.3677,642.881 85.1932,630.9591 C66.1516,618.3687 61.6094,596.7712 85.5655,584.5255 C62.5942,569.5292 59.2839,554.0805 81.5716,535.4043 C60.0629,521.155 52.9591,502.6839 78.7939,485.7842 C58.4603,466.7995 62.8792,446.5128 86.8021,434.4293 C63.2024,424.0885 66.8102,405.1569 83.163,391.4345 C60.5708,371.0955 61.8413,354.1934 87.0026,337.2374 C61.5767,318.2324 66.7701,296.5632 91,281.0938 C94.418,281.7903 94.5733,283.8849 92.8978,286.4024 " fill="none" style="stroke:#181818;stroke-width:1.0;"/><text fill="#000000" font-family="sans-serif" font-size="14" font-weight="bold" lengthAdjust="spacing" textLength="93" x="372.5" y="299.0889">Kubernetes</text></g><!--cluster Layer 5 (interaction)--><g id="cluster_Layer 5 (interaction)"><path d="M102.5,316.0938 L264.5,316.0938 A3.75,3.75 0 0 1 267,318.5938 L274,338.3906 L517.5,338.3906 A2.5,2.5 0 0 1 520,340.8906 L520,477.8938 A2.5,2.5 0 0 1 517.5,480.3938 L102.5,480.3938 A2.5,2.5 0 0 1 100,477.8938 L100,318.5938 A2.5,2.5 0 0 1 102.5,316.0938 " fill="none" style="stroke:#000000;stroke-width:1.5;"/><line style="stroke:#000000;stroke-width:1.5;" x1="100" x2="274" y1="338.3906" y2="338.3906"/><text fill="#000000" font-family="sans-serif" font-size="14" font-weight="bold" lengthAdjust="spacing" textLength="161" x="104" y="331.0889">Layer 5 (interaction)</text></g><!--cluster React NL Design--><g id="cluster_React NL Design"><path d="M126.5,359.0938 L255.5,359.0938 A3.75,3.75 0 0 1 258,361.5938 L265,381.3906 L289.5,381.3906 A2.5,2.5 0 0 1 292,383.8906 L292,453.8938 A2.5,2.5 0 0 1 289.5,456.3938 L126.5,456.3938 A2.5,2.5 0 0 1 124,453.8938 L124,361.5938 A2.5,2.5 0 0 1 126.5,359.0938 " fill="none" style="stroke:#000000;stroke-width:1.5;"/><line style="stroke:#000000;stroke-width:1.5;" x1="124" x2="265" y1="381.3906" y2="381.3906"/><text fill="#000000" font-family="sans-serif" font-size="14" font-weight="bold" lengthAdjust="spacing" textLength="128" x="128" y="374.0889">React NL Design</text></g><!--cluster Vue NL Design--><g id="cluster_Vue NL Design"><path d="M318.5,359.0938 L434.5,359.0938 A3.75,3.75 0 0 1 437,361.5938 L444,381.3906 L493.5,381.3906 A2.5,2.5 0 0 1 496,383.8906 L496,453.8938 A2.5,2.5 0 0 1 493.5,456.3938 L318.5,456.3938 A2.5,2.5 0 0 1 316,453.8938 L316,361.5938 A2.5,2.5 0 0 1 318.5,359.0938 " fill="none" style="stroke:#000000;stroke-width:1.5;"/><line style="stroke:#000000;stroke-width:1.5;" x1="316" x2="444" y1="381.3906" y2="381.3906"/><text fill="#000000" font-family="sans-serif" font-size="14" font-weight="bold" lengthAdjust="spacing" textLength="115" x="320" y="374.0889">Vue NL Design</text></g><!--cluster layer4--><g id="cluster_layer4"><path d="M546.5,359.0938 L665.5,359.0938 A3.75,3.75 0 0 1 668,361.5938 L675,381.3906 L735.5,381.3906 A2.5,2.5 0 0 1 738,383.8906 L738,453.8938 A2.5,2.5 0 0 1 735.5,456.3938 L546.5,456.3938 A2.5,2.5 0 0 1 544,453.8938 L544,361.5938 A2.5,2.5 0 0 1 546.5,359.0938 " fill="none" style="stroke:#000000;stroke-width:1.5;"/><line style="stroke:#000000;stroke-width:1.5;" x1="544" x2="675" y1="381.3906" y2="381.3906"/><text fill="#000000" font-family="sans-serif" font-size="14" font-weight="bold" lengthAdjust="spacing" textLength="118" x="548" y="374.0889">Layer 4 (Logic)</text></g><!--cluster layer2--><g id="cluster_layer2"><path d="M288.5,529.3938 L390.5,529.3938 A3.75,3.75 0 0 1 393,531.8938 L400,551.6906 L735.5,551.6906 A2.5,2.5 0 0 1 738,554.1906 L738,758.1838 A2.5,2.5 0 0 1 735.5,760.6838 L288.5,760.6838 A2.5,2.5 0 0 1 286,758.1838 L286,531.8938 A2.5,2.5 0 0 1 288.5,529.3938 " fill="none" style="stroke:#000000;stroke-width:1.5;"/><line style="stroke:#000000;stroke-width:1.5;" x1="286" x2="400" y1="551.6906" y2="551.6906"/><text fill="#000000" font-family="sans-serif" font-size="14" font-weight="bold" lengthAdjust="spacing" textLength="101" x="290" y="544.3889">Layer 2 (API)</text></g><!--cluster Next Cloud framework--><g id="cluster_Next Cloud framework"><path d="M312.5,572.3938 L490.5,572.3938 A3.75,3.75 0 0 1 493,574.8938 L500,594.6906 L711.5,594.6906 A2.5,2.5 0 0 1 714,597.1906 L714,734.1838 A2.5,2.5 0 0 1 711.5,736.6838 L312.5,736.6838 A2.5,2.5 0 0 1 310,734.1838 L310,574.8938 A2.5,2.5 0 0 1 312.5,572.3938 " fill="none" style="stroke:#000000;stroke-width:1.5;"/><line style="stroke:#000000;stroke-width:1.5;" x1="310" x2="500" y1="594.6906" y2="594.6906"/><text fill="#000000" font-family="sans-serif" font-size="14" font-weight="bold" lengthAdjust="spacing" textLength="177" x="314" y="587.3889">Next Cloud framework</text></g><!--cluster Search API--><g id="cluster_Search API"><path d="M540.5,615.3938 L626.5,615.3938 A3.75,3.75 0 0 1 629,617.8938 L636,637.6906 L687.5,637.6906 A2.5,2.5 0 0 1 690,640.1906 L690,710.1838 A2.5,2.5 0 0 1 687.5,712.6838 L540.5,712.6838 A2.5,2.5 0 0 1 538,710.1838 L538,617.8938 A2.5,2.5 0 0 1 540.5,615.3938 " fill="none" style="stroke:#000000;stroke-width:1.5;"/><line style="stroke:#000000;stroke-width:1.5;" x1="538" x2="636" y1="637.6906" y2="637.6906"/><text fill="#000000" font-family="sans-serif" font-size="14" font-weight="bold" lengthAdjust="spacing" textLength="85" x="542" y="630.3889">Search API</text></g><!--cluster CRUD API--><g id="cluster_CRUD API"><path d="M336.5,615.3938 L410.5,615.3938 A3.75,3.75 0 0 1 413,617.8938 L420,637.6906 L511.5,637.6906 A2.5,2.5 0 0 1 514,640.1906 L514,710.1838 A2.5,2.5 0 0 1 511.5,712.6838 L336.5,712.6838 A2.5,2.5 0 0 1 334,710.1838 L334,617.8938 A2.5,2.5 0 0 1 336.5,615.3938 " fill="none" style="stroke:#000000;stroke-width:1.5;"/><line style="stroke:#000000;stroke-width:1.5;" x1="334" x2="420" y1="637.6906" y2="637.6906"/><text fill="#000000" font-family="sans-serif" font-size="14" font-weight="bold" lengthAdjust="spacing" textLength="73" x="338" y="630.3889">CRUD API</text></g><!--cluster Layer 1 (data)--><g id="cluster_Layer 1 (data)"><path d="M8.5,833.6838 L119.5,833.6838 A3.75,3.75 0 0 1 122,836.1838 L129,855.9806 L507.5,855.9806 A2.5,2.5 0 0 1 510,858.4806 L510,995.4838 A2.5,2.5 0 0 1 507.5,997.9838 L8.5,997.9838 A2.5,2.5 0 0 1 6,995.4838 L6,836.1838 A2.5,2.5 0 0 1 8.5,833.6838 " fill="none" style="stroke:#000000;stroke-width:1.5;"/><line style="stroke:#000000;stroke-width:1.5;" x1="6" x2="129" y1="855.9806" y2="855.9806"/><text fill="#000000" font-family="sans-serif" font-size="14" font-weight="bold" lengthAdjust="spacing" textLength="110" x="10" y="848.6789">Layer 1 (data)</text></g><!--cluster Search--><g id="cluster_Search"><path d="M32.5,876.6838 L88.5,876.6838 A3.75,3.75 0 0 1 91,879.1838 L98,898.9806 L195.5,898.9806 A2.5,2.5 0 0 1 198,901.4806 L198,971.4838 A2.5,2.5 0 0 1 195.5,973.9838 L32.5,973.9838 A2.5,2.5 0 0 1 30,971.4838 L30,879.1838 A2.5,2.5 0 0 1 32.5,876.6838 " fill="none" style="stroke:#000000;stroke-width:1.5;"/><line style="stroke:#000000;stroke-width:1.5;" x1="30" x2="98" y1="898.9806" y2="898.9806"/><text fill="#000000" font-family="sans-serif" font-size="14" font-weight="bold" lengthAdjust="spacing" textLength="55" x="34" y="891.6789">Search</text></g><!--cluster Object Store--><g id="cluster_Object Store"><path d="M247.5,876.6838 L347.5,876.6838 A3.75,3.75 0 0 1 350,879.1838 L357,898.9806 L357.5,898.9806 A2.5,2.5 0 0 1 360,901.4806 L360,971.4838 A2.5,2.5 0 0 1 357.5,973.9838 L247.5,973.9838 A2.5,2.5 0 0 1 245,971.4838 L245,879.1838 A2.5,2.5 0 0 1 247.5,876.6838 " fill="none" style="stroke:#000000;stroke-width:1.5;"/><line style="stroke:#000000;stroke-width:1.5;" x1="245" x2="357" y1="898.9806" y2="898.9806"/><text fill="#000000" font-family="sans-serif" font-size="14" font-weight="bold" lengthAdjust="spacing" textLength="99" x="249" y="891.6789">Object Store</text></g><!--cluster DMS--><g id="cluster_DMS"><path d="M386.5,876.6838 L421.5,876.6838 A3.75,3.75 0 0 1 424,879.1838 L431,898.9806 L483.5,898.9806 A2.5,2.5 0 0 1 486,901.4806 L486,971.4838 A2.5,2.5 0 0 1 483.5,973.9838 L386.5,973.9838 A2.5,2.5 0 0 1 384,971.4838 L384,879.1838 A2.5,2.5 0 0 1 386.5,876.6838 " fill="none" style="stroke:#000000;stroke-width:1.5;"/><line style="stroke:#000000;stroke-width:1.5;" x1="384" x2="431" y1="898.9806" y2="898.9806"/><text fill="#000000" font-family="sans-serif" font-size="14" font-weight="bold" lengthAdjust="spacing" textLength="34" x="388" y="891.6789">DMS</text></g><!--entity user--><g id="elem_user"><ellipse cx="147" cy="131.2938" fill="#F1F1F1" rx="8" ry="8" style="stroke:#181818;stroke-width:0.5;"/><path d="M147,139.2938 L147,166.2938 M134,147.2938 L160,147.2938 M147,166.2938 L134,181.2938 M147,166.2938 L160,181.2938 " fill="none" style="stroke:#181818;stroke-width:0.5;"/><text fill="#000000" font-family="sans-serif" font-size="14" lengthAdjust="spacing" textLength="47" x="123.5" y="195.7889">Burger</text></g><!--entity employee--><g id="elem_employee"><ellipse cx="248" cy="131.2938" fill="#F1F1F1" rx="8" ry="8" style="stroke:#181818;stroke-width:0.5;"/><path d="M248,139.2938 L248,166.2938 M235,147.2938 L261,147.2938 M248,166.2938 L235,181.2938 M248,166.2938 L261,181.2938 " fill="none" style="stroke:#181818;stroke-width:0.5;"/><text fill="#000000" font-family="sans-serif" font-size="14" lengthAdjust="spacing" textLength="86" x="205" y="195.7889">Medewerker</text></g><!--entity admin--><g id="elem_admin"><ellipse cx="363" cy="131.2938" fill="#F1F1F1" rx="8" ry="8" style="stroke:#181818;stroke-width:0.5;"/><path d="M363,139.2938 L363,166.2938 M350,147.2938 L376,147.2938 M363,166.2938 L350,181.2938 M363,166.2938 L376,181.2938 " fill="none" style="stroke:#181818;stroke-width:0.5;"/><text fill="#000000" font-family="sans-serif" font-size="14" lengthAdjust="spacing" textLength="74" x="326" y="195.7889">Beheerder</text></g><!--entity externalCatalouge--><g id="elem_externalCatalouge"><rect fill="#F1F1F1" height="46.2969" rx="2.5" ry="2.5" style="stroke:#181818;stroke-width:0.5;" width="166" x="826" y="394.0938"/><rect fill="#F1F1F1" height="10" style="stroke:#181818;stroke-width:0.5;" width="15" x="972" y="399.0938"/><rect fill="#F1F1F1" height="2" style="stroke:#181818;stroke-width:0.5;" width="4" x="970" y="401.0938"/><rect fill="#F1F1F1" height="2" style="stroke:#181818;stroke-width:0.5;" width="4" x="970" y="405.0938"/><text fill="#000000" font-family="sans-serif" font-size="14" lengthAdjust="spacing" textLength="126" x="841" y="427.0889">Externe Catalogus</text></g><!--entity zaaksysteem--><g id="elem_zaaksysteem"><rect fill="#F1F1F1" height="46.2969" rx="2.5" ry="2.5" style="stroke:#181818;stroke-width:0.5;" width="133" x="540.5" y="137.7938"/><rect fill="#F1F1F1" height="10" style="stroke:#181818;stroke-width:0.5;" width="15" x="653.5" y="142.7938"/><rect fill="#F1F1F1" height="2" style="stroke:#181818;stroke-width:0.5;" width="4" x="651.5" y="144.7938"/><rect fill="#F1F1F1" height="2" style="stroke:#181818;stroke-width:0.5;" width="4" x="651.5" y="148.7938"/><text fill="#000000" font-family="sans-serif" font-size="14" lengthAdjust="spacing" textLength="93" x="555.5" y="170.7889">Zaaksysteem</text></g><!--entity overigebronnen--><g id="elem_overigebronnen"><rect fill="#F1F1F1" height="46.2969" rx="2.5" ry="2.5" style="stroke:#181818;stroke-width:0.5;" width="66" x="709" y="137.7938"/><rect fill="#F1F1F1" height="10" style="stroke:#181818;stroke-width:0.5;" width="15" x="755" y="142.7938"/><rect fill="#F1F1F1" height="2" style="stroke:#181818;stroke-width:0.5;" width="4" x="753" y="144.7938"/><rect fill="#F1F1F1" height="2" style="stroke:#181818;stroke-width:0.5;" width="4" x="753" y="148.7938"/><text fill="#000000" font-family="sans-serif" font-size="14" lengthAdjust="spacing" textLength="26" x="724" y="170.7889">Etc.</text></g><!--entity userUi--><g id="elem_userUi"><rect fill="#F1F1F1" height="46.2969" rx="2.5" ry="2.5" style="stroke:#181818;stroke-width:0.5;" width="136" x="140" y="394.0938"/><rect fill="#F1F1F1" height="10" style="stroke:#181818;stroke-width:0.5;" width="15" x="256" y="399.0938"/><rect fill="#F1F1F1" height="2" style="stroke:#181818;stroke-width:0.5;" width="4" x="254" y="401.0938"/><rect fill="#F1F1F1" height="2" style="stroke:#181818;stroke-width:0.5;" width="4" x="254" y="405.0938"/><text fill="#000000" font-family="sans-serif" font-size="14" lengthAdjust="spacing" textLength="96" x="155" y="427.0889">User Interface</text></g><!--entity adminUi--><g id="elem_adminUi"><rect fill="#F1F1F1" height="46.2969" rx="2.5" ry="2.5" style="stroke:#181818;stroke-width:0.5;" width="147" x="332.5" y="394.0938"/><rect fill="#F1F1F1" height="10" style="stroke:#181818;stroke-width:0.5;" width="15" x="459.5" y="399.0938"/><rect fill="#F1F1F1" height="2" style="stroke:#181818;stroke-width:0.5;" width="4" x="457.5" y="401.0938"/><rect fill="#F1F1F1" height="2" style="stroke:#181818;stroke-width:0.5;" width="4" x="457.5" y="405.0938"/><text fill="#000000" font-family="sans-serif" font-size="14" lengthAdjust="spacing" textLength="107" x="347.5" y="427.0889">Admin Interface</text></g><!--entity service--><g id="elem_service"><rect fill="#F1F1F1" height="46.2969" rx="2.5" ry="2.5" style="stroke:#181818;stroke-width:0.5;" width="162" x="560" y="394.0938"/><rect fill="#F1F1F1" height="10" style="stroke:#181818;stroke-width:0.5;" width="15" x="702" y="399.0938"/><rect fill="#F1F1F1" height="2" style="stroke:#181818;stroke-width:0.5;" width="4" x="700" y="401.0938"/><rect fill="#F1F1F1" height="2" style="stroke:#181818;stroke-width:0.5;" width="4" x="700" y="405.0938"/><text fill="#000000" font-family="sans-serif" font-size="14" lengthAdjust="spacing" textLength="122" x="575" y="427.0889">Synchronysations</text></g><!--entity searchAPI--><g id="elem_searchAPI"><rect fill="#F1F1F1" height="46.2969" rx="2.5" ry="2.5" style="stroke:#181818;stroke-width:0.5;" width="119" x="554.5" y="650.3938"/><rect fill="#F1F1F1" height="10" style="stroke:#181818;stroke-width:0.5;" width="15" x="653.5" y="655.3938"/><rect fill="#F1F1F1" height="2" style="stroke:#181818;stroke-width:0.5;" width="4" x="651.5" y="657.3938"/><rect fill="#F1F1F1" height="2" style="stroke:#181818;stroke-width:0.5;" width="4" x="651.5" y="661.3938"/><text fill="#000000" font-family="sans-serif" font-size="14" lengthAdjust="spacing" textLength="79" x="569.5" y="683.3889">Open Index</text></g><!--entity objectsAPI--><g id="elem_objectsAPI"><rect fill="#F1F1F1" height="46.2969" rx="2.5" ry="2.5" style="stroke:#181818;stroke-width:0.5;" width="148" x="350" y="650.3938"/><rect fill="#F1F1F1" height="10" style="stroke:#181818;stroke-width:0.5;" width="15" x="478" y="655.3938"/><rect fill="#F1F1F1" height="2" style="stroke:#181818;stroke-width:0.5;" width="4" x="476" y="657.3938"/><rect fill="#F1F1F1" height="2" style="stroke:#181818;stroke-width:0.5;" width="4" x="476" y="661.3938"/><text fill="#000000" font-family="sans-serif" font-size="14" lengthAdjust="spacing" textLength="108" x="365" y="683.3889">Open Registers</text></g><!--entity searchDb--><g id="elem_searchDb"><rect fill="#F1F1F1" height="46.2969" rx="2.5" ry="2.5" style="stroke:#181818;stroke-width:0.5;" width="136" x="46" y="911.6838"/><rect fill="#F1F1F1" height="10" style="stroke:#181818;stroke-width:0.5;" width="15" x="162" y="916.6838"/><rect fill="#F1F1F1" height="2" style="stroke:#181818;stroke-width:0.5;" width="4" x="160" y="918.6838"/><rect fill="#F1F1F1" height="2" style="stroke:#181818;stroke-width:0.5;" width="4" x="160" y="922.6838"/><text fill="#000000" font-family="sans-serif" font-size="14" lengthAdjust="spacing" textLength="96" x="61" y="944.6789">Elastic Search</text></g><!--entity objectsDb--><g id="elem_objectsDb"><rect fill="#F1F1F1" height="46.2969" rx="2.5" ry="2.5" style="stroke:#181818;stroke-width:0.5;" width="71" x="273.5" y="911.6838"/><rect fill="#F1F1F1" height="10" style="stroke:#181818;stroke-width:0.5;" width="15" x="324.5" y="916.6838"/><rect fill="#F1F1F1" height="2" style="stroke:#181818;stroke-width:0.5;" width="4" x="322.5" y="918.6838"/><rect fill="#F1F1F1" height="2" style="stroke:#181818;stroke-width:0.5;" width="4" x="322.5" y="922.6838"/><text fill="#000000" font-family="sans-serif" font-size="14" lengthAdjust="spacing" textLength="31" x="288.5" y="944.6789">ORC</text></g><!--entity drc--><g id="elem_drc"><rect fill="#F1F1F1" height="46.2969" rx="2.5" ry="2.5" style="stroke:#181818;stroke-width:0.5;" width="71" x="399.5" y="911.6838"/><rect fill="#F1F1F1" height="10" style="stroke:#181818;stroke-width:0.5;" width="15" x="450.5" y="916.6838"/><rect fill="#F1F1F1" height="2" style="stroke:#181818;stroke-width:0.5;" width="4" x="448.5" y="918.6838"/><rect fill="#F1F1F1" height="2" style="stroke:#181818;stroke-width:0.5;" width="4" x="448.5" y="922.6838"/><text fill="#000000" font-family="sans-serif" font-size="14" lengthAdjust="spacing" textLength="31" x="414.5" y="944.6789">DRC</text></g><!--link user to userUi--><g id="link_user_userUi"><path d="M119.8457,197.7153 C108.4057,216.0653 101.62,234.9638 108,257.0938 C123.58,311.1838 159.7137,360.0371 184.1437,389.1571 " fill="none" id="user-userUi" style="stroke:#181818;stroke-width:1.0;stroke-dasharray:7.0,7.0;"/><polygon fill="#181818" points="123.02,192.6238,114.8642,198.145,120.3748,196.8667,121.653,202.3773,123.02,192.6238" style="stroke:#181818;stroke-width:1.0;"/><polygon fill="#181818" points="188,393.7538,185.28,384.288,184.7864,389.9232,179.1511,389.4297,188,393.7538" style="stroke:#181818;stroke-width:1.0;"/><text fill="#000000" font-family="sans-serif" font-size="13" lengthAdjust="spacing" textLength="116" x="109" y="253.1607">Browser ANONIEM</text></g><!--link employee to userUi--><g id="link_employee_userUi"><path d="M241.168,205.3909 C232.738,259.0009 219.3619,343.9966 212.4819,387.7566 " fill="none" id="employee-userUi" style="stroke:#181818;stroke-width:1.0;stroke-dasharray:7.0,7.0;"/><polygon fill="#181818" points="242.1,199.4638,236.7505,207.7332,241.3233,204.4031,244.6534,208.9759,242.1,199.4638" style="stroke:#181818;stroke-width:1.0;"/><polygon fill="#181818" points="211.55,393.6838,216.8993,385.4142,212.3266,388.7444,208.9964,384.1717,211.55,393.6838" style="stroke:#181818;stroke-width:1.0;"/><text fill="#000000" font-family="sans-serif" font-size="13" lengthAdjust="spacing" textLength="116" x="237" y="253.1607">Browser ANONIEM</text></g><!--link admin to adminUi--><g id="link_admin_adminUi"><path d="M370.3409,205.3797 C379.4109,258.9897 393.7896,344.0078 401.1896,387.7678 " fill="none" id="admin-adminUi" style="stroke:#181818;stroke-width:1.0;stroke-dasharray:7.0,7.0;"/><polygon fill="#181818" points="369.34,199.4638,366.8974,209.0049,370.1741,204.3937,374.7853,207.6704,369.34,199.4638" style="stroke:#181818;stroke-width:1.0;"/><polygon fill="#181818" points="402.19,393.6838,404.6334,384.1428,401.3563,388.7538,396.7454,385.4767,402.19,393.6838" style="stroke:#181818;stroke-width:1.0;"/><text fill="#000000" font-family="sans-serif" font-size="13" lengthAdjust="spacing" textLength="116" x="380" y="253.1607">Browser JWT token</text></g><!--link userUi to searchAPI--><g id="link_userUi_searchAPI"><path d="M233.91,440.7338 C254.61,457.2238 285.16,478.4038 316,488.3938 C383.31,510.1838 407.62,474.7938 475,496.3938 C494.61,502.6738 499.34,506.9338 514,521.3938 C553.89,560.7038 583.8979,613.0922 600.1679,644.6122 " fill="none" id="userUi-to-searchAPI" style="stroke:#181818;stroke-width:1.0;stroke-dasharray:7.0,7.0;"/><polygon fill="#181818" points="602.92,649.9438,602.3463,640.1116,600.6266,645.5008,595.2375,643.7811,602.92,649.9438" style="stroke:#181818;stroke-width:1.0;"/><text fill="#000000" font-family="sans-serif" font-size="13" lengthAdjust="spacing" textLength="64" x="506" y="509.4607">Opzoeken</text></g><!--link adminUi to objectsAPI--><g id="link_adminUi_objectsAPI"><path d="M407.6,440.8038 C411.01,489.0638 418.5654,595.8288 421.9854,644.0388 " fill="none" id="adminUi-to-objectsAPI" style="stroke:#181818;stroke-width:1.0;stroke-dasharray:7.0,7.0;"/><polygon fill="#181818" points="422.41,650.0238,425.7631,640.7633,422.0562,645.0363,417.7832,641.3294,422.41,650.0238" style="stroke:#181818;stroke-width:1.0;"/><text fill="#000000" font-family="sans-serif" font-size="13" lengthAdjust="spacing" textLength="52" x="414" y="509.4607">Opslaan</text></g><!--link objectsAPI to objectsDb--><g id="link_objectsAPI_objectsDb"><path d="M403.42,696.8538 C382.58,720.7238 351.08,760.5938 334,800.6838 C318.33,837.4738 312.9317,878.1331 310.7417,905.3231 " fill="none" id="objectsAPI-to-objectsDb" style="stroke:#181818;stroke-width:1.0;stroke-dasharray:7.0,7.0;"/><polygon fill="#181818" points="310.26,911.3038,314.9696,902.654,310.6614,906.3199,306.9955,902.0117,310.26,911.3038" style="stroke:#181818;stroke-width:1.0;"/><text fill="#000000" font-family="sans-serif" font-size="13" lengthAdjust="spacing" textLength="85" x="335" y="813.7507">Data opslaan</text></g><!--link objectsAPI to drc--><g id="link_objectsAPI_drc"><path d="M424.96,697.0938 C427.04,746.2538 431.7264,856.5791 433.7964,905.5191 " fill="none" id="objectsAPI-to-drc" style="stroke:#181818;stroke-width:1.0;stroke-dasharray:7.0,7.0;"/><polygon fill="#181818" points="434.05,911.5138,437.6661,902.3528,433.8387,906.5182,429.6732,902.6908,434.05,911.5138" style="stroke:#181818;stroke-width:1.0;"/><text fill="#000000" font-family="sans-serif" font-size="13" lengthAdjust="spacing" textLength="137" x="430" y="813.7507">Documenten opslaan</text></g><!--link searchAPI to searchDb--><g id="link_searchAPI_searchDb"><path d="M615.37,697.0638 C615.97,729.6038 611.59,788.9938 575,817.6838 C561.14,828.5538 274.64,819.9038 258,825.6838 C207.8,843.1438 164.9882,880.8368 139.0582,907.0668 " fill="none" id="searchAPI-to-searchDb" style="stroke:#181818;stroke-width:1.0;stroke-dasharray:7.0,7.0;"/><polygon fill="#181818" points="134.84,911.3338,144.0119,907.7454,138.3551,907.778,138.3226,902.1212,134.84,911.3338" style="stroke:#181818;stroke-width:1.0;"/><text fill="#000000" font-family="sans-serif" font-size="13" lengthAdjust="spacing" textLength="64" x="589" y="813.7507">Opzoeken</text></g><!--reverse link searchDb to objectsDb--><g id="link_searchDb_objectsDb"><path d="M188.48,934.8338 C219.09,934.8338 247.91,934.8338 273.26,934.8338 " fill="none" id="searchDb-backto-objectsDb" style="stroke:#181818;stroke-width:1.0;stroke-dasharray:7.0,7.0;"/><polygon fill="#181818" points="182.48,934.8338,191.48,938.8338,187.48,934.8338,191.48,930.8338,182.48,934.8338" style="stroke:#181818;stroke-width:1.0;"/><text fill="#000000" font-family="sans-serif" font-size="13" lengthAdjust="spacing" textLength="55" x="200.25" y="927.9007">Updaten</text></g><!--link service to objectsAPI--><g id="link_service_objectsAPI"><path d="M635.57,440.6338 C628.95,462.8338 615.48,495.9738 591,513.3938 C571.59,527.2038 558.47,509.2038 538,521.3938 C486.47,552.0838 453.0749,610.4287 436.6549,644.4987 " fill="none" id="service-to-objectsAPI" style="stroke:#181818;stroke-width:1.0;stroke-dasharray:7.0,7.0;"/><polygon fill="#181818" points="434.05,649.9038,441.5608,643.5329,436.2208,645.3996,434.3541,640.0596,434.05,649.9038" style="stroke:#181818;stroke-width:1.0;"/><text fill="#000000" font-family="sans-serif" font-size="13" lengthAdjust="spacing" textLength="55" x="608" y="509.4607">Updaten</text></g><!--link externalCatalouge to searchAPI--><g id="link_externalCatalouge_searchAPI"><path d="M827.0195,442.9437 C793.3495,455.5237 760.45,471.6338 731,496.3938 C678.73,540.3338 643.1626,607.9652 626.2526,644.6352 " fill="none" id="externalCatalouge-searchAPI" style="stroke:#181818;stroke-width:1.0;stroke-dasharray:7.0,7.0;"/><polygon fill="#181818" points="832.64,440.8438,822.8093,440.2467,827.9562,442.5937,825.6092,447.7407,832.64,440.8438" style="stroke:#181818;stroke-width:1.0;"/><polygon fill="#181818" points="623.74,650.0838,631.1412,643.5859,625.8338,645.5433,623.8764,640.2359,623.74,650.0838" style="stroke:#181818;stroke-width:1.0;"/><text fill="#000000" font-family="sans-serif" font-size="13" lengthAdjust="spacing" textLength="131" x="732" y="509.4607">Directory uitwisselen</text></g><!--link externalCatalouge to searchAPI--><g id="link_externalCatalouge_searchAPI"><path d="M903.48,440.7038 C897.5,461.4138 886.27,492.0938 868,513.3938 C813.03,577.4738 731.174,621.7748 674.594,647.4448 " fill="none" id="externalCatalouge-to-searchAPI" style="stroke:#181818;stroke-width:1.0;stroke-dasharray:7.0,7.0;"/><polygon fill="#181818" points="669.13,649.9238,678.9786,649.848,673.6833,647.858,675.6733,642.5627,669.13,649.9238" style="stroke:#181818;stroke-width:1.0;"/><text fill="#000000" font-family="sans-serif" font-size="13" lengthAdjust="spacing" textLength="64" x="880" y="509.4607">Opzoeken</text></g><!--link zaaksysteem to service--><g id="link_zaaksysteem_service"><path d="M603.3654,190.4211 C601.4954,206.0111 599.96,221.2938 599,240.0938 C596.11,296.6138 615.8153,355.1655 629.0953,388.2555 " fill="none" id="zaaksysteem-service" style="stroke:#181818;stroke-width:1.0;stroke-dasharray:7.0,7.0;"/><polygon fill="#181818" points="604.08,184.4638,599.0366,192.9233,603.4845,189.4282,606.9797,193.8761,604.08,184.4638" style="stroke:#181818;stroke-width:1.0;"/><polygon fill="#181818" points="631.33,393.8238,631.6901,383.9815,629.4677,389.1835,624.2657,386.9611,631.33,393.8238" style="stroke:#181818;stroke-width:1.0;"/><text fill="#000000" font-family="sans-serif" font-size="13" lengthAdjust="spacing" textLength="103" x="600" y="253.1607">Synchronyseren</text></g><!--link overigebronnen to service--><g id="link_overigebronnen_service"><path d="M732.423,190.0456 C725.743,209.4056 717.6,232.4038 708,257.0938 C688.88,306.2738 666.7875,357.558 653.3475,388.238 " fill="none" id="overigebronnen-service" style="stroke:#181818;stroke-width:1.0;stroke-dasharray:7.0,7.0;"/><polygon fill="#181818" points="734.38,184.3738,727.6632,191.5769,732.7491,189.1003,735.2257,194.1862,734.38,184.3738" style="stroke:#181818;stroke-width:1.0;"/><polygon fill="#181818" points="650.94,393.7338,658.2152,387.0951,652.9463,389.1539,650.8875,383.885,650.94,393.7338" style="stroke:#181818;stroke-width:1.0;"/><text fill="#000000" font-family="sans-serif" font-size="13" lengthAdjust="spacing" textLength="103" x="714" y="253.1607">Synchronyseren</text></g><text fill="#888888" font-family="sans-serif" font-size="10" lengthAdjust="spacing" textLength="141" x="445.1515" y="1013.266">Open Catalogi | Components</text><!--SRC=[XLHDRzf04BtxLuny8XUaHka5LPK8JYLQ81MKLch5ORqUp1RZjNRN8IJDVy_iheq_GbI90vgPD-_Dc_4QOJ8SmNs1EKoOOPbCHR2Lqg3gHU4VJEIXa3dcHWSxP8ajQOK2diaoWN2Q4pX74pu7Z1kf8BmjLOeg1AQXrAZgy1mJFABQLoay59ay8PvHk4DKIPLboK7aGV1oflb2QCMCm2qGcUqJmdDGCBvdAK9OoxP1-7Ftw3JLmvHwunXTb6K-MgP8xHk26ZCkYanmowJ35i6jaZaDxll_PcolJzeW7ZPWMpyr0Kjl-D37vGCgaMBimPwl9lnMniuunzCGpTW95No4WR36aZb2vbUTMPT8KLZC848jqahIcfm6juiju-ZPhVjhOJdFs9ybzf5ZQtKVwlntMAku9-u61ZFocb-vLMKsTkDQhKuvtz6i9ysiRErxaOe7mV5IfsiOZBzFMtskgK-hQa4xWudpQwlO0O-IzjwoOeLCyHrG3p-BE-5fdk3ZnZFRD6Kx7aoMwwW7MM8gQ7lA7ugC_o8tskDUWkhNa_u11WaTabjDNr1rXHdJHd3miTeB-p-AEmtl7H-iw3l0IjHoKXsGbz83HFELhulgkaHnhzNk73uD4tdCXv-h2nW1NU_H9iQB-yNqRXxK7z__AzqXD6NLNJHrNt_z02FtTDo-0mofwkoxVLIU9DfqXNJvnc1Re3F6yg29jKkY64OGaSyWBzVHuBP2yl90pnAjiguxQsWfYkAMe8PXcE7MT8hM1UqMRHDtkcz4r_atJmevrHa_4Whj-tQ2KfYZq1gpYx3tN6izBCqIAbKZQButL7QYpci33U0zn2i0]--></g></svg>