<svg xmlns="http://www.w3.org/2000/svg" xmlns:xlink="http://www.w3.org/1999/xlink" contentStyleType="text/css" height="1085px" preserveAspectRatio="none" style="width:884px;height:1085px;background:#FFFFFF;" version="1.1" viewBox="0 0 884 1085" width="884px" zoomAndPan="magnify"><defs/><g><text fill="#888888" font-family="sans-serif" font-size="10" lengthAdjust="spacing" textLength="63" x="807.0462" y="9.2822">Components</text><text fill="#000000" font-family="sans-serif" font-size="14" font-weight="bold" lengthAdjust="spacing" textLength="110" x="380.0231" y="35.6357">Open Catalogi</text><!--cluster Azure--><g id="cluster_Azure"><path d="M28.5465,948.0264 C31.1197,942.1942 36.6687,940.993 40.9421,946.0998 C44.1128,939.8613 48.365,939.544 52.4441,945.223 C55.4655,940.6327 58.7543,940.639 62.3908,944.499 C65.8844,938.1371 71.2573,938.5873 74.8171,944.4316 C78.3953,938.9778 81.8724,939.2568 85.8461,944.0039 C90.5412,939.5684 95.6007,940.6478 98.2368,946.4869 C101.0317,940.5258 105.9996,940.931 109.0691,946.2227 C112.4932,941.0367 117.6796,940.62 120.6304,946.7081 C127.6745,948.9034 129.9449,954.8852 124.5468,960.5906 C131.5731,963.6392 132.0972,969.0734 125.9134,973.5184 C133.5267,975.9781 134.8083,983.1729 129.0282,988.4302 C133.3005,992.9918 133.6282,998.3105 126.5739,1000.5851 C133.0344,1006.424 132.4042,1011.7951 124.3424,1015.4547 C129.1683,1020.5781 128.8493,1026.9067 121.2746,1029.278 C118.1076,1034.8602 112.4533,1036.4535 108.3856,1030.2642 C104.3073,1034.7939 101.1638,1034.9951 98.2992,1029.091 C95.4395,1035.2121 91.1599,1035.2078 86.7641,1030.769 C83.6338,1037.2788 79.5712,1036.9067 75.2167,1032.0083 C70.9671,1038.0911 65.5235,1035.7405 62.98,1030.2105 C60.2394,1034.5092 54.9729,1034.6656 52.4391,1029.9682 C48.0309,1035.7982 43.1108,1035.3485 40.496,1028.3045 C36.7389,1035.0497 32.5892,1035.4779 28.1008,1028.9895 C22.102,1025.107 21.2283,1018.9504 28.0396,1015.0119 C21.8621,1010.4519 21.4116,1005.9194 28.3832,1001.6988 C21.4586,998.644 20.7411,992.3061 27.6687,988.5014 C20.9387,984.489 20.0884,979.0783 26.8194,974.263 C20.4878,970.3096 19.7689,963.5222 27.3258,960.0642 C21.7984,956.1366 23.0209,950.8331 28.5465,948.0264 " fill="none" style="stroke:#181818;stroke-width:1.0;"/><text fill="#000000" font-family="sans-serif" font-size="14" font-weight="bold" lengthAdjust="spacing" textLength="47" x="50.0462" y="964.285">Azure</text></g><!--cluster Internet--><g id="cluster_Internet"><path d="M361.6679,67.9962 C367.3532,58.2656 376.3088,56.3515 383.1764,66.7316 C389.7007,56.2869 398.682,59.1477 403.3197,68.6379 C407.7791,60.0637 416.0202,59.4156 421.8007,67.1399 C427.8704,56.0918 437.4543,59.2038 442.8238,67.886 C447.1352,58.6178 453.6274,57.3731 460.1552,65.7032 C465.9546,58.592 475.0741,57.4947 479.0423,67.7005 C483.5681,56.5026 492.2854,56.8693 499.0671,65.4122 C506.8946,55.8984 513.3762,57.6458 519.4008,67.3225 C524.8594,58.7204 530.1972,58.0402 537.0088,65.8729 C544.7377,56.2035 555.1708,56.2008 559.4464,69.2792 C564.1837,62.0568 571.554,61.526 576.5417,68.9876 C580.1674,60.0242 589.2937,59.1341 595.1885,66.3768 C601.7011,57.0273 608.1657,55.9993 614.4457,66.6013 C624.7846,57.5845 635.835,60.811 640.5462,73.3999 C642.0007,74.0738 642.1369,75.3428 640.9138,76.3503 C655.2401,78.9038 658.2987,89.1251 649.8929,100.2273 C660.9799,105.0161 664.8724,114.1402 654.607,123.2929 C664.9042,133.9557 662.2811,144.5222 647.5245,148.0045 C659.7242,162.8755 652.0458,177.2797 633.5462,177.6999 C635.6219,176.6457 636.7618,177.4445 636.8693,179.685 C631.5992,190.5437 624.219,190.2075 617.1107,181.5456 C612.1267,190.899 603.0435,191.8994 597.9886,181.6146 C593.6274,191.4615 584.2472,195.4937 576.4616,185.2915 C569.663,193.1323 562.9789,192.9826 558.1553,183.2358 C553.9452,193.3383 545.6939,194.226 538.3394,186.7883 C533.1908,196.5875 525.1823,198.6998 517.601,189.4345 C511.7734,198.661 504.1934,196.9136 499.6606,188.1436 C493.6372,200.0057 486.2257,198.5795 478.8423,189.4953 C472.9952,197.6355 464.7803,196.2874 462.1002,186.5324 C456.0251,196.3036 447.3699,195.8766 441.3635,186.4581 C435.8093,195.1491 427.1101,193.3859 422.918,184.9878 C416.249,191.9472 407.0268,190.7979 403.6642,181.1536 C395.8462,192.084 387.7124,191.1112 381.1669,179.8629 C369.6203,188.1579 358.1501,185.48 354.5462,170.6999 C355.7291,170.2498 356.503,170.7334 356.476,172.0337 C344.7775,167.2009 342.0942,157.1165 352.6217,148.6241 C338.4245,144.9359 334.3757,133.225 345.7861,122.7671 C338.5,112.5365 338.7474,104.3331 352.0654,99.715 C340.3549,86.1301 343.4002,71.4883 361.5462,66.3999 C362.3936,66.8714 362.3134,67.4108 361.6679,67.9962 " fill="none" style="stroke:#181818;stroke-width:1.0;"/><text fill="#000000" font-family="sans-serif" font-size="14" font-weight="bold" lengthAdjust="spacing" textLength="63" x="466.0462" y="84.395">Internet</text></g><!--cluster Kubernetes--><g id="cluster_Kubernetes"><path d="M48.8529,378.818 C61.706,359.0808 80.3662,362.3636 89.6557,382.4675 C100.0525,360.8855 120.9464,353.3782 137.4913,375.7813 C153.9962,349.2549 172.0776,354.5598 187.6553,376.7364 C201.7046,355.1974 216.5034,355.8494 229.359,377.879 C244.9096,354.3519 261.202,352.1491 277.4332,377.2056 C292.9982,350.8731 308.5195,355.7618 325.5193,375.7149 C336.2888,351.0725 356.6529,354.5189 370.2513,372.7646 C382.5484,346.6323 405.3214,344.818 419.2274,371.2661 C433.6903,348.4242 458.2162,345.4439 471.4416,372.5595 C484.3428,352.3723 503.3478,353.1064 514.6079,374.2727 C534.221,350.9387 549.2253,354.0718 561.3265,381.224 C575.1985,361.0945 594.5835,360.35 606.5992,383.1802 C621.2805,356.774 642.9789,360.6122 655.8809,384.9096 C669.7026,364.3394 690.5502,364.8464 704.5462,384.6999 C707.8051,384.2588 709.4509,386.6837 707.9683,389.5726 C726.6332,402.5344 728.1252,420.9349 709.3633,435.0449 C733.2107,445.5108 732.1727,461.9755 714.9054,477.7741 C734.2954,492.3849 730.427,509.5365 711.1522,520.7725 C735.0317,529.912 735.1694,553.7311 716.8848,567.9897 C735.1976,581.6459 731.2406,597.6443 713.8022,608.5857 C736.0744,619.3683 734.2175,641.0213 715.3679,653.2456 C739.6941,668.191 739.5635,685.8095 714.6096,699.955 C732.8221,715.3792 731.9239,733.7126 711.299,746.3665 C729.7766,759.9743 732.0011,783.391 707.1681,793.1767 C726.0016,813.0202 719.1289,827.0665 697.5462,838.2899 C702.6933,837.4185 705.2994,839.6874 704.4966,844.9891 C691.151,871.1787 674.2096,871.2954 657.2941,848.4238 C641.6032,873.4936 623.3802,867.9551 609.6938,846.3783 C595.8038,868.8819 577.7723,870.687 562.7589,847.5332 C547.5197,870.2233 526.645,874.5498 511.933,846.9999 C498.6165,866.9252 478.5385,871.5992 465.504,846.7077 C452.8969,866.8556 438.9138,867.8089 424.5917,848.4854 C411.8854,874.2139 390.0066,881.1673 370.1533,856.153 C358.1022,872.2627 338.7121,870.3127 331.179,851.1595 C317.5048,873.1864 295.3259,877.8029 278.8584,854.3748 C261.1299,873.1592 239.0836,875.076 229.6705,845.8546 C219.4991,866.9227 199.5161,870.7491 186.7679,848.4009 C172.9386,866.695 152.7344,863.3682 142.3408,844.314 C128.6288,867.1075 107.2149,870.755 92.7209,845.1152 C69.1482,872.9054 44.3244,861.5444 34.5462,831.2899 C38.7026,829.1747 41.3285,830.8942 41.387,835.4758 C19.9089,822.9576 18.4566,807.2878 39.5998,792.9771 C14.6008,779.9493 16.7153,762.0654 38.4893,747.8856 C14.1025,736.6998 15.5717,712.9549 37.167,700.4863 C12.5351,689.2692 15.024,671.8873 33.5939,657.1113 C12.7448,641.2235 14.7697,618.0578 40.0585,608.2777 C22.1426,596.833 21.4653,576.8307 40.148,565.4625 C20.8844,556.1644 20.4785,537.1182 37.854,525.706 C14.58,510.2308 11.5625,495.8614 35.2096,477.7963 C15.6235,466.1476 17.0318,448.8634 35.9479,437.9277 C6,414.5406 7.0556,395.0973 41.5462,377.6999 C44.0262,374.0813 47.494,375.1105 48.8529,378.818 " fill="none" style="stroke:#181818;stroke-width:1.0;"/><text fill="#000000" font-family="sans-serif" font-size="14" font-weight="bold" lengthAdjust="spacing" textLength="93" x="323.0462" y="395.695">Kubernetes</text></g><!--cluster Layer 5 (interaction)--><g id="cluster_Layer 5 (interaction)"><path d="M53.0462,412.6999 L215.0462,412.6999 A3.75,3.75 0 0 1 217.5462,415.1999 L224.5462,434.9967 L468.0462,434.9967 A2.5,2.5 0 0 1 470.5462,437.4967 L470.5462,574.4999 A2.5,2.5 0 0 1 468.0462,576.9999 L53.0462,576.9999 A2.5,2.5 0 0 1 50.5462,574.4999 L50.5462,415.1999 A2.5,2.5 0 0 1 53.0462,412.6999 " fill="none" style="stroke:#000000;stroke-width:1.5;"/><line style="stroke:#000000;stroke-width:1.5;" x1="50.5462" x2="224.5462" y1="434.9967" y2="434.9967"/><text fill="#000000" font-family="sans-serif" font-size="14" font-weight="bold" lengthAdjust="spacing" textLength="161" x="54.5462" y="427.695">Layer 5 (interaction)</text></g><!--cluster React NL Design--><g id="cluster_React NL Design"><path d="M77.0462,455.6999 L206.0462,455.6999 A3.75,3.75 0 0 1 208.5462,458.1999 L215.5462,477.9967 L240.0462,477.9967 A2.5,2.5 0 0 1 242.5462,480.4967 L242.5462,550.4999 A2.5,2.5 0 0 1 240.0462,552.9999 L77.0462,552.9999 A2.5,2.5 0 0 1 74.5462,550.4999 L74.5462,458.1999 A2.5,2.5 0 0 1 77.0462,455.6999 " fill="none" style="stroke:#000000;stroke-width:1.5;"/><line style="stroke:#000000;stroke-width:1.5;" x1="74.5462" x2="215.5462" y1="477.9967" y2="477.9967"/><text fill="#000000" font-family="sans-serif" font-size="14" font-weight="bold" lengthAdjust="spacing" textLength="128" x="78.5462" y="470.695">React NL Design</text></g><!--cluster Vue NL Design--><g id="cluster_Vue NL Design"><path d="M269.0462,455.6999 L385.0462,455.6999 A3.75,3.75 0 0 1 387.5462,458.1999 L394.5462,477.9967 L444.0462,477.9967 A2.5,2.5 0 0 1 446.5462,480.4967 L446.5462,550.4999 A2.5,2.5 0 0 1 444.0462,552.9999 L269.0462,552.9999 A2.5,2.5 0 0 1 266.5462,550.4999 L266.5462,458.1999 A2.5,2.5 0 0 1 269.0462,455.6999 " fill="none" style="stroke:#000000;stroke-width:1.5;"/><line style="stroke:#000000;stroke-width:1.5;" x1="266.5462" x2="394.5462" y1="477.9967" y2="477.9967"/><text fill="#000000" font-family="sans-serif" font-size="14" font-weight="bold" lengthAdjust="spacing" textLength="115" x="270.5462" y="470.695">Vue NL Design</text></g><!--cluster layer4--><g id="cluster_layer4"><path d="M497.0462,455.6999 L616.0462,455.6999 A3.75,3.75 0 0 1 618.5462,458.1999 L625.5462,477.9967 L686.0462,477.9967 A2.5,2.5 0 0 1 688.5462,480.4967 L688.5462,550.4999 A2.5,2.5 0 0 1 686.0462,552.9999 L497.0462,552.9999 A2.5,2.5 0 0 1 494.5462,550.4999 L494.5462,458.1999 A2.5,2.5 0 0 1 497.0462,455.6999 " fill="none" style="stroke:#000000;stroke-width:1.5;"/><line style="stroke:#000000;stroke-width:1.5;" x1="494.5462" x2="625.5462" y1="477.9967" y2="477.9967"/><text fill="#000000" font-family="sans-serif" font-size="14" font-weight="bold" lengthAdjust="spacing" textLength="118" x="498.5462" y="470.695">Layer 4 (Logic)</text></g><!--cluster layer2--><g id="cluster_layer2"><path d="M150.0462,633.9999 L252.0462,633.9999 A3.75,3.75 0 0 1 254.5462,636.4999 L261.5462,656.2967 L502.0462,656.2967 A2.5,2.5 0 0 1 504.5462,658.7967 L504.5462,811.7899 A2.5,2.5 0 0 1 502.0462,814.2899 L150.0462,814.2899 A2.5,2.5 0 0 1 147.5462,811.7899 L147.5462,636.4999 A2.5,2.5 0 0 1 150.0462,633.9999 " fill="none" style="stroke:#000000;stroke-width:1.5;"/><line style="stroke:#000000;stroke-width:1.5;" x1="147.5462" x2="261.5462" y1="656.2967" y2="656.2967"/><text fill="#000000" font-family="sans-serif" font-size="14" font-weight="bold" lengthAdjust="spacing" textLength="101" x="151.5462" y="648.995">Layer 2 (API)</text></g><!--cluster Open Catalogi App--><g id="cluster_Open Catalogi App"><path d="M190.0462,684.9999 L337.0462,684.9999 A3.75,3.75 0 0 1 339.5462,687.4999 L346.5462,707.2967 L470.0462,707.2967 A2.5,2.5 0 0 1 472.5462,709.7967 L472.5462,779.7899 A2.5,2.5 0 0 1 470.0462,782.2899 L190.0462,782.2899 A2.5,2.5 0 0 1 187.5462,779.7899 L187.5462,687.4999 A2.5,2.5 0 0 1 190.0462,684.9999 " fill="none" style="stroke:#000000;stroke-width:1.5;"/><line style="stroke:#000000;stroke-width:1.5;" x1="187.5462" x2="346.5462" y1="707.2967" y2="707.2967"/><text fill="#000000" font-family="sans-serif" font-size="14" font-weight="bold" lengthAdjust="spacing" textLength="146" x="191.5462" y="699.995">Open Catalogi App</text></g><!--cluster Layer 1 (data)--><g id="cluster_Layer 1 (data)"><path d="M154.0462,895.2899 L265.0462,895.2899 A3.75,3.75 0 0 1 267.5462,897.7899 L274.5462,917.5867 L504.0462,917.5867 A2.5,2.5 0 0 1 506.5462,920.0867 L506.5462,1057.0899 A2.5,2.5 0 0 1 504.0462,1059.5899 L154.0462,1059.5899 A2.5,2.5 0 0 1 151.5462,1057.0899 L151.5462,897.7899 A2.5,2.5 0 0 1 154.0462,895.2899 " fill="none" style="stroke:#000000;stroke-width:1.5;"/><line style="stroke:#000000;stroke-width:1.5;" x1="151.5462" x2="274.5462" y1="917.5867" y2="917.5867"/><text fill="#000000" font-family="sans-serif" font-size="14" font-weight="bold" lengthAdjust="spacing" textLength="110" x="155.5462" y="910.285">Layer 1 (data)</text></g><!--cluster Search index--><g id="cluster_Search index"><path d="M178.0462,938.2899 L282.0462,938.2899 A3.75,3.75 0 0 1 284.5462,940.7899 L291.5462,960.5867 L341.0462,960.5867 A2.5,2.5 0 0 1 343.5462,963.0867 L343.5462,1033.0899 A2.5,2.5 0 0 1 341.0462,1035.5899 L178.0462,1035.5899 A2.5,2.5 0 0 1 175.5462,1033.0899 L175.5462,940.7899 A2.5,2.5 0 0 1 178.0462,938.2899 " fill="none" style="stroke:#000000;stroke-width:1.5;"/><line style="stroke:#000000;stroke-width:1.5;" x1="175.5462" x2="291.5462" y1="960.5867" y2="960.5867"/><text fill="#000000" font-family="sans-serif" font-size="14" font-weight="bold" lengthAdjust="spacing" textLength="103" x="179.5462" y="953.285">Search index</text></g><!--cluster Object Store--><g id="cluster_Object Store"><path d="M370.0462,938.2899 L470.0462,938.2899 A3.75,3.75 0 0 1 472.5462,940.7899 L479.5462,960.5867 L480.0462,960.5867 A2.5,2.5 0 0 1 482.5462,963.0867 L482.5462,1033.0899 A2.5,2.5 0 0 1 480.0462,1035.5899 L370.0462,1035.5899 A2.5,2.5 0 0 1 367.5462,1033.0899 L367.5462,940.7899 A2.5,2.5 0 0 1 370.0462,938.2899 " fill="none" style="stroke:#000000;stroke-width:1.5;"/><line style="stroke:#000000;stroke-width:1.5;" x1="367.5462" x2="479.5462" y1="960.5867" y2="960.5867"/><text fill="#000000" font-family="sans-serif" font-size="14" font-weight="bold" lengthAdjust="spacing" textLength="99" x="371.5462" y="953.285">Object Store</text></g><!--entity identity--><g id="elem_identity"><rect fill="#F1F1F1" height="46.2969" rx="2.5" ry="2.5" style="stroke:#181818;stroke-width:0.5;" width="77" x="35.0462" y="973.2899"/><rect fill="#F1F1F1" height="10" style="stroke:#181818;stroke-width:0.5;" width="15" x="92.0462" y="978.2899"/><rect fill="#F1F1F1" height="2" style="stroke:#181818;stroke-width:0.5;" width="4" x="90.0462" y="980.2899"/><rect fill="#F1F1F1" height="2" style="stroke:#181818;stroke-width:0.5;" width="4" x="90.0462" y="984.2899"/><text fill="#000000" font-family="sans-serif" font-size="14" lengthAdjust="spacing" textLength="37" x="50.0462" y="1006.285">ADFS</text></g><!--entity user--><g id="elem_user"><ellipse cx="378.5462" cy="101.8999" fill="#F1F1F1" rx="8" ry="8" style="stroke:#181818;stroke-width:0.5;"/><path d="M378.5462,109.8999 L378.5462,136.8999 M365.5462,117.8999 L391.5462,117.8999 M378.5462,136.8999 L365.5462,151.8999 M378.5462,136.8999 L391.5462,151.8999 " fill="none" style="stroke:#181818;stroke-width:0.5;"/><text fill="#000000" font-family="sans-serif" font-size="14" lengthAdjust="spacing" textLength="32" x="362.5462" y="166.395">User</text></g><!--entity adminUser--><g id="elem_adminUser"><ellipse cx="450.5462" cy="101.8999" fill="#F1F1F1" rx="8" ry="8" style="stroke:#181818;stroke-width:0.5;"/><path d="M450.5462,109.8999 L450.5462,136.8999 M437.5462,117.8999 L463.5462,117.8999 M450.5462,136.8999 L437.5462,151.8999 M450.5462,136.8999 L463.5462,151.8999 " fill="none" style="stroke:#181818;stroke-width:0.5;"/><text fill="#000000" font-family="sans-serif" font-size="14" lengthAdjust="spacing" textLength="43" x="429.0462" y="166.395">Admin</text></g><!--entity externalCatalouge--><g id="elem_externalCatalouge"><ellipse cx="569.5462" cy="101.8999" fill="#F1F1F1" rx="8" ry="8" style="stroke:#181818;stroke-width:0.5;"/><path d="M569.5462,109.8999 L569.5462,136.8999 M556.5462,117.8999 L582.5462,117.8999 M569.5462,136.8999 L556.5462,151.8999 M569.5462,136.8999 L582.5462,151.8999 " fill="none" style="stroke:#181818;stroke-width:0.5;"/><text fill="#000000" font-family="sans-serif" font-size="14" lengthAdjust="spacing" textLength="126" x="506.5462" y="166.395">Externe Catalogus</text></g><!--entity ui--><g id="elem_ui"><rect fill="#F1F1F1" height="46.2969" rx="2.5" ry="2.5" style="stroke:#181818;stroke-width:0.5;" width="136" x="90.5462" y="490.6999"/><rect fill="#F1F1F1" height="10" style="stroke:#181818;stroke-width:0.5;" width="15" x="206.5462" y="495.6999"/><rect fill="#F1F1F1" height="2" style="stroke:#181818;stroke-width:0.5;" width="4" x="204.5462" y="497.6999"/><rect fill="#F1F1F1" height="2" style="stroke:#181818;stroke-width:0.5;" width="4" x="204.5462" y="501.6999"/><text fill="#000000" font-family="sans-serif" font-size="14" lengthAdjust="spacing" textLength="96" x="105.5462" y="523.695">User Interface</text></g><!--entity admin--><g id="elem_admin"><rect fill="#F1F1F1" height="46.2969" rx="2.5" ry="2.5" style="stroke:#181818;stroke-width:0.5;" width="147" x="283.0462" y="490.6999"/><rect fill="#F1F1F1" height="10" style="stroke:#181818;stroke-width:0.5;" width="15" x="410.0462" y="495.6999"/><rect fill="#F1F1F1" height="2" style="stroke:#181818;stroke-width:0.5;" width="4" x="408.0462" y="497.6999"/><rect fill="#F1F1F1" height="2" style="stroke:#181818;stroke-width:0.5;" width="4" x="408.0462" y="501.6999"/><text fill="#000000" font-family="sans-serif" font-size="14" lengthAdjust="spacing" textLength="107" x="298.0462" y="523.695">Admin Interface</text></g><!--entity service--><g id="elem_service"><rect fill="#F1F1F1" height="46.2969" rx="2.5" ry="2.5" style="stroke:#181818;stroke-width:0.5;" width="162" x="510.5462" y="490.6999"/><rect fill="#F1F1F1" height="10" style="stroke:#181818;stroke-width:0.5;" width="15" x="652.5462" y="495.6999"/><rect fill="#F1F1F1" height="2" style="stroke:#181818;stroke-width:0.5;" width="4" x="650.5462" y="497.6999"/><rect fill="#F1F1F1" height="2" style="stroke:#181818;stroke-width:0.5;" width="4" x="650.5462" y="501.6999"/><text fill="#000000" font-family="sans-serif" font-size="14" lengthAdjust="spacing" textLength="122" x="525.5462" y="523.695">Synchronysations</text></g><!--entity SearchAPI--><g id="elem_SearchAPI"><rect fill="#F1F1F1" height="46.2969" rx="2.5" ry="2.5" style="stroke:#181818;stroke-width:0.5;" width="113" x="203.0462" y="719.9999"/><rect fill="#F1F1F1" height="10" style="stroke:#181818;stroke-width:0.5;" width="15" x="296.0462" y="724.9999"/><rect fill="#F1F1F1" height="2" style="stroke:#181818;stroke-width:0.5;" width="4" x="294.0462" y="726.9999"/><rect fill="#F1F1F1" height="2" style="stroke:#181818;stroke-width:0.5;" width="4" x="294.0462" y="730.9999"/><text fill="#000000" font-family="sans-serif" font-size="14" lengthAdjust="spacing" textLength="73" x="218.0462" y="752.995">Search API</text></g><!--entity ObjectsAPI--><g id="elem_ObjectsAPI"><rect fill="#F1F1F1" height="46.2969" rx="2.5" ry="2.5" style="stroke:#181818;stroke-width:0.5;" width="106" x="350.5462" y="719.9999"/><rect fill="#F1F1F1" height="10" style="stroke:#181818;stroke-width:0.5;" width="15" x="436.5462" y="724.9999"/><rect fill="#F1F1F1" height="2" style="stroke:#181818;stroke-width:0.5;" width="4" x="434.5462" y="726.9999"/><rect fill="#F1F1F1" height="2" style="stroke:#181818;stroke-width:0.5;" width="4" x="434.5462" y="730.9999"/><text fill="#000000" font-family="sans-serif" font-size="14" lengthAdjust="spacing" textLength="66" x="365.5462" y="752.995">CRUD API</text></g><!--entity search--><g id="elem_search"><rect fill="#F1F1F1" height="46.2969" rx="2.5" ry="2.5" style="stroke:#181818;stroke-width:0.5;" width="136" x="191.5462" y="973.2899"/><rect fill="#F1F1F1" height="10" style="stroke:#181818;stroke-width:0.5;" width="15" x="307.5462" y="978.2899"/><rect fill="#F1F1F1" height="2" style="stroke:#181818;stroke-width:0.5;" width="4" x="305.5462" y="980.2899"/><rect fill="#F1F1F1" height="2" style="stroke:#181818;stroke-width:0.5;" width="4" x="305.5462" y="984.2899"/><text fill="#000000" font-family="sans-serif" font-size="14" lengthAdjust="spacing" textLength="96" x="206.5462" y="1006.285">Elastic Search</text></g><!--entity db--><g id="elem_db"><rect fill="#F1F1F1" height="46.2969" rx="2.5" ry="2.5" style="stroke:#181818;stroke-width:0.5;" width="71" x="383.0462" y="973.2899"/><rect fill="#F1F1F1" height="10" style="stroke:#181818;stroke-width:0.5;" width="15" x="434.0462" y="978.2899"/><rect fill="#F1F1F1" height="2" style="stroke:#181818;stroke-width:0.5;" width="4" x="432.0462" y="980.2899"/><rect fill="#F1F1F1" height="2" style="stroke:#181818;stroke-width:0.5;" width="4" x="432.0462" y="984.2899"/><text fill="#000000" font-family="sans-serif" font-size="14" lengthAdjust="spacing" textLength="31" x="398.0462" y="1006.285">ORC</text></g><!--entity f5extern--><g id="elem_f5extern"><ellipse cx="211.5462" cy="277.6999" fill="#F1F1F1" rx="8" ry="8" style="stroke:#181818;stroke-width:0.5;"/><text fill="#000000" font-family="sans-serif" font-size="14" lengthAdjust="spacing" textLength="138" x="142.5462" y="307.695">F5 extern (port 443)</text></g><!--entity f5intern--><g id="elem_f5intern"><ellipse cx="450.5462" cy="277.6999" fill="#F1F1F1" rx="8" ry="8" style="stroke:#181818;stroke-width:0.5;"/><text fill="#000000" font-family="sans-serif" font-size="14" lengthAdjust="spacing" textLength="134" x="383.5462" y="307.695">F5 intern (port 443)</text></g><!--entity hipp--><g id="elem_hipp"><ellipse cx="806.5462" cy="513.8499" fill="#F1F1F1" rx="8" ry="8" style="stroke:#181818;stroke-width:0.5;"/><text fill="#000000" font-family="sans-serif" font-size="14" lengthAdjust="spacing" textLength="141" x="736.0462" y="543.845">Hipp (outd of scope)</text></g><!--link externalCatalouge to hipp--><g id="link_externalCatalouge_hipp"><path d="M596.0899,175.1518 C649.5799,260.9718 771.9729,457.3677 798.5329,499.9877 " fill="none" id="externalCatalouge-hipp" style="stroke:#181818;stroke-width:1.0;stroke-dasharray:7.0,7.0;"/><polygon fill="#181818" points="592.9162,170.0599,594.2821,179.8135,595.5609,174.3031,601.0713,175.5819,592.9162,170.0599" style="stroke:#181818;stroke-width:1.0;"/><polygon fill="#181818" points="801.7062,505.0799,800.341,495.3261,799.0617,500.8364,793.5514,499.5572,801.7062,505.0799" style="stroke:#181818;stroke-width:1.0;"/><text fill="#000000" font-family="sans-serif" font-size="13" lengthAdjust="spacing" textLength="29" x="676.5462" y="282.2668">PKIO</text></g><!--link hipp to SearchAPI--><g id="link_hipp_SearchAPI"><path d="M792.7628,525.145 C773.7428,539.135 732.2762,567.9099 688.5462,584.9999 C638.6162,604.5099 623.7562,603.5099 570.5462,609.9999 C544.3962,613.1799 356.2362,604.5999 333.5462,617.9999 C295.6262,640.3899 276.7406,684.7108 267.4606,713.9608 " fill="none" id="hipp-SearchAPI" style="stroke:#181818;stroke-width:1.0;stroke-dasharray:7.0,7.0;"/><polygon fill="#181818" points="797.5962,521.5899,787.9761,523.7003,793.5684,524.5525,792.7163,530.1448,797.5962,521.5899" style="stroke:#181818;stroke-width:1.0;"/><polygon fill="#181818" points="265.6462,719.6799,272.1806,712.3109,267.1582,714.914,264.5552,709.8916,265.6462,719.6799" style="stroke:#181818;stroke-width:1.0;"/><text fill="#000000" font-family="sans-serif" font-size="13" lengthAdjust="spacing" textLength="156" x="665.5462" y="606.0668">Catalogus uitwisselingen</text></g><!--link user to f5extern--><g id="link_user_f5extern"><path d="M357.6843,150.5505 C322.8843,180.5905 251.4677,242.2389 224.8277,265.2389 " fill="none" id="user-f5extern" style="stroke:#181818;stroke-width:1.0;stroke-dasharray:7.0,7.0;"/><polygon fill="#181818" points="362.2262,146.6299,352.7996,149.4829,358.4413,149.8971,358.0271,155.5387,362.2262,146.6299" style="stroke:#181818;stroke-width:1.0;"/><polygon fill="#181818" points="220.2862,269.1599,229.7125,266.306,224.0708,265.8924,224.4845,260.2506,220.2862,269.1599" style="stroke:#181818;stroke-width:1.0;"/><text fill="#000000" font-family="sans-serif" font-size="13" lengthAdjust="spacing" textLength="116" x="296.5462" y="214.7668">Browser ANONIEM</text></g><!--link adminUser to f5intern--><g id="link_adminUser_f5intern"><path d="M450.5462,176.0499 C450.5462,209.7499 450.5462,244.6699 450.5462,262.9599 " fill="none" id="adminUser-f5intern" style="stroke:#181818;stroke-width:1.0;stroke-dasharray:7.0,7.0;"/><polygon fill="#181818" points="450.5462,170.0499,446.5462,179.0499,450.5462,175.0499,454.5462,179.0499,450.5462,170.0499" style="stroke:#181818;stroke-width:1.0;"/><polygon fill="#181818" points="450.5462,268.9599,454.5462,259.9599,450.5462,263.9599,446.5462,259.9599,450.5462,268.9599" style="stroke:#181818;stroke-width:1.0;"/><text fill="#000000" font-family="sans-serif" font-size="13" lengthAdjust="spacing" textLength="146" x="451.5462" y="214.7668">Browser MET JWT Claim</text></g><!--link f5extern to ui--><g id="link_f5extern_ui"><path d="M197.6807,287.9461 C184.4407,297.1561 165.0862,313.0799 155.5462,336.6999 C134.6362,388.4499 143.7569,450.0845 151.4669,484.5645 " fill="none" id="f5extern-ui" style="stroke:#181818;stroke-width:1.0;stroke-dasharray:7.0,7.0;"/><polygon fill="#181818" points="202.6062,284.5199,192.9337,286.3756,198.5016,287.3751,197.5021,292.9429,202.6062,284.5199" style="stroke:#181818;stroke-width:1.0;"/><polygon fill="#181818" points="152.7762,490.4199,154.7158,480.7639,151.6851,485.5404,146.9086,482.5096,152.7762,490.4199" style="stroke:#181818;stroke-width:1.0;"/><text fill="#000000" font-family="sans-serif" font-size="13" lengthAdjust="spacing" textLength="250" x="156.5462" y="349.7668">Alleen openbare endpoints en objecten</text></g><!--link f5intern to admin--><g id="link_f5intern_admin"><path d="M445.1818,292.0583 C432.3818,323.9583 388.1313,434.1717 367.7913,484.8417 " fill="none" id="f5intern-admin" style="stroke:#181818;stroke-width:1.0;stroke-dasharray:7.0,7.0;"/><polygon fill="#181818" points="447.4162,286.4899,440.3523,293.353,445.5542,291.1302,447.7769,296.3321,447.4162,286.4899" style="stroke:#181818;stroke-width:1.0;"/><polygon fill="#181818" points="365.5562,490.4099,372.621,483.5478,367.4188,485.7698,365.1968,480.5676,365.5562,490.4099" style="stroke:#181818;stroke-width:1.0;"/><text fill="#000000" font-family="sans-serif" font-size="13" lengthAdjust="spacing" textLength="90" x="425.5462" y="349.7668">Alle endpionts</text></g><!--link ui to SearchAPI--><g id="link_ui_SearchAPI"><path d="M171.0325,542.9529 C190.3925,586.5229 227.7692,670.637 247.0992,714.127 " fill="none" id="ui-SearchAPI" style="stroke:#181818;stroke-width:1.0;stroke-dasharray:7.0,7.0;"/><polygon fill="#181818" points="168.5962,537.4699,168.5953,547.3187,170.6265,542.0391,175.9061,544.0702,168.5962,537.4699" style="stroke:#181818;stroke-width:1.0;"/><polygon fill="#181818" points="249.5362,719.6099,249.536,709.761,247.5054,715.0408,242.2256,713.0103,249.5362,719.6099" style="stroke:#181818;stroke-width:1.0;"/><text fill="#000000" font-family="sans-serif" font-size="13" lengthAdjust="spacing" textLength="90" x="201.5462" y="606.0668">Alle endpionts</text></g><!--link admin to ObjectsAPI--><g id="link_admin_ObjectsAPI"><path d="M362.4412,543.3455 C371.4512,586.9155 388.6816,670.2441 397.6716,713.7341 " fill="none" id="admin-ObjectsAPI" style="stroke:#181818;stroke-width:1.0;stroke-dasharray:7.0,7.0;"/><polygon fill="#181818" points="361.2262,537.4699,359.1316,547.0934,362.2387,542.3663,366.9659,545.4733,361.2262,537.4699" style="stroke:#181818;stroke-width:1.0;"/><polygon fill="#181818" points="398.8862,719.6099,400.9815,709.9865,397.874,714.7134,393.1471,711.6059,398.8862,719.6099" style="stroke:#181818;stroke-width:1.0;"/><text fill="#000000" font-family="sans-serif" font-size="13" lengthAdjust="spacing" textLength="90" x="376.5462" y="606.0668">Alle endpionts</text></g><!--link ObjectsAPI to db--><g id="link_ObjectsAPI_db"><path d="M404.8762,766.4499 C407.7162,814.0099 413.9781,919.0006 416.8381,966.8406 " fill="none" id="ObjectsAPI-to-db" style="stroke:#181818;stroke-width:1.0;stroke-dasharray:7.0,7.0;"/><polygon fill="#181818" points="417.1962,972.8299,420.652,963.6072,416.8978,967.8388,412.6662,964.0846,417.1962,972.8299" style="stroke:#181818;stroke-width:1.0;"/><text fill="#000000" font-family="sans-serif" font-size="13" lengthAdjust="spacing" textLength="43" x="411.5462" y="875.3568">Persist</text></g><!--link SearchAPI to search--><g id="link_SearchAPI_search"><path d="M259.5462,766.4499 C259.5462,814.0099 259.5462,918.9899 259.5462,966.8299 " fill="none" id="SearchAPI-to-search" style="stroke:#181818;stroke-width:1.0;stroke-dasharray:7.0,7.0;"/><polygon fill="#181818" points="259.5462,972.8299,263.5462,963.8299,259.5462,967.8299,255.5462,963.8299,259.5462,972.8299" style="stroke:#181818;stroke-width:1.0;"/><text fill="#000000" font-family="sans-serif" font-size="13" lengthAdjust="spacing" textLength="50" x="260.5462" y="875.3568">Look up</text></g><!--link layer2 to identity--><g id="link_layer2_identity"><path d="M147.4842,768.8607 C147.4032,769.1089 147.3218,769.3585 147.2398,769.6097 C146.9119,770.6144 146.5761,771.6433 146.2327,772.6955 C140.7387,789.5305 133.3024,812.3174 125.2762,836.9124 C109.2237,886.1024 92.6726,936.8209 82.7176,967.3259 " fill="none" id="layer2-to-identity" style="stroke:#181818;stroke-width:1.0;stroke-dasharray:7.0,7.0;"/><polygon fill="#181818" points="80.8562,973.0299,87.451,965.7149,82.4074,968.2766,79.8457,963.233,80.8562,973.0299" style="stroke:#181818;stroke-width:1.0;"/><text fill="#000000" font-family="sans-serif" font-size="13" lengthAdjust="spacing" textLength="36" x="115.5462" y="875.3568">AUTH</text></g><!--link service to ObjectsAPI--><g id="link_service_ObjectsAPI"><path d="M572.8362,537.4699 C536.7962,581.0399 461.9802,671.4964 426.0102,714.9864 " fill="none" id="service-to-ObjectsAPI" style="stroke:#181818;stroke-width:1.0;stroke-dasharray:7.0,7.0;"/><polygon fill="#181818" points="422.1862,719.6099,431.0046,715.224,425.3729,715.7569,424.8399,710.1253,422.1862,719.6099" style="stroke:#181818;stroke-width:1.0;"/><text fill="#000000" font-family="sans-serif" font-size="13" lengthAdjust="spacing" textLength="36" x="525.5462" y="606.0668">AUTH</text></g><text fill="#888888" font-family="sans-serif" font-size="10" lengthAdjust="spacing" textLength="165" x="352.5231" y="1074.8721">Common Gateway | Components</text><!--SRC=[RLHDSzem4BthL-nmSY_CD8MBfzCP5qX3Go0Je3raSX3s0cgCvB6a4fhaltSb-OEFtApTj-_jMwriXCanXbc14WRSy5nj15ihPR2COQ1sEoNX1pUuvmTuSu52IPH6iotohCBK8IOabQrvYj2vxWE-q4b2LAZIGA_tvLC7k8PrFyJFmFxq0JZ4JwXlH550fAp9GAr1fwh0WDvIWh4qLpQ3JlBFbjXvPV2O3A_dJ-008gC-XJcmzmOszlne2CbJeqheB3MMdixIHnrCifsGFihTr_8eDV9si9wUrHuMJF8yHEq6cHEjLM_jogkY9brMyFIPRyZPX1-mX3v4tYtn2oN9sckBU42AmdG2GzHY8rqE7bqtCAu75AnQuVIQkbyMpwkyfVCoxuugNQzdRVKWcj1of67MkOlrFD7y8DDjgUH1SzUm3apKqr-HuaTCLn0bz-CZdYlYEKATB2CaHH4QdYClqorGwPEh34SwKMhmi1msYTdg3wP6kumJVsSdamWjV8Oe8m4_t3PNAGYPuKlG7ELS6v5MOhKpztr26YHXJWk1eN3sC0ZeR1N6UR4GyBNR_UPtDeRxs_6CkSyGRAp5xLRHZPgzq1fp8JT8BuAv_Gpu-at5yBrKUnTEfhFfU7J7ccsjWTKxQv5temNy_Bs0GSx5ZjLC0Mv534cU8rq7FJAvuYK2ognGn48hJb7lcxffY7sTLmsb7azRGRy7AoxSdI5yNG2rbtY1QbC0tKpj9S6p5GqHIosqOGr_cmvN5iD4gMUm1QkshaxN_mMIMYvkMBMwJVga5mBy1m00]--></g></svg>