<svg xmlns="http://www.w3.org/2000/svg" xmlns:xlink="http://www.w3.org/1999/xlink" contentStyleType="text/css" height="470px" preserveAspectRatio="none" style="width:410px;height:470px;background:#FFFFFF;" version="1.1" viewBox="0 0 410 470" width="410px" zoomAndPan="magnify"><defs/><g><text fill="#888888" font-family="sans-serif" font-size="10" lengthAdjust="spacing" textLength="105.21" x="290.79" y="9.2822">Componenten Matrix</text><text fill="#000000" font-family="sans-serif" font-size="14" font-weight="bold" lengthAdjust="spacing" textLength="111.3574" x="142.3213" y="35.6357">Open Catalogi</text><!--cluster Layer 5 (interactie)--><g id="cluster_Layer 5 (interactie)"><path d="M8.5,55.9375 L162.2695,55.9375 A3.75,3.75 0 0 1 164.7695,58.4375 L171.7695,78.2344 L400.5,78.2344 A2.5,2.5 0 0 1 403,80.7344 L403,150.7375 A2.5,2.5 0 0 1 400.5,153.2375 L8.5,153.2375 A2.5,2.5 0 0 1 6,150.7375 L6,58.4375 A2.5,2.5 0 0 1 8.5,55.9375 " fill="none" style="stroke:#000000;stroke-width:1.5;"/><line style="stroke:#000000;stroke-width:1.5;" x1="6" x2="171.7695" y1="78.2344" y2="78.2344"/><text fill="#000000" font-family="sans-serif" font-size="14" font-weight="bold" lengthAdjust="spacing" textLength="152.7695" x="10" y="70.9326">Layer 5 (interactie)</text></g><!--cluster Layer 2 (api)--><g id="cluster_Layer 2 (api)"><path d="M60.5,202.2375 L161.9473,202.2375 A3.75,3.75 0 0 1 164.4473,204.7375 L171.4473,224.5344 L357.5,224.5344 A2.5,2.5 0 0 1 360,227.0344 L360,297.0275 A2.5,2.5 0 0 1 357.5,299.5275 L60.5,299.5275 A2.5,2.5 0 0 1 58,297.0275 L58,204.7375 A2.5,2.5 0 0 1 60.5,202.2375 " fill="none" style="stroke:#000000;stroke-width:1.5;"/><line style="stroke:#000000;stroke-width:1.5;" x1="58" x2="171.4473" y1="224.5344" y2="224.5344"/><text fill="#000000" font-family="sans-serif" font-size="14" font-weight="bold" lengthAdjust="spacing" textLength="100.4473" x="62" y="217.2326">Layer 2 (api)</text></g><!--cluster Layer 1 (data)--><g id="cluster_Layer 1 (data)"><path d="M31.5,348.5275 L144.2881,348.5275 A3.75,3.75 0 0 1 146.7881,351.0275 L153.7881,370.8244 L381.5,370.8244 A2.5,2.5 0 0 1 384,373.3244 L384,442.3275 A2.5,2.5 0 0 1 381.5,444.8275 L31.5,444.8275 A2.5,2.5 0 0 1 29,442.3275 L29,351.0275 A2.5,2.5 0 0 1 31.5,348.5275 " fill="none" style="stroke:#000000;stroke-width:1.5;"/><line style="stroke:#000000;stroke-width:1.5;" x1="29" x2="153.7881" y1="370.8244" y2="370.8244"/><text fill="#000000" font-family="sans-serif" font-size="14" font-weight="bold" lengthAdjust="spacing" textLength="111.7881" x="33" y="363.5226">Layer 1 (data)</text></g><!--entity adminUI--><g id="elem_adminUI"><rect fill="#F1F1F1" height="46.2969" rx="2.5" ry="2.5" style="stroke:#181818;stroke-width:0.5;" width="157.2021" x="22.4" y="90.9375"/><rect fill="#F1F1F1" height="10" style="stroke:#181818;stroke-width:0.5;" width="15" x="159.6021" y="95.9375"/><rect fill="#F1F1F1" height="2" style="stroke:#181818;stroke-width:0.5;" width="4" x="157.6021" y="97.9375"/><rect fill="#F1F1F1" height="2" style="stroke:#181818;stroke-width:0.5;" width="4" x="157.6021" y="101.9375"/><text fill="#000000" font-family="sans-serif" font-size="14" lengthAdjust="spacing" textLength="117.2021" x="37.4" y="123.9326">Beheer Interface</text></g><!--entity userUi--><g id="elem_userUi"><rect fill="#F1F1F1" height="46.2969" rx="2.5" ry="2.5" style="stroke:#181818;stroke-width:0.5;" width="172.4326" x="214.78" y="90.9375"/><rect fill="#F1F1F1" height="10" style="stroke:#181818;stroke-width:0.5;" width="15" x="367.2126" y="95.9375"/><rect fill="#F1F1F1" height="2" style="stroke:#181818;stroke-width:0.5;" width="4" x="365.2126" y="97.9375"/><rect fill="#F1F1F1" height="2" style="stroke:#181818;stroke-width:0.5;" width="4" x="365.2126" y="101.9375"/><text fill="#000000" font-family="sans-serif" font-size="14" lengthAdjust="spacing" textLength="132.4326" x="229.78" y="123.9326">Publicatie platform</text></g><!--entity beheerAPI--><g id="elem_beheerAPI"><rect fill="#F1F1F1" height="46.2969" rx="2.5" ry="2.5" style="stroke:#181818;stroke-width:0.5;" width="116.6719" x="73.66" y="237.2375"/><rect fill="#F1F1F1" height="10" style="stroke:#181818;stroke-width:0.5;" width="15" x="170.3319" y="242.2375"/><rect fill="#F1F1F1" height="2" style="stroke:#181818;stroke-width:0.5;" width="4" x="168.3319" y="244.2375"/><rect fill="#F1F1F1" height="2" style="stroke:#181818;stroke-width:0.5;" width="4" x="168.3319" y="248.2375"/><text fill="#000000" font-family="sans-serif" font-size="14" lengthAdjust="spacing" textLength="76.6719" x="88.66" y="270.2326">Beheer API</text></g><!--entity searchAPI--><g id="elem_searchAPI"><rect fill="#F1F1F1" height="46.2969" rx="2.5" ry="2.5" style="stroke:#181818;stroke-width:0.5;" width="118.9619" x="225.52" y="237.2375"/><rect fill="#F1F1F1" height="10" style="stroke:#181818;stroke-width:0.5;" width="15" x="324.4819" y="242.2375"/><rect fill="#F1F1F1" height="2" style="stroke:#181818;stroke-width:0.5;" width="4" x="322.4819" y="244.2375"/><rect fill="#F1F1F1" height="2" style="stroke:#181818;stroke-width:0.5;" width="4" x="322.4819" y="248.2375"/><text fill="#000000" font-family="sans-serif" font-size="14" lengthAdjust="spacing" textLength="78.9619" x="240.52" y="270.2326">Zoeken API</text></g><!--entity elastic--><g id="elem_elastic"><path d="M270.06,393.5275 C270.06,383.5275 318.9975,383.5275 318.9975,383.5275 C318.9975,383.5275 367.935,383.5275 367.935,393.5275 L367.935,418.8244 C367.935,428.8244 318.9975,428.8244 318.9975,428.8244 C318.9975,428.8244 270.06,428.8244 270.06,418.8244 L270.06,393.5275 " fill="#F1F1F1" style="stroke:#181818;stroke-width:0.5;"/><path d="M270.06,393.5275 C270.06,403.5275 318.9975,403.5275 318.9975,403.5275 C318.9975,403.5275 367.935,403.5275 367.935,393.5275 " fill="none" style="stroke:#181818;stroke-width:0.5;"/><text fill="#000000" font-family="sans-serif" font-size="14" lengthAdjust="spacing" textLength="77.875" x="280.06" y="420.5226">Zoek index</text></g><!--entity ORC--><g id="elem_ORC"><path d="M45.18,393.5275 C45.18,383.5275 111.9969,383.5275 111.9969,383.5275 C111.9969,383.5275 178.8138,383.5275 178.8138,393.5275 L178.8138,418.8244 C178.8138,428.8244 111.9969,428.8244 111.9969,428.8244 C111.9969,428.8244 45.18,428.8244 45.18,418.8244 L45.18,393.5275 " fill="#F1F1F1" style="stroke:#181818;stroke-width:0.5;"/><path d="M45.18,393.5275 C45.18,403.5275 111.9969,403.5275 111.9969,403.5275 C111.9969,403.5275 178.8138,403.5275 178.8138,393.5275 " fill="none" style="stroke:#181818;stroke-width:0.5;"/><text fill="#000000" font-family="sans-serif" font-size="14" lengthAdjust="spacing" textLength="113.6338" x="55.18" y="420.5226">Objecten opslag</text></g><!--link adminUI to beheerAPI--><g id="link_adminUI_beheerAPI"><path d="M105.84,137.6275 C111.67,164.7375 120.1196,204.0914 125.9296,231.1314 " fill="none" id="adminUI-to-beheerAPI" style="stroke:#181818;stroke-width:1.0;stroke-dasharray:7.0,7.0;"/><polygon fill="#181818" points="127.19,236.9975,129.2101,227.358,126.1396,232.1091,121.3886,229.0386,127.19,236.9975" style="stroke:#181818;stroke-width:1.0;"/><text fill="#000000" font-family="sans-serif" font-size="13" lengthAdjust="spacing" textLength="53.041" x="117" y="182.3044">Opslaan</text></g><!--reverse link userUi to searchAPI--><g id="link_userUi_searchAPI"><path d="M297.8379,143.5909 C294.8279,170.7009 290.48,209.9575 287.48,236.9975 " fill="none" id="userUi-backto-searchAPI" style="stroke:#181818;stroke-width:1.0;stroke-dasharray:7.0,7.0;"/><polygon fill="#181818" points="298.5,137.6275,293.5313,146.1311,297.9482,142.597,301.4824,147.0139,298.5,137.6275" style="stroke:#181818;stroke-width:1.0;"/><text fill="#000000" font-family="sans-serif" font-size="13" lengthAdjust="spacing" textLength="65.0254" x="295" y="182.3044">Opzoeken</text></g><!--link beheerAPI to ORC--><g id="link_beheerAPI_ORC"><path d="M128.88,283.8475 C125.1,311.0275 119.6066,350.5047 115.8666,377.3947 " fill="none" id="beheerAPI-to-ORC" style="stroke:#181818;stroke-width:1.0;stroke-dasharray:7.0,7.0;"/><polygon fill="#181818" points="115.04,383.3375,120.2417,374.9743,115.7288,378.3852,112.318,373.8723,115.04,383.3375" style="stroke:#181818;stroke-width:1.0;"/><text fill="#000000" font-family="sans-serif" font-size="13" lengthAdjust="spacing" textLength="53.041" x="126" y="328.5944">Opslaan</text></g><!--reverse link searchAPI to elastic--><g id="link_searchAPI_elastic"><path d="M291.6913,289.6863 C298.1213,316.8663 307.48,356.4475 313.84,383.3375 " fill="none" id="searchAPI-backto-elastic" style="stroke:#181818;stroke-width:1.0;stroke-dasharray:7.0,7.0;"/><polygon fill="#181818" points="290.31,283.8475,288.4894,293.5266,291.4611,288.7132,296.2745,291.6849,290.31,283.8475" style="stroke:#181818;stroke-width:1.0;"/><text fill="#000000" font-family="sans-serif" font-size="13" lengthAdjust="spacing" textLength="48.623" x="301" y="328.5944">Zoeken</text></g><!--link ORC to elastic--><g id="link_ORC_elastic"><path d="M179.21,406.1775 C208.72,406.1775 236.74,406.1775 263.83,406.1775 " fill="none" id="ORC-to-elastic" style="stroke:#181818;stroke-width:1.0;stroke-dasharray:7.0,7.0;"/><polygon fill="#181818" points="269.83,406.1775,260.83,402.1775,264.83,406.1775,260.83,410.1775,269.83,406.1775" style="stroke:#181818;stroke-width:1.0;"/><text fill="#000000" font-family="sans-serif" font-size="13" lengthAdjust="spacing" textLength="55.3198" x="196.94" y="399.2444">Updaten</text></g><text fill="#888888" font-family="sans-serif" font-size="10" lengthAdjust="spacing" textLength="144.0625" x="125.9688" y="460.1097">Open Catalogi | Components</text><!--SRC=[PP3DJiCm48JlVefLJ-4I2IGk5KA2d2A1KY7b0kAmSJQ9QM9RjYlAJz-TTL8IQ6_sphVZ6GSLUbf3OKb3XW5xqohH61F8dKpX6p8pMAD91oywmZeYyuZ9HmnExOKG5kKMMuBL0twGWsj850CEPL1qiO8l0I_tr15BUPmtAEaLq0FMWz9bpl9cL_LA8lDWUmoDSSD8x3ovKed3-IDNaA1L_ztlDlcuLOrNlh7qR6ZBMNybJ-Xa5wN3cUKb93MN7ptZeKBFMZG0fMlQhw81zUY3ad-0edeZ6V_3MDzZErB5KnOVE1Q4j3RlEhrTWiM_PXYrc1h2pOGi-IBnEMONyzRim_QBmxmocnmphc4gBnY7rAcs2xmxYwNb3gH_0000]--></g></svg>