<svg xmlns="http://www.w3.org/2000/svg" xmlns:xlink="http://www.w3.org/1999/xlink" contentStyleType="text/css" height="384px" preserveAspectRatio="none" style="width:370px;height:384px;background:#FFFFFF;" version="1.1" viewBox="0 0 370 384" width="370px" zoomAndPan="magnify"><defs/><g><text fill="#888888" font-family="sans-serif" font-size="10" lengthAdjust="spacing" textLength="31" x="325.5" y="9.2822">Matrix</text><text fill="#000000" font-family="sans-serif" font-size="14" font-weight="bold" lengthAdjust="spacing" textLength="110" x="123.25" y="35.6357">Open Catalogi</text><!--entity adminUI--><g id="elem_adminUI"><rect fill="#F1F1F1" height="46.2969" rx="2.5" ry="2.5" style="stroke:#181818;stroke-width:0.5;" width="147" x="213.5" y="56.9375"/><rect fill="#F1F1F1" height="10" style="stroke:#181818;stroke-width:0.5;" width="15" x="340.5" y="61.9375"/><rect fill="#F1F1F1" height="2" style="stroke:#181818;stroke-width:0.5;" width="4" x="338.5" y="63.9375"/><rect fill="#F1F1F1" height="2" style="stroke:#181818;stroke-width:0.5;" width="4" x="338.5" y="67.9375"/><text fill="#000000" font-family="sans-serif" font-size="14" lengthAdjust="spacing" textLength="107" x="228.5" y="89.9326">Admin Interface</text></g><!--entity userUi--><g id="elem_userUi"><rect fill="#F1F1F1" height="46.2969" rx="2.5" ry="2.5" style="stroke:#181818;stroke-width:0.5;" width="136" x="7" y="56.9375"/><rect fill="#F1F1F1" height="10" style="stroke:#181818;stroke-width:0.5;" width="15" x="123" y="61.9375"/><rect fill="#F1F1F1" height="2" style="stroke:#181818;stroke-width:0.5;" width="4" x="121" y="63.9375"/><rect fill="#F1F1F1" height="2" style="stroke:#181818;stroke-width:0.5;" width="4" x="121" y="67.9375"/><text fill="#000000" font-family="sans-serif" font-size="14" lengthAdjust="spacing" textLength="96" x="22" y="89.9326">User Interface</text></g><!--entity objectsAPI--><g id="elem_objectsAPI"><rect fill="#F1F1F1" height="46.2969" rx="2.5" ry="2.5" style="stroke:#181818;stroke-width:0.5;" width="106" x="234" y="180.2375"/><rect fill="#F1F1F1" height="10" style="stroke:#181818;stroke-width:0.5;" width="15" x="320" y="185.2375"/><rect fill="#F1F1F1" height="2" style="stroke:#181818;stroke-width:0.5;" width="4" x="318" y="187.2375"/><rect fill="#F1F1F1" height="2" style="stroke:#181818;stroke-width:0.5;" width="4" x="318" y="191.2375"/><text fill="#000000" font-family="sans-serif" font-size="14" lengthAdjust="spacing" textLength="66" x="249" y="213.2326">CRUD API</text></g><!--entity searchAPI--><g id="elem_searchAPI"><rect fill="#F1F1F1" height="46.2969" rx="2.5" ry="2.5" style="stroke:#181818;stroke-width:0.5;" width="113" x="18.5" y="180.2375"/><rect fill="#F1F1F1" height="10" style="stroke:#181818;stroke-width:0.5;" width="15" x="111.5" y="185.2375"/><rect fill="#F1F1F1" height="2" style="stroke:#181818;stroke-width:0.5;" width="4" x="109.5" y="187.2375"/><rect fill="#F1F1F1" height="2" style="stroke:#181818;stroke-width:0.5;" width="4" x="109.5" y="191.2375"/><text fill="#000000" font-family="sans-serif" font-size="14" lengthAdjust="spacing" textLength="73" x="33.5" y="213.2326">Search API</text></g><!--entity elastic--><g id="elem_elastic"><path d="M20.5,313.5275 C20.5,303.5275 75,303.5275 75,303.5275 C75,303.5275 129.5,303.5275 129.5,313.5275 L129.5,338.8244 C129.5,348.8244 75,348.8244 75,348.8244 C75,348.8244 20.5,348.8244 20.5,338.8244 L20.5,313.5275 " fill="#F1F1F1" style="stroke:#181818;stroke-width:0.5;"/><path d="M20.5,313.5275 C20.5,323.5275 75,323.5275 75,323.5275 C75,323.5275 129.5,323.5275 129.5,313.5275 " fill="none" style="stroke:#181818;stroke-width:0.5;"/><text fill="#000000" font-family="sans-serif" font-size="14" lengthAdjust="spacing" textLength="89" x="30.5" y="340.5226">Search index</text></g><!--entity ORC--><g id="elem_ORC"><path d="M220.5,313.5275 C220.5,303.5275 287,303.5275 287,303.5275 C287,303.5275 353.5,303.5275 353.5,313.5275 L353.5,338.8244 C353.5,348.8244 287,348.8244 287,348.8244 C287,348.8244 220.5,348.8244 220.5,338.8244 L220.5,313.5275 " fill="#F1F1F1" style="stroke:#181818;stroke-width:0.5;"/><path d="M220.5,313.5275 C220.5,323.5275 287,323.5275 287,323.5275 C287,323.5275 353.5,323.5275 353.5,313.5275 " fill="none" style="stroke:#181818;stroke-width:0.5;"/><text fill="#000000" font-family="sans-serif" font-size="14" lengthAdjust="spacing" textLength="113" x="230.5" y="340.5226">Objecten opslag</text></g><!--link adminUI to objectsAPI--><g id="link_adminUI_objectsAPI"><path d="M287,103.6175 C287,125.4075 287,152.2275 287,173.9675 " fill="none" id="adminUI-to-objectsAPI" style="stroke:#181818;stroke-width:1.0;stroke-dasharray:7.0,7.0;"/><polygon fill="#181818" points="287,179.9675,291,170.9675,287,174.9675,283,170.9675,287,179.9675" style="stroke:#181818;stroke-width:1.0;"/><text fill="#000000" font-family="sans-serif" font-size="13" lengthAdjust="spacing" textLength="52" x="288" y="146.3044">Opslaan</text></g><!--reverse link userUi to searchAPI--><g id="link_userUi_searchAPI"><path d="M75,109.6175 C75,131.4075 75,158.2275 75,179.9675 " fill="none" id="userUi-backto-searchAPI" style="stroke:#181818;stroke-width:1.0;stroke-dasharray:7.0,7.0;"/><polygon fill="#181818" points="75,103.6175,71,112.6175,75,108.6175,79,112.6175,75,103.6175" style="stroke:#181818;stroke-width:1.0;"/><text fill="#000000" font-family="sans-serif" font-size="13" lengthAdjust="spacing" textLength="64" x="76" y="146.3044">Opzoeken</text></g><!--link objectsAPI to ORC--><g id="link_objectsAPI_ORC"><path d="M287,226.8175 C287,248.6575 287,275.6175 287,297.2675 " fill="none" id="objectsAPI-to-ORC" style="stroke:#181818;stroke-width:1.0;stroke-dasharray:7.0,7.0;"/><polygon fill="#181818" points="287,303.2675,291,294.2675,287,298.2675,283,294.2675,287,303.2675" style="stroke:#181818;stroke-width:1.0;"/><text fill="#000000" font-family="sans-serif" font-size="13" lengthAdjust="spacing" textLength="52" x="288" y="269.5944">Opslaan</text></g><!--reverse link searchAPI to elastic--><g id="link_searchAPI_elastic"><path d="M75,232.8175 C75,254.6575 75,281.6175 75,303.2675 " fill="none" id="searchAPI-backto-elastic" style="stroke:#181818;stroke-width:1.0;stroke-dasharray:7.0,7.0;"/><polygon fill="#181818" points="75,226.8175,71,235.8175,75,231.8175,79,235.8175,75,226.8175" style="stroke:#181818;stroke-width:1.0;"/><text fill="#000000" font-family="sans-serif" font-size="13" lengthAdjust="spacing" textLength="49" x="76" y="269.5944">Zoeken</text></g><!--reverse link elastic to ORC--><g id="link_elastic_ORC"><path d="M135.87,326.1775 C163.48,326.1775 191.16,326.1775 220.26,326.1775 " fill="none" id="elastic-backto-ORC" style="stroke:#181818;stroke-width:1.0;stroke-dasharray:7.0,7.0;"/><polygon fill="#181818" points="129.87,326.1775,138.87,330.1775,134.87,326.1775,138.87,322.1775,129.87,326.1775" style="stroke:#181818;stroke-width:1.0;"/><text fill="#000000" font-family="sans-serif" font-size="13" lengthAdjust="spacing" textLength="55" x="147.5" y="319.2444">Updaten</text></g><text fill="#888888" font-family="sans-serif" font-size="10" lengthAdjust="spacing" textLength="141" x="107.75" y="374.1066">Open Catalogi | Components</text><!--SRC=[NO_1QiCm44Jl-nLBFi0V44eXk1SVYakABWqzRAnrebPP6KkXeVJZkxAD77BKp9lHR7B9ynRRWGLhIkJ3oK4VGkBnGSK_hCDb2CAI8foPR4PUAOtk1W1usDcB4sn4eprr_8aKaR9c6dLDvF71lAfad7hrthpWxgsPr73yuYv5VQhppZHsv-B5wPaj0AkxZXGPDmlanF9jap7s59Fhxf1sAjLhmX0zdIQgtTS0oq2iRFYHwldkzto-iYGmxyIdcLb7PE8ty3SBhB7IfFLhHScKbcNZ5Z_c1iMnyjmdZHRF37e2opy0]--></g></svg>