<svg xmlns="http://www.w3.org/2000/svg" xmlns:xlink="http://www.w3.org/1999/xlink" contentStyleType="text/css" height="1023px" preserveAspectRatio="none" style="width:1045px;height:1023px;background:#FFFFFF;" version="1.1" viewBox="0 0 1045 1023" width="1045px" zoomAndPan="magnify"><defs/><g><text fill="#888888" font-family="sans-serif" font-size="10" lengthAdjust="spacing" textLength="63" x="968.303" y="9.2822">Components</text><text fill="#000000" font-family="sans-serif" font-size="14" font-weight="bold" lengthAdjust="spacing" textLength="110" x="460.6515" y="35.6357">Open Catalogi</text><!--cluster Internet--><g id="cluster_Internet"><path d="M129.1442,96.7005 C137.5662,86.5323 143.3682,89.9074 149.306,99.2655 C154.7389,88.6693 162.4431,89.3652 168.5165,98.6465 C173.2498,89.4244 181.0996,87.2277 188.5764,95.5008 C195.5724,87.0856 202.993,87.3311 208.7164,96.924 C214.6895,88.3558 221.7258,91.1183 226.1574,98.5993 C230.3904,86.9758 241.2394,86.1751 247.7915,96.2914 C252.5438,85.789 262.6272,85.7849 267.9907,95.6864 C274.5911,86.294 282.2727,85.921 288.9306,95.6232 C294.8672,86.6575 302.4338,86.7992 308.0547,95.9564 C313.7517,87.6031 322.5068,85.7247 327.9017,96.2736 C334.8891,85.7894 344.3817,87.6727 348.8401,98.7315 C352.7674,88.9148 360.0921,89.4564 366.1378,96.5667 C374.7227,86.7871 381.9081,89.0578 388.5311,98.8155 C398.0858,89.0537 406.2855,89.9012 412,102.7938 C413.5904,101.3221 414.9158,101.8695 415.4336,103.8582 C427.9243,109.8956 430.8552,118.2248 419.9922,128.5703 C431.8473,135.5391 433.8916,144.7402 423.0575,154.4014 C431.0211,162.5844 432.106,173.0289 418.6014,176.9736 C430.2009,194.7748 424.4723,203.3237 405,207.0938 C406.9432,207.634 407.4586,209.4018 405.8116,210.741 C401.1758,219.3449 392.5388,220.7128 386.9613,211.7516 C381.3143,220.1118 371.7864,222.1476 366.0992,211.7965 C360.89,222.1771 353.6238,222.8523 346.5493,213.6596 C341.8032,224.4943 332.4337,224.5114 325.3738,216.2215 C320.6519,224.3377 311.3188,225.3368 306.4188,216.4196 C302.2589,226.6022 294.0965,228.857 286.8816,219.4694 C281.8614,229.8955 275.6385,229.6633 268.2778,221.8576 C262.5121,229.4041 253.9104,230.4328 249.4323,220.4718 C242.0438,231.2492 232.5071,229.1817 227.7599,217.8792 C221.7165,228.6653 211.7457,224.9327 207.2728,216.2285 C199.9048,224.4658 191.8087,225.3389 186.4401,214.0908 C179.8079,222.9647 173.2521,223.3397 166.5701,214.1455 C158.1919,222.4639 151.0517,219.6014 147.7568,209.0716 C134.3131,218.5004 123.839,218.2263 119,200.0938 C119.6335,199.6364 120.2433,199.8867 120.3369,200.6738 C110.4973,193.4788 111.3267,185.1639 121.6565,179.2088 C108.5231,173.2623 104.7108,161.5132 117.9724,151.9936 C108.9836,143.8493 109.7559,136.7814 120.3846,130.8782 C105.618,116.9294 109.7014,104.7705 126,95.7938 C127.5148,94.506 128.5037,94.9566 129.1442,96.7005 " fill="none" style="stroke:#181818;stroke-width:1.0;"/><text fill="#000000" font-family="sans-serif" font-size="14" font-weight="bold" lengthAdjust="spacing" textLength="63" x="234" y="113.7889">Internet</text></g><!--cluster Federatief netwerk--><g id="cluster_Federatief netwerk"><path d="M801.0561,325.5098 C806.3318,316.0742 812.8428,316.2445 818.9461,324.6814 C822.4568,318.3733 828.1738,317.7229 832.0755,324.2824 C837.8818,317.0877 845.2527,316.4693 850.0413,325.415 C853.987,318.0853 860.0381,316.9947 865.3618,323.9356 C868.6408,316.8168 874.8899,318.2292 878.3768,323.7209 C882.8123,316.2383 888.0709,314.7079 894.4918,321.4756 C899.2284,315.8084 906.5755,316.6623 909.4453,323.6768 C914.1329,316.1087 920.6008,314.7629 926.1961,322.6959 C931.2311,316.1958 936.2941,316.465 940.8479,323.2275 C946.2357,315.3777 954.6744,315.1529 958.2127,325.0384 C960.8601,318.3031 966.6784,318.1695 971.1583,322.9846 C978.0585,314.3252 983.5657,315.4959 989.0847,324.3947 C994.0858,318.2643 999.0488,320.2318 1002.449,326.1677 C1010.8141,316.982 1020.6847,318.187 1024,331.0938 C1026.0899,331.0247 1026.7118,332.2807 1025.838,334.0526 C1033.3784,337.9222 1033.6398,342.6732 1027.7413,348.3339 C1037.365,353.5185 1037.272,359.7355 1028.6279,365.8451 C1036.1576,369.8937 1036.4124,377.2806 1028.9109,381.5992 C1037.3937,386.5584 1038.303,393.7747 1029.3042,399.1261 C1036.6353,403.7717 1037.5303,411.6888 1029.3822,416.4042 C1037.7978,421.8176 1037.1145,426.676 1029.1718,431.8668 C1036.4666,437.073 1034.9332,445.3041 1027.5618,449.1436 C1033.8575,460.3614 1032.827,471.2255 1017,472.3938 C1019.197,472.2734 1019.7523,473.2666 1019.1069,475.2459 C1013.6315,483.0596 1007.019,483.2059 1002.9035,473.9546 C998.6772,483.1447 993.2587,483.4216 986.1439,477.0693 C982.3979,482.8582 976.4576,483.1085 972.8353,476.9317 C970.1832,485.7033 964.3002,486.1916 958.1923,480.4084 C953.7698,487.5137 947.6869,487.7321 942.3058,481.5548 C936.81,490.8741 930.3333,491.1433 924.7337,481.6519 C921.6456,487.4701 916.0603,489.1591 911.8743,482.8125 C906.0234,490.0545 899.995,489.6379 895.4327,481.4402 C890.1295,488.8006 884.3693,488.7398 879.8033,480.6923 C874.7025,487.9002 869.4305,487.7448 865.4262,479.6614 C859.2218,486.5945 851.8939,485.659 847.8353,477.2079 C841.9551,485.2894 836.1375,483.2419 831.9004,475.5481 C826.4157,482.6449 822.1323,480.8506 817.8792,474.2842 C804.8912,484.2043 797.563,480.7886 794,465.3938 C795.2055,465.2555 795.6753,466.0293 795.075,467.0577 C786.37,463.2791 784.948,455.6518 793.4445,450.2087 C785.1307,444.6105 785.0291,437.9498 793.3144,432.2314 C784.2205,428.2787 783.7848,423.1575 789.7999,415.9445 C781.5337,411.479 781.5587,405.3807 788.7254,399.8827 C782.7256,394.0908 781.7719,387.0767 791.0456,383.4401 C782.4111,378.0008 784.2393,371.7014 791.2847,366.4831 C784.5679,361.3189 783.805,353.0866 793.2448,349.8232 C785.3062,338.5729 788.2081,329.0957 801,324.0938 C801.6674,324.5155 801.7008,325.0361 801.0561,325.5098 " fill="none" style="stroke:#181818;stroke-width:1.0;"/><text fill="#000000" font-family="sans-serif" font-size="14" font-weight="bold" lengthAdjust="spacing" textLength="152" x="833" y="342.0889">Federatief netwerk</text></g><!--cluster Catalogi--><g id="cluster_Catalogi"><path d="M812.5,359.0938 L876.5,359.0938 A3.75,3.75 0 0 1 879,361.5938 L886,381.3906 L1005.5,381.3906 A2.5,2.5 0 0 1 1008,383.8906 L1008,453.8938 A2.5,2.5 0 0 1 1005.5,456.3938 L812.5,456.3938 A2.5,2.5 0 0 1 810,453.8938 L810,361.5938 A2.5,2.5 0 0 1 812.5,359.0938 " fill="none" style="stroke:#000000;stroke-width:1.5;"/><line style="stroke:#000000;stroke-width:1.5;" x1="810" x2="886" y1="381.3906" y2="381.3906"/><text fill="#000000" font-family="sans-serif" font-size="14" font-weight="bold" lengthAdjust="spacing" textLength="63" x="814" y="374.0889">Catalogi</text></g><!--cluster Externe Applicaties--><g id="cluster_Externe Applicaties"><path d="M520.148,68.7386 C525.2656,59.3796 533.8283,61.2846 538.3397,69.3708 C545.5604,58.2458 554.8786,57.4973 561.8219,69.6507 C567.933,60.543 574.9931,60.1261 582.1453,68.4359 C587.5099,59.3204 596.9212,60.691 601.4101,69.3833 C607.2113,59.8241 616.1171,56.6288 623.1271,68.1372 C628.7053,59.036 634.7152,61.0347 640.3423,68.0849 C647.0992,57.1813 656.3227,56.8851 663.7528,67.3473 C669.9063,58.107 675.8099,58.3328 683.126,66.0163 C689.3153,57.2605 695.4786,57.9568 700.7159,66.9592 C707.2111,56.3536 717.6633,55.9375 723.116,67.9898 C728.9769,57.4855 737.6427,57.8239 744.5311,66.8639 C751.8409,57.3797 757.6245,60.0082 763.6646,68.2355 C771.4611,60.2282 777.3809,60.7272 782.3436,71.1132 C793.5078,57.9029 801.7218,59.8601 809,74.7938 C810.1993,74.5882 810.993,74.976 810.7403,76.3717 C821.6466,81.9316 825.045,88.7208 815.3936,98.5868 C825.8419,105.4866 826.2369,115.4973 815.858,122.7967 C825.0883,126.7528 829.5135,133.9135 820.3015,142.1122 C830.6328,151.6086 829.0368,163.2453 814.4637,166.8691 C826.1,173.7242 826.2007,180.572 815.3967,188.3996 C825.7077,202.81 818.8004,214.7981 802,216.0938 C803.0089,215.4812 803.7476,216.1716 803.7689,217.175 C797.4293,225.7161 791.4833,227.5256 784.1533,218.2663 C778.9294,227.4286 772.7943,229.162 765.2659,220.7419 C757.2826,231.5389 749.8724,233.4089 741.2551,221.4096 C735.149,231.4034 729.0062,231.5908 721.8692,222.4542 C718.713,233.2752 711.2946,234.8426 703.9475,226.3413 C697.7691,237.3132 689.8178,237.0315 683.497,226.4766 C677.1152,238.9544 668.1503,236.8812 660.3609,228.0015 C654.7469,234.3734 647.1805,235.0981 643.3962,225.9956 C636.1051,235.8128 627.5609,234.3599 621.913,224.2261 C614.6321,233.3506 608.1842,236.0684 600.519,224.6258 C594.7526,234.205 587.5913,233.7516 582.2253,224.242 C573.5481,232.67 565.5283,230.1572 560.6478,219.8657 C555.3894,230.3766 548.2188,230.2601 541.949,220.8133 C528.159,230.8022 513.6157,228.614 511,209.0938 C512.4136,208.3335 513.6089,208.9199 513.5211,210.6275 C503.0512,205.0978 498.9241,195.9182 510.1737,187.2752 C499.1694,182.8773 499.2749,171.9364 507.4993,165.2081 C496.4833,161.4321 493.9472,152.2602 502.4881,143.8875 C493.5375,134.7256 494.1296,127.351 505.6509,121.0207 C496.7563,111.4752 499.1913,104.4624 510.1884,99.0193 C496.6915,86.4793 503.0843,73.2259 518,67.7938 C519.1583,67.1197 519.8355,67.49 520.148,68.7386 " fill="none" style="stroke:#181818;stroke-width:1.0;"/><text fill="#000000" font-family="sans-serif" font-size="14" font-weight="bold" lengthAdjust="spacing" textLength="152" x="584" y="85.7889">Externe Applicaties</text></g><!--cluster Bronnen--><g id="cluster_Bronnen"><path d="M529.5,102.7938 L597.5,102.7938 A3.75,3.75 0 0 1 600,105.2938 L607,125.0906 L790.5,125.0906 A2.5,2.5 0 0 1 793,127.5906 L793,197.5938 A2.5,2.5 0 0 1 790.5,200.0938 L529.5,200.0938 A2.5,2.5 0 0 1 527,197.5938 L527,105.2938 A2.5,2.5 0 0 1 529.5,102.7938 " fill="none" style="stroke:#000000;stroke-width:1.5;"/><line style="stroke:#000000;stroke-width:1.5;" x1="527" x2="607" y1="125.0906" y2="125.0906"/><text fill="#000000" font-family="sans-serif" font-size="14" font-weight="bold" lengthAdjust="spacing" textLength="67" x="531" y="117.7889">Bronnen</text></g><!--cluster Kubernetes--><g id="cluster_Kubernetes"><path d="M81.1772,288.5128 C92.7457,261.2783 115.7204,257.2258 133.0443,282.8672 C148.9077,260.4125 170.9702,258.5244 184.3506,285.4472 C194.2673,264.4276 213.1829,261.3205 226.1319,282.4407 C240.5897,258.3849 259.4532,251.9064 279.6636,276.052 C290.8805,254.7889 309.315,255.7496 321.7746,274.7523 C333.9387,250.6675 356.3532,247.7073 371.5234,271.6378 C388.1546,254.0802 406.0621,250.4852 417.3998,277.1317 C431.4096,250.9647 449.1329,251.6322 468.0923,271.7054 C485.0663,255.8633 503.112,256.2241 512.2652,280.3491 C528.7453,254.1416 547.3365,253.0487 563.7679,280.396 C577.2045,258.8384 594.0787,259.8998 606.7004,281.2121 C624.2571,258.3145 642.0218,263.9867 654.8561,286.2479 C669.6724,259.2613 685.8435,258.6619 703.3974,283.6933 C721.8148,264.024 739.5386,262.271 754,288.0938 C756.807,289.5289 756.9633,292.3137 754.6003,294.2528 C780.5856,310.1923 776.884,325.2938 756.835,343.3295 C779.5492,352.5947 781.6829,376.6429 763.2018,391.368 C788.7027,403.5746 785.0415,423.1694 766.057,438.0942 C785.5727,449.9839 789.7621,473.1342 765.6162,484.6101 C788.0985,500.4693 788.9752,515.5924 763.8552,529.5879 C783.6327,546.2552 788.5593,565.0946 761.3846,579.4349 C784.6488,597.1373 781.3458,613.2612 759.1163,628.8764 C780.603,640.32 779.6337,661.6597 761.3137,674.9998 C785.524,689.7261 783.5223,713.0372 758.5476,725.0449 C777.1236,745.6596 772.037,765.8219 747,776.6838 C748.5115,774.8458 749.8548,774.9542 751.092,776.9746 C736.8957,797.5946 722.9545,799.5728 706.8086,779.0742 C694.2365,801.4628 677.8677,808.6958 658.7402,786.0749 C639.3397,811.3658 622.3198,808.1536 608.5942,780.6814 C594.915,803.7708 580.3555,800.1922 565.334,782.0913 C549.5303,806.9033 525.914,810.7306 509.1804,783.0867 C497.4981,803.0516 477.493,805.7831 462.9729,786.421 C446.8699,805.6924 428.8254,803.8029 417.8583,780.924 C405.8671,806.3639 380.5975,803.92 367.0164,782.6547 C355.8325,805.2607 338.0661,807.0513 323.2071,786.3746 C306.6288,809.7102 284.3191,803.2889 274.8023,779.1714 C264.1603,801.5392 247.8939,803.6024 231.5241,785.2606 C214.3433,807.3759 197.028,810.2152 182.4122,782.7214 C166.0586,810.577 144.7173,809.8555 130.1972,781.0323 C110.3945,805.2823 83.395,796.9719 74,769.6838 C75.0024,769.6332 75.4628,769.9796 75.1519,771.0425 C54.7534,757.2481 53.9687,744.479 74.2413,729.787 C51.8268,712.4343 49.7075,691.8996 78.3266,678.6217 C58.1698,663.4652 58.1632,645.5678 81.1717,633.1097 C53.8986,617.4395 53.9108,595.8633 78.8075,577.9567 C57.8398,566.5719 54.1276,551.198 73.6451,534.9531 C53.2072,520.5024 49.1196,500.6053 74.3512,486.8247 C51.3112,469.0338 51.5328,451.3696 78.1823,437.433 C55.5698,422.9236 52.001,398.6438 79.9902,385.91 C58.374,372.9125 59.4174,355.5237 78.5416,341.2061 C54.0431,321.2342 52.9683,298.9174 81,281.0938 C85.0356,282.9621 84.5925,286.4665 81.1772,288.5128 " fill="none" style="stroke:#181818;stroke-width:1.0;"/><text fill="#000000" font-family="sans-serif" font-size="14" font-weight="bold" lengthAdjust="spacing" textLength="93" x="367.5" y="299.0889">Kubernetes</text></g><!--cluster Layer 5 (interactie)--><g id="cluster_Layer 5 (interactie)"><path d="M92.5,316.0938 L244.5,316.0938 A3.75,3.75 0 0 1 247,318.5938 L254,338.3906 L517.5,338.3906 A2.5,2.5 0 0 1 520,340.8906 L520,477.8938 A2.5,2.5 0 0 1 517.5,480.3938 L92.5,480.3938 A2.5,2.5 0 0 1 90,477.8938 L90,318.5938 A2.5,2.5 0 0 1 92.5,316.0938 " fill="none" style="stroke:#000000;stroke-width:1.5;"/><line style="stroke:#000000;stroke-width:1.5;" x1="90" x2="254" y1="338.3906" y2="338.3906"/><text fill="#000000" font-family="sans-serif" font-size="14" font-weight="bold" lengthAdjust="spacing" textLength="151" x="94" y="331.0889">Layer 5 (interactie)</text></g><!--cluster Publicatie platform--><g id="cluster_Publicatie platform"><path d="M116.5,359.0938 L264.5,359.0938 A3.75,3.75 0 0 1 267,361.5938 L274,381.3906 L297.5,381.3906 A2.5,2.5 0 0 1 300,383.8906 L300,453.8938 A2.5,2.5 0 0 1 297.5,456.3938 L116.5,456.3938 A2.5,2.5 0 0 1 114,453.8938 L114,361.5938 A2.5,2.5 0 0 1 116.5,359.0938 " fill="none" style="stroke:#000000;stroke-width:1.5;"/><line style="stroke:#000000;stroke-width:1.5;" x1="114" x2="274" y1="381.3906" y2="381.3906"/><text fill="#000000" font-family="sans-serif" font-size="14" font-weight="bold" lengthAdjust="spacing" textLength="147" x="118" y="374.0889">Publicatie platform</text></g><!--cluster Beheer Interface--><g id="cluster_Beheer Interface"><path d="M326.5,359.0938 L460.5,359.0938 A3.75,3.75 0 0 1 463,361.5938 L470,381.3906 L493.5,381.3906 A2.5,2.5 0 0 1 496,383.8906 L496,453.8938 A2.5,2.5 0 0 1 493.5,456.3938 L326.5,456.3938 A2.5,2.5 0 0 1 324,453.8938 L324,361.5938 A2.5,2.5 0 0 1 326.5,359.0938 " fill="none" style="stroke:#000000;stroke-width:1.5;"/><line style="stroke:#000000;stroke-width:1.5;" x1="324" x2="470" y1="381.3906" y2="381.3906"/><text fill="#000000" font-family="sans-serif" font-size="14" font-weight="bold" lengthAdjust="spacing" textLength="133" x="328" y="374.0889">Beheer Interface</text></g><!--cluster layer4--><g id="cluster_layer4"><path d="M546.5,359.0938 L669.5,359.0938 A3.75,3.75 0 0 1 672,361.5938 L679,381.3906 L735.5,381.3906 A2.5,2.5 0 0 1 738,383.8906 L738,453.8938 A2.5,2.5 0 0 1 735.5,456.3938 L546.5,456.3938 A2.5,2.5 0 0 1 544,453.8938 L544,361.5938 A2.5,2.5 0 0 1 546.5,359.0938 " fill="none" style="stroke:#000000;stroke-width:1.5;"/><line style="stroke:#000000;stroke-width:1.5;" x1="544" x2="679" y1="381.3906" y2="381.3906"/><text fill="#000000" font-family="sans-serif" font-size="14" font-weight="bold" lengthAdjust="spacing" textLength="122" x="548" y="374.0889">Layer 4 (logica)</text></g><!--cluster layer2--><g id="cluster_layer2"><path d="M288.5,529.3938 L390.5,529.3938 A3.75,3.75 0 0 1 393,531.8938 L400,551.6906 L735.5,551.6906 A2.5,2.5 0 0 1 738,554.1906 L738,758.1838 A2.5,2.5 0 0 1 735.5,760.6838 L288.5,760.6838 A2.5,2.5 0 0 1 286,758.1838 L286,531.8938 A2.5,2.5 0 0 1 288.5,529.3938 " fill="none" style="stroke:#000000;stroke-width:1.5;"/><line style="stroke:#000000;stroke-width:1.5;" x1="286" x2="400" y1="551.6906" y2="551.6906"/><text fill="#000000" font-family="sans-serif" font-size="14" font-weight="bold" lengthAdjust="spacing" textLength="101" x="290" y="544.3889">Layer 2 (API)</text></g><!--cluster Next Cloud framework--><g id="cluster_Next Cloud framework"><path d="M312.5,572.3938 L490.5,572.3938 A3.75,3.75 0 0 1 493,574.8938 L500,594.6906 L711.5,594.6906 A2.5,2.5 0 0 1 714,597.1906 L714,734.1838 A2.5,2.5 0 0 1 711.5,736.6838 L312.5,736.6838 A2.5,2.5 0 0 1 310,734.1838 L310,574.8938 A2.5,2.5 0 0 1 312.5,572.3938 " fill="none" style="stroke:#000000;stroke-width:1.5;"/><line style="stroke:#000000;stroke-width:1.5;" x1="310" x2="500" y1="594.6906" y2="594.6906"/><text fill="#000000" font-family="sans-serif" font-size="14" font-weight="bold" lengthAdjust="spacing" textLength="177" x="314" y="587.3889">Next Cloud framework</text></g><!--cluster Zoeken API--><g id="cluster_Zoeken API"><path d="M540.5,615.3938 L631.5,615.3938 A3.75,3.75 0 0 1 634,617.8938 L641,637.6906 L687.5,637.6906 A2.5,2.5 0 0 1 690,640.1906 L690,710.1838 A2.5,2.5 0 0 1 687.5,712.6838 L540.5,712.6838 A2.5,2.5 0 0 1 538,710.1838 L538,617.8938 A2.5,2.5 0 0 1 540.5,615.3938 " fill="none" style="stroke:#000000;stroke-width:1.5;"/><line style="stroke:#000000;stroke-width:1.5;" x1="538" x2="641" y1="637.6906" y2="637.6906"/><text fill="#000000" font-family="sans-serif" font-size="14" font-weight="bold" lengthAdjust="spacing" textLength="90" x="542" y="630.3889">Zoeken API</text></g><!--cluster Beheer  API--><g id="cluster_Beheer  API"><path d="M336.5,615.3938 L429.5,615.3938 A3.75,3.75 0 0 1 432,617.8938 L439,637.6906 L511.5,637.6906 A2.5,2.5 0 0 1 514,640.1906 L514,710.1838 A2.5,2.5 0 0 1 511.5,712.6838 L336.5,712.6838 A2.5,2.5 0 0 1 334,710.1838 L334,617.8938 A2.5,2.5 0 0 1 336.5,615.3938 " fill="none" style="stroke:#000000;stroke-width:1.5;"/><line style="stroke:#000000;stroke-width:1.5;" x1="334" x2="439" y1="637.6906" y2="637.6906"/><text fill="#000000" font-family="sans-serif" font-size="14" font-weight="bold" lengthAdjust="spacing" textLength="92" x="338" y="630.3889">Beheer  API</text></g><!--cluster Layer 1 (data)--><g id="cluster_Layer 1 (data)"><path d="M8.5,833.6838 L119.5,833.6838 A3.75,3.75 0 0 1 122,836.1838 L129,855.9806 L507.5,855.9806 A2.5,2.5 0 0 1 510,858.4806 L510,995.4838 A2.5,2.5 0 0 1 507.5,997.9838 L8.5,997.9838 A2.5,2.5 0 0 1 6,995.4838 L6,836.1838 A2.5,2.5 0 0 1 8.5,833.6838 " fill="none" style="stroke:#000000;stroke-width:1.5;"/><line style="stroke:#000000;stroke-width:1.5;" x1="6" x2="129" y1="855.9806" y2="855.9806"/><text fill="#000000" font-family="sans-serif" font-size="14" font-weight="bold" lengthAdjust="spacing" textLength="110" x="10" y="848.6789">Layer 1 (data)</text></g><!--cluster Search--><g id="cluster_Search"><path d="M32.5,876.6838 L88.5,876.6838 A3.75,3.75 0 0 1 91,879.1838 L98,898.9806 L195.5,898.9806 A2.5,2.5 0 0 1 198,901.4806 L198,971.4838 A2.5,2.5 0 0 1 195.5,973.9838 L32.5,973.9838 A2.5,2.5 0 0 1 30,971.4838 L30,879.1838 A2.5,2.5 0 0 1 32.5,876.6838 " fill="none" style="stroke:#000000;stroke-width:1.5;"/><line style="stroke:#000000;stroke-width:1.5;" x1="30" x2="98" y1="898.9806" y2="898.9806"/><text fill="#000000" font-family="sans-serif" font-size="14" font-weight="bold" lengthAdjust="spacing" textLength="55" x="34" y="891.6789">Search</text></g><!--cluster Object Store--><g id="cluster_Object Store"><path d="M247.5,876.6838 L347.5,876.6838 A3.75,3.75 0 0 1 350,879.1838 L357,898.9806 L357.5,898.9806 A2.5,2.5 0 0 1 360,901.4806 L360,971.4838 A2.5,2.5 0 0 1 357.5,973.9838 L247.5,973.9838 A2.5,2.5 0 0 1 245,971.4838 L245,879.1838 A2.5,2.5 0 0 1 247.5,876.6838 " fill="none" style="stroke:#000000;stroke-width:1.5;"/><line style="stroke:#000000;stroke-width:1.5;" x1="245" x2="357" y1="898.9806" y2="898.9806"/><text fill="#000000" font-family="sans-serif" font-size="14" font-weight="bold" lengthAdjust="spacing" textLength="99" x="249" y="891.6789">Object Store</text></g><!--cluster DMS--><g id="cluster_DMS"><path d="M386.5,876.6838 L421.5,876.6838 A3.75,3.75 0 0 1 424,879.1838 L431,898.9806 L483.5,898.9806 A2.5,2.5 0 0 1 486,901.4806 L486,971.4838 A2.5,2.5 0 0 1 483.5,973.9838 L386.5,973.9838 A2.5,2.5 0 0 1 384,971.4838 L384,879.1838 A2.5,2.5 0 0 1 386.5,876.6838 " fill="none" style="stroke:#000000;stroke-width:1.5;"/><line style="stroke:#000000;stroke-width:1.5;" x1="384" x2="431" y1="898.9806" y2="898.9806"/><text fill="#000000" font-family="sans-serif" font-size="14" font-weight="bold" lengthAdjust="spacing" textLength="34" x="388" y="891.6789">DMS</text></g><!--entity user--><g id="elem_user"><ellipse cx="151" cy="131.2938" fill="#F1F1F1" rx="8" ry="8" style="stroke:#181818;stroke-width:0.5;"/><path d="M151,139.2938 L151,166.2938 M138,147.2938 L164,147.2938 M151,166.2938 L138,181.2938 M151,166.2938 L164,181.2938 " fill="none" style="stroke:#181818;stroke-width:0.5;"/><text fill="#000000" font-family="sans-serif" font-size="14" lengthAdjust="spacing" textLength="47" x="127.5" y="195.7889">Burger</text></g><!--entity employee--><g id="elem_employee"><ellipse cx="252" cy="131.2938" fill="#F1F1F1" rx="8" ry="8" style="stroke:#181818;stroke-width:0.5;"/><path d="M252,139.2938 L252,166.2938 M239,147.2938 L265,147.2938 M252,166.2938 L239,181.2938 M252,166.2938 L265,181.2938 " fill="none" style="stroke:#181818;stroke-width:0.5;"/><text fill="#000000" font-family="sans-serif" font-size="14" lengthAdjust="spacing" textLength="86" x="209" y="195.7889">Medewerker</text></g><!--entity admin--><g id="elem_admin"><ellipse cx="367" cy="131.2938" fill="#F1F1F1" rx="8" ry="8" style="stroke:#181818;stroke-width:0.5;"/><path d="M367,139.2938 L367,166.2938 M354,147.2938 L380,147.2938 M367,166.2938 L354,181.2938 M367,166.2938 L380,181.2938 " fill="none" style="stroke:#181818;stroke-width:0.5;"/><text fill="#000000" font-family="sans-serif" font-size="14" lengthAdjust="spacing" textLength="74" x="330" y="195.7889">Beheerder</text></g><!--entity externalCatalouge--><g id="elem_externalCatalouge"><rect fill="#F1F1F1" height="46.2969" rx="2.5" ry="2.5" style="stroke:#181818;stroke-width:0.5;" width="166" x="826" y="394.0938"/><rect fill="#F1F1F1" height="10" style="stroke:#181818;stroke-width:0.5;" width="15" x="972" y="399.0938"/><rect fill="#F1F1F1" height="2" style="stroke:#181818;stroke-width:0.5;" width="4" x="970" y="401.0938"/><rect fill="#F1F1F1" height="2" style="stroke:#181818;stroke-width:0.5;" width="4" x="970" y="405.0938"/><text fill="#000000" font-family="sans-serif" font-size="14" lengthAdjust="spacing" textLength="126" x="841" y="427.0889">Externe Catalogus</text></g><!--entity zaaksysteem--><g id="elem_zaaksysteem"><rect fill="#F1F1F1" height="46.2969" rx="2.5" ry="2.5" style="stroke:#181818;stroke-width:0.5;" width="133" x="542.5" y="137.7938"/><rect fill="#F1F1F1" height="10" style="stroke:#181818;stroke-width:0.5;" width="15" x="655.5" y="142.7938"/><rect fill="#F1F1F1" height="2" style="stroke:#181818;stroke-width:0.5;" width="4" x="653.5" y="144.7938"/><rect fill="#F1F1F1" height="2" style="stroke:#181818;stroke-width:0.5;" width="4" x="653.5" y="148.7938"/><text fill="#000000" font-family="sans-serif" font-size="14" lengthAdjust="spacing" textLength="93" x="557.5" y="170.7889">Zaaksysteem</text></g><!--entity overigebronnen--><g id="elem_overigebronnen"><rect fill="#F1F1F1" height="46.2969" rx="2.5" ry="2.5" style="stroke:#181818;stroke-width:0.5;" width="66" x="711" y="137.7938"/><rect fill="#F1F1F1" height="10" style="stroke:#181818;stroke-width:0.5;" width="15" x="757" y="142.7938"/><rect fill="#F1F1F1" height="2" style="stroke:#181818;stroke-width:0.5;" width="4" x="755" y="144.7938"/><rect fill="#F1F1F1" height="2" style="stroke:#181818;stroke-width:0.5;" width="4" x="755" y="148.7938"/><text fill="#000000" font-family="sans-serif" font-size="14" lengthAdjust="spacing" textLength="26" x="726" y="170.7889">Etc.</text></g><!--entity userUi--><g id="elem_userUi"><rect fill="#F1F1F1" height="46.2969" rx="2.5" ry="2.5" style="stroke:#181818;stroke-width:0.5;" width="154" x="130" y="394.0938"/><rect fill="#F1F1F1" height="10" style="stroke:#181818;stroke-width:0.5;" width="15" x="264" y="399.0938"/><rect fill="#F1F1F1" height="2" style="stroke:#181818;stroke-width:0.5;" width="4" x="262" y="401.0938"/><rect fill="#F1F1F1" height="2" style="stroke:#181818;stroke-width:0.5;" width="4" x="262" y="405.0938"/><text fill="#000000" font-family="sans-serif" font-size="14" lengthAdjust="spacing" textLength="114" x="145" y="427.0889">React NL Design</text></g><!--entity adminUi--><g id="elem_adminUi"><rect fill="#F1F1F1" height="46.2969" rx="2.5" ry="2.5" style="stroke:#181818;stroke-width:0.5;" width="141" x="339.5" y="394.0938"/><rect fill="#F1F1F1" height="10" style="stroke:#181818;stroke-width:0.5;" width="15" x="460.5" y="399.0938"/><rect fill="#F1F1F1" height="2" style="stroke:#181818;stroke-width:0.5;" width="4" x="458.5" y="401.0938"/><rect fill="#F1F1F1" height="2" style="stroke:#181818;stroke-width:0.5;" width="4" x="458.5" y="405.0938"/><text fill="#000000" font-family="sans-serif" font-size="14" lengthAdjust="spacing" textLength="101" x="354.5" y="427.0889">Vue NL Design</text></g><!--entity service--><g id="elem_service"><rect fill="#F1F1F1" height="46.2969" rx="2.5" ry="2.5" style="stroke:#181818;stroke-width:0.5;" width="162" x="560" y="394.0938"/><rect fill="#F1F1F1" height="10" style="stroke:#181818;stroke-width:0.5;" width="15" x="702" y="399.0938"/><rect fill="#F1F1F1" height="2" style="stroke:#181818;stroke-width:0.5;" width="4" x="700" y="401.0938"/><rect fill="#F1F1F1" height="2" style="stroke:#181818;stroke-width:0.5;" width="4" x="700" y="405.0938"/><text fill="#000000" font-family="sans-serif" font-size="14" lengthAdjust="spacing" textLength="122" x="575" y="427.0889">Synchronysations</text></g><!--entity searchAPI--><g id="elem_searchAPI"><rect fill="#F1F1F1" height="46.2969" rx="2.5" ry="2.5" style="stroke:#181818;stroke-width:0.5;" width="119" x="554.5" y="650.3938"/><rect fill="#F1F1F1" height="10" style="stroke:#181818;stroke-width:0.5;" width="15" x="653.5" y="655.3938"/><rect fill="#F1F1F1" height="2" style="stroke:#181818;stroke-width:0.5;" width="4" x="651.5" y="657.3938"/><rect fill="#F1F1F1" height="2" style="stroke:#181818;stroke-width:0.5;" width="4" x="651.5" y="661.3938"/><text fill="#000000" font-family="sans-serif" font-size="14" lengthAdjust="spacing" textLength="79" x="569.5" y="683.3889">Open Index</text></g><!--entity objectsAPI--><g id="elem_objectsAPI"><rect fill="#F1F1F1" height="46.2969" rx="2.5" ry="2.5" style="stroke:#181818;stroke-width:0.5;" width="148" x="350" y="650.3938"/><rect fill="#F1F1F1" height="10" style="stroke:#181818;stroke-width:0.5;" width="15" x="478" y="655.3938"/><rect fill="#F1F1F1" height="2" style="stroke:#181818;stroke-width:0.5;" width="4" x="476" y="657.3938"/><rect fill="#F1F1F1" height="2" style="stroke:#181818;stroke-width:0.5;" width="4" x="476" y="661.3938"/><text fill="#000000" font-family="sans-serif" font-size="14" lengthAdjust="spacing" textLength="108" x="365" y="683.3889">Open Registers</text></g><!--entity searchDb--><g id="elem_searchDb"><rect fill="#F1F1F1" height="46.2969" rx="2.5" ry="2.5" style="stroke:#181818;stroke-width:0.5;" width="136" x="46" y="911.6838"/><rect fill="#F1F1F1" height="10" style="stroke:#181818;stroke-width:0.5;" width="15" x="162" y="916.6838"/><rect fill="#F1F1F1" height="2" style="stroke:#181818;stroke-width:0.5;" width="4" x="160" y="918.6838"/><rect fill="#F1F1F1" height="2" style="stroke:#181818;stroke-width:0.5;" width="4" x="160" y="922.6838"/><text fill="#000000" font-family="sans-serif" font-size="14" lengthAdjust="spacing" textLength="96" x="61" y="944.6789">Elastic Search</text></g><!--entity objectsDb--><g id="elem_objectsDb"><rect fill="#F1F1F1" height="46.2969" rx="2.5" ry="2.5" style="stroke:#181818;stroke-width:0.5;" width="71" x="273.5" y="911.6838"/><rect fill="#F1F1F1" height="10" style="stroke:#181818;stroke-width:0.5;" width="15" x="324.5" y="916.6838"/><rect fill="#F1F1F1" height="2" style="stroke:#181818;stroke-width:0.5;" width="4" x="322.5" y="918.6838"/><rect fill="#F1F1F1" height="2" style="stroke:#181818;stroke-width:0.5;" width="4" x="322.5" y="922.6838"/><text fill="#000000" font-family="sans-serif" font-size="14" lengthAdjust="spacing" textLength="31" x="288.5" y="944.6789">ORC</text></g><!--entity drc--><g id="elem_drc"><rect fill="#F1F1F1" height="46.2969" rx="2.5" ry="2.5" style="stroke:#181818;stroke-width:0.5;" width="71" x="399.5" y="911.6838"/><rect fill="#F1F1F1" height="10" style="stroke:#181818;stroke-width:0.5;" width="15" x="450.5" y="916.6838"/><rect fill="#F1F1F1" height="2" style="stroke:#181818;stroke-width:0.5;" width="4" x="448.5" y="918.6838"/><rect fill="#F1F1F1" height="2" style="stroke:#181818;stroke-width:0.5;" width="4" x="448.5" y="922.6838"/><text fill="#000000" font-family="sans-serif" font-size="14" lengthAdjust="spacing" textLength="31" x="414.5" y="944.6789">DRC</text></g><!--link user to userUi--><g id="link_user_userUi"><path d="M123.9499,196.7173 C112.0799,215.1373 104.71,234.4738 111,257.0938 C125.92,310.7138 160.5666,359.6528 184.0366,388.9228 " fill="none" id="user-userUi" style="stroke:#181818;stroke-width:1.0;stroke-dasharray:7.0,7.0;"/><polygon fill="#181818" points="127.2,191.6738,118.9625,197.0723,124.4916,195.8767,125.6872,201.4058,127.2,191.6738" style="stroke:#181818;stroke-width:1.0;"/><polygon fill="#181818" points="187.79,393.6038,185.2805,384.08,184.6621,389.7029,179.0392,389.0846,187.79,393.6038" style="stroke:#181818;stroke-width:1.0;"/><text fill="#000000" font-family="sans-serif" font-size="13" lengthAdjust="spacing" textLength="116" x="112" y="253.1607">Browser ANONIEM</text></g><!--link employee to userUi--><g id="link_employee_userUi"><path d="M244.3141,205.3719 C234.8241,258.9819 219.7863,344.0157 212.0363,387.7757 " fill="none" id="employee-userUi" style="stroke:#181818;stroke-width:1.0;stroke-dasharray:7.0,7.0;"/><polygon fill="#181818" points="245.36,199.4638,239.8525,207.6287,244.4885,204.3872,247.73,209.0232,245.36,199.4638" style="stroke:#181818;stroke-width:1.0;"/><polygon fill="#181818" points="210.99,393.6838,216.4982,385.5192,211.8619,388.7604,208.6208,384.1241,210.99,393.6838" style="stroke:#181818;stroke-width:1.0;"/><text fill="#000000" font-family="sans-serif" font-size="13" lengthAdjust="spacing" textLength="116" x="239" y="253.1607">Browser ANONIEM</text></g><!--link admin to adminUi--><g id="link_admin_adminUi"><path d="M374.3409,205.3797 C383.4109,258.9897 397.7896,344.0078 405.1896,387.7678 " fill="none" id="admin-adminUi" style="stroke:#181818;stroke-width:1.0;stroke-dasharray:7.0,7.0;"/><polygon fill="#181818" points="373.34,199.4638,370.8974,209.0049,374.1741,204.3937,378.7853,207.6704,373.34,199.4638" style="stroke:#181818;stroke-width:1.0;"/><polygon fill="#181818" points="406.19,393.6838,408.6334,384.1428,405.3563,388.7538,400.7454,385.4767,406.19,393.6838" style="stroke:#181818;stroke-width:1.0;"/><text fill="#000000" font-family="sans-serif" font-size="13" lengthAdjust="spacing" textLength="116" x="384" y="253.1607">Browser JWT token</text></g><!--link userUi to searchAPI--><g id="link_userUi_searchAPI"><path d="M235.39,440.7138 C257.98,457.1938 291.15,478.3638 324,488.3938 C405.98,513.4038 453.69,460.4938 514,521.3938 C553.41,561.1838 583.5768,613.3983 599.9968,644.7583 " fill="none" id="userUi-to-searchAPI" style="stroke:#181818;stroke-width:1.0;stroke-dasharray:7.0,7.0;"/><polygon fill="#181818" points="602.78,650.0738,602.1489,640.2451,600.4607,645.6442,595.0616,643.956,602.78,650.0738" style="stroke:#181818;stroke-width:1.0;"/><text fill="#000000" font-family="sans-serif" font-size="13" lengthAdjust="spacing" textLength="64" x="504" y="509.4607">Opzoeken</text></g><!--link adminUi to objectsAPI--><g id="link_adminUi_objectsAPI"><path d="M411.24,440.8038 C413.9,489.0638 419.7807,595.8228 422.4307,644.0328 " fill="none" id="adminUi-to-objectsAPI" style="stroke:#181818;stroke-width:1.0;stroke-dasharray:7.0,7.0;"/><polygon fill="#181818" points="422.76,650.0238,426.26,640.8178,422.4856,645.0313,418.2721,641.2569,422.76,650.0238" style="stroke:#181818;stroke-width:1.0;"/><text fill="#000000" font-family="sans-serif" font-size="13" lengthAdjust="spacing" textLength="52" x="416" y="509.4607">Opslaan</text></g><!--link objectsAPI to objectsDb--><g id="link_objectsAPI_objectsDb"><path d="M403.42,696.8538 C382.58,720.7238 351.08,760.5938 334,800.6838 C318.33,837.4738 312.9317,878.1331 310.7417,905.3231 " fill="none" id="objectsAPI-to-objectsDb" style="stroke:#181818;stroke-width:1.0;stroke-dasharray:7.0,7.0;"/><polygon fill="#181818" points="310.26,911.3038,314.9696,902.654,310.6614,906.3199,306.9955,902.0117,310.26,911.3038" style="stroke:#181818;stroke-width:1.0;"/><text fill="#000000" font-family="sans-serif" font-size="13" lengthAdjust="spacing" textLength="85" x="335" y="813.7507">Data opslaan</text></g><!--link objectsAPI to drc--><g id="link_objectsAPI_drc"><path d="M424.96,697.0938 C427.04,746.2538 431.7264,856.5791 433.7964,905.5191 " fill="none" id="objectsAPI-to-drc" style="stroke:#181818;stroke-width:1.0;stroke-dasharray:7.0,7.0;"/><polygon fill="#181818" points="434.05,911.5138,437.6661,902.3528,433.8387,906.5182,429.6732,902.6908,434.05,911.5138" style="stroke:#181818;stroke-width:1.0;"/><text fill="#000000" font-family="sans-serif" font-size="13" lengthAdjust="spacing" textLength="137" x="430" y="813.7507">Documenten opslaan</text></g><!--link searchAPI to searchDb--><g id="link_searchAPI_searchDb"><path d="M615.37,697.0638 C615.97,729.6038 611.59,788.9938 575,817.6838 C561.14,828.5538 274.64,819.9038 258,825.6838 C207.8,843.1438 164.9882,880.8368 139.0582,907.0668 " fill="none" id="searchAPI-to-searchDb" style="stroke:#181818;stroke-width:1.0;stroke-dasharray:7.0,7.0;"/><polygon fill="#181818" points="134.84,911.3338,144.0119,907.7454,138.3551,907.778,138.3226,902.1212,134.84,911.3338" style="stroke:#181818;stroke-width:1.0;"/><text fill="#000000" font-family="sans-serif" font-size="13" lengthAdjust="spacing" textLength="64" x="589" y="813.7507">Opzoeken</text></g><!--reverse link searchDb to objectsDb--><g id="link_searchDb_objectsDb"><path d="M188.48,934.8338 C219.09,934.8338 247.91,934.8338 273.26,934.8338 " fill="none" id="searchDb-backto-objectsDb" style="stroke:#181818;stroke-width:1.0;stroke-dasharray:7.0,7.0;"/><polygon fill="#181818" points="182.48,934.8338,191.48,938.8338,187.48,934.8338,191.48,930.8338,182.48,934.8338" style="stroke:#181818;stroke-width:1.0;"/><text fill="#000000" font-family="sans-serif" font-size="13" lengthAdjust="spacing" textLength="55" x="200.25" y="927.9007">Updaten</text></g><!--link service to objectsAPI--><g id="link_service_objectsAPI"><path d="M636.06,440.6338 C629.93,462.8438 617.17,495.9838 593,513.3938 C572.95,527.8238 559.26,508.8038 538,521.3938 C486.24,552.0338 452.8246,610.6938 436.4946,644.7438 " fill="none" id="service-to-objectsAPI" style="stroke:#181818;stroke-width:1.0;stroke-dasharray:7.0,7.0;"/><polygon fill="#181818" points="433.9,650.1538,441.3985,643.7685,436.0621,645.6454,434.1852,640.309,433.9,650.1538" style="stroke:#181818;stroke-width:1.0;"/><text fill="#000000" font-family="sans-serif" font-size="13" lengthAdjust="spacing" textLength="55" x="610" y="509.4607">Updaten</text></g><!--link externalCatalouge to searchAPI--><g id="link_externalCatalouge_searchAPI"><path d="M827.9332,442.9236 C794.3632,455.5336 761.46,471.6638 732,496.3938 C679.55,540.4038 643.5724,608.0091 626.4224,644.6691 " fill="none" id="externalCatalouge-searchAPI" style="stroke:#181818;stroke-width:1.0;stroke-dasharray:7.0,7.0;"/><polygon fill="#181818" points="833.55,440.8138,823.7182,440.234,828.8693,442.572,826.5314,447.7231,833.55,440.8138" style="stroke:#181818;stroke-width:1.0;"/><polygon fill="#181818" points="623.88,650.1038,631.3168,643.6467,625.9987,645.5748,624.0705,640.2568,623.88,650.1038" style="stroke:#181818;stroke-width:1.0;"/><text fill="#000000" font-family="sans-serif" font-size="13" lengthAdjust="spacing" textLength="131" x="733" y="509.4607">Directory uitwisselen</text></g><!--link externalCatalouge to searchAPI--><g id="link_externalCatalouge_searchAPI"><path d="M903.75,440.7138 C898.01,461.4338 887.12,492.1038 869,513.3938 C814.19,577.7538 732.1033,621.9355 675.1933,647.4955 " fill="none" id="externalCatalouge-to-searchAPI" style="stroke:#181818;stroke-width:1.0;stroke-dasharray:7.0,7.0;"/><polygon fill="#181818" points="669.72,649.9538,679.5688,649.9153,674.2811,647.9052,676.2911,642.6176,669.72,649.9538" style="stroke:#181818;stroke-width:1.0;"/><text fill="#000000" font-family="sans-serif" font-size="13" lengthAdjust="spacing" textLength="64" x="881" y="509.4607">Opzoeken</text></g><!--link zaaksysteem to service--><g id="link_zaaksysteem_service"><path d="M605.3654,190.4211 C603.4954,206.0111 601.96,221.2938 601,240.0938 C598.12,296.4638 616.9244,355.0505 629.6144,388.1905 " fill="none" id="zaaksysteem-service" style="stroke:#181818;stroke-width:1.0;stroke-dasharray:7.0,7.0;"/><polygon fill="#181818" points="606.08,184.4638,601.0366,192.9233,605.4845,189.4282,608.9797,193.8761,606.08,184.4638" style="stroke:#181818;stroke-width:1.0;"/><polygon fill="#181818" points="631.76,393.7938,632.2771,383.9585,629.972,389.1244,624.8061,386.8193,631.76,393.7938" style="stroke:#181818;stroke-width:1.0;"/><text fill="#000000" font-family="sans-serif" font-size="13" lengthAdjust="spacing" textLength="103" x="602" y="253.1607">Synchronyseren</text></g><!--link overigebronnen to service--><g id="link_overigebronnen_service"><path d="M734.4979,190.0808 C727.8679,209.4608 719.73,232.4538 710,257.0938 C690.53,306.3938 667.7011,357.6608 653.7811,388.3108 " fill="none" id="overigebronnen-service" style="stroke:#181818;stroke-width:1.0;stroke-dasharray:7.0,7.0;"/><polygon fill="#181818" points="736.44,184.4038,729.7422,191.6245,734.8216,189.1346,737.3115,194.214,736.44,184.4038" style="stroke:#181818;stroke-width:1.0;"/><polygon fill="#181818" points="651.3,393.7738,658.6636,387.2333,653.3676,389.2213,651.3796,383.9252,651.3,393.7738" style="stroke:#181818;stroke-width:1.0;"/><text fill="#000000" font-family="sans-serif" font-size="13" lengthAdjust="spacing" textLength="103" x="716" y="253.1607">Synchronyseren</text></g><text fill="#888888" font-family="sans-serif" font-size="10" lengthAdjust="spacing" textLength="141" x="445.1515" y="1013.266">Open Catalogi | Components</text><!--SRC=[XLJ1Rjim3BtxAmYVqak05Tqb60QqSGTaQvAYMJUWGmwop3XQRCcGvAPfrtyl9TcnawOOa4D0Fl8zyj6omXOuWdc54iRCiaBb8befPL4VHU4VZ5LPAOdIccYDB7EGNYZYXQepY2UIYYNQ-2LYt2eDyLMjSzGnC0ErGTs6fvZX5lMcIM5P5Mg7kA_2DQBEcYpBIY6Zw7LFyusgDRC2Lq1ahayCBr75-8Rb274hsmNXp_MJrzGEKvkbP_HHLeHedIErxmZQcikgAWHtJ2Rk4Lnf9MdmqF-1iOtP6OjOBi6rVku2ZjxoOOYhHzGYnpGK1xwMy4UT-iLvdexeXkrGmsSO2BTOMex0iuDHR-kq4GXLmUnAwJAekaD2m-m64ZGYbq61S-1UEDvk5BzfyCQj6CTG_Ql6urflWYzsieyKNi30BPopCszOuO8NljDY9_cQ9juP4gca2Sr8nwFWUAhLEGmkRoUzFkVKfuUQaNCmzbjRQLRYLf7xlOqyADpGwLAFC8e_v8dCy6aPc9dcQygUsi9HrHtcWcpKuM9K-XUvDQ7qDMf-H-e_mI2ZY_8cTRc59stEiM362WuXrgx3_K_IWuPppmSB-Y0QL-Ptu-QIWfIZWcIw2BYanMMQ1wtEUFWopDHM3hysPp02EkEjIrpEvhF9zJHglyB_8_qnTB3cDZhSzzy_mIho8GeTO4Ye_UhTw_BiROgQIf_l5km0fc1CHbsi3qbI6452UmPr6aU3EuJYTKdl4rdPulOQUegIj2UeOnWMkB87eFkAl4NNn5_lEz5j_jtRGfiw63yH6jr3juDQsAqm1ekJPHzjhVV2T2OqgaRGVNAetKG7pmvq1HzLl040]--></g></svg>