<svg xmlns="http://www.w3.org/2000/svg" xmlns:xlink="http://www.w3.org/1999/xlink" contentStyleType="text/css" height="384px" preserveAspectRatio="none" style="width:385px;height:384px;background:#FFFFFF;" version="1.1" viewBox="0 0 385 384" width="385px" zoomAndPan="magnify"><defs/><g><text fill="#888888" font-family="sans-serif" font-size="10" lengthAdjust="spacing" textLength="31" x="340.5" y="9.2822">Matrix</text><text fill="#000000" font-family="sans-serif" font-size="14" font-weight="bold" lengthAdjust="spacing" textLength="110" x="130.75" y="35.6357">Open Catalogi</text><!--entity adminUI--><g id="elem_adminUI"><rect fill="#F1F1F1" height="46.2969" rx="2.5" ry="2.5" style="stroke:#181818;stroke-width:0.5;" width="155" x="224.5" y="56.9375"/><rect fill="#F1F1F1" height="10" style="stroke:#181818;stroke-width:0.5;" width="15" x="359.5" y="61.9375"/><rect fill="#F1F1F1" height="2" style="stroke:#181818;stroke-width:0.5;" width="4" x="357.5" y="63.9375"/><rect fill="#F1F1F1" height="2" style="stroke:#181818;stroke-width:0.5;" width="4" x="357.5" y="67.9375"/><text fill="#000000" font-family="sans-serif" font-size="14" lengthAdjust="spacing" textLength="115" x="239.5" y="89.9326">Beheer Interface</text></g><!--entity userUi--><g id="elem_userUi"><rect fill="#F1F1F1" height="46.2969" rx="2.5" ry="2.5" style="stroke:#181818;stroke-width:0.5;" width="166" x="7" y="56.9375"/><rect fill="#F1F1F1" height="10" style="stroke:#181818;stroke-width:0.5;" width="15" x="153" y="61.9375"/><rect fill="#F1F1F1" height="2" style="stroke:#181818;stroke-width:0.5;" width="4" x="151" y="63.9375"/><rect fill="#F1F1F1" height="2" style="stroke:#181818;stroke-width:0.5;" width="4" x="151" y="67.9375"/><text fill="#000000" font-family="sans-serif" font-size="14" lengthAdjust="spacing" textLength="126" x="22" y="89.9326">Publicatie platform</text></g><!--entity objectsAPI--><g id="elem_objectsAPI"><rect fill="#F1F1F1" height="46.2969" rx="2.5" ry="2.5" style="stroke:#181818;stroke-width:0.5;" width="141" x="231.5" y="180.2375"/><rect fill="#F1F1F1" height="10" style="stroke:#181818;stroke-width:0.5;" width="15" x="352.5" y="185.2375"/><rect fill="#F1F1F1" height="2" style="stroke:#181818;stroke-width:0.5;" width="4" x="350.5" y="187.2375"/><rect fill="#F1F1F1" height="2" style="stroke:#181818;stroke-width:0.5;" width="4" x="350.5" y="191.2375"/><text fill="#000000" font-family="sans-serif" font-size="14" lengthAdjust="spacing" textLength="101" x="246.5" y="213.2326">Gebruikers API</text></g><!--entity searchAPI--><g id="elem_searchAPI"><rect fill="#F1F1F1" height="46.2969" rx="2.5" ry="2.5" style="stroke:#181818;stroke-width:0.5;" width="119" x="30.5" y="180.2375"/><rect fill="#F1F1F1" height="10" style="stroke:#181818;stroke-width:0.5;" width="15" x="129.5" y="185.2375"/><rect fill="#F1F1F1" height="2" style="stroke:#181818;stroke-width:0.5;" width="4" x="127.5" y="187.2375"/><rect fill="#F1F1F1" height="2" style="stroke:#181818;stroke-width:0.5;" width="4" x="127.5" y="191.2375"/><text fill="#000000" font-family="sans-serif" font-size="14" lengthAdjust="spacing" textLength="79" x="45.5" y="213.2326">Zoeken API</text></g><!--entity elastic--><g id="elem_elastic"><path d="M35.5,313.5275 C35.5,303.5275 90,303.5275 90,303.5275 C90,303.5275 144.5,303.5275 144.5,313.5275 L144.5,338.8244 C144.5,348.8244 90,348.8244 90,348.8244 C90,348.8244 35.5,348.8244 35.5,338.8244 L35.5,313.5275 " fill="#F1F1F1" style="stroke:#181818;stroke-width:0.5;"/><path d="M35.5,313.5275 C35.5,323.5275 90,323.5275 90,323.5275 C90,323.5275 144.5,323.5275 144.5,313.5275 " fill="none" style="stroke:#181818;stroke-width:0.5;"/><text fill="#000000" font-family="sans-serif" font-size="14" lengthAdjust="spacing" textLength="89" x="45.5" y="340.5226">Search index</text></g><!--entity ORC--><g id="elem_ORC"><path d="M235.5,313.5275 C235.5,303.5275 302,303.5275 302,303.5275 C302,303.5275 368.5,303.5275 368.5,313.5275 L368.5,338.8244 C368.5,348.8244 302,348.8244 302,348.8244 C302,348.8244 235.5,348.8244 235.5,338.8244 L235.5,313.5275 " fill="#F1F1F1" style="stroke:#181818;stroke-width:0.5;"/><path d="M235.5,313.5275 C235.5,323.5275 302,323.5275 302,323.5275 C302,323.5275 368.5,323.5275 368.5,313.5275 " fill="none" style="stroke:#181818;stroke-width:0.5;"/><text fill="#000000" font-family="sans-serif" font-size="14" lengthAdjust="spacing" textLength="113" x="245.5" y="340.5226">Objecten opslag</text></g><!--link adminUI to objectsAPI--><g id="link_adminUI_objectsAPI"><path d="M302,103.6175 C302,125.4075 302,152.2275 302,173.9675 " fill="none" id="adminUI-to-objectsAPI" style="stroke:#181818;stroke-width:1.0;stroke-dasharray:7.0,7.0;"/><polygon fill="#181818" points="302,179.9675,306,170.9675,302,174.9675,298,170.9675,302,179.9675" style="stroke:#181818;stroke-width:1.0;"/><text fill="#000000" font-family="sans-serif" font-size="13" lengthAdjust="spacing" textLength="52" x="303" y="146.3044">Opslaan</text></g><!--reverse link userUi to searchAPI--><g id="link_userUi_searchAPI"><path d="M90,109.6175 C90,131.4075 90,158.2275 90,179.9675 " fill="none" id="userUi-backto-searchAPI" style="stroke:#181818;stroke-width:1.0;stroke-dasharray:7.0,7.0;"/><polygon fill="#181818" points="90,103.6175,86,112.6175,90,108.6175,94,112.6175,90,103.6175" style="stroke:#181818;stroke-width:1.0;"/><text fill="#000000" font-family="sans-serif" font-size="13" lengthAdjust="spacing" textLength="64" x="91" y="146.3044">Opzoeken</text></g><!--link objectsAPI to ORC--><g id="link_objectsAPI_ORC"><path d="M302,226.8175 C302,248.6575 302,275.6175 302,297.2675 " fill="none" id="objectsAPI-to-ORC" style="stroke:#181818;stroke-width:1.0;stroke-dasharray:7.0,7.0;"/><polygon fill="#181818" points="302,303.2675,306,294.2675,302,298.2675,298,294.2675,302,303.2675" style="stroke:#181818;stroke-width:1.0;"/><text fill="#000000" font-family="sans-serif" font-size="13" lengthAdjust="spacing" textLength="52" x="303" y="269.5944">Opslaan</text></g><!--reverse link searchAPI to elastic--><g id="link_searchAPI_elastic"><path d="M90,232.8175 C90,254.6575 90,281.6175 90,303.2675 " fill="none" id="searchAPI-backto-elastic" style="stroke:#181818;stroke-width:1.0;stroke-dasharray:7.0,7.0;"/><polygon fill="#181818" points="90,226.8175,86,235.8175,90,231.8175,94,235.8175,90,226.8175" style="stroke:#181818;stroke-width:1.0;"/><text fill="#000000" font-family="sans-serif" font-size="13" lengthAdjust="spacing" textLength="49" x="91" y="269.5944">Zoeken</text></g><!--reverse link elastic to ORC--><g id="link_elastic_ORC"><path d="M150.87,326.1775 C178.48,326.1775 206.16,326.1775 235.26,326.1775 " fill="none" id="elastic-backto-ORC" style="stroke:#181818;stroke-width:1.0;stroke-dasharray:7.0,7.0;"/><polygon fill="#181818" points="144.87,326.1775,153.87,330.1775,149.87,326.1775,153.87,322.1775,144.87,326.1775" style="stroke:#181818;stroke-width:1.0;"/><text fill="#000000" font-family="sans-serif" font-size="13" lengthAdjust="spacing" textLength="55" x="162.5" y="319.2444">Updaten</text></g><text fill="#888888" font-family="sans-serif" font-size="10" lengthAdjust="spacing" textLength="141" x="115.25" y="374.1066">Open Catalogi | Components</text><!--SRC=[NP11ReD034NtFeML0t20gAhKiAXOL4Ijs3Jgme09qmmpQCQeKTN3rmmfH5sE__j_lYr6BE-n7DbXJaBMdmrqtWk7VrFymTmFetVi94BFrCx82qamLm30qu5xve25Ksz73NyWHQHsCAugL3vEjJKDYM4SBKddmv28ANAeZ0BFN8V9N3X4V3eMIVFr9pSIzQdwk-UBzldJ8bDe-ba2QBLZJP5nzvQcQ5pBrzsCiQKefhb3oXIgINwCbiw9AbzpW5jNp5h_vRB7kz_dKoXB3fQs-B0mMucP-4u5OREjIHg_HQoUDUNMSO_BYg0uPfOxKUkgLQEkmEuN]--></g></svg>