<svg xmlns="http://www.w3.org/2000/svg" xmlns:xlink="http://www.w3.org/1999/xlink" contentStyleType="text/css" height="988px" preserveAspectRatio="none" style="width:1153px;height:988px;background:#FFFFFF;" version="1.1" viewBox="0 0 1153 988" width="1153px" zoomAndPan="magnify"><defs/><g><text fill="#888888" font-family="sans-serif" font-size="10" lengthAdjust="spacing" textLength="141" x="998.5128" y="9.2822">Open Catalogi | Components</text><text fill="#000000" font-family="sans-serif" font-size="14" font-weight="bold" lengthAdjust="spacing" textLength="100" x="519.7564" y="35.6357">Components</text><!--cluster Azure--><g id="cluster_Azure"><path d="M259.8803,851.4203 C262.4536,845.5881 268.0026,844.3869 272.276,849.4937 C275.4466,843.2552 279.6988,842.9379 283.7779,848.6169 C286.7994,844.0266 290.0881,844.0329 293.7246,847.8929 C297.2182,841.531 302.5911,841.9812 306.151,847.8255 C309.7291,842.3718 313.2062,842.6508 317.1799,847.3978 C321.875,842.9624 326.9345,844.0417 329.5706,849.8808 C332.3655,843.9197 337.3335,844.3249 340.4029,849.6166 C343.827,844.4306 349.0135,844.0139 351.9642,850.1021 C359.0084,852.2973 361.2788,858.2791 355.8806,863.9845 C362.9069,867.0331 363.431,872.4673 357.2472,876.9123 C364.8605,879.372 366.1421,886.5668 360.362,891.8241 C364.6343,896.3857 364.962,901.7044 357.9077,903.979 C364.3682,909.8179 363.738,915.189 355.6762,918.8486 C360.5022,923.972 360.1832,930.3006 352.6084,932.6719 C349.4414,938.2541 343.7871,939.8475 339.7194,933.6581 C335.6411,938.1878 332.4977,938.389 329.633,932.4849 C326.7733,938.606 322.4937,938.6017 318.0979,934.163 C314.9677,940.6727 310.905,940.3006 306.5505,935.4022 C302.3009,941.485 296.8573,939.1344 294.3138,933.6044 C291.5732,937.9031 286.3067,938.0595 283.7729,933.3621 C279.3647,939.1921 274.4446,938.7424 271.8298,931.6984 C268.0728,938.4436 263.923,938.8718 259.4346,932.3834 C253.4359,928.5009 252.5621,922.3444 259.3734,918.4058 C253.1959,913.8458 252.7454,909.3133 259.717,905.0927 C252.7924,902.0379 252.0749,895.7 259.0025,891.8953 C252.2726,887.8829 251.4222,882.4722 258.1532,877.6569 C251.8216,873.7035 251.1027,866.9161 258.6596,863.4581 C253.1322,859.5305 254.3547,854.227 259.8803,851.4203 " fill="none" style="stroke:#181818;stroke-width:1.0;"/><text fill="#000000" font-family="sans-serif" font-size="14" font-weight="bold" lengthAdjust="spacing" textLength="47" x="281.38" y="867.6789">Azure</text></g><!--cluster Internet--><g id="cluster_Internet"><path d="M227.6418,99.5429 C232.1817,90.0603 241.3416,89.0722 247.6883,97.5232 C253.2759,87.3369 260.8441,88.6326 267.4187,96.4411 C273.287,88.2948 281.4169,87.0446 286.9648,96.791 C294.4852,86.8589 301.4628,88.9345 308.1418,97.7419 C312.4252,87.631 319.8851,87.0838 326.3143,95.6545 C333.1576,85.3314 339.1701,85.7259 346.2004,95.4692 C352.1966,87.8298 359.0769,87.443 363.6687,96.9038 C370.2397,88.4097 376.0977,86.5292 382.9664,96.5943 C389.3328,88.0392 398.5318,88.0415 403.7146,97.926 C408.6586,87.5754 415.1091,86.8146 422.2056,95.8756 C429.6244,87.9855 435.8394,87.5771 441.0827,98.1052 C445.1492,86.8655 455.2105,87.1968 461.6666,95.6013 C468.8298,87.3413 476.813,88.4216 482.2152,97.6683 C491.8652,87.7383 500.9709,90.8344 505.88,102.7938 C507.0606,101.5705 508.3598,102.3251 508.6817,103.7146 C521.6339,112.6677 519.7525,122.0878 507.2989,129.6885 C519.4462,136.6893 518.2813,146.8005 508.3275,154.7099 C517.892,162.2422 517.972,170.4855 507.2208,177.0096 C520.4002,190.9175 514.431,201.1513 498.88,207.0938 C500.9879,207.9596 501.2936,209.0756 499.7805,210.8172 C494.7743,221.3952 486.2252,219.6313 480.0565,212.082 C475.767,220.1594 467.5822,220.7877 462.7914,212.6146 C456.2466,222.7874 446.5856,223.2015 441.043,211.613 C436.2288,220.3607 430.3407,222.6495 423.3388,213.8161 C419.443,225.866 408.9182,225.5457 401.7633,217.2769 C396.0645,224.04 391.0262,225.7988 385.5028,217.0926 C380.2592,226.3237 373.4018,228.4691 366.6138,218.6215 C360.0503,230.7218 351.5424,228.7567 344.7242,218.8751 C337.89,226.5544 329.9899,225.2468 327.1173,214.9868 C320.5318,224.4224 313.7288,224.0133 307.9097,214.2212 C301.3478,223.0728 293.761,224.3666 286.6807,214.8193 C279.5595,224.8237 271.748,224.6989 265.8195,213.6381 C259.3542,221.9135 254.0258,219.9876 249.183,211.9802 C233.4152,221.5825 225.0944,216.5083 219.88,200.0938 C220.3141,200.074 220.4709,200.384 220.2843,200.7478 C208.9314,195.9294 205.5063,188.2903 215.1645,178.6121 C203.3283,173.9503 202.8093,163.0657 211.1683,154.9878 C198.6881,144.6922 201.1054,134.2008 216.1011,129.151 C201.7415,115.1861 209.9783,99.6571 226.88,95.7938 C229.1272,96.4947 228.9878,98.112 227.6418,99.5429 " fill="none" style="stroke:#181818;stroke-width:1.0;"/><text fill="#000000" font-family="sans-serif" font-size="14" font-weight="bold" lengthAdjust="spacing" textLength="63" x="331.38" y="113.7889">Internet</text></g><!--cluster Externe Applicaties--><g id="cluster_Externe Applicaties"><path d="M836.028,68.7386 C841.1456,59.3796 849.7083,61.2846 854.2197,69.3708 C861.4404,58.2458 870.7586,57.4973 877.7019,69.6507 C883.813,60.543 890.8731,60.1261 898.0253,68.4359 C903.3899,59.3204 912.8012,60.691 917.2901,69.3833 C923.0913,59.8241 931.9971,56.6288 939.0071,68.1372 C944.5853,59.036 950.5952,61.0347 956.2223,68.0849 C962.9792,57.1813 972.2027,56.8851 979.6328,67.3473 C985.7863,58.107 991.6899,58.3328 999.006,66.0163 C1005.1953,57.2605 1011.3586,57.9568 1016.5959,66.9592 C1023.0911,56.3536 1033.5433,55.9375 1038.996,67.9898 C1044.8569,57.4855 1053.5227,57.8239 1060.4111,66.8639 C1067.7209,57.3797 1073.5045,60.0082 1079.5446,68.2355 C1087.3411,60.2282 1093.2609,60.7272 1098.2236,71.1132 C1109.3878,57.9029 1117.6018,59.8601 1124.88,74.7938 C1126.0793,74.5882 1126.873,74.976 1126.6203,76.3717 C1137.5266,81.9316 1140.925,88.7208 1131.2736,98.5868 C1141.7219,105.4866 1142.1169,115.4973 1131.738,122.7967 C1140.9683,126.7528 1145.3935,133.9135 1136.1815,142.1122 C1146.5128,151.6086 1144.9168,163.2453 1130.3437,166.8691 C1141.98,173.7242 1142.0807,180.572 1131.2767,188.3996 C1141.5877,202.81 1134.6804,214.7981 1117.88,216.0938 C1118.8889,215.4812 1119.6276,216.1716 1119.6489,217.175 C1113.3093,225.7161 1107.3633,227.5256 1100.0333,218.2663 C1094.8094,227.4286 1088.6743,229.162 1081.1459,220.7419 C1073.1626,231.5389 1065.7524,233.4089 1057.1351,221.4096 C1051.029,231.4034 1044.8862,231.5908 1037.7492,222.4542 C1034.593,233.2752 1027.1746,234.8426 1019.8275,226.3413 C1013.6491,237.3132 1005.6978,237.0315 999.377,226.4766 C992.9952,238.9544 984.0303,236.8812 976.2409,228.0015 C970.6269,234.3734 963.0605,235.0981 959.2762,225.9956 C951.9851,235.8128 943.4409,234.3599 937.793,224.2261 C930.5121,233.3506 924.0642,236.0684 916.399,224.6258 C910.6326,234.205 903.4713,233.7516 898.1053,224.242 C889.4281,232.67 881.4083,230.1572 876.5278,219.8657 C871.2694,230.3766 864.0988,230.2601 857.829,220.8133 C844.039,230.8022 829.4957,228.614 826.88,209.0938 C828.2936,208.3335 829.4889,208.9199 829.4011,210.6275 C818.9312,205.0978 814.8041,195.9182 826.0537,187.2752 C815.0494,182.8773 815.1549,171.9364 823.3793,165.2081 C812.3633,161.4321 809.8272,152.2602 818.3681,143.8875 C809.4175,134.7256 810.0096,127.351 821.5309,121.0207 C812.6363,111.4752 815.0713,104.4624 826.0684,99.0193 C812.5715,86.4793 818.9643,73.2259 833.88,67.7938 C835.0383,67.1197 835.7155,67.49 836.028,68.7386 " fill="none" style="stroke:#181818;stroke-width:1.0;"/><text fill="#000000" font-family="sans-serif" font-size="14" font-weight="bold" lengthAdjust="spacing" textLength="152" x="899.88" y="85.7889">Externe Applicaties</text></g><!--cluster Bronnen--><g id="cluster_Bronnen"><path d="M845.38,102.7938 L913.38,102.7938 A3.75,3.75 0 0 1 915.88,105.2938 L922.88,125.0906 L1106.38,125.0906 A2.5,2.5 0 0 1 1108.88,127.5906 L1108.88,197.5938 A2.5,2.5 0 0 1 1106.38,200.0938 L845.38,200.0938 A2.5,2.5 0 0 1 842.88,197.5938 L842.88,105.2938 A2.5,2.5 0 0 1 845.38,102.7938 " fill="none" style="stroke:#000000;stroke-width:1.5;"/><line style="stroke:#000000;stroke-width:1.5;" x1="842.88" x2="922.88" y1="125.0906" y2="125.0906"/><text fill="#000000" font-family="sans-serif" font-size="14" font-weight="bold" lengthAdjust="spacing" textLength="67" x="846.88" y="117.7889">Bronnen</text></g><!--cluster Kubernetes--><g id="cluster_Kubernetes"><path d="M369.4593,287.9883 C382.0383,269.1139 397.509,264.6523 413.0439,284.6762 C426.5669,259.494 449.8378,254.4001 467.3985,280.3873 C484.1951,255.1689 499.3554,258.8071 516.1733,280.3651 C532.6419,260.995 549.403,257.1691 562.9608,283.3547 C573.9003,263.2561 589.2849,258.2415 605.1366,278.1802 C619.6848,251.3018 643.2861,247.5307 660.3381,275.6678 C675.3884,255.6888 690.7193,250.6516 707.0442,274.3034 C722.0139,249.7775 742.1472,252.8387 756.0285,275.4348 C772.737,252.207 790.6845,258.1125 801.904,280.9064 C815.3913,254.6857 835.1178,256.8702 849.4089,280.1348 C862.8114,257.2891 884.7525,261.0855 896.4125,282.0062 C908.6785,256.604 932.4878,255.5775 945.7192,281.0709 C960.877,258.3894 983.1571,258.2654 998.3483,281.0322 C1017.0067,256.2577 1036.4334,262.2824 1047.88,288.0938 C1052.1412,288.8317 1053.9774,291.5006 1051.7942,295.5994 C1075.6571,307.301 1073.7631,322.3512 1057.2101,339.0863 C1071.7782,352.0673 1070.7236,369.1499 1052.2554,377.9153 C1072.3686,388.4108 1076.3371,408.1678 1058.0767,423.5576 C1079.2747,441.5633 1076.6984,456.4979 1056.0161,472.7493 C1080.4032,483.5249 1078.1332,502.6281 1061.0302,518.0009 C1079.1974,534.9647 1080.4827,551.6689 1055.0953,562.8719 C1076.0209,571.89 1076.6987,591.8143 1060.5503,605.5689 C1074.6138,620.262 1074.7308,640.5669 1051.2669,646.8133 C1079.7698,657.6774 1082.5917,682.123 1056.0405,698.1102 C1068.9705,719.5353 1068.3433,734.3127 1040.88,741.6838 C1046.5666,739.6324 1049.2558,742.0558 1049.2615,747.7953 C1031.7862,771.7919 1009.7367,776.7603 993.0877,746.933 C981.1506,767.6442 958.1796,771.7487 946.094,747.0868 C932.417,767.0738 916.2282,768.9814 901.8066,747.8895 C889.0309,774.8009 865.6874,776.5072 848.2992,752.7616 C833.0177,773.1648 817.4094,772.7395 804.6343,750.2123 C788.3642,777.7061 769.3963,775.0252 752.3441,751.0063 C742.2156,774.3249 725.4674,775.4451 710.1883,756.0948 C691.9825,784.5958 668.931,776.5977 654.2489,752.3574 C637.8675,771.3621 624.583,774.0019 610.8342,749.7172 C595.4642,776.7507 578.7665,778.1395 559.1232,754.0387 C544.2996,773.5759 523.0766,768.5786 513.779,747.8204 C498.7024,771.0637 477.5624,769.4217 463.167,747.0644 C447.9764,769.7544 431.9192,772.0552 415.4051,748.4293 C393.3633,769.5239 364.5968,767.8593 354.88,734.6838 C358.0401,736.0722 358.3567,738.6668 355.5385,740.7086 C336.3874,721.5035 337.5723,705.6953 360.577,690.741 C335.5377,680.8398 336.3609,663.1675 354.9656,647.5906 C331.9092,634.9609 334.1079,618.9003 352.7941,604.1824 C329.3558,590.156 335.0828,567.2226 356.5448,556.7464 C336.7967,548.4981 336.6104,534.9327 348.9112,520.0226 C326.6321,503.6686 326.7235,483.9503 353.9495,472.8881 C332.7591,459.8325 332.995,437.5662 356.906,427.4449 C332.8806,411.667 337.1147,392.9087 357.4616,377.6256 C340.1517,363.6343 337.2216,351.2425 358.7119,338.4909 C335.0257,322.5265 331.8597,294.0938 361.88,281.0938 C367.3287,279.1289 370.7579,282.5357 369.4593,287.9883 " fill="none" style="stroke:#181818;stroke-width:1.0;"/><text fill="#000000" font-family="sans-serif" font-size="14" font-weight="bold" lengthAdjust="spacing" textLength="93" x="654.88" y="299.0889">Kubernetes</text></g><!--cluster Layer 5 (interaction)--><g id="cluster_Layer 5 (interaction)"><path d="M373.38,316.0938 L535.38,316.0938 A3.75,3.75 0 0 1 537.88,318.5938 L544.88,338.3906 L764.38,338.3906 A2.5,2.5 0 0 1 766.88,340.8906 L766.88,477.8938 A2.5,2.5 0 0 1 764.38,480.3938 L373.38,480.3938 A2.5,2.5 0 0 1 370.88,477.8938 L370.88,318.5938 A2.5,2.5 0 0 1 373.38,316.0938 " fill="none" style="stroke:#000000;stroke-width:1.5;"/><line style="stroke:#000000;stroke-width:1.5;" x1="370.88" x2="544.88" y1="338.3906" y2="338.3906"/><text fill="#000000" font-family="sans-serif" font-size="14" font-weight="bold" lengthAdjust="spacing" textLength="161" x="374.88" y="331.0889">Layer 5 (interaction)</text></g><!--cluster React NL Design--><g id="cluster_React NL Design"><path d="M397.38,359.0938 L526.38,359.0938 A3.75,3.75 0 0 1 528.88,361.5938 L535.88,381.3906 L536.38,381.3906 A2.5,2.5 0 0 1 538.88,383.8906 L538.88,453.8938 A2.5,2.5 0 0 1 536.38,456.3938 L397.38,456.3938 A2.5,2.5 0 0 1 394.88,453.8938 L394.88,361.5938 A2.5,2.5 0 0 1 397.38,359.0938 " fill="none" style="stroke:#000000;stroke-width:1.5;"/><line style="stroke:#000000;stroke-width:1.5;" x1="394.88" x2="535.88" y1="381.3906" y2="381.3906"/><text fill="#000000" font-family="sans-serif" font-size="14" font-weight="bold" lengthAdjust="spacing" textLength="128" x="398.88" y="374.0889">React NL Design</text></g><!--cluster Vue NL Design--><g id="cluster_Vue NL Design"><path d="M565.38,359.0938 L681.38,359.0938 A3.75,3.75 0 0 1 683.88,361.5938 L690.88,381.3906 L740.38,381.3906 A2.5,2.5 0 0 1 742.88,383.8906 L742.88,453.8938 A2.5,2.5 0 0 1 740.38,456.3938 L565.38,456.3938 A2.5,2.5 0 0 1 562.88,453.8938 L562.88,361.5938 A2.5,2.5 0 0 1 565.38,359.0938 " fill="none" style="stroke:#000000;stroke-width:1.5;"/><line style="stroke:#000000;stroke-width:1.5;" x1="562.88" x2="690.88" y1="381.3906" y2="381.3906"/><text fill="#000000" font-family="sans-serif" font-size="14" font-weight="bold" lengthAdjust="spacing" textLength="115" x="566.88" y="374.0889">Vue NL Design</text></g><!--cluster layer4--><g id="cluster_layer4"><path d="M799.38,359.0938 L918.38,359.0938 A3.75,3.75 0 0 1 920.88,361.5938 L927.88,381.3906 L988.38,381.3906 A2.5,2.5 0 0 1 990.88,383.8906 L990.88,453.8938 A2.5,2.5 0 0 1 988.38,456.3938 L799.38,456.3938 A2.5,2.5 0 0 1 796.88,453.8938 L796.88,361.5938 A2.5,2.5 0 0 1 799.38,359.0938 " fill="none" style="stroke:#000000;stroke-width:1.5;"/><line style="stroke:#000000;stroke-width:1.5;" x1="796.88" x2="927.88" y1="381.3906" y2="381.3906"/><text fill="#000000" font-family="sans-serif" font-size="14" font-weight="bold" lengthAdjust="spacing" textLength="118" x="800.88" y="374.0889">Layer 4 (Logic)</text></g><!--cluster layer2--><g id="cluster_layer2"><path d="M381.38,537.3938 L483.38,537.3938 A3.75,3.75 0 0 1 485.88,539.8938 L492.88,559.6906 L735.38,559.6906 A2.5,2.5 0 0 1 737.88,562.1906 L737.88,715.1838 A2.5,2.5 0 0 1 735.38,717.6838 L381.38,717.6838 A2.5,2.5 0 0 1 378.88,715.1838 L378.88,539.8938 A2.5,2.5 0 0 1 381.38,537.3938 " fill="none" style="stroke:#000000;stroke-width:1.5;"/><line style="stroke:#000000;stroke-width:1.5;" x1="378.88" x2="492.88" y1="559.6906" y2="559.6906"/><text fill="#000000" font-family="sans-serif" font-size="14" font-weight="bold" lengthAdjust="spacing" textLength="101" x="382.88" y="552.3889">Layer 2 (API)</text></g><!--cluster Open Catalogi App--><g id="cluster_Open Catalogi App"><path d="M421.38,588.3938 L568.38,588.3938 A3.75,3.75 0 0 1 570.88,590.8938 L577.88,610.6906 L703.38,610.6906 A2.5,2.5 0 0 1 705.88,613.1906 L705.88,683.1838 A2.5,2.5 0 0 1 703.38,685.6838 L421.38,685.6838 A2.5,2.5 0 0 1 418.88,683.1838 L418.88,590.8938 A2.5,2.5 0 0 1 421.38,588.3938 " fill="none" style="stroke:#000000;stroke-width:1.5;"/><line style="stroke:#000000;stroke-width:1.5;" x1="418.88" x2="577.88" y1="610.6906" y2="610.6906"/><text fill="#000000" font-family="sans-serif" font-size="14" font-weight="bold" lengthAdjust="spacing" textLength="146" x="422.88" y="603.3889">Open Catalogi App</text></g><!--cluster Layer 1 (data)--><g id="cluster_Layer 1 (data)"><path d="M385.38,798.6838 L496.38,798.6838 A3.75,3.75 0 0 1 498.88,801.1838 L505.88,820.9806 L735.38,820.9806 A2.5,2.5 0 0 1 737.88,823.4806 L737.88,960.4838 A2.5,2.5 0 0 1 735.38,962.9838 L385.38,962.9838 A2.5,2.5 0 0 1 382.88,960.4838 L382.88,801.1838 A2.5,2.5 0 0 1 385.38,798.6838 " fill="none" style="stroke:#000000;stroke-width:1.5;"/><line style="stroke:#000000;stroke-width:1.5;" x1="382.88" x2="505.88" y1="820.9806" y2="820.9806"/><text fill="#000000" font-family="sans-serif" font-size="14" font-weight="bold" lengthAdjust="spacing" textLength="110" x="386.88" y="813.6789">Layer 1 (data)</text></g><!--cluster Search index--><g id="cluster_Search index"><path d="M409.38,841.6838 L513.38,841.6838 A3.75,3.75 0 0 1 515.88,844.1838 L522.88,863.9806 L572.38,863.9806 A2.5,2.5 0 0 1 574.88,866.4806 L574.88,936.4838 A2.5,2.5 0 0 1 572.38,938.9838 L409.38,938.9838 A2.5,2.5 0 0 1 406.88,936.4838 L406.88,844.1838 A2.5,2.5 0 0 1 409.38,841.6838 " fill="none" style="stroke:#000000;stroke-width:1.5;"/><line style="stroke:#000000;stroke-width:1.5;" x1="406.88" x2="522.88" y1="863.9806" y2="863.9806"/><text fill="#000000" font-family="sans-serif" font-size="14" font-weight="bold" lengthAdjust="spacing" textLength="103" x="410.88" y="856.6789">Search index</text></g><!--cluster Object Store--><g id="cluster_Object Store"><path d="M601.38,841.6838 L701.38,841.6838 A3.75,3.75 0 0 1 703.88,844.1838 L710.88,863.9806 L711.38,863.9806 A2.5,2.5 0 0 1 713.88,866.4806 L713.88,936.4838 A2.5,2.5 0 0 1 711.38,938.9838 L601.38,938.9838 A2.5,2.5 0 0 1 598.88,936.4838 L598.88,844.1838 A2.5,2.5 0 0 1 601.38,841.6838 " fill="none" style="stroke:#000000;stroke-width:1.5;"/><line style="stroke:#000000;stroke-width:1.5;" x1="598.88" x2="710.88" y1="863.9806" y2="863.9806"/><text fill="#000000" font-family="sans-serif" font-size="14" font-weight="bold" lengthAdjust="spacing" textLength="99" x="602.88" y="856.6789">Object Store</text></g><!--entity identity--><g id="elem_identity"><rect fill="#F1F1F1" height="46.2969" rx="2.5" ry="2.5" style="stroke:#181818;stroke-width:0.5;" width="77" x="266.38" y="876.6838"/><rect fill="#F1F1F1" height="10" style="stroke:#181818;stroke-width:0.5;" width="15" x="323.38" y="881.6838"/><rect fill="#F1F1F1" height="2" style="stroke:#181818;stroke-width:0.5;" width="4" x="321.38" y="883.6838"/><rect fill="#F1F1F1" height="2" style="stroke:#181818;stroke-width:0.5;" width="4" x="321.38" y="887.6838"/><text fill="#000000" font-family="sans-serif" font-size="14" lengthAdjust="spacing" textLength="37" x="281.38" y="909.6789">ADFS</text></g><!--entity user--><g id="elem_user"><ellipse cx="404.88" cy="131.2938" fill="#F1F1F1" rx="8" ry="8" style="stroke:#181818;stroke-width:0.5;"/><path d="M404.88,139.2938 L404.88,166.2938 M391.88,147.2938 L417.88,147.2938 M404.88,166.2938 L391.88,181.2938 M404.88,166.2938 L417.88,181.2938 " fill="none" style="stroke:#181818;stroke-width:0.5;"/><text fill="#000000" font-family="sans-serif" font-size="14" lengthAdjust="spacing" textLength="32" x="388.88" y="195.7889">User</text></g><!--entity adminUser--><g id="elem_adminUser"><ellipse cx="476.88" cy="131.2938" fill="#F1F1F1" rx="8" ry="8" style="stroke:#181818;stroke-width:0.5;"/><path d="M476.88,139.2938 L476.88,166.2938 M463.88,147.2938 L489.88,147.2938 M476.88,166.2938 L463.88,181.2938 M476.88,166.2938 L489.88,181.2938 " fill="none" style="stroke:#181818;stroke-width:0.5;"/><text fill="#000000" font-family="sans-serif" font-size="14" lengthAdjust="spacing" textLength="43" x="455.38" y="195.7889">Admin</text></g><!--entity externalCatalouge--><g id="elem_externalCatalouge"><ellipse cx="290.88" cy="131.2938" fill="#F1F1F1" rx="8" ry="8" style="stroke:#181818;stroke-width:0.5;"/><path d="M290.88,139.2938 L290.88,166.2938 M277.88,147.2938 L303.88,147.2938 M290.88,166.2938 L277.88,181.2938 M290.88,166.2938 L303.88,181.2938 " fill="none" style="stroke:#181818;stroke-width:0.5;"/><text fill="#000000" font-family="sans-serif" font-size="14" lengthAdjust="spacing" textLength="126" x="227.88" y="195.7889">Externe Catalogus</text></g><!--entity ZGW--><g id="elem_ZGW"><rect fill="#F1F1F1" height="46.2969" rx="2.5" ry="2.5" style="stroke:#181818;stroke-width:0.5;" width="133" x="960.38" y="137.7938"/><rect fill="#F1F1F1" height="10" style="stroke:#181818;stroke-width:0.5;" width="15" x="1073.38" y="142.7938"/><rect fill="#F1F1F1" height="2" style="stroke:#181818;stroke-width:0.5;" width="4" x="1071.38" y="144.7938"/><rect fill="#F1F1F1" height="2" style="stroke:#181818;stroke-width:0.5;" width="4" x="1071.38" y="148.7938"/><text fill="#000000" font-family="sans-serif" font-size="14" lengthAdjust="spacing" textLength="93" x="975.38" y="170.7889">Zaaksysteem</text></g><!--entity ETC--><g id="elem_ETC"><rect fill="#F1F1F1" height="46.2969" rx="2.5" ry="2.5" style="stroke:#181818;stroke-width:0.5;" width="66" x="858.88" y="137.7938"/><rect fill="#F1F1F1" height="10" style="stroke:#181818;stroke-width:0.5;" width="15" x="904.88" y="142.7938"/><rect fill="#F1F1F1" height="2" style="stroke:#181818;stroke-width:0.5;" width="4" x="902.88" y="144.7938"/><rect fill="#F1F1F1" height="2" style="stroke:#181818;stroke-width:0.5;" width="4" x="902.88" y="148.7938"/><text fill="#000000" font-family="sans-serif" font-size="14" lengthAdjust="spacing" textLength="26" x="873.88" y="170.7889">Etc.</text></g><!--entity ui--><g id="elem_ui"><rect fill="#F1F1F1" height="46.2969" rx="2.5" ry="2.5" style="stroke:#181818;stroke-width:0.5;" width="105" x="410.38" y="394.0938"/><rect fill="#F1F1F1" height="10" style="stroke:#181818;stroke-width:0.5;" width="15" x="495.38" y="399.0938"/><rect fill="#F1F1F1" height="2" style="stroke:#181818;stroke-width:0.5;" width="4" x="493.38" y="401.0938"/><rect fill="#F1F1F1" height="2" style="stroke:#181818;stroke-width:0.5;" width="4" x="493.38" y="405.0938"/><text fill="#000000" font-family="sans-serif" font-size="14" lengthAdjust="spacing" textLength="65" x="425.38" y="427.0889">Search UI</text></g><!--entity admin--><g id="elem_admin"><rect fill="#F1F1F1" height="46.2969" rx="2.5" ry="2.5" style="stroke:#181818;stroke-width:0.5;" width="147" x="579.38" y="394.0938"/><rect fill="#F1F1F1" height="10" style="stroke:#181818;stroke-width:0.5;" width="15" x="706.38" y="399.0938"/><rect fill="#F1F1F1" height="2" style="stroke:#181818;stroke-width:0.5;" width="4" x="704.38" y="401.0938"/><rect fill="#F1F1F1" height="2" style="stroke:#181818;stroke-width:0.5;" width="4" x="704.38" y="405.0938"/><text fill="#000000" font-family="sans-serif" font-size="14" lengthAdjust="spacing" textLength="107" x="594.38" y="427.0889">Admin Interface</text></g><!--entity service--><g id="elem_service"><rect fill="#F1F1F1" height="46.2969" rx="2.5" ry="2.5" style="stroke:#181818;stroke-width:0.5;" width="162" x="812.88" y="394.0938"/><rect fill="#F1F1F1" height="10" style="stroke:#181818;stroke-width:0.5;" width="15" x="954.88" y="399.0938"/><rect fill="#F1F1F1" height="2" style="stroke:#181818;stroke-width:0.5;" width="4" x="952.88" y="401.0938"/><rect fill="#F1F1F1" height="2" style="stroke:#181818;stroke-width:0.5;" width="4" x="952.88" y="405.0938"/><text fill="#000000" font-family="sans-serif" font-size="14" lengthAdjust="spacing" textLength="122" x="827.88" y="427.0889">Synchronysations</text></g><!--entity SearchAPI--><g id="elem_SearchAPI"><rect fill="#F1F1F1" height="46.2969" rx="2.5" ry="2.5" style="stroke:#181818;stroke-width:0.5;" width="113" x="434.38" y="623.3938"/><rect fill="#F1F1F1" height="10" style="stroke:#181818;stroke-width:0.5;" width="15" x="527.38" y="628.3938"/><rect fill="#F1F1F1" height="2" style="stroke:#181818;stroke-width:0.5;" width="4" x="525.38" y="630.3938"/><rect fill="#F1F1F1" height="2" style="stroke:#181818;stroke-width:0.5;" width="4" x="525.38" y="634.3938"/><text fill="#000000" font-family="sans-serif" font-size="14" lengthAdjust="spacing" textLength="73" x="449.38" y="656.3889">Search API</text></g><!--entity ObjectsAPI--><g id="elem_ObjectsAPI"><rect fill="#F1F1F1" height="46.2969" rx="2.5" ry="2.5" style="stroke:#181818;stroke-width:0.5;" width="108" x="581.88" y="623.3938"/><rect fill="#F1F1F1" height="10" style="stroke:#181818;stroke-width:0.5;" width="15" x="669.88" y="628.3938"/><rect fill="#F1F1F1" height="2" style="stroke:#181818;stroke-width:0.5;" width="4" x="667.88" y="630.3938"/><rect fill="#F1F1F1" height="2" style="stroke:#181818;stroke-width:0.5;" width="4" x="667.88" y="634.3938"/><text fill="#000000" font-family="sans-serif" font-size="14" lengthAdjust="spacing" textLength="68" x="596.88" y="656.3889">Admin API</text></g><!--entity search--><g id="elem_search"><rect fill="#F1F1F1" height="46.2969" rx="2.5" ry="2.5" style="stroke:#181818;stroke-width:0.5;" width="136" x="422.88" y="876.6838"/><rect fill="#F1F1F1" height="10" style="stroke:#181818;stroke-width:0.5;" width="15" x="538.88" y="881.6838"/><rect fill="#F1F1F1" height="2" style="stroke:#181818;stroke-width:0.5;" width="4" x="536.88" y="883.6838"/><rect fill="#F1F1F1" height="2" style="stroke:#181818;stroke-width:0.5;" width="4" x="536.88" y="887.6838"/><text fill="#000000" font-family="sans-serif" font-size="14" lengthAdjust="spacing" textLength="96" x="437.88" y="909.6789">Elastic Search</text></g><!--entity db--><g id="elem_db"><rect fill="#F1F1F1" height="46.2969" rx="2.5" ry="2.5" style="stroke:#181818;stroke-width:0.5;" width="71" x="614.38" y="876.6838"/><rect fill="#F1F1F1" height="10" style="stroke:#181818;stroke-width:0.5;" width="15" x="665.38" y="881.6838"/><rect fill="#F1F1F1" height="2" style="stroke:#181818;stroke-width:0.5;" width="4" x="663.38" y="883.6838"/><rect fill="#F1F1F1" height="2" style="stroke:#181818;stroke-width:0.5;" width="4" x="663.38" y="887.6838"/><text fill="#000000" font-family="sans-serif" font-size="14" lengthAdjust="spacing" textLength="31" x="629.38" y="909.6789">ORC</text></g><!--link externalCatalouge to SearchAPI--><g id="link_externalCatalouge_SearchAPI"><path d="M221.6727,174.3631 C170.1827,186.9931 106.59,211.8538 72.88,265.0938 C19.79,348.9438 6,415.0638 72.88,488.3938 C99.8,517.9038 398.05,498.6238 430.88,521.3938 C465.3,545.2638 479.4165,588.6526 485.7165,617.4226 " fill="none" id="externalCatalouge-SearchAPI" style="stroke:#181818;stroke-width:1.0;stroke-dasharray:7.0,7.0;"/><polygon fill="#181818" points="227.5,172.9338,217.8062,171.193,222.644,174.1249,219.712,178.9627,227.5,172.9338" style="stroke:#181818;stroke-width:1.0;"/><polygon fill="#181818" points="487,623.2838,488.9822,613.6364,485.9305,618.3995,481.1674,615.3477,487,623.2838" style="stroke:#181818;stroke-width:1.0;"/><text fill="#000000" font-family="sans-serif" font-size="13" lengthAdjust="spacing" textLength="320" x="73.88" y="421.8107">Zoeken en Directory synchronysatie via API (PKIO)</text></g><!--link user to ui--><g id="link_user_ui"><path d="M402.9087,205.2989 C402.3887,218.2189 402.13,226.7938 401.88,240.0938 C401.73,247.6438 400.5,249.6638 401.88,257.0938 C411.3,308.0138 433.6903,358.3055 448.5903,388.4355 " fill="none" id="user-ui" style="stroke:#181818;stroke-width:1.0;stroke-dasharray:7.0,7.0;"/><polygon fill="#181818" points="403.15,199.3038,398.7913,208.1356,402.9489,204.2997,406.7848,208.4573,403.15,199.3038" style="stroke:#181818;stroke-width:1.0;"/><polygon fill="#181818" points="451.25,393.8138,450.846,383.9732,449.0336,389.3319,443.6749,387.5195,451.25,393.8138" style="stroke:#181818;stroke-width:1.0;"/><text fill="#000000" font-family="sans-serif" font-size="13" lengthAdjust="spacing" textLength="200" x="402.88" y="253.1607">Zoeken via browser (ANONIEM)</text></g><!--link adminUser to admin--><g id="link_adminUser_admin"><path d="M504.2326,170.9836 C533.5826,181.5936 579.83,202.5338 607.88,240.0938 C642.73,286.7538 650.43,351.6608 652.17,387.6208 " fill="none" id="adminUser-admin" style="stroke:#181818;stroke-width:1.0;stroke-dasharray:7.0,7.0;"/><polygon fill="#181818" points="498.59,168.9438,505.6941,175.7652,503.2922,170.6436,508.4138,168.2417,498.59,168.9438" style="stroke:#181818;stroke-width:1.0;"/><polygon fill="#181818" points="652.46,393.6138,656.0204,384.431,652.2183,388.6196,648.0297,384.8176,652.46,393.6138" style="stroke:#181818;stroke-width:1.0;"/><text fill="#000000" font-family="sans-serif" font-size="13" lengthAdjust="spacing" textLength="205" x="618.88" y="253.1607">Beheren via browser (JWT Claim)</text></g><!--link ui to SearchAPI--><g id="link_ui_SearchAPI"><path d="M439.9672,445.6161 C425.9272,464.8061 414.46,488.3238 423.88,513.3938 C425.54,517.8138 428.27,517.4538 430.88,521.3938 C452.94,554.7338 469.4929,591.8445 479.9029,617.4845 " fill="none" id="ui-SearchAPI" style="stroke:#181818;stroke-width:1.0;stroke-dasharray:7.0,7.0;"/><polygon fill="#181818" points="443.51,440.7738,434.9675,445.6754,440.5577,444.8091,441.424,450.3992,443.51,440.7738" style="stroke:#181818;stroke-width:1.0;"/><polygon fill="#181818" points="482.16,623.0438,482.4805,613.2001,480.2791,618.411,475.0682,616.2096,482.16,623.0438" style="stroke:#181818;stroke-width:1.0;"/><text fill="#000000" font-family="sans-serif" font-size="13" lengthAdjust="spacing" textLength="122" x="424.88" y="509.4607">Search + Directory</text></g><!--link admin to ObjectsAPI--><g id="link_admin_ObjectsAPI"><path d="M606.625,444.133 C586.755,457.443 569.87,472.9538 558.88,496.3938 C555.67,503.2338 556.49,506.2238 558.88,513.3938 C560.28,517.6038 562.44,517.6738 564.88,521.3938 C587.52,555.8338 607.8268,592.5095 621.2968,617.7695 " fill="none" id="admin-ObjectsAPI" style="stroke:#181818;stroke-width:1.0;stroke-dasharray:7.0,7.0;"/><polygon fill="#181818" points="611.61,440.7938,601.9064,442.4793,607.4559,443.5764,606.3587,449.1259,611.61,440.7938" style="stroke:#181818;stroke-width:1.0;"/><polygon fill="#181818" points="624.12,623.0638,623.4147,613.2402,621.7673,618.6519,616.3557,617.0045,624.12,623.0638" style="stroke:#181818;stroke-width:1.0;"/><text fill="#000000" font-family="sans-serif" font-size="13" lengthAdjust="spacing" textLength="219" x="559.88" y="509.4607">Publicaties + Catalogi + Metadata</text></g><!--link ZGW to service--><g id="link_ZGW_service"><path d="M1015.7569,190.1487 C1007.8969,209.6487 998.07,232.8238 985.88,257.0938 C960.74,307.1438 929.9899,358.2633 911.1499,388.6733 " fill="none" id="ZGW-service" style="stroke:#181818;stroke-width:1.0;stroke-dasharray:7.0,7.0;"/><polygon fill="#181818" points="1018,184.5838,1010.9254,191.4358,1016.1308,189.2212,1018.3453,194.4266,1018,184.5838" style="stroke:#181818;stroke-width:1.0;"/><polygon fill="#181818" points="907.99,393.7738,916.1302,388.2297,910.6233,389.5234,909.3296,384.0164,907.99,393.7738" style="stroke:#181818;stroke-width:1.0;"/><text fill="#000000" font-family="sans-serif" font-size="13" lengthAdjust="spacing" textLength="86" x="993.88" y="253.1607">Synchroizatie</text></g><!--link ETC to service--><g id="link_ETC_service"><path d="M892.106,190.5136 C892.476,238.7736 893.2727,339.514 893.6527,387.724 " fill="none" id="ETC-service" style="stroke:#181818;stroke-width:1.0;stroke-dasharray:7.0,7.0;"/><polygon fill="#181818" points="892.06,184.5138,888.1291,193.5442,892.0983,189.5136,896.1289,193.4828,892.06,184.5138" style="stroke:#181818;stroke-width:1.0;"/><polygon fill="#181818" points="893.7,393.7238,897.6289,384.6925,893.6606,388.7239,889.6292,384.7556,893.7,393.7238" style="stroke:#181818;stroke-width:1.0;"/><text fill="#000000" font-family="sans-serif" font-size="13" lengthAdjust="spacing" textLength="86" x="892.88" y="253.1607">Synchroizatie</text></g><!--link ObjectsAPI to db--><g id="link_ObjectsAPI_db"><path d="M637.12,669.8438 C639.77,717.4038 645.6157,822.3931 648.2857,870.2331 " fill="none" id="ObjectsAPI-to-db" style="stroke:#181818;stroke-width:1.0;stroke-dasharray:7.0,7.0;"/><polygon fill="#181818" points="648.62,876.2238,652.1123,867.0149,648.3414,871.2315,644.1247,867.4606,648.62,876.2238" style="stroke:#181818;stroke-width:1.0;"/><text fill="#000000" font-family="sans-serif" font-size="13" lengthAdjust="spacing" textLength="43" x="643.88" y="778.7507">Persist</text></g><!--link SearchAPI to search--><g id="link_SearchAPI_search"><path d="M490.88,669.8438 C490.88,717.4038 490.88,822.3838 490.88,870.2238 " fill="none" id="SearchAPI-to-search" style="stroke:#181818;stroke-width:1.0;stroke-dasharray:7.0,7.0;"/><polygon fill="#181818" points="490.88,876.2238,494.88,867.2238,490.88,871.2238,486.88,867.2238,490.88,876.2238" style="stroke:#181818;stroke-width:1.0;"/><text fill="#000000" font-family="sans-serif" font-size="13" lengthAdjust="spacing" textLength="50" x="491.88" y="778.7507">Look up</text></g><!--link layer2 to identity--><g id="link_layer2_identity"><path d="M378.8135,672.2546 C378.7325,672.5028 378.6511,672.7524 378.5691,673.0036 C378.2413,674.0083 377.9056,675.0372 377.5623,676.0894 C372.0697,692.9244 364.6344,715.7113 356.6087,740.3063 C340.5575,789.4963 324.0064,840.2148 314.0514,870.7198 " fill="none" id="layer2-to-identity" style="stroke:#181818;stroke-width:1.0;stroke-dasharray:7.0,7.0;"/><polygon fill="#181818" points="312.19,876.4238,318.7848,869.1088,313.7412,871.6705,311.1795,866.6269,312.19,876.4238" style="stroke:#181818;stroke-width:1.0;"/><text fill="#000000" font-family="sans-serif" font-size="13" lengthAdjust="spacing" textLength="36" x="346.88" y="778.7507">AUTH</text></g><!--link service to ObjectsAPI--><g id="link_service_ObjectsAPI"><path d="M868.2,440.8638 C818.74,484.4338 715.3323,575.5477 665.9623,619.0377 " fill="none" id="service-to-ObjectsAPI" style="stroke:#181818;stroke-width:1.0;stroke-dasharray:7.0,7.0;"/><polygon fill="#181818" points="661.46,623.0038,670.8574,620.0562,665.2119,619.6987,665.5694,614.0532,661.46,623.0038" style="stroke:#181818;stroke-width:1.0;"/><text fill="#000000" font-family="sans-serif" font-size="13" lengthAdjust="spacing" textLength="215" x="803.88" y="509.4607">In synchronyseren van publicaties</text></g><text fill="#888888" font-family="sans-serif" font-size="10" lengthAdjust="spacing" textLength="141" x="499.2564" y="978.266">Open Catalogi | Components</text><!--SRC=[XLHDRzf04BtlhnXnCeg4r2YzM5Kb1sZhXW0Aq4XKEQpj2MmnkvPtdSHfyzyxw_KNj6eb3jwPD-_Dl9t529EY3sDrp9H4QJHxLCfWxiCYGmbZRdYgTW9-zI5xvCb_88p5gIeI60IlHOw3dmo-1vDFgmS0ha4aX16cP6yjB9GaAj4GaiT6vJ3OQCm75btGHnCCagEGLPJRhqqlDNsf69f-2bt1i8hor4MB7RAUQ5CIP5agOcu4QjBFU7pWEuJ1TQuaJJC0s_sMyuCkjK4ykY6sd-yfF3Nno9sdwp5HT-GtHLHDL75sf3DUOWxlmHDsOkfTA3cq4YtY3YaAynbCK8jTBRz2diTxs8HEh11MgItvLk1vGUKKLBO-yXXTMMMQw_AyeolmPdIByR2oBRMnAwTSodXFJfIQsrwrOoBZdqICVsEw12zOXZsUI-BfeKwtXhm_cP1A7sobEzAfdQN9BA8V61jjKrRzZPrOuNfu1rv22fMnNQwM43B15oSwJRas8gxLcj7izmcfauGLBHgwmiNTsA6JoFdvnwB1Xz7eOpU63rk51vgSVXEHertQ4dJVN8GdmUsOu2rlmiMGsSrtD8M0bi22ebmzswGNp1VpS7exPErxS0NLaMgkSO_vUT7N-pMCKowEGyQ8-RpHsgQBha_7xe2T_JuiYwXvE0Hlx_G2Rj5mUm6CNeahgnU6sDt8ujMMCNer_yopJWvWbAXdITWa8cdCjT26jNrtQNU1FioKEa2HiNe9ctJpx-D3i5b_ORLmc-xF5yhU3JaVkOIic_et]--></g></svg>