<svg xmlns="http://www.w3.org/2000/svg" xmlns:xlink="http://www.w3.org/1999/xlink" contentStyleType="text/css" height="384px" preserveAspectRatio="none" style="width:391px;height:384px;background:#FFFFFF;" version="1.1" viewBox="0 0 391 384" width="391px" zoomAndPan="magnify"><defs/><g><text fill="#888888" font-family="sans-serif" font-size="10" lengthAdjust="spacing" textLength="31.4844" x="346.3378" y="9.2822">Matrix</text><text fill="#000000" font-family="sans-serif" font-size="14" font-weight="bold" lengthAdjust="spacing" textLength="111.3574" x="133.2324" y="35.6357">Open Catalogi</text><!--entity adminUI--><g id="elem_adminUI"><rect fill="#F1F1F1" height="46.2969" rx="2.5" ry="2.5" style="stroke:#181818;stroke-width:0.5;" width="157.2021" x="228.62" y="56.9375"/><rect fill="#F1F1F1" height="10" style="stroke:#181818;stroke-width:0.5;" width="15" x="365.8221" y="61.9375"/><rect fill="#F1F1F1" height="2" style="stroke:#181818;stroke-width:0.5;" width="4" x="363.8221" y="63.9375"/><rect fill="#F1F1F1" height="2" style="stroke:#181818;stroke-width:0.5;" width="4" x="363.8221" y="67.9375"/><text fill="#000000" font-family="sans-serif" font-size="14" lengthAdjust="spacing" textLength="117.2021" x="243.62" y="89.9326">Beheer Interface</text></g><!--entity userUi--><g id="elem_userUi"><rect fill="#F1F1F1" height="46.2969" rx="2.5" ry="2.5" style="stroke:#181818;stroke-width:0.5;" width="172.4326" x="7" y="56.9375"/><rect fill="#F1F1F1" height="10" style="stroke:#181818;stroke-width:0.5;" width="15" x="159.4326" y="61.9375"/><rect fill="#F1F1F1" height="2" style="stroke:#181818;stroke-width:0.5;" width="4" x="157.4326" y="63.9375"/><rect fill="#F1F1F1" height="2" style="stroke:#181818;stroke-width:0.5;" width="4" x="157.4326" y="67.9375"/><text fill="#000000" font-family="sans-serif" font-size="14" lengthAdjust="spacing" textLength="132.4326" x="22" y="89.9326">Publicatie platform</text></g><!--entity objectsAPI--><g id="elem_objectsAPI"><rect fill="#F1F1F1" height="46.2969" rx="2.5" ry="2.5" style="stroke:#181818;stroke-width:0.5;" width="143.2363" x="235.6" y="180.2375"/><rect fill="#F1F1F1" height="10" style="stroke:#181818;stroke-width:0.5;" width="15" x="358.8363" y="185.2375"/><rect fill="#F1F1F1" height="2" style="stroke:#181818;stroke-width:0.5;" width="4" x="356.8363" y="187.2375"/><rect fill="#F1F1F1" height="2" style="stroke:#181818;stroke-width:0.5;" width="4" x="356.8363" y="191.2375"/><text fill="#000000" font-family="sans-serif" font-size="14" lengthAdjust="spacing" textLength="103.2363" x="250.6" y="213.2326">Gebruikers API</text></g><!--entity searchAPI--><g id="elem_searchAPI"><rect fill="#F1F1F1" height="46.2969" rx="2.5" ry="2.5" style="stroke:#181818;stroke-width:0.5;" width="118.9619" x="33.74" y="180.2375"/><rect fill="#F1F1F1" height="10" style="stroke:#181818;stroke-width:0.5;" width="15" x="132.7019" y="185.2375"/><rect fill="#F1F1F1" height="2" style="stroke:#181818;stroke-width:0.5;" width="4" x="130.7019" y="187.2375"/><rect fill="#F1F1F1" height="2" style="stroke:#181818;stroke-width:0.5;" width="4" x="130.7019" y="191.2375"/><text fill="#000000" font-family="sans-serif" font-size="14" lengthAdjust="spacing" textLength="78.9619" x="48.74" y="213.2326">Zoeken API</text></g><!--entity elastic--><g id="elem_elastic"><path d="M37.51,313.5275 C37.51,303.5275 93.2117,303.5275 93.2117,303.5275 C93.2117,303.5275 148.9133,303.5275 148.9133,313.5275 L148.9133,338.8244 C148.9133,348.8244 93.2117,348.8244 93.2117,348.8244 C93.2117,348.8244 37.51,348.8244 37.51,338.8244 L37.51,313.5275 " fill="#F1F1F1" style="stroke:#181818;stroke-width:0.5;"/><path d="M37.51,313.5275 C37.51,323.5275 93.2117,323.5275 93.2117,323.5275 C93.2117,323.5275 148.9133,323.5275 148.9133,313.5275 " fill="none" style="stroke:#181818;stroke-width:0.5;"/><text fill="#000000" font-family="sans-serif" font-size="14" lengthAdjust="spacing" textLength="91.4033" x="47.51" y="340.5226">Search index</text></g><!--entity ORC--><g id="elem_ORC"><path d="M240.4,313.5275 C240.4,303.5275 307.2169,303.5275 307.2169,303.5275 C307.2169,303.5275 374.0338,303.5275 374.0338,313.5275 L374.0338,338.8244 C374.0338,348.8244 307.2169,348.8244 307.2169,348.8244 C307.2169,348.8244 240.4,348.8244 240.4,338.8244 L240.4,313.5275 " fill="#F1F1F1" style="stroke:#181818;stroke-width:0.5;"/><path d="M240.4,313.5275 C240.4,323.5275 307.2169,323.5275 307.2169,323.5275 C307.2169,323.5275 374.0338,323.5275 374.0338,313.5275 " fill="none" style="stroke:#181818;stroke-width:0.5;"/><text fill="#000000" font-family="sans-serif" font-size="14" lengthAdjust="spacing" textLength="113.6338" x="250.4" y="340.5226">Objecten opslag</text></g><!--link adminUI to objectsAPI--><g id="link_adminUI_objectsAPI"><path d="M307.22,103.6175 C307.22,125.4075 307.22,152.2275 307.22,173.9675 " fill="none" id="adminUI-to-objectsAPI" style="stroke:#181818;stroke-width:1.0;stroke-dasharray:7.0,7.0;"/><polygon fill="#181818" points="307.22,179.9675,311.22,170.9675,307.22,174.9675,303.22,170.9675,307.22,179.9675" style="stroke:#181818;stroke-width:1.0;"/><text fill="#000000" font-family="sans-serif" font-size="13" lengthAdjust="spacing" textLength="53.041" x="308.22" y="146.3044">Opslaan</text></g><!--reverse link userUi to searchAPI--><g id="link_userUi_searchAPI"><path d="M93.22,109.6175 C93.22,131.4075 93.22,158.2275 93.22,179.9675 " fill="none" id="userUi-backto-searchAPI" style="stroke:#181818;stroke-width:1.0;stroke-dasharray:7.0,7.0;"/><polygon fill="#181818" points="93.22,103.6175,89.22,112.6175,93.22,108.6175,97.22,112.6175,93.22,103.6175" style="stroke:#181818;stroke-width:1.0;"/><text fill="#000000" font-family="sans-serif" font-size="13" lengthAdjust="spacing" textLength="65.0254" x="94.22" y="146.3044">Opzoeken</text></g><!--link objectsAPI to ORC--><g id="link_objectsAPI_ORC"><path d="M307.22,226.8175 C307.22,248.6575 307.22,275.6175 307.22,297.2675 " fill="none" id="objectsAPI-to-ORC" style="stroke:#181818;stroke-width:1.0;stroke-dasharray:7.0,7.0;"/><polygon fill="#181818" points="307.22,303.2675,311.22,294.2675,307.22,298.2675,303.22,294.2675,307.22,303.2675" style="stroke:#181818;stroke-width:1.0;"/><text fill="#000000" font-family="sans-serif" font-size="13" lengthAdjust="spacing" textLength="53.041" x="308.22" y="269.5944">Opslaan</text></g><!--reverse link searchAPI to elastic--><g id="link_searchAPI_elastic"><path d="M93.22,232.8175 C93.22,254.6575 93.22,281.6175 93.22,303.2675 " fill="none" id="searchAPI-backto-elastic" style="stroke:#181818;stroke-width:1.0;stroke-dasharray:7.0,7.0;"/><polygon fill="#181818" points="93.22,226.8175,89.22,235.8175,93.22,231.8175,97.22,235.8175,93.22,226.8175" style="stroke:#181818;stroke-width:1.0;"/><text fill="#000000" font-family="sans-serif" font-size="13" lengthAdjust="spacing" textLength="48.623" x="94.22" y="269.5944">Zoeken</text></g><!--reverse link elastic to ORC--><g id="link_elastic_ORC"><path d="M155.16,326.1775 C183.03,326.1775 210.92,326.1775 240.17,326.1775 " fill="none" id="elastic-backto-ORC" style="stroke:#181818;stroke-width:1.0;stroke-dasharray:7.0,7.0;"/><polygon fill="#181818" points="149.16,326.1775,158.16,330.1775,154.16,326.1775,158.16,322.1775,149.16,326.1775" style="stroke:#181818;stroke-width:1.0;"/><text fill="#000000" font-family="sans-serif" font-size="13" lengthAdjust="spacing" textLength="55.3198" x="167.16" y="319.2444">Updaten</text></g><text fill="#888888" font-family="sans-serif" font-size="10" lengthAdjust="spacing" textLength="144.0625" x="116.8798" y="374.1066">Open Catalogi | Components</text><!--SRC=[NP11ReD034NtFeML0t20gAhKiAXOL4Ijs3Jgme09qmmpQCQeKTN3rmmfH5sE__j_lYr6BE-n7DbXJaBMdmrqtWk7VrFymTmFetVi94BFrCx82qamLm30qu5xve25Ksz73NyWHQHsCAugL3vEjJKDYM4SBKddmv28ANAeZ0BFN8V9N3X4V3eMIVFr9pSIzQdwk-UBzldJ8bDe-ba2QBLZJP5nzvQcQ5pBrzsCiQKefhb3oXIgINwCbiw9AbzpW5jNp5h_vRB7kz_dKoXB3fQs-B0mMucP-4u5OREjIHg_HQoUDUNMSO_BYg0uPfOxKUkgLQEkmEuN]--></g></svg>