<svg xmlns="http://www.w3.org/2000/svg" xmlns:xlink="http://www.w3.org/1999/xlink" contentStyleType="text/css" height="470px" preserveAspectRatio="none" style="width:410px;height:470px;background:#FFFFFF;" version="1.1" viewBox="0 0 410 470" width="410px" zoomAndPan="magnify"><defs/><g><text fill="#888888" font-family="sans-serif" font-size="10" lengthAdjust="spacing" textLength="31.4844" x="364.5156" y="9.2822">Matrix</text><text fill="#000000" font-family="sans-serif" font-size="14" font-weight="bold" lengthAdjust="spacing" textLength="111.3574" x="142.3213" y="35.6357">Open Catalogi</text><!--cluster Layer 5 (interactie)--><g id="cluster_Layer 5 (interactie)"><path d="M8.5,55.9375 L162.2695,55.9375 A3.75,3.75 0 0 1 164.7695,58.4375 L171.7695,78.2344 L400.5,78.2344 A2.5,2.5 0 0 1 403,80.7344 L403,150.7375 A2.5,2.5 0 0 1 400.5,153.2375 L8.5,153.2375 A2.5,2.5 0 0 1 6,150.7375 L6,58.4375 A2.5,2.5 0 0 1 8.5,55.9375 " fill="none" style="stroke:#000000;stroke-width:1.5;"/><line style="stroke:#000000;stroke-width:1.5;" x1="6" x2="171.7695" y1="78.2344" y2="78.2344"/><text fill="#000000" font-family="sans-serif" font-size="14" font-weight="bold" lengthAdjust="spacing" textLength="152.7695" x="10" y="70.9326">Layer 5 (interactie)</text></g><!--cluster Layer 2 (api)--><g id="cluster_Layer 2 (api)"><path d="M35.5,202.2375 L136.9473,202.2375 A3.75,3.75 0 0 1 139.4473,204.7375 L146.4473,224.5344 L359.5,224.5344 A2.5,2.5 0 0 1 362,227.0344 L362,297.0275 A2.5,2.5 0 0 1 359.5,299.5275 L35.5,299.5275 A2.5,2.5 0 0 1 33,297.0275 L33,204.7375 A2.5,2.5 0 0 1 35.5,202.2375 " fill="none" style="stroke:#000000;stroke-width:1.5;"/><line style="stroke:#000000;stroke-width:1.5;" x1="33" x2="146.4473" y1="224.5344" y2="224.5344"/><text fill="#000000" font-family="sans-serif" font-size="14" font-weight="bold" lengthAdjust="spacing" textLength="100.4473" x="37" y="217.2326">Layer 2 (api)</text></g><!--cluster Layer 1 (data)--><g id="cluster_Layer 1 (data)"><path d="M26.5,348.5275 L139.2881,348.5275 A3.75,3.75 0 0 1 141.7881,351.0275 L148.7881,370.8244 L390.5,370.8244 A2.5,2.5 0 0 1 393,373.3244 L393,442.3275 A2.5,2.5 0 0 1 390.5,444.8275 L26.5,444.8275 A2.5,2.5 0 0 1 24,442.3275 L24,351.0275 A2.5,2.5 0 0 1 26.5,348.5275 " fill="none" style="stroke:#000000;stroke-width:1.5;"/><line style="stroke:#000000;stroke-width:1.5;" x1="24" x2="148.7881" y1="370.8244" y2="370.8244"/><text fill="#000000" font-family="sans-serif" font-size="14" font-weight="bold" lengthAdjust="spacing" textLength="111.7881" x="28" y="363.5226">Layer 1 (data)</text></g><!--entity adminUI--><g id="elem_adminUI"><rect fill="#F1F1F1" height="46.2969" rx="2.5" ry="2.5" style="stroke:#181818;stroke-width:0.5;" width="157.2021" x="22.4" y="90.9375"/><rect fill="#F1F1F1" height="10" style="stroke:#181818;stroke-width:0.5;" width="15" x="159.6021" y="95.9375"/><rect fill="#F1F1F1" height="2" style="stroke:#181818;stroke-width:0.5;" width="4" x="157.6021" y="97.9375"/><rect fill="#F1F1F1" height="2" style="stroke:#181818;stroke-width:0.5;" width="4" x="157.6021" y="101.9375"/><text fill="#000000" font-family="sans-serif" font-size="14" lengthAdjust="spacing" textLength="117.2021" x="37.4" y="123.9326">Beheer Interface</text></g><!--entity userUi--><g id="elem_userUi"><rect fill="#F1F1F1" height="46.2969" rx="2.5" ry="2.5" style="stroke:#181818;stroke-width:0.5;" width="172.4326" x="214.78" y="90.9375"/><rect fill="#F1F1F1" height="10" style="stroke:#181818;stroke-width:0.5;" width="15" x="367.2126" y="95.9375"/><rect fill="#F1F1F1" height="2" style="stroke:#181818;stroke-width:0.5;" width="4" x="365.2126" y="97.9375"/><rect fill="#F1F1F1" height="2" style="stroke:#181818;stroke-width:0.5;" width="4" x="365.2126" y="101.9375"/><text fill="#000000" font-family="sans-serif" font-size="14" lengthAdjust="spacing" textLength="132.4326" x="229.78" y="123.9326">Publicatie platform</text></g><!--entity objectsAPI--><g id="elem_objectsAPI"><rect fill="#F1F1F1" height="46.2969" rx="2.5" ry="2.5" style="stroke:#181818;stroke-width:0.5;" width="143.2363" x="49.38" y="237.2375"/><rect fill="#F1F1F1" height="10" style="stroke:#181818;stroke-width:0.5;" width="15" x="172.6163" y="242.2375"/><rect fill="#F1F1F1" height="2" style="stroke:#181818;stroke-width:0.5;" width="4" x="170.6163" y="244.2375"/><rect fill="#F1F1F1" height="2" style="stroke:#181818;stroke-width:0.5;" width="4" x="170.6163" y="248.2375"/><text fill="#000000" font-family="sans-serif" font-size="14" lengthAdjust="spacing" textLength="103.2363" x="64.38" y="270.2326">Gebruikers API</text></g><!--entity searchAPI--><g id="elem_searchAPI"><rect fill="#F1F1F1" height="46.2969" rx="2.5" ry="2.5" style="stroke:#181818;stroke-width:0.5;" width="118.9619" x="227.52" y="237.2375"/><rect fill="#F1F1F1" height="10" style="stroke:#181818;stroke-width:0.5;" width="15" x="326.4819" y="242.2375"/><rect fill="#F1F1F1" height="2" style="stroke:#181818;stroke-width:0.5;" width="4" x="324.4819" y="244.2375"/><rect fill="#F1F1F1" height="2" style="stroke:#181818;stroke-width:0.5;" width="4" x="324.4819" y="248.2375"/><text fill="#000000" font-family="sans-serif" font-size="14" lengthAdjust="spacing" textLength="78.9619" x="242.52" y="270.2326">Zoeken API</text></g><!--entity elastic--><g id="elem_elastic"><path d="M265.3,393.5275 C265.3,383.5275 321.0017,383.5275 321.0017,383.5275 C321.0017,383.5275 376.7033,383.5275 376.7033,393.5275 L376.7033,418.8244 C376.7033,428.8244 321.0017,428.8244 321.0017,428.8244 C321.0017,428.8244 265.3,428.8244 265.3,418.8244 L265.3,393.5275 " fill="#F1F1F1" style="stroke:#181818;stroke-width:0.5;"/><path d="M265.3,393.5275 C265.3,403.5275 321.0017,403.5275 321.0017,403.5275 C321.0017,403.5275 376.7033,403.5275 376.7033,393.5275 " fill="none" style="stroke:#181818;stroke-width:0.5;"/><text fill="#000000" font-family="sans-serif" font-size="14" lengthAdjust="spacing" textLength="91.4033" x="275.3" y="420.5226">Search index</text></g><!--entity ORC--><g id="elem_ORC"><path d="M40.18,393.5275 C40.18,383.5275 106.9969,383.5275 106.9969,383.5275 C106.9969,383.5275 173.8138,383.5275 173.8138,393.5275 L173.8138,418.8244 C173.8138,428.8244 106.9969,428.8244 106.9969,428.8244 C106.9969,428.8244 40.18,428.8244 40.18,418.8244 L40.18,393.5275 " fill="#F1F1F1" style="stroke:#181818;stroke-width:0.5;"/><path d="M40.18,393.5275 C40.18,403.5275 106.9969,403.5275 106.9969,403.5275 C106.9969,403.5275 173.8138,403.5275 173.8138,393.5275 " fill="none" style="stroke:#181818;stroke-width:0.5;"/><text fill="#000000" font-family="sans-serif" font-size="14" lengthAdjust="spacing" textLength="113.6338" x="50.18" y="420.5226">Objecten opslag</text></g><!--link adminUI to objectsAPI--><g id="link_adminUI_objectsAPI"><path d="M104.12,137.6275 C107.88,164.7375 113.3258,204.0144 117.0758,231.0544 " fill="none" id="adminUI-to-objectsAPI" style="stroke:#181818;stroke-width:1.0;stroke-dasharray:7.0,7.0;"/><polygon fill="#181818" points="117.9,236.9975,120.6258,227.5333,117.2132,232.0449,112.7016,228.6323,117.9,236.9975" style="stroke:#181818;stroke-width:1.0;"/><text fill="#000000" font-family="sans-serif" font-size="13" lengthAdjust="spacing" textLength="53.041" x="112" y="182.3044">Opslaan</text></g><!--reverse link userUi to searchAPI--><g id="link_userUi_searchAPI"><path d="M298.2306,143.5995 C295.6006,170.7095 291.8,209.9575 289.17,236.9975 " fill="none" id="userUi-backto-searchAPI" style="stroke:#181818;stroke-width:1.0;stroke-dasharray:7.0,7.0;"/><polygon fill="#181818" points="298.81,137.6275,293.9597,146.1992,298.3272,142.6041,301.9223,146.9717,298.81,137.6275" style="stroke:#181818;stroke-width:1.0;"/><text fill="#000000" font-family="sans-serif" font-size="13" lengthAdjust="spacing" textLength="65.0254" x="296" y="182.3044">Opzoeken</text></g><!--link objectsAPI to ORC--><g id="link_objectsAPI_ORC"><path d="M118.81,283.8475 C116.17,311.0275 112.3196,350.4756 109.7096,377.3656 " fill="none" id="objectsAPI-to-ORC" style="stroke:#181818;stroke-width:1.0;stroke-dasharray:7.0,7.0;"/><polygon fill="#181818" points="109.13,383.3375,113.9808,374.766,109.613,378.3609,106.0182,373.9932,109.13,383.3375" style="stroke:#181818;stroke-width:1.0;"/><text fill="#000000" font-family="sans-serif" font-size="13" lengthAdjust="spacing" textLength="53.041" x="117" y="328.5944">Opslaan</text></g><!--reverse link searchAPI to elastic--><g id="link_searchAPI_elastic"><path d="M293.6913,289.6863 C300.1213,316.8663 309.48,356.4475 315.84,383.3375 " fill="none" id="searchAPI-backto-elastic" style="stroke:#181818;stroke-width:1.0;stroke-dasharray:7.0,7.0;"/><polygon fill="#181818" points="292.31,283.8475,290.4894,293.5266,293.4611,288.7132,298.2745,291.6849,292.31,283.8475" style="stroke:#181818;stroke-width:1.0;"/><text fill="#000000" font-family="sans-serif" font-size="13" lengthAdjust="spacing" textLength="48.623" x="303" y="328.5944">Zoeken</text></g><!--reverse link elastic to ORC--><g id="link_elastic_ORC"><path d="M258.89,406.1775 C231.09,406.1775 203.3,406.1775 174.12,406.1775 " fill="none" id="elastic-backto-ORC" style="stroke:#181818;stroke-width:1.0;stroke-dasharray:7.0,7.0;"/><polygon fill="#181818" points="264.89,406.1775,255.89,402.1775,259.89,406.1775,255.89,410.1775,264.89,406.1775" style="stroke:#181818;stroke-width:1.0;"/><text fill="#000000" font-family="sans-serif" font-size="13" lengthAdjust="spacing" textLength="55.3198" x="192.06" y="399.2444">Updaten</text></g><text fill="#888888" font-family="sans-serif" font-size="10" lengthAdjust="spacing" textLength="144.0625" x="125.9688" y="460.1097">Open Catalogi | Components</text><!--SRC=[PL1BImCn4BxdLmmzhPS51Iz51Er12agBqelYOJOxkusR9Y59iJxwtvrarsrfRybyh_acggXf2Wj71cOOKTjMYSRQIFva2hyminjd3PaOn9gmJfGdZ5xjX10EPOSjmUGHlyZ3DHJAi0dAgEXY0Zy2tkvfJGpDqxn1IU-00R3UABEQCxpSLbf9P3uuZR6nVfCPsq1-fSJ-FEGA2dHgS7-WoczLHpx0tNAUbRRw81a3Vnb_jTHndNyi47gvJj3-pFSIYffRP-Fqg30mzf8Le4nDkqco88qXAdb4MUH0Jh4kQ6mpQ_4yIn53JoXh-sdAswFTqfsPZKRqJU6cvnnMJ8pllBuuo4Od3ZXOZ9hHPTXo2lq11DEXrDH4bexOod49Cdy0]--></g></svg>