<svg xmlns="http://www.w3.org/2000/svg" xmlns:xlink="http://www.w3.org/1999/xlink" contentStyleType="text/css" height="470px" preserveAspectRatio="none" style="width:402px;height:470px;background:#FFFFFF;" version="1.1" viewBox="0 0 402 470" width="402px" zoomAndPan="magnify"><defs/><g><text fill="#888888" font-family="sans-serif" font-size="10" lengthAdjust="spacing" textLength="31" x="357" y="9.2822">Matrix</text><text fill="#000000" font-family="sans-serif" font-size="14" font-weight="bold" lengthAdjust="spacing" textLength="110" x="139" y="35.6357">Open Catalogi</text><!--cluster Layer 5 (interactie)--><g id="cluster_Layer 5 (interactie)"><path d="M8.5,55.9375 L160.5,55.9375 A3.75,3.75 0 0 1 163,58.4375 L170,78.2344 L392.5,78.2344 A2.5,2.5 0 0 1 395,80.7344 L395,150.7375 A2.5,2.5 0 0 1 392.5,153.2375 L8.5,153.2375 A2.5,2.5 0 0 1 6,150.7375 L6,58.4375 A2.5,2.5 0 0 1 8.5,55.9375 " fill="none" style="stroke:#000000;stroke-width:1.5;"/><line style="stroke:#000000;stroke-width:1.5;" x1="6" x2="170" y1="78.2344" y2="78.2344"/><text fill="#000000" font-family="sans-serif" font-size="14" font-weight="bold" lengthAdjust="spacing" textLength="151" x="10" y="70.9326">Layer 5 (interactie)</text></g><!--cluster Layer 2 (api)--><g id="cluster_Layer 2 (api)"><path d="M33.5,202.2375 L133.5,202.2375 A3.75,3.75 0 0 1 136,204.7375 L143,224.5344 L355.5,224.5344 A2.5,2.5 0 0 1 358,227.0344 L358,297.0275 A2.5,2.5 0 0 1 355.5,299.5275 L33.5,299.5275 A2.5,2.5 0 0 1 31,297.0275 L31,204.7375 A2.5,2.5 0 0 1 33.5,202.2375 " fill="none" style="stroke:#000000;stroke-width:1.5;"/><line style="stroke:#000000;stroke-width:1.5;" x1="31" x2="143" y1="224.5344" y2="224.5344"/><text fill="#000000" font-family="sans-serif" font-size="14" font-weight="bold" lengthAdjust="spacing" textLength="99" x="35" y="217.2326">Layer 2 (api)</text></g><!--cluster Layer 1 (data)--><g id="cluster_Layer 1 (data)"><path d="M24.5,348.5275 L135.5,348.5275 A3.75,3.75 0 0 1 138,351.0275 L145,370.8244 L384.5,370.8244 A2.5,2.5 0 0 1 387,373.3244 L387,442.3275 A2.5,2.5 0 0 1 384.5,444.8275 L24.5,444.8275 A2.5,2.5 0 0 1 22,442.3275 L22,351.0275 A2.5,2.5 0 0 1 24.5,348.5275 " fill="none" style="stroke:#000000;stroke-width:1.5;"/><line style="stroke:#000000;stroke-width:1.5;" x1="22" x2="145" y1="370.8244" y2="370.8244"/><text fill="#000000" font-family="sans-serif" font-size="14" font-weight="bold" lengthAdjust="spacing" textLength="110" x="26" y="363.5226">Layer 1 (data)</text></g><!--entity adminUI--><g id="elem_adminUI"><rect fill="#F1F1F1" height="46.2969" rx="2.5" ry="2.5" style="stroke:#181818;stroke-width:0.5;" width="155" x="22.5" y="90.9375"/><rect fill="#F1F1F1" height="10" style="stroke:#181818;stroke-width:0.5;" width="15" x="157.5" y="95.9375"/><rect fill="#F1F1F1" height="2" style="stroke:#181818;stroke-width:0.5;" width="4" x="155.5" y="97.9375"/><rect fill="#F1F1F1" height="2" style="stroke:#181818;stroke-width:0.5;" width="4" x="155.5" y="101.9375"/><text fill="#000000" font-family="sans-serif" font-size="14" lengthAdjust="spacing" textLength="115" x="37.5" y="123.9326">Beheer Interface</text></g><!--entity userUi--><g id="elem_userUi"><rect fill="#F1F1F1" height="46.2969" rx="2.5" ry="2.5" style="stroke:#181818;stroke-width:0.5;" width="166" x="213" y="90.9375"/><rect fill="#F1F1F1" height="10" style="stroke:#181818;stroke-width:0.5;" width="15" x="359" y="95.9375"/><rect fill="#F1F1F1" height="2" style="stroke:#181818;stroke-width:0.5;" width="4" x="357" y="97.9375"/><rect fill="#F1F1F1" height="2" style="stroke:#181818;stroke-width:0.5;" width="4" x="357" y="101.9375"/><text fill="#000000" font-family="sans-serif" font-size="14" lengthAdjust="spacing" textLength="126" x="228" y="123.9326">Publicatie platform</text></g><!--entity objectsAPI--><g id="elem_objectsAPI"><rect fill="#F1F1F1" height="46.2969" rx="2.5" ry="2.5" style="stroke:#181818;stroke-width:0.5;" width="141" x="46.5" y="237.2375"/><rect fill="#F1F1F1" height="10" style="stroke:#181818;stroke-width:0.5;" width="15" x="167.5" y="242.2375"/><rect fill="#F1F1F1" height="2" style="stroke:#181818;stroke-width:0.5;" width="4" x="165.5" y="244.2375"/><rect fill="#F1F1F1" height="2" style="stroke:#181818;stroke-width:0.5;" width="4" x="165.5" y="248.2375"/><text fill="#000000" font-family="sans-serif" font-size="14" lengthAdjust="spacing" textLength="101" x="61.5" y="270.2326">Gebruikers API</text></g><!--entity searchAPI--><g id="elem_searchAPI"><rect fill="#F1F1F1" height="46.2969" rx="2.5" ry="2.5" style="stroke:#181818;stroke-width:0.5;" width="119" x="222.5" y="237.2375"/><rect fill="#F1F1F1" height="10" style="stroke:#181818;stroke-width:0.5;" width="15" x="321.5" y="242.2375"/><rect fill="#F1F1F1" height="2" style="stroke:#181818;stroke-width:0.5;" width="4" x="319.5" y="244.2375"/><rect fill="#F1F1F1" height="2" style="stroke:#181818;stroke-width:0.5;" width="4" x="319.5" y="248.2375"/><text fill="#000000" font-family="sans-serif" font-size="14" lengthAdjust="spacing" textLength="79" x="237.5" y="270.2326">Zoeken API</text></g><!--entity elastic--><g id="elem_elastic"><path d="M261.5,393.5275 C261.5,383.5275 316,383.5275 316,383.5275 C316,383.5275 370.5,383.5275 370.5,393.5275 L370.5,418.8244 C370.5,428.8244 316,428.8244 316,428.8244 C316,428.8244 261.5,428.8244 261.5,418.8244 L261.5,393.5275 " fill="#F1F1F1" style="stroke:#181818;stroke-width:0.5;"/><path d="M261.5,393.5275 C261.5,403.5275 316,403.5275 316,403.5275 C316,403.5275 370.5,403.5275 370.5,393.5275 " fill="none" style="stroke:#181818;stroke-width:0.5;"/><text fill="#000000" font-family="sans-serif" font-size="14" lengthAdjust="spacing" textLength="89" x="271.5" y="420.5226">Search index</text></g><!--entity ORC--><g id="elem_ORC"><path d="M37.5,393.5275 C37.5,383.5275 104,383.5275 104,383.5275 C104,383.5275 170.5,383.5275 170.5,393.5275 L170.5,418.8244 C170.5,428.8244 104,428.8244 104,428.8244 C104,428.8244 37.5,428.8244 37.5,418.8244 L37.5,393.5275 " fill="#F1F1F1" style="stroke:#181818;stroke-width:0.5;"/><path d="M37.5,393.5275 C37.5,403.5275 104,403.5275 104,403.5275 C104,403.5275 170.5,403.5275 170.5,393.5275 " fill="none" style="stroke:#181818;stroke-width:0.5;"/><text fill="#000000" font-family="sans-serif" font-size="14" lengthAdjust="spacing" textLength="113" x="47.5" y="420.5226">Objecten opslag</text></g><!--link adminUI to objectsAPI--><g id="link_adminUI_objectsAPI"><path d="M102.66,137.6275 C105.85,164.7375 110.4792,203.9986 113.6592,231.0386 " fill="none" id="adminUI-to-objectsAPI" style="stroke:#181818;stroke-width:1.0;stroke-dasharray:7.0,7.0;"/><polygon fill="#181818" points="114.36,236.9975,117.2814,227.5919,113.776,232.0317,109.3362,228.5263,114.36,236.9975" style="stroke:#181818;stroke-width:1.0;"/><text fill="#000000" font-family="sans-serif" font-size="13" lengthAdjust="spacing" textLength="52" x="109" y="182.3044">Opslaan</text></g><!--reverse link userUi to searchAPI--><g id="link_userUi_searchAPI"><path d="M293.2306,143.5995 C290.6006,170.7095 286.8,209.9575 284.17,236.9975 " fill="none" id="userUi-backto-searchAPI" style="stroke:#181818;stroke-width:1.0;stroke-dasharray:7.0,7.0;"/><polygon fill="#181818" points="293.81,137.6275,288.9597,146.1992,293.3272,142.6041,296.9223,146.9717,293.81,137.6275" style="stroke:#181818;stroke-width:1.0;"/><text fill="#000000" font-family="sans-serif" font-size="13" lengthAdjust="spacing" textLength="64" x="291" y="182.3044">Opzoeken</text></g><!--link objectsAPI to ORC--><g id="link_objectsAPI_ORC"><path d="M114.97,283.8475 C112.51,311.0275 108.9522,350.472 106.5122,377.362 " fill="none" id="objectsAPI-to-ORC" style="stroke:#181818;stroke-width:1.0;stroke-dasharray:7.0,7.0;"/><polygon fill="#181818" points="105.97,383.3375,110.767,374.7358,106.4218,378.358,102.7997,374.0128,105.97,383.3375" style="stroke:#181818;stroke-width:1.0;"/><text fill="#000000" font-family="sans-serif" font-size="13" lengthAdjust="spacing" textLength="52" x="114" y="328.5944">Opslaan</text></g><!--reverse link searchAPI to elastic--><g id="link_searchAPI_elastic"><path d="M288.6913,289.6863 C295.1213,316.8663 304.48,356.4475 310.84,383.3375 " fill="none" id="searchAPI-backto-elastic" style="stroke:#181818;stroke-width:1.0;stroke-dasharray:7.0,7.0;"/><polygon fill="#181818" points="287.31,283.8475,285.4894,293.5266,288.4611,288.7132,293.2745,291.6849,287.31,283.8475" style="stroke:#181818;stroke-width:1.0;"/><text fill="#000000" font-family="sans-serif" font-size="13" lengthAdjust="spacing" textLength="49" x="298" y="328.5944">Zoeken</text></g><!--reverse link elastic to ORC--><g id="link_elastic_ORC"><path d="M255.26,406.1775 C227.64,406.1775 199.92,406.1775 170.79,406.1775 " fill="none" id="elastic-backto-ORC" style="stroke:#181818;stroke-width:1.0;stroke-dasharray:7.0,7.0;"/><polygon fill="#181818" points="261.26,406.1775,252.26,402.1775,256.26,406.1775,252.26,410.1775,261.26,406.1775" style="stroke:#181818;stroke-width:1.0;"/><text fill="#000000" font-family="sans-serif" font-size="13" lengthAdjust="spacing" textLength="55" x="188.5" y="399.2444">Updaten</text></g><text fill="#888888" font-family="sans-serif" font-size="10" lengthAdjust="spacing" textLength="141" x="123.5" y="460.1097">Open Catalogi | Components</text><!--SRC=[PL1BImCn4BxdLmmzhPS51Iz51Er12agBqelYOJOxkusR9Y59iJxwtvrarsrfRybyh_acggXf2Wj71cOOKTjMYSRQIFva2hyminjd3PaOn9gmJfGdZ5xjX10EPOSjmUGHlyZ3DHJAi0dAgEXY0Zy2tkvfJGpDqxn1IU-00R3UABEQCxpSLbf9P3uuZR6nVfCPsq1-fSJ-FEGA2dHgS7-WoczLHpx0tNAUbRRw81a3Vnb_jTHndNyi47gvJj3-pFSIYffRP-Fqg30mzf8Le4nDkqco88qXAdb4MUH0Jh4kQ6mpQ_4yIn53JoXh-sdAswFTqfsPZKRqJU6cvnnMJ8pllBuuo4Od3ZXOZ9hHPTXo2lq11DEXrDH4bexOod49Cdy0]--></g></svg>