<svg xmlns="http://www.w3.org/2000/svg" xmlns:xlink="http://www.w3.org/1999/xlink" contentStyleType="text/css" height="381px" preserveAspectRatio="none" style="width:574px;height:381px;background:#FFFFFF;" version="1.1" viewBox="0 0 574 381" width="574px" zoomAndPan="magnify"><defs/><g><text fill="#888888" font-family="sans-serif" font-size="10" lengthAdjust="spacing" textLength="33" x="527.1136" y="9.2822">Simpel</text><text fill="#000000" font-family="sans-serif" font-size="14" font-weight="bold" lengthAdjust="spacing" textLength="110" x="225.0568" y="35.6357">Open Catalogi</text><!--cluster Internet--><g id="cluster_Internet"><path d="M253.099,71.1674 C255.6151,62.8447 260.9595,61.9697 266.9889,67.6931 C268.9811,60.9392 275.7368,59.1048 280.6449,64.3838 C284.261,57.659 289.7451,56.4686 295.3847,61.9378 C302.0288,56.4428 306.629,58.2855 309.9048,65.7203 C314.665,60.9738 319.4131,61.5047 322.5845,67.5815 C328.5328,62.428 334.3154,64.0144 337.2375,71.1807 C343.8514,73.8747 343.2491,77.7629 339.3771,82.4481 C344.1361,85.3193 346.0937,88.6105 340.9427,92.958 C347.3608,95.4519 347.8391,101.0663 342.7329,105.24 C347.6607,107.6562 349.0433,111.2958 344.6472,115.4586 C350.0847,117.4077 352.0388,121.6205 347.9052,126.4155 C352.4061,130.4584 352.7535,135.7478 346.3384,138.3587 C350.3697,143.6209 348.1056,146.3995 342.8469,148.4461 C347.8623,152.9717 348.6408,157.8642 341.6054,161.2185 C346.1326,164.5934 345.2773,169.1869 339.9056,170.8071 C344.5353,175.6849 344.3708,179.6353 337.8389,182.5484 C334.7703,190.1075 328.1414,191.9863 322.7085,185.0095 C320.3857,192.628 314.6509,193.8399 309.3195,188.0035 C307.5527,195.9095 300.7122,197.5573 294.8579,192.5981 C288.9821,198.3235 283.2509,194.5765 282.061,187.8012 C277.6911,193.252 270.5757,193.324 268.121,185.7512 C262.2393,192.1478 257.3492,190.5264 254.562,182.7837 C249.1731,180.1695 248.8174,174.9035 254.1929,171.9234 C248.5975,168.1972 247.4095,163.8889 253.6917,159.6766 C248.0857,157.4858 248.9727,152.4845 253.08,149.6983 C246.6607,147.6516 246.758,141.8988 251.1927,138.0878 C246.6263,134.2118 247.0937,129.8101 252.0038,126.6034 C246.07,123.3343 246.0032,118.2484 251.9031,114.8777 C246.5168,112.0626 247.0229,107.0054 252.2281,104.5227 C247.5733,100.4635 246.1514,96.4667 252.5422,92.701 C248.6176,89.5 248.8672,84.7519 253.8719,82.7433 C247.3967,80.061 248.1617,74.6116 253.099,71.1674 " fill="none" style="stroke:#181818;stroke-width:1.0;"/><text fill="#000000" font-family="sans-serif" font-size="14" font-weight="bold" lengthAdjust="spacing" textLength="63" x="263.0068" y="88.0708">Internet</text></g><!--cluster org 1--><g id="cluster_org 1"><path d="M33.3234,249.6888 C40.8593,236.5521 48.6964,239.4191 57.1439,248.721 C62.0257,237.7773 70.9665,237.5102 78.1688,246.2413 C87.0451,234.8875 94.3853,238.1233 101.5386,248.1267 C107.3799,236.4264 117.8109,233.0901 127.1554,244.1909 C133.9826,232.5668 143.8331,233.3348 149.8905,244.9443 C155.5223,231.4236 167.2454,233.0883 174.7396,242.9665 C183.4927,234.0788 190.1383,235.7793 196.2214,245.9724 C202.1003,236.2427 211.3928,233.8886 218.8267,244.2201 C226.4689,233.8708 235.6182,232.8838 242.0834,245.4164 C249.0571,234.6562 259.9759,234.224 266.0161,246.3907 C273.0379,234.2407 282.8601,234.3032 291.4225,244.651 C298.5044,235.4636 307.3048,236.0435 312.3007,246.8313 C321.7391,234.0937 330.0292,236.3902 338.0689,248.2938 C345.5954,239.5771 352.1902,240.7409 357.9763,250.2 C379.09,262.0383 377.4911,275.7006 361.3053,290.6115 C380.4069,306.0695 376.2373,318.6847 357.9609,331.0516 C352.0215,339.4712 342.2401,341.1762 337.2363,330.0591 C330.0328,343.5692 321.3621,343.5536 311.2085,333.2886 C305.1711,342.941 296.4558,342.8141 289.8353,333.9619 C285.8515,345.2513 275.7725,345.675 268.2131,338.0492 C260.047,348.4075 252.841,348.9597 244.8953,337.8103 C239.592,350.7173 228.8817,350.1732 220.824,340.7841 C214.037,353.7996 204.1929,355.7284 194.832,343.4266 C187.5701,351.3455 180.3511,352.7607 174.7247,341.6944 C164.7072,352.1535 156.1075,351.3873 151.0872,336.9498 C143.9604,348.3855 135.2482,350.5443 127.1026,337.9674 C118.7182,346.9759 107.7692,345.3865 104.3468,332.7506 C96.8523,344.5835 86.7508,345.2206 79.7083,332.3006 C73.0906,341.0901 65.2932,343.089 58.6695,332.3071 C50.3898,341.9138 42.6693,343.615 35.4274,331.2113 C12.2319,323.355 6,304.4543 27.2557,288.1605 C9.9931,273.5771 14.1506,258.5256 33.3234,249.6888 " fill="none" style="stroke:#181818;stroke-width:1.0;"/><text fill="#000000" font-family="sans-serif" font-size="14" font-weight="bold" lengthAdjust="spacing" textLength="42" x="173.5068" y="264.3608">org 1</text></g><!--cluster org 2--><g id="cluster_org 2"><path d="M432.5936,247.3875 C435.6618,241.286 441.3454,241.5737 444.8212,246.9534 C447.1972,239.8157 453.0717,240.287 457.0824,245.3043 C461.6555,239.5354 466.8881,238.4092 471.422,245.3485 C473.4431,238.6163 479.1383,238.2447 482.9763,243.6137 C487.064,237.5693 493.2518,238.5597 496.0561,244.9623 C499.2505,239.7111 505.0832,239.6449 508.0329,245.2327 C512.2125,239.7609 516.8512,238.731 521.3485,244.8683 C525.6037,239.6662 529.5376,240.0602 532.3075,246.2918 C536.6646,239.7601 542.9224,239.7166 547.0143,246.583 C552.0608,241.2183 555.902,241.0536 559.2778,248.2183 C565.5662,252.0715 565.3126,258.1418 558.5114,261.2237 C564.0355,265.159 564.511,269.9714 558.9935,274.3134 C564.7701,277.5558 565.0716,283.7765 559.1831,287.1906 C567.1136,291.3396 565.9388,298.2485 559.5677,302.751 C564.2362,307.3244 564.8022,311.0268 558.5867,314.7072 C565.124,318.8888 564.8675,323.5838 559.6366,328.6515 C555.462,335.0499 549.9915,335.7461 545.4204,329.0829 C541.9042,335.0494 537.7356,334.8548 533.7627,329.5553 C530.3059,336.0909 524.942,336.7004 520.4308,330.6743 C516.6585,336.0807 512.1189,336.6825 508.2608,330.7665 C503.9028,337.0593 497.7899,335.2435 494.7474,329.3122 C491.7708,335.2742 487.9776,336.3383 483.5645,330.6967 C480.0773,336.9126 474.6034,336.9125 471.36,330.4617 C466.379,336.6366 460.3554,336.8938 457.0274,328.8012 C454.091,335.265 448.0793,335.5037 444.1787,329.8211 C439.739,335.2245 435.5995,334.5472 431.722,329.1714 C425.5534,324.2208 426.4078,317.9788 433.1942,314.3118 C427.6889,310.9705 425.8753,307.4604 431.5914,302.5853 C424.4118,298.2526 423.9508,291.9573 431.4252,287.4635 C425.1609,284.0604 425.9753,278.9604 431.2694,275.4079 C425.1603,271.3795 424.4443,265.2065 431.2234,261.1366 C425.9892,256.9984 424.8863,250.236 432.5936,247.3875 " fill="none" style="stroke:#181818;stroke-width:1.0;"/><text fill="#000000" font-family="sans-serif" font-size="14" font-weight="bold" lengthAdjust="spacing" textLength="42" x="473.5068" y="264.3608">org 2</text></g><!--entity user--><g id="elem_user"><ellipse cx="294.5068" cy="105.5756" fill="#F1F1F1" rx="8" ry="8" style="stroke:#181818;stroke-width:0.5;"/><path d="M294.5068,113.5756 L294.5068,140.5756 M281.5068,121.5756 L307.5068,121.5756 M294.5068,140.5756 L281.5068,155.5756 M294.5068,140.5756 L307.5068,155.5756 " fill="none" style="stroke:#181818;stroke-width:0.5;"/><text fill="#000000" font-family="sans-serif" font-size="14" lengthAdjust="spacing" textLength="68" x="260.5068" y="170.0708">Gebruiker</text></g><!--entity cat1--><g id="elem_cat1"><rect fill="#F1F1F1" height="46.2969" rx="2.5" ry="2.5" style="stroke:#181818;stroke-width:0.5;" width="109" x="240.0068" y="273.3656"/><rect fill="#F1F1F1" height="10" style="stroke:#181818;stroke-width:0.5;" width="15" x="329.0068" y="278.3656"/><rect fill="#F1F1F1" height="2" style="stroke:#181818;stroke-width:0.5;" width="4" x="327.0068" y="280.3656"/><rect fill="#F1F1F1" height="2" style="stroke:#181818;stroke-width:0.5;" width="4" x="327.0068" y="284.3656"/><text fill="#000000" font-family="sans-serif" font-size="14" lengthAdjust="spacing" textLength="69" x="255.0068" y="306.3608">Catalogus</text></g><!--entity cat3--><g id="elem_cat3"><rect fill="#F1F1F1" height="46.2969" rx="2.5" ry="2.5" style="stroke:#181818;stroke-width:0.5;" width="109" x="40.0068" y="273.3656"/><rect fill="#F1F1F1" height="10" style="stroke:#181818;stroke-width:0.5;" width="15" x="129.0068" y="278.3656"/><rect fill="#F1F1F1" height="2" style="stroke:#181818;stroke-width:0.5;" width="4" x="127.0068" y="280.3656"/><rect fill="#F1F1F1" height="2" style="stroke:#181818;stroke-width:0.5;" width="4" x="127.0068" y="284.3656"/><text fill="#000000" font-family="sans-serif" font-size="14" lengthAdjust="spacing" textLength="69" x="55.0068" y="306.3608">Catalogus</text></g><!--entity cat2--><g id="elem_cat2"><rect fill="#F1F1F1" height="46.2969" rx="2.5" ry="2.5" style="stroke:#181818;stroke-width:0.5;" width="109" x="440.0068" y="273.3656"/><rect fill="#F1F1F1" height="10" style="stroke:#181818;stroke-width:0.5;" width="15" x="529.0068" y="278.3656"/><rect fill="#F1F1F1" height="2" style="stroke:#181818;stroke-width:0.5;" width="4" x="527.0068" y="280.3656"/><rect fill="#F1F1F1" height="2" style="stroke:#181818;stroke-width:0.5;" width="4" x="527.0068" y="284.3656"/><text fill="#000000" font-family="sans-serif" font-size="14" lengthAdjust="spacing" textLength="69" x="455.0068" y="306.3608">Catalogus</text></g><!--link user to cat1--><g id="link_user_cat1"><path d="M294.5068,173.5656 C294.5068,204.4656 294.5068,241.3256 294.5068,267.1456 " fill="none" id="user-to-cat1" style="stroke:#181818;stroke-width:1.0;stroke-dasharray:7.0,7.0;"/><polygon fill="#181818" points="294.5068,273.1456,298.5068,264.1456,294.5068,268.1456,290.5068,264.1456,294.5068,273.1456" style="stroke:#181818;stroke-width:1.0;"/><text fill="#000000" font-family="sans-serif" font-size="13" lengthAdjust="spacing" textLength="64" x="295.5068" y="218.4325">Opzoeken</text></g><!--link cat1 to cat2--><g id="link_cat1_cat2"><path d="M349.4268,296.5156 C377.5268,296.5156 405.6268,296.5156 433.7168,296.5156 " fill="none" id="cat1-to-cat2" style="stroke:#181818;stroke-width:1.0;stroke-dasharray:7.0,7.0;"/><polygon fill="#181818" points="439.7168,296.5156,430.7168,292.5156,434.7168,296.5156,430.7168,300.5156,439.7168,296.5156" style="stroke:#181818;stroke-width:1.0;"/><text fill="#000000" font-family="sans-serif" font-size="13" lengthAdjust="spacing" textLength="54" x="367.5068" y="312.5825">Gebruikt</text></g><!--reverse link cat3 to cat1--><g id="link_cat3_cat1"><path d="M155.4268,296.5156 C183.5268,296.5156 211.6268,296.5156 239.7168,296.5156 " fill="none" id="cat3-backto-cat1" style="stroke:#181818;stroke-width:1.0;stroke-dasharray:7.0,7.0;"/><polygon fill="#181818" points="149.4268,296.5156,158.4268,300.5156,154.4268,296.5156,158.4268,292.5156,149.4268,296.5156" style="stroke:#181818;stroke-width:1.0;"/><text fill="#000000" font-family="sans-serif" font-size="13" lengthAdjust="spacing" textLength="54" x="167.5068" y="289.5825">Gebruikt</text></g><text fill="#888888" font-family="sans-serif" font-size="10" lengthAdjust="spacing" textLength="141" x="209.5568" y="371.0106">Open Catalogi | Components</text><!--SRC=[TOyn3u9038Nt_ehcVW09k36uC1Wd1qVZS4A12yULt9MOYFvtFIHgZ8vzxtrzhHYnbEDk88U55csvCL0p2_al5QzOS3-m8oS1Mj9LZEnDFv05A2sF5QgjUu2EH4sWIs6FQaCdFvgEl48TS0pa0Mxm0jWtc2gS00zBqHYECLbgIN-9gqX_mDaVE9jROXyc5PzTifvNngSkJ1qvY2CctZIjFCqin-LQMKnBzUAjtjuT]--></g></svg>