<svg xmlns="http://www.w3.org/2000/svg" xmlns:xlink="http://www.w3.org/1999/xlink" contentStyleType="text/css" height="470px" preserveAspectRatio="none" style="width:410px;height:470px;background:#FFFFFF;" version="1.1" viewBox="0 0 410 470" width="410px" zoomAndPan="magnify"><defs/><g><text fill="#888888" font-family="sans-serif" font-size="10" lengthAdjust="spacing" textLength="105.21" x="290.79" y="9.2822">Componenten Matrix</text><text fill="#000000" font-family="sans-serif" font-size="14" font-weight="bold" lengthAdjust="spacing" textLength="111.3574" x="142.3213" y="35.6357">Open Catalogi</text><!--cluster Layer 5 (interactie)--><g id="cluster_Layer 5 (interactie)"><path d="M8.5,55.9375 L162.2695,55.9375 A3.75,3.75 0 0 1 164.7695,58.4375 L171.7695,78.2344 L400.5,78.2344 A2.5,2.5 0 0 1 403,80.7344 L403,150.7375 A2.5,2.5 0 0 1 400.5,153.2375 L8.5,153.2375 A2.5,2.5 0 0 1 6,150.7375 L6,58.4375 A2.5,2.5 0 0 1 8.5,55.9375 " fill="none" style="stroke:#000000;stroke-width:1.5;"/><line style="stroke:#000000;stroke-width:1.5;" x1="6" x2="171.7695" y1="78.2344" y2="78.2344"/><text fill="#000000" font-family="sans-serif" font-size="14" font-weight="bold" lengthAdjust="spacing" textLength="152.7695" x="10" y="70.9326">Layer 5 (interactie)</text></g><!--cluster Layer 2 (api)--><g id="cluster_Layer 2 (api)"><path d="M59.5,202.2375 L160.9473,202.2375 A3.75,3.75 0 0 1 163.4473,204.7375 L170.4473,224.5344 L356.5,224.5344 A2.5,2.5 0 0 1 359,227.0344 L359,297.0275 A2.5,2.5 0 0 1 356.5,299.5275 L59.5,299.5275 A2.5,2.5 0 0 1 57,297.0275 L57,204.7375 A2.5,2.5 0 0 1 59.5,202.2375 " fill="none" style="stroke:#000000;stroke-width:1.5;"/><line style="stroke:#000000;stroke-width:1.5;" x1="57" x2="170.4473" y1="224.5344" y2="224.5344"/><text fill="#000000" font-family="sans-serif" font-size="14" font-weight="bold" lengthAdjust="spacing" textLength="100.4473" x="61" y="217.2326">Layer 2 (api)</text></g><!--cluster Layer 1 (data)--><g id="cluster_Layer 1 (data)"><path d="M36.5,348.5275 L149.2881,348.5275 A3.75,3.75 0 0 1 151.7881,351.0275 L158.7881,370.8244 L386.5,370.8244 A2.5,2.5 0 0 1 389,373.3244 L389,442.3275 A2.5,2.5 0 0 1 386.5,444.8275 L36.5,444.8275 A2.5,2.5 0 0 1 34,442.3275 L34,351.0275 A2.5,2.5 0 0 1 36.5,348.5275 " fill="none" style="stroke:#000000;stroke-width:1.5;"/><line style="stroke:#000000;stroke-width:1.5;" x1="34" x2="158.7881" y1="370.8244" y2="370.8244"/><text fill="#000000" font-family="sans-serif" font-size="14" font-weight="bold" lengthAdjust="spacing" textLength="111.7881" x="38" y="363.5226">Layer 1 (data)</text></g><!--entity userUi--><g id="elem_userUi"><rect fill="#F1F1F1" height="46.2969" rx="2.5" ry="2.5" style="stroke:#181818;stroke-width:0.5;" width="172.4326" x="21.78" y="90.9375"/><rect fill="#F1F1F1" height="10" style="stroke:#181818;stroke-width:0.5;" width="15" x="174.2126" y="95.9375"/><rect fill="#F1F1F1" height="2" style="stroke:#181818;stroke-width:0.5;" width="4" x="172.2126" y="97.9375"/><rect fill="#F1F1F1" height="2" style="stroke:#181818;stroke-width:0.5;" width="4" x="172.2126" y="101.9375"/><text fill="#000000" font-family="sans-serif" font-size="14" lengthAdjust="spacing" textLength="132.4326" x="36.78" y="123.9326">Publicatie platform</text></g><!--entity adminUI--><g id="elem_adminUI"><rect fill="#F1F1F1" height="46.2969" rx="2.5" ry="2.5" style="stroke:#181818;stroke-width:0.5;" width="157.2021" x="229.4" y="90.9375"/><rect fill="#F1F1F1" height="10" style="stroke:#181818;stroke-width:0.5;" width="15" x="366.6021" y="95.9375"/><rect fill="#F1F1F1" height="2" style="stroke:#181818;stroke-width:0.5;" width="4" x="364.6021" y="97.9375"/><rect fill="#F1F1F1" height="2" style="stroke:#181818;stroke-width:0.5;" width="4" x="364.6021" y="101.9375"/><text fill="#000000" font-family="sans-serif" font-size="14" lengthAdjust="spacing" textLength="117.2021" x="244.4" y="123.9326">Beheer Interface</text></g><!--entity searchAPI--><g id="elem_searchAPI"><rect fill="#F1F1F1" height="46.2969" rx="2.5" ry="2.5" style="stroke:#181818;stroke-width:0.5;" width="118.9619" x="72.52" y="237.2375"/><rect fill="#F1F1F1" height="10" style="stroke:#181818;stroke-width:0.5;" width="15" x="171.4819" y="242.2375"/><rect fill="#F1F1F1" height="2" style="stroke:#181818;stroke-width:0.5;" width="4" x="169.4819" y="244.2375"/><rect fill="#F1F1F1" height="2" style="stroke:#181818;stroke-width:0.5;" width="4" x="169.4819" y="248.2375"/><text fill="#000000" font-family="sans-serif" font-size="14" lengthAdjust="spacing" textLength="78.9619" x="87.52" y="270.2326">Zoeken API</text></g><!--entity beheerAPI--><g id="elem_beheerAPI"><rect fill="#F1F1F1" height="46.2969" rx="2.5" ry="2.5" style="stroke:#181818;stroke-width:0.5;" width="116.6719" x="226.66" y="237.2375"/><rect fill="#F1F1F1" height="10" style="stroke:#181818;stroke-width:0.5;" width="15" x="323.3319" y="242.2375"/><rect fill="#F1F1F1" height="2" style="stroke:#181818;stroke-width:0.5;" width="4" x="321.3319" y="244.2375"/><rect fill="#F1F1F1" height="2" style="stroke:#181818;stroke-width:0.5;" width="4" x="321.3319" y="248.2375"/><text fill="#000000" font-family="sans-serif" font-size="14" lengthAdjust="spacing" textLength="76.6719" x="241.66" y="270.2326">Beheer API</text></g><!--entity elastic--><g id="elem_elastic"><path d="M50.06,393.5275 C50.06,383.5275 98.9975,383.5275 98.9975,383.5275 C98.9975,383.5275 147.935,383.5275 147.935,393.5275 L147.935,418.8244 C147.935,428.8244 98.9975,428.8244 98.9975,428.8244 C98.9975,428.8244 50.06,428.8244 50.06,418.8244 L50.06,393.5275 " fill="#F1F1F1" style="stroke:#181818;stroke-width:0.5;"/><path d="M50.06,393.5275 C50.06,403.5275 98.9975,403.5275 98.9975,403.5275 C98.9975,403.5275 147.935,403.5275 147.935,393.5275 " fill="none" style="stroke:#181818;stroke-width:0.5;"/><text fill="#000000" font-family="sans-serif" font-size="14" lengthAdjust="spacing" textLength="77.875" x="60.06" y="420.5226">Zoek index</text></g><!--entity ORC--><g id="elem_ORC"><path d="M239.18,393.5275 C239.18,383.5275 305.9969,383.5275 305.9969,383.5275 C305.9969,383.5275 372.8138,383.5275 372.8138,393.5275 L372.8138,418.8244 C372.8138,428.8244 305.9969,428.8244 305.9969,428.8244 C305.9969,428.8244 239.18,428.8244 239.18,418.8244 L239.18,393.5275 " fill="#F1F1F1" style="stroke:#181818;stroke-width:0.5;"/><path d="M239.18,393.5275 C239.18,403.5275 305.9969,403.5275 305.9969,403.5275 C305.9969,403.5275 372.8138,403.5275 372.8138,393.5275 " fill="none" style="stroke:#181818;stroke-width:0.5;"/><text fill="#000000" font-family="sans-serif" font-size="14" lengthAdjust="spacing" textLength="113.6338" x="249.18" y="420.5226">Objecten opslag</text></g><!--link adminUI to beheerAPI--><g id="link_adminUI_beheerAPI"><path d="M304.41,137.6275 C300.09,164.7375 293.8244,204.0323 289.5144,231.0723 " fill="none" id="adminUI-to-beheerAPI" style="stroke:#181818;stroke-width:1.0;stroke-dasharray:7.0,7.0;"/><polygon fill="#181818" points="288.57,236.9975,293.9368,228.7393,289.357,232.0598,286.0365,227.4801,288.57,236.9975" style="stroke:#181818;stroke-width:1.0;"/><text fill="#000000" font-family="sans-serif" font-size="13" lengthAdjust="spacing" textLength="53.041" x="300" y="182.3044">Opslaan</text></g><!--reverse link userUi to searchAPI--><g id="link_userUi_searchAPI"><path d="M112.7346,143.5462 C117.2446,170.6562 123.78,209.9575 128.28,236.9975 " fill="none" id="userUi-backto-searchAPI" style="stroke:#181818;stroke-width:1.0;stroke-dasharray:7.0,7.0;"/><polygon fill="#181818" points="111.75,137.6275,109.2812,147.1619,112.5705,142.5597,117.1727,145.8491,111.75,137.6275" style="stroke:#181818;stroke-width:1.0;"/><text fill="#000000" font-family="sans-serif" font-size="13" lengthAdjust="spacing" textLength="65.0254" x="121" y="182.3044">Opzoeken</text></g><!--link beheerAPI to ORC--><g id="link_beheerAPI_ORC"><path d="M288.28,283.8475 C292.25,311.0275 298.0123,350.5106 301.9423,377.4006 " fill="none" id="beheerAPI-to-ORC" style="stroke:#181818;stroke-width:1.0;stroke-dasharray:7.0,7.0;"/><polygon fill="#181818" points="302.81,383.3375,305.4664,373.8536,302.0869,378.3901,297.5505,375.0106,302.81,383.3375" style="stroke:#181818;stroke-width:1.0;"/><text fill="#000000" font-family="sans-serif" font-size="13" lengthAdjust="spacing" textLength="53.041" x="295" y="328.5944">Opslaan</text></g><!--reverse link searchAPI to elastic--><g id="link_searchAPI_elastic"><path d="M125.4995,289.6958 C119.2695,316.8758 110.18,356.4475 104.01,383.3375 " fill="none" id="searchAPI-backto-elastic" style="stroke:#181818;stroke-width:1.0;stroke-dasharray:7.0,7.0;"/><polygon fill="#181818" points="126.84,283.8475,120.9303,291.7263,125.7229,288.7211,128.7281,293.5137,126.84,283.8475" style="stroke:#181818;stroke-width:1.0;"/><text fill="#000000" font-family="sans-serif" font-size="13" lengthAdjust="spacing" textLength="48.623" x="121" y="328.5944">Zoeken</text></g><!--link ORC to elastic--><g id="link_ORC_elastic"><path d="M239.05,406.1775 C209.53,406.1775 181.46,406.1775 154.32,406.1775 " fill="none" id="ORC-to-elastic" style="stroke:#181818;stroke-width:1.0;stroke-dasharray:7.0,7.0;"/><polygon fill="#181818" points="148.32,406.1775,157.32,410.1775,153.32,406.1775,157.32,402.1775,148.32,406.1775" style="stroke:#181818;stroke-width:1.0;"/><text fill="#000000" font-family="sans-serif" font-size="13" lengthAdjust="spacing" textLength="55.3198" x="166.06" y="399.2444">Updaten</text></g><text fill="#888888" font-family="sans-serif" font-size="10" lengthAdjust="spacing" textLength="144.0625" x="125.9688" y="460.1097">Open Catalogi | Components</text><!--SRC=[PP1DIyGm48Rl-HN3dkgbeE1b4K5xAYXTX5uK3zDqsiPjav1aSVtO_-wahQsujsJUvttd8wZGqnOAIneo3DYRLed6c43kNnM-8JE3DPfqyA8Zh2Eob9XynE3KKGXXKUwn9TWyu0Svk8P4CU1G1aKN6_WIyB8xLBsIo0MmFOR6kE4LqCF1aoiL0_VK4NlpQ6nGqgXYFIXTvk9qtkGA4hHgJdysjEU1xdRvQFE4JdRyMtD_fMhyHkbq5da9IStBZvdnKQ5dBMQ3qZKTDp60UlH1oJz0KRsHZFSmrlVOZbJnbCK6y_oGrkPTfxThztXhXb6BwG1mCo7hw97u7DSIYsl9uVWrOR4i8VECMvZk8XY7rAcs2-nTnDBo3gH_0000]--></g></svg>