<svg xmlns="http://www.w3.org/2000/svg" xmlns:xlink="http://www.w3.org/1999/xlink" contentStyleType="text/css" height="527px" preserveAspectRatio="none" style="width:545px;height:527px;background:#FFFFFF;" version="1.1" viewBox="0 0 545 527" width="545px" zoomAndPan="magnify"><defs/><g><text fill="#888888" font-family="sans-serif" font-size="10" lengthAdjust="spacing" textLength="105.21" x="425.79" y="9.2822">Componenten Matrix</text><text fill="#000000" font-family="sans-serif" font-size="14" font-weight="bold" lengthAdjust="spacing" textLength="111.3574" x="209.8213" y="35.6357">Open Catalogi</text><!--cluster Layer 5 (interactie)--><g id="cluster_Layer 5 (interactie)"><path d="M143.5,55.9375 L297.2695,55.9375 A3.75,3.75 0 0 1 299.7695,58.4375 L306.7695,78.2344 L535.5,78.2344 A2.5,2.5 0 0 1 538,80.7344 L538,169.7375 A2.5,2.5 0 0 1 535.5,172.2375 L143.5,172.2375 A2.5,2.5 0 0 1 141,169.7375 L141,58.4375 A2.5,2.5 0 0 1 143.5,55.9375 " fill="none" style="stroke:#000000;stroke-width:1.5;"/><line style="stroke:#000000;stroke-width:1.5;" x1="141" x2="306.7695" y1="78.2344" y2="78.2344"/><text fill="#000000" font-family="sans-serif" font-size="14" font-weight="bold" lengthAdjust="spacing" textLength="152.7695" x="145" y="70.9326">Layer 5 (interactie)</text></g><!--cluster Layer 2 (api)--><g id="cluster_Layer 2 (api)"><path d="M199.5,221.2375 L300.9473,221.2375 A3.75,3.75 0 0 1 303.4473,223.7375 L310.4473,243.5344 L496.5,243.5344 A2.5,2.5 0 0 1 499,246.0344 L499,335.0275 A2.5,2.5 0 0 1 496.5,337.5275 L199.5,337.5275 A2.5,2.5 0 0 1 197,335.0275 L197,223.7375 A2.5,2.5 0 0 1 199.5,221.2375 " fill="none" style="stroke:#000000;stroke-width:1.5;"/><line style="stroke:#000000;stroke-width:1.5;" x1="197" x2="310.4473" y1="243.5344" y2="243.5344"/><text fill="#000000" font-family="sans-serif" font-size="14" font-weight="bold" lengthAdjust="spacing" textLength="100.4473" x="201" y="236.2326">Layer 2 (api)</text></g><!--cluster Layer 1 (data)--><g id="cluster_Layer 1 (data)"><path d="M8.5,386.5275 L121.2881,386.5275 A3.75,3.75 0 0 1 123.7881,389.0275 L130.7881,408.8244 L497.5,408.8244 A2.5,2.5 0 0 1 500,411.3244 L500,499.3275 A2.5,2.5 0 0 1 497.5,501.8275 L8.5,501.8275 A2.5,2.5 0 0 1 6,499.3275 L6,389.0275 A2.5,2.5 0 0 1 8.5,386.5275 " fill="none" style="stroke:#000000;stroke-width:1.5;"/><line style="stroke:#000000;stroke-width:1.5;" x1="6" x2="130.7881" y1="408.8244" y2="408.8244"/><text fill="#000000" font-family="sans-serif" font-size="14" font-weight="bold" lengthAdjust="spacing" textLength="111.7881" x="10" y="401.5226">Layer 1 (data)</text></g><!--entity adminUI--><g id="elem_adminUI"><rect fill="#F1F1F1" height="46.2969" rx="2.5" ry="2.5" style="stroke:#181818;stroke-width:0.5;" width="157.2021" x="157.4" y="109.9375"/><rect fill="#F1F1F1" height="10" style="stroke:#181818;stroke-width:0.5;" width="15" x="294.6021" y="114.9375"/><rect fill="#F1F1F1" height="2" style="stroke:#181818;stroke-width:0.5;" width="4" x="292.6021" y="116.9375"/><rect fill="#F1F1F1" height="2" style="stroke:#181818;stroke-width:0.5;" width="4" x="292.6021" y="120.9375"/><text fill="#000000" font-family="sans-serif" font-size="14" lengthAdjust="spacing" textLength="117.2021" x="172.4" y="142.9326">Beheer Interface</text></g><!--entity userUi--><g id="elem_userUi"><rect fill="#F1F1F1" height="46.2969" rx="2.5" ry="2.5" style="stroke:#181818;stroke-width:0.5;" width="172.4326" x="349.78" y="109.9375"/><rect fill="#F1F1F1" height="10" style="stroke:#181818;stroke-width:0.5;" width="15" x="502.2126" y="114.9375"/><rect fill="#F1F1F1" height="2" style="stroke:#181818;stroke-width:0.5;" width="4" x="500.2126" y="116.9375"/><rect fill="#F1F1F1" height="2" style="stroke:#181818;stroke-width:0.5;" width="4" x="500.2126" y="120.9375"/><text fill="#000000" font-family="sans-serif" font-size="14" lengthAdjust="spacing" textLength="132.4326" x="364.78" y="142.9326">Publicatie platform</text></g><!--entity beheerAPI--><g id="elem_beheerAPI"><rect fill="#F1F1F1" height="46.2969" rx="2.5" ry="2.5" style="stroke:#181818;stroke-width:0.5;" width="116.6719" x="212.66" y="275.2375"/><rect fill="#F1F1F1" height="10" style="stroke:#181818;stroke-width:0.5;" width="15" x="309.3319" y="280.2375"/><rect fill="#F1F1F1" height="2" style="stroke:#181818;stroke-width:0.5;" width="4" x="307.3319" y="282.2375"/><rect fill="#F1F1F1" height="2" style="stroke:#181818;stroke-width:0.5;" width="4" x="307.3319" y="286.2375"/><text fill="#000000" font-family="sans-serif" font-size="14" lengthAdjust="spacing" textLength="76.6719" x="227.66" y="308.2326">Beheer API</text></g><!--entity searchAPI--><g id="elem_searchAPI"><rect fill="#F1F1F1" height="46.2969" rx="2.5" ry="2.5" style="stroke:#181818;stroke-width:0.5;" width="118.9619" x="364.52" y="275.2375"/><rect fill="#F1F1F1" height="10" style="stroke:#181818;stroke-width:0.5;" width="15" x="463.4819" y="280.2375"/><rect fill="#F1F1F1" height="2" style="stroke:#181818;stroke-width:0.5;" width="4" x="461.4819" y="282.2375"/><rect fill="#F1F1F1" height="2" style="stroke:#181818;stroke-width:0.5;" width="4" x="461.4819" y="286.2375"/><text fill="#000000" font-family="sans-serif" font-size="14" lengthAdjust="spacing" textLength="78.9619" x="379.52" y="308.2326">Zoeken API</text></g><!--entity elastic--><g id="elem_elastic"><path d="M386.06,450.5275 C386.06,440.5275 434.9975,440.5275 434.9975,440.5275 C434.9975,440.5275 483.935,440.5275 483.935,450.5275 L483.935,475.8244 C483.935,485.8244 434.9975,485.8244 434.9975,485.8244 C434.9975,485.8244 386.06,485.8244 386.06,475.8244 L386.06,450.5275 " fill="#F1F1F1" style="stroke:#181818;stroke-width:0.5;"/><path d="M386.06,450.5275 C386.06,460.5275 434.9975,460.5275 434.9975,460.5275 C434.9975,460.5275 483.935,460.5275 483.935,450.5275 " fill="none" style="stroke:#181818;stroke-width:0.5;"/><text fill="#000000" font-family="sans-serif" font-size="14" lengthAdjust="spacing" textLength="77.875" x="396.06" y="477.5226">Zoek index</text></g><!--entity ORC--><g id="elem_ORC"><path d="M22.18,450.5275 C22.18,440.5275 88.9969,440.5275 88.9969,440.5275 C88.9969,440.5275 155.8138,440.5275 155.8138,450.5275 L155.8138,475.8244 C155.8138,485.8244 88.9969,485.8244 88.9969,485.8244 C88.9969,485.8244 22.18,485.8244 22.18,475.8244 L22.18,450.5275 " fill="#F1F1F1" style="stroke:#181818;stroke-width:0.5;"/><path d="M22.18,450.5275 C22.18,460.5275 88.9969,460.5275 88.9969,460.5275 C88.9969,460.5275 155.8138,460.5275 155.8138,450.5275 " fill="none" style="stroke:#181818;stroke-width:0.5;"/><text fill="#000000" font-family="sans-serif" font-size="14" lengthAdjust="spacing" textLength="113.6338" x="32.18" y="477.5226">Objecten opslag</text></g><!--entity DMS--><g id="elem_DMS"><path d="M190.72,450.5275 C190.72,440.5275 271.0037,440.5275 271.0037,440.5275 C271.0037,440.5275 351.2874,440.5275 351.2874,450.5275 L351.2874,475.8244 C351.2874,485.8244 271.0037,485.8244 271.0037,485.8244 C271.0037,485.8244 190.72,485.8244 190.72,475.8244 L190.72,450.5275 " fill="#F1F1F1" style="stroke:#181818;stroke-width:0.5;"/><path d="M190.72,450.5275 C190.72,460.5275 271.0037,460.5275 271.0037,460.5275 C271.0037,460.5275 351.2874,460.5275 351.2874,450.5275 " fill="none" style="stroke:#181818;stroke-width:0.5;"/><text fill="#000000" font-family="sans-serif" font-size="14" lengthAdjust="spacing" textLength="140.5674" x="200.72" y="477.5226">Documenten opslag</text></g><!--link adminUI to beheerAPI--><g id="link_adminUI_beheerAPI"><path d="M240.79,156.4475 C247.46,187.5475 258.2032,237.6706 264.8932,268.9006 " fill="none" id="adminUI-to-beheerAPI" style="stroke:#181818;stroke-width:1.0;stroke-dasharray:7.0,7.0;"/><polygon fill="#181818" points="266.15,274.7675,268.1761,265.1293,265.1027,269.8784,260.3536,266.805,266.15,274.7675" style="stroke:#181818;stroke-width:1.0;"/><text fill="#000000" font-family="sans-serif" font-size="13" lengthAdjust="spacing" textLength="53.041" x="251" y="201.3044">Opslaan</text></g><!--reverse link userUi to searchAPI--><g id="link_userUi_searchAPI"><path d="M433.9194,162.4313 C431.6294,193.5313 427.96,243.5375 425.66,274.7675 " fill="none" id="userUi-backto-searchAPI" style="stroke:#181818;stroke-width:1.0;stroke-dasharray:7.0,7.0;"/><polygon fill="#181818" points="434.36,156.4475,429.7099,165.1295,433.9928,161.434,437.6883,165.7169,434.36,156.4475" style="stroke:#181818;stroke-width:1.0;"/><text fill="#000000" font-family="sans-serif" font-size="13" lengthAdjust="spacing" textLength="65.0254" x="432" y="201.3044">Opzoeken</text></g><!--link beheerAPI to ORC--><g id="link_beheerAPI_ORC"><path d="M212.38,302.3275 C174.68,307.4975 127.89,320.6975 101,353.5275 C81.04,377.8975 81.1545,410.3965 84.2445,434.4165 " fill="none" id="beheerAPI-to-ORC" style="stroke:#181818;stroke-width:1.0;stroke-dasharray:7.0,7.0;"/><polygon fill="#181818" points="85.01,440.3675,87.829,430.9307,84.372,435.4084,79.8944,431.9514,85.01,440.3675" style="stroke:#181818;stroke-width:1.0;"/><text fill="#000000" font-family="sans-serif" font-size="13" lengthAdjust="spacing" textLength="53.041" x="102" y="366.5944">Opslaan</text></g><!--link beheerAPI to DMS--><g id="link_beheerAPI_DMS"><path d="M271,322.0175 C271,353.2975 271,403.3575 271,434.2575 " fill="none" id="beheerAPI-to-DMS" style="stroke:#181818;stroke-width:1.0;stroke-dasharray:7.0,7.0;"/><polygon fill="#181818" points="271,440.2575,275,431.2575,271,435.2575,267,431.2575,271,440.2575" style="stroke:#181818;stroke-width:1.0;"/><text fill="#000000" font-family="sans-serif" font-size="13" lengthAdjust="spacing" textLength="53.041" x="272" y="366.5944">Opslaan</text></g><!--reverse link searchAPI to elastic--><g id="link_searchAPI_elastic"><path d="M425.9338,328.0039 C428.0438,359.2839 431.43,409.3575 433.52,440.2575 " fill="none" id="searchAPI-backto-elastic" style="stroke:#181818;stroke-width:1.0;stroke-dasharray:7.0,7.0;"/><polygon fill="#181818" points="425.53,322.0175,422.1448,331.2663,425.8665,327.0062,430.1267,330.7279,425.53,322.0175" style="stroke:#181818;stroke-width:1.0;"/><text fill="#000000" font-family="sans-serif" font-size="13" lengthAdjust="spacing" textLength="48.623" x="429" y="366.5944">Zoeken</text></g><!--link ORC to elastic--><g id="link_ORC_elastic"><path d="M101.36,440.1975 C114.07,419.2475 136.02,389.6675 164.5,376.7175 C194.72,362.9975 302.85,345.7275 369,378.5275 C394.88,391.3675 410.8054,414.3833 421.5654,434.7333 " fill="none" id="ORC-to-elastic" style="stroke:#181818;stroke-width:1.0;stroke-dasharray:7.0,7.0;"/><polygon fill="#181818" points="424.37,440.0375,423.6993,430.2115,422.0329,435.6173,416.627,433.9509,424.37,440.0375" style="stroke:#181818;stroke-width:1.0;"/><text fill="#000000" font-family="sans-serif" font-size="13" lengthAdjust="spacing" textLength="55.3198" x="165.5" y="366.5944">Updaten</text></g><text fill="#888888" font-family="sans-serif" font-size="10" lengthAdjust="spacing" textLength="144.0625" x="193.4688" y="517.1097">Open Catalogi | Components</text><!--SRC=[PP5FJyCm3CNl-HHMJ-Ko2IGk4qA2xLA9QHDe5n07DtNRi3Q9aaoCF_lkEEre1xqrVZy_swz1XORciBQaOO416rCfKHeJoFshmZSiJ6kD9Xsyg0cBY0mb9bSOd3e88IpA7LO4oGD-a8DhI1K33cLGT970bu2NUwg9fIpMIvJq2kW1YrRfRSRoPfytIYBpO1iCfN5jH-mzkQqIn-cGAqZHgh_kTvkiwygx9xzOUZQqurr_9K_eP1sbuyJo4jA2Z-yyuqUEdhLe04eNT4YY0JNeWv9dm3f_8ndpCDOtM7NK-d5nHYoDtBTzPcVCSlKKbpY50BF2lElPxRXy_1yCenPz2d3J8-CDaVZixXD3r-33AumEKvcdZ_BWECmudJc7FZ_1RZ1pgge3zmxYrlAHf7y0]--></g></svg>