<svg xmlns="http://www.w3.org/2000/svg" xmlns:xlink="http://www.w3.org/1999/xlink" contentStyleType="text/css" height="1024px" preserveAspectRatio="none" style="width:1191px;height:1024px;background:#FFFFFF;" version="1.1" viewBox="0 0 1191 1024" width="1191px" zoomAndPan="magnify"><defs/><g><text fill="#888888" font-family="sans-serif" font-size="10" lengthAdjust="spacing" textLength="141" x="1040.846" y="9.2822">Open Catalogi | Components</text><text fill="#000000" font-family="sans-serif" font-size="14" font-weight="bold" lengthAdjust="spacing" textLength="100" x="540.923" y="35.6357">Components</text><!--cluster Identity & Access--><g id="cluster_Identity &amp; Access"><path d="M941.9287,834.2858 C945.194,829.7096 949.8855,829.7943 953.0525,834.4049 C955.9203,827.8144 960.7453,828.8534 964.7089,833.2414 C967.6633,827.5517 972.9545,826.3058 976.7415,832.3905 C979.2913,826.9926 983.5478,827.3827 986.8294,831.6247 C990.2676,825.7961 994.5439,825.5875 998.4585,831.1377 C1001.7578,826.1504 1007.7443,825.0592 1010.8342,831.3671 C1014.492,827.0091 1018.0519,826.8623 1021.3806,831.7427 C1024.2203,826.6372 1030.0149,826.4785 1033.3563,831.1266 C1037.8111,824.4825 1042.8573,825.4781 1046.1695,832.2203 C1048.98,828.2485 1052.9815,827.3627 1055.6856,832.3335 C1059.6189,827.0029 1064.8639,827.201 1068.5697,832.6065 C1072.9969,828.189 1077.2477,828.5299 1079.5891,834.7642 C1086.2841,836.9881 1089.2299,841.5563 1083.511,847.5794 C1091.0369,849.2045 1092.8977,855.7079 1087.0688,860.9 C1094.2444,863.6432 1095.2317,869.3093 1088.747,873.826 C1095.5982,880.0947 1094.4241,884.9109 1086.1243,888.4652 C1090.7797,893.5174 1089.6538,900.6877 1082.2303,902.353 C1087.2632,907.7054 1087.1896,913.0693 1079.7641,916.2033 C1076.238,922.0966 1071.9144,921.6875 1068.336,916.2561 C1065.7253,922.186 1060.744,922.7057 1056.4013,918.2455 C1054.7368,925.1356 1049.4164,926.2817 1044.827,921.0348 C1040.558,927.4924 1036.7886,927.3417 1032.5002,921.0535 C1030.4445,925.8582 1025.5307,926.3105 1022.3906,922.2967 C1019.9962,928.3853 1014.0228,930.9518 1009.4995,924.4818 C1006.187,928.5789 1002.3485,928.3949 999.7435,923.6969 C994.9434,928.6266 989.451,928.7904 987.1461,921.1886 C983.7546,925.6021 979.1089,925.8657 976.7654,920.118 C972.187,925.7772 965.658,924.4355 963.4811,917.5707 C959.7797,921.9506 955.7998,921.8147 952.7447,916.8298 C947.6998,921.6896 943.2627,921.1647 940.1503,914.6837 C934.4782,911.4758 934.9227,905.5558 940.6439,902.8219 C933.2856,899.7516 932.863,893.2756 939.1289,888.7396 C931.5986,884.6882 930.7441,878.4596 938.6625,873.9219 C932.8747,869.4731 931.6885,865.4657 938.3319,860.7059 C933.5845,855.7848 932.6492,851.4241 939.6895,847.7369 C933.5884,842.5109 935.7937,837.4749 941.9287,834.2858 " fill="none" style="stroke:#181818;stroke-width:1.0;"/><text fill="#000000" font-family="sans-serif" font-size="14" font-weight="bold" lengthAdjust="spacing" textLength="139" x="939.83" y="851.0543">Identity &amp; Access</text></g><!--cluster Gebruikers--><g id="cluster_Gebruikers"><path d="M127.2179,105.2751 C132.3153,97.144 141.492,95.9392 145.5966,106.2637 C152.1261,97.4843 157.8817,95.9424 164.7009,105.9694 C170.3557,97.2818 177.9481,93.7504 185.0859,104.4065 C191.8477,95.6136 200.5433,93.6388 206.1839,105.5491 C210.3694,94.668 218.7478,94.889 224.9872,103.5754 C231.295,95.9648 236.9218,96.4831 241.906,104.9668 C246.6013,94.0654 253.3867,95.5349 260.386,102.5966 C266.6279,91.5899 277.1502,93.4846 282.1824,103.8314 C288.4954,95.9669 296.0457,95.2414 302.0748,104.1678 C307.1322,96.4805 315.1748,94.9467 320.191,104.2117 C326.6717,94.3129 335.0544,95.822 340.6233,105.1794 C346.1019,97.4927 354.8982,97.7403 359.1618,106.5452 C364.193,97.1871 372.1253,98.7477 377.0261,106.68 C386.3277,97.8654 395.5715,97.3507 401.83,110.1692 C403.4241,110.381 404.2098,111.2122 403.2762,112.8089 C417.0315,120.1702 415.7232,127.932 405.0803,137.1049 C418.2974,142.434 418.1906,151.6932 408.4067,160.3183 C419.5115,171.069 415.1083,177.9072 403.5329,183.9877 C417.0074,197.111 412.6354,210.2767 394.83,214.4692 C396.2079,213.9182 397.275,214.563 397.0605,216.1391 C392.3789,226.3609 382.9473,226.0701 377.588,216.8167 C373.0331,225.262 364.0284,225.6023 358.6167,217.8181 C354.2391,225.5531 346.7186,228.5002 340.6239,219.6847 C334.8408,229.7208 328.1006,230.3987 319.9755,222.3601 C314.972,231.7042 308.4771,232.7775 300.6309,225.711 C295.4401,233.6925 287.3425,234.4313 281.5118,226.4787 C275.0817,237.3032 268.9158,236.1896 261.8925,227.0619 C255.9702,237.249 247.9876,235.0411 242.9185,226.2106 C236.9303,234.369 229.6288,234.7071 224.6516,225.1672 C218.4752,236.1693 208.0393,235.5538 203.4325,223.7093 C198.3591,231.1111 191.1635,230.7713 187.1547,222.5968 C180.3329,231.5638 169.7849,230.3848 164.9308,220.3013 C159.525,227.1777 150.5544,226.2947 146.8084,218.2812 C132.6222,229.6993 121.5675,225.6772 118.83,207.4692 C121.7492,207.3204 122.2157,208.7271 121.4573,211.1812 C109.354,207.5529 103.8002,196.2342 115.073,186.5474 C101.7956,183.2612 97.7966,172.2237 106.3901,161.3891 C95.3162,151.1425 101.636,139.9358 113.7408,136.5479 C102.8741,120.4714 104.0474,107.4206 125.83,103.1692 C127.0801,103.1277 127.7191,104.1623 127.2179,105.2751 " fill="none" style="stroke:#181818;stroke-width:1.0;"/><text fill="#000000" font-family="sans-serif" font-size="14" font-weight="bold" lengthAdjust="spacing" textLength="88" x="216.33" y="121.1643">Gebruikers</text></g><!--cluster Externe Applicaties--><g id="cluster_Externe Applicaties"><path d="M646.236,77.0731 C659.4328,62.0919 672.9439,60.1377 683.4536,79.9477 C691.3548,62.0407 705.9984,61.2706 717.2135,76.5795 C729.646,58.6506 748.7558,58.8547 759.4615,78.5202 C768.7378,61.232 782.4188,60.3431 794.6961,75.2343 C805.945,59.4293 818.9096,62.0329 827.7126,77.7927 C838.4339,60.797 850.5091,57.9438 865.2755,73.061 C877.0472,55.4466 887.9284,56.1837 900.4823,72.2432 C913.0534,59.3914 926.1354,58.4344 934.1598,77.1012 C945.1681,58.2386 959.5087,57.4376 971.9431,75.6478 C980.2296,57.3723 997.1425,56.9499 1006.5198,74.5979 C1019.2832,53.0202 1038.289,55.4736 1048.9552,76.6782 C1059.7602,61.5841 1070.5435,59.638 1080.9441,77.0758 C1089.993,57.0172 1105.8985,57.6318 1117.3764,74.6919 C1134.2243,60.5035 1147.6991,60.0167 1157.83,82.1692 C1162.1852,81.3108 1164.7541,83.2539 1163.2547,87.919 C1179.534,94.8082 1176.6407,108.1463 1165.2058,116.9011 C1184.7289,129.9333 1183.5504,145.2326 1162.3066,155.1769 C1173.0272,164.099 1172.8029,175.2499 1160.8545,182.9884 C1176.4964,199.1546 1173.7425,216.8505 1150.83,223.4692 C1154.9608,224.1747 1155.8865,226.4748 1153.4978,229.8894 C1140.9493,246.7609 1126.7634,241.5689 1118.1314,225.6634 C1106.5482,241.3897 1094.537,242.3881 1081.1108,227.9234 C1071.9479,244.3307 1056.533,243.6492 1046.5665,228.8118 C1038.0881,248.0923 1021.9498,247.4432 1010.0388,232.4725 C998.0404,249.8082 986.3519,250.0228 971.8579,235.4595 C959.5841,252.5855 946.1201,251.5946 936.0028,233.2779 C926.9501,254.0716 912.4646,254.8081 898.0183,238.8528 C886.1948,254.4302 875.2877,254.0573 865.4918,236.8417 C853.5875,251.5747 839.1374,255.2822 828.9166,235.0793 C817.5949,249.3977 801.3714,250.8723 792.6215,232.2459 C783.3395,250.8602 766.8059,247.3696 758.2688,231.5037 C745.1299,248.3525 728.5619,249.3151 719.5748,227.3633 C709.2924,247.0855 691.7843,243.4902 681.5418,227.321 C663.5915,243.0579 646.3228,238.8277 637.83,216.4692 C640.6445,214.6293 642.5529,215.2917 643.1228,218.723 C624.5978,213.7023 623.9574,203.5686 632.8679,189.0623 C615.0532,181.8647 613.2987,164.2559 627.8215,152.5847 C616.1229,139.9671 619.8199,124.9929 637.6277,121.7631 C620.0373,106.8233 621.1368,83.7275 644.83,75.1692 C646.0663,75.1258 646.8437,75.7548 646.236,77.0731 " fill="none" style="stroke:#181818;stroke-width:1.0;"/><text fill="#000000" font-family="sans-serif" font-size="14" font-weight="bold" lengthAdjust="spacing" textLength="152" x="821.83" y="93.1643">Externe Applicaties</text></g><!--cluster Bronnen--><g id="cluster_Bronnen"><path d="M656.33,110.1692 L724.33,110.1692 A3.75,3.75 0 0 1 726.83,112.6692 L733.83,132.466 L917.33,132.466 A2.5,2.5 0 0 1 919.83,134.966 L919.83,204.9692 A2.5,2.5 0 0 1 917.33,207.4692 L656.33,207.4692 A2.5,2.5 0 0 1 653.83,204.9692 L653.83,112.6692 A2.5,2.5 0 0 1 656.33,110.1692 " fill="none" style="stroke:#000000;stroke-width:1.5;"/><line style="stroke:#000000;stroke-width:1.5;" x1="653.83" x2="733.83" y1="132.466" y2="132.466"/><text fill="#000000" font-family="sans-serif" font-size="14" font-weight="bold" lengthAdjust="spacing" textLength="67" x="657.83" y="125.1643">Bronnen</text></g><!--cluster Catalogi--><g id="cluster_Catalogi"><path d="M946.33,110.1692 L1010.33,110.1692 A3.75,3.75 0 0 1 1012.83,112.6692 L1019.83,132.466 L1139.33,132.466 A2.5,2.5 0 0 1 1141.83,134.966 L1141.83,204.9692 A2.5,2.5 0 0 1 1139.33,207.4692 L946.33,207.4692 A2.5,2.5 0 0 1 943.83,204.9692 L943.83,112.6692 A2.5,2.5 0 0 1 946.33,110.1692 " fill="none" style="stroke:#000000;stroke-width:1.5;"/><line style="stroke:#000000;stroke-width:1.5;" x1="943.83" x2="1019.83" y1="132.466" y2="132.466"/><text fill="#000000" font-family="sans-serif" font-size="14" font-weight="bold" lengthAdjust="spacing" textLength="63" x="947.83" y="125.1643">Catalogi</text></g><!--cluster Kubernetes--><g id="cluster_Kubernetes"><path d="M221.7017,296.4583 C234.885,276.0067 252.0369,275.4449 267.7059,293.4877 C277.6125,268.9468 301.9899,267.6263 317.9857,286.423 C332.8173,264.6241 357.7739,259.6279 371.2407,287.8753 C384.04,263.9207 397.4506,266.512 413.4025,284.7231 C426.8768,264.1903 446.9116,262.7974 459.9643,285.1805 C472.1839,260.3076 493.3203,256.9779 509.8433,280.7698 C529.2832,254.4473 545.9498,257.7229 563.9265,282.3237 C578.6916,260.8583 595.8165,262.6476 607.3607,285.4817 C620.6389,263.376 643.9186,263.5599 656.6674,286.0669 C669.3403,265.2772 686.728,262.1065 703.1858,281.7077 C722.6737,257.3118 744.9243,262.3545 754.5777,291.2005 C765.1183,270.2473 787.8061,269.7972 800.4924,288.7305 C817.2421,264.6081 838.5552,268.9711 849.1369,294.7438 C864.2855,268.6977 885.4061,270.8679 899.83,295.4692 C903.483,297.9317 903.6218,300.7271 900.0035,303.3498 C925.128,309.6479 928.6236,330.442 908.6208,345.883 C932.4181,360.5017 929.8733,376.9772 910.3413,393.1723 C931.4852,410.0414 928.9896,429.8435 906.7669,443.6413 C931.7137,451.0216 936.2852,470.9475 915.4908,487.4389 C938.4762,504.5465 936.29,525.7208 909.5642,536.8678 C931.8675,543.8512 938.0698,563.85 917.7257,579.0791 C942.2345,598.2859 939.3,615.7898 913.3741,630.749 C934.4418,644.5948 935.1961,664.4994 912.008,677.0392 C934.4748,690.3506 933.2308,707.1387 912.3267,720.7662 C932.1744,735.2231 937.0814,752.1595 913.5293,767.7279 C940.7823,784.9747 934.3699,806.5489 909.4362,819.6845 C926.9723,830.5727 928.2361,850.8649 910.4837,862.6141 C929.2627,877.2632 930.3036,898.2666 906.5452,909.3294 C926.3927,932.8664 923.2349,951.819 892.83,962.3592 C897.6502,962.6041 899.1255,966.2021 895.9344,969.7927 C880.6781,994.7315 862.2926,991.9153 848.9386,967.9642 C835.2586,989.7572 812.6086,994.5401 797.91,969.0638 C780.6111,989.6255 763.6242,993.8425 748.5276,966.7803 C736.3939,985.9212 722.1578,988.3983 707.9429,968.9702 C692.7998,993.3597 670.5482,989.4227 658.6878,965.6154 C644.5642,991.3232 628.9384,995.5877 609.2303,971.1199 C595.191,996.7791 573.4976,997.32 559.3195,971.2539 C544.2491,993.3693 527.6781,989.3283 514.4128,969.3291 C499.7905,993.0573 473.5441,996.5887 459.2499,968.9765 C447.3882,990.7247 428.2008,995.4479 412.674,972.8238 C397.8281,990.4453 375.8649,987.907 366.4624,966.3957 C352.0752,987.1527 333.7811,986.9264 321.1603,964.5408 C305.9377,992.8344 289.2311,998.8665 266.7884,971.6074 C243.2334,995.9011 219.1294,983.6053 210.83,955.3592 C215.9066,953.981 219.3216,957.0186 218.2204,962.2582 C188.2836,947.6287 189.3087,931.0033 211.3327,909.5798 C185.9846,895.4457 190.8795,878.2823 209.7381,862.6463 C192.1134,850.6538 190.4568,834.039 209.8024,822.1052 C189.6445,805.2066 188.7292,786.5511 214.9526,774.6903 C187.9434,761.8589 188.0944,742.1106 212.4966,726.6508 C187.8694,713.3465 183.8663,697.4761 208.2045,679.6959 C188.1422,667.7497 184.2472,646.0676 206.9395,632.9641 C181.228,617.6236 183.779,594.5146 207.1402,579.3579 C189.6303,562.2381 190.6532,547.7319 213.8936,537.1292 C190.9504,524.2842 186.7109,508.7727 207.0681,489.6968 C188.4503,475.8146 185.8737,458.6245 208.0773,445.6782 C183.7638,428.1244 188.2429,406.7956 213.3648,394.3326 C193.5368,377.2399 194.481,358.7028 215.7128,343.507 C192.7966,325.9692 189.5374,304.037 217.83,288.4692 C222.5224,288.7521 224.1061,292.7361 221.7017,296.4583 " fill="none" style="stroke:#181818;stroke-width:1.0;"/><text fill="#000000" font-family="sans-serif" font-size="14" font-weight="bold" lengthAdjust="spacing" textLength="93" x="508.83" y="306.4643">Kubernetes</text></g><!--cluster Layer 5 (Interaction)--><g id="cluster_Layer 5 (Interaction)"><path d="M229.33,323.4692 L391.33,323.4692 A3.75,3.75 0 0 1 393.83,325.9692 L400.83,345.766 L580.33,345.766 A2.5,2.5 0 0 1 582.83,348.266 L582.83,485.2692 A2.5,2.5 0 0 1 580.33,487.7692 L229.33,487.7692 A2.5,2.5 0 0 1 226.83,485.2692 L226.83,325.9692 A2.5,2.5 0 0 1 229.33,323.4692 " fill="none" style="stroke:#000000;stroke-width:1.5;"/><line style="stroke:#000000;stroke-width:1.5;" x1="226.83" x2="400.83" y1="345.766" y2="345.766"/><text fill="#000000" font-family="sans-serif" font-size="14" font-weight="bold" lengthAdjust="spacing" textLength="161" x="230.83" y="338.4643">Layer 5 (Interaction)</text></g><!--cluster React NL Design--><g id="cluster_React NL Design"><path d="M253.33,366.4692 L382.33,366.4692 A3.75,3.75 0 0 1 384.83,368.9692 L391.83,388.766 L392.33,388.766 A2.5,2.5 0 0 1 394.83,391.266 L394.83,461.2692 A2.5,2.5 0 0 1 392.33,463.7692 L253.33,463.7692 A2.5,2.5 0 0 1 250.83,461.2692 L250.83,368.9692 A2.5,2.5 0 0 1 253.33,366.4692 " fill="none" style="stroke:#000000;stroke-width:1.5;"/><line style="stroke:#000000;stroke-width:1.5;" x1="250.83" x2="391.83" y1="388.766" y2="388.766"/><text fill="#000000" font-family="sans-serif" font-size="14" font-weight="bold" lengthAdjust="spacing" textLength="128" x="254.83" y="381.4643">React NL Design</text></g><!--cluster Vue NL Design--><g id="cluster_Vue NL Design"><path d="M421.33,366.4692 L537.33,366.4692 A3.75,3.75 0 0 1 539.83,368.9692 L546.83,388.766 L556.33,388.766 A2.5,2.5 0 0 1 558.83,391.266 L558.83,461.2692 A2.5,2.5 0 0 1 556.33,463.7692 L421.33,463.7692 A2.5,2.5 0 0 1 418.83,461.2692 L418.83,368.9692 A2.5,2.5 0 0 1 421.33,366.4692 " fill="none" style="stroke:#000000;stroke-width:1.5;"/><line style="stroke:#000000;stroke-width:1.5;" x1="418.83" x2="546.83" y1="388.766" y2="388.766"/><text fill="#000000" font-family="sans-serif" font-size="14" font-weight="bold" lengthAdjust="spacing" textLength="115" x="422.83" y="381.4643">Vue NL Design</text></g><!--cluster layer4--><g id="cluster_layer4"><path d="M648.33,366.4692 L767.33,366.4692 A3.75,3.75 0 0 1 769.83,368.9692 L776.83,388.766 L823.33,388.766 A2.5,2.5 0 0 1 825.83,391.266 L825.83,461.2692 A2.5,2.5 0 0 1 823.33,463.7692 L648.33,463.7692 A2.5,2.5 0 0 1 645.83,461.2692 L645.83,368.9692 A2.5,2.5 0 0 1 648.33,366.4692 " fill="none" style="stroke:#000000;stroke-width:1.5;"/><line style="stroke:#000000;stroke-width:1.5;" x1="645.83" x2="776.83" y1="388.766" y2="388.766"/><text fill="#000000" font-family="sans-serif" font-size="14" font-weight="bold" lengthAdjust="spacing" textLength="118" x="649.83" y="381.4643">Layer 4 (Logic)</text></g><!--cluster layer2--><g id="cluster_layer2"><path d="M399.33,544.7692 L501.33,544.7692 A3.75,3.75 0 0 1 503.83,547.2692 L510.83,567.066 L790.33,567.066 A2.5,2.5 0 0 1 792.83,569.566 L792.83,722.5592 A2.5,2.5 0 0 1 790.33,725.0592 L399.33,725.0592 A2.5,2.5 0 0 1 396.83,722.5592 L396.83,547.2692 A2.5,2.5 0 0 1 399.33,544.7692 " fill="none" style="stroke:#000000;stroke-width:1.5;"/><line style="stroke:#000000;stroke-width:1.5;" x1="396.83" x2="510.83" y1="567.066" y2="567.066"/><text fill="#000000" font-family="sans-serif" font-size="14" font-weight="bold" lengthAdjust="spacing" textLength="101" x="400.83" y="559.7643">Layer 2 (API)</text></g><!--cluster Open Index--><g id="cluster_Open Index"><path d="M431.33,595.7692 L522.33,595.7692 A3.75,3.75 0 0 1 524.83,598.2692 L531.83,618.066 L578.33,618.066 A2.5,2.5 0 0 1 580.83,620.566 L580.83,690.5592 A2.5,2.5 0 0 1 578.33,693.0592 L431.33,693.0592 A2.5,2.5 0 0 1 428.83,690.5592 L428.83,598.2692 A2.5,2.5 0 0 1 431.33,595.7692 " fill="none" style="stroke:#000000;stroke-width:1.5;"/><line style="stroke:#000000;stroke-width:1.5;" x1="428.83" x2="531.83" y1="618.066" y2="618.066"/><text fill="#000000" font-family="sans-serif" font-size="14" font-weight="bold" lengthAdjust="spacing" textLength="90" x="432.83" y="610.7643">Open Index</text></g><!--cluster Open Registers--><g id="cluster_Open Registers"><path d="M607.33,595.7692 L730.33,595.7692 A3.75,3.75 0 0 1 732.83,598.2692 L739.83,618.066 L750.33,618.066 A2.5,2.5 0 0 1 752.83,620.566 L752.83,690.5592 A2.5,2.5 0 0 1 750.33,693.0592 L607.33,693.0592 A2.5,2.5 0 0 1 604.83,690.5592 L604.83,598.2692 A2.5,2.5 0 0 1 607.33,595.7692 " fill="none" style="stroke:#000000;stroke-width:1.5;"/><line style="stroke:#000000;stroke-width:1.5;" x1="604.83" x2="739.83" y1="618.066" y2="618.066"/><text fill="#000000" font-family="sans-serif" font-size="14" font-weight="bold" lengthAdjust="spacing" textLength="122" x="608.83" y="610.7643">Open Registers</text></g><!--cluster Layer 1 (Data)--><g id="cluster_Layer 1 (Data)"><path d="M303.33,782.0592 L415.33,782.0592 A3.75,3.75 0 0 1 417.83,784.5592 L424.83,804.356 L821.33,804.356 A2.5,2.5 0 0 1 823.83,806.856 L823.83,943.8592 A2.5,2.5 0 0 1 821.33,946.3592 L303.33,946.3592 A2.5,2.5 0 0 1 300.83,943.8592 L300.83,784.5592 A2.5,2.5 0 0 1 303.33,782.0592 " fill="none" style="stroke:#000000;stroke-width:1.5;"/><line style="stroke:#000000;stroke-width:1.5;" x1="300.83" x2="424.83" y1="804.356" y2="804.356"/><text fill="#000000" font-family="sans-serif" font-size="14" font-weight="bold" lengthAdjust="spacing" textLength="111" x="304.83" y="797.0543">Layer 1 (Data)</text></g><!--cluster Search Index--><g id="cluster_Search Index"><path d="M327.33,825.0592 L431.33,825.0592 A3.75,3.75 0 0 1 433.83,827.5592 L440.83,847.356 L490.33,847.356 A2.5,2.5 0 0 1 492.83,849.856 L492.83,919.8592 A2.5,2.5 0 0 1 490.33,922.3592 L327.33,922.3592 A2.5,2.5 0 0 1 324.83,919.8592 L324.83,827.5592 A2.5,2.5 0 0 1 327.33,825.0592 " fill="none" style="stroke:#000000;stroke-width:1.5;"/><line style="stroke:#000000;stroke-width:1.5;" x1="324.83" x2="440.83" y1="847.356" y2="847.356"/><text fill="#000000" font-family="sans-serif" font-size="14" font-weight="bold" lengthAdjust="spacing" textLength="103" x="328.83" y="840.0543">Search Index</text></g><!--cluster Object Store--><g id="cluster_Object Store"><path d="M519.33,825.0592 L619.33,825.0592 A3.75,3.75 0 0 1 621.83,827.5592 L628.83,847.356 L629.33,847.356 A2.5,2.5 0 0 1 631.83,849.856 L631.83,919.8592 A2.5,2.5 0 0 1 629.33,922.3592 L519.33,922.3592 A2.5,2.5 0 0 1 516.83,919.8592 L516.83,827.5592 A2.5,2.5 0 0 1 519.33,825.0592 " fill="none" style="stroke:#000000;stroke-width:1.5;"/><line style="stroke:#000000;stroke-width:1.5;" x1="516.83" x2="628.83" y1="847.356" y2="847.356"/><text fill="#000000" font-family="sans-serif" font-size="14" font-weight="bold" lengthAdjust="spacing" textLength="99" x="520.83" y="840.0543">Object Store</text></g><!--cluster Document Store--><g id="cluster_Document Store"><path d="M658.33,825.0592 L787.33,825.0592 A3.75,3.75 0 0 1 789.83,827.5592 L796.83,847.356 L797.33,847.356 A2.5,2.5 0 0 1 799.83,849.856 L799.83,919.8592 A2.5,2.5 0 0 1 797.33,922.3592 L658.33,922.3592 A2.5,2.5 0 0 1 655.83,919.8592 L655.83,827.5592 A2.5,2.5 0 0 1 658.33,825.0592 " fill="none" style="stroke:#000000;stroke-width:1.5;"/><line style="stroke:#000000;stroke-width:1.5;" x1="655.83" x2="796.83" y1="847.356" y2="847.356"/><text fill="#000000" font-family="sans-serif" font-size="14" font-weight="bold" lengthAdjust="spacing" textLength="128" x="659.83" y="840.0543">Document Store</text></g><!--entity identity--><g id="elem_identity"><rect fill="#F1F1F1" height="46.2969" rx="2.5" ry="2.5" style="stroke:#181818;stroke-width:0.5;" width="77" x="947.33" y="860.0592"/><rect fill="#F1F1F1" height="10" style="stroke:#181818;stroke-width:0.5;" width="15" x="1004.33" y="865.0592"/><rect fill="#F1F1F1" height="2" style="stroke:#181818;stroke-width:0.5;" width="4" x="1002.33" y="867.0592"/><rect fill="#F1F1F1" height="2" style="stroke:#181818;stroke-width:0.5;" width="4" x="1002.33" y="871.0592"/><text fill="#000000" font-family="sans-serif" font-size="14" lengthAdjust="spacing" textLength="37" x="962.33" y="893.0543">ADFS</text></g><!--entity burger--><g id="elem_burger"><ellipse cx="150.83" cy="138.6692" fill="#F1F1F1" rx="8" ry="8" style="stroke:#181818;stroke-width:0.5;"/><path d="M150.83,146.6692 L150.83,173.6692 M137.83,154.6692 L163.83,154.6692 M150.83,173.6692 L137.83,188.6692 M150.83,173.6692 L163.83,188.6692 " fill="none" style="stroke:#181818;stroke-width:0.5;"/><text fill="#000000" font-family="sans-serif" font-size="14" lengthAdjust="spacing" textLength="47" x="127.33" y="203.1643">Burger</text></g><!--entity medewerker--><g id="elem_medewerker"><ellipse cx="246.83" cy="138.6692" fill="#F1F1F1" rx="8" ry="8" style="stroke:#181818;stroke-width:0.5;"/><path d="M246.83,146.6692 L246.83,173.6692 M233.83,154.6692 L259.83,154.6692 M246.83,173.6692 L233.83,188.6692 M246.83,173.6692 L259.83,188.6692 " fill="none" style="stroke:#181818;stroke-width:0.5;"/><text fill="#000000" font-family="sans-serif" font-size="14" lengthAdjust="spacing" textLength="75" x="209.33" y="203.1643">Ambtenaar</text></g><!--entity adminUser--><g id="elem_adminUser"><ellipse cx="356.83" cy="138.6692" fill="#F1F1F1" rx="8" ry="8" style="stroke:#181818;stroke-width:0.5;"/><path d="M356.83,146.6692 L356.83,173.6692 M343.83,154.6692 L369.83,154.6692 M356.83,173.6692 L343.83,188.6692 M356.83,173.6692 L369.83,188.6692 " fill="none" style="stroke:#181818;stroke-width:0.5;"/><text fill="#000000" font-family="sans-serif" font-size="14" lengthAdjust="spacing" textLength="74" x="319.83" y="203.1643">Beheerder</text></g><!--entity ZGW--><g id="elem_ZGW"><rect fill="#F1F1F1" height="46.2969" rx="2.5" ry="2.5" style="stroke:#181818;stroke-width:0.5;" width="133" x="669.33" y="145.1692"/><rect fill="#F1F1F1" height="10" style="stroke:#181818;stroke-width:0.5;" width="15" x="782.33" y="150.1692"/><rect fill="#F1F1F1" height="2" style="stroke:#181818;stroke-width:0.5;" width="4" x="780.33" y="152.1692"/><rect fill="#F1F1F1" height="2" style="stroke:#181818;stroke-width:0.5;" width="4" x="780.33" y="156.1692"/><text fill="#000000" font-family="sans-serif" font-size="14" lengthAdjust="spacing" textLength="93" x="684.33" y="178.1643">Zaaksysteem</text></g><!--entity ETC--><g id="elem_ETC"><rect fill="#F1F1F1" height="46.2969" rx="2.5" ry="2.5" style="stroke:#181818;stroke-width:0.5;" width="66" x="837.83" y="145.1692"/><rect fill="#F1F1F1" height="10" style="stroke:#181818;stroke-width:0.5;" width="15" x="883.83" y="150.1692"/><rect fill="#F1F1F1" height="2" style="stroke:#181818;stroke-width:0.5;" width="4" x="881.83" y="152.1692"/><rect fill="#F1F1F1" height="2" style="stroke:#181818;stroke-width:0.5;" width="4" x="881.83" y="156.1692"/><text fill="#000000" font-family="sans-serif" font-size="14" lengthAdjust="spacing" textLength="26" x="852.83" y="178.1643">Etc.</text></g><!--entity externalCatalogue--><g id="elem_externalCatalogue"><rect fill="#F1F1F1" height="46.2969" rx="2.5" ry="2.5" style="stroke:#181818;stroke-width:0.5;" width="166" x="959.83" y="145.1692"/><rect fill="#F1F1F1" height="10" style="stroke:#181818;stroke-width:0.5;" width="15" x="1105.83" y="150.1692"/><rect fill="#F1F1F1" height="2" style="stroke:#181818;stroke-width:0.5;" width="4" x="1103.83" y="152.1692"/><rect fill="#F1F1F1" height="2" style="stroke:#181818;stroke-width:0.5;" width="4" x="1103.83" y="156.1692"/><text fill="#000000" font-family="sans-serif" font-size="14" lengthAdjust="spacing" textLength="126" x="974.83" y="178.1643">Externe Catalogus</text></g><!--entity ui--><g id="elem_ui"><rect fill="#F1F1F1" height="46.2969" rx="2.5" ry="2.5" style="stroke:#181818;stroke-width:0.5;" width="111" x="267.33" y="401.4692"/><rect fill="#F1F1F1" height="10" style="stroke:#181818;stroke-width:0.5;" width="15" x="358.33" y="406.4692"/><rect fill="#F1F1F1" height="2" style="stroke:#181818;stroke-width:0.5;" width="4" x="356.33" y="408.4692"/><rect fill="#F1F1F1" height="2" style="stroke:#181818;stroke-width:0.5;" width="4" x="356.33" y="412.4692"/><text fill="#000000" font-family="sans-serif" font-size="14" lengthAdjust="spacing" textLength="71" x="282.33" y="434.4643">Zoeken UI</text></g><!--entity admin--><g id="elem_admin"><rect fill="#F1F1F1" height="46.2969" rx="2.5" ry="2.5" style="stroke:#181818;stroke-width:0.5;" width="108" x="434.83" y="401.4692"/><rect fill="#F1F1F1" height="10" style="stroke:#181818;stroke-width:0.5;" width="15" x="522.83" y="406.4692"/><rect fill="#F1F1F1" height="2" style="stroke:#181818;stroke-width:0.5;" width="4" x="520.83" y="408.4692"/><rect fill="#F1F1F1" height="2" style="stroke:#181818;stroke-width:0.5;" width="4" x="520.83" y="412.4692"/><text fill="#000000" font-family="sans-serif" font-size="14" lengthAdjust="spacing" textLength="68" x="449.83" y="434.4643">Beheer UI</text></g><!--entity service--><g id="elem_service"><rect fill="#F1F1F1" height="46.2969" rx="2.5" ry="2.5" style="stroke:#181818;stroke-width:0.5;" width="149" x="661.33" y="401.4692"/><rect fill="#F1F1F1" height="10" style="stroke:#181818;stroke-width:0.5;" width="15" x="790.33" y="406.4692"/><rect fill="#F1F1F1" height="2" style="stroke:#181818;stroke-width:0.5;" width="4" x="788.33" y="408.4692"/><rect fill="#F1F1F1" height="2" style="stroke:#181818;stroke-width:0.5;" width="4" x="788.33" y="412.4692"/><text fill="#000000" font-family="sans-serif" font-size="14" lengthAdjust="spacing" textLength="109" x="676.33" y="434.4643">Synchronisaties</text></g><!--entity SearchAPI--><g id="elem_SearchAPI"><rect fill="#F1F1F1" height="46.2969" rx="2.5" ry="2.5" style="stroke:#181818;stroke-width:0.5;" width="119" x="445.33" y="630.7692"/><rect fill="#F1F1F1" height="10" style="stroke:#181818;stroke-width:0.5;" width="15" x="544.33" y="635.7692"/><rect fill="#F1F1F1" height="2" style="stroke:#181818;stroke-width:0.5;" width="4" x="542.33" y="637.7692"/><rect fill="#F1F1F1" height="2" style="stroke:#181818;stroke-width:0.5;" width="4" x="542.33" y="641.7692"/><text fill="#000000" font-family="sans-serif" font-size="14" lengthAdjust="spacing" textLength="79" x="460.33" y="663.7643">Zoeken API</text></g><!--entity ObjectsAPI--><g id="elem_ObjectsAPI"><rect fill="#F1F1F1" height="46.2969" rx="2.5" ry="2.5" style="stroke:#181818;stroke-width:0.5;" width="116" x="620.83" y="630.7692"/><rect fill="#F1F1F1" height="10" style="stroke:#181818;stroke-width:0.5;" width="15" x="716.83" y="635.7692"/><rect fill="#F1F1F1" height="2" style="stroke:#181818;stroke-width:0.5;" width="4" x="714.83" y="637.7692"/><rect fill="#F1F1F1" height="2" style="stroke:#181818;stroke-width:0.5;" width="4" x="714.83" y="641.7692"/><text fill="#000000" font-family="sans-serif" font-size="14" lengthAdjust="spacing" textLength="76" x="635.83" y="663.7643">Beheer API</text></g><!--entity search--><g id="elem_search"><rect fill="#F1F1F1" height="46.2969" rx="2.5" ry="2.5" style="stroke:#181818;stroke-width:0.5;" width="136" x="340.83" y="860.0592"/><rect fill="#F1F1F1" height="10" style="stroke:#181818;stroke-width:0.5;" width="15" x="456.83" y="865.0592"/><rect fill="#F1F1F1" height="2" style="stroke:#181818;stroke-width:0.5;" width="4" x="454.83" y="867.0592"/><rect fill="#F1F1F1" height="2" style="stroke:#181818;stroke-width:0.5;" width="4" x="454.83" y="871.0592"/><text fill="#000000" font-family="sans-serif" font-size="14" lengthAdjust="spacing" textLength="96" x="355.83" y="893.0543">Elastic Search</text></g><!--entity db--><g id="elem_db"><rect fill="#F1F1F1" height="46.2969" rx="2.5" ry="2.5" style="stroke:#181818;stroke-width:0.5;" width="71" x="545.33" y="860.0592"/><rect fill="#F1F1F1" height="10" style="stroke:#181818;stroke-width:0.5;" width="15" x="596.33" y="865.0592"/><rect fill="#F1F1F1" height="2" style="stroke:#181818;stroke-width:0.5;" width="4" x="594.33" y="867.0592"/><rect fill="#F1F1F1" height="2" style="stroke:#181818;stroke-width:0.5;" width="4" x="594.33" y="871.0592"/><text fill="#000000" font-family="sans-serif" font-size="14" lengthAdjust="spacing" textLength="31" x="560.33" y="893.0543">ORC</text></g><!--entity drc--><g id="elem_drc"><rect fill="#F1F1F1" height="46.2969" rx="2.5" ry="2.5" style="stroke:#181818;stroke-width:0.5;" width="71" x="671.33" y="860.0592"/><rect fill="#F1F1F1" height="10" style="stroke:#181818;stroke-width:0.5;" width="15" x="722.33" y="865.0592"/><rect fill="#F1F1F1" height="2" style="stroke:#181818;stroke-width:0.5;" width="4" x="720.33" y="867.0592"/><rect fill="#F1F1F1" height="2" style="stroke:#181818;stroke-width:0.5;" width="4" x="720.33" y="871.0592"/><text fill="#000000" font-family="sans-serif" font-size="14" lengthAdjust="spacing" textLength="31" x="686.33" y="893.0543">DRC</text></g><!--link externalCatalogue to SearchAPI--><g id="link_externalCatalogue_SearchAPI"><path d="M1044.2545,197.886 C1046.3345,262.026 1042.23,439.9292 935.83,520.7692 C921.19,531.8892 621.33,520.6292 604.83,528.7692 C561.15,550.3192 532.9938,595.573 517.9538,625.093 " fill="none" id="externalCatalogue-SearchAPI" style="stroke:#181818;stroke-width:1.0;stroke-dasharray:7.0,7.0;"/><polygon fill="#181818" points="1044.06,191.8892,1040.3538,201.0141,1044.2221,196.8865,1048.3496,200.7548,1044.06,191.8892" style="stroke:#181818;stroke-width:1.0;"/><polygon fill="#181818" points="515.23,630.4392,522.8797,624.2358,517.4998,625.9841,515.7516,620.6041,515.23,630.4392" style="stroke:#181818;stroke-width:1.0;"/><text fill="#000000" font-family="sans-serif" font-size="13" lengthAdjust="spacing" textLength="122" x="1042.83" y="429.1861">Search + Directory</text></g><!--link burger to ui--><g id="link_burger_ui"><path d="M121.3392,177.9081 C79.6892,191.0781 6,220.8992 31.83,264.4692 C82.64,350.1592 191.8752,391.1536 261.1252,409.7436 " fill="none" id="burger-ui" style="stroke:#181818;stroke-width:1.0;stroke-dasharray:7.0,7.0;"/><polygon fill="#181818" points="127.06,176.0992,117.2728,174.9987,122.2927,177.6066,119.6848,182.6265,127.06,176.0992" style="stroke:#181818;stroke-width:1.0;"/><polygon fill="#181818" points="266.92,411.2992,259.2648,405.1025,262.091,410.0028,257.1907,412.829,266.92,411.2992" style="stroke:#181818;stroke-width:1.0;"/><text fill="#000000" font-family="sans-serif" font-size="13" lengthAdjust="spacing" textLength="200" x="32.83" y="260.5361">Zoeken via browser (ANONIEM)</text></g><!--link medewerker to ui--><g id="link_medewerker_ui"><path d="M240.6799,212.7966 C239.1399,230.4966 239.46,245.7992 243.83,264.4692 C256.09,316.7192 284.9114,366.4376 304.2114,396.1476 " fill="none" id="medewerker-ui" style="stroke:#181818;stroke-width:1.0;stroke-dasharray:7.0,7.0;"/><polygon fill="#181818" points="241.2,206.8192,236.435,215.4386,240.7666,211.8003,244.4048,216.132,241.2,206.8192" style="stroke:#181818;stroke-width:1.0;"/><polygon fill="#181818" points="307.48,401.1792,305.9315,391.4528,304.7562,396.9862,299.2228,395.8109,307.48,401.1792" style="stroke:#181818;stroke-width:1.0;"/><text fill="#000000" font-family="sans-serif" font-size="13" lengthAdjust="spacing" textLength="200" x="244.83" y="260.5361">Zoeken via browser (ANONIEM)</text></g><!--link adminUser to admin--><g id="link_adminUser_admin"><path d="M399.1341,195.516 C418.5841,209.226 436.17,224.9292 449.83,247.4692 C479.63,296.6192 486.4712,359.8157 488.1112,395.0657 " fill="none" id="adminUser-admin" style="stroke:#181818;stroke-width:1.0;stroke-dasharray:7.0,7.0;"/><polygon fill="#181818" points="394.23,192.0592,399.2816,200.5138,398.3168,194.9399,403.8907,193.975,394.23,192.0592" style="stroke:#181818;stroke-width:1.0;"/><polygon fill="#181818" points="488.39,401.0592,491.9674,391.883,488.1576,396.0646,483.9761,392.2548,488.39,401.0592" style="stroke:#181818;stroke-width:1.0;"/><text fill="#000000" font-family="sans-serif" font-size="13" lengthAdjust="spacing" textLength="205" x="457.83" y="260.5361">Beheren via browser (JWT Claim)</text></g><!--link ui to SearchAPI--><g id="link_ui_SearchAPI"><path d="M281.8906,451.7131 C256.6606,470.4231 234.93,494.5592 250.83,520.7692 C292.81,589.9192 378.268,623.0306 439.188,639.0806 " fill="none" id="ui-SearchAPI" style="stroke:#181818;stroke-width:1.0;stroke-dasharray:7.0,7.0;"/><polygon fill="#181818" points="286.71,448.1392,277.0982,450.2872,282.6938,451.1175,281.8635,456.7131,286.71,448.1392" style="stroke:#181818;stroke-width:1.0;"/><polygon fill="#181818" points="444.99,640.6092,437.306,634.4483,440.155,639.3353,435.2679,642.1843,444.99,640.6092" style="stroke:#181818;stroke-width:1.0;"/><text fill="#000000" font-family="sans-serif" font-size="13" lengthAdjust="spacing" textLength="122" x="251.83" y="516.8361">Search + Directory</text></g><!--link admin to ObjectsAPI--><g id="link_admin_ObjectsAPI"><path d="M477.2218,453.5667 C469.6318,475.0567 465,501.4192 482.83,520.7692 C497.64,536.8292 561.58,518.4392 580.83,528.7692 C623.19,551.4692 650.6999,595.8063 665.5999,624.9663 " fill="none" id="admin-ObjectsAPI" style="stroke:#181818;stroke-width:1.0;stroke-dasharray:7.0,7.0;"/><polygon fill="#181818" points="479.22,447.9092,472.4511,455.0633,477.5549,452.6238,479.9944,457.7275,479.22,447.9092" style="stroke:#181818;stroke-width:1.0;"/><polygon fill="#181818" points="668.33,630.3092,667.7968,620.4748,666.0549,625.8567,660.6729,624.1149,668.33,630.3092" style="stroke:#181818;stroke-width:1.0;"/><text fill="#000000" font-family="sans-serif" font-size="13" lengthAdjust="spacing" textLength="219" x="483.83" y="516.8361">Publicaties + Catalogi + Metadata</text></g><!--link ZGW to service--><g id="link_ZGW_service"><path d="M734.471,197.8831 C733.771,213.4831 733.19,228.7392 732.83,247.4692 C731.77,302.6692 733.4798,361.6032 734.7098,395.0932 " fill="none" id="ZGW-service" style="stroke:#181818;stroke-width:1.0;stroke-dasharray:7.0,7.0;"/><polygon fill="#181818" points="734.74,191.8892,730.3406,200.7008,734.5159,196.8841,738.3325,201.0594,734.74,191.8892" style="stroke:#181818;stroke-width:1.0;"/><polygon fill="#181818" points="734.93,401.0892,738.597,391.9484,734.7465,396.0925,730.6024,392.242,734.93,401.0892" style="stroke:#181818;stroke-width:1.0;"/><text fill="#000000" font-family="sans-serif" font-size="13" lengthAdjust="spacing" textLength="94" x="733.83" y="260.5361">Synchronisatie</text></g><!--link ETC to service--><g id="link_ETC_service"><path d="M861.0674,197.3444 C854.0174,216.9244 844.93,240.2892 832.83,264.4692 C807.51,315.1192 774.8211,365.9055 754.5611,396.1255 " fill="none" id="ETC-service" style="stroke:#181818;stroke-width:1.0;stroke-dasharray:7.0,7.0;"/><polygon fill="#181818" points="863.1,191.6992,856.2876,198.8119,861.4061,196.4035,863.8145,201.5221,863.1,191.6992" style="stroke:#181818;stroke-width:1.0;"/><polygon fill="#181818" points="751.22,401.1092,759.5541,395.8611,754.0043,396.9561,752.9093,391.4063,751.22,401.1092" style="stroke:#181818;stroke-width:1.0;"/><text fill="#000000" font-family="sans-serif" font-size="13" lengthAdjust="spacing" textLength="94" x="840.83" y="260.5361">Synchronisatie</text></g><!--link ObjectsAPI to db--><g id="link_ObjectsAPI_db"><path d="M669.02,677.3392 C660.69,696.4092 648.43,724.5092 637.83,749.0592 C621.09,787.8492 604.1227,827.5497 592.8227,854.0597 " fill="none" id="ObjectsAPI-to-db" style="stroke:#181818;stroke-width:1.0;stroke-dasharray:7.0,7.0;"/><polygon fill="#181818" points="590.47,859.5792,597.6787,852.8684,592.4306,854.9796,590.3194,849.7315,590.47,859.5792" style="stroke:#181818;stroke-width:1.0;"/><text fill="#000000" font-family="sans-serif" font-size="13" lengthAdjust="spacing" textLength="43" x="638.83" y="762.1261">Persist</text></g><!--link ObjectsAPI to drc--><g id="link_ObjectsAPI_drc"><path d="M681.62,677.5392 C686.99,721.1092 697.9662,810.2242 703.3262,853.7242 " fill="none" id="ObjectsAPI-to-drc" style="stroke:#181818;stroke-width:1.0;stroke-dasharray:7.0,7.0;"/><polygon fill="#181818" points="704.06,859.6792,706.9293,850.2575,703.4485,854.7167,698.9894,851.2359,704.06,859.6792" style="stroke:#181818;stroke-width:1.0;"/><text fill="#000000" font-family="sans-serif" font-size="13" lengthAdjust="spacing" textLength="43" x="692.83" y="762.1261">Persist</text></g><!--reverse link SearchAPI to search--><g id="link_SearchAPI_search"><path d="M474.6716,681.4639 C456.3016,699.0139 437.11,720.9592 424.83,749.0592 C408.89,785.5492 407.11,832.6992 407.68,859.9892 " fill="none" id="SearchAPI-backto-search" style="stroke:#181818;stroke-width:1.0;stroke-dasharray:7.0,7.0;"/><polygon fill="#181818" points="479.01,677.3192,469.7393,680.644,475.3947,680.7731,475.2656,686.4285,479.01,677.3192" style="stroke:#181818;stroke-width:1.0;"/><text fill="#000000" font-family="sans-serif" font-size="13" lengthAdjust="spacing" textLength="46" x="425.83" y="762.1261">Lookup</text></g><!--reverse link SearchAPI to drc--><g id="link_SearchAPI_drc"><path d="M514.5281,683.0515 C524.4781,709.0015 542.47,745.1292 574.83,766.0592 C596.31,779.9592 610.05,760.6492 631.83,774.0592 C664.52,794.1892 686.6,834.4792 697.93,859.7892 " fill="none" id="SearchAPI-backto-drc" style="stroke:#181818;stroke-width:1.0;stroke-dasharray:7.0,7.0;"/><polygon fill="#181818" points="512.38,677.4492,511.8673,687.2847,514.1701,682.1177,519.337,684.4206,512.38,677.4492" style="stroke:#181818;stroke-width:1.0;"/><text fill="#000000" font-family="sans-serif" font-size="13" lengthAdjust="spacing" textLength="46" x="575.83" y="762.1261">Lookup</text></g><!--link layer2 to identity--><g id="link_layer2_identity"><path d="M792.8969,664.0292 C793.1601,664.3268 793.4291,664.6309 793.7037,664.9415 C794.2531,665.5627 794.8254,666.2097 795.4197,666.8818 C796.6084,668.2259 797.8856,669.6701 799.2452,671.2075 C801.9643,674.2823 805.0131,677.7299 808.3431,681.4956 C821.6631,696.5582 839.4825,716.7098 858.7025,738.4454 C897.1425,781.9167 937.2102,827.2296 962.0652,855.3346 " fill="none" id="layer2-to-identity" style="stroke:#181818;stroke-width:1.0;stroke-dasharray:7.0,7.0;"/><polygon fill="#181818" points="966.04,859.8292,963.0742,850.4375,962.7277,856.0837,957.0814,855.7372,966.04,859.8292" style="stroke:#181818;stroke-width:1.0;"/><text fill="#000000" font-family="sans-serif" font-size="13" lengthAdjust="spacing" textLength="36" x="879.83" y="762.1261">AUTH</text></g><!--link service to ObjectsAPI--><g id="link_service_ObjectsAPI"><path d="M730.16,448.2392 C719.23,491.8092 696.8499,581.0695 685.9399,624.5595 " fill="none" id="service-to-ObjectsAPI" style="stroke:#181818;stroke-width:1.0;stroke-dasharray:7.0,7.0;"/><polygon fill="#181818" points="684.48,630.3792,690.5497,622.6229,685.6966,625.5294,682.7901,620.6764,684.48,630.3792" style="stroke:#181818;stroke-width:1.0;"/><text fill="#000000" font-family="sans-serif" font-size="13" lengthAdjust="spacing" textLength="211" x="715.83" y="516.8361">In synchroniseren van publicaties</text></g><text fill="#888888" font-family="sans-serif" font-size="10" lengthAdjust="spacing" textLength="141" x="520.423" y="1014.1488">Open Catalogi | Components</text><!--SRC=[ZLJRRjD047ttLupoW19LYaHLNYo4b2QX6DAaoeLAHJoirqEonDwrTjTj8-3V6U_wbZI2ldbdpfavSxCLDiKGnYhBbKHfJV13AOiwX4ME4iRCibHj1VpkGdR8alz00fwg8e5UbD1Js0EyWH7dQ4plLm3VHfEFg-_038ZA7Vnf63SOwqBiKPTGngtIqBikz1PrhsJ4xhDsZBBOecJC-p9Cy0drllLVumvH9nMN9PcG6qFkDjtqcQgL2ACyJmLdLc2PDsTypxP80RIIL54FIjaFZEtDmLZ4pAb_kBadwzJoeNjErsCAt53hndXkdQUo5iPHq5bPMbkH0hJQlXHnoR5EKXjunWweuHtq8qbigbGeEIYpD8WbaXNcCvYW4TjQlS8zpMiJkSo5A1CrZAy5dk9zxsgywvrNToBa2lepAfCFN8_JqdRb0gmEak-eVyAujhemrFn7mV5Cc4leZ-wYJf1Bw1RjTYsI2JuVLKCK5tU5JFCTlReJS9mbRWMDZDQfMrNDMyG_aLlZYIz5lON-X4RZkjlwVBAkccdAZ1Myab5LMduUnVJ9O4MhYPwtM8uTE8cFW1F5YumkemkTr53DlTGNkmFlXyCFRIV2wXCkO28qbWTn2FpvU6GXGgZQ-2WOn5ezqNXe3FF5F9hU3eBsdbv9Q0xCuzqpXBBb-fJp-NuDuvI9R104XNYDT1VD0zkfXN1NnFNX4hpv6rt0BLgMq3EWC_MqQlae-j5c1dIu_mO4RK8O9kf94ZQ9AJUj5ItNMRVchRyfZD8uVxKT8SoKsXVv6O3ZLzxg7EhGzKypXD5c_IceH3VkRdCY2QOfnG-1ISZRblq5]--></g></svg>