<?xml version="1.0" encoding="us-ascii" standalone="no"?><svg xmlns="http://www.w3.org/2000/svg" xmlns:xlink="http://www.w3.org/1999/xlink" contentStyleType="text/css" height="448px" preserveAspectRatio="none" style="width:755px;height:448px;background:#FFFFFF;" version="1.1" viewBox="0 0 755 448" width="755px" zoomAndPan="magnify"><defs/><g><line style="stroke:#181818;stroke-width:0.5;stroke-dasharray:5.0,5.0;" x1="140" x2="140" y1="36.2969" y2="412.7578"/><line style="stroke:#181818;stroke-width:0.5;stroke-dasharray:5.0,5.0;" x1="323.5" x2="323.5" y1="36.2969" y2="412.7578"/><line style="stroke:#181818;stroke-width:0.5;stroke-dasharray:5.0,5.0;" x1="523.5" x2="523.5" y1="36.2969" y2="412.7578"/><rect fill="#E2E2F0" height="30.2969" rx="2.5" ry="2.5" style="stroke:#181818;stroke-width:0.5;" width="128" x="76" y="5"/><text fill="#000000" font-family="sans-serif" font-size="14" lengthAdjust="spacing" textLength="114" x="83" y="24.9951">New Installation</text><rect fill="#E2E2F0" height="30.2969" rx="2.5" ry="2.5" style="stroke:#181818;stroke-width:0.5;" width="128" x="76" y="411.7578"/><text fill="#000000" font-family="sans-serif" font-size="14" lengthAdjust="spacing" textLength="114" x="83" y="431.7529">New Installation</text><rect fill="#E2E2F0" height="30.2969" rx="2.5" ry="2.5" style="stroke:#181818;stroke-width:0.5;" width="155" x="246.5" y="5"/><text fill="#000000" font-family="sans-serif" font-size="14" lengthAdjust="spacing" textLength="141" x="253.5" y="24.9951">Existing Installation</text><rect fill="#E2E2F0" height="30.2969" rx="2.5" ry="2.5" style="stroke:#181818;stroke-width:0.5;" width="155" x="246.5" y="411.7578"/><text fill="#000000" font-family="sans-serif" font-size="14" lengthAdjust="spacing" textLength="141" x="253.5" y="431.7529">Existing Installation</text><rect fill="#E2E2F0" height="30.2969" rx="2.5" ry="2.5" style="stroke:#181818;stroke-width:0.5;" width="147" x="450.5" y="5"/><text fill="#000000" font-family="sans-serif" font-size="14" lengthAdjust="spacing" textLength="133" x="457.5" y="24.9951">Other Installations</text><rect fill="#E2E2F0" height="30.2969" rx="2.5" ry="2.5" style="stroke:#181818;stroke-width:0.5;" width="147" x="450.5" y="411.7578"/><text fill="#000000" font-family="sans-serif" font-size="14" lengthAdjust="spacing" textLength="133" x="457.5" y="431.7529">Other Installations</text><polygon fill="#181818" points="312,63.4297,322,67.4297,312,71.4297,316,67.4297" style="stroke:#181818;stroke-width:1.0;"/><line style="stroke:#181818;stroke-width:1.0;" x1="140" x2="318" y1="67.4297" y2="67.4297"/><text fill="#000000" font-family="sans-serif" font-size="13" lengthAdjust="spacing" textLength="114" x="147" y="62.3638">Request directory</text><path d="M18,80.4297 L18,105.4297 L445,105.4297 L445,90.4297 L435,80.4297 L18,80.4297 " fill="#FEFFDD" style="stroke:#181818;stroke-width:0.5;"/><path d="M435,80.4297 L435,90.4297 L445,90.4297 L435,80.4297 " fill="#FEFFDD" style="stroke:#181818;stroke-width:0.5;"/><text fill="#000000" font-family="sans-serif" font-size="13" lengthAdjust="spacing" textLength="406" x="24" y="97.4966">New installation needs to know at least one existing installation</text><polygon fill="#181818" points="151,127.6953,141,131.6953,151,135.6953,147,131.6953" style="stroke:#181818;stroke-width:1.0;"/><line style="stroke:#181818;stroke-width:1.0;stroke-dasharray:2.0,2.0;" x1="145" x2="323" y1="131.6953" y2="131.6953"/><text fill="#000000" font-family="sans-serif" font-size="13" lengthAdjust="spacing" textLength="109" x="157" y="126.6294">Provide directory</text><path d="M182,144.6953 L182,169.6953 L465,169.6953 L465,154.6953 L455,144.6953 L182,144.6953 " fill="#FEFFDD" style="stroke:#181818;stroke-width:0.5;"/><path d="M455,144.6953 L455,154.6953 L465,154.6953 L455,144.6953 " fill="#FEFFDD" style="stroke:#181818;stroke-width:0.5;"/><text fill="#000000" font-family="sans-serif" font-size="13" lengthAdjust="spacing" textLength="262" x="188" y="161.7622">Existing installation provides its directory</text><polygon fill="#181818" points="312,191.9609,322,195.9609,312,199.9609,316,195.9609" style="stroke:#181818;stroke-width:1.0;"/><line style="stroke:#181818;stroke-width:1.0;" x1="140" x2="318" y1="195.9609" y2="195.9609"/><text fill="#000000" font-family="sans-serif" font-size="13" lengthAdjust="spacing" textLength="160" x="147" y="190.895">Add itself to B's directory</text><path d="M34,208.9609 L34,233.9609 L429,233.9609 L429,218.9609 L419,208.9609 L34,208.9609 " fill="#FEFFDD" style="stroke:#181818;stroke-width:0.5;"/><path d="M419,208.9609 L419,218.9609 L429,218.9609 L419,208.9609 " fill="#FEFFDD" style="stroke:#181818;stroke-width:0.5;"/><text fill="#000000" font-family="sans-serif" font-size="13" lengthAdjust="spacing" textLength="374" x="40" y="226.0278">New installation is added to existing installation's directory</text><polygon fill="#181818" points="512,256.2266,522,260.2266,512,264.2266,516,260.2266" style="stroke:#181818;stroke-width:1.0;"/><line style="stroke:#181818;stroke-width:1.0;" x1="140" x2="518" y1="260.2266" y2="260.2266"/><text fill="#000000" font-family="sans-serif" font-size="13" lengthAdjust="spacing" textLength="360" x="147" y="255.1606">Announce itself and request other unknown installations</text><path d="M73,273.2266 L73,298.2266 L589,298.2266 L589,283.2266 L579,273.2266 L73,273.2266 " fill="#FEFFDD" style="stroke:#181818;stroke-width:0.5;"/><path d="M579,273.2266 L579,283.2266 L589,283.2266 L579,273.2266 " fill="#FEFFDD" style="stroke:#181818;stroke-width:0.5;"/><text fill="#000000" font-family="sans-serif" font-size="13" lengthAdjust="spacing" textLength="462" x="95.75" y="290.2935">New installation communicates with all other installations in its directory</text><polygon fill="#181818" points="151,320.4922,141,324.4922,151,328.4922,147,324.4922" style="stroke:#181818;stroke-width:1.0;"/><line style="stroke:#181818;stroke-width:1.0;stroke-dasharray:2.0,2.0;" x1="145" x2="523" y1="324.4922" y2="324.4922"/><text fill="#000000" font-family="sans-serif" font-size="13" lengthAdjust="spacing" textLength="228" x="157" y="319.4263">Provide other unknown installations</text><path d="M299,337.4922 L299,362.4922 L748,362.4922 L748,347.4922 L738,337.4922 L299,337.4922 " fill="#FEFFDD" style="stroke:#181818;stroke-width:0.5;"/><path d="M738,337.4922 L738,347.4922 L748,347.4922 L738,337.4922 " fill="#FEFFDD" style="stroke:#181818;stroke-width:0.5;"/><text fill="#000000" font-family="sans-serif" font-size="13" lengthAdjust="spacing" textLength="428" x="305" y="354.5591">Other installations provide their known installations to the new one</text><path d="M5,372.625 L5,397.625 L276,397.625 L276,382.625 L266,372.625 L5,372.625 " fill="#FEFFDD" style="stroke:#181818;stroke-width:0.5;"/><path d="M266,372.625 L266,382.625 L276,382.625 L266,372.625 " fill="#FEFFDD" style="stroke:#181818;stroke-width:0.5;"/><text fill="#000000" font-family="sans-serif" font-size="13" lengthAdjust="spacing" textLength="250" x="11" y="389.6919">Repeat the process at regular intervals</text><!--SRC=[bLBDJiCm3BxtAQnTTc4li0DIM-t0XI7U86hCPf4v9NPRU7kSiQ5som6EaRy_Vt7lab97lME5rJDEyCIYBWId57a5Jg2k-ZbczqcYn8TxOBC4xlM8QO6ICwojgXesZz1iuHK_1XG5JmaxZUchugW8SJHY_P0HEH7D980HlO16UESuWLC8w4mXCW9Uayq9LGCRCwkty9BYI1wBPkQqAx6X_o49aCgC-Rj1xNqUONZBcPgr_6SN4d3Uey_KOlZrlMThdinnu0wlneuzf4kJyLpwmBaTNcZ9CazRoDF5qsbWwfpQmXFf4MnqaLn8sUkcaFQsvRy5iHJxWlobTR0H9IX8vCPiQDSmvQ-lvhlbi-hHBYC3JAb3aNme2Gz3SDbACOqko3S0]--></g></svg>