<svg xmlns="http://www.w3.org/2000/svg" xmlns:xlink="http://www.w3.org/1999/xlink" contentStyleType="text/css" height="619px" preserveAspectRatio="none" style="width:873px;height:619px;background:#FFFFFF;" version="1.1" viewBox="0 0 873 619" width="873px" zoomAndPan="magnify"><defs/><g><rect fill="#FFFFFF" height="104.5313" style="stroke:#000000;stroke-width:1.0;" width="460" x="239.5" y="213.6953"/><line style="stroke:#000000;stroke-width:1.0;" x1="49" x2="49" y1="82.2969" y2="325.2266"/><line style="stroke:#000000;stroke-width:1.0;stroke-dasharray:1.0,4.0;" x1="49" x2="49" y1="325.2266" y2="353.2266"/><line style="stroke:#000000;stroke-width:1.0;" x1="49" x2="49" y1="353.2266" y2="538.0234"/><line style="stroke:#000000;stroke-width:1.0;" x1="309.5" x2="309.5" y1="82.2969" y2="325.2266"/><line style="stroke:#000000;stroke-width:1.0;stroke-dasharray:1.0,4.0;" x1="309.5" x2="309.5" y1="325.2266" y2="353.2266"/><line style="stroke:#000000;stroke-width:1.0;" x1="309.5" x2="309.5" y1="353.2266" y2="538.0234"/><line style="stroke:#000000;stroke-width:1.0;" x1="426.5" x2="426.5" y1="82.2969" y2="325.2266"/><line style="stroke:#000000;stroke-width:1.0;stroke-dasharray:1.0,4.0;" x1="426.5" x2="426.5" y1="325.2266" y2="353.2266"/><line style="stroke:#000000;stroke-width:1.0;" x1="426.5" x2="426.5" y1="353.2266" y2="538.0234"/><line style="stroke:#000000;stroke-width:1.0;" x1="503.5" x2="503.5" y1="82.2969" y2="325.2266"/><line style="stroke:#000000;stroke-width:1.0;stroke-dasharray:1.0,4.0;" x1="503.5" x2="503.5" y1="325.2266" y2="353.2266"/><line style="stroke:#000000;stroke-width:1.0;" x1="503.5" x2="503.5" y1="353.2266" y2="538.0234"/><line style="stroke:#000000;stroke-width:1.0;" x1="579.5" x2="579.5" y1="82.2969" y2="325.2266"/><line style="stroke:#000000;stroke-width:1.0;stroke-dasharray:1.0,4.0;" x1="579.5" x2="579.5" y1="325.2266" y2="353.2266"/><line style="stroke:#000000;stroke-width:1.0;" x1="579.5" x2="579.5" y1="353.2266" y2="538.0234"/><line style="stroke:#000000;stroke-width:1.0;" x1="655.5" x2="655.5" y1="82.2969" y2="325.2266"/><line style="stroke:#000000;stroke-width:1.0;stroke-dasharray:1.0,4.0;" x1="655.5" x2="655.5" y1="325.2266" y2="353.2266"/><line style="stroke:#000000;stroke-width:1.0;" x1="655.5" x2="655.5" y1="353.2266" y2="538.0234"/><line style="stroke:#000000;stroke-width:1.0;" x1="780.5" x2="780.5" y1="82.2969" y2="325.2266"/><line style="stroke:#000000;stroke-width:1.0;stroke-dasharray:1.0,4.0;" x1="780.5" x2="780.5" y1="325.2266" y2="353.2266"/><line style="stroke:#000000;stroke-width:1.0;" x1="780.5" x2="780.5" y1="353.2266" y2="538.0234"/><text fill="#000000" font-family="Verdana" font-size="14" lengthAdjust="spacing" textLength="73" x="10" y="78.9951">Requester</text><ellipse cx="49.5" cy="14" fill="#FFFFFF" rx="8" ry="8" style="stroke:#000000;stroke-width:1.0;"/><path d="M49.5,22 L49.5,49 M36.5,30 L62.5,30 M49.5,49 L36.5,64 M49.5,49 L62.5,64 " fill="none" style="stroke:#000000;stroke-width:1.0;"/><text fill="#000000" font-family="Verdana" font-size="14" lengthAdjust="spacing" textLength="73" x="10" y="550.0186">Requester</text><ellipse cx="49.5" cy="562.3203" fill="#FFFFFF" rx="8" ry="8" style="stroke:#000000;stroke-width:1.0;"/><path d="M49.5,570.3203 L49.5,597.3203 M36.5,578.3203 L62.5,578.3203 M49.5,597.3203 L36.5,612.3203 M49.5,597.3203 L62.5,612.3203 " fill="none" style="stroke:#000000;stroke-width:1.0;"/><text fill="#000000" font-family="Verdana" font-size="14" lengthAdjust="spacing" textLength="114" x="249.5" y="78.9951">Search Endpoint</text><ellipse cx="309.5" cy="50" fill="#FFFFFF" rx="12" ry="12" style="stroke:#000000;stroke-width:1.0;"/><line style="stroke:#000000;stroke-width:1.0;" x1="297.5" x2="321.5" y1="64" y2="64"/><text fill="#000000" font-family="Verdana" font-size="14" lengthAdjust="spacing" textLength="114" x="249.5" y="550.0186">Search Endpoint</text><ellipse cx="309.5" cy="569.3203" fill="#FFFFFF" rx="12" ry="12" style="stroke:#000000;stroke-width:1.0;"/><line style="stroke:#000000;stroke-width:1.0;" x1="297.5" x2="321.5" y1="583.3203" y2="583.3203"/><text fill="#000000" font-family="Verdana" font-size="14" lengthAdjust="spacing" textLength="62" x="392.5" y="78.9951">Directory</text><path d="M408.5,30 C408.5,20 426.5,20 426.5,20 C426.5,20 444.5,20 444.5,30 L444.5,56 C444.5,66 426.5,66 426.5,66 C426.5,66 408.5,66 408.5,56 L408.5,30 " fill="#FFFFFF" style="stroke:#000000;stroke-width:1.5;"/><path d="M408.5,30 C408.5,40 426.5,40 426.5,40 C426.5,40 444.5,40 444.5,30 " fill="none" style="stroke:#000000;stroke-width:1.5;"/><text fill="#000000" font-family="Verdana" font-size="14" lengthAdjust="spacing" textLength="62" x="392.5" y="550.0186">Directory</text><path d="M408.5,563.3203 C408.5,553.3203 426.5,553.3203 426.5,553.3203 C426.5,553.3203 444.5,553.3203 444.5,563.3203 L444.5,589.3203 C444.5,599.3203 426.5,599.3203 426.5,599.3203 C426.5,599.3203 408.5,599.3203 408.5,589.3203 L408.5,563.3203 " fill="#FFFFFF" style="stroke:#000000;stroke-width:1.5;"/><path d="M408.5,563.3203 C408.5,573.3203 426.5,573.3203 426.5,573.3203 C426.5,573.3203 444.5,573.3203 444.5,563.3203 " fill="none" style="stroke:#000000;stroke-width:1.5;"/><path d="M475.5,56 L531.5,56 C536.5,56 536.5,69.1484 536.5,69.1484 C536.5,69.1484 536.5,82.2969 531.5,82.2969 L475.5,82.2969 C470.5,82.2969 470.5,69.1484 470.5,69.1484 C470.5,69.1484 470.5,56 475.5,56 " fill="#FFFFFF" style="stroke:#000000;stroke-width:1.0;"/><path d="M531.5,56 C526.5,56 526.5,69.1484 526.5,69.1484 C526.5,82.2969 531.5,82.2969 531.5,82.2969 " fill="none" style="stroke:#000000;stroke-width:1.0;"/><text fill="#000000" font-family="Verdana" font-size="14" lengthAdjust="spacing" textLength="46" x="475.5" y="73.9951">Bron 1</text><path d="M475.5,537.0234 L531.5,537.0234 C536.5,537.0234 536.5,550.1719 536.5,550.1719 C536.5,550.1719 536.5,563.3203 531.5,563.3203 L475.5,563.3203 C470.5,563.3203 470.5,550.1719 470.5,550.1719 C470.5,550.1719 470.5,537.0234 475.5,537.0234 " fill="#FFFFFF" style="stroke:#000000;stroke-width:1.0;"/><path d="M531.5,537.0234 C526.5,537.0234 526.5,550.1719 526.5,550.1719 C526.5,563.3203 531.5,563.3203 531.5,563.3203 " fill="none" style="stroke:#000000;stroke-width:1.0;"/><text fill="#000000" font-family="Verdana" font-size="14" lengthAdjust="spacing" textLength="46" x="475.5" y="555.0186">Bron 1</text><path d="M551.5,56 L607.5,56 C612.5,56 612.5,69.1484 612.5,69.1484 C612.5,69.1484 612.5,82.2969 607.5,82.2969 L551.5,82.2969 C546.5,82.2969 546.5,69.1484 546.5,69.1484 C546.5,69.1484 546.5,56 551.5,56 " fill="#FFFFFF" style="stroke:#000000;stroke-width:1.0;"/><path d="M607.5,56 C602.5,56 602.5,69.1484 602.5,69.1484 C602.5,82.2969 607.5,82.2969 607.5,82.2969 " fill="none" style="stroke:#000000;stroke-width:1.0;"/><text fill="#000000" font-family="Verdana" font-size="14" lengthAdjust="spacing" textLength="46" x="551.5" y="73.9951">Bron 2</text><path d="M551.5,537.0234 L607.5,537.0234 C612.5,537.0234 612.5,550.1719 612.5,550.1719 C612.5,550.1719 612.5,563.3203 607.5,563.3203 L551.5,563.3203 C546.5,563.3203 546.5,550.1719 546.5,550.1719 C546.5,550.1719 546.5,537.0234 551.5,537.0234 " fill="#FFFFFF" style="stroke:#000000;stroke-width:1.0;"/><path d="M607.5,537.0234 C602.5,537.0234 602.5,550.1719 602.5,550.1719 C602.5,563.3203 607.5,563.3203 607.5,563.3203 " fill="none" style="stroke:#000000;stroke-width:1.0;"/><text fill="#000000" font-family="Verdana" font-size="14" lengthAdjust="spacing" textLength="46" x="551.5" y="555.0186">Bron 2</text><path d="M627.5,56 L684.5,56 C689.5,56 689.5,69.1484 689.5,69.1484 C689.5,69.1484 689.5,82.2969 684.5,82.2969 L627.5,82.2969 C622.5,82.2969 622.5,69.1484 622.5,69.1484 C622.5,69.1484 622.5,56 627.5,56 " fill="#FFFFFF" style="stroke:#000000;stroke-width:1.0;"/><path d="M684.5,56 C679.5,56 679.5,69.1484 679.5,69.1484 C679.5,82.2969 684.5,82.2969 684.5,82.2969 " fill="none" style="stroke:#000000;stroke-width:1.0;"/><text fill="#000000" font-family="Verdana" font-size="14" lengthAdjust="spacing" textLength="47" x="627.5" y="73.9951">Bron N</text><path d="M627.5,537.0234 L684.5,537.0234 C689.5,537.0234 689.5,550.1719 689.5,550.1719 C689.5,550.1719 689.5,563.3203 684.5,563.3203 L627.5,563.3203 C622.5,563.3203 622.5,550.1719 622.5,550.1719 C622.5,550.1719 622.5,537.0234 627.5,537.0234 " fill="#FFFFFF" style="stroke:#000000;stroke-width:1.0;"/><path d="M684.5,537.0234 C679.5,537.0234 679.5,550.1719 679.5,550.1719 C679.5,563.3203 684.5,563.3203 684.5,563.3203 " fill="none" style="stroke:#000000;stroke-width:1.0;"/><text fill="#000000" font-family="Verdana" font-size="14" lengthAdjust="spacing" textLength="47" x="627.5" y="555.0186">Bron N</text><text fill="#000000" font-family="Verdana" font-size="14" lengthAdjust="spacing" textLength="156" x="699.5" y="78.9951">Resultaten Verwerking</text><path d="M762.5,30 C762.5,20 780.5,20 780.5,20 C780.5,20 798.5,20 798.5,30 L798.5,56 C798.5,66 780.5,66 780.5,66 C780.5,66 762.5,66 762.5,56 L762.5,30 " fill="#FFFFFF" style="stroke:#000000;stroke-width:1.5;"/><path d="M762.5,30 C762.5,40 780.5,40 780.5,40 C780.5,40 798.5,40 798.5,30 " fill="none" style="stroke:#000000;stroke-width:1.5;"/><text fill="#000000" font-family="Verdana" font-size="14" lengthAdjust="spacing" textLength="156" x="699.5" y="550.0186">Resultaten Verwerking</text><path d="M762.5,563.3203 C762.5,553.3203 780.5,553.3203 780.5,553.3203 C780.5,553.3203 798.5,553.3203 798.5,563.3203 L798.5,589.3203 C798.5,599.3203 780.5,599.3203 780.5,599.3203 C780.5,599.3203 762.5,599.3203 762.5,589.3203 L762.5,563.3203 " fill="#FFFFFF" style="stroke:#000000;stroke-width:1.5;"/><path d="M762.5,563.3203 C762.5,573.3203 780.5,573.3203 780.5,573.3203 C780.5,573.3203 798.5,573.3203 798.5,563.3203 " fill="none" style="stroke:#000000;stroke-width:1.5;"/><rect fill="#FFFFFF" height="3" style="stroke:#FFFFFF;stroke-width:1.0;" width="861.5" x="5" y="112.8633"/><line style="stroke:#000000;stroke-width:0.5;" x1="5" x2="866.5" y1="112.8633" y2="112.8633"/><line style="stroke:#000000;stroke-width:0.5;" x1="5" x2="866.5" y1="115.8633" y2="115.8633"/><rect fill="#FFFFFF" height="23.1328" style="stroke:#000000;stroke-width:1.0;" width="149" x="361.25" y="102.2969"/><text fill="#000000" font-family="Verdana" font-size="13" font-weight="bold" lengthAdjust="spacing" textLength="130" x="367.25" y="118.3638">Bevraging Proces</text><polygon fill="#000000" points="297.5,152.5625,307.5,156.5625,297.5,160.5625,301.5,156.5625" style="stroke:#000000;stroke-width:1.0;"/><line style="stroke:#000000;stroke-width:1.0;" x1="49.5" x2="303.5" y1="156.5625" y2="156.5625"/><text fill="#000000" font-family="Verdana" font-size="13" lengthAdjust="spacing" textLength="183" x="56.5" y="151.4966">Bevraagt federatief endpoint</text><line style="stroke:#000000;stroke-width:1.0;" x1="309.5" x2="351.5" y1="185.6953" y2="185.6953"/><line style="stroke:#000000;stroke-width:1.0;" x1="351.5" x2="351.5" y1="185.6953" y2="198.6953"/><line style="stroke:#000000;stroke-width:1.0;" x1="310.5" x2="351.5" y1="198.6953" y2="198.6953"/><polygon fill="#000000" points="320.5,194.6953,310.5,198.6953,320.5,202.6953,316.5,198.6953" style="stroke:#000000;stroke-width:1.0;"/><text fill="#000000" font-family="Verdana" font-size="13" lengthAdjust="spacing" textLength="103" x="316.5" y="180.6294">Bepaalt sources</text><path d="M239.5,213.6953 L572.5,213.6953 L572.5,220.8281 L562.5,230.8281 L239.5,230.8281 L239.5,213.6953 " fill="#FFFFFF" style="stroke:#000000;stroke-width:1.0;"/><rect fill="none" height="104.5313" style="stroke:#000000;stroke-width:1.0;" width="460" x="239.5" y="213.6953"/><text fill="#000000" font-family="Verdana" font-size="13" font-weight="bold" lengthAdjust="spacing" textLength="288" x="254.5" y="226.7622">Asynchroon bevragen van alle bronnen</text><polygon fill="#000000" points="491.5,247.9609,501.5,251.9609,491.5,255.9609,495.5,251.9609" style="stroke:#000000;stroke-width:1.0;"/><line style="stroke:#000000;stroke-width:1.0;" x1="309.5" x2="497.5" y1="251.9609" y2="251.9609"/><text fill="#000000" font-family="Verdana" font-size="13" lengthAdjust="spacing" textLength="70" x="316.5" y="246.895">Stelt vraag</text><polygon fill="#000000" points="567.5,277.0938,577.5,281.0938,567.5,285.0938,571.5,281.0938" style="stroke:#000000;stroke-width:1.0;"/><line style="stroke:#000000;stroke-width:1.0;" x1="309.5" x2="573.5" y1="281.0938" y2="281.0938"/><text fill="#000000" font-family="Verdana" font-size="13" lengthAdjust="spacing" textLength="70" x="316.5" y="276.0278">Stelt vraag</text><polygon fill="#000000" points="644,306.2266,654,310.2266,644,314.2266,648,310.2266" style="stroke:#000000;stroke-width:1.0;"/><line style="stroke:#000000;stroke-width:1.0;" x1="309.5" x2="650" y1="310.2266" y2="310.2266"/><text fill="#000000" font-family="Verdana" font-size="13" lengthAdjust="spacing" textLength="70" x="316.5" y="305.1606">Stelt vraag</text><polygon fill="#000000" points="320.5,370.3594,310.5,374.3594,320.5,378.3594,316.5,374.3594" style="stroke:#000000;stroke-width:1.0;"/><line style="stroke:#000000;stroke-width:1.0;" x1="314.5" x2="502.5" y1="374.3594" y2="374.3594"/><text fill="#000000" font-family="Verdana" font-size="13" lengthAdjust="spacing" textLength="72" x="326.5" y="369.2935">Resultaat 1</text><polygon fill="#000000" points="320.5,399.4922,310.5,403.4922,320.5,407.4922,316.5,403.4922" style="stroke:#000000;stroke-width:1.0;"/><line style="stroke:#000000;stroke-width:1.0;" x1="314.5" x2="578.5" y1="403.4922" y2="403.4922"/><text fill="#000000" font-family="Verdana" font-size="13" lengthAdjust="spacing" textLength="72" x="326.5" y="398.4263">Resultaat 2</text><polygon fill="#000000" points="320.5,428.625,310.5,432.625,320.5,436.625,316.5,432.625" style="stroke:#000000;stroke-width:1.0;"/><line style="stroke:#000000;stroke-width:1.0;" x1="314.5" x2="655" y1="432.625" y2="432.625"/><text fill="#000000" font-family="Verdana" font-size="13" lengthAdjust="spacing" textLength="74" x="326.5" y="427.5591">Resultaat N</text><polygon fill="#000000" points="768.5,457.7578,778.5,461.7578,768.5,465.7578,772.5,461.7578" style="stroke:#000000;stroke-width:1.0;"/><line style="stroke:#000000;stroke-width:1.0;" x1="309.5" x2="774.5" y1="461.7578" y2="461.7578"/><text fill="#000000" font-family="Verdana" font-size="13" lengthAdjust="spacing" textLength="178" x="316.5" y="456.6919">Verwerkt resultaten per 500</text><polygon fill="#000000" points="320.5,486.8906,310.5,490.8906,320.5,494.8906,316.5,490.8906" style="stroke:#000000;stroke-width:1.0;"/><line style="stroke:#000000;stroke-width:1.0;" x1="314.5" x2="779.5" y1="490.8906" y2="490.8906"/><text fill="#000000" font-family="Verdana" font-size="13" lengthAdjust="spacing" textLength="161" x="326.5" y="485.8247">Gegroepeerde resultaten</text><polygon fill="#000000" points="60.5,516.0234,50.5,520.0234,60.5,524.0234,56.5,520.0234" style="stroke:#000000;stroke-width:1.0;"/><line style="stroke:#000000;stroke-width:1.0;" x1="54.5" x2="308.5" y1="520.0234" y2="520.0234"/><text fill="#000000" font-family="Verdana" font-size="13" lengthAdjust="spacing" textLength="236" x="66.5" y="514.9575">Geeft gegroepeerde resultaten terug</text><!--SRC=[TP3DJiD038JlVWgJErKJYGjIa8Wet2AKIhsxYPj6XDtWTOhwzhX9-aTXRpip- -tOTxhbJyQkfSO1KAbUiE2ldeEo80MCJhS8s6cZUuoMJ59kSU6gpZTEeqFkTG4LAQqfC4OlZV01jHyiku4nUZCoyGxZGStYAp4PnUHAp4Snlq0N7FfMITdXYkMRvQDnzH0hLW1fYXdlX6eJyLryoG7J5CuJtJzPKtmSKrGhRhXY8MruWppD0vOuvpgYLZ7uNWm6jVY-m-UmT-LMl5LS3zzPcnqvfBPbN5jpnmxGpaZAOYCjbOqp_7ff9VzR-I_B-i5iDWF37UjDso3560nrAoTWc5ivdsOiLYPFUrIKysuxszN3V0uMEBv-OnkUEsQf-29w99rMV4ZoHh7-Eu-MwUiV]--></g></svg>