<?xml version="1.0" encoding="us-ascii" standalone="no"?><svg xmlns="http://www.w3.org/2000/svg" xmlns:xlink="http://www.w3.org/1999/xlink" contentStyleType="text/css" height="619px" preserveAspectRatio="none" style="width:796px;height:619px;background:#FFFFFF;" version="1.1" viewBox="0 0 796 619" width="796px" zoomAndPan="magnify"><defs/><g><rect fill="#FFFFFF" height="104.5313" style="stroke:#000000;stroke-width:1.0;" width="393.5" x="229" y="213.6953"/><line style="stroke:#000000;stroke-width:1.0;" x1="49" x2="49" y1="82.2969" y2="325.2266"/><line style="stroke:#000000;stroke-width:1.0;stroke-dasharray:1.0,4.0;" x1="49" x2="49" y1="325.2266" y2="353.2266"/><line style="stroke:#000000;stroke-width:1.0;" x1="49" x2="49" y1="353.2266" y2="538.0234"/><line style="stroke:#000000;stroke-width:1.0;" x1="309" x2="309" y1="82.2969" y2="325.2266"/><line style="stroke:#000000;stroke-width:1.0;stroke-dasharray:1.0,4.0;" x1="309" x2="309" y1="325.2266" y2="353.2266"/><line style="stroke:#000000;stroke-width:1.0;" x1="309" x2="309" y1="353.2266" y2="538.0234"/><line style="stroke:#000000;stroke-width:1.0;" x1="426.5" x2="426.5" y1="82.2969" y2="325.2266"/><line style="stroke:#000000;stroke-width:1.0;stroke-dasharray:1.0,4.0;" x1="426.5" x2="426.5" y1="325.2266" y2="353.2266"/><line style="stroke:#000000;stroke-width:1.0;" x1="426.5" x2="426.5" y1="353.2266" y2="538.0234"/><line style="stroke:#000000;stroke-width:1.0;" x1="502.5" x2="502.5" y1="82.2969" y2="325.2266"/><line style="stroke:#000000;stroke-width:1.0;stroke-dasharray:1.0,4.0;" x1="502.5" x2="502.5" y1="325.2266" y2="353.2266"/><line style="stroke:#000000;stroke-width:1.0;" x1="502.5" x2="502.5" y1="353.2266" y2="538.0234"/><line style="stroke:#000000;stroke-width:1.0;" x1="578.5" x2="578.5" y1="82.2969" y2="325.2266"/><line style="stroke:#000000;stroke-width:1.0;stroke-dasharray:1.0,4.0;" x1="578.5" x2="578.5" y1="325.2266" y2="353.2266"/><line style="stroke:#000000;stroke-width:1.0;" x1="578.5" x2="578.5" y1="353.2266" y2="538.0234"/><line style="stroke:#000000;stroke-width:1.0;" x1="703.5" x2="703.5" y1="82.2969" y2="325.2266"/><line style="stroke:#000000;stroke-width:1.0;stroke-dasharray:1.0,4.0;" x1="703.5" x2="703.5" y1="325.2266" y2="353.2266"/><line style="stroke:#000000;stroke-width:1.0;" x1="703.5" x2="703.5" y1="353.2266" y2="538.0234"/><text fill="#000000" font-family="Verdana" font-size="14" lengthAdjust="spacing" textLength="73" x="10" y="78.9951">Requester</text><ellipse cx="49.5" cy="14" fill="#FFFFFF" rx="8" ry="8" style="stroke:#000000;stroke-width:1.0;"/><path d="M49.5,22 L49.5,49 M36.5,30 L62.5,30 M49.5,49 L36.5,64 M49.5,49 L62.5,64 " fill="none" style="stroke:#000000;stroke-width:1.0;"/><text fill="#000000" font-family="Verdana" font-size="14" lengthAdjust="spacing" textLength="73" x="10" y="550.0186">Requester</text><ellipse cx="49.5" cy="562.3203" fill="#FFFFFF" rx="8" ry="8" style="stroke:#000000;stroke-width:1.0;"/><path d="M49.5,570.3203 L49.5,597.3203 M36.5,578.3203 L62.5,578.3203 M49.5,597.3203 L36.5,612.3203 M49.5,597.3203 L62.5,612.3203 " fill="none" style="stroke:#000000;stroke-width:1.0;"/><text fill="#000000" font-family="Verdana" font-size="14" lengthAdjust="spacing" textLength="135" x="239" y="78.9951">Federatief Endpoint</text><ellipse cx="309.5" cy="50" fill="#FFFFFF" rx="12" ry="12" style="stroke:#000000;stroke-width:1.0;"/><line style="stroke:#000000;stroke-width:1.0;" x1="297.5" x2="321.5" y1="64" y2="64"/><text fill="#000000" font-family="Verdana" font-size="14" lengthAdjust="spacing" textLength="135" x="239" y="550.0186">Federatief Endpoint</text><ellipse cx="309.5" cy="569.3203" fill="#FFFFFF" rx="12" ry="12" style="stroke:#000000;stroke-width:1.0;"/><line style="stroke:#000000;stroke-width:1.0;" x1="297.5" x2="321.5" y1="583.3203" y2="583.3203"/><path d="M398.5,56 L454.5,56 C459.5,56 459.5,69.1484 459.5,69.1484 C459.5,69.1484 459.5,82.2969 454.5,82.2969 L398.5,82.2969 C393.5,82.2969 393.5,69.1484 393.5,69.1484 C393.5,69.1484 393.5,56 398.5,56 " fill="#FFFFFF" style="stroke:#000000;stroke-width:1.0;"/><path d="M454.5,56 C449.5,56 449.5,69.1484 449.5,69.1484 C449.5,82.2969 454.5,82.2969 454.5,82.2969 " fill="none" style="stroke:#000000;stroke-width:1.0;"/><text fill="#000000" font-family="Verdana" font-size="14" lengthAdjust="spacing" textLength="46" x="398.5" y="73.9951">Bron 1</text><path d="M398.5,537.0234 L454.5,537.0234 C459.5,537.0234 459.5,550.1719 459.5,550.1719 C459.5,550.1719 459.5,563.3203 454.5,563.3203 L398.5,563.3203 C393.5,563.3203 393.5,550.1719 393.5,550.1719 C393.5,550.1719 393.5,537.0234 398.5,537.0234 " fill="#FFFFFF" style="stroke:#000000;stroke-width:1.0;"/><path d="M454.5,537.0234 C449.5,537.0234 449.5,550.1719 449.5,550.1719 C449.5,563.3203 454.5,563.3203 454.5,563.3203 " fill="none" style="stroke:#000000;stroke-width:1.0;"/><text fill="#000000" font-family="Verdana" font-size="14" lengthAdjust="spacing" textLength="46" x="398.5" y="555.0186">Bron 1</text><path d="M474.5,56 L530.5,56 C535.5,56 535.5,69.1484 535.5,69.1484 C535.5,69.1484 535.5,82.2969 530.5,82.2969 L474.5,82.2969 C469.5,82.2969 469.5,69.1484 469.5,69.1484 C469.5,69.1484 469.5,56 474.5,56 " fill="#FFFFFF" style="stroke:#000000;stroke-width:1.0;"/><path d="M530.5,56 C525.5,56 525.5,69.1484 525.5,69.1484 C525.5,82.2969 530.5,82.2969 530.5,82.2969 " fill="none" style="stroke:#000000;stroke-width:1.0;"/><text fill="#000000" font-family="Verdana" font-size="14" lengthAdjust="spacing" textLength="46" x="474.5" y="73.9951">Bron 2</text><path d="M474.5,537.0234 L530.5,537.0234 C535.5,537.0234 535.5,550.1719 535.5,550.1719 C535.5,550.1719 535.5,563.3203 530.5,563.3203 L474.5,563.3203 C469.5,563.3203 469.5,550.1719 469.5,550.1719 C469.5,550.1719 469.5,537.0234 474.5,537.0234 " fill="#FFFFFF" style="stroke:#000000;stroke-width:1.0;"/><path d="M530.5,537.0234 C525.5,537.0234 525.5,550.1719 525.5,550.1719 C525.5,563.3203 530.5,563.3203 530.5,563.3203 " fill="none" style="stroke:#000000;stroke-width:1.0;"/><text fill="#000000" font-family="Verdana" font-size="14" lengthAdjust="spacing" textLength="46" x="474.5" y="555.0186">Bron 2</text><path d="M550.5,56 L607.5,56 C612.5,56 612.5,69.1484 612.5,69.1484 C612.5,69.1484 612.5,82.2969 607.5,82.2969 L550.5,82.2969 C545.5,82.2969 545.5,69.1484 545.5,69.1484 C545.5,69.1484 545.5,56 550.5,56 " fill="#FFFFFF" style="stroke:#000000;stroke-width:1.0;"/><path d="M607.5,56 C602.5,56 602.5,69.1484 602.5,69.1484 C602.5,82.2969 607.5,82.2969 607.5,82.2969 " fill="none" style="stroke:#000000;stroke-width:1.0;"/><text fill="#000000" font-family="Verdana" font-size="14" lengthAdjust="spacing" textLength="47" x="550.5" y="73.9951">Bron N</text><path d="M550.5,537.0234 L607.5,537.0234 C612.5,537.0234 612.5,550.1719 612.5,550.1719 C612.5,550.1719 612.5,563.3203 607.5,563.3203 L550.5,563.3203 C545.5,563.3203 545.5,550.1719 545.5,550.1719 C545.5,550.1719 545.5,537.0234 550.5,537.0234 " fill="#FFFFFF" style="stroke:#000000;stroke-width:1.0;"/><path d="M607.5,537.0234 C602.5,537.0234 602.5,550.1719 602.5,550.1719 C602.5,563.3203 607.5,563.3203 607.5,563.3203 " fill="none" style="stroke:#000000;stroke-width:1.0;"/><text fill="#000000" font-family="Verdana" font-size="14" lengthAdjust="spacing" textLength="47" x="550.5" y="555.0186">Bron N</text><text fill="#000000" font-family="Verdana" font-size="14" lengthAdjust="spacing" textLength="156" x="622.5" y="78.9951">Resultaten Verwerking</text><path d="M685.5,30 C685.5,20 703.5,20 703.5,20 C703.5,20 721.5,20 721.5,30 L721.5,56 C721.5,66 703.5,66 703.5,66 C703.5,66 685.5,66 685.5,56 L685.5,30 " fill="#FFFFFF" style="stroke:#000000;stroke-width:1.5;"/><path d="M685.5,30 C685.5,40 703.5,40 703.5,40 C703.5,40 721.5,40 721.5,30 " fill="none" style="stroke:#000000;stroke-width:1.5;"/><text fill="#000000" font-family="Verdana" font-size="14" lengthAdjust="spacing" textLength="156" x="622.5" y="550.0186">Resultaten Verwerking</text><path d="M685.5,563.3203 C685.5,553.3203 703.5,553.3203 703.5,553.3203 C703.5,553.3203 721.5,553.3203 721.5,563.3203 L721.5,589.3203 C721.5,599.3203 703.5,599.3203 703.5,599.3203 C703.5,599.3203 685.5,599.3203 685.5,589.3203 L685.5,563.3203 " fill="#FFFFFF" style="stroke:#000000;stroke-width:1.5;"/><path d="M685.5,563.3203 C685.5,573.3203 703.5,573.3203 703.5,573.3203 C703.5,573.3203 721.5,573.3203 721.5,563.3203 " fill="none" style="stroke:#000000;stroke-width:1.5;"/><rect fill="#FFFFFF" height="3" style="stroke:#FFFFFF;stroke-width:1.0;" width="784.5" x="5" y="112.8633"/><line style="stroke:#000000;stroke-width:0.5;" x1="5" x2="789.5" y1="112.8633" y2="112.8633"/><line style="stroke:#000000;stroke-width:0.5;" x1="5" x2="789.5" y1="115.8633" y2="115.8633"/><rect fill="#FFFFFF" height="23.1328" style="stroke:#000000;stroke-width:1.0;" width="149" x="322.75" y="102.2969"/><text fill="#000000" font-family="Verdana" font-size="13" font-weight="bold" lengthAdjust="spacing" textLength="130" x="328.75" y="118.3638">Bevraging Proces</text><polygon fill="#000000" points="297.5,152.5625,307.5,156.5625,297.5,160.5625,301.5,156.5625" style="stroke:#000000;stroke-width:1.0;"/><line style="stroke:#000000;stroke-width:1.0;" x1="49.5" x2="303.5" y1="156.5625" y2="156.5625"/><text fill="#000000" font-family="Verdana" font-size="13" lengthAdjust="spacing" textLength="183" x="56.5" y="151.4966">Bevraagt federatief endpoint</text><line style="stroke:#000000;stroke-width:1.0;" x1="309.5" x2="351.5" y1="185.6953" y2="185.6953"/><line style="stroke:#000000;stroke-width:1.0;" x1="351.5" x2="351.5" y1="185.6953" y2="198.6953"/><line style="stroke:#000000;stroke-width:1.0;" x1="310.5" x2="351.5" y1="198.6953" y2="198.6953"/><polygon fill="#000000" points="320.5,194.6953,310.5,198.6953,320.5,202.6953,316.5,198.6953" style="stroke:#000000;stroke-width:1.0;"/><text fill="#000000" font-family="Verdana" font-size="13" lengthAdjust="spacing" textLength="103" x="316.5" y="180.6294">Bepaalt sources</text><path d="M229,213.6953 L562,213.6953 L562,220.8281 L552,230.8281 L229,230.8281 L229,213.6953 " fill="#FFFFFF" style="stroke:#000000;stroke-width:1.0;"/><rect fill="none" height="104.5313" style="stroke:#000000;stroke-width:1.0;" width="393.5" x="229" y="213.6953"/><text fill="#000000" font-family="Verdana" font-size="13" font-weight="bold" lengthAdjust="spacing" textLength="288" x="244" y="226.7622">Asynchroon bevragen van alle bronnen</text><polygon fill="#000000" points="414.5,247.9609,424.5,251.9609,414.5,255.9609,418.5,251.9609" style="stroke:#000000;stroke-width:1.0;"/><line style="stroke:#000000;stroke-width:1.0;" x1="309.5" x2="420.5" y1="251.9609" y2="251.9609"/><text fill="#000000" font-family="Verdana" font-size="13" lengthAdjust="spacing" textLength="70" x="316.5" y="246.895">Stelt vraag</text><polygon fill="#000000" points="490.5,277.0938,500.5,281.0938,490.5,285.0938,494.5,281.0938" style="stroke:#000000;stroke-width:1.0;"/><line style="stroke:#000000;stroke-width:1.0;" x1="309.5" x2="496.5" y1="281.0938" y2="281.0938"/><text fill="#000000" font-family="Verdana" font-size="13" lengthAdjust="spacing" textLength="70" x="316.5" y="276.0278">Stelt vraag</text><polygon fill="#000000" points="567,306.2266,577,310.2266,567,314.2266,571,310.2266" style="stroke:#000000;stroke-width:1.0;"/><line style="stroke:#000000;stroke-width:1.0;" x1="309.5" x2="573" y1="310.2266" y2="310.2266"/><text fill="#000000" font-family="Verdana" font-size="13" lengthAdjust="spacing" textLength="70" x="316.5" y="305.1606">Stelt vraag</text><polygon fill="#000000" points="320.5,370.3594,310.5,374.3594,320.5,378.3594,316.5,374.3594" style="stroke:#000000;stroke-width:1.0;"/><line style="stroke:#000000;stroke-width:1.0;" x1="314.5" x2="425.5" y1="374.3594" y2="374.3594"/><text fill="#000000" font-family="Verdana" font-size="13" lengthAdjust="spacing" textLength="72" x="326.5" y="369.2935">Resultaat 1</text><polygon fill="#000000" points="320.5,399.4922,310.5,403.4922,320.5,407.4922,316.5,403.4922" style="stroke:#000000;stroke-width:1.0;"/><line style="stroke:#000000;stroke-width:1.0;" x1="314.5" x2="501.5" y1="403.4922" y2="403.4922"/><text fill="#000000" font-family="Verdana" font-size="13" lengthAdjust="spacing" textLength="72" x="326.5" y="398.4263">Resultaat 2</text><polygon fill="#000000" points="320.5,428.625,310.5,432.625,320.5,436.625,316.5,432.625" style="stroke:#000000;stroke-width:1.0;"/><line style="stroke:#000000;stroke-width:1.0;" x1="314.5" x2="578" y1="432.625" y2="432.625"/><text fill="#000000" font-family="Verdana" font-size="13" lengthAdjust="spacing" textLength="74" x="326.5" y="427.5591">Resultaat N</text><polygon fill="#000000" points="691.5,457.7578,701.5,461.7578,691.5,465.7578,695.5,461.7578" style="stroke:#000000;stroke-width:1.0;"/><line style="stroke:#000000;stroke-width:1.0;" x1="309.5" x2="697.5" y1="461.7578" y2="461.7578"/><text fill="#000000" font-family="Verdana" font-size="13" lengthAdjust="spacing" textLength="178" x="316.5" y="456.6919">Verwerkt resultaten per 500</text><polygon fill="#000000" points="320.5,486.8906,310.5,490.8906,320.5,494.8906,316.5,490.8906" style="stroke:#000000;stroke-width:1.0;"/><line style="stroke:#000000;stroke-width:1.0;" x1="314.5" x2="702.5" y1="490.8906" y2="490.8906"/><text fill="#000000" font-family="Verdana" font-size="13" lengthAdjust="spacing" textLength="161" x="326.5" y="485.8247">Gegroepeerde resultaten</text><polygon fill="#000000" points="60.5,516.0234,50.5,520.0234,60.5,524.0234,56.5,520.0234" style="stroke:#000000;stroke-width:1.0;"/><line style="stroke:#000000;stroke-width:1.0;" x1="54.5" x2="308.5" y1="520.0234" y2="520.0234"/><text fill="#000000" font-family="Verdana" font-size="13" lengthAdjust="spacing" textLength="236" x="66.5" y="514.9575">Geeft gegroepeerde resultaten terug</text><!--SRC=[TP11Ru9048Nlyokct6k4f9ScD2c9zaOQcdWVPKGYtQMpWut_lYEWQ6ttjc- -VVFsFUYEFndRXce7G1lrWWL_THoK1IbWTBb5m4vhFMAqv9A5jEOjBbpP-jffT6AN2p2sOumoyGxZNipY6p4PnEH6p0SnXvAKrXJuj3PqZPAomnNBDyk-TbMF5Ik0DCMC3qALYVWkViC1qnIcv8ylbWQV1uegnUsKcSVCOCJ4jKIDOl2Tc1bKuhiMNyFHRNRYBUAwNsTf3kIGcePnRSaTEq0xWrCMczE7ildqMwz7oV-Z_DV8yi5iDWEpEySRso356CpgNax0RExbVFnZiJ9vx55HfcvRw-ffFWS3pg_Vs3xFBREKV8MUdIuLdqZUAbP_ysXCL_q0]--></g></svg>