<?xml version="1.0" encoding="us-ascii" standalone="no"?><svg xmlns="http://www.w3.org/2000/svg" xmlns:xlink="http://www.w3.org/1999/xlink" contentStyleType="text/css" height="551px" preserveAspectRatio="none" style="width:947px;height:551px;background:#FFFFFF;" version="1.1" viewBox="0 0 947 551" width="947px" zoomAndPan="magnify"><defs/><g><text fill="#000000" font-family="sans-serif" font-size="14" font-weight="bold" lengthAdjust="spacing" textLength="187" x="376.25" y="40.6357">Publiccode Installation</text><line style="stroke:#181818;stroke-width:0.5;stroke-dasharray:5.0,5.0;" x1="44" x2="44" y1="131.2344" y2="455.5625"/><line style="stroke:#181818;stroke-width:0.5;stroke-dasharray:5.0,5.0;" x1="344.5" x2="344.5" y1="131.2344" y2="455.5625"/><line style="stroke:#181818;stroke-width:0.5;stroke-dasharray:5.0,5.0;" x1="568" x2="568" y1="131.2344" y2="455.5625"/><line style="stroke:#181818;stroke-width:0.5;stroke-dasharray:5.0,5.0;" x1="744" x2="744" y1="131.2344" y2="455.5625"/><line style="stroke:#181818;stroke-width:0.5;stroke-dasharray:5.0,5.0;" x1="906.5" x2="906.5" y1="131.2344" y2="455.5625"/><text fill="#000000" font-family="sans-serif" font-size="14" lengthAdjust="spacing" textLength="72" x="5" y="127.9326">Employee</text><ellipse cx="44" cy="63.4375" fill="#E2E2F0" rx="8" ry="8" style="stroke:#181818;stroke-width:0.5;"/><path d="M44,71.4375 L44,98.4375 M31,79.4375 L57,79.4375 M44,98.4375 L31,113.4375 M44,98.4375 L57,113.4375 " fill="none" style="stroke:#181818;stroke-width:0.5;"/><text fill="#000000" font-family="sans-serif" font-size="14" lengthAdjust="spacing" textLength="72" x="5" y="467.5576">Employee</text><ellipse cx="44" cy="479.3594" fill="#E2E2F0" rx="8" ry="8" style="stroke:#181818;stroke-width:0.5;"/><path d="M44,487.3594 L44,514.3594 M31,495.3594 L57,495.3594 M44,514.3594 L31,529.3594 M44,514.3594 L57,529.3594 " fill="none" style="stroke:#181818;stroke-width:0.5;"/><text fill="#000000" font-family="sans-serif" font-size="14" lengthAdjust="spacing" textLength="79" x="302.5" y="127.9326">Repository</text><ellipse cx="345" cy="98.9375" fill="#E2E2F0" rx="12" ry="12" style="stroke:#181818;stroke-width:0.5;"/><line style="stroke:#181818;stroke-width:0.5;" x1="333" x2="357" y1="112.9375" y2="112.9375"/><text fill="#000000" font-family="sans-serif" font-size="14" lengthAdjust="spacing" textLength="79" x="302.5" y="467.5576">Repository</text><ellipse cx="345" cy="486.8594" fill="#E2E2F0" rx="12" ry="12" style="stroke:#181818;stroke-width:0.5;"/><line style="stroke:#181818;stroke-width:0.5;" x1="333" x2="357" y1="500.8594" y2="500.8594"/><text fill="#000000" font-family="sans-serif" font-size="14" lengthAdjust="spacing" textLength="98" x="516" y="127.9326">OpenCatalogi</text><ellipse cx="568" cy="98.9375" fill="#E2E2F0" rx="12" ry="12" style="stroke:#181818;stroke-width:0.5;"/><line style="stroke:#181818;stroke-width:0.5;" x1="556" x2="580" y1="112.9375" y2="112.9375"/><text fill="#000000" font-family="sans-serif" font-size="14" lengthAdjust="spacing" textLength="98" x="516" y="467.5576">OpenCatalogi</text><ellipse cx="568" cy="486.8594" fill="#E2E2F0" rx="12" ry="12" style="stroke:#181818;stroke-width:0.5;"/><line style="stroke:#181818;stroke-width:0.5;" x1="556" x2="580" y1="500.8594" y2="500.8594"/><text fill="#000000" font-family="sans-serif" font-size="14" lengthAdjust="spacing" textLength="66" x="708" y="127.9326">Frontend</text><ellipse cx="744" cy="98.9375" fill="#E2E2F0" rx="12" ry="12" style="stroke:#181818;stroke-width:0.5;"/><line style="stroke:#181818;stroke-width:0.5;" x1="732" x2="756" y1="112.9375" y2="112.9375"/><text fill="#000000" font-family="sans-serif" font-size="14" lengthAdjust="spacing" textLength="66" x="708" y="467.5576">Frontend</text><ellipse cx="744" cy="486.8594" fill="#E2E2F0" rx="12" ry="12" style="stroke:#181818;stroke-width:0.5;"/><line style="stroke:#181818;stroke-width:0.5;" x1="732" x2="756" y1="500.8594" y2="500.8594"/><text fill="#000000" font-family="sans-serif" font-size="14" lengthAdjust="spacing" textLength="51" x="878.5" y="127.9326">Citizen</text><ellipse cx="907" cy="63.4375" fill="#E2E2F0" rx="8" ry="8" style="stroke:#181818;stroke-width:0.5;"/><path d="M907,71.4375 L907,98.4375 M894,79.4375 L920,79.4375 M907,98.4375 L894,113.4375 M907,98.4375 L920,113.4375 " fill="none" style="stroke:#181818;stroke-width:0.5;"/><text fill="#000000" font-family="sans-serif" font-size="14" lengthAdjust="spacing" textLength="51" x="878.5" y="467.5576">Citizen</text><ellipse cx="907" cy="479.3594" fill="#E2E2F0" rx="8" ry="8" style="stroke:#181818;stroke-width:0.5;"/><path d="M907,487.3594 L907,514.3594 M894,495.3594 L920,495.3594 M907,514.3594 L894,529.3594 M907,514.3594 L920,529.3594 " fill="none" style="stroke:#181818;stroke-width:0.5;"/><polygon fill="#181818" points="333,158.3672,343,162.3672,333,166.3672,337,162.3672" style="stroke:#181818;stroke-width:1.0;"/><line style="stroke:#181818;stroke-width:1.0;" x1="44" x2="339" y1="162.3672" y2="162.3672"/><text fill="#000000" font-family="sans-serif" font-size="13" lengthAdjust="spacing" textLength="277" x="51" y="157.3013">Places data or code that schould be shared</text><polygon fill="#181818" points="333,187.5,343,191.5,333,195.5,337,191.5" style="stroke:#181818;stroke-width:1.0;"/><line style="stroke:#181818;stroke-width:1.0;" x1="44" x2="339" y1="191.5" y2="191.5"/><text fill="#000000" font-family="sans-serif" font-size="13" lengthAdjust="spacing" textLength="202" x="51" y="186.4341">Places and configures workflow</text><line style="stroke:#181818;stroke-width:1.0;" x1="345" x2="387" y1="220.6328" y2="220.6328"/><line style="stroke:#181818;stroke-width:1.0;" x1="387" x2="387" y1="220.6328" y2="233.6328"/><line style="stroke:#181818;stroke-width:1.0;" x1="346" x2="387" y1="233.6328" y2="233.6328"/><polygon fill="#181818" points="356,229.6328,346,233.6328,356,237.6328,352,233.6328" style="stroke:#181818;stroke-width:1.0;"/><text fill="#000000" font-family="sans-serif" font-size="13" lengthAdjust="spacing" textLength="209" x="352" y="215.5669">Workflow builds publiccode.yaml</text><polygon fill="#181818" points="556,258.7656,566,262.7656,556,266.7656,560,262.7656" style="stroke:#181818;stroke-width:1.0;"/><line style="stroke:#181818;stroke-width:1.0;" x1="345" x2="562" y1="262.7656" y2="262.7656"/><text fill="#000000" font-family="sans-serif" font-size="13" lengthAdjust="spacing" textLength="197" x="352" y="257.6997">Workflow notifies of repository</text><polygon fill="#181818" points="755,287.8984,745,291.8984,755,295.8984,751,291.8984" style="stroke:#181818;stroke-width:1.0;"/><line style="stroke:#181818;stroke-width:1.0;" x1="749" x2="906" y1="291.8984" y2="291.8984"/><text fill="#000000" font-family="sans-serif" font-size="13" lengthAdjust="spacing" textLength="97" x="761" y="286.8325">Views frontend</text><polygon fill="#181818" points="579,317.0313,569,321.0313,579,325.0313,575,321.0313" style="stroke:#181818;stroke-width:1.0;"/><line style="stroke:#181818;stroke-width:1.0;" x1="573" x2="743" y1="321.0313" y2="321.0313"/><text fill="#000000" font-family="sans-serif" font-size="13" lengthAdjust="spacing" textLength="152" x="585" y="315.9653">Queries federilizad data</text><polygon fill="#181818" points="732,346.1641,742,350.1641,732,354.1641,736,350.1641" style="stroke:#181818;stroke-width:1.0;"/><line style="stroke:#181818;stroke-width:1.0;" x1="568" x2="738" y1="350.1641" y2="350.1641"/><text fill="#000000" font-family="sans-serif" font-size="13" lengthAdjust="spacing" textLength="88" x="575" y="345.0981">Provides data</text><polygon fill="#181818" points="895,375.2969,905,379.2969,895,383.2969,899,379.2969" style="stroke:#181818;stroke-width:1.0;"/><line style="stroke:#181818;stroke-width:1.0;" x1="744" x2="901" y1="379.2969" y2="379.2969"/><text fill="#000000" font-family="sans-serif" font-size="13" lengthAdjust="spacing" textLength="139" x="751" y="374.231">Provides view of data</text><polygon fill="#181818" points="333,404.4297,343,408.4297,333,412.4297,337,408.4297" style="stroke:#181818;stroke-width:1.0;"/><line style="stroke:#181818;stroke-width:1.0;" x1="44" x2="339" y1="408.4297" y2="408.4297"/><text fill="#000000" font-family="sans-serif" font-size="13" lengthAdjust="spacing" textLength="150" x="51" y="403.3638">Alters any data or code</text><polygon fill="#181818" points="556,433.5625,566,437.5625,556,441.5625,560,437.5625" style="stroke:#181818;stroke-width:1.0;"/><line style="stroke:#181818;stroke-width:1.0;" x1="345" x2="562" y1="437.5625" y2="437.5625"/><text fill="#000000" font-family="sans-serif" font-size="13" lengthAdjust="spacing" textLength="186" x="352" y="432.4966">Workflow notifies of changes</text><text fill="#888888" font-family="sans-serif" font-size="10" lengthAdjust="spacing" textLength="59" x="880.5" y="14.2822">Publiccode</text><text fill="#888888" font-family="sans-serif" font-size="10" lengthAdjust="spacing" textLength="213" x="363.25" y="541.1416">Open Catalogi | Publiccode  Installation</text><!--SRC=[dPB1JiCm38RlUGg_03p03aXe0eaJWyCufutJMcHnbRYhEl7m95EpfKC8YMFY__jj_ucGEDp0RcmSjIqRX1SVHJkdXTWhoomODl0we8UjJWNk2Bvg_HheKPiCN0LAwLOumDDXS3mZAlH2CiCx3XmfLUPoavkK7kNkER0Nz6OnsPBG2RrIgjZ1tKDb1Qcpqor6CCa84d6UKNej4DkUHsUWGOYz3cZ-zD3U9DvRwiQGZXE7J-juKfNsblnODD2Cv4o4uPB3_QmFxWQjDwvXpqAMKaks4AuvBTjdikIIg3tX5C6Me2wLd_vl8uRiQZ6z4JawQNFEIQrqQ_TTu2EP9T2LUPccqXpJA7dci_RNT1zT-bCvtNdrIl_8fksrxp1-0m00]--></g></svg>