<?xml version="1.0" encoding="us-ascii" standalone="no"?><svg xmlns="http://www.w3.org/2000/svg" xmlns:xlink="http://www.w3.org/1999/xlink" contentStyleType="text/css" height="464px" preserveAspectRatio="none" style="width:1018px;height:464px;background:#FFFFFF;" version="1.1" viewBox="0 0 1018 464" width="1018px" zoomAndPan="magnify"><defs/><g><text fill="#000000" font-family="sans-serif" font-size="14" font-weight="bold" lengthAdjust="spacing" textLength="253" x="378.75" y="40.6357">Publicorganisation Installation</text><line style="stroke:#181818;stroke-width:0.5;stroke-dasharray:5.0,5.0;" x1="44" x2="44" y1="131.2344" y2="368.1641"/><line style="stroke:#181818;stroke-width:0.5;stroke-dasharray:5.0,5.0;" x1="269.5" x2="269.5" y1="131.2344" y2="368.1641"/><line style="stroke:#181818;stroke-width:0.5;stroke-dasharray:5.0,5.0;" x1="639" x2="639" y1="131.2344" y2="368.1641"/><line style="stroke:#181818;stroke-width:0.5;stroke-dasharray:5.0,5.0;" x1="815" x2="815" y1="131.2344" y2="368.1641"/><line style="stroke:#181818;stroke-width:0.5;stroke-dasharray:5.0,5.0;" x1="977.5" x2="977.5" y1="131.2344" y2="368.1641"/><text fill="#000000" font-family="sans-serif" font-size="14" lengthAdjust="spacing" textLength="72" x="5" y="127.9326">Employee</text><ellipse cx="44" cy="63.4375" fill="#E2E2F0" rx="8" ry="8" style="stroke:#181818;stroke-width:0.5;"/><path d="M44,71.4375 L44,98.4375 M31,79.4375 L57,79.4375 M44,98.4375 L31,113.4375 M44,98.4375 L57,113.4375 " fill="none" style="stroke:#181818;stroke-width:0.5;"/><text fill="#000000" font-family="sans-serif" font-size="14" lengthAdjust="spacing" textLength="72" x="5" y="380.1592">Employee</text><ellipse cx="44" cy="391.9609" fill="#E2E2F0" rx="8" ry="8" style="stroke:#181818;stroke-width:0.5;"/><path d="M44,399.9609 L44,426.9609 M31,407.9609 L57,407.9609 M44,426.9609 L31,441.9609 M44,426.9609 L57,441.9609 " fill="none" style="stroke:#181818;stroke-width:0.5;"/><text fill="#000000" font-family="sans-serif" font-size="14" lengthAdjust="spacing" textLength="79" x="227.5" y="127.9326">Repository</text><ellipse cx="270" cy="98.9375" fill="#E2E2F0" rx="12" ry="12" style="stroke:#181818;stroke-width:0.5;"/><line style="stroke:#181818;stroke-width:0.5;" x1="258" x2="282" y1="112.9375" y2="112.9375"/><text fill="#000000" font-family="sans-serif" font-size="14" lengthAdjust="spacing" textLength="79" x="227.5" y="380.1592">Repository</text><ellipse cx="270" cy="399.4609" fill="#E2E2F0" rx="12" ry="12" style="stroke:#181818;stroke-width:0.5;"/><line style="stroke:#181818;stroke-width:0.5;" x1="258" x2="282" y1="413.4609" y2="413.4609"/><text fill="#000000" font-family="sans-serif" font-size="14" lengthAdjust="spacing" textLength="98" x="587" y="127.9326">OpenCatalogi</text><ellipse cx="639" cy="98.9375" fill="#E2E2F0" rx="12" ry="12" style="stroke:#181818;stroke-width:0.5;"/><line style="stroke:#181818;stroke-width:0.5;" x1="627" x2="651" y1="112.9375" y2="112.9375"/><text fill="#000000" font-family="sans-serif" font-size="14" lengthAdjust="spacing" textLength="98" x="587" y="380.1592">OpenCatalogi</text><ellipse cx="639" cy="399.4609" fill="#E2E2F0" rx="12" ry="12" style="stroke:#181818;stroke-width:0.5;"/><line style="stroke:#181818;stroke-width:0.5;" x1="627" x2="651" y1="413.4609" y2="413.4609"/><text fill="#000000" font-family="sans-serif" font-size="14" lengthAdjust="spacing" textLength="66" x="779" y="127.9326">Frontend</text><ellipse cx="815" cy="98.9375" fill="#E2E2F0" rx="12" ry="12" style="stroke:#181818;stroke-width:0.5;"/><line style="stroke:#181818;stroke-width:0.5;" x1="803" x2="827" y1="112.9375" y2="112.9375"/><text fill="#000000" font-family="sans-serif" font-size="14" lengthAdjust="spacing" textLength="66" x="779" y="380.1592">Frontend</text><ellipse cx="815" cy="399.4609" fill="#E2E2F0" rx="12" ry="12" style="stroke:#181818;stroke-width:0.5;"/><line style="stroke:#181818;stroke-width:0.5;" x1="803" x2="827" y1="413.4609" y2="413.4609"/><text fill="#000000" font-family="sans-serif" font-size="14" lengthAdjust="spacing" textLength="51" x="949.5" y="127.9326">Citizen</text><ellipse cx="978" cy="63.4375" fill="#E2E2F0" rx="8" ry="8" style="stroke:#181818;stroke-width:0.5;"/><path d="M978,71.4375 L978,98.4375 M965,79.4375 L991,79.4375 M978,98.4375 L965,113.4375 M978,98.4375 L991,113.4375 " fill="none" style="stroke:#181818;stroke-width:0.5;"/><text fill="#000000" font-family="sans-serif" font-size="14" lengthAdjust="spacing" textLength="51" x="949.5" y="380.1592">Citizen</text><ellipse cx="978" cy="391.9609" fill="#E2E2F0" rx="8" ry="8" style="stroke:#181818;stroke-width:0.5;"/><path d="M978,399.9609 L978,426.9609 M965,407.9609 L991,407.9609 M978,426.9609 L965,441.9609 M978,426.9609 L991,441.9609 " fill="none" style="stroke:#181818;stroke-width:0.5;"/><polygon fill="#181818" points="258,158.3672,268,162.3672,258,166.3672,262,162.3672" style="stroke:#181818;stroke-width:1.0;"/><line style="stroke:#181818;stroke-width:1.0;" x1="44" x2="264" y1="162.3672" y2="162.3672"/><text fill="#000000" font-family="sans-serif" font-size="13" lengthAdjust="spacing" textLength="202" x="51" y="157.3013">Places and configures workflow</text><line style="stroke:#181818;stroke-width:1.0;" x1="270" x2="312" y1="191.5" y2="191.5"/><line style="stroke:#181818;stroke-width:1.0;" x1="312" x2="312" y1="191.5" y2="204.5"/><line style="stroke:#181818;stroke-width:1.0;" x1="271" x2="312" y1="204.5" y2="204.5"/><polygon fill="#181818" points="281,200.5,271,204.5,281,208.5,277,204.5" style="stroke:#181818;stroke-width:1.0;"/><text fill="#000000" font-family="sans-serif" font-size="13" lengthAdjust="spacing" textLength="355" x="277" y="186.4341">Workflow builds opencatalogi.yaml in .github repository</text><polygon fill="#181818" points="627,229.6328,637,233.6328,627,237.6328,631,233.6328" style="stroke:#181818;stroke-width:1.0;"/><line style="stroke:#181818;stroke-width:1.0;" x1="270" x2="633" y1="233.6328" y2="233.6328"/><text fill="#000000" font-family="sans-serif" font-size="13" lengthAdjust="spacing" textLength="211" x="277" y="228.5669">Workflow notifies of organisation</text><polygon fill="#181818" points="826,258.7656,816,262.7656,826,266.7656,822,262.7656" style="stroke:#181818;stroke-width:1.0;"/><line style="stroke:#181818;stroke-width:1.0;" x1="820" x2="977" y1="262.7656" y2="262.7656"/><text fill="#000000" font-family="sans-serif" font-size="13" lengthAdjust="spacing" textLength="97" x="832" y="257.6997">Views frontend</text><polygon fill="#181818" points="650,287.8984,640,291.8984,650,295.8984,646,291.8984" style="stroke:#181818;stroke-width:1.0;"/><line style="stroke:#181818;stroke-width:1.0;" x1="644" x2="814" y1="291.8984" y2="291.8984"/><text fill="#000000" font-family="sans-serif" font-size="13" lengthAdjust="spacing" textLength="152" x="656" y="286.8325">Queries federilizad data</text><polygon fill="#181818" points="803,317.0313,813,321.0313,803,325.0313,807,321.0313" style="stroke:#181818;stroke-width:1.0;"/><line style="stroke:#181818;stroke-width:1.0;" x1="639" x2="809" y1="321.0313" y2="321.0313"/><text fill="#000000" font-family="sans-serif" font-size="13" lengthAdjust="spacing" textLength="88" x="646" y="315.9653">Provides data</text><polygon fill="#181818" points="966,346.1641,976,350.1641,966,354.1641,970,350.1641" style="stroke:#181818;stroke-width:1.0;"/><line style="stroke:#181818;stroke-width:1.0;" x1="815" x2="972" y1="350.1641" y2="350.1641"/><text fill="#000000" font-family="sans-serif" font-size="13" lengthAdjust="spacing" textLength="139" x="822" y="345.0981">Provides view of data</text><text fill="#888888" font-family="sans-serif" font-size="10" lengthAdjust="spacing" textLength="100" x="910.5" y="14.2822">Publicorganisation</text><text fill="#888888" font-family="sans-serif" font-size="10" lengthAdjust="spacing" textLength="251" x="379.75" y="453.7432">Open Catalogi | Publicorganisation Installation</text><!--SRC=[XP4nRiCm34LtdO8NQ0wGeKlG0fsQTcXcsQ8SeeeOI7GC1prygS1gvMReIFB_nqz9I09kOJzsWNfEWusKhH17U8bPR0YtmdXcmRI5rpD6s5aTy43mzQ_lYDOLtxtE6DiB9tWwdGFFY0QZaCpmZcVEf9EvTihEkhBsdXD7mUWMo8w4hgXCKt7myDYWG1C4ssC66ntq73qDOz9oulJf0q-cqVvr7XODT2C5bu4rJx_asSps580YR0QIuzX1-es_HhPNjD38Gfuq2djOlSzoK_7MQzNtGJXbyFNydydzXhSHK-5wr1-WG5VhmEdOh7Hh-ZxnXPoQRi8MNjCqcej6AQcBzXi0]--></g></svg>