<?xml version="1.0" encoding="us-ascii" standalone="no"?><svg xmlns="http://www.w3.org/2000/svg" xmlns:xlink="http://www.w3.org/1999/xlink" contentStyleType="text/css" height="551px" preserveAspectRatio="none" style="width:882px;height:551px;background:#FFFFFF;" version="1.1" viewBox="0 0 882 551" width="882px" zoomAndPan="magnify"><defs/><g><text fill="#000000" font-family="sans-serif" font-size="14" font-weight="bold" lengthAdjust="spacing" textLength="173" x="350.75" y="40.6357">Frontend Installation</text><line style="stroke:#181818;stroke-width:0.5;stroke-dasharray:5.0,5.0;" x1="44" x2="44" y1="131.2344" y2="455.5625"/><line style="stroke:#181818;stroke-width:0.5;stroke-dasharray:5.0,5.0;" x1="269.5" x2="269.5" y1="131.2344" y2="455.5625"/><line style="stroke:#181818;stroke-width:0.5;stroke-dasharray:5.0,5.0;" x1="444" x2="444" y1="131.2344" y2="455.5625"/><line style="stroke:#181818;stroke-width:0.5;stroke-dasharray:5.0,5.0;" x1="569" x2="569" y1="131.2344" y2="455.5625"/><line style="stroke:#181818;stroke-width:0.5;stroke-dasharray:5.0,5.0;" x1="679" x2="679" y1="131.2344" y2="455.5625"/><line style="stroke:#181818;stroke-width:0.5;stroke-dasharray:5.0,5.0;" x1="841.5" x2="841.5" y1="131.2344" y2="455.5625"/><text fill="#000000" font-family="sans-serif" font-size="14" lengthAdjust="spacing" textLength="72" x="5" y="127.9326">Employee</text><ellipse cx="44" cy="63.4375" fill="#E2E2F0" rx="8" ry="8" style="stroke:#181818;stroke-width:0.5;"/><path d="M44,71.4375 L44,98.4375 M31,79.4375 L57,79.4375 M44,98.4375 L31,113.4375 M44,98.4375 L57,113.4375 " fill="none" style="stroke:#181818;stroke-width:0.5;"/><text fill="#000000" font-family="sans-serif" font-size="14" lengthAdjust="spacing" textLength="72" x="5" y="467.5576">Employee</text><ellipse cx="44" cy="479.3594" fill="#E2E2F0" rx="8" ry="8" style="stroke:#181818;stroke-width:0.5;"/><path d="M44,487.3594 L44,514.3594 M31,495.3594 L57,495.3594 M44,514.3594 L31,529.3594 M44,514.3594 L57,529.3594 " fill="none" style="stroke:#181818;stroke-width:0.5;"/><text fill="#000000" font-family="sans-serif" font-size="14" lengthAdjust="spacing" textLength="79" x="227.5" y="127.9326">Repository</text><ellipse cx="270" cy="98.9375" fill="#E2E2F0" rx="12" ry="12" style="stroke:#181818;stroke-width:0.5;"/><line style="stroke:#181818;stroke-width:0.5;" x1="258" x2="282" y1="112.9375" y2="112.9375"/><text fill="#000000" font-family="sans-serif" font-size="14" lengthAdjust="spacing" textLength="79" x="227.5" y="467.5576">Repository</text><ellipse cx="270" cy="486.8594" fill="#E2E2F0" rx="12" ry="12" style="stroke:#181818;stroke-width:0.5;"/><line style="stroke:#181818;stroke-width:0.5;" x1="258" x2="282" y1="500.8594" y2="500.8594"/><text fill="#000000" font-family="sans-serif" font-size="14" lengthAdjust="spacing" textLength="98" x="392" y="127.9326">OpenCatalogi</text><ellipse cx="444" cy="98.9375" fill="#E2E2F0" rx="12" ry="12" style="stroke:#181818;stroke-width:0.5;"/><line style="stroke:#181818;stroke-width:0.5;" x1="432" x2="456" y1="112.9375" y2="112.9375"/><text fill="#000000" font-family="sans-serif" font-size="14" lengthAdjust="spacing" textLength="98" x="392" y="467.5576">OpenCatalogi</text><ellipse cx="444" cy="486.8594" fill="#E2E2F0" rx="12" ry="12" style="stroke:#181818;stroke-width:0.5;"/><line style="stroke:#181818;stroke-width:0.5;" x1="432" x2="456" y1="500.8594" y2="500.8594"/><text fill="#000000" font-family="sans-serif" font-size="14" lengthAdjust="spacing" textLength="121" x="506" y="127.9326">NLDesignSystem</text><ellipse cx="569.5" cy="98.9375" fill="#E2E2F0" rx="12" ry="12" style="stroke:#181818;stroke-width:0.5;"/><line style="stroke:#181818;stroke-width:0.5;" x1="557.5" x2="581.5" y1="112.9375" y2="112.9375"/><text fill="#000000" font-family="sans-serif" font-size="14" lengthAdjust="spacing" textLength="121" x="506" y="467.5576">NLDesignSystem</text><ellipse cx="569.5" cy="486.8594" fill="#E2E2F0" rx="12" ry="12" style="stroke:#181818;stroke-width:0.5;"/><line style="stroke:#181818;stroke-width:0.5;" x1="557.5" x2="581.5" y1="500.8594" y2="500.8594"/><text fill="#000000" font-family="sans-serif" font-size="14" lengthAdjust="spacing" textLength="66" x="643" y="127.9326">Frontend</text><ellipse cx="679" cy="98.9375" fill="#E2E2F0" rx="12" ry="12" style="stroke:#181818;stroke-width:0.5;"/><line style="stroke:#181818;stroke-width:0.5;" x1="667" x2="691" y1="112.9375" y2="112.9375"/><text fill="#000000" font-family="sans-serif" font-size="14" lengthAdjust="spacing" textLength="66" x="643" y="467.5576">Frontend</text><ellipse cx="679" cy="486.8594" fill="#E2E2F0" rx="12" ry="12" style="stroke:#181818;stroke-width:0.5;"/><line style="stroke:#181818;stroke-width:0.5;" x1="667" x2="691" y1="500.8594" y2="500.8594"/><text fill="#000000" font-family="sans-serif" font-size="14" lengthAdjust="spacing" textLength="51" x="813.5" y="127.9326">Citizen</text><ellipse cx="842" cy="63.4375" fill="#E2E2F0" rx="8" ry="8" style="stroke:#181818;stroke-width:0.5;"/><path d="M842,71.4375 L842,98.4375 M829,79.4375 L855,79.4375 M842,98.4375 L829,113.4375 M842,98.4375 L855,113.4375 " fill="none" style="stroke:#181818;stroke-width:0.5;"/><text fill="#000000" font-family="sans-serif" font-size="14" lengthAdjust="spacing" textLength="51" x="813.5" y="467.5576">Citizen</text><ellipse cx="842" cy="479.3594" fill="#E2E2F0" rx="8" ry="8" style="stroke:#181818;stroke-width:0.5;"/><path d="M842,487.3594 L842,514.3594 M829,495.3594 L855,495.3594 M842,514.3594 L829,529.3594 M842,514.3594 L855,529.3594 " fill="none" style="stroke:#181818;stroke-width:0.5;"/><polygon fill="#181818" points="258,158.3672,268,162.3672,258,166.3672,262,162.3672" style="stroke:#181818;stroke-width:1.0;"/><line style="stroke:#181818;stroke-width:1.0;" x1="44" x2="264" y1="162.3672" y2="162.3672"/><text fill="#000000" font-family="sans-serif" font-size="13" lengthAdjust="spacing" textLength="202" x="51" y="157.3013">Places and configures workflow</text><polygon fill="#181818" points="281,187.5,271,191.5,281,195.5,277,191.5" style="stroke:#181818;stroke-width:1.0;"/><line style="stroke:#181818;stroke-width:1.0;" x1="275" x2="443" y1="191.5" y2="191.5"/><text fill="#000000" font-family="sans-serif" font-size="13" lengthAdjust="spacing" textLength="127" x="287" y="186.4341">Pulls Frontend Code</text><polygon fill="#181818" points="281,216.6328,271,220.6328,281,224.6328,277,220.6328" style="stroke:#181818;stroke-width:1.0;"/><line style="stroke:#181818;stroke-width:1.0;" x1="275" x2="568.5" y1="220.6328" y2="220.6328"/><text fill="#000000" font-family="sans-serif" font-size="13" lengthAdjust="spacing" textLength="226" x="287" y="215.5669">Pulls organistions NL Design tokens</text><line style="stroke:#181818;stroke-width:1.0;" x1="270" x2="312" y1="249.7656" y2="249.7656"/><line style="stroke:#181818;stroke-width:1.0;" x1="312" x2="312" y1="249.7656" y2="262.7656"/><line style="stroke:#181818;stroke-width:1.0;" x1="271" x2="312" y1="262.7656" y2="262.7656"/><polygon fill="#181818" points="281,258.7656,271,262.7656,281,266.7656,277,262.7656" style="stroke:#181818;stroke-width:1.0;"/><text fill="#000000" font-family="sans-serif" font-size="13" lengthAdjust="spacing" textLength="160" x="277" y="244.6997">Workflow builds frontend</text><polygon fill="#181818" points="258,287.8984,268,291.8984,258,295.8984,262,291.8984" style="stroke:#181818;stroke-width:1.0;"/><line style="stroke:#181818;stroke-width:1.0;" x1="44" x2="264" y1="291.8984" y2="291.8984"/><text fill="#000000" font-family="sans-serif" font-size="13" lengthAdjust="spacing" textLength="156" x="51" y="286.8325">Configures github Pages</text><polygon fill="#181818" points="667,317.0313,677,321.0313,667,325.0313,671,321.0313" style="stroke:#181818;stroke-width:1.0;"/><line style="stroke:#181818;stroke-width:1.0;" x1="270" x2="673" y1="321.0313" y2="321.0313"/><text fill="#000000" font-family="sans-serif" font-size="13" lengthAdjust="spacing" textLength="134" x="277" y="315.9653">Deploys Github page</text><polygon fill="#181818" points="690,346.1641,680,350.1641,690,354.1641,686,350.1641" style="stroke:#181818;stroke-width:1.0;"/><line style="stroke:#181818;stroke-width:1.0;" x1="684" x2="841" y1="350.1641" y2="350.1641"/><text fill="#000000" font-family="sans-serif" font-size="13" lengthAdjust="spacing" textLength="97" x="696" y="345.0981">Views frontend</text><polygon fill="#181818" points="455,375.2969,445,379.2969,455,383.2969,451,379.2969" style="stroke:#181818;stroke-width:1.0;"/><line style="stroke:#181818;stroke-width:1.0;" x1="449" x2="678" y1="379.2969" y2="379.2969"/><text fill="#000000" font-family="sans-serif" font-size="13" lengthAdjust="spacing" textLength="152" x="461" y="374.231">Queries federilizad data</text><polygon fill="#181818" points="667,404.4297,677,408.4297,667,412.4297,671,408.4297" style="stroke:#181818;stroke-width:1.0;"/><line style="stroke:#181818;stroke-width:1.0;" x1="444" x2="673" y1="408.4297" y2="408.4297"/><text fill="#000000" font-family="sans-serif" font-size="13" lengthAdjust="spacing" textLength="88" x="451" y="403.3638">Provides data</text><polygon fill="#181818" points="830,433.5625,840,437.5625,830,441.5625,834,437.5625" style="stroke:#181818;stroke-width:1.0;"/><line style="stroke:#181818;stroke-width:1.0;" x1="679" x2="836" y1="437.5625" y2="437.5625"/><text fill="#000000" font-family="sans-serif" font-size="13" lengthAdjust="spacing" textLength="139" x="686" y="432.4966">Provides view of data</text><text fill="#888888" font-family="sans-serif" font-size="10" lengthAdjust="spacing" textLength="49" x="825.5" y="14.2822">Frontend</text><text fill="#888888" font-family="sans-serif" font-size="10" lengthAdjust="spacing" textLength="200" x="337.25" y="541.1416">Open Catalogi | Frontend Installation</text><!--SRC=[TL9BRi8m4Dtx57E1NY2BRjAFAbKjj5AxDdWIHXXFP4-8WdhuJW230R7qlC-yDxAGUApW9N8G30xUGXBhlHNYO1fcmLZ1PuS1Qgi0jmH_TzWhj6vYPzGOknIEyBpfF8-81eEGZF257ITIPCoJoJ_Rvzd7-nCcQiFtc0GtUNhoFbZN9BJ3O4pU0G-FXJzKCFDsYGciXbroQAZjepu7Zkl6ys3ApRVQtljqBbkpGtCPwuw4Osi3fUagIOl0GGB2Qmp9589h-Uyn5onwyYv1a-lUxLUVIxKagtu1CzlYzP9JXqgpJ4u9NW_iJjdcUCOhvW_XK4Gu8SgwE5i5ynuZQO86zGEGfvrru1I-EM_XFeky9QUYFR4qpsaApbQZ03TxxZy0]--></g></svg>