<svg xmlns="http://www.w3.org/2000/svg" xmlns:xlink="http://www.w3.org/1999/xlink" contentStyleType="text/css" data-diagram-type="CLASS" height="610px" preserveAspectRatio="none" style="width:656px;height:610px;background:#FFFFFF;" version="1.1" viewBox="0 0 656 610" width="656px" zoomAndPan="magnify"><defs/><g><!--class OpenCatalogue--><g id="elem_OpenCatalogue"><rect codeLine="5" fill="#F1F1F1" height="113.1875" id="OpenCatalogue" rx="2.5" ry="2.5" style="stroke:#181818;stroke-width:0.5;" width="140.6436" x="7" y="158.8"/><ellipse cx="22" cy="174.8" fill="#ADD1B2" rx="11" ry="11" style="stroke:#181818;stroke-width:1;"/><path d="M24.9688,180.4406 Q24.3906,180.7375 23.75,180.8781 Q23.1094,181.0344 22.4063,181.0344 Q19.9063,181.0344 18.5781,179.3938 Q17.2656,177.7375 17.2656,174.6125 Q17.2656,171.4875 18.5781,169.8313 Q19.9063,168.175 22.4063,168.175 Q23.1094,168.175 23.75,168.3313 Q24.4063,168.4875 24.9688,168.7844 L24.9688,171.5031 Q24.3438,170.925 23.75,170.6594 Q23.1563,170.3781 22.5313,170.3781 Q21.1875,170.3781 20.5,171.4563 Q19.8125,172.5188 19.8125,174.6125 Q19.8125,176.7063 20.5,177.7844 Q21.1875,178.8469 22.5313,178.8469 Q23.1563,178.8469 23.75,178.5813 Q24.3438,178.3 24.9688,177.7219 L24.9688,180.4406 Z " fill="#000000"/><text fill="#000000" font-family="sans-serif" font-size="14" lengthAdjust="spacing" textLength="108.6436" x="36" y="179.6467">OpenCatalogue</text><line style="stroke:#181818;stroke-width:0.5;" x1="8" x2="146.6436" y1="190.8" y2="190.8"/><text fill="#000000" font-family="sans-serif" font-size="14" lengthAdjust="spacing" textLength="57.6543" x="13" y="207.7951">Catalogi</text><text fill="#000000" font-family="sans-serif" font-size="14" lengthAdjust="spacing" textLength="84.3691" x="13" y="224.092">Publications</text><text fill="#000000" font-family="sans-serif" font-size="14" lengthAdjust="spacing" textLength="79.8232" x="13" y="240.3889">Documents</text><text fill="#000000" font-family="sans-serif" font-size="14" lengthAdjust="spacing" textLength="38.7871" x="13" y="256.6857">Index</text><line style="stroke:#181818;stroke-width:0.5;" x1="8" x2="146.6436" y1="263.9875" y2="263.9875"/></g><!--class ObjectStore--><g id="elem_ObjectStore"><rect codeLine="12" fill="#F1F1F1" height="113.1875" id="ObjectStore" rx="2.5" ry="2.5" style="stroke:#181818;stroke-width:0.5;" width="157.0107" x="248.82" y="348.99"/><ellipse cx="282.767" cy="364.99" fill="#ADD1B2" rx="11" ry="11" style="stroke:#181818;stroke-width:1;"/><path d="M285.7358,370.6306 Q285.1576,370.9275 284.517,371.0681 Q283.8764,371.2244 283.1733,371.2244 Q280.6733,371.2244 279.3451,369.5838 Q278.0326,367.9275 278.0326,364.8025 Q278.0326,361.6775 279.3451,360.0213 Q280.6733,358.365 283.1733,358.365 Q283.8764,358.365 284.517,358.5213 Q285.1733,358.6775 285.7358,358.9744 L285.7358,361.6931 Q285.1108,361.115 284.517,360.8494 Q283.9233,360.5681 283.2983,360.5681 Q281.9545,360.5681 281.267,361.6463 Q280.5795,362.7088 280.5795,364.8025 Q280.5795,366.8963 281.267,367.9744 Q281.9545,369.0369 283.2983,369.0369 Q283.9233,369.0369 284.517,368.7713 Q285.1108,368.49 285.7358,367.9119 L285.7358,370.6306 Z " fill="#000000"/><text fill="#000000" font-family="sans-serif" font-size="14" lengthAdjust="spacing" textLength="82.9063" x="300.9775" y="369.8367">ObjectStore</text><line style="stroke:#181818;stroke-width:0.5;" x1="249.82" x2="404.8307" y1="380.99" y2="380.99"/><line style="stroke:#181818;stroke-width:0.5;" x1="249.82" x2="404.8307" y1="388.99" y2="388.99"/><ellipse cx="259.82" cy="402.6384" fill="#84BE84" rx="3" ry="3" style="stroke:#038048;stroke-width:1;"/><text fill="#000000" font-family="sans-serif" font-size="14" lengthAdjust="spacing" textLength="104.2959" x="268.82" y="405.9851">store(Catalogi)</text><ellipse cx="259.82" cy="418.9353" fill="#84BE84" rx="3" ry="3" style="stroke:#038048;stroke-width:1;"/><text fill="#000000" font-family="sans-serif" font-size="14" lengthAdjust="spacing" textLength="131.0107" x="268.82" y="422.282">store(Publications)</text><ellipse cx="259.82" cy="435.2322" fill="#84BE84" rx="3" ry="3" style="stroke:#038048;stroke-width:1;"/><text fill="#000000" font-family="sans-serif" font-size="14" lengthAdjust="spacing" textLength="126.4648" x="268.82" y="438.5789">store(Documents)</text><ellipse cx="259.82" cy="451.5291" fill="#84BE84" rx="3" ry="3" style="stroke:#038048;stroke-width:1;"/><text fill="#000000" font-family="sans-serif" font-size="14" lengthAdjust="spacing" textLength="85.4287" x="268.82" y="454.8757">store(Index)</text></g><!--class SearchIndex--><g id="elem_SearchIndex"><rect codeLine="19" fill="#F1F1F1" height="64.2969" id="SearchIndex" rx="2.5" ry="2.5" style="stroke:#181818;stroke-width:0.5;" width="159.8408" x="187.4" y="539.17"/><ellipse cx="220.6918" cy="555.17" fill="#ADD1B2" rx="11" ry="11" style="stroke:#181818;stroke-width:1;"/><path d="M223.6605,560.8106 Q223.0824,561.1075 222.4418,561.2481 Q221.8012,561.4044 221.098,561.4044 Q218.598,561.4044 217.2699,559.7638 Q215.9574,558.1075 215.9574,554.9825 Q215.9574,551.8575 217.2699,550.2013 Q218.598,548.545 221.098,548.545 Q221.8012,548.545 222.4418,548.7013 Q223.098,548.8575 223.6605,549.1544 L223.6605,551.8731 Q223.0355,551.295 222.4418,551.0294 Q221.848,550.7481 221.223,550.7481 Q219.8793,550.7481 219.1918,551.8263 Q218.5043,552.8888 218.5043,554.9825 Q218.5043,557.0763 219.1918,558.1544 Q219.8793,559.2169 221.223,559.2169 Q221.848,559.2169 222.4418,558.9513 Q223.0355,558.67 223.6605,558.0919 L223.6605,560.8106 Z " fill="#000000"/><text fill="#000000" font-family="sans-serif" font-size="14" lengthAdjust="spacing" textLength="87.1924" x="238.7566" y="560.0167">SearchIndex</text><line style="stroke:#181818;stroke-width:0.5;" x1="188.4" x2="346.2408" y1="571.17" y2="571.17"/><line style="stroke:#181818;stroke-width:0.5;" x1="188.4" x2="346.2408" y1="579.17" y2="579.17"/><ellipse cx="198.4" cy="592.8184" fill="#84BE84" rx="3" ry="3" style="stroke:#038048;stroke-width:1;"/><text fill="#000000" font-family="sans-serif" font-size="14" lengthAdjust="spacing" textLength="133.8408" x="207.4" y="596.1651">index(Publications)</text></g><!--class SynchronizationService--><g id="elem_SynchronizationService"><rect codeLine="23" fill="#F1F1F1" height="64.2969" id="SynchronizationService" rx="2.5" ry="2.5" style="stroke:#181818;stroke-width:0.5;" width="205.5459" x="203.55" y="183.24"/><ellipse cx="222.7622" cy="199.24" fill="#ADD1B2" rx="11" ry="11" style="stroke:#181818;stroke-width:1;"/><path d="M225.7309,204.8806 Q225.1528,205.1775 224.5122,205.3181 Q223.8715,205.4744 223.1684,205.4744 Q220.6684,205.4744 219.3403,203.8338 Q218.0278,202.1775 218.0278,199.0525 Q218.0278,195.9275 219.3403,194.2713 Q220.6684,192.615 223.1684,192.615 Q223.8715,192.615 224.5122,192.7713 Q225.1684,192.9275 225.7309,193.2244 L225.7309,195.9431 Q225.1059,195.365 224.5122,195.0994 Q223.9184,194.8181 223.2934,194.8181 Q221.9497,194.8181 221.2622,195.8963 Q220.5747,196.9588 220.5747,199.0525 Q220.5747,201.1463 221.2622,202.2244 Q221.9497,203.2869 223.2934,203.2869 Q223.9184,203.2869 224.5122,203.0213 Q225.1059,202.74 225.7309,202.1619 L225.7309,204.8806 Z " fill="#000000"/><text fill="#000000" font-family="sans-serif" font-size="14" lengthAdjust="spacing" textLength="164.1855" x="237.6982" y="204.0867">SynchronizationService</text><line style="stroke:#181818;stroke-width:0.5;" x1="204.55" x2="408.0959" y1="215.24" y2="215.24"/><line style="stroke:#181818;stroke-width:0.5;" x1="204.55" x2="408.0959" y1="223.24" y2="223.24"/><ellipse cx="214.55" cy="236.8884" fill="#84BE84" rx="3" ry="3" style="stroke:#038048;stroke-width:1;"/><text fill="#000000" font-family="sans-serif" font-size="14" lengthAdjust="spacing" textLength="179.5459" x="223.55" y="240.2351">createPublication(source)</text></g><!--entity User--><g id="elem_User"><ellipse cx="516.3251" cy="375.93" fill="#F1F1F1" rx="8" ry="8" style="stroke:#181818;stroke-width:0.5;"/><path d="M516.3251,383.93 L516.3251,410.93 M503.3251,391.93 L529.3251,391.93 M516.3251,410.93 L503.3251,425.93 M516.3251,410.93 L529.3251,425.93 " fill="#FFFFFF" fill-opacity="0.00000" style="stroke:#181818;stroke-width:0.5;"/><text fill="#000000" font-family="sans-serif" font-size="14" lengthAdjust="spacing" textLength="31.9102" x="500.37" y="440.4251">User</text></g><!--entity Admin--><g id="elem_Admin"><ellipse cx="478.3221" cy="185.74" fill="#F1F1F1" rx="8" ry="8" style="stroke:#181818;stroke-width:0.5;"/><path d="M478.3221,193.74 L478.3221,220.74 M465.3221,201.74 L491.3221,201.74 M478.3221,220.74 L465.3221,235.74 M478.3221,220.74 L491.3221,235.74 " fill="#FFFFFF" fill-opacity="0.00000" style="stroke:#181818;stroke-width:0.5;"/><text fill="#000000" font-family="sans-serif" font-size="14" lengthAdjust="spacing" textLength="44.8643" x="455.89" y="250.2351">Admin</text></g><!--entity ExternalSource--><g id="elem_ExternalSource"><ellipse cx="306.3213" cy="14" fill="#F1F1F1" rx="8" ry="8" style="stroke:#181818;stroke-width:0.5;"/><path d="M306.3213,22 L306.3213,49 M293.3213,30 L319.3213,30 M306.3213,49 L293.3213,64 M306.3213,49 L319.3213,64 " fill="#FFFFFF" fill-opacity="0.00000" style="stroke:#181818;stroke-width:0.5;"/><text fill="#000000" font-family="sans-serif" font-size="14" lengthAdjust="spacing" textLength="106.7227" x="252.96" y="78.4951">ExternalSource</text></g><!--link OpenCatalogue to ObjectStore--><g id="link_OpenCatalogue_ObjectStore"><path codeLine="32" d="M143.89,272.23 C162.85,287.69 183.69,304.26 203.32,318.99 C217.76,329.82 228.5007,337.5949 243.6807,348.1949 " fill="#FFFFFF" fill-opacity="0.00000" id="OpenCatalogue-to-ObjectStore" style="stroke:#181818;stroke-width:1;"/><polygon fill="#181818" points="248.6,351.63,243.5111,343.1978,244.5005,348.7674,238.9309,349.7569,248.6,351.63" style="stroke:#181818;stroke-width:1;"/><text fill="#000000" font-family="sans-serif" font-size="13" lengthAdjust="spacing" textLength="89.3369" x="204.32" y="315.0569">stores data in</text></g><!--link OpenCatalogue to SearchIndex--><g id="link_OpenCatalogue_SearchIndex"><path codeLine="33" d="M53.6,272.26 C35.13,325.13 18,404.75 53.32,462.17 C82.38,509.42 133.4586,534.9415 181.2386,550.3215 " fill="#FFFFFF" fill-opacity="0.00000" id="OpenCatalogue-to-SearchIndex" style="stroke:#181818;stroke-width:1;"/><polygon fill="#181818" points="186.95,552.16,179.6085,545.5947,182.1905,550.628,177.1573,553.2099,186.95,552.16" style="stroke:#181818;stroke-width:1;"/><text fill="#000000" font-family="sans-serif" font-size="13" lengthAdjust="spacing" textLength="176.0713" x="54.32" y="410.1469">transfers published data to</text></g><!--link SynchronizationService to ObjectStore--><g id="link_SynchronizationService_ObjectStore"><path codeLine="35" d="M302.71,247.97 C301.04,268.33 300.07,295.33 303.32,318.99 C304.67,328.77 305.3654,333.194 307.8654,343.054 " fill="#FFFFFF" fill-opacity="0.00000" id="SynchronizationService-to-ObjectStore" style="stroke:#181818;stroke-width:1;"/><polygon fill="#181818" points="309.34,348.87,311.0054,339.163,308.1111,344.0234,303.2507,341.1291,309.34,348.87" style="stroke:#181818;stroke-width:1;"/><text fill="#000000" font-family="sans-serif" font-size="13" lengthAdjust="spacing" textLength="130.7998" x="304.32" y="315.0569">creates Publications</text></g><!--link ObjectStore to SearchIndex--><g id="link_ObjectStore_SearchIndex"><path codeLine="36" d="M278.85,462.25 C272.89,471.71 267.72,481.83 264.32,492.17 C259.45,507.01 258.9037,518.316 260.5037,532.856 " fill="#FFFFFF" fill-opacity="0.00000" id="ObjectStore-to-SearchIndex" style="stroke:#181818;stroke-width:1;"/><polygon fill="#181818" points="261.16,538.82,264.1516,529.4365,260.6131,533.85,256.1996,530.3115,261.16,538.82" style="stroke:#181818;stroke-width:1;"/><text fill="#000000" font-family="sans-serif" font-size="13" lengthAdjust="spacing" textLength="207.9492" x="265.32" y="505.2369">transfers published Publications</text></g><!--link User to SearchIndex--><g id="link_User_SearchIndex"><path codeLine="38" d="M510.57,444.21 C505.37,465.98 495.59,492.31 477.32,509.17 C442.17,541.63 396.6584,555.9641 353.4984,563.1541 " fill="#FFFFFF" fill-opacity="0.00000" id="User-to-SearchIndex" style="stroke:#181818;stroke-width:1;"/><polygon fill="#181818" points="347.58,564.14,357.115,566.6067,352.512,563.3184,355.8004,558.7155,347.58,564.14" style="stroke:#181818;stroke-width:1;"/><text fill="#000000" font-family="sans-serif" font-size="13" lengthAdjust="spacing" textLength="157.5933" x="491.32" y="505.2369">queries search endpoint</text></g><!--link Admin to ObjectStore--><g id="link_Admin_ObjectStore"><path codeLine="39" d="M469.47,254 C463.35,274.58 453.67,299.74 439.32,318.99 C430.03,331.44 423.0349,339.1079 410.8849,349.4179 " fill="#FFFFFF" fill-opacity="0.00000" id="Admin-to-ObjectStore" style="stroke:#181818;stroke-width:1;"/><polygon fill="#181818" points="406.31,353.3,415.7604,350.5268,410.1224,350.0649,410.5843,344.427,406.31,353.3" style="stroke:#181818;stroke-width:1;"/><text fill="#000000" font-family="sans-serif" font-size="13" lengthAdjust="spacing" textLength="93.2725" x="449.32" y="315.0569">manages data</text></g><!--link ExternalSource to SynchronizationService--><g id="link_ExternalSource_SynchronizationService"><path codeLine="42" d="M306.32,81.9 C306.32,112.15 306.32,148.34 306.32,176.92 " fill="#FFFFFF" fill-opacity="0.00000" id="ExternalSource-to-SynchronizationService" style="stroke:#181818;stroke-width:1;"/><polygon fill="#181818" points="306.32,182.92,310.32,173.92,306.32,177.92,302.32,173.92,306.32,182.92" style="stroke:#181818;stroke-width:1;"/><text fill="#000000" font-family="sans-serif" font-size="13" lengthAdjust="spacing" textLength="89.2925" x="307.32" y="124.8669">provides data</text></g><!--SRC=[ZLBBJiCm4BpxAyo9LYW_q0DIrLO82G5gu8nSUziiSkpWTTe2ujz9xAJ4VKZuv7tCpExOGckxUojnZsR3hXIiqG1VBcOlqyUxXmMNMX0nTitdiGB6eqSWzjVoL86P2I-qtTJ0lnblJXTZ29xhbKOfF5f38J6tiYuRfXZT6mLxziE6bAjta3xtrlM4DzG6evvtF4mE-PF2GIV91hrnAfY3SB88bLuGs-28EyLy6bauQ_0hb7DmMvI7UQK3uM407v6jdOH08cGp2NybSDrrgaeqtNsnz-2Cq7deRxrVWeuJ55WHI_tEbDsPx7PesOI7HOchfeitlESHWvqdt3jXQ0sEUDMEJ0Me2FUMiGkRPiUoSMTA7tpubjb_P1CqQqqwnNtKu9fVo2aacr-fAel6i-3ZwM2bC6BJ6T8QsblCeyV4Ki-Ztjcb9xnoTekg8_i5]--></g></svg>