<svg xmlns="http://www.w3.org/2000/svg" xmlns:xlink="http://www.w3.org/1999/xlink" contentStyleType="text/css" data-diagram-type="CLASS" height="385px" preserveAspectRatio="none" style="width:1296px;height:385px;background:#FFFFFF;" version="1.1" viewBox="0 0 1296 385" width="1296px" zoomAndPan="magnify"><defs/><g><!--cluster Landelijk Federatief Netwerk--><g id="cluster_Landelijk Federatief Netwerk"><path d="M8.5,152 L239.3584,152 A3.75,3.75 0 0 1 241.8584,154.5 L248.8584,174.2969 L248.5,174.2969 A2.5,2.5 0 0 1 251,176.7969 L251,375.5 A2.5,2.5 0 0 1 248.5,378 L8.5,378 A2.5,2.5 0 0 1 6,375.5 L6,154.5 A2.5,2.5 0 0 1 8.5,152 " fill="#FFFFFF" fill-opacity="0.00000" style="stroke:#000000;stroke-width:1.5;"/><line style="stroke:#000000;stroke-width:1.5;" x1="6" x2="248.8584" y1="174.2969" y2="174.2969"/><text fill="#000000" font-family="sans-serif" font-size="14" font-weight="bold" lengthAdjust="spacing" textLength="229.8584" x="10" y="166.9951">Landelijk Federatief Netwerk</text></g><!--cluster Organisatie Repository--><g id="cluster_Organisatie Repository"><path d="M277.5,6 L460.5684,6 A3.75,3.75 0 0 1 463.0684,8.5 L470.0684,28.2969 L753.5,28.2969 A2.5,2.5 0 0 1 756,30.7969 L756,248.5 A2.5,2.5 0 0 1 753.5,251 L277.5,251 A2.5,2.5 0 0 1 275,248.5 L275,8.5 A2.5,2.5 0 0 1 277.5,6 " fill="#FFFFFF" fill-opacity="0.00000" style="stroke:#000000;stroke-width:1.5;"/><line style="stroke:#000000;stroke-width:1.5;" x1="275" x2="470.0684" y1="28.2969" y2="28.2969"/><text fill="#000000" font-family="sans-serif" font-size="14" font-weight="bold" lengthAdjust="spacing" textLength="182.0684" x="279" y="20.9951">Organisatie Repository</text></g><!--cluster Publicatie Repository--><g id="cluster_Publicatie Repository"><path d="M782.5,6 L952.3408,6 A3.75,3.75 0 0 1 954.8408,8.5 L961.8408,28.2969 L1286.5,28.2969 A2.5,2.5 0 0 1 1289,30.7969 L1289,248.5 A2.5,2.5 0 0 1 1286.5,251 L782.5,251 A2.5,2.5 0 0 1 780,248.5 L780,8.5 A2.5,2.5 0 0 1 782.5,6 " fill="#FFFFFF" fill-opacity="0.00000" style="stroke:#000000;stroke-width:1.5;"/><line style="stroke:#000000;stroke-width:1.5;" x1="780" x2="961.8408" y1="28.2969" y2="28.2969"/><text fill="#000000" font-family="sans-serif" font-size="14" font-weight="bold" lengthAdjust="spacing" textLength="168.8408" x="784" y="20.9951">Publicatie Repository</text></g><!--class openCatalogi--><g id="elem_openCatalogi"><rect codeLine="4" fill="#F1F1F1" height="48" id="openCatalogi" rx="2.5" ry="2.5" style="stroke:#181818;stroke-width:0.5;" width="139.7275" x="82.14" y="187"/><ellipse cx="97.14" cy="203" fill="#B4A7E5" rx="11" ry="11" style="stroke:#181818;stroke-width:1;"/><path d="M93.0619,198.7656 L93.0619,196.6094 L100.4525,196.6094 L100.4525,198.7656 L97.9838,198.7656 L97.9838,206.8438 L100.4525,206.8438 L100.4525,209 L93.0619,209 L93.0619,206.8438 L95.5306,206.8438 L95.5306,198.7656 L93.0619,198.7656 Z " fill="#000000"/><text fill="#000000" font-family="sans-serif" font-size="14" font-style="italic" lengthAdjust="spacing" textLength="107.7275" x="111.14" y="207.8467">opencatalogi.nl</text><line style="stroke:#181818;stroke-width:0.5;" x1="83.14" x2="220.8675" y1="219" y2="219"/><line style="stroke:#181818;stroke-width:0.5;" x1="83.14" x2="220.8675" y1="227" y2="227"/></g><!--class api--><g id="elem_api"><rect codeLine="5" fill="#F1F1F1" height="48" id="api" rx="2.5" ry="2.5" style="stroke:#181818;stroke-width:0.5;" width="165.5332" x="69.23" y="314"/><ellipse cx="84.23" cy="330" fill="#ADD1B2" rx="11" ry="11" style="stroke:#181818;stroke-width:1;"/><path d="M87.1988,335.6406 Q86.6206,335.9375 85.98,336.0781 Q85.3394,336.2344 84.6363,336.2344 Q82.1363,336.2344 80.8081,334.5938 Q79.4956,332.9375 79.4956,329.8125 Q79.4956,326.6875 80.8081,325.0313 Q82.1363,323.375 84.6363,323.375 Q85.3394,323.375 85.98,323.5313 Q86.6363,323.6875 87.1988,323.9844 L87.1988,326.7031 Q86.5738,326.125 85.98,325.8594 Q85.3863,325.5781 84.7613,325.5781 Q83.4175,325.5781 82.73,326.6563 Q82.0425,327.7188 82.0425,329.8125 Q82.0425,331.9063 82.73,332.9844 Q83.4175,334.0469 84.7613,334.0469 Q85.3863,334.0469 85.98,333.7813 Q86.5738,333.5 87.1988,332.9219 L87.1988,335.6406 Z " fill="#000000"/><text fill="#000000" font-family="sans-serif" font-size="14" lengthAdjust="spacing" textLength="133.5332" x="98.23" y="334.8467">api.opencatalogi.nl</text><line style="stroke:#181818;stroke-width:0.5;" x1="70.23" x2="233.7632" y1="346" y2="346"/><line style="stroke:#181818;stroke-width:0.5;" x1="70.23" x2="233.7632" y1="354" y2="354"/></g><!--class orgAction--><g id="elem_orgAction"><rect codeLine="9" fill="#F1F1F1" height="48" id="orgAction" rx="2.5" ry="2.5" style="stroke:#181818;stroke-width:0.5;" width="219.4688" x="291.27" y="41"/><ellipse cx="306.27" cy="57" fill="#ADD1B2" rx="11" ry="11" style="stroke:#181818;stroke-width:1;"/><path d="M309.2388,62.6406 Q308.6606,62.9375 308.02,63.0781 Q307.3794,63.2344 306.6763,63.2344 Q304.1763,63.2344 302.8481,61.5938 Q301.5356,59.9375 301.5356,56.8125 Q301.5356,53.6875 302.8481,52.0313 Q304.1763,50.375 306.6763,50.375 Q307.3794,50.375 308.02,50.5313 Q308.6763,50.6875 309.2388,50.9844 L309.2388,53.7031 Q308.6138,53.125 308.02,52.8594 Q307.4263,52.5781 306.8013,52.5781 Q305.4575,52.5781 304.77,53.6563 Q304.0825,54.7188 304.0825,56.8125 Q304.0825,58.9063 304.77,59.9844 Q305.4575,61.0469 306.8013,61.0469 Q307.4263,61.0469 308.02,60.7813 Q308.6138,60.5 309.2388,59.9219 L309.2388,62.6406 Z " fill="#000000"/><text fill="#000000" font-family="sans-serif" font-size="14" lengthAdjust="spacing" textLength="187.4688" x="320.27" y="61.8467">Publiccode Actions Service</text><line style="stroke:#181818;stroke-width:0.5;" x1="292.27" x2="509.7388" y1="73" y2="73"/><line style="stroke:#181818;stroke-width:0.5;" x1="292.27" x2="509.7388" y1="81" y2="81"/></g><!--class openCat--><g id="elem_openCat"><rect codeLine="10" fill="#F1F1F1" height="48" id="openCat" rx="2.5" ry="2.5" style="stroke:#181818;stroke-width:0.5;" width="208.2646" x="290.87" y="187"/><ellipse cx="305.87" cy="203" fill="#ADD1B2" rx="11" ry="11" style="stroke:#181818;stroke-width:1;"/><path d="M308.8388,208.6406 Q308.2606,208.9375 307.62,209.0781 Q306.9794,209.2344 306.2763,209.2344 Q303.7763,209.2344 302.4481,207.5938 Q301.1356,205.9375 301.1356,202.8125 Q301.1356,199.6875 302.4481,198.0313 Q303.7763,196.375 306.2763,196.375 Q306.9794,196.375 307.62,196.5313 Q308.2763,196.6875 308.8388,196.9844 L308.8388,199.7031 Q308.2138,199.125 307.62,198.8594 Q307.0263,198.5781 306.4013,198.5781 Q305.0575,198.5781 304.37,199.6563 Q303.6825,200.7188 303.6825,202.8125 Q303.6825,204.9063 304.37,205.9844 Q305.0575,207.0469 306.4013,207.0469 Q307.0263,207.0469 307.62,206.7813 Q308.2138,206.5 308.8388,205.9219 L308.8388,208.6406 Z " fill="#000000"/><text fill="#000000" font-family="sans-serif" font-size="14" lengthAdjust="spacing" textLength="176.2646" x="319.87" y="207.8467">opencatalogi.yaml (data)</text><line style="stroke:#181818;stroke-width:0.5;" x1="291.87" x2="498.1346" y1="219" y2="219"/><line style="stroke:#181818;stroke-width:0.5;" x1="291.87" x2="498.1346" y1="227" y2="227"/></g><!--class catalogiAction--><g id="elem_catalogiAction"><rect codeLine="11" fill="#F1F1F1" height="48" id="catalogiAction" rx="2.5" ry="2.5" style="stroke:#181818;stroke-width:0.5;" width="194.3877" x="545.81" y="41"/><ellipse cx="560.81" cy="57" fill="#ADD1B2" rx="11" ry="11" style="stroke:#181818;stroke-width:1;"/><path d="M563.7788,62.6406 Q563.2006,62.9375 562.56,63.0781 Q561.9194,63.2344 561.2163,63.2344 Q558.7163,63.2344 557.3881,61.5938 Q556.0756,59.9375 556.0756,56.8125 Q556.0756,53.6875 557.3881,52.0313 Q558.7163,50.375 561.2163,50.375 Q561.9194,50.375 562.56,50.5313 Q563.2163,50.6875 563.7788,50.9844 L563.7788,53.7031 Q563.1538,53.125 562.56,52.8594 Q561.9663,52.5781 561.3413,52.5781 Q559.9975,52.5781 559.31,53.6563 Q558.6225,54.7188 558.6225,56.8125 Q558.6225,58.9063 559.31,59.9844 Q559.9975,61.0469 561.3413,61.0469 Q561.9663,61.0469 562.56,60.7813 Q563.1538,60.5 563.7788,59.9219 L563.7788,62.6406 Z " fill="#000000"/><text fill="#000000" font-family="sans-serif" font-size="14" lengthAdjust="spacing" textLength="162.3877" x="574.81" y="61.8467">Catalogi Action Service</text><line style="stroke:#181818;stroke-width:0.5;" x1="546.81" x2="739.1977" y1="73" y2="73"/><line style="stroke:#181818;stroke-width:0.5;" x1="546.81" x2="739.1977" y1="81" y2="81"/></g><!--class organisatieCatalogi--><g id="elem_organisatieCatalogi"><rect codeLine="12" fill="#F1F1F1" height="48" id="organisatieCatalogi" rx="2.5" ry="2.5" style="stroke:#181818;stroke-width:0.5;" width="183.7988" x="534.1" y="187"/><ellipse cx="549.1" cy="203" fill="#B4A7E5" rx="11" ry="11" style="stroke:#181818;stroke-width:1;"/><path d="M545.0219,198.7656 L545.0219,196.6094 L552.4125,196.6094 L552.4125,198.7656 L549.9438,198.7656 L549.9438,206.8438 L552.4125,206.8438 L552.4125,209 L545.0219,209 L545.0219,206.8438 L547.4906,206.8438 L547.4906,198.7656 L545.0219,198.7656 Z " fill="#000000"/><text fill="#000000" font-family="sans-serif" font-size="14" font-style="italic" lengthAdjust="spacing" textLength="151.7988" x="563.1" y="207.8467">Organisation Catalogi</text><line style="stroke:#181818;stroke-width:0.5;" x1="535.1" x2="716.8988" y1="219" y2="219"/><line style="stroke:#181818;stroke-width:0.5;" x1="535.1" x2="716.8988" y1="227" y2="227"/></g><!--class pubAction--><g id="elem_pubAction"><rect codeLine="16" fill="#F1F1F1" height="48" id="pubAction" rx="2.5" ry="2.5" style="stroke:#181818;stroke-width:0.5;" width="212.1748" x="795.91" y="41"/><ellipse cx="810.91" cy="57" fill="#ADD1B2" rx="11" ry="11" style="stroke:#181818;stroke-width:1;"/><path d="M813.8788,62.6406 Q813.3006,62.9375 812.66,63.0781 Q812.0194,63.2344 811.3163,63.2344 Q808.8163,63.2344 807.4881,61.5938 Q806.1756,59.9375 806.1756,56.8125 Q806.1756,53.6875 807.4881,52.0313 Q808.8163,50.375 811.3163,50.375 Q812.0194,50.375 812.66,50.5313 Q813.3163,50.6875 813.8788,50.9844 L813.8788,53.7031 Q813.2538,53.125 812.66,52.8594 Q812.0663,52.5781 811.4413,52.5781 Q810.0975,52.5781 809.41,53.6563 Q808.7225,54.7188 808.7225,56.8125 Q808.7225,58.9063 809.41,59.9844 Q810.0975,61.0469 811.4413,61.0469 Q812.0663,61.0469 812.66,60.7813 Q813.2538,60.5 813.8788,59.9219 L813.8788,62.6406 Z " fill="#000000"/><text fill="#000000" font-family="sans-serif" font-size="14" lengthAdjust="spacing" textLength="180.1748" x="824.91" y="61.8467">Publiccode Action Service</text><line style="stroke:#181818;stroke-width:0.5;" x1="796.91" x2="1007.0848" y1="73" y2="73"/><line style="stroke:#181818;stroke-width:0.5;" x1="796.91" x2="1007.0848" y1="81" y2="81"/></g><!--class pubCode--><g id="elem_pubCode"><rect codeLine="17" fill="#F1F1F1" height="48" id="pubCode" rx="2.5" ry="2.5" style="stroke:#181818;stroke-width:0.5;" width="193.6357" x="800.18" y="187"/><ellipse cx="815.18" cy="203" fill="#ADD1B2" rx="11" ry="11" style="stroke:#181818;stroke-width:1;"/><path d="M818.1488,208.6406 Q817.5706,208.9375 816.93,209.0781 Q816.2894,209.2344 815.5863,209.2344 Q813.0863,209.2344 811.7581,207.5938 Q810.4456,205.9375 810.4456,202.8125 Q810.4456,199.6875 811.7581,198.0313 Q813.0863,196.375 815.5863,196.375 Q816.2894,196.375 816.93,196.5313 Q817.5863,196.6875 818.1488,196.9844 L818.1488,199.7031 Q817.5238,199.125 816.93,198.8594 Q816.3363,198.5781 815.7113,198.5781 Q814.3675,198.5781 813.68,199.6563 Q812.9925,200.7188 812.9925,202.8125 Q812.9925,204.9063 813.68,205.9844 Q814.3675,207.0469 815.7113,207.0469 Q816.3363,207.0469 816.93,206.7813 Q817.5238,206.5 818.1488,205.9219 L818.1488,208.6406 Z " fill="#000000"/><text fill="#000000" font-family="sans-serif" font-size="14" lengthAdjust="spacing" textLength="161.6357" x="829.18" y="207.8467">publiccode.yaml (data)</text><line style="stroke:#181818;stroke-width:0.5;" x1="801.18" x2="992.8157" y1="219" y2="219"/><line style="stroke:#181818;stroke-width:0.5;" x1="801.18" x2="992.8157" y1="227" y2="227"/></g><!--class productPageAction--><g id="elem_productPageAction"><rect codeLine="18" fill="#F1F1F1" height="48" id="productPageAction" rx="2.5" ry="2.5" style="stroke:#181818;stroke-width:0.5;" width="229.415" x="1043.29" y="41"/><ellipse cx="1058.29" cy="57" fill="#ADD1B2" rx="11" ry="11" style="stroke:#181818;stroke-width:1;"/><path d="M1061.2588,62.6406 Q1060.6806,62.9375 1060.04,63.0781 Q1059.3994,63.2344 1058.6963,63.2344 Q1056.1963,63.2344 1054.8681,61.5938 Q1053.5556,59.9375 1053.5556,56.8125 Q1053.5556,53.6875 1054.8681,52.0313 Q1056.1963,50.375 1058.6963,50.375 Q1059.3994,50.375 1060.04,50.5313 Q1060.6963,50.6875 1061.2588,50.9844 L1061.2588,53.7031 Q1060.6338,53.125 1060.04,52.8594 Q1059.4463,52.5781 1058.8213,52.5781 Q1057.4775,52.5781 1056.79,53.6563 Q1056.1025,54.7188 1056.1025,56.8125 Q1056.1025,58.9063 1056.79,59.9844 Q1057.4775,61.0469 1058.8213,61.0469 Q1059.4463,61.0469 1060.04,60.7813 Q1060.6338,60.5 1061.2588,59.9219 L1061.2588,62.6406 Z " fill="#000000"/><text fill="#000000" font-family="sans-serif" font-size="14" lengthAdjust="spacing" textLength="197.415" x="1072.29" y="61.8467">Product Page Action Service</text><line style="stroke:#181818;stroke-width:0.5;" x1="1044.29" x2="1271.705" y1="73" y2="73"/><line style="stroke:#181818;stroke-width:0.5;" x1="1044.29" x2="1271.705" y1="81" y2="81"/></g><!--class productPage--><g id="elem_productPage"><rect codeLine="19" fill="#F1F1F1" height="48" id="productPage" rx="2.5" ry="2.5" style="stroke:#181818;stroke-width:0.5;" width="124.6816" x="1050.66" y="187"/><ellipse cx="1065.66" cy="203" fill="#B4A7E5" rx="11" ry="11" style="stroke:#181818;stroke-width:1;"/><path d="M1061.5819,198.7656 L1061.5819,196.6094 L1068.9725,196.6094 L1068.9725,198.7656 L1066.5038,198.7656 L1066.5038,206.8438 L1068.9725,206.8438 L1068.9725,209 L1061.5819,209 L1061.5819,206.8438 L1064.0506,206.8438 L1064.0506,198.7656 L1061.5819,198.7656 Z " fill="#000000"/><text fill="#000000" font-family="sans-serif" font-size="14" font-style="italic" lengthAdjust="spacing" textLength="92.6816" x="1079.66" y="207.8467">Product Page</text><line style="stroke:#181818;stroke-width:0.5;" x1="1051.66" x2="1174.3416" y1="219" y2="219"/><line style="stroke:#181818;stroke-width:0.5;" x1="1051.66" x2="1174.3416" y1="227" y2="227"/></g><!--link openCat to api--><g id="link_openCat_api"><path codeLine="23" d="M349.58,235.36 C306.17,257.69 257.0866,282.9466 213.6166,305.3066 " fill="#FFFFFF" fill-opacity="0.00000" id="openCat-to-api" style="stroke:#181818;stroke-width:1;"/><polygon fill="#FFFFFF" fill-opacity="0.00000" points="197.61,313.54,216.3611,310.6421,210.8721,299.971,197.61,313.54" style="stroke:#181818;stroke-width:1;"/><text fill="#000000" font-family="sans-serif" font-size="13" lengthAdjust="spacing" textLength="54.1074" x="289" y="280.0669">Register</text></g><!--link pubCode to api--><g id="link_pubCode_api"><path codeLine="24" d="M835.27,235.45 C810.88,243.96 782.41,252.95 756,259 C572.54,301.01 370.1463,320.9202 252.8963,330.0002 " fill="#FFFFFF" fill-opacity="0.00000" id="pubCode-to-api" style="stroke:#181818;stroke-width:1;"/><polygon fill="#FFFFFF" fill-opacity="0.00000" points="234.95,331.39,253.3595,335.9823,252.433,324.0181,234.95,331.39" style="stroke:#181818;stroke-width:1;"/><text fill="#000000" font-family="sans-serif" font-size="13" lengthAdjust="spacing" textLength="54.1074" x="708" y="280.0669">Register</text></g><!--link productPage to api--><g id="link_productPage_api"><path codeLine="26" d="M1070.51,235.38 C1052.63,244.19 1031.31,253.43 1011,259 C866.23,298.72 439.2884,323.189 253.1784,332.309 " fill="#FFFFFF" fill-opacity="0.00000" id="productPage-to-api" style="stroke:#181818;stroke-width:1;"/><polygon fill="#FFFFFF" fill-opacity="0.00000" points="235.2,333.19,253.4721,338.3018,252.8848,326.3162,235.2,333.19" style="stroke:#181818;stroke-width:1;"/><text fill="#000000" font-family="sans-serif" font-size="13" lengthAdjust="spacing" textLength="44.7319" x="973" y="280.0669">Access</text></g><!--link openCatalogi to api--><g id="link_openCatalogi_api"><path codeLine="27" d="M152,235.22 C152,257.67 152,273.5 152,295.91 " fill="#FFFFFF" fill-opacity="0.00000" id="openCatalogi-to-api" style="stroke:#181818;stroke-width:1;"/><polygon fill="#FFFFFF" fill-opacity="0.00000" points="152,313.91,158,295.91,146,295.91,152,313.91" style="stroke:#181818;stroke-width:1;"/><text fill="#000000" font-family="sans-serif" font-size="13" lengthAdjust="spacing" textLength="44.7319" x="153" y="280.0669">Access</text></g><!--link organisatieCatalogi to api--><g id="link_organisatieCatalogi_api"><path codeLine="28" d="M577.41,235.38 C558.82,243.68 537.22,252.55 517,259 C422.24,289.23 327.6324,308.2154 252.8524,321.0054 " fill="#FFFFFF" fill-opacity="0.00000" id="organisatieCatalogi-to-api" style="stroke:#181818;stroke-width:1;"/><polygon fill="#FFFFFF" fill-opacity="0.00000" points="235.11,324.04,253.8639,326.9196,251.8408,315.0913,235.11,324.04" style="stroke:#181818;stroke-width:1;"/><text fill="#000000" font-family="sans-serif" font-size="13" lengthAdjust="spacing" textLength="44.7319" x="489" y="280.0669">Access</text></g><!--link catalogiAction to organisatieCatalogi--><g id="link_catalogiAction_organisatieCatalogi"><path codeLine="30" d="M640.23,89.46 C637.07,116.23 634.0401,141.9041 630.8801,168.6741 " fill="#FFFFFF" fill-opacity="0.00000" id="catalogiAction-to-organisatieCatalogi" style="stroke:#181818;stroke-width:1;"/><polygon fill="#FFFFFF" fill-opacity="0.00000" points="628.77,186.55,636.8387,169.3775,624.9215,167.9707,628.77,186.55" style="stroke:#181818;stroke-width:1;"/><text fill="#000000" font-family="sans-serif" font-size="13" lengthAdjust="spacing" textLength="135.5542" x="637" y="132.0669">Creates and updates</text></g><!--link orgAction to openCat--><g id="link_orgAction_openCat"><path codeLine="31" d="M400.02,89.46 C398.91,116.23 397.8357,141.7955 396.7257,168.5655 " fill="#FFFFFF" fill-opacity="0.00000" id="orgAction-to-openCat" style="stroke:#181818;stroke-width:1;"/><polygon fill="#FFFFFF" fill-opacity="0.00000" points="395.98,186.55,402.7206,168.814,390.7309,168.3169,395.98,186.55" style="stroke:#181818;stroke-width:1;"/><text fill="#000000" font-family="sans-serif" font-size="13" lengthAdjust="spacing" textLength="135.5542" x="399" y="132.0669">Creates and updates</text></g><!--link pubAction to pubCode--><g id="link_pubAction_pubCode"><path codeLine="32" d="M901.19,89.46 C900.26,116.23 899.3649,141.7909 898.4349,168.5609 " fill="#FFFFFF" fill-opacity="0.00000" id="pubAction-to-pubCode" style="stroke:#181818;stroke-width:1;"/><polygon fill="#FFFFFF" fill-opacity="0.00000" points="897.81,186.55,904.4313,168.7692,892.4386,168.3525,897.81,186.55" style="stroke:#181818;stroke-width:1;"/><text fill="#000000" font-family="sans-serif" font-size="13" lengthAdjust="spacing" textLength="135.5542" x="901" y="132.0669">Creates and updates</text></g><!--link productPageAction to productPage--><g id="link_productPageAction_productPage"><path codeLine="33" d="M1150.67,89.46 C1142.3,116.23 1134.0557,142.5983 1125.6957,169.3683 " fill="#FFFFFF" fill-opacity="0.00000" id="productPageAction-to-productPage" style="stroke:#181818;stroke-width:1;"/><polygon fill="#FFFFFF" fill-opacity="0.00000" points="1120.33,186.55,1131.4229,171.1569,1119.9684,167.5798,1120.33,186.55" style="stroke:#181818;stroke-width:1;"/><text fill="#000000" font-family="sans-serif" font-size="13" lengthAdjust="spacing" textLength="135.5542" x="1141" y="132.0669">Creates and updates</text></g><!--SRC=[dL9BJiCm4Dtx54DMi6WFq0LI5AK8gIfLwGLSUngP1Dko7L05t1sdJb8dDHkwIcVcpVjuxZYUX4JObyKXtpvjIc0DjPOGJLbDAuHiGoN7HhpLi4QEXZg19zYY-qHJP_15mF-UjuTolywB4ZAbKJBgQACgiPHD1jH2LolwscN-ofPHBPOfZA-JdqZ6Ywce5BQZXprgPOLJvZm8Y1RkscCZ65CS8MTEA6dX5Ss7O1Yqc2gKvxY9Y3DzR-2U-xyFiOCvPZ3LCqs8XbqHMnJJrOw73Mi6WOFHCRCuYE3l7pbCrEdsc8v1Zx2R47ohyFKR8gDuonpiEdafgj3lskaiuWLpH6UTzEd3Ol7zs1q6hBprIbY7XlIYaZqIBOe7SiRGttXybgdsxKCafiZqdIy32UGA2eFKeJzioQ7LlFicup46MD2J7XqVx3BQk_vZT1vuW5ohITWl]--></g></svg>