<svg xmlns="http://www.w3.org/2000/svg" xmlns:xlink="http://www.w3.org/1999/xlink" contentStyleType="text/css" data-diagram-type="SEQUENCE" height="457px" preserveAspectRatio="none" style="width:1031px;height:457px;background:#FFFFFF;" version="1.1" viewBox="0 0 1031 457" width="1031px" zoomAndPan="magnify"><defs/><g><g><title>OpenCatalogi Installation A</title><rect fill="#FFFFFF" height="246.0625" style="stroke:#181818;stroke-width:1;" width="10" x="262.6094" y="112.4297"/></g><g><title>Directory</title><rect fill="#FFFFFF" height="29.1328" style="stroke:#181818;stroke-width:1;" width="10" x="550.395" y="141.5625"/></g><g><title>OpenCatalogi Installation B</title><rect fill="#FFFFFF" height="29.1328" style="stroke:#181818;stroke-width:1;" width="10" x="702.3569" y="199.8281"/></g><g><title>OpenCatalogi Installation C</title><rect fill="#FFFFFF" height="29.1328" style="stroke:#181818;stroke-width:1;" width="10" x="917.5342" y="258.0938"/></g><g><title>User</title><rect fill="#FFFFFF" fill-opacity="0.00000" height="295.1953" width="8" x="19.9551" y="81.2969"/><line style="stroke:#181818;stroke-width:0.5;stroke-dasharray:5.0,5.0;" x1="23" x2="23" y1="81.2969" y2="376.4922"/></g><g><title>OpenCatalogi Installation A</title><rect fill="#FFFFFF" fill-opacity="0.00000" height="295.1953" width="8" x="263.6094" y="81.2969"/><line style="stroke:#181818;stroke-width:0.5;stroke-dasharray:5.0,5.0;" x1="267.0771" x2="267.0771" y1="81.2969" y2="376.4922"/></g><g><title>Directory</title><rect fill="#FFFFFF" fill-opacity="0.00000" height="295.1953" width="8" x="551.395" y="81.2969"/><line style="stroke:#181818;stroke-width:0.5;stroke-dasharray:5.0,5.0;" x1="554.979" x2="554.979" y1="81.2969" y2="376.4922"/></g><g><title>OpenCatalogi Installation B</title><rect fill="#FFFFFF" fill-opacity="0.00000" height="295.1953" width="8" x="703.3569" y="81.2969"/><line style="stroke:#181818;stroke-width:0.5;stroke-dasharray:5.0,5.0;" x1="706.811" x2="706.811" y1="81.2969" y2="376.4922"/></g><g><title>OpenCatalogi Installation C</title><rect fill="#FFFFFF" fill-opacity="0.00000" height="295.1953" width="8" x="918.5342" y="81.2969"/><line style="stroke:#181818;stroke-width:0.5;stroke-dasharray:5.0,5.0;" x1="921.9028" x2="921.9028" y1="81.2969" y2="376.4922"/></g><g><text fill="#000000" font-family="sans-serif" font-size="14" lengthAdjust="spacing" textLength="31.9102" x="5" y="77.9951">User</text><ellipse cx="23.9551" cy="13.5" fill="#E2E2F0" rx="8" ry="8" style="stroke:#181818;stroke-width:0.5;"/><path d="M23.9551,21.5 L23.9551,48.5 M10.9551,29.5 L36.9551,29.5 M23.9551,48.5 L10.9551,63.5 M23.9551,48.5 L36.9551,63.5 " fill="#FFFFFF" fill-opacity="0.00000" style="stroke:#181818;stroke-width:0.5;"/></g><g><text fill="#000000" font-family="sans-serif" font-size="14" lengthAdjust="spacing" textLength="31.9102" x="5" y="388.4873">User</text><ellipse cx="23.9551" cy="400.2891" fill="#E2E2F0" rx="8" ry="8" style="stroke:#181818;stroke-width:0.5;"/><path d="M23.9551,408.2891 L23.9551,435.2891 M10.9551,416.2891 L36.9551,416.2891 M23.9551,435.2891 L10.9551,450.2891 M23.9551,435.2891 L36.9551,450.2891 " fill="#FFFFFF" fill-opacity="0.00000" style="stroke:#181818;stroke-width:0.5;"/></g><g><rect fill="#E2E2F0" height="30.2969" rx="2.5" ry="2.5" style="stroke:#181818;stroke-width:0.5;" width="205.0645" x="165.0771" y="50"/><text fill="#000000" font-family="sans-serif" font-size="14" lengthAdjust="spacing" textLength="191.0645" x="172.0771" y="69.9951">OpenCatalogi Installation A</text></g><g><rect fill="#E2E2F0" height="30.2969" rx="2.5" ry="2.5" style="stroke:#181818;stroke-width:0.5;" width="205.0645" x="165.0771" y="375.4922"/><text fill="#000000" font-family="sans-serif" font-size="14" lengthAdjust="spacing" textLength="191.0645" x="172.0771" y="395.4873">OpenCatalogi Installation A</text></g><g><rect fill="#E2E2F0" height="30.2969" rx="2.5" ry="2.5" style="stroke:#181818;stroke-width:0.5;" width="78.832" x="515.979" y="50"/><text fill="#000000" font-family="sans-serif" font-size="14" lengthAdjust="spacing" textLength="64.832" x="522.979" y="69.9951">Directory</text></g><g><rect fill="#E2E2F0" height="30.2969" rx="2.5" ry="2.5" style="stroke:#181818;stroke-width:0.5;" width="78.832" x="515.979" y="375.4922"/><text fill="#000000" font-family="sans-serif" font-size="14" lengthAdjust="spacing" textLength="64.832" x="522.979" y="395.4873">Directory</text></g><g><rect fill="#E2E2F0" height="30.2969" rx="2.5" ry="2.5" style="stroke:#181818;stroke-width:0.5;" width="205.0918" x="604.811" y="50"/><text fill="#000000" font-family="sans-serif" font-size="14" lengthAdjust="spacing" textLength="191.0918" x="611.811" y="69.9951">OpenCatalogi Installation B</text></g><g><rect fill="#E2E2F0" height="30.2969" rx="2.5" ry="2.5" style="stroke:#181818;stroke-width:0.5;" width="205.0918" x="604.811" y="375.4922"/><text fill="#000000" font-family="sans-serif" font-size="14" lengthAdjust="spacing" textLength="191.0918" x="611.811" y="395.4873">OpenCatalogi Installation B</text></g><g><rect fill="#E2E2F0" height="30.2969" rx="2.5" ry="2.5" style="stroke:#181818;stroke-width:0.5;" width="205.2627" x="819.9028" y="50"/><text fill="#000000" font-family="sans-serif" font-size="14" lengthAdjust="spacing" textLength="191.2627" x="826.9028" y="69.9951">OpenCatalogi Installation C</text></g><g><rect fill="#E2E2F0" height="30.2969" rx="2.5" ry="2.5" style="stroke:#181818;stroke-width:0.5;" width="205.2627" x="819.9028" y="375.4922"/><text fill="#000000" font-family="sans-serif" font-size="14" lengthAdjust="spacing" textLength="191.2627" x="826.9028" y="395.4873">OpenCatalogi Installation C</text></g><g><title>OpenCatalogi Installation A</title><rect fill="#FFFFFF" height="246.0625" style="stroke:#181818;stroke-width:1;" width="10" x="262.6094" y="112.4297"/></g><g><title>Directory</title><rect fill="#FFFFFF" height="29.1328" style="stroke:#181818;stroke-width:1;" width="10" x="550.395" y="141.5625"/></g><g><title>OpenCatalogi Installation B</title><rect fill="#FFFFFF" height="29.1328" style="stroke:#181818;stroke-width:1;" width="10" x="702.3569" y="199.8281"/></g><g><title>OpenCatalogi Installation C</title><rect fill="#FFFFFF" height="29.1328" style="stroke:#181818;stroke-width:1;" width="10" x="917.5342" y="258.0938"/></g><g><polygon fill="#181818" points="250.6094,108.4297,260.6094,112.4297,250.6094,116.4297,254.6094,112.4297" style="stroke:#181818;stroke-width:1;"/><line style="stroke:#181818;stroke-width:1;" x1="23.9551" x2="256.6094" y1="112.4297" y2="112.4297"/><text fill="#000000" font-family="sans-serif" font-size="13" lengthAdjust="spacing" textLength="219.6543" x="30.9551" y="107.3638">Execute Federated Search(query)</text></g><g><polygon fill="#181818" points="538.395,137.5625,548.395,141.5625,538.395,145.5625,542.395,141.5625" style="stroke:#181818;stroke-width:1;"/><line style="stroke:#181818;stroke-width:1;" x1="272.6094" x2="544.395" y1="141.5625" y2="141.5625"/><text fill="#000000" font-family="sans-serif" font-size="13" lengthAdjust="spacing" textLength="152.5786" x="279.6094" y="136.4966">Get known installations</text></g><g><polygon fill="#181818" points="283.6094,166.6953,273.6094,170.6953,283.6094,174.6953,279.6094,170.6953" style="stroke:#181818;stroke-width:1;"/><line style="stroke:#181818;stroke-width:1;" x1="277.6094" x2="554.395" y1="170.6953" y2="170.6953"/><text fill="#000000" font-family="sans-serif" font-size="13" lengthAdjust="spacing" textLength="253.7856" x="289.6094" y="165.6294">Return list of known installations (B, C)</text></g><g><polygon fill="#181818" points="690.3569,195.8281,700.3569,199.8281,690.3569,203.8281,694.3569,199.8281" style="stroke:#181818;stroke-width:1;"/><line style="stroke:#181818;stroke-width:1;" x1="272.6094" x2="696.3569" y1="199.8281" y2="199.8281"/><text fill="#000000" font-family="sans-serif" font-size="13" lengthAdjust="spacing" textLength="91.311" x="279.6094" y="194.7622">Query (query)</text></g><g><polygon fill="#181818" points="283.6094,224.9609,273.6094,228.9609,283.6094,232.9609,279.6094,228.9609" style="stroke:#181818;stroke-width:1;"/><line style="stroke:#181818;stroke-width:1;" x1="277.6094" x2="706.3569" y1="228.9609" y2="228.9609"/><text fill="#000000" font-family="sans-serif" font-size="13" lengthAdjust="spacing" textLength="91.9204" x="289.6094" y="223.895">Return results</text></g><g><polygon fill="#181818" points="905.5342,254.0938,915.5342,258.0938,905.5342,262.0938,909.5342,258.0938" style="stroke:#181818;stroke-width:1;"/><line style="stroke:#181818;stroke-width:1;" x1="272.6094" x2="911.5342" y1="258.0938" y2="258.0938"/><text fill="#000000" font-family="sans-serif" font-size="13" lengthAdjust="spacing" textLength="91.311" x="279.6094" y="253.0278">Query (query)</text></g><g><polygon fill="#181818" points="283.6094,283.2266,273.6094,287.2266,283.6094,291.2266,279.6094,287.2266" style="stroke:#181818;stroke-width:1;"/><line style="stroke:#181818;stroke-width:1;" x1="277.6094" x2="921.5342" y1="287.2266" y2="287.2266"/><text fill="#000000" font-family="sans-serif" font-size="13" lengthAdjust="spacing" textLength="91.9204" x="289.6094" y="282.1606">Return results</text></g><g><line style="stroke:#181818;stroke-width:1;" x1="272.6094" x2="314.6094" y1="316.3594" y2="316.3594"/><line style="stroke:#181818;stroke-width:1;" x1="314.6094" x2="314.6094" y1="316.3594" y2="329.3594"/><line style="stroke:#181818;stroke-width:1;" x1="273.6094" x2="314.6094" y1="329.3594" y2="329.3594"/><polygon fill="#181818" points="283.6094,325.3594,273.6094,329.3594,283.6094,333.3594,279.6094,329.3594" style="stroke:#181818;stroke-width:1;"/><text fill="#000000" font-family="sans-serif" font-size="13" lengthAdjust="spacing" textLength="116.0225" x="279.6094" y="311.2935">Aggregate results</text></g><g><polygon fill="#181818" points="34.9551,354.4922,24.9551,358.4922,34.9551,362.4922,30.9551,358.4922" style="stroke:#181818;stroke-width:1;"/><line style="stroke:#181818;stroke-width:1;" x1="28.9551" x2="266.6094" y1="358.4922" y2="358.4922"/><text fill="#000000" font-family="sans-serif" font-size="13" lengthAdjust="spacing" textLength="171.4312" x="40.9551" y="353.4263">Return aggregated results</text></g><!--SRC=[ZP11JiCm44NtFiLNLwq45yW2oJPGiKA0EC386O95P0Tx0lJss265HXJHXILxvi_xVqnEOi9ZvgG6IkAT7oW8LhS31qj2VUmyRa8kjvx4nm2z0cNefVpI9wwatTGihrDfPXemfyhj9BTArSGulu1kSFN1RXJ6DRUSIBZ50rDop-lNaTDkeyY9VolrabdfEbFYDTYou2N4zm1_O91_r7M9ScQJUvOn1VG-2-BJiKcipHdiHhMyG7nPcWPtDGr-XJBAB2qIvx6NVCWnCyN-IR7A_aknCwM8TDSbxcfnhviwzLE_2RJNjCTW-XC0]--></g></svg>