<svg xmlns="http://www.w3.org/2000/svg" xmlns:xlink="http://www.w3.org/1999/xlink" contentStyleType="text/css" data-diagram-type="CLASS" height="599px" preserveAspectRatio="none" style="width:376px;height:599px;background:#FFFFFF;" version="1.1" viewBox="0 0 376 599" width="376px" zoomAndPan="magnify"><defs/><g><!--class Catalogue--><g id="elem_Catalogue"><rect codeLine="2" fill="#F1F1F1" height="96.8906" id="Catalogue" rx="2.5" ry="2.5" style="stroke:#181818;stroke-width:0.5;" width="240.2725" x="7" y="338.49"/><ellipse cx="87.2607" cy="354.49" fill="#ADD1B2" rx="11" ry="11" style="stroke:#181818;stroke-width:1;"/><path d="M90.2295,360.1306 Q89.6514,360.4275 89.0107,360.5681 Q88.3701,360.7244 87.667,360.7244 Q85.167,360.7244 83.8389,359.0838 Q82.5264,357.4275 82.5264,354.3025 Q82.5264,351.1775 83.8389,349.5213 Q85.167,347.865 87.667,347.865 Q88.3701,347.865 89.0107,348.0213 Q89.667,348.1775 90.2295,348.4744 L90.2295,351.1931 Q89.6045,350.615 89.0107,350.3494 Q88.417,350.0681 87.792,350.0681 Q86.4482,350.0681 85.7607,351.1463 Q85.0732,352.2088 85.0732,354.3025 Q85.0732,356.3963 85.7607,357.4744 Q86.4482,358.5369 87.792,358.5369 Q88.417,358.5369 89.0107,358.2713 Q89.6045,357.99 90.2295,357.4119 L90.2295,360.1306 Z " fill="#000000"/><text fill="#000000" font-family="sans-serif" font-size="14" lengthAdjust="spacing" textLength="71.251" x="107.7607" y="359.3367">Catalogue</text><line style="stroke:#181818;stroke-width:0.5;" x1="8" x2="246.2725" y1="370.49" y2="370.49"/><ellipse cx="18" cy="384.1384" fill="#FFFFFF" fill-opacity="0.00000" rx="3" ry="3" style="stroke:#038048;stroke-width:1;"/><text fill="#000000" font-family="sans-serif" font-size="14" lengthAdjust="spacing" textLength="85.9346" x="27" y="387.4851">String name</text><ellipse cx="18" cy="400.4353" fill="#FFFFFF" fill-opacity="0.00000" rx="3" ry="3" style="stroke:#038048;stroke-width:1;"/><text fill="#000000" font-family="sans-serif" font-size="14" lengthAdjust="spacing" textLength="214.2725" x="27" y="403.782">List&lt;Publication&gt; publications</text><ellipse cx="18" cy="416.7322" fill="#FFFFFF" fill-opacity="0.00000" rx="3" ry="3" style="stroke:#038048;stroke-width:1;"/><text fill="#000000" font-family="sans-serif" font-size="14" lengthAdjust="spacing" textLength="137.457" x="27" y="420.0789">Organization owner</text><line style="stroke:#181818;stroke-width:0.5;" x1="8" x2="246.2725" y1="427.3806" y2="427.3806"/></g><!--class Organization--><g id="elem_Organization"><rect codeLine="8" fill="#F1F1F1" height="80.5938" id="Organization" rx="2.5" ry="2.5" style="stroke:#181818;stroke-width:0.5;" width="122.8447" x="65.71" y="512.38"/><ellipse cx="81.2031" cy="528.38" fill="#ADD1B2" rx="11" ry="11" style="stroke:#181818;stroke-width:1;"/><path d="M84.1718,534.0206 Q83.5937,534.3175 82.9531,534.4581 Q82.3124,534.6144 81.6093,534.6144 Q79.1093,534.6144 77.7812,532.9738 Q76.4687,531.3175 76.4687,528.1925 Q76.4687,525.0675 77.7812,523.4113 Q79.1093,521.755 81.6093,521.755 Q82.3124,521.755 82.9531,521.9113 Q83.6093,522.0675 84.1718,522.3644 L84.1718,525.0831 Q83.5468,524.505 82.9531,524.2394 Q82.3593,523.9581 81.7343,523.9581 Q80.3906,523.9581 79.7031,525.0363 Q79.0156,526.0988 79.0156,528.1925 Q79.0156,530.2863 79.7031,531.3644 Q80.3906,532.4269 81.7343,532.4269 Q82.3593,532.4269 82.9531,532.1613 Q83.5468,531.88 84.1718,531.3019 L84.1718,534.0206 Z " fill="#000000"/><text fill="#000000" font-family="sans-serif" font-size="14" lengthAdjust="spacing" textLength="89.749" x="95.3126" y="533.2267">Organization</text><line style="stroke:#181818;stroke-width:0.5;" x1="66.71" x2="187.5547" y1="544.38" y2="544.38"/><ellipse cx="76.71" cy="558.0284" fill="#FFFFFF" fill-opacity="0.00000" rx="3" ry="3" style="stroke:#038048;stroke-width:1;"/><text fill="#000000" font-family="sans-serif" font-size="14" lengthAdjust="spacing" textLength="85.9346" x="85.71" y="561.3751">String name</text><ellipse cx="76.71" cy="574.3253" fill="#FFFFFF" fill-opacity="0.00000" rx="3" ry="3" style="stroke:#038048;stroke-width:1;"/><text fill="#000000" font-family="sans-serif" font-size="14" lengthAdjust="spacing" textLength="96.8447" x="85.71" y="577.672">PKI certificate</text><line style="stroke:#181818;stroke-width:0.5;" x1="66.71" x2="187.5547" y1="584.9738" y2="584.9738"/></g><!--class Publication--><g id="elem_Publication"><rect codeLine="13" fill="#F1F1F1" height="96.8906" id="Publication" rx="2.5" ry="2.5" style="stroke:#181818;stroke-width:0.5;" width="164.5986" x="44.84" y="7"/><ellipse cx="84.8255" cy="23" fill="#ADD1B2" rx="11" ry="11" style="stroke:#181818;stroke-width:1;"/><path d="M87.7943,28.6406 Q87.2162,28.9375 86.5755,29.0781 Q85.9349,29.2344 85.2318,29.2344 Q82.7318,29.2344 81.4037,27.5938 Q80.0912,25.9375 80.0912,22.8125 Q80.0912,19.6875 81.4037,18.0313 Q82.7318,16.375 85.2318,16.375 Q85.9349,16.375 86.5755,16.5313 Q87.2318,16.6875 87.7943,16.9844 L87.7943,19.7031 Q87.1693,19.125 86.5755,18.8594 Q85.9818,18.5781 85.3568,18.5781 Q84.013,18.5781 83.3255,19.6563 Q82.638,20.7188 82.638,22.8125 Q82.638,24.9063 83.3255,25.9844 Q84.013,27.0469 85.3568,27.0469 Q85.9818,27.0469 86.5755,26.7813 Q87.1693,26.5 87.7943,25.9219 L87.7943,28.6406 Z " fill="#000000"/><text fill="#000000" font-family="sans-serif" font-size="14" lengthAdjust="spacing" textLength="77.0752" x="104.3779" y="27.8467">Publication</text><line style="stroke:#181818;stroke-width:0.5;" x1="45.84" x2="208.4386" y1="39" y2="39"/><ellipse cx="55.84" cy="52.6484" fill="#FFFFFF" fill-opacity="0.00000" rx="3" ry="3" style="stroke:#038048;stroke-width:1;"/><text fill="#000000" font-family="sans-serif" font-size="14" lengthAdjust="spacing" textLength="73.6025" x="64.84" y="55.9951">String title</text><ellipse cx="55.84" cy="68.9453" fill="#FFFFFF" fill-opacity="0.00000" rx="3" ry="3" style="stroke:#038048;stroke-width:1;"/><text fill="#000000" font-family="sans-serif" font-size="14" lengthAdjust="spacing" textLength="124.0723" x="64.84" y="72.292">String description</text><ellipse cx="55.84" cy="85.2422" fill="#FFFFFF" fill-opacity="0.00000" rx="3" ry="3" style="stroke:#038048;stroke-width:1;"/><text fill="#000000" font-family="sans-serif" font-size="14" lengthAdjust="spacing" textLength="138.5986" x="64.84" y="88.5889">Metadata metadata</text><line style="stroke:#181818;stroke-width:0.5;" x1="45.84" x2="208.4386" y1="95.8906" y2="95.8906"/></g><!--class Metadata--><g id="elem_Metadata"><rect codeLine="19" fill="#F1F1F1" height="80.5938" id="Metadata" rx="2.5" ry="2.5" style="stroke:#181818;stroke-width:0.5;" width="166.5264" x="202.87" y="180.89"/><ellipse cx="248.7357" cy="196.89" fill="#ADD1B2" rx="11" ry="11" style="stroke:#181818;stroke-width:1;"/><path d="M251.7045,202.5306 Q251.1263,202.8275 250.4857,202.9681 Q249.8451,203.1244 249.142,203.1244 Q246.642,203.1244 245.3138,201.4838 Q244.0013,199.8275 244.0013,196.7025 Q244.0013,193.5775 245.3138,191.9213 Q246.642,190.265 249.142,190.265 Q249.8451,190.265 250.4857,190.4213 Q251.142,190.5775 251.7045,190.8744 L251.7045,193.5931 Q251.0795,193.015 250.4857,192.7494 Q249.892,192.4681 249.267,192.4681 Q247.9232,192.4681 247.2357,193.5463 Q246.5482,194.6088 246.5482,196.7025 Q246.5482,198.7963 247.2357,199.8744 Q247.9232,200.9369 249.267,200.9369 Q249.892,200.9369 250.4857,200.6713 Q251.0795,200.39 251.7045,199.8119 L251.7045,202.5306 Z " fill="#000000"/><text fill="#000000" font-family="sans-serif" font-size="14" lengthAdjust="spacing" textLength="66.2949" x="269.2357" y="201.7367">Metadata</text><line style="stroke:#181818;stroke-width:0.5;" x1="203.87" x2="368.3964" y1="212.89" y2="212.89"/><ellipse cx="213.87" cy="226.5384" fill="#FFFFFF" fill-opacity="0.00000" rx="3" ry="3" style="stroke:#038048;stroke-width:1;"/><text fill="#000000" font-family="sans-serif" font-size="14" lengthAdjust="spacing" textLength="106.4697" x="222.87" y="229.8851">String property</text><ellipse cx="213.87" cy="242.8353" fill="#FFFFFF" fill-opacity="0.00000" rx="3" ry="3" style="stroke:#038048;stroke-width:1;"/><text fill="#000000" font-family="sans-serif" font-size="14" lengthAdjust="spacing" textLength="140.5264" x="222.87" y="246.182">String requirements</text><line style="stroke:#181818;stroke-width:0.5;" x1="203.87" x2="368.3964" y1="253.4838" y2="253.4838"/></g><!--link Publication to Catalogue--><g id="link_Publication_Catalogue"><path codeLine="25" d="M121.44,104.24 C118.97,127.35 116.36,155.53 115.14,180.89 C113.42,216.67 113.42,225.71 115.14,261.49 C116.36,286.85 118.3324,309.064 120.8024,332.174 " fill="#FFFFFF" fill-opacity="0.00000" id="Publication-to-Catalogue" style="stroke:#181818;stroke-width:1;"/><polygon fill="#181818" points="121.44,338.14,124.4609,328.7659,120.9086,333.1683,116.5062,329.6161,121.44,338.14" style="stroke:#181818;stroke-width:1;"/><text fill="#000000" font-family="sans-serif" font-size="13" lengthAdjust="spacing" textLength="68.2627" x="116.14" y="225.7569">belongs to</text><text fill="#000000" font-family="sans-serif" font-size="13" lengthAdjust="spacing" textLength="6.5" x="114.3046" y="123.8804">*</text><text fill="#000000" font-family="sans-serif" font-size="13" lengthAdjust="spacing" textLength="8.271" x="112.0955" y="327.2997">1</text></g><!--link Metadata to Catalogue--><g id="link_Metadata_Catalogue"><path codeLine="26" d="M247.65,261.83 C225.31,284.83 201.2101,309.6457 177.6601,333.8957 " fill="#FFFFFF" fill-opacity="0.00000" id="Metadata-to-Catalogue" style="stroke:#181818;stroke-width:1;"/><polygon fill="#181818" points="173.48,338.2,182.6196,334.5302,176.9634,334.6131,176.8806,328.9568,173.48,338.2" style="stroke:#181818;stroke-width:1;"/><text fill="#000000" font-family="sans-serif" font-size="13" lengthAdjust="spacing" textLength="68.2627" x="217.14" y="304.5569">belongs to</text><text fill="#000000" font-family="sans-serif" font-size="13" lengthAdjust="spacing" textLength="6.5" x="235.0785" y="281.5803">*</text><text fill="#000000" font-family="sans-serif" font-size="13" lengthAdjust="spacing" textLength="8.271" x="171.4536" y="327.3681">1</text></g><!--link Publication to Metadata--><g id="link_Publication_Metadata"><path codeLine="27" d="M173.55,104.25 C197.11,128.51 221.2006,153.3151 243.5206,176.3051 " fill="#FFFFFF" fill-opacity="0.00000" id="Publication-to-Metadata" style="stroke:#181818;stroke-width:1;"/><polygon fill="#181818" points="247.7,180.61,244.3008,171.3663,244.2171,177.0226,238.5609,176.9389,247.7,180.61" style="stroke:#181818;stroke-width:1;"/><text fill="#000000" font-family="sans-serif" font-size="13" lengthAdjust="spacing" textLength="69.0054" x="217.14" y="146.9569">defined by</text><text fill="#000000" font-family="sans-serif" font-size="13" lengthAdjust="spacing" textLength="6.5" x="173.4169" y="123.8918">*</text><text fill="#000000" font-family="sans-serif" font-size="13" lengthAdjust="spacing" textLength="8.271" x="232.6944" y="169.7252">1</text></g><!--link Catalogue to Organization--><g id="link_Catalogue_Organization"><path codeLine="28" d="M127.14,435.73 C127.14,459.99 127.14,483.11 127.14,506.1 " fill="#FFFFFF" fill-opacity="0.00000" id="Catalogue-to-Organization" style="stroke:#181818;stroke-width:1;"/><polygon fill="#181818" points="127.14,512.1,131.14,503.1,127.14,507.1,123.14,503.1,127.14,512.1" style="stroke:#181818;stroke-width:1;"/><text fill="#000000" font-family="sans-serif" font-size="13" lengthAdjust="spacing" textLength="63.1528" x="128.14" y="478.4469">owned by</text><text fill="#000000" font-family="sans-serif" font-size="13" lengthAdjust="spacing" textLength="6.5" x="120.771" y="455.3704">*</text><text fill="#000000" font-family="sans-serif" font-size="13" lengthAdjust="spacing" textLength="8.271" x="118.5012" y="501.2152">1</text></g><!--SRC=[ZP7DQi904CVl-nH3BaABXrv3yM8lebAnJx19nZYmsTtkJ2WgldjtLP8DjE1jFlxpcwyPVE21B09Q8I5aLHlD34ijshYsHxWeWDSl2MHRiBh3v6w8vNtNLuPgBUJi0lpeS59yXbPREjy2u7ui1dLL3_OaznT-jrv1ZK7ea90uLcOj9uLnT8EPto3NWNpIfUWMHJTn8UWUnaWSKZdE1-TZ-rCM2lZTKy0kdebJzGpsQExh7icpoYShNWgOpnTGl1NP7Kkeq3ZRCeXJGzidjF-X1qOPzqq_RA0wgH6IQoSdBsyFIUfV]--></g></svg>