<svg xmlns="http://www.w3.org/2000/svg" xmlns:xlink="http://www.w3.org/1999/xlink" contentStyleType="text/css" data-diagram-type="DESCRIPTION" height="576px" preserveAspectRatio="none" style="width:710px;height:576px;background:#FFFFFF;" version="1.1" viewBox="0 0 710 576" width="710px" zoomAndPan="magnify"><title>Open Catalogi</title><defs/><g><text fill="#888888" font-family="sans-serif" font-size="10" lengthAdjust="spacing" textLength="105.21" x="590.79" y="9.2822">Componenten Matrix</text><text fill="#000000" font-family="sans-serif" font-size="14" font-weight="bold" lengthAdjust="spacing" textLength="111.3574" x="292.3213" y="35.6357">Open Catalogi</text><!--cluster Layer 5 (interactie)--><g id="cluster_Layer 5 (interactie)"><path d="M107.5,55.9375 L261.2695,55.9375 A3.75,3.75 0 0 1 263.7695,58.4375 L270.7695,78.2344 L553.5,78.2344 A2.5,2.5 0 0 1 556,80.7344 L556,186.0275 A2.5,2.5 0 0 1 553.5,188.5275 L107.5,188.5275 A2.5,2.5 0 0 1 105,186.0275 L105,58.4375 A2.5,2.5 0 0 1 107.5,55.9375 " fill="#FFFFFF" fill-opacity="0.00000" style="stroke:#000000;stroke-width:1.5;"/><line style="stroke:#000000;stroke-width:1.5;" x1="105" x2="270.7695" y1="78.2344" y2="78.2344"/><text fill="#000000" font-family="sans-serif" font-size="14" font-weight="bold" lengthAdjust="spacing" textLength="152.7695" x="109" y="70.9326">Layer 5 (interactie)</text></g><!--cluster Layer 2 (api)--><g id="cluster_Layer 2 (api)"><path d="M8.5,237.5275 L109.9473,237.5275 A3.75,3.75 0 0 1 112.4473,240.0275 L119.4473,259.8244 L609.5,259.8244 A2.5,2.5 0 0 1 612,262.3244 L612,367.6275 A2.5,2.5 0 0 1 609.5,370.1275 L8.5,370.1275 A2.5,2.5 0 0 1 6,367.6275 L6,240.0275 A2.5,2.5 0 0 1 8.5,237.5275 " fill="#FFFFFF" fill-opacity="0.00000" style="stroke:#000000;stroke-width:1.5;"/><line style="stroke:#000000;stroke-width:1.5;" x1="6" x2="119.4473" y1="259.8244" y2="259.8244"/><text fill="#000000" font-family="sans-serif" font-size="14" font-weight="bold" lengthAdjust="spacing" textLength="100.4473" x="10" y="252.5226">Layer 2 (api)</text></g><!--cluster Layer 1 (data)--><g id="cluster_Layer 1 (data)"><path d="M53.5,419.1275 L166.2881,419.1275 A3.75,3.75 0 0 1 168.7881,421.6275 L175.7881,441.4244 L700.5,441.4244 A2.5,2.5 0 0 1 703,443.9244 L703,548.2175 A2.5,2.5 0 0 1 700.5,550.7175 L53.5,550.7175 A2.5,2.5 0 0 1 51,548.2175 L51,421.6275 A2.5,2.5 0 0 1 53.5,419.1275 " fill="#FFFFFF" fill-opacity="0.00000" style="stroke:#000000;stroke-width:1.5;"/><line style="stroke:#000000;stroke-width:1.5;" x1="51" x2="175.7881" y1="441.4244" y2="441.4244"/><text fill="#000000" font-family="sans-serif" font-size="14" font-weight="bold" lengthAdjust="spacing" textLength="111.7881" x="55" y="434.1226">Layer 1 (data)</text></g><!--entity userUi--><g id="elem_userUi"><rect fill="#F1F1F1" height="62.5938" rx="2.5" ry="2.5" style="stroke:#181818;stroke-width:0.5;" width="185.8584" x="121.07" y="109.9375"/><rect fill="#F1F1F1" height="10" style="stroke:#181818;stroke-width:0.5;" width="15" x="286.9284" y="114.9375"/><rect fill="#F1F1F1" height="2" style="stroke:#181818;stroke-width:0.5;" width="4" x="284.9284" y="116.9375"/><rect fill="#F1F1F1" height="2" style="stroke:#181818;stroke-width:0.5;" width="4" x="284.9284" y="120.9375"/><text fill="#000000" font-family="sans-serif" font-size="14" font-style="italic" lengthAdjust="spacing" textLength="132.4326" x="136.07" y="142.9326">Publicatie platform</text><text fill="#000000" font-family="sans-serif" font-size="14" lengthAdjust="spacing" textLength="145.8584" x="136.07" y="159.2295">Open Tilburg (Acato)</text></g><!--entity adminUI--><g id="elem_adminUI"><rect fill="#F1F1F1" height="62.5938" rx="2.5" ry="2.5" style="stroke:#181818;stroke-width:0.5;" width="198.5391" x="341.73" y="109.9375"/><rect fill="#F1F1F1" height="10" style="stroke:#181818;stroke-width:0.5;" width="15" x="520.2691" y="114.9375"/><rect fill="#F1F1F1" height="2" style="stroke:#181818;stroke-width:0.5;" width="4" x="518.2691" y="116.9375"/><rect fill="#F1F1F1" height="2" style="stroke:#181818;stroke-width:0.5;" width="4" x="518.2691" y="120.9375"/><text fill="#000000" font-family="sans-serif" font-size="14" font-style="italic" lengthAdjust="spacing" textLength="117.2021" x="356.73" y="142.9326">Beheer Interface</text><text fill="#000000" font-family="sans-serif" font-size="14" lengthAdjust="spacing" textLength="158.5391" x="356.73" y="159.2295">Beheer Tilburg (Acato)</text></g><!--entity searchAPI--><g id="elem_searchAPI"><rect fill="#F1F1F1" height="62.5938" rx="2.5" ry="2.5" style="stroke:#181818;stroke-width:0.5;" width="269.209" x="22.4" y="291.5275"/><rect fill="#F1F1F1" height="10" style="stroke:#181818;stroke-width:0.5;" width="15" x="271.609" y="296.5275"/><rect fill="#F1F1F1" height="2" style="stroke:#181818;stroke-width:0.5;" width="4" x="269.609" y="298.5275"/><rect fill="#F1F1F1" height="2" style="stroke:#181818;stroke-width:0.5;" width="4" x="269.609" y="302.5275"/><text fill="#000000" font-family="sans-serif" font-size="14" font-style="italic" lengthAdjust="spacing" textLength="78.9619" x="37.4" y="324.5226">Zoeken API</text><text fill="#000000" font-family="sans-serif" font-size="14" lengthAdjust="spacing" textLength="229.209" x="37.4" y="340.8195">OC Next Cloud App (Conduction)</text></g><!--entity beheerAPI--><g id="elem_beheerAPI"><rect fill="#F1F1F1" height="62.5938" rx="2.5" ry="2.5" style="stroke:#181818;stroke-width:0.5;" width="269.209" x="326.4" y="291.5275"/><rect fill="#F1F1F1" height="10" style="stroke:#181818;stroke-width:0.5;" width="15" x="575.609" y="296.5275"/><rect fill="#F1F1F1" height="2" style="stroke:#181818;stroke-width:0.5;" width="4" x="573.609" y="298.5275"/><rect fill="#F1F1F1" height="2" style="stroke:#181818;stroke-width:0.5;" width="4" x="573.609" y="302.5275"/><text fill="#000000" font-family="sans-serif" font-size="14" font-style="italic" lengthAdjust="spacing" textLength="76.6719" x="341.4" y="324.5226">Beheer API</text><text fill="#000000" font-family="sans-serif" font-size="14" lengthAdjust="spacing" textLength="229.209" x="341.4" y="340.8195">OC Next Cloud App (Conduction)</text></g><!--entity elastic--><g id="elem_elastic"><path d="M67.2,483.1275 C67.2,473.1275 156.9993,473.1275 156.9993,473.1275 C156.9993,473.1275 246.7986,473.1275 246.7986,483.1275 L246.7986,524.7212 C246.7986,534.7212 156.9993,534.7212 156.9993,534.7212 C156.9993,534.7212 67.2,534.7212 67.2,524.7212 L67.2,483.1275 " fill="#F1F1F1" style="stroke:#181818;stroke-width:0.5;"/><path d="M67.2,483.1275 C67.2,493.1275 156.9993,493.1275 156.9993,493.1275 C156.9993,493.1275 246.7986,493.1275 246.7986,483.1275 " fill="#FFFFFF" fill-opacity="0.00000" style="stroke:#181818;stroke-width:0.5;"/><text fill="#000000" font-family="sans-serif" font-size="14" font-style="italic" lengthAdjust="spacing" textLength="77.875" x="77.2" y="510.1226">Zoek index</text><text fill="#000000" font-family="sans-serif" font-size="14" lengthAdjust="spacing" textLength="159.5986" x="77.2" y="526.4195">Elastic Search (Elastic)</text></g><!--entity ORC--><g id="elem_ORC"><path d="M479.11,483.1275 C479.11,473.1275 583.0016,473.1275 583.0016,473.1275 C583.0016,473.1275 686.8932,473.1275 686.8932,483.1275 L686.8932,524.7212 C686.8932,534.7212 583.0016,534.7212 583.0016,534.7212 C583.0016,534.7212 479.11,534.7212 479.11,524.7212 L479.11,483.1275 " fill="#F1F1F1" style="stroke:#181818;stroke-width:0.5;"/><path d="M479.11,483.1275 C479.11,493.1275 583.0016,493.1275 583.0016,493.1275 C583.0016,493.1275 686.8932,493.1275 686.8932,483.1275 " fill="#FFFFFF" fill-opacity="0.00000" style="stroke:#181818;stroke-width:0.5;"/><text fill="#000000" font-family="sans-serif" font-size="14" font-style="italic" lengthAdjust="spacing" textLength="113.6338" x="489.11" y="510.1226">Objecten opslag</text><text fill="#000000" font-family="sans-serif" font-size="14" lengthAdjust="spacing" textLength="187.7832" x="489.11" y="526.4195">Overige Objecten (Maykin)</text></g><!--entity DMS--><g id="elem_DMS"><path d="M282.06,483.1275 C282.06,473.1275 363.0034,473.1275 363.0034,473.1275 C363.0034,473.1275 443.9467,473.1275 443.9467,483.1275 L443.9467,524.7212 C443.9467,534.7212 363.0034,534.7212 363.0034,534.7212 C363.0034,534.7212 282.06,534.7212 282.06,524.7212 L282.06,483.1275 " fill="#F1F1F1" style="stroke:#181818;stroke-width:0.5;"/><path d="M282.06,483.1275 C282.06,493.1275 363.0034,493.1275 363.0034,493.1275 C363.0034,493.1275 443.9467,493.1275 443.9467,483.1275 " fill="#FFFFFF" fill-opacity="0.00000" style="stroke:#181818;stroke-width:0.5;"/><text fill="#000000" font-family="sans-serif" font-size="14" font-style="italic" lengthAdjust="spacing" textLength="31.7461" x="292.06" y="510.1226">DMS</text><text fill="#000000" font-family="sans-serif" font-size="14" lengthAdjust="spacing" textLength="141.8867" x="292.06" y="526.4195">Open Zaak (Maykin)</text></g><!--link adminUI to beheerAPI--><g id="link_adminUI_beheerAPI"><path d="M444.39,172.6975 C448.07,205.7275 453.2466,252.1643 456.9266,285.2443 " fill="#FFFFFF" fill-opacity="0.00000" id="adminUI-to-beheerAPI" style="stroke:#181818;stroke-width:1;stroke-dasharray:7.0,7.0;"/><polygon fill="#181818" points="457.59,291.2075,460.5704,281.8204,457.0372,286.2382,452.6195,282.7049,457.59,291.2075" style="stroke:#181818;stroke-width:1;"/><text fill="#000000" font-family="sans-serif" font-size="13" lengthAdjust="spacing" textLength="53.041" x="450" y="217.5944">Opslaan</text></g><!--reverse link userUi to searchAPI--><g id="link_userUi_searchAPI"><path d="M202.5154,178.4165 C192.0354,211.4465 177.22,258.1275 166.72,291.2075 " fill="#FFFFFF" fill-opacity="0.00000" id="userUi-backto-searchAPI" style="stroke:#181818;stroke-width:1;stroke-dasharray:7.0,7.0;"/><polygon fill="#181818" points="204.33,172.6975,197.7954,180.0663,202.8179,177.4634,205.4208,182.4858,204.33,172.6975" style="stroke:#181818;stroke-width:1;"/><text fill="#000000" font-family="sans-serif" font-size="13" lengthAdjust="spacing" textLength="65.0254" x="195" y="217.5944">Opzoeken</text></g><!--link beheerAPI to ORC--><g id="link_beheerAPI_ORC"><path d="M481.97,354.6175 C504.52,387.7175 536.7625,435.0484 559.1225,467.8784 " fill="#FFFFFF" fill-opacity="0.00000" id="beheerAPI-to-ORC" style="stroke:#181818;stroke-width:1;stroke-dasharray:7.0,7.0;"/><polygon fill="#181818" points="562.5,472.8375,560.7397,463.1472,559.6854,468.705,554.1277,467.6506,562.5,472.8375" style="stroke:#181818;stroke-width:1;"/><text fill="#000000" font-family="sans-serif" font-size="13" lengthAdjust="spacing" textLength="53.041" x="515" y="399.1944">Opslaan</text></g><!--link beheerAPI to DMS--><g id="link_beheerAPI_DMS"><path d="M442.41,354.3675 C436.42,364.4175 429.82,375.6875 424,386.1275 C407.74,415.2975 392.9011,443.83 380.8211,467.57 " fill="#FFFFFF" fill-opacity="0.00000" id="beheerAPI-to-DMS" style="stroke:#181818;stroke-width:1;stroke-dasharray:7.0,7.0;"/><polygon fill="#181818" points="378.1,472.9175,385.7466,466.7103,380.3675,468.4612,378.6166,463.0822,378.1,472.9175" style="stroke:#181818;stroke-width:1;"/><text fill="#000000" font-family="sans-serif" font-size="13" lengthAdjust="spacing" textLength="53.041" x="425" y="399.1944">Opslaan</text></g><!--reverse link searchAPI to elastic--><g id="link_searchAPI_elastic"><path d="M157,360.6175 C157,393.7175 157,440.0075 157,472.8375 " fill="#FFFFFF" fill-opacity="0.00000" id="searchAPI-backto-elastic" style="stroke:#181818;stroke-width:1;stroke-dasharray:7.0,7.0;"/><polygon fill="#181818" points="157,354.6175,153,363.6175,157,359.6175,161,363.6175,157,354.6175" style="stroke:#181818;stroke-width:1;"/><text fill="#000000" font-family="sans-serif" font-size="13" lengthAdjust="spacing" textLength="48.623" x="158" y="399.1944">Zoeken</text></g><!--link ORC to elastic--><g id="link_ORC_elastic"><path d="M553.74,472.7875 C530.88,450.8675 497.04,423.3475 461,411.1275 C378.51,383.1375 346.39,380.0675 265,411.1275 C231.97,423.7275 206.184,446.7751 186.294,468.5751 " fill="#FFFFFF" fill-opacity="0.00000" id="ORC-to-elastic" style="stroke:#181818;stroke-width:1;stroke-dasharray:7.0,7.0;"/><polygon fill="#181818" points="182.25,473.0075,191.2709,469.055,185.62,469.3139,185.3611,463.6629,182.25,473.0075" style="stroke:#181818;stroke-width:1;"/><text fill="#000000" font-family="sans-serif" font-size="13" lengthAdjust="spacing" textLength="55.3198" x="289.5" y="399.1944">Updaten</text></g><text fill="#888888" font-family="sans-serif" font-size="10" lengthAdjust="spacing" textLength="144.0625" x="275.9688" y="565.9997">Open Catalogi | Components</text><!--SRC=[ZLBDJi904BxlKqmubGkD9bw8CS7gWKI4Y5nG3zDsWBLbTxFTAgYykxCjMKGyUElEV7ypKoTTINqO6rAGeCDIBwLOQEt8_gh25oHwRRGYvIgn8imz99GOEK9dvKO8OJ0hS4dGkSCjMRY0I3B0OkOaTJlmAU0fZYTrMieCkGIcHBVGTXt7pwhnV9HbMjibH0C6wEuBO0LrHNOc6-erhOXrXrvqWHbvthxs5nFpjLIpeTYTHZk728qCcUQQ2hOVJ8PDb0JkQUCWANMTmy0OY1Ajyfh7qAgLhWXjjcByprp_fwSDmTDt9z7E8CfvzKqs_v5YnRqs8qYLqyQRt9POEPd1j0a2qVxDB9Qdzd547wUlbFbhQLELk6o2lf6LR1nQqGYtXLIjoFWXEHAu6Kt3dUQ8nJ6QktwM_SgXb-jtrRiw3Ef_AlP59TfxmcKBEMpI8pwQEuZ02ZeSvg1mscRtGpie1e_zFlhGtbcm6lHuz9LZRcZE38zBwXi0]--></g></svg>