<svg xmlns="http://www.w3.org/2000/svg" xmlns:xlink="http://www.w3.org/1999/xlink" contentStyleType="text/css" data-diagram-type="DESCRIPTION" height="576px" preserveAspectRatio="none" style="width:710px;height:576px;background:#FFFFFF;" version="1.1" viewBox="0 0 710 576" width="710px" zoomAndPan="magnify"><title>Open Catalogi</title><defs/><g><text fill="#888888" font-family="sans-serif" font-size="10" lengthAdjust="spacing" textLength="105.21" x="590.79" y="9.2822">Componenten Matrix</text><text fill="#000000" font-family="sans-serif" font-size="14" font-weight="bold" lengthAdjust="spacing" textLength="111.3574" x="292.3213" y="35.6357">Open Catalogi</text><!--cluster Layer 5 (interactie)--><g id="cluster_Layer 5 (interactie)"><path d="M48.5,55.9375 L202.2695,55.9375 A3.75,3.75 0 0 1 204.7695,58.4375 L211.7695,78.2344 L603.5,78.2344 A2.5,2.5 0 0 1 606,80.7344 L606,186.0275 A2.5,2.5 0 0 1 603.5,188.5275 L48.5,188.5275 A2.5,2.5 0 0 1 46,186.0275 L46,58.4375 A2.5,2.5 0 0 1 48.5,55.9375 " fill="#FFFFFF" fill-opacity="0.00000" style="stroke:#000000;stroke-width:1.5;"/><line style="stroke:#000000;stroke-width:1.5;" x1="46" x2="211.7695" y1="78.2344" y2="78.2344"/><text fill="#000000" font-family="sans-serif" font-size="14" font-weight="bold" lengthAdjust="spacing" textLength="152.7695" x="50" y="70.9326">Layer 5 (interactie)</text></g><!--cluster Layer 2 (api)--><g id="cluster_Layer 2 (api)"><path d="M8.5,237.5275 L109.9473,237.5275 A3.75,3.75 0 0 1 112.4473,240.0275 L119.4473,259.8244 L609.5,259.8244 A2.5,2.5 0 0 1 612,262.3244 L612,367.6275 A2.5,2.5 0 0 1 609.5,370.1275 L8.5,370.1275 A2.5,2.5 0 0 1 6,367.6275 L6,240.0275 A2.5,2.5 0 0 1 8.5,237.5275 " fill="#FFFFFF" fill-opacity="0.00000" style="stroke:#000000;stroke-width:1.5;"/><line style="stroke:#000000;stroke-width:1.5;" x1="6" x2="119.4473" y1="259.8244" y2="259.8244"/><text fill="#000000" font-family="sans-serif" font-size="14" font-weight="bold" lengthAdjust="spacing" textLength="100.4473" x="10" y="252.5226">Layer 2 (api)</text></g><!--cluster Layer 1 (data)--><g id="cluster_Layer 1 (data)"><path d="M53.5,419.1275 L166.2881,419.1275 A3.75,3.75 0 0 1 168.7881,421.6275 L175.7881,441.4244 L700.5,441.4244 A2.5,2.5 0 0 1 703,443.9244 L703,548.2175 A2.5,2.5 0 0 1 700.5,550.7175 L53.5,550.7175 A2.5,2.5 0 0 1 51,548.2175 L51,421.6275 A2.5,2.5 0 0 1 53.5,419.1275 " fill="#FFFFFF" fill-opacity="0.00000" style="stroke:#000000;stroke-width:1.5;"/><line style="stroke:#000000;stroke-width:1.5;" x1="51" x2="175.7881" y1="441.4244" y2="441.4244"/><text fill="#000000" font-family="sans-serif" font-size="14" font-weight="bold" lengthAdjust="spacing" textLength="111.7881" x="55" y="434.1226">Layer 1 (data)</text></g><!--entity userUi--><g id="elem_userUi"><rect fill="#F1F1F1" height="62.5938" rx="2.5" ry="2.5" style="stroke:#181818;stroke-width:0.5;" width="223.251" x="62.37" y="109.9375"/><rect fill="#F1F1F1" height="10" style="stroke:#181818;stroke-width:0.5;" width="15" x="265.621" y="114.9375"/><rect fill="#F1F1F1" height="2" style="stroke:#181818;stroke-width:0.5;" width="4" x="263.621" y="116.9375"/><rect fill="#F1F1F1" height="2" style="stroke:#181818;stroke-width:0.5;" width="4" x="263.621" y="120.9375"/><text fill="#000000" font-family="sans-serif" font-size="14" font-style="italic" lengthAdjust="spacing" textLength="132.4326" x="77.37" y="142.9326">Publicatie platform</text><text fill="#000000" font-family="sans-serif" font-size="14" lengthAdjust="spacing" textLength="183.251" x="77.37" y="159.2295">OC Web App (Conduction)</text></g><!--entity adminUI--><g id="elem_adminUI"><rect fill="#F1F1F1" height="62.5938" rx="2.5" ry="2.5" style="stroke:#181818;stroke-width:0.5;" width="269.209" x="320.4" y="109.9375"/><rect fill="#F1F1F1" height="10" style="stroke:#181818;stroke-width:0.5;" width="15" x="569.609" y="114.9375"/><rect fill="#F1F1F1" height="2" style="stroke:#181818;stroke-width:0.5;" width="4" x="567.609" y="116.9375"/><rect fill="#F1F1F1" height="2" style="stroke:#181818;stroke-width:0.5;" width="4" x="567.609" y="120.9375"/><text fill="#000000" font-family="sans-serif" font-size="14" font-style="italic" lengthAdjust="spacing" textLength="117.2021" x="335.4" y="142.9326">Beheer Interface</text><text fill="#000000" font-family="sans-serif" font-size="14" lengthAdjust="spacing" textLength="229.209" x="335.4" y="159.2295">OC Next Cloud App (Conduction)</text></g><!--entity searchAPI--><g id="elem_searchAPI"><rect fill="#F1F1F1" height="62.5938" rx="2.5" ry="2.5" style="stroke:#181818;stroke-width:0.5;" width="269.209" x="22.4" y="291.5275"/><rect fill="#F1F1F1" height="10" style="stroke:#181818;stroke-width:0.5;" width="15" x="271.609" y="296.5275"/><rect fill="#F1F1F1" height="2" style="stroke:#181818;stroke-width:0.5;" width="4" x="269.609" y="298.5275"/><rect fill="#F1F1F1" height="2" style="stroke:#181818;stroke-width:0.5;" width="4" x="269.609" y="302.5275"/><text fill="#000000" font-family="sans-serif" font-size="14" font-style="italic" lengthAdjust="spacing" textLength="78.9619" x="37.4" y="324.5226">Zoeken API</text><text fill="#000000" font-family="sans-serif" font-size="14" lengthAdjust="spacing" textLength="229.209" x="37.4" y="340.8195">OC Next Cloud App (Conduction)</text></g><!--entity beheerAPI--><g id="elem_beheerAPI"><rect fill="#F1F1F1" height="62.5938" rx="2.5" ry="2.5" style="stroke:#181818;stroke-width:0.5;" width="269.209" x="326.4" y="291.5275"/><rect fill="#F1F1F1" height="10" style="stroke:#181818;stroke-width:0.5;" width="15" x="575.609" y="296.5275"/><rect fill="#F1F1F1" height="2" style="stroke:#181818;stroke-width:0.5;" width="4" x="573.609" y="298.5275"/><rect fill="#F1F1F1" height="2" style="stroke:#181818;stroke-width:0.5;" width="4" x="573.609" y="302.5275"/><text fill="#000000" font-family="sans-serif" font-size="14" font-style="italic" lengthAdjust="spacing" textLength="76.6719" x="341.4" y="324.5226">Beheer API</text><text fill="#000000" font-family="sans-serif" font-size="14" lengthAdjust="spacing" textLength="229.209" x="341.4" y="340.8195">OC Next Cloud App (Conduction)</text></g><!--entity elastic--><g id="elem_elastic"><path d="M67.2,483.1275 C67.2,473.1275 156.9993,473.1275 156.9993,473.1275 C156.9993,473.1275 246.7986,473.1275 246.7986,483.1275 L246.7986,524.7212 C246.7986,534.7212 156.9993,534.7212 156.9993,534.7212 C156.9993,534.7212 67.2,534.7212 67.2,524.7212 L67.2,483.1275 " fill="#F1F1F1" style="stroke:#181818;stroke-width:0.5;"/><path d="M67.2,483.1275 C67.2,493.1275 156.9993,493.1275 156.9993,493.1275 C156.9993,493.1275 246.7986,493.1275 246.7986,483.1275 " fill="#FFFFFF" fill-opacity="0.00000" style="stroke:#181818;stroke-width:0.5;"/><text fill="#000000" font-family="sans-serif" font-size="14" font-style="italic" lengthAdjust="spacing" textLength="77.875" x="77.2" y="510.1226">Zoek index</text><text fill="#000000" font-family="sans-serif" font-size="14" lengthAdjust="spacing" textLength="159.5986" x="77.2" y="526.4195">Elastic Search (Elastic)</text></g><!--entity ORC--><g id="elem_ORC"><path d="M479.11,483.1275 C479.11,473.1275 583.0016,473.1275 583.0016,473.1275 C583.0016,473.1275 686.8932,473.1275 686.8932,483.1275 L686.8932,524.7212 C686.8932,534.7212 583.0016,534.7212 583.0016,534.7212 C583.0016,534.7212 479.11,534.7212 479.11,524.7212 L479.11,483.1275 " fill="#F1F1F1" style="stroke:#181818;stroke-width:0.5;"/><path d="M479.11,483.1275 C479.11,493.1275 583.0016,493.1275 583.0016,493.1275 C583.0016,493.1275 686.8932,493.1275 686.8932,483.1275 " fill="#FFFFFF" fill-opacity="0.00000" style="stroke:#181818;stroke-width:0.5;"/><text fill="#000000" font-family="sans-serif" font-size="14" font-style="italic" lengthAdjust="spacing" textLength="113.6338" x="489.11" y="510.1226">Objecten opslag</text><text fill="#000000" font-family="sans-serif" font-size="14" lengthAdjust="spacing" textLength="187.7832" x="489.11" y="526.4195">Overige Objecten (Maykin)</text></g><!--entity DMS--><g id="elem_DMS"><path d="M282.06,483.1275 C282.06,473.1275 363.0034,473.1275 363.0034,473.1275 C363.0034,473.1275 443.9467,473.1275 443.9467,483.1275 L443.9467,524.7212 C443.9467,534.7212 363.0034,534.7212 363.0034,534.7212 C363.0034,534.7212 282.06,534.7212 282.06,524.7212 L282.06,483.1275 " fill="#F1F1F1" style="stroke:#181818;stroke-width:0.5;"/><path d="M282.06,483.1275 C282.06,493.1275 363.0034,493.1275 363.0034,493.1275 C363.0034,493.1275 443.9467,493.1275 443.9467,483.1275 " fill="#FFFFFF" fill-opacity="0.00000" style="stroke:#181818;stroke-width:0.5;"/><text fill="#000000" font-family="sans-serif" font-size="14" font-style="italic" lengthAdjust="spacing" textLength="31.7461" x="292.06" y="510.1226">DMS</text><text fill="#000000" font-family="sans-serif" font-size="14" lengthAdjust="spacing" textLength="141.8867" x="292.06" y="526.4195">Open Zaak (Maykin)</text></g><!--link adminUI to beheerAPI--><g id="link_adminUI_beheerAPI"><path d="M456.02,172.6975 C457.12,205.7275 458.6688,252.1309 459.7788,285.2109 " fill="#FFFFFF" fill-opacity="0.00000" id="adminUI-to-beheerAPI" style="stroke:#181818;stroke-width:1;stroke-dasharray:7.0,7.0;"/><polygon fill="#181818" points="459.98,291.2075,463.6759,282.0784,459.8123,286.2103,455.6804,282.3467,459.98,291.2075" style="stroke:#181818;stroke-width:1;"/><text fill="#000000" font-family="sans-serif" font-size="13" lengthAdjust="spacing" textLength="53.041" x="458" y="217.5944">Opslaan</text></g><!--reverse link userUi to searchAPI--><g id="link_userUi_searchAPI"><path d="M170.554,178.6707 C167.424,211.7007 163.03,258.1275 159.9,291.2075 " fill="#FFFFFF" fill-opacity="0.00000" id="userUi-backto-searchAPI" style="stroke:#181818;stroke-width:1;stroke-dasharray:7.0,7.0;"/><polygon fill="#181818" points="171.12,172.6975,166.2888,181.28,170.6483,177.6752,174.2531,182.0347,171.12,172.6975" style="stroke:#181818;stroke-width:1;"/><text fill="#000000" font-family="sans-serif" font-size="13" lengthAdjust="spacing" textLength="65.0254" x="170" y="217.5944">Opzoeken</text></g><!--link beheerAPI to ORC--><g id="link_beheerAPI_ORC"><path d="M481.97,354.6175 C504.52,387.7175 536.7625,435.0484 559.1225,467.8784 " fill="#FFFFFF" fill-opacity="0.00000" id="beheerAPI-to-ORC" style="stroke:#181818;stroke-width:1;stroke-dasharray:7.0,7.0;"/><polygon fill="#181818" points="562.5,472.8375,560.7397,463.1472,559.6854,468.705,554.1277,467.6506,562.5,472.8375" style="stroke:#181818;stroke-width:1;"/><text fill="#000000" font-family="sans-serif" font-size="13" lengthAdjust="spacing" textLength="53.041" x="515" y="399.1944">Opslaan</text></g><!--link beheerAPI to DMS--><g id="link_beheerAPI_DMS"><path d="M442.41,354.3675 C436.42,364.4175 429.82,375.6875 424,386.1275 C407.74,415.2975 392.9011,443.83 380.8211,467.57 " fill="#FFFFFF" fill-opacity="0.00000" id="beheerAPI-to-DMS" style="stroke:#181818;stroke-width:1;stroke-dasharray:7.0,7.0;"/><polygon fill="#181818" points="378.1,472.9175,385.7466,466.7103,380.3675,468.4612,378.6166,463.0822,378.1,472.9175" style="stroke:#181818;stroke-width:1;"/><text fill="#000000" font-family="sans-serif" font-size="13" lengthAdjust="spacing" textLength="53.041" x="425" y="399.1944">Opslaan</text></g><!--reverse link searchAPI to elastic--><g id="link_searchAPI_elastic"><path d="M157,360.6175 C157,393.7175 157,440.0075 157,472.8375 " fill="#FFFFFF" fill-opacity="0.00000" id="searchAPI-backto-elastic" style="stroke:#181818;stroke-width:1;stroke-dasharray:7.0,7.0;"/><polygon fill="#181818" points="157,354.6175,153,363.6175,157,359.6175,161,363.6175,157,354.6175" style="stroke:#181818;stroke-width:1;"/><text fill="#000000" font-family="sans-serif" font-size="13" lengthAdjust="spacing" textLength="48.623" x="158" y="399.1944">Zoeken</text></g><!--link ORC to elastic--><g id="link_ORC_elastic"><path d="M553.74,472.7875 C530.88,450.8675 497.04,423.3475 461,411.1275 C378.51,383.1375 346.39,380.0675 265,411.1275 C231.97,423.7275 206.184,446.7751 186.294,468.5751 " fill="#FFFFFF" fill-opacity="0.00000" id="ORC-to-elastic" style="stroke:#181818;stroke-width:1;stroke-dasharray:7.0,7.0;"/><polygon fill="#181818" points="182.25,473.0075,191.2709,469.055,185.62,469.3139,185.3611,463.6629,182.25,473.0075" style="stroke:#181818;stroke-width:1;"/><text fill="#000000" font-family="sans-serif" font-size="13" lengthAdjust="spacing" textLength="55.3198" x="289.5" y="399.1944">Updaten</text></g><text fill="#888888" font-family="sans-serif" font-size="10" lengthAdjust="spacing" textLength="144.0625" x="275.9688" y="565.9997">Open Catalogi | Components</text><!--SRC=[ZL8zJyCm4DtzAqvCwT8899OA8PN0K8cIYgf2AZ1SacjZajfMua0BzBzpJgA4KePkjj_7lRkpbJQd4OI650HeCTThALPQMoh-lC8t17fZj29bIv4I9exIFJ5pYhQGMo64mJZ3DS7PFUweW4lm91CAZAsamHby2NZs_LaLvJ96VWAJertfOkFxBoeCu8aY61i3Ng1LKh58gy4hO0bLISL2rkeRIecj9yvtXJ6rqWVQMWXoNIN_Es2oaMen4VlZb1VWeP5TlAMcZ7iQpoOdMfU4HPmo_tU-q-LHBN3o_L6qS_0ItaATpHqYB1bhCe9K2MrTaRiSIojZcDT1m6llh69xQYu7yZ1wezWjJfiontKTz9qAoOKxo9lYBfEgCGaVWmE3s-cy5hbliaJC3jcCkbxQaSCmqHzgUDqtwluNrqKbcht2LKFf9-aOd_KUHAVgV3XCxt0CS_KUxXox6kqyHj3iMR0R3BdrrBAs0nU6soNr0m00]--></g></svg>