<svg xmlns="http://www.w3.org/2000/svg" xmlns:xlink="http://www.w3.org/1999/xlink" contentStyleType="text/css" data-diagram-type="DESCRIPTION" height="1027px" preserveAspectRatio="none" style="width:1213px;height:1027px;background:#FFFFFF;" version="1.1" viewBox="0 0 1213 1027" width="1213px" zoomAndPan="magnify"><title>Components</title><defs/><g><text fill="#888888" font-family="sans-serif" font-size="10" lengthAdjust="spacing" textLength="144.0625" x="1055.1663" y="9.2822">Open Catalogi | Components</text><text fill="#000000" font-family="sans-serif" font-size="14" font-weight="bold" lengthAdjust="spacing" textLength="98.5742" x="550.3273" y="35.6357">Components</text><!--cluster Identity & Access--><g id="cluster_Identity &amp; Access"><path d="M962.3807,832.9099 C965.5064,828.3198 969.2378,829.3636 971.8497,833.4693 C974.4786,826.4634 980.5132,826.3763 984.7833,831.7554 C987.4214,827.2086 991.8258,825.997 995.1252,831.0423 C999.0855,825.2455 1003.4489,826.2381 1006.7078,831.7602 C1009.6279,826.3935 1013.7682,826.627 1017.4294,830.9393 C1020.2642,824.285 1026.8098,824.0703 1030.5454,830.0005 C1034.1649,824.817 1037.9574,826.0939 1041.0641,830.5595 C1044.6661,825.1715 1049.0438,825.3876 1052.0959,831.1057 C1056.1323,825.8119 1060.8708,825.6424 1064.7619,831.2741 C1068.1483,827.6033 1072.718,827.8435 1074.7114,832.868 C1078.3462,826.6843 1084.3911,827.7558 1087.7986,833.1254 C1091.689,828.1829 1096.1166,829.6983 1098.6727,834.5993 C1104.6929,838.3794 1103.5893,844.3997 1098.1495,847.7229 C1103.7088,850.8613 1104.7839,857.2067 1098.844,860.949 C1105.7927,864.3259 1106.6321,870.4379 1100.529,875.3427 C1106.5814,879.4549 1105.6673,884.8273 1099.1714,887.5432 C1106.6149,891.5831 1105.3388,896.5997 1099.6076,901.0645 C1104.8463,906.3436 1104.6118,910.3399 1097.9253,914.0773 C1095.3224,920.8025 1091.1525,920.8707 1086.5428,916.0568 C1082.869,921.4935 1078.7639,922.3086 1074.8814,916.2688 C1071.9836,922.5052 1068.5544,922.1857 1064.248,917.6607 C1061.4749,925.1137 1057.3937,924.2225 1052.1824,920.2313 C1048.4637,924.9117 1044.7923,924.18 1041.7925,919.4385 C1040.0593,925.7155 1035.652,926.3193 1031.0101,922.5649 C1025.5422,928.5712 1020.3469,926.3651 1018.1377,919.3448 C1014.068,924.9048 1010.6442,923.4392 1007.2529,918.6325 C1003.7428,923.702 999.2867,924.5483 995.6627,918.754 C991.481,923.7678 985.9062,922.8895 983.7984,916.5808 C979.9354,921.953 974.5806,922.0915 971.9619,915.3637 C968.6401,919.7149 965.2653,920.8832 961.5018,915.8563 C953.5211,912.1226 954.111,906.3261 960.5928,901.6659 C954.6437,898.1834 953.2262,892.2892 960.249,888.4687 C952.4904,885.0504 952.3805,878.6224 958.53,873.5966 C952.5568,868.7319 954.6838,864.3403 960.4981,861.3736 C954.9534,856.4859 955.2888,851.429 961.2414,847.1417 C955.2836,842.7136 955.3714,836.2999 962.3807,832.9099 " fill="#FFFFFF" fill-opacity="0.00000" style="stroke:#181818;stroke-width:1;"/><text fill="#000000" font-family="sans-serif" font-size="14" font-weight="bold" lengthAdjust="spacing" textLength="137.5527" x="960.0436" y="850.6063">Identity &amp; Access</text></g><!--cluster Gebruikers--><g id="cluster_Gebruikers"><path d="M129.0818,106.4703 C133.6217,96.9877 142.7816,95.9996 149.1283,104.4506 C154.7159,94.2643 162.2841,95.56 168.8587,103.3684 C174.727,95.2222 182.8569,93.972 188.4048,103.7184 C195.9252,93.7863 202.9028,95.8619 209.5818,104.6693 C213.8652,94.5584 221.3251,94.0112 227.7543,102.5819 C234.5976,92.2588 240.6101,92.6533 247.6404,102.3966 C253.6366,94.7572 260.5169,94.3704 265.1087,103.8312 C271.6797,95.3371 277.5377,93.4566 284.4064,103.5217 C290.7728,94.9666 299.9718,94.9689 305.1546,104.8534 C310.0986,94.5028 316.5491,93.742 323.6456,102.803 C331.0644,94.9129 337.2794,94.5045 342.5227,105.0326 C346.5892,93.7929 356.6505,94.1242 363.1066,102.5287 C370.2698,94.2687 378.253,95.349 383.6552,104.5957 C393.3052,94.6657 402.4109,97.7618 407.32,109.7212 C408.5006,108.4979 409.7998,109.2525 410.1217,110.642 C423.0739,119.5951 421.1925,129.0152 408.7389,136.6158 C420.8862,143.6167 419.7213,153.7279 409.7675,161.6373 C419.332,169.1696 419.412,177.4129 408.6608,183.937 C421.8402,197.8449 415.871,208.0787 400.32,214.0212 C402.4279,214.8869 402.7336,216.003 401.2205,217.7446 C396.2143,228.3225 387.6652,226.5587 381.4965,219.0094 C377.207,227.0868 369.0222,227.7151 364.2314,219.542 C357.6866,229.7148 348.0256,230.1289 342.483,218.5404 C337.6688,227.2881 331.7807,229.5769 324.7788,220.7435 C320.883,232.7934 310.3582,232.4731 303.2033,224.2043 C297.5045,230.9674 292.4662,232.7262 286.9428,224.02 C281.6992,233.2511 274.8418,235.3965 268.0538,225.5489 C261.4903,237.6492 252.9824,235.6841 246.1642,225.8025 C239.33,233.4818 231.4299,232.1742 228.5573,221.9142 C221.9718,231.3498 215.1688,230.9407 209.3497,221.1486 C202.7878,230.0002 195.201,231.294 188.1207,221.7467 C180.9995,231.7511 173.188,231.6263 167.2595,220.5655 C160.7942,228.8409 155.4658,226.915 150.623,218.9076 C134.8552,228.5099 126.5344,223.4357 121.32,207.0212 C121.7541,207.0014 121.9109,207.3114 121.7243,207.6752 C110.3714,202.8568 106.9463,195.2177 116.6045,185.5395 C104.7683,180.8777 104.2493,169.9931 112.6083,161.9152 C100.1281,151.6196 102.5454,141.1282 117.5411,136.0784 C103.1815,122.1135 111.4183,106.5845 128.32,102.7212 C130.5672,103.4221 130.4278,105.0394 129.0818,106.4703 " fill="#FFFFFF" fill-opacity="0.00000" style="stroke:#181818;stroke-width:1;"/><text fill="#000000" font-family="sans-serif" font-size="14" font-weight="bold" lengthAdjust="spacing" textLength="86.7207" x="220.9596" y="120.7163">Gebruikers</text></g><!--cluster Externe Applicaties--><g id="cluster_Externe Applicaties"><path d="M666.1608,81.4254 C677.7724,62.4994 689.8339,65.6104 702.5086,80.2751 C710.899,64.7881 720.6533,61.8399 734.2586,74.3643 C749.9499,56.3858 765.0887,56.4081 775.72,79.4756 C786.9132,60.3586 798.513,58.8491 811.9886,77.2703 C821.2522,58.4414 837.0466,57.381 849.705,73.619 C861.4041,59.8178 877.572,60.5908 886.1014,77.3892 C894.6597,60.8598 911.7512,60.936 921.3044,76.2907 C933.154,59.3782 944.2762,60.3361 956.3726,76.0252 C966.9793,57.4886 980.324,57.601 990.9807,75.9783 C1004.3518,57.4246 1021.7239,56.1407 1031.5816,79.3907 C1038.3381,62.2284 1052.1208,59.2743 1063.594,74.7668 C1074.7861,55.9375 1089.2119,57.7874 1099.4085,75.7362 C1109.3829,56.1075 1127.0407,56.576 1136.2336,76.4644 C1150.0439,58.3354 1168.7051,59.2436 1177.32,81.7212 C1179.3442,79.848 1181.8218,80.6559 1182.3329,83.3735 C1199.0208,90.6394 1202.1861,105.809 1186.1618,116.8198 C1200.6574,126.0167 1203.4392,142.0404 1187.1734,152.1188 C1204.7703,161.1906 1206.2288,177.9814 1187.3112,187.1967 C1197.4358,207.2836 1195.4691,219.6643 1170.32,223.0212 C1172.1795,222.2021 1173.6903,223.2831 1173.5063,225.3094 C1167.0229,244.0006 1149.8992,244.7535 1138.1152,231.1113 C1125.5755,246.9225 1114.4202,246.8726 1104.0809,228.8949 C1091.5388,252.4466 1076.5135,250.6272 1061.4083,231.4548 C1049.5852,246.9053 1039.0151,248.6637 1027.8881,230.7554 C1019.6101,248.1793 1003.9915,248.4479 993.5348,233.0347 C984.3809,249.6083 965.9118,252.7191 954.4931,235.6641 C945.4747,255.1942 927.2158,252.4818 917.9425,235.9223 C905.8416,253.8027 890.7409,252.0626 879.4859,234.9915 C870.8836,250.2988 853.6334,252.5558 844.8013,235.2357 C833.8522,250.683 821.0688,251.8678 809.7406,235.6555 C797.3404,250.4396 783.3945,252.0649 773.7547,232.7429 C761.9045,249.7237 748.4417,245.6545 739.7011,229.5429 C725.1205,250.4949 712.0355,245.252 699.1365,227.7681 C681.1212,247.3183 661.1066,239.3102 654.32,216.0212 C657.7951,215.9469 659.4911,218.0101 658.2115,221.3853 C620.2445,202.6112 621.2606,174.8779 653.6572,151.5172 C624.3323,124.6497 623.4454,94.8834 661.32,74.7212 C665.6693,74.5513 668.3205,76.8955 666.1608,81.4254 " fill="#FFFFFF" fill-opacity="0.00000" style="stroke:#181818;stroke-width:1;"/><text fill="#000000" font-family="sans-serif" font-size="14" font-weight="bold" lengthAdjust="spacing" textLength="153.5625" x="839.0387" y="92.7163">Externe Applicaties</text></g><!--cluster Bronnen--><g id="cluster_Bronnen"><path d="M672.82,109.7212 L740.4089,109.7212 A3.75,3.75 0 0 1 742.9089,112.2212 L749.9089,132.018 L934.82,132.018 A2.5,2.5 0 0 1 937.32,134.518 L937.32,204.5212 A2.5,2.5 0 0 1 934.82,207.0212 L672.82,207.0212 A2.5,2.5 0 0 1 670.32,204.5212 L670.32,112.2212 A2.5,2.5 0 0 1 672.82,109.7212 " fill="#FFFFFF" fill-opacity="0.00000" style="stroke:#000000;stroke-width:1.5;"/><line style="stroke:#000000;stroke-width:1.5;" x1="670.32" x2="749.9089" y1="132.018" y2="132.018"/><text fill="#000000" font-family="sans-serif" font-size="14" font-weight="bold" lengthAdjust="spacing" textLength="66.5889" x="674.32" y="124.7163">Bronnen</text></g><!--cluster Catalogi--><g id="cluster_Catalogi"><path d="M963.82,109.7212 L1029.9186,109.7212 A3.75,3.75 0 0 1 1032.4186,112.2212 L1039.4186,132.018 L1158.82,132.018 A2.5,2.5 0 0 1 1161.32,134.518 L1161.32,204.5212 A2.5,2.5 0 0 1 1158.82,207.0212 L963.82,207.0212 A2.5,2.5 0 0 1 961.32,204.5212 L961.32,112.2212 A2.5,2.5 0 0 1 963.82,109.7212 " fill="#FFFFFF" fill-opacity="0.00000" style="stroke:#000000;stroke-width:1.5;"/><line style="stroke:#000000;stroke-width:1.5;" x1="961.32" x2="1039.4186" y1="132.018" y2="132.018"/><text fill="#000000" font-family="sans-serif" font-size="14" font-weight="bold" lengthAdjust="spacing" textLength="65.0986" x="965.32" y="124.7163">Catalogi</text></g><!--cluster Kubernetes--><g id="cluster_Kubernetes"><path d="M231.0946,290.897 C244.345,265.7984 265.0354,268.6024 277.6777,291.4874 C291.3101,271.0527 310.7875,268.849 325.1371,290.6821 C337.9467,267.4802 359.7905,262.8856 376.4305,286.4841 C392.3154,263.166 411.59,262.8762 424.1706,289.6342 C439.0776,264.6526 459.4481,255.6886 479.6743,284.1051 C491.3824,259.1703 513.6587,263.1749 525.4877,283.9841 C540.3716,262.3124 558.5169,260.6925 573.3958,283.9894 C585.7271,256.9674 606.4787,257.6618 621.5491,281.3904 C639.5956,261.0341 657.1384,264.8611 670.1356,287.1439 C685.2174,265.3209 703.8337,260.9811 721.2229,284.5468 C739.9375,260.3022 762.8439,262.3516 774.8211,291.3315 C786.8177,273.6174 807.356,270.1031 818.6686,292.0868 C832.6096,263.8291 858.5346,267.8118 872.2628,292.3031 C886.5747,269.4923 908.4692,274.3179 920.32,295.0212 C924.9457,296.1486 926.5296,298.8034 923.9275,303.1417 C945.9945,313.3682 950.1151,334.1082 927.1228,347.575 C946.6254,362.989 947.7375,380.9031 923.2181,392.49 C947.3751,401.7071 952.3044,423.1117 931.7033,440.2762 C951.0784,453.4816 949.1227,471.536 930.8174,483.9775 C955.1461,502.3124 955.5264,520.8775 926.3805,534.5179 C949.0381,548.5613 953.3423,562.0092 930.53,580.1843 C948.0975,592.789 949.4493,614.9192 927.7513,625.0944 C956.7143,637.4849 955.853,664.4882 932.1282,681.0034 C948.022,696.1671 950.2587,713.3704 927.2476,724.1315 C951.2051,735.4478 956.09,758.705 932.4064,774.8657 C951.3223,788.283 948.8388,806.1148 928.2941,815.5429 C946.2736,828.7857 947.7093,851.3108 924.5555,861.1843 C947.4921,875.6017 944.9613,892.206 926.2045,908.0891 C947.2498,930.405 943.4569,951.8478 913.32,961.9112 C918.436,962.7493 920.8362,964.6742 918.053,970.0858 C900.9558,996.9244 875.3028,990.6567 864.8943,963.5006 C852.2004,986.6037 834.6909,988.9366 817.0575,968.9892 C801.7695,994.4844 782.0883,991.1384 768.3679,967.4377 C756.197,986.414 734.0489,989.9545 722.1483,967.1389 C710.5893,995.5554 686.8654,995.5717 671.602,970.6495 C659.0368,991.6931 641.3447,994.821 624.6648,975.4252 C602.676,1001.9509 586.3622,998.4725 571.0003,969.0669 C563.5331,993.3244 542.9122,994.2926 528.9101,975.4485 C513.3981,999.5267 494.5031,1000.9363 479.4249,975.0192 C460.8359,1001.0587 441.407,1001.296 423.6065,974.1911 C408.2296,993.791 386.6534,991.0828 378.4077,966.8394 C361.0627,992.0949 344.4706,992.6415 324.4632,969.8272 C308.6248,989.6071 291.4646,992.5781 277.7,967.6577 C252.3339,988.66 232.8701,984.2955 218.32,954.9112 C221.2298,951.4127 223.8003,952.1502 225.7532,955.8933 C204.9744,941.064 206.9837,923.7208 226.1058,909.1927 C203.3166,897.5642 205.5229,878.9672 223.8634,865.2404 C202.8875,851.4938 198.3588,831.5779 222.7871,816.8221 C201.8489,803.6754 197.0984,779.7488 223.6974,767.479 C202.5787,758.0112 201.1268,744.3961 216.2362,728.0694 C190.5655,710.4974 194.4229,689.5903 218.6639,674.2706 C199.0695,662.4985 197.1936,646.7371 214.387,631.3032 C192.5301,612.2104 199.2129,597.8909 220.9162,584.9315 C195.1002,570.8084 188.8558,551.9286 215.374,532.2952 C196.3559,513.8875 197.4884,497.1724 221.6003,484.3677 C201.0412,473.1236 194.3264,455.2409 217.0092,439.5655 C198.7459,423.4251 201.6632,402.78 225.5993,394.7235 C199.4025,379.2948 203.5133,361.2834 223.3361,343.809 C200.4608,325.2848 195.2878,304.6638 225.32,288.0212 C228.4681,285.9687 230.7186,287.3833 231.0946,290.897 " fill="#FFFFFF" fill-opacity="0.00000" style="stroke:#181818;stroke-width:1;"/><text fill="#000000" font-family="sans-serif" font-size="14" font-weight="bold" lengthAdjust="spacing" textLength="91.2188" x="523.7106" y="306.0163">Kubernetes</text></g><!--cluster Layer 5 (Interaction)--><g id="cluster_Layer 5 (Interaction)"><path d="M236.82,323.0212 L401.0895,323.0212 A3.75,3.75 0 0 1 403.5895,325.5212 L410.5895,345.318 L588.82,345.318 A2.5,2.5 0 0 1 591.32,347.818 L591.32,484.8212 A2.5,2.5 0 0 1 588.82,487.3212 L236.82,487.3212 A2.5,2.5 0 0 1 234.32,484.8212 L234.32,325.5212 A2.5,2.5 0 0 1 236.82,323.0212 " fill="#FFFFFF" fill-opacity="0.00000" style="stroke:#000000;stroke-width:1.5;"/><line style="stroke:#000000;stroke-width:1.5;" x1="234.32" x2="410.5895" y1="345.318" y2="345.318"/><text fill="#000000" font-family="sans-serif" font-size="14" font-weight="bold" lengthAdjust="spacing" textLength="163.2695" x="238.32" y="338.0163">Layer 5 (Interaction)</text></g><!--cluster React NL Design--><g id="cluster_React NL Design"><path d="M260.82,366.0212 L391.1559,366.0212 A3.75,3.75 0 0 1 393.6559,368.5212 L400.6559,388.318 L400.82,388.318 A2.5,2.5 0 0 1 403.32,390.818 L403.32,460.8212 A2.5,2.5 0 0 1 400.82,463.3212 L260.82,463.3212 A2.5,2.5 0 0 1 258.32,460.8212 L258.32,368.5212 A2.5,2.5 0 0 1 260.82,366.0212 " fill="#FFFFFF" fill-opacity="0.00000" style="stroke:#000000;stroke-width:1.5;"/><line style="stroke:#000000;stroke-width:1.5;" x1="258.32" x2="400.6559" y1="388.318" y2="388.318"/><text fill="#000000" font-family="sans-serif" font-size="14" font-weight="bold" lengthAdjust="spacing" textLength="129.3359" x="262.32" y="381.0163">React NL Design</text></g><!--cluster Vue NL Design--><g id="cluster_Vue NL Design"><path d="M429.82,366.0212 L545.7389,366.0212 A3.75,3.75 0 0 1 548.2389,368.5212 L555.2389,388.318 L564.82,388.318 A2.5,2.5 0 0 1 567.32,390.818 L567.32,460.8212 A2.5,2.5 0 0 1 564.82,463.3212 L429.82,463.3212 A2.5,2.5 0 0 1 427.32,460.8212 L427.32,368.5212 A2.5,2.5 0 0 1 429.82,366.0212 " fill="#FFFFFF" fill-opacity="0.00000" style="stroke:#000000;stroke-width:1.5;"/><line style="stroke:#000000;stroke-width:1.5;" x1="427.32" x2="555.2389" y1="388.318" y2="388.318"/><text fill="#000000" font-family="sans-serif" font-size="14" font-weight="bold" lengthAdjust="spacing" textLength="114.9189" x="431.32" y="381.0163">Vue NL Design</text></g><!--cluster layer4--><g id="cluster_layer4"><path d="M664.82,366.0212 L783.6579,366.0212 A3.75,3.75 0 0 1 786.1579,368.5212 L793.1579,388.318 L841.82,388.318 A2.5,2.5 0 0 1 844.32,390.818 L844.32,460.8212 A2.5,2.5 0 0 1 841.82,463.3212 L664.82,463.3212 A2.5,2.5 0 0 1 662.32,460.8212 L662.32,368.5212 A2.5,2.5 0 0 1 664.82,366.0212 " fill="#FFFFFF" fill-opacity="0.00000" style="stroke:#000000;stroke-width:1.5;"/><line style="stroke:#000000;stroke-width:1.5;" x1="662.32" x2="793.1579" y1="388.318" y2="388.318"/><text fill="#000000" font-family="sans-serif" font-size="14" font-weight="bold" lengthAdjust="spacing" textLength="117.8379" x="666.32" y="381.0163">Layer 4 (Logic)</text></g><!--cluster layer2--><g id="cluster_layer2"><path d="M414.82,544.3212 L518.3044,544.3212 A3.75,3.75 0 0 1 520.8044,546.8212 L527.8044,566.618 L803.82,566.618 A2.5,2.5 0 0 1 806.32,569.118 L806.32,722.1112 A2.5,2.5 0 0 1 803.82,724.6112 L414.82,724.6112 A2.5,2.5 0 0 1 412.32,722.1112 L412.32,546.8212 A2.5,2.5 0 0 1 414.82,544.3212 " fill="#FFFFFF" fill-opacity="0.00000" style="stroke:#000000;stroke-width:1.5;"/><line style="stroke:#000000;stroke-width:1.5;" x1="412.32" x2="527.8044" y1="566.618" y2="566.618"/><text fill="#000000" font-family="sans-serif" font-size="14" font-weight="bold" lengthAdjust="spacing" textLength="102.4844" x="416.32" y="559.3163">Layer 2 (API)</text></g><!--cluster Open Index--><g id="cluster_Open Index"><path d="M446.82,595.3212 L537.8014,595.3212 A3.75,3.75 0 0 1 540.3014,597.8212 L547.3014,617.618 L591.82,617.618 A2.5,2.5 0 0 1 594.32,620.118 L594.32,690.1112 A2.5,2.5 0 0 1 591.82,692.6112 L446.82,692.6112 A2.5,2.5 0 0 1 444.32,690.1112 L444.32,597.8212 A2.5,2.5 0 0 1 446.82,595.3212 " fill="#FFFFFF" fill-opacity="0.00000" style="stroke:#000000;stroke-width:1.5;"/><line style="stroke:#000000;stroke-width:1.5;" x1="444.32" x2="547.3014" y1="617.618" y2="617.618"/><text fill="#000000" font-family="sans-serif" font-size="14" font-weight="bold" lengthAdjust="spacing" textLength="89.9814" x="448.32" y="610.3163">Open Index</text></g><!--cluster Open Registers--><g id="cluster_Open Registers"><path d="M620.82,595.3212 L742.9323,595.3212 A3.75,3.75 0 0 1 745.4323,597.8212 L752.4323,617.618 L763.82,617.618 A2.5,2.5 0 0 1 766.32,620.118 L766.32,690.1112 A2.5,2.5 0 0 1 763.82,692.6112 L620.82,692.6112 A2.5,2.5 0 0 1 618.32,690.1112 L618.32,597.8212 A2.5,2.5 0 0 1 620.82,595.3212 " fill="#FFFFFF" fill-opacity="0.00000" style="stroke:#000000;stroke-width:1.5;"/><line style="stroke:#000000;stroke-width:1.5;" x1="618.32" x2="752.4323" y1="617.618" y2="617.618"/><text fill="#000000" font-family="sans-serif" font-size="14" font-weight="bold" lengthAdjust="spacing" textLength="121.1123" x="622.32" y="610.3163">Open Registers</text></g><!--cluster Layer 1 (Data)--><g id="cluster_Layer 1 (Data)"><path d="M321.82,781.6112 L436.2077,781.6112 A3.75,3.75 0 0 1 438.7077,784.1112 L445.7077,803.908 L839.82,803.908 A2.5,2.5 0 0 1 842.32,806.408 L842.32,943.4112 A2.5,2.5 0 0 1 839.82,945.9112 L321.82,945.9112 A2.5,2.5 0 0 1 319.32,943.4112 L319.32,784.1112 A2.5,2.5 0 0 1 321.82,781.6112 " fill="#FFFFFF" fill-opacity="0.00000" style="stroke:#000000;stroke-width:1.5;"/><line style="stroke:#000000;stroke-width:1.5;" x1="319.32" x2="445.7077" y1="803.908" y2="803.908"/><text fill="#000000" font-family="sans-serif" font-size="14" font-weight="bold" lengthAdjust="spacing" textLength="113.3877" x="323.32" y="796.6063">Layer 1 (Data)</text></g><!--cluster Search Index--><g id="cluster_Search Index"><path d="M345.82,824.6112 L449.612,824.6112 A3.75,3.75 0 0 1 452.112,827.1112 L459.112,846.908 L510.82,846.908 A2.5,2.5 0 0 1 513.32,849.408 L513.32,919.4112 A2.5,2.5 0 0 1 510.82,921.9112 L345.82,921.9112 A2.5,2.5 0 0 1 343.32,919.4112 L343.32,827.1112 A2.5,2.5 0 0 1 345.82,824.6112 " fill="#FFFFFF" fill-opacity="0.00000" style="stroke:#000000;stroke-width:1.5;"/><line style="stroke:#000000;stroke-width:1.5;" x1="343.32" x2="459.112" y1="846.908" y2="846.908"/><text fill="#000000" font-family="sans-serif" font-size="14" font-weight="bold" lengthAdjust="spacing" textLength="102.792" x="347.32" y="839.6063">Search Index</text></g><!--cluster Object Store--><g id="cluster_Object Store"><path d="M539.82,824.6112 L639.695,824.6112 A3.75,3.75 0 0 1 642.195,827.1112 L649.195,846.908 L648.82,846.908 A2.5,2.5 0 0 1 651.32,849.408 L651.32,919.4112 A2.5,2.5 0 0 1 648.82,921.9112 L539.82,921.9112 A2.5,2.5 0 0 1 537.32,919.4112 L537.32,827.1112 A2.5,2.5 0 0 1 539.82,824.6112 " fill="#FFFFFF" fill-opacity="0.00000" style="stroke:#000000;stroke-width:1.5;"/><line style="stroke:#000000;stroke-width:1.5;" x1="537.32" x2="649.195" y1="846.908" y2="846.908"/><text fill="#000000" font-family="sans-serif" font-size="14" font-weight="bold" lengthAdjust="spacing" textLength="98.875" x="541.32" y="839.6063">Object Store</text></g><!--cluster Document Store--><g id="cluster_Document Store"><path d="M677.82,824.6112 L806.7341,824.6112 A3.75,3.75 0 0 1 809.2341,827.1112 L816.2341,846.908 L815.82,846.908 A2.5,2.5 0 0 1 818.32,849.408 L818.32,919.4112 A2.5,2.5 0 0 1 815.82,921.9112 L677.82,921.9112 A2.5,2.5 0 0 1 675.32,919.4112 L675.32,827.1112 A2.5,2.5 0 0 1 677.82,824.6112 " fill="#FFFFFF" fill-opacity="0.00000" style="stroke:#000000;stroke-width:1.5;"/><line style="stroke:#000000;stroke-width:1.5;" x1="675.32" x2="816.2341" y1="846.908" y2="846.908"/><text fill="#000000" font-family="sans-serif" font-size="14" font-weight="bold" lengthAdjust="spacing" textLength="127.9141" x="679.32" y="839.6063">Document Store</text></g><!--entity identity--><g id="elem_identity"><rect fill="#F1F1F1" height="46.2969" rx="2.5" ry="2.5" style="stroke:#181818;stroke-width:0.5;" width="77.2969" x="968.67" y="859.6112"/><rect fill="#F1F1F1" height="10" style="stroke:#181818;stroke-width:0.5;" width="15" x="1025.9669" y="864.6112"/><rect fill="#F1F1F1" height="2" style="stroke:#181818;stroke-width:0.5;" width="4" x="1023.9669" y="866.6112"/><rect fill="#F1F1F1" height="2" style="stroke:#181818;stroke-width:0.5;" width="4" x="1023.9669" y="870.6112"/><text fill="#000000" font-family="sans-serif" font-size="14" lengthAdjust="spacing" textLength="37.2969" x="983.67" y="892.6063">ADFS</text></g><!--entity burger--><g id="elem_burger"><ellipse cx="153.3246" cy="138.2212" fill="#F1F1F1" rx="8" ry="8" style="stroke:#181818;stroke-width:0.5;"/><path d="M153.3246,146.2212 L153.3246,173.2212 M140.3246,154.2212 L166.3246,154.2212 M153.3246,173.2212 L140.3246,188.2212 M153.3246,173.2212 L166.3246,188.2212 " fill="#FFFFFF" fill-opacity="0.00000" style="stroke:#181818;stroke-width:0.5;"/><text fill="#000000" font-family="sans-serif" font-size="14" lengthAdjust="spacing" textLength="47.4893" x="129.58" y="202.7163">Burger</text></g><!--entity medewerker--><g id="elem_medewerker"><ellipse cx="251.3256" cy="138.2212" fill="#F1F1F1" rx="8" ry="8" style="stroke:#181818;stroke-width:0.5;"/><path d="M251.3256,146.2212 L251.3256,173.2212 M238.3256,154.2212 L264.3256,154.2212 M251.3256,173.2212 L238.3256,188.2212 M251.3256,173.2212 L264.3256,188.2212 " fill="#FFFFFF" fill-opacity="0.00000" style="stroke:#181818;stroke-width:0.5;"/><text fill="#000000" font-family="sans-serif" font-size="14" lengthAdjust="spacing" textLength="77.9912" x="212.33" y="202.7163">Ambtenaar</text></g><!--entity adminUser--><g id="elem_adminUser"><ellipse cx="362.3246" cy="138.2212" fill="#F1F1F1" rx="8" ry="8" style="stroke:#181818;stroke-width:0.5;"/><path d="M362.3246,146.2212 L362.3246,173.2212 M349.3246,154.2212 L375.3246,154.2212 M362.3246,173.2212 L349.3246,188.2212 M362.3246,173.2212 L375.3246,188.2212 " fill="#FFFFFF" fill-opacity="0.00000" style="stroke:#181818;stroke-width:0.5;"/><text fill="#000000" font-family="sans-serif" font-size="14" lengthAdjust="spacing" textLength="73.3291" x="325.66" y="202.7163">Beheerder</text></g><!--entity ZGW--><g id="elem_ZGW"><rect fill="#F1F1F1" height="46.2969" rx="2.5" ry="2.5" style="stroke:#181818;stroke-width:0.5;" width="134.083" x="686.28" y="144.7212"/><rect fill="#F1F1F1" height="10" style="stroke:#181818;stroke-width:0.5;" width="15" x="800.363" y="149.7212"/><rect fill="#F1F1F1" height="2" style="stroke:#181818;stroke-width:0.5;" width="4" x="798.363" y="151.7212"/><rect fill="#F1F1F1" height="2" style="stroke:#181818;stroke-width:0.5;" width="4" x="798.363" y="155.7212"/><text fill="#000000" font-family="sans-serif" font-size="14" lengthAdjust="spacing" textLength="94.083" x="701.28" y="177.7163">Zaaksysteem</text></g><!--entity ETC--><g id="elem_ETC"><rect fill="#F1F1F1" height="46.2969" rx="2.5" ry="2.5" style="stroke:#181818;stroke-width:0.5;" width="66.4824" x="855.08" y="144.7212"/><rect fill="#F1F1F1" height="10" style="stroke:#181818;stroke-width:0.5;" width="15" x="901.5624" y="149.7212"/><rect fill="#F1F1F1" height="2" style="stroke:#181818;stroke-width:0.5;" width="4" x="899.5624" y="151.7212"/><rect fill="#F1F1F1" height="2" style="stroke:#181818;stroke-width:0.5;" width="4" x="899.5624" y="155.7212"/><text fill="#000000" font-family="sans-serif" font-size="14" lengthAdjust="spacing" textLength="26.4824" x="870.08" y="177.7163">Etc.</text></g><!--entity externalCatalogue--><g id="elem_externalCatalogue"><rect fill="#F1F1F1" height="46.2969" rx="2.5" ry="2.5" style="stroke:#181818;stroke-width:0.5;" width="168.8574" x="976.89" y="144.7212"/><rect fill="#F1F1F1" height="10" style="stroke:#181818;stroke-width:0.5;" width="15" x="1125.7474" y="149.7212"/><rect fill="#F1F1F1" height="2" style="stroke:#181818;stroke-width:0.5;" width="4" x="1123.7474" y="151.7212"/><rect fill="#F1F1F1" height="2" style="stroke:#181818;stroke-width:0.5;" width="4" x="1123.7474" y="155.7212"/><text fill="#000000" font-family="sans-serif" font-size="14" lengthAdjust="spacing" textLength="128.8574" x="991.89" y="177.7163">Externe Catalogus</text></g><!--entity ui--><g id="elem_ui"><rect fill="#F1F1F1" height="46.2969" rx="2.5" ry="2.5" style="stroke:#181818;stroke-width:0.5;" width="111.1895" x="274.73" y="401.0212"/><rect fill="#F1F1F1" height="10" style="stroke:#181818;stroke-width:0.5;" width="15" x="365.9195" y="406.0212"/><rect fill="#F1F1F1" height="2" style="stroke:#181818;stroke-width:0.5;" width="4" x="363.9195" y="408.0212"/><rect fill="#F1F1F1" height="2" style="stroke:#181818;stroke-width:0.5;" width="4" x="363.9195" y="412.0212"/><text fill="#000000" font-family="sans-serif" font-size="14" lengthAdjust="spacing" textLength="71.1895" x="289.73" y="434.0163">Zoeken UI</text></g><!--entity admin--><g id="elem_admin"><rect fill="#F1F1F1" height="46.2969" rx="2.5" ry="2.5" style="stroke:#181818;stroke-width:0.5;" width="108.8994" x="442.87" y="401.0212"/><rect fill="#F1F1F1" height="10" style="stroke:#181818;stroke-width:0.5;" width="15" x="531.7694" y="406.0212"/><rect fill="#F1F1F1" height="2" style="stroke:#181818;stroke-width:0.5;" width="4" x="529.7694" y="408.0212"/><rect fill="#F1F1F1" height="2" style="stroke:#181818;stroke-width:0.5;" width="4" x="529.7694" y="412.0212"/><text fill="#000000" font-family="sans-serif" font-size="14" lengthAdjust="spacing" textLength="68.8994" x="457.87" y="434.0163">Beheer UI</text></g><!--entity service--><g id="elem_service"><rect fill="#F1F1F1" height="46.2969" rx="2.5" ry="2.5" style="stroke:#181818;stroke-width:0.5;" width="150.8584" x="677.89" y="401.0212"/><rect fill="#F1F1F1" height="10" style="stroke:#181818;stroke-width:0.5;" width="15" x="808.7484" y="406.0212"/><rect fill="#F1F1F1" height="2" style="stroke:#181818;stroke-width:0.5;" width="4" x="806.7484" y="408.0212"/><rect fill="#F1F1F1" height="2" style="stroke:#181818;stroke-width:0.5;" width="4" x="806.7484" y="412.0212"/><text fill="#000000" font-family="sans-serif" font-size="14" lengthAdjust="spacing" textLength="110.8584" x="692.89" y="434.0163">Synchronisaties</text></g><!--entity SearchAPI--><g id="elem_SearchAPI"><rect fill="#F1F1F1" height="46.2969" rx="2.5" ry="2.5" style="stroke:#181818;stroke-width:0.5;" width="118.9619" x="459.84" y="630.3212"/><rect fill="#F1F1F1" height="10" style="stroke:#181818;stroke-width:0.5;" width="15" x="558.8019" y="635.3212"/><rect fill="#F1F1F1" height="2" style="stroke:#181818;stroke-width:0.5;" width="4" x="556.8019" y="637.3212"/><rect fill="#F1F1F1" height="2" style="stroke:#181818;stroke-width:0.5;" width="4" x="556.8019" y="641.3212"/><text fill="#000000" font-family="sans-serif" font-size="14" lengthAdjust="spacing" textLength="78.9619" x="474.84" y="663.3163">Zoeken API</text></g><!--entity ObjectsAPI--><g id="elem_ObjectsAPI"><rect fill="#F1F1F1" height="46.2969" rx="2.5" ry="2.5" style="stroke:#181818;stroke-width:0.5;" width="116.6719" x="633.99" y="630.3212"/><rect fill="#F1F1F1" height="10" style="stroke:#181818;stroke-width:0.5;" width="15" x="730.6619" y="635.3212"/><rect fill="#F1F1F1" height="2" style="stroke:#181818;stroke-width:0.5;" width="4" x="728.6619" y="637.3212"/><rect fill="#F1F1F1" height="2" style="stroke:#181818;stroke-width:0.5;" width="4" x="728.6619" y="641.3212"/><text fill="#000000" font-family="sans-serif" font-size="14" lengthAdjust="spacing" textLength="76.6719" x="648.99" y="663.3163">Beheer API</text></g><!--entity search--><g id="elem_search"><rect fill="#F1F1F1" height="46.2969" rx="2.5" ry="2.5" style="stroke:#181818;stroke-width:0.5;" width="138.54" x="359.05" y="859.6112"/><rect fill="#F1F1F1" height="10" style="stroke:#181818;stroke-width:0.5;" width="15" x="477.59" y="864.6112"/><rect fill="#F1F1F1" height="2" style="stroke:#181818;stroke-width:0.5;" width="4" x="475.59" y="866.6112"/><rect fill="#F1F1F1" height="2" style="stroke:#181818;stroke-width:0.5;" width="4" x="475.59" y="870.6112"/><text fill="#000000" font-family="sans-serif" font-size="14" lengthAdjust="spacing" textLength="98.54" x="374.05" y="892.6063">Elastic Search</text></g><!--entity db--><g id="elem_db"><rect fill="#F1F1F1" height="46.2969" rx="2.5" ry="2.5" style="stroke:#181818;stroke-width:0.5;" width="70.5225" x="565.06" y="859.6112"/><rect fill="#F1F1F1" height="10" style="stroke:#181818;stroke-width:0.5;" width="15" x="615.5825" y="864.6112"/><rect fill="#F1F1F1" height="2" style="stroke:#181818;stroke-width:0.5;" width="4" x="613.5825" y="866.6112"/><rect fill="#F1F1F1" height="2" style="stroke:#181818;stroke-width:0.5;" width="4" x="613.5825" y="870.6112"/><text fill="#000000" font-family="sans-serif" font-size="14" lengthAdjust="spacing" textLength="30.5225" x="580.06" y="892.6063">ORC</text></g><!--entity drc--><g id="elem_drc"><rect fill="#F1F1F1" height="46.2969" rx="2.5" ry="2.5" style="stroke:#181818;stroke-width:0.5;" width="70.2832" x="691.18" y="859.6112"/><rect fill="#F1F1F1" height="10" style="stroke:#181818;stroke-width:0.5;" width="15" x="741.4632" y="864.6112"/><rect fill="#F1F1F1" height="2" style="stroke:#181818;stroke-width:0.5;" width="4" x="739.4632" y="866.6112"/><rect fill="#F1F1F1" height="2" style="stroke:#181818;stroke-width:0.5;" width="4" x="739.4632" y="870.6112"/><text fill="#000000" font-family="sans-serif" font-size="14" lengthAdjust="spacing" textLength="30.2832" x="706.18" y="892.6063">DRC</text></g><!--link externalCatalogue to SearchAPI--><g id="link_externalCatalogue_SearchAPI"><path d="M1063.1763,197.4043 C1066.2363,261.4543 1064.8,439.1412 959.32,520.3212 C944.3,531.8712 635.3,519.8912 618.32,528.3212 C574.86,549.8812 547.0505,595.1082 532.2405,624.6282 " fill="#FFFFFF" fill-opacity="0.00000" id="externalCatalogue-SearchAPI" style="stroke:#181818;stroke-width:1;stroke-dasharray:7.0,7.0;"/><polygon fill="#181818" points="1062.89,191.4112,1059.324,200.5918,1063.1286,196.4055,1067.3149,200.21,1062.89,191.4112" style="stroke:#181818;stroke-width:1;"/><polygon fill="#181818" points="529.55,629.9912,537.1611,623.7405,531.7921,625.5221,530.0105,620.1531,529.55,629.9912" style="stroke:#181818;stroke-width:1;"/><text fill="#000000" font-family="sans-serif" font-size="13" lengthAdjust="spacing" textLength="124.3062" x="1062.32" y="428.7381">Search + Directory</text></g><!--link burger to ui--><g id="link_burger_ui"><path d="M123.4066,177.3598 C81.0366,190.4298 6,220.1312 32.32,264.0212 C84.8,351.5412 197.7947,392.1337 268.5247,410.1037 " fill="#FFFFFF" fill-opacity="0.00000" id="burger-ui" style="stroke:#181818;stroke-width:1;stroke-dasharray:7.0,7.0;"/><polygon fill="#181818" points="129.14,175.5912,119.3608,174.4218,124.3622,177.065,121.7189,182.0663,129.14,175.5912" style="stroke:#181818;stroke-width:1;"/><polygon fill="#181818" points="274.34,411.5812,266.6021,405.4882,269.494,410.35,264.6322,413.2418,274.34,411.5812" style="stroke:#181818;stroke-width:1;"/><text fill="#000000" font-family="sans-serif" font-size="13" lengthAdjust="spacing" textLength="204.5723" x="33.32" y="260.0881">Zoeken via browser (ANONIEM)</text></g><!--link medewerker to ui--><g id="link_medewerker_ui"><path d="M245.0335,212.378 C243.4735,230.088 243.8,245.3912 248.32,264.0212 C261.03,316.4312 290.8209,365.9296 310.8609,395.5896 " fill="#FFFFFF" fill-opacity="0.00000" id="medewerker-ui" style="stroke:#181818;stroke-width:1;stroke-dasharray:7.0,7.0;"/><polygon fill="#181818" points="245.56,206.4012,240.7857,215.0155,245.1213,211.3819,248.7549,215.7174,245.56,206.4012" style="stroke:#181818;stroke-width:1;"/><polygon fill="#181818" points="314.22,400.5612,312.4958,390.8644,311.4208,396.4182,305.867,395.3432,314.22,400.5612" style="stroke:#181818;stroke-width:1;"/><text fill="#000000" font-family="sans-serif" font-size="13" lengthAdjust="spacing" textLength="204.5723" x="249.32" y="260.0881">Zoeken via browser (ANONIEM)</text></g><!--link adminUser to admin--><g id="link_adminUser_admin"><path d="M403.9978,193.4061 C424.4878,207.1061 443.77,223.4212 458.32,247.0212 C488.5,295.9412 495.1921,359.2367 496.7121,394.5667 " fill="#FFFFFF" fill-opacity="0.00000" id="adminUser-admin" style="stroke:#181818;stroke-width:1;stroke-dasharray:7.0,7.0;"/><polygon fill="#181818" points="399.01,190.0712,404.2684,198.3988,403.1665,192.8503,408.715,191.7484,399.01,190.0712" style="stroke:#181818;stroke-width:1;"/><polygon fill="#181818" points="496.97,400.5612,500.5795,391.3975,496.7551,395.5658,492.5868,391.7414,496.97,400.5612" style="stroke:#181818;stroke-width:1;"/><text fill="#000000" font-family="sans-serif" font-size="13" lengthAdjust="spacing" textLength="214.5381" x="466.32" y="260.0881">Beheren via browser (JWT Claim)</text></g><!--link ui to SearchAPI--><g id="link_ui_SearchAPI"><path d="M289.2999,451.3143 C264.0199,470.0543 242.27,494.2012 258.32,520.3212 C302,591.3912 391.2449,624.2231 453.7849,639.6631 " fill="#FFFFFF" fill-opacity="0.00000" id="ui-SearchAPI" style="stroke:#181818;stroke-width:1;stroke-dasharray:7.0,7.0;"/><polygon fill="#181818" points="294.12,447.7412,284.5078,449.8874,290.1033,450.7187,289.272,456.3142,294.12,447.7412" style="stroke:#181818;stroke-width:1;"/><polygon fill="#181818" points="459.61,641.1012,451.8311,635.0606,454.7557,639.9027,449.9136,642.8274,459.61,641.1012" style="stroke:#181818;stroke-width:1;"/><text fill="#000000" font-family="sans-serif" font-size="13" lengthAdjust="spacing" textLength="124.3062" x="259.32" y="516.3881">Search + Directory</text></g><!--link admin to ObjectsAPI--><g id="link_admin_ObjectsAPI"><path d="M486.8925,453.2087 C480.1825,474.7087 476.5,501.0112 494.32,520.3212 C509.44,536.7012 574.66,517.8012 594.32,528.3212 C636.69,550.9812 664.2029,595.3268 679.0929,624.5068 " fill="#FFFFFF" fill-opacity="0.00000" id="admin-ObjectsAPI" style="stroke:#181818;stroke-width:1;stroke-dasharray:7.0,7.0;"/><polygon fill="#181818" points="488.68,447.4812,482.1803,454.8808,487.1904,452.2541,489.8171,457.2642,488.68,447.4812" style="stroke:#181818;stroke-width:1;"/><polygon fill="#181818" points="681.82,629.8512,681.2922,620.0165,679.5474,625.3975,674.1663,623.6527,681.82,629.8512" style="stroke:#181818;stroke-width:1;"/><text fill="#000000" font-family="sans-serif" font-size="13" lengthAdjust="spacing" textLength="223.5581" x="495.32" y="516.3881">Publicaties + Catalogi + Metadata</text></g><!--link ZGW to service--><g id="link_ZGW_service"><path d="M751.9572,197.435 C751.2472,213.035 750.68,228.2912 750.32,247.0212 C749.26,302.2212 750.9698,361.1552 752.1998,394.6452 " fill="#FFFFFF" fill-opacity="0.00000" id="ZGW-service" style="stroke:#181818;stroke-width:1;stroke-dasharray:7.0,7.0;"/><polygon fill="#181818" points="752.23,191.4412,747.8249,200.25,752.0027,196.436,755.8167,200.6137,752.23,191.4412" style="stroke:#181818;stroke-width:1;"/><polygon fill="#181818" points="752.42,400.6412,756.087,391.5004,752.2365,395.6445,748.0924,391.794,752.42,400.6412" style="stroke:#181818;stroke-width:1;"/><text fill="#000000" font-family="sans-serif" font-size="13" lengthAdjust="spacing" textLength="96.167" x="751.32" y="260.0881">Synchronisatie</text></g><!--link ETC to service--><g id="link_ETC_service"><path d="M879.3144,197.0038 C872.7844,216.6138 864.22,239.9512 852.32,264.0212 C827.16,314.9212 793.7212,365.4521 772.8012,395.5921 " fill="#FFFFFF" fill-opacity="0.00000" id="ETC-service" style="stroke:#181818;stroke-width:1;stroke-dasharray:7.0,7.0;"/><polygon fill="#181818" points="881.21,191.3112,874.5714,198.5864,879.6303,196.0551,882.1617,201.1139,881.21,191.3112" style="stroke:#181818;stroke-width:1;"/><polygon fill="#181818" points="769.38,400.5212,777.7978,395.4084,772.231,396.4136,771.2258,390.8468,769.38,400.5212" style="stroke:#181818;stroke-width:1;"/><text fill="#000000" font-family="sans-serif" font-size="13" lengthAdjust="spacing" textLength="96.167" x="860.32" y="260.0881">Synchronisatie</text></g><!--link ObjectsAPI to db--><g id="link_ObjectsAPI_db"><path d="M682.94,676.8812 C674.98,695.9312 663.31,724.0312 653.32,748.6112 C637.5,787.5712 621.6703,827.5392 611.2403,853.9992 " fill="#FFFFFF" fill-opacity="0.00000" id="ObjectsAPI-to-db" style="stroke:#181818;stroke-width:1;stroke-dasharray:7.0,7.0;"/><polygon fill="#181818" points="609.04,859.5812,616.0618,852.675,610.8736,854.9295,608.6191,849.7413,609.04,859.5812" style="stroke:#181818;stroke-width:1;"/><text fill="#000000" font-family="sans-serif" font-size="13" lengthAdjust="spacing" textLength="43.437" x="654.32" y="761.6781">Persist</text></g><!--link ObjectsAPI to drc--><g id="link_ObjectsAPI_drc"><path d="M695.71,677.0912 C702.22,720.6612 715.552,809.7972 722.062,853.2972 " fill="#FFFFFF" fill-opacity="0.00000" id="ObjectsAPI-to-drc" style="stroke:#181818;stroke-width:1;stroke-dasharray:7.0,7.0;"/><polygon fill="#181818" points="722.95,859.2312,725.5739,849.7383,722.21,854.2862,717.662,850.9223,722.95,859.2312" style="stroke:#181818;stroke-width:1;"/><text fill="#000000" font-family="sans-serif" font-size="13" lengthAdjust="spacing" textLength="43.437" x="708.32" y="761.6781">Persist</text></g><!--reverse link SearchAPI to search--><g id="link_SearchAPI_search"><path d="M483.7406,680.788 C463.0606,697.838 442.18,719.4412 430.32,748.6112 C415.43,785.2312 419.54,832.3412 423.91,859.5812 " fill="#FFFFFF" fill-opacity="0.00000" id="SearchAPI-backto-search" style="stroke:#181818;stroke-width:1;stroke-dasharray:7.0,7.0;"/><polygon fill="#181818" points="488.37,676.9712,478.8813,679.6101,484.5121,680.1519,483.9704,685.7827,488.37,676.9712" style="stroke:#181818;stroke-width:1;"/><text fill="#000000" font-family="sans-serif" font-size="13" lengthAdjust="spacing" textLength="47.1694" x="431.32" y="761.6781">Lookup</text></g><!--reverse link SearchAPI to drc--><g id="link_SearchAPI_drc"><path d="M529.2119,682.6504 C539.3619,708.6504 557.67,744.8512 590.32,765.6112 C613.39,780.2812 627.97,759.3812 651.32,773.6112 C684.1,793.5912 706.16,833.9212 717.45,859.2912 " fill="#FFFFFF" fill-opacity="0.00000" id="SearchAPI-backto-drc" style="stroke:#181818;stroke-width:1;stroke-dasharray:7.0,7.0;"/><polygon fill="#181818" points="527.03,677.0612,526.5768,686.8996,528.8483,681.7188,534.029,683.9903,527.03,677.0612" style="stroke:#181818;stroke-width:1;"/><text fill="#000000" font-family="sans-serif" font-size="13" lengthAdjust="spacing" textLength="47.1694" x="591.32" y="761.6781">Lookup</text></g><!--link layer2 to identity--><g id="link_layer2_identity"><path d="M806.7012,663.5812 C806.9748,663.8788 807.2545,664.1829 807.5401,664.4935 C808.1114,665.1147 808.7064,665.7617 809.3244,666.4338 C810.5605,667.7779 811.8885,669.2221 813.3023,670.7595 C816.1298,673.8343 819.3001,677.2819 822.7628,681.0476 C836.6138,696.1102 855.1438,716.2618 875.13,737.9974 C915.1025,781.4687 956.8391,826.8593 982.6791,854.9643 " fill="#FFFFFF" fill-opacity="0.00000" id="layer2-to-identity" style="stroke:#181818;stroke-width:1;stroke-dasharray:7.0,7.0;"/><polygon fill="#181818" points="986.74,859.3812,983.5932,850.0486,983.3559,855.7004,977.704,855.4631,986.74,859.3812" style="stroke:#181818;stroke-width:1;"/><text fill="#000000" font-family="sans-serif" font-size="13" lengthAdjust="spacing" textLength="36.1245" x="897.32" y="761.6781">AUTH</text></g><!--link service to ObjectsAPI--><g id="link_service_ObjectsAPI"><path d="M747.25,447.7912 C735.56,491.3612 711.595,580.6462 699.925,624.1362 " fill="#FFFFFF" fill-opacity="0.00000" id="service-to-ObjectsAPI" style="stroke:#181818;stroke-width:1;stroke-dasharray:7.0,7.0;"/><polygon fill="#181818" points="698.37,629.9312,704.5658,622.2754,699.6658,625.102,696.8392,620.202,698.37,629.9312" style="stroke:#181818;stroke-width:1;"/><text fill="#000000" font-family="sans-serif" font-size="13" lengthAdjust="spacing" textLength="218.5244" x="732.32" y="516.3881">In synchroniseren van publicaties</text></g><text fill="#888888" font-family="sans-serif" font-size="10" lengthAdjust="spacing" textLength="144.0625" x="527.5831" y="1017.2331">Open Catalogi | Components</text><!--SRC=[ZLJRRjD047ttLupoW19LYaHLNYo4b2QX6DAaoeLAHJoirqEonDwrTjTj8-3V6U_wbZI2ldbdpfavSxCLDiKGnYhBbKHfJV13AOiwX4ME4iRCibHj1VpkGdR8alz00fwg8e5UbD1Js0EyWH7dQ4plLm3VHfEFg-_038ZA7Vnf63SOwqBiKPTGngtIqBikz1PrhsJ4xhDsZBBOecJC-p9Cy0drllLVumvH9nMN9PcG6qFkDjtqcQgL2ACyJmLdLc2PDsTypxP80RIIL54FIjaFZEtDmLZ4pAb_kBadwzJoeNjErsCAt53hndXkdQUo5iPHq5bPMbkH0hJQlXHnoR5EKXjunWweuHtq8qbigbGeEIYpD8WbaXNcCvYW4TjQlS8zpMiJkSo5A1CrZAy5dk9zxsgywvrNToBa2lepAfCFN8_JqdRb0gmEak-eVyAujhemrFn7mV5Cc4leZ-wYJf1Bw1RjTYsI2JuVLKCK5tU5JFCTlReJS9mbRWMDZDQfMrNDMyG_aLlZYIz5lON-X4RZkjlwVBAkccdAZ1Myab5LMduUnVJ9O4MhYPwtM8uTE8cFW1F5YumkemkTr53DlTGNkmFlXyCFRIV2wXCkO28qbWTn2FpvU6GXGgZQ-2WOn5ezqNXe3FF5F9hU3eBsdbv9Q0xCuzqpXBBb-fJp-NuDuvI9R104XNYDT1VD0zkfXN1NnFNX4hpv6rt0BLgMq3EWC_MqQlae-j5c1dIu_mO4RK8O9kf94ZQ9AJUj5ItNMRVchRyfZD8uVxKT8SoKsXVv6O3ZLzxg7EhGzKypXD5c_IceH3VkRdCY2QOfnG-1ISZRblq5]--></g></svg>