<svg xmlns="http://www.w3.org/2000/svg" xmlns:xlink="http://www.w3.org/1999/xlink" contentStyleType="text/css" data-diagram-type="DESCRIPTION" height="371px" preserveAspectRatio="none" style="width:579px;height:371px;background:#FFFFFF;" version="1.1" viewBox="0 0 579 371" width="579px" zoomAndPan="magnify"><title>Open Catalogi</title><defs/><g><text fill="#888888" font-family="sans-serif" font-size="10" lengthAdjust="spacing" textLength="34.1455" x="526.1361" y="9.2822">Simpel</text><text fill="#000000" font-family="sans-serif" font-size="14" font-weight="bold" lengthAdjust="spacing" textLength="111.3574" x="224.4621" y="35.6357">Open Catalogi</text><!--cluster Internet--><g id="cluster_Internet"><path d="M256.8941,70.4391 C258.8115,62.4744 262.8057,61.2102 269.636,65.2048 C272.2246,58.9133 277.4387,58.5065 281.5326,63.637 C282.94,56.6973 289.0742,56.1489 293.6517,60.1138 C299.593,55.9461 303.6796,55.9375 306.082,63.7773 C310.1071,58.2264 316.2841,58.5274 318.4716,65.5832 C327.2292,60.3017 336.4383,64.0021 335.6748,75.402 C337.0173,75.0361 337.6311,75.5242 337.3533,76.9337 C342.1934,79.3359 343.804,83.7941 338.9431,87.6372 C345.5956,92.2829 345.1158,97.0322 339.0222,101.7493 C344.4532,104.7178 345.7997,108.3328 340.8112,112.9635 C346.5402,115.2554 348.3999,121.0327 343.1253,125.3761 C347.2865,129.4672 346.5872,133.4003 341.6303,136.2363 C346.3747,141.78 346.0274,146.2089 338.3813,148.4591 C343.6487,151.9612 344.5732,156.8547 338.796,160.7302 C344.0487,170.0982 340.6392,179.5139 328.6748,179.692 C329.43,179.4539 329.7688,179.7347 329.7685,180.5085 C327.2502,187.8558 322.5346,188.639 317.2061,183.2887 C314.8221,189.5288 310.4426,191.2954 304.8279,187.133 C302.578,193.2082 297.2974,194.7104 293.1031,189.0806 C289.0351,193.6342 282.9456,194.4075 280.6994,187.165 C275.5806,190.7279 272.5796,189.065 270.4176,183.7432 C259.7577,189.244 250.1054,186.3913 249.6748,172.692 C251.2259,172.5575 251.5887,173.4659 251.0906,174.7447 C244.6368,171.63 242.3228,166.3349 248.5068,160.8673 C242.4831,157.9657 242.1385,152.9239 247.0341,148.7007 C239.7105,146.0541 239.3765,141.1327 245.0596,136.3984 C238.6471,134.4156 238.6686,130.454 242.3491,125.8722 C237.8052,121.225 237.9243,115.6402 244.8626,113.286 C240.2717,108.8544 239.6382,104.4801 246.0723,101.1472 C240.5446,95.9407 239.8962,91.3501 247.6798,87.7394 C242.0097,77.5555 245.6312,70.8114 256.6748,68.402 C257.6615,68.9239 257.7352,69.7205 256.8941,70.4391 " fill="#FFFFFF" fill-opacity="0.00000" style="stroke:#181818;stroke-width:1;"/><text fill="#000000" font-family="sans-serif" font-size="14" font-weight="bold" lengthAdjust="spacing" textLength="64.4219" x="260.4639" y="86.3971">Internet</text></g><!--cluster org 1--><g id="cluster_org 1"><path d="M28.044,247.43 C37.0843,235.6105 46.9705,235.6447 55.3409,248.1807 C59.1961,237.5442 69.4865,233.4084 77.4361,243.8985 C84.5691,233.7261 93.3129,235.6872 98.5231,245.8886 C105.5165,232.8012 116.827,232.7462 123.9453,245.767 C129.5,235.3446 136.0057,233.7742 144.9041,242.0111 C154.1002,231.6256 165.5549,229.8528 171.9295,244.9979 C178.5872,233.8408 187.3251,233.2602 195.0674,243.8436 C199.9507,234.5093 210.0179,232.1555 215.8719,242.8345 C221.8239,230.2197 233.958,230.6377 240.7174,241.9977 C247.285,229.9845 259.1099,230.9005 265.1877,242.5052 C272.0049,233.344 280.8935,232.8699 286.6901,243.6079 C295.968,231.6439 304.5107,232.8611 311.8841,245.5538 C318.9141,233.4686 329.3651,236.8466 334.8677,247.1237 C342.4802,236.2478 353.1636,237.8474 359.2019,248.8726 C381.5099,257.331 386.9005,269.5257 370.3118,288.8056 C384.5889,308.5144 382.1895,324.7422 355.8228,330.2377 C348.7753,339.3016 340.202,337.4161 336.1649,327.1727 C330.9324,338.3723 318.5626,342.7953 310.3116,330.4932 C305.2995,340.3936 295.0145,340.3773 288.7278,331.9981 C279.944,344.7224 269.782,343.035 262.7419,330.2237 C256.1275,343.1192 247.6545,340.9726 239.7855,331.5119 C234.361,342.5908 225.268,342.9119 218.495,332.8713 C210.4336,345.6578 202.2033,346.0538 192.0531,335.2085 C183.7164,343.1078 175.8406,344.6288 170.2202,332.2797 C165.8587,343.1725 155.6284,345.6717 148.5988,334.9484 C138.0724,345.5461 128.7026,345.1463 122.6078,330.4032 C117.6613,341.7531 108.2478,340.7855 101.6823,332.0935 C92.7985,343.0241 83.8566,343.2937 77.7097,329.4457 C69.9613,340.631 62.1425,339.516 54.2824,329.5696 C45.2341,339.5013 36.8199,338.9407 29.313,327.7476 C7.7723,318.1674 6.6866,299.2665 25.5394,286.0323 C6,271.3579 7.628,259.512 28.044,247.43 " fill="#FFFFFF" fill-opacity="0.00000" style="stroke:#181818;stroke-width:1;"/><text fill="#000000" font-family="sans-serif" font-size="14" font-weight="bold" lengthAdjust="spacing" textLength="41.1592" x="171.0953" y="262.6871">org 1</text></g><!--cluster org 2--><g id="cluster_org 2"><path d="M432.3887,246.6592 C435.2934,239.2266 440.2289,237.9801 445.4683,244.4651 C448.6605,238.0037 454.8705,238.4982 457.9701,244.5576 C461.5124,239.5767 465.0043,237.996 469.489,243.5247 C474.4217,237.5667 478.5288,237.6565 483.1535,243.8706 C486.3581,237.0375 491.6671,237.7004 495.7432,242.9635 C499.0534,235.4279 505.3331,235.4786 509.3378,242.3062 C513.3572,237.6902 519.5988,237.4746 521.9433,244.1723 C525.7248,238.1936 530.2836,238.1738 533.5061,244.6896 C537.9458,238.9226 542.7276,239.7179 546.3827,245.5599 C549.6814,240.0129 554.8621,238.4811 558.8765,244.8067 C565.3453,248.3558 566.7096,253.6121 560.8413,258.8832 C567.8372,262.7312 569.7779,267.3227 563.2615,273.4203 C570.7917,276.4413 572.9251,281.1474 566.5778,287.4489 C571.4358,291.507 570.2235,297.7272 564.5183,300.0602 C568.405,305.743 568.3227,311.4418 560.1049,312.9944 C565.6826,317.4664 566.4979,324.1218 558.6257,327.1927 C555.4911,332.5842 549.5084,334.4198 545.8151,327.788 C542.3018,334.5959 536.7364,333.2822 533.1427,327.8715 C530.9417,333.6183 526.0789,334.5505 521.9906,329.8948 C518.5059,337.1143 512.5962,336.0986 508.7383,330.274 C505.6384,338.097 500.2929,337.7361 495.3539,332.1034 C490.909,336.416 486.8445,336.8642 483.8202,330.5601 C479.5709,337.1522 474.1117,335.6858 470.4411,329.9329 C466.4987,336.4683 461.3564,336.2616 457.8989,329.4763 C453.8087,335.8006 448.6309,334.2998 445.6031,328.4071 C441.4467,334.2383 435.7712,333.2461 432.2325,327.6823 C425.989,324.7672 423.8656,319.4548 429.4808,314.1316 C422.1717,311.3337 420.0251,305.7985 425.7178,299.6273 C419.1587,296.096 418.0599,290.5001 423.9829,285.4422 C419.1733,279.6834 419.6888,275.2507 426.9328,272.1711 C422.1645,267.4122 423.1497,261.8222 429.5526,259.345 C424.9905,254.556 425.4034,248.8667 432.3887,246.6592 " fill="#FFFFFF" fill-opacity="0.00000" style="stroke:#181818;stroke-width:1;"/><text fill="#000000" font-family="sans-serif" font-size="14" font-weight="bold" lengthAdjust="spacing" textLength="41.1592" x="474.0953" y="262.6871">org 2</text></g><!--entity user--><g id="elem_user"><ellipse cx="292.6767" cy="103.902" fill="#F1F1F1" rx="8" ry="8" style="stroke:#181818;stroke-width:0.5;"/><path d="M292.6767,111.902 L292.6767,138.902 M279.6767,119.902 L305.6767,119.902 M292.6767,138.902 L279.6767,153.902 M292.6767,138.902 L305.6767,153.902 " fill="#FFFFFF" fill-opacity="0.00000" style="stroke:#181818;stroke-width:0.5;"/><text fill="#000000" font-family="sans-serif" font-size="14" lengthAdjust="spacing" textLength="69.3438" x="258.0048" y="168.3971">Gebruiker</text></g><!--entity cat1--><g id="elem_cat1"><rect fill="#F1F1F1" height="46.2969" rx="2.5" ry="2.5" style="stroke:#181818;stroke-width:0.5;" width="109.9316" x="237.7048" y="271.692"/><rect fill="#F1F1F1" height="10" style="stroke:#181818;stroke-width:0.5;" width="15" x="327.6365" y="276.692"/><rect fill="#F1F1F1" height="2" style="stroke:#181818;stroke-width:0.5;" width="4" x="325.6365" y="278.692"/><rect fill="#F1F1F1" height="2" style="stroke:#181818;stroke-width:0.5;" width="4" x="325.6365" y="282.692"/><text fill="#000000" font-family="sans-serif" font-size="14" lengthAdjust="spacing" textLength="69.9316" x="252.7048" y="304.6871">Catalogus</text></g><!--entity cat3--><g id="elem_cat3"><rect fill="#F1F1F1" height="46.2969" rx="2.5" ry="2.5" style="stroke:#181818;stroke-width:0.5;" width="109.9316" x="35.7048" y="271.692"/><rect fill="#F1F1F1" height="10" style="stroke:#181818;stroke-width:0.5;" width="15" x="125.6365" y="276.692"/><rect fill="#F1F1F1" height="2" style="stroke:#181818;stroke-width:0.5;" width="4" x="123.6365" y="278.692"/><rect fill="#F1F1F1" height="2" style="stroke:#181818;stroke-width:0.5;" width="4" x="123.6365" y="282.692"/><text fill="#000000" font-family="sans-serif" font-size="14" lengthAdjust="spacing" textLength="69.9316" x="50.7048" y="304.6871">Catalogus</text></g><!--entity cat2--><g id="elem_cat2"><rect fill="#F1F1F1" height="46.2969" rx="2.5" ry="2.5" style="stroke:#181818;stroke-width:0.5;" width="109.9316" x="439.7048" y="271.692"/><rect fill="#F1F1F1" height="10" style="stroke:#181818;stroke-width:0.5;" width="15" x="529.6365" y="276.692"/><rect fill="#F1F1F1" height="2" style="stroke:#181818;stroke-width:0.5;" width="4" x="527.6365" y="278.692"/><rect fill="#F1F1F1" height="2" style="stroke:#181818;stroke-width:0.5;" width="4" x="527.6365" y="282.692"/><text fill="#000000" font-family="sans-serif" font-size="14" lengthAdjust="spacing" textLength="69.9316" x="454.7048" y="304.6871">Catalogus</text></g><!--link user to cat1--><g id="link_user_cat1"><path d="M292.6748,171.892 C292.6748,202.792 292.6748,239.652 292.6748,265.472 " fill="#FFFFFF" fill-opacity="0.00000" id="user-to-cat1" style="stroke:#181818;stroke-width:1;stroke-dasharray:7.0,7.0;"/><polygon fill="#181818" points="292.6748,271.472,296.6748,262.472,292.6748,266.472,288.6748,262.472,292.6748,271.472" style="stroke:#181818;stroke-width:1;"/><text fill="#000000" font-family="sans-serif" font-size="13" lengthAdjust="spacing" textLength="65.0254" x="293.6748" y="216.7589">Opzoeken</text></g><!--link cat1 to cat2--><g id="link_cat1_cat2"><path d="M348.1348,294.842 C376.5248,294.842 404.9748,294.842 433.3348,294.842 " fill="#FFFFFF" fill-opacity="0.00000" id="cat1-to-cat2" style="stroke:#181818;stroke-width:1;stroke-dasharray:7.0,7.0;"/><polygon fill="#181818" points="439.3348,294.842,430.3348,290.842,434.3348,294.842,430.3348,298.842,439.3348,294.842" style="stroke:#181818;stroke-width:1;"/><text fill="#000000" font-family="sans-serif" font-size="13" lengthAdjust="spacing" textLength="56.145" x="365.6748" y="310.9089">Gebruikt</text></g><!--reverse link cat3 to cat1--><g id="link_cat3_cat1"><path d="M152.1348,294.842 C180.5248,294.842 208.9748,294.842 237.3348,294.842 " fill="#FFFFFF" fill-opacity="0.00000" id="cat3-backto-cat1" style="stroke:#181818;stroke-width:1;stroke-dasharray:7.0,7.0;"/><polygon fill="#181818" points="146.1348,294.842,155.1348,298.842,151.1348,294.842,155.1348,290.842,146.1348,294.842" style="stroke:#181818;stroke-width:1;"/><text fill="#000000" font-family="sans-serif" font-size="13" lengthAdjust="spacing" textLength="56.145" x="163.6748" y="287.9089">Gebruikt</text></g><text fill="#888888" font-family="sans-serif" font-size="10" lengthAdjust="spacing" textLength="144.0625" x="208.1096" y="361.3361">Open Catalogi | Components</text><!--SRC=[TOyn3u9038Nt_ehcVW09k36uC1Wd1qVZS4A12yULt9MOYFvtFIHgZ8vzxtrzhHYnbEDk88U55csvCL0p2_al5QzOS3-m8oS1Mj9LZEnDFv05A2sF5QgjUu2EH4sWIs6FQaCdFvgEl48TS0pa0Mxm0jWtc2gS00zBqHYECLbgIN-9gqX_mDaVE9jROXyc5PzTifvNngSkJ1qvY2CctZIjFCqin-LQMKnBzUAjtjuT]--></g></svg>