<svg xmlns="http://www.w3.org/2000/svg" xmlns:xlink="http://www.w3.org/1999/xlink" contentStyleType="text/css" data-diagram-type="SEQUENCE" height="448px" preserveAspectRatio="none" style="width:770px;height:448px;background:#FFFFFF;" version="1.1" viewBox="0 0 770 448" width="770px" zoomAndPan="magnify"><defs/><g><g><title>New Installation</title><rect fill="#FFFFFF" fill-opacity="0.00000" height="376.4609" width="8" x="138.2632" y="36.2969"/><line style="stroke:#181818;stroke-width:0.5;stroke-dasharray:5.0,5.0;" x1="142" x2="142" y1="36.2969" y2="412.7578"/></g><g><title>Existing Installation</title><rect fill="#FFFFFF" fill-opacity="0.00000" height="376.4609" width="8" x="326.6167" y="36.2969"/><line style="stroke:#181818;stroke-width:0.5;stroke-dasharray:5.0,5.0;" x1="329.895" x2="329.895" y1="36.2969" y2="412.7578"/></g><g><title>Other Installations</title><rect fill="#FFFFFF" fill-opacity="0.00000" height="376.4609" width="8" x="530.0908" y="36.2969"/><line style="stroke:#181818;stroke-width:0.5;stroke-dasharray:5.0,5.0;" x1="533.5732" x2="533.5732" y1="36.2969" y2="412.7578"/></g><g><rect fill="#E2E2F0" height="30.2969" rx="2.5" ry="2.5" style="stroke:#181818;stroke-width:0.5;" width="126.5264" x="79" y="5"/><text fill="#000000" font-family="sans-serif" font-size="14" lengthAdjust="spacing" textLength="112.5264" x="86" y="24.9951">New Installation</text></g><g><rect fill="#E2E2F0" height="30.2969" rx="2.5" ry="2.5" style="stroke:#181818;stroke-width:0.5;" width="126.5264" x="79" y="411.7578"/><text fill="#000000" font-family="sans-serif" font-size="14" lengthAdjust="spacing" textLength="112.5264" x="86" y="431.7529">New Installation</text></g><g><rect fill="#E2E2F0" height="30.2969" rx="2.5" ry="2.5" style="stroke:#181818;stroke-width:0.5;" width="151.4434" x="254.895" y="5"/><text fill="#000000" font-family="sans-serif" font-size="14" lengthAdjust="spacing" textLength="137.4434" x="261.895" y="24.9951">Existing Installation</text></g><g><rect fill="#E2E2F0" height="30.2969" rx="2.5" ry="2.5" style="stroke:#181818;stroke-width:0.5;" width="151.4434" x="254.895" y="411.7578"/><text fill="#000000" font-family="sans-serif" font-size="14" lengthAdjust="spacing" textLength="137.4434" x="261.895" y="431.7529">Existing Installation</text></g><g><rect fill="#E2E2F0" height="30.2969" rx="2.5" ry="2.5" style="stroke:#181818;stroke-width:0.5;" width="143.0352" x="462.5732" y="5"/><text fill="#000000" font-family="sans-serif" font-size="14" lengthAdjust="spacing" textLength="129.0352" x="469.5732" y="24.9951">Other Installations</text></g><g><rect fill="#E2E2F0" height="30.2969" rx="2.5" ry="2.5" style="stroke:#181818;stroke-width:0.5;" width="143.0352" x="462.5732" y="411.7578"/><text fill="#000000" font-family="sans-serif" font-size="14" lengthAdjust="spacing" textLength="129.0352" x="469.5732" y="431.7529">Other Installations</text></g><g><polygon fill="#181818" points="318.6167,63.4297,328.6167,67.4297,318.6167,71.4297,322.6167,67.4297" style="stroke:#181818;stroke-width:1;"/><line style="stroke:#181818;stroke-width:1;" x1="142.2632" x2="324.6167" y1="67.4297" y2="67.4297"/><text fill="#000000" font-family="sans-serif" font-size="13" lengthAdjust="spacing" textLength="115.9653" x="149.2632" y="62.3638">Request directory</text></g><path d="M18,80.4297 L18,105.4297 L454,105.4297 L454,90.4297 L444,80.4297 L18,80.4297 " fill="#FEFFDD" style="stroke:#181818;stroke-width:0.5;"/><path d="M444,80.4297 L444,90.4297 L454,90.4297 L444,80.4297 " fill="#FEFFDD" style="stroke:#181818;stroke-width:0.5;"/><text fill="#000000" font-family="sans-serif" font-size="13" lengthAdjust="spacing" textLength="415.7461" x="24" y="97.4966">New installation needs to know at least one existing installation</text><g><polygon fill="#181818" points="153.2632,127.6953,143.2632,131.6953,153.2632,135.6953,149.2632,131.6953" style="stroke:#181818;stroke-width:1;"/><line style="stroke:#181818;stroke-width:1;stroke-dasharray:2.0,2.0;" x1="147.2632" x2="329.6167" y1="131.6953" y2="131.6953"/><text fill="#000000" font-family="sans-serif" font-size="13" lengthAdjust="spacing" textLength="111.2681" x="159.2632" y="126.6294">Provide directory</text></g><path d="M185,144.6953 L185,169.6953 L475,169.6953 L475,154.6953 L465,144.6953 L185,144.6953 " fill="#FEFFDD" style="stroke:#181818;stroke-width:0.5;"/><path d="M465,144.6953 L465,154.6953 L475,154.6953 L465,144.6953 " fill="#FEFFDD" style="stroke:#181818;stroke-width:0.5;"/><text fill="#000000" font-family="sans-serif" font-size="13" lengthAdjust="spacing" textLength="269.604" x="191" y="161.7622">Existing installation provides its directory</text><g><polygon fill="#181818" points="318.6167,191.9609,328.6167,195.9609,318.6167,199.9609,322.6167,195.9609" style="stroke:#181818;stroke-width:1;"/><line style="stroke:#181818;stroke-width:1;" x1="142.2632" x2="324.6167" y1="195.9609" y2="195.9609"/><text fill="#000000" font-family="sans-serif" font-size="13" lengthAdjust="spacing" textLength="164.3535" x="149.2632" y="190.895">Add itself to B's directory</text></g><path d="M33,208.9609 L33,233.9609 L439,233.9609 L439,218.9609 L429,208.9609 L33,208.9609 " fill="#FEFFDD" style="stroke:#181818;stroke-width:0.5;"/><path d="M429,208.9609 L429,218.9609 L439,218.9609 L429,208.9609 " fill="#FEFFDD" style="stroke:#181818;stroke-width:0.5;"/><text fill="#000000" font-family="sans-serif" font-size="13" lengthAdjust="spacing" textLength="385.0615" x="39" y="226.0278">New installation is added to existing installation's directory</text><g><polygon fill="#181818" points="522.0908,256.2266,532.0908,260.2266,522.0908,264.2266,526.0908,260.2266" style="stroke:#181818;stroke-width:1;"/><line style="stroke:#181818;stroke-width:1;" x1="142.2632" x2="528.0908" y1="260.2266" y2="260.2266"/><text fill="#000000" font-family="sans-serif" font-size="13" lengthAdjust="spacing" textLength="367.8276" x="149.2632" y="255.1606">Announce itself and request other unknown installations</text></g><path d="M77,273.2266 L77,298.2266 L598,298.2266 L598,283.2266 L588,273.2266 L77,273.2266 " fill="#FEFFDD" style="stroke:#181818;stroke-width:0.5;"/><path d="M588,273.2266 L588,283.2266 L598,283.2266 L588,273.2266 " fill="#FEFFDD" style="stroke:#181818;stroke-width:0.5;"/><text fill="#000000" font-family="sans-serif" font-size="13" lengthAdjust="spacing" textLength="474.5571" x="96.0256" y="290.2935">New installation communicates with all other installations in its directory</text><g><polygon fill="#181818" points="153.2632,320.4922,143.2632,324.4922,153.2632,328.4922,149.2632,324.4922" style="stroke:#181818;stroke-width:1;"/><line style="stroke:#181818;stroke-width:1;stroke-dasharray:2.0,2.0;" x1="147.2632" x2="533.0908" y1="324.4922" y2="324.4922"/><text fill="#000000" font-family="sans-serif" font-size="13" lengthAdjust="spacing" textLength="233.3462" x="159.2632" y="319.4263">Provide other unknown installations</text></g><path d="M304,337.4922 L304,362.4922 L763,362.4922 L763,347.4922 L753,337.4922 L304,337.4922 " fill="#FEFFDD" style="stroke:#181818;stroke-width:0.5;"/><path d="M753,337.4922 L753,347.4922 L763,347.4922 L753,337.4922 " fill="#FEFFDD" style="stroke:#181818;stroke-width:0.5;"/><text fill="#000000" font-family="sans-serif" font-size="13" lengthAdjust="spacing" textLength="438.6421" x="310" y="354.5591">Other installations provide their known installations to the new one</text><path d="M5,372.625 L5,397.625 L280,397.625 L280,382.625 L270,372.625 L5,372.625 " fill="#FEFFDD" style="stroke:#181818;stroke-width:0.5;"/><path d="M270,372.625 L270,382.625 L280,382.625 L270,372.625 " fill="#FEFFDD" style="stroke:#181818;stroke-width:0.5;"/><text fill="#000000" font-family="sans-serif" font-size="13" lengthAdjust="spacing" textLength="254.7378" x="11" y="389.6919">Repeat the process at regular intervals</text><!--SRC=[bLBDJiCm3BxtAQnTTc4li0DIM-t0XI7U86hCPf4v9NPRU7kSiQ5som6EaRy_Vt7lab97lME5rJDEyCIYBWId57a5Jg2k-ZbczqcYn8TxOBC4xlM8QO6ICwojgXesZz1iuHK_1XG5JmaxZUchugW8SJHY_P0HEH7D980HlO16UESuWLC8w4mXCW9Uayq9LGCRCwkty9BYI1wBPkQqAx6X_o49aCgC-Rj1xNqUONZBcPgr_6SN4d3Uey_KOlZrlMThdinnu0wlneuzf4kJyLpwmBaTNcZ9CazRoDF5qsbWwfpQmXFf4MnqaLn8sUkcaFQsvRy5iHJxWlobTR0H9IX8vCPiQDSmvQ-lvhlbi-hHBYC3JAb3aNme2Gz3SDbACOqko3S0]--></g></svg>