<svg xmlns="http://www.w3.org/2000/svg" xmlns:xlink="http://www.w3.org/1999/xlink" contentStyleType="text/css" data-diagram-type="SEQUENCE" height="619px" preserveAspectRatio="none" style="width:885px;height:619px;background:#FFFFFF;" version="1.1" viewBox="0 0 885 619" width="885px" zoomAndPan="magnify"><defs/><g><rect fill="#FFFFFF" height="104.5313" style="stroke:#000000;stroke-width:1;" width="464.2041" x="243.4282" y="213.6953"/><g><title>Requester</title><rect fill="#FFFFFF" fill-opacity="0.00000" height="242.9297" width="8" x="44.9331" y="82.2969"/><line style="stroke:#000000;stroke-width:1;" x1="48" x2="48" y1="82.2969" y2="325.2266"/></g><line style="stroke:#000000;stroke-width:1;stroke-dasharray:1.0,4.0;" x1="48" x2="48" y1="325.2266" y2="353.2266"/><g><title>Requester</title><rect fill="#FFFFFF" fill-opacity="0.00000" height="184.7969" width="8" x="44.9331" y="353.2266"/><line style="stroke:#000000;stroke-width:1;" x1="48" x2="48" y1="353.2266" y2="538.0234"/></g><g><title>Search Endpoint</title><rect fill="#FFFFFF" fill-opacity="0.00000" height="242.9297" width="8" x="310.0107" y="82.2969"/><line style="stroke:#000000;stroke-width:1;" x1="313.4282" x2="313.4282" y1="82.2969" y2="325.2266"/></g><line style="stroke:#000000;stroke-width:1;stroke-dasharray:1.0,4.0;" x1="313.4282" x2="313.4282" y1="325.2266" y2="353.2266"/><g><title>Search Endpoint</title><rect fill="#FFFFFF" fill-opacity="0.00000" height="184.7969" width="8" x="310.0107" y="353.2266"/><line style="stroke:#000000;stroke-width:1;" x1="313.4282" x2="313.4282" y1="353.2266" y2="538.0234"/></g><g><title>Directory</title><rect fill="#FFFFFF" fill-opacity="0.00000" height="242.9297" width="8" x="428.1821" y="82.2969"/><line style="stroke:#000000;stroke-width:1;" x1="431.7661" x2="431.7661" y1="82.2969" y2="325.2266"/></g><line style="stroke:#000000;stroke-width:1;stroke-dasharray:1.0,4.0;" x1="431.7661" x2="431.7661" y1="325.2266" y2="353.2266"/><g><title>Directory</title><rect fill="#FFFFFF" fill-opacity="0.00000" height="184.7969" width="8" x="428.1821" y="353.2266"/><line style="stroke:#000000;stroke-width:1;" x1="431.7661" x2="431.7661" y1="353.2266" y2="538.0234"/></g><g><title>Bron 1</title><rect fill="#FFFFFF" fill-opacity="0.00000" height="242.9297" width="8" x="506.6763" y="82.2969"/><line style="stroke:#000000;stroke-width:1;" x1="510.5981" x2="510.5981" y1="82.2969" y2="325.2266"/></g><line style="stroke:#000000;stroke-width:1;stroke-dasharray:1.0,4.0;" x1="510.5981" x2="510.5981" y1="325.2266" y2="353.2266"/><g><title>Bron 1</title><rect fill="#FFFFFF" fill-opacity="0.00000" height="184.7969" width="8" x="506.6763" y="353.2266"/><line style="stroke:#000000;stroke-width:1;" x1="510.5981" x2="510.5981" y1="353.2266" y2="538.0234"/></g><g><title>Bron 2</title><rect fill="#FFFFFF" fill-opacity="0.00000" height="242.9297" width="8" x="582.8325" y="82.2969"/><line style="stroke:#000000;stroke-width:1;" x1="586.7544" x2="586.7544" y1="82.2969" y2="325.2266"/></g><line style="stroke:#000000;stroke-width:1;stroke-dasharray:1.0,4.0;" x1="586.7544" x2="586.7544" y1="325.2266" y2="353.2266"/><g><title>Bron 2</title><rect fill="#FFFFFF" fill-opacity="0.00000" height="184.7969" width="8" x="582.8325" y="353.2266"/><line style="stroke:#000000;stroke-width:1;" x1="586.7544" x2="586.7544" y1="353.2266" y2="538.0234"/></g><g><title>Bron N</title><rect fill="#FFFFFF" fill-opacity="0.00000" height="242.9297" width="8" x="659.7715" y="82.2969"/><line style="stroke:#000000;stroke-width:1;" x1="662.9106" x2="662.9106" y1="82.2969" y2="325.2266"/></g><line style="stroke:#000000;stroke-width:1;stroke-dasharray:1.0,4.0;" x1="662.9106" x2="662.9106" y1="325.2266" y2="353.2266"/><g><title>Bron N</title><rect fill="#FFFFFF" fill-opacity="0.00000" height="184.7969" width="8" x="659.7715" y="353.2266"/><line style="stroke:#000000;stroke-width:1;" x1="662.9106" x2="662.9106" y1="353.2266" y2="538.0234"/></g><g><title>Resultaten Verwerking</title><rect fill="#FFFFFF" fill-opacity="0.00000" height="242.9297" width="8" x="786.3394" y="82.2969"/><line style="stroke:#000000;stroke-width:1;" x1="789.6323" x2="789.6323" y1="82.2969" y2="325.2266"/></g><line style="stroke:#000000;stroke-width:1;stroke-dasharray:1.0,4.0;" x1="789.6323" x2="789.6323" y1="325.2266" y2="353.2266"/><g><title>Resultaten Verwerking</title><rect fill="#FFFFFF" fill-opacity="0.00000" height="184.7969" width="8" x="786.3394" y="353.2266"/><line style="stroke:#000000;stroke-width:1;" x1="789.6323" x2="789.6323" y1="353.2266" y2="538.0234"/></g><g><text fill="#000000" font-family="Verdana" font-size="14" lengthAdjust="spacing" textLength="71.8662" x="10" y="78.9951">Requester</text><ellipse cx="48.9331" cy="14" fill="#FFFFFF" rx="8" ry="8" style="stroke:#000000;stroke-width:1;"/><path d="M48.9331,22 L48.9331,49 M35.9331,30 L61.9331,30 M48.9331,49 L35.9331,64 M48.9331,49 L61.9331,64 " fill="#FFFFFF" fill-opacity="0.00000" style="stroke:#000000;stroke-width:1;"/></g><g><text fill="#000000" font-family="Verdana" font-size="14" lengthAdjust="spacing" textLength="71.8662" x="10" y="550.0186">Requester</text><ellipse cx="48.9331" cy="562.3203" fill="#FFFFFF" rx="8" ry="8" style="stroke:#000000;stroke-width:1;"/><path d="M48.9331,570.3203 L48.9331,597.3203 M35.9331,578.3203 L61.9331,578.3203 M48.9331,597.3203 L35.9331,612.3203 M48.9331,597.3203 L61.9331,612.3203 " fill="#FFFFFF" fill-opacity="0.00000" style="stroke:#000000;stroke-width:1;"/></g><g><text fill="#000000" font-family="Verdana" font-size="14" lengthAdjust="spacing" textLength="115.165" x="253.4282" y="78.9951">Search Endpoint</text><ellipse cx="314.0107" cy="50" fill="#FFFFFF" rx="12" ry="12" style="stroke:#000000;stroke-width:1;"/><line style="stroke:#000000;stroke-width:1;" x1="302.0107" x2="326.0107" y1="64" y2="64"/></g><g><text fill="#000000" font-family="Verdana" font-size="14" lengthAdjust="spacing" textLength="115.165" x="253.4282" y="550.0186">Search Endpoint</text><ellipse cx="314.0107" cy="569.3203" fill="#FFFFFF" rx="12" ry="12" style="stroke:#000000;stroke-width:1;"/><line style="stroke:#000000;stroke-width:1;" x1="302.0107" x2="326.0107" y1="583.3203" y2="583.3203"/></g><g><text fill="#000000" font-family="Verdana" font-size="14" lengthAdjust="spacing" textLength="64.832" x="396.7661" y="78.9951">Directory</text><path d="M414.1821,30 C414.1821,20 432.1821,20 432.1821,20 C432.1821,20 450.1821,20 450.1821,30 L450.1821,56 C450.1821,66 432.1821,66 432.1821,66 C432.1821,66 414.1821,66 414.1821,56 L414.1821,30 " fill="#FFFFFF" style="stroke:#000000;stroke-width:1.5;"/><path d="M414.1821,30 C414.1821,40 432.1821,40 432.1821,40 C432.1821,40 450.1821,40 450.1821,30 " fill="#FFFFFF" fill-opacity="0.00000" style="stroke:#000000;stroke-width:1.5;"/></g><g><text fill="#000000" font-family="Verdana" font-size="14" lengthAdjust="spacing" textLength="64.832" x="396.7661" y="550.0186">Directory</text><path d="M414.1821,563.3203 C414.1821,553.3203 432.1821,553.3203 432.1821,553.3203 C432.1821,553.3203 450.1821,553.3203 450.1821,563.3203 L450.1821,589.3203 C450.1821,599.3203 432.1821,599.3203 432.1821,599.3203 C432.1821,599.3203 414.1821,599.3203 414.1821,589.3203 L414.1821,563.3203 " fill="#FFFFFF" style="stroke:#000000;stroke-width:1.5;"/><path d="M414.1821,563.3203 C414.1821,573.3203 432.1821,573.3203 432.1821,573.3203 C432.1821,573.3203 450.1821,573.3203 450.1821,563.3203 " fill="#FFFFFF" fill-opacity="0.00000" style="stroke:#000000;stroke-width:1.5;"/></g><g><path d="M482.5981,56 L538.7544,56 C543.7544,56 543.7544,69.1484 543.7544,69.1484 C543.7544,69.1484 543.7544,82.2969 538.7544,82.2969 L482.5981,82.2969 C477.5981,82.2969 477.5981,69.1484 477.5981,69.1484 C477.5981,69.1484 477.5981,56 482.5981,56 " fill="#FFFFFF" style="stroke:#000000;stroke-width:1;"/><path d="M538.7544,56 C533.7544,56 533.7544,69.1484 533.7544,69.1484 C533.7544,82.2969 538.7544,82.2969 538.7544,82.2969 " fill="#FFFFFF" fill-opacity="0.00000" style="stroke:#000000;stroke-width:1;"/><text fill="#000000" font-family="Verdana" font-size="14" lengthAdjust="spacing" textLength="46.1563" x="482.5981" y="73.9951">Bron 1</text></g><g><path d="M482.5981,537.0234 L538.7544,537.0234 C543.7544,537.0234 543.7544,550.1719 543.7544,550.1719 C543.7544,550.1719 543.7544,563.3203 538.7544,563.3203 L482.5981,563.3203 C477.5981,563.3203 477.5981,550.1719 477.5981,550.1719 C477.5981,550.1719 477.5981,537.0234 482.5981,537.0234 " fill="#FFFFFF" style="stroke:#000000;stroke-width:1;"/><path d="M538.7544,537.0234 C533.7544,537.0234 533.7544,550.1719 533.7544,550.1719 C533.7544,563.3203 538.7544,563.3203 538.7544,563.3203 " fill="#FFFFFF" fill-opacity="0.00000" style="stroke:#000000;stroke-width:1;"/><text fill="#000000" font-family="Verdana" font-size="14" lengthAdjust="spacing" textLength="46.1563" x="482.5981" y="555.0186">Bron 1</text></g><g><path d="M558.7544,56 L614.9106,56 C619.9106,56 619.9106,69.1484 619.9106,69.1484 C619.9106,69.1484 619.9106,82.2969 614.9106,82.2969 L558.7544,82.2969 C553.7544,82.2969 553.7544,69.1484 553.7544,69.1484 C553.7544,69.1484 553.7544,56 558.7544,56 " fill="#FFFFFF" style="stroke:#000000;stroke-width:1;"/><path d="M614.9106,56 C609.9106,56 609.9106,69.1484 609.9106,69.1484 C609.9106,82.2969 614.9106,82.2969 614.9106,82.2969 " fill="#FFFFFF" fill-opacity="0.00000" style="stroke:#000000;stroke-width:1;"/><text fill="#000000" font-family="Verdana" font-size="14" lengthAdjust="spacing" textLength="46.1563" x="558.7544" y="73.9951">Bron 2</text></g><g><path d="M558.7544,537.0234 L614.9106,537.0234 C619.9106,537.0234 619.9106,550.1719 619.9106,550.1719 C619.9106,550.1719 619.9106,563.3203 614.9106,563.3203 L558.7544,563.3203 C553.7544,563.3203 553.7544,550.1719 553.7544,550.1719 C553.7544,550.1719 553.7544,537.0234 558.7544,537.0234 " fill="#FFFFFF" style="stroke:#000000;stroke-width:1;"/><path d="M614.9106,537.0234 C609.9106,537.0234 609.9106,550.1719 609.9106,550.1719 C609.9106,563.3203 614.9106,563.3203 614.9106,563.3203 " fill="#FFFFFF" fill-opacity="0.00000" style="stroke:#000000;stroke-width:1;"/><text fill="#000000" font-family="Verdana" font-size="14" lengthAdjust="spacing" textLength="46.1563" x="558.7544" y="555.0186">Bron 2</text></g><g><path d="M634.9106,56 L692.6323,56 C697.6323,56 697.6323,69.1484 697.6323,69.1484 C697.6323,69.1484 697.6323,82.2969 692.6323,82.2969 L634.9106,82.2969 C629.9106,82.2969 629.9106,69.1484 629.9106,69.1484 C629.9106,69.1484 629.9106,56 634.9106,56 " fill="#FFFFFF" style="stroke:#000000;stroke-width:1;"/><path d="M692.6323,56 C687.6323,56 687.6323,69.1484 687.6323,69.1484 C687.6323,82.2969 692.6323,82.2969 692.6323,82.2969 " fill="#FFFFFF" fill-opacity="0.00000" style="stroke:#000000;stroke-width:1;"/><text fill="#000000" font-family="Verdana" font-size="14" lengthAdjust="spacing" textLength="47.7217" x="634.9106" y="73.9951">Bron N</text></g><g><path d="M634.9106,537.0234 L692.6323,537.0234 C697.6323,537.0234 697.6323,550.1719 697.6323,550.1719 C697.6323,550.1719 697.6323,563.3203 692.6323,563.3203 L634.9106,563.3203 C629.9106,563.3203 629.9106,550.1719 629.9106,550.1719 C629.9106,550.1719 629.9106,537.0234 634.9106,537.0234 " fill="#FFFFFF" style="stroke:#000000;stroke-width:1;"/><path d="M692.6323,537.0234 C687.6323,537.0234 687.6323,550.1719 687.6323,550.1719 C687.6323,563.3203 692.6323,563.3203 692.6323,563.3203 " fill="#FFFFFF" fill-opacity="0.00000" style="stroke:#000000;stroke-width:1;"/><text fill="#000000" font-family="Verdana" font-size="14" lengthAdjust="spacing" textLength="47.7217" x="634.9106" y="555.0186">Bron N</text></g><g><text fill="#000000" font-family="Verdana" font-size="14" lengthAdjust="spacing" textLength="159.4141" x="707.6323" y="78.9951">Resultaten Verwerking</text><path d="M772.3394,30 C772.3394,20 790.3394,20 790.3394,20 C790.3394,20 808.3394,20 808.3394,30 L808.3394,56 C808.3394,66 790.3394,66 790.3394,66 C790.3394,66 772.3394,66 772.3394,56 L772.3394,30 " fill="#FFFFFF" style="stroke:#000000;stroke-width:1.5;"/><path d="M772.3394,30 C772.3394,40 790.3394,40 790.3394,40 C790.3394,40 808.3394,40 808.3394,30 " fill="#FFFFFF" fill-opacity="0.00000" style="stroke:#000000;stroke-width:1.5;"/></g><g><text fill="#000000" font-family="Verdana" font-size="14" lengthAdjust="spacing" textLength="159.4141" x="707.6323" y="550.0186">Resultaten Verwerking</text><path d="M772.3394,563.3203 C772.3394,553.3203 790.3394,553.3203 790.3394,553.3203 C790.3394,553.3203 808.3394,553.3203 808.3394,563.3203 L808.3394,589.3203 C808.3394,599.3203 790.3394,599.3203 790.3394,599.3203 C790.3394,599.3203 772.3394,599.3203 772.3394,589.3203 L772.3394,563.3203 " fill="#FFFFFF" style="stroke:#000000;stroke-width:1.5;"/><path d="M772.3394,563.3203 C772.3394,573.3203 790.3394,573.3203 790.3394,573.3203 C790.3394,573.3203 808.3394,573.3203 808.3394,563.3203 " fill="#FFFFFF" fill-opacity="0.00000" style="stroke:#000000;stroke-width:1.5;"/></g><rect fill="#FFFFFF" height="3" style="stroke:#FFFFFF;stroke-width:1;" width="873.0464" x="5" y="112.8633"/><line style="stroke:#000000;stroke-width:0.5;" x1="5" x2="878.0464" y1="112.8633" y2="112.8633"/><line style="stroke:#000000;stroke-width:0.5;" x1="5" x2="878.0464" y1="115.8633" y2="115.8633"/><rect fill="#FFFFFF" height="23.1328" style="stroke:#000000;stroke-width:1;" width="146.8882" x="368.0791" y="102.2969"/><text fill="#000000" font-family="Verdana" font-size="13" font-weight="bold" lengthAdjust="spacing" textLength="128.3623" x="374.0791" y="118.3638">Bevraging Proces</text><g><polygon fill="#000000" points="302.0107,152.5625,312.0107,156.5625,302.0107,160.5625,306.0107,156.5625" style="stroke:#000000;stroke-width:1;"/><line style="stroke:#000000;stroke-width:1;" x1="48.9331" x2="308.0107" y1="156.5625" y2="156.5625"/><text fill="#000000" font-family="Verdana" font-size="13" lengthAdjust="spacing" textLength="188.5635" x="55.9331" y="151.4966">Bevraagt federatief endpoint</text></g><g><line style="stroke:#000000;stroke-width:1;" x1="314.0107" x2="356.0107" y1="185.6953" y2="185.6953"/><line style="stroke:#000000;stroke-width:1;" x1="356.0107" x2="356.0107" y1="185.6953" y2="198.6953"/><line style="stroke:#000000;stroke-width:1;" x1="315.0107" x2="356.0107" y1="198.6953" y2="198.6953"/><polygon fill="#000000" points="325.0107,194.6953,315.0107,198.6953,325.0107,202.6953,321.0107,198.6953" style="stroke:#000000;stroke-width:1;"/><text fill="#000000" font-family="Verdana" font-size="13" lengthAdjust="spacing" textLength="104.1714" x="321.0107" y="180.6294">Bepaalt sources</text></g><path d="M243.4282,213.6953 L575.939,213.6953 L575.939,220.8281 L565.939,230.8281 L243.4282,230.8281 L243.4282,213.6953 " fill="#FFFFFF" style="stroke:#000000;stroke-width:1;"/><rect fill="#FFFFFF" fill-opacity="0.00000" height="104.5313" style="stroke:#000000;stroke-width:1;" width="464.2041" x="243.4282" y="213.6953"/><text fill="#000000" font-family="Verdana" font-size="13" font-weight="bold" lengthAdjust="spacing" textLength="287.5107" x="258.4282" y="226.7622">Asynchroon bevragen van alle bronnen</text><g><polygon fill="#000000" points="498.6763,247.9609,508.6763,251.9609,498.6763,255.9609,502.6763,251.9609" style="stroke:#000000;stroke-width:1;"/><line style="stroke:#000000;stroke-width:1;" x1="314.0107" x2="504.6763" y1="251.9609" y2="251.9609"/><text fill="#000000" font-family="Verdana" font-size="13" lengthAdjust="spacing" textLength="71.4111" x="321.0107" y="246.895">Stelt vraag</text></g><g><polygon fill="#000000" points="574.8325,277.0938,584.8325,281.0938,574.8325,285.0938,578.8325,281.0938" style="stroke:#000000;stroke-width:1;"/><line style="stroke:#000000;stroke-width:1;" x1="314.0107" x2="580.8325" y1="281.0938" y2="281.0938"/><text fill="#000000" font-family="Verdana" font-size="13" lengthAdjust="spacing" textLength="71.4111" x="321.0107" y="276.0278">Stelt vraag</text></g><g><polygon fill="#000000" points="651.7715,306.2266,661.7715,310.2266,651.7715,314.2266,655.7715,310.2266" style="stroke:#000000;stroke-width:1;"/><line style="stroke:#000000;stroke-width:1;" x1="314.0107" x2="657.7715" y1="310.2266" y2="310.2266"/><text fill="#000000" font-family="Verdana" font-size="13" lengthAdjust="spacing" textLength="71.4111" x="321.0107" y="305.1606">Stelt vraag</text></g><g><polygon fill="#000000" points="325.0107,370.3594,315.0107,374.3594,325.0107,378.3594,321.0107,374.3594" style="stroke:#000000;stroke-width:1;"/><line style="stroke:#000000;stroke-width:1;" x1="319.0107" x2="509.6763" y1="374.3594" y2="374.3594"/><text fill="#000000" font-family="Verdana" font-size="13" lengthAdjust="spacing" textLength="74.1851" x="331.0107" y="369.2935">Resultaat 1</text></g><g><polygon fill="#000000" points="325.0107,399.4922,315.0107,403.4922,325.0107,407.4922,321.0107,403.4922" style="stroke:#000000;stroke-width:1;"/><line style="stroke:#000000;stroke-width:1;" x1="319.0107" x2="585.8325" y1="403.4922" y2="403.4922"/><text fill="#000000" font-family="Verdana" font-size="13" lengthAdjust="spacing" textLength="74.1851" x="331.0107" y="398.4263">Resultaat 2</text></g><g><polygon fill="#000000" points="325.0107,428.625,315.0107,432.625,325.0107,436.625,321.0107,432.625" style="stroke:#000000;stroke-width:1;"/><line style="stroke:#000000;stroke-width:1;" x1="319.0107" x2="662.7715" y1="432.625" y2="432.625"/><text fill="#000000" font-family="Verdana" font-size="13" lengthAdjust="spacing" textLength="75.6387" x="331.0107" y="427.5591">Resultaat N</text></g><g><polygon fill="#000000" points="778.3394,457.7578,788.3394,461.7578,778.3394,465.7578,782.3394,461.7578" style="stroke:#000000;stroke-width:1;"/><line style="stroke:#000000;stroke-width:1;" x1="314.0107" x2="784.3394" y1="461.7578" y2="461.7578"/><text fill="#000000" font-family="Verdana" font-size="13" lengthAdjust="spacing" textLength="184.0059" x="321.0107" y="456.6919">Verwerkt resultaten per 500</text></g><g><polygon fill="#000000" points="325.0107,486.8906,315.0107,490.8906,325.0107,494.8906,321.0107,490.8906" style="stroke:#000000;stroke-width:1;"/><line style="stroke:#000000;stroke-width:1;" x1="319.0107" x2="789.3394" y1="490.8906" y2="490.8906"/><text fill="#000000" font-family="Verdana" font-size="13" lengthAdjust="spacing" textLength="163.96" x="331.0107" y="485.8247">Gegroepeerde resultaten</text></g><g><polygon fill="#000000" points="59.9331,516.0234,49.9331,520.0234,59.9331,524.0234,55.9331,520.0234" style="stroke:#000000;stroke-width:1;"/><line style="stroke:#000000;stroke-width:1;" x1="53.9331" x2="313.0107" y1="520.0234" y2="520.0234"/><text fill="#000000" font-family="Verdana" font-size="13" lengthAdjust="spacing" textLength="241.0776" x="65.9331" y="514.9575">Geeft gegroepeerde resultaten terug</text></g><!--SRC=[TP3DJiD038JlVWgJErKJYGjIa8Wet2AKIhsxYPj6XDtWTOhwzhX9-aTXRpip- -tOTxhbJyQkfSO1KAbUiE2ldeEo80MCJhS8s6cZUuoMJ59kSU6gpZTEeqFkTG4LAQqfC4OlZV01jHyiku4nUZCoyGxZGStYAp4PnUHAp4Snlq0N7FfMITdXYkMRvQDnzH0hLW1fYXdlX6eJyLryoG7J5CuJtJzPKtmSKrGhRhXY8MruWppD0vOuvpgYLZ7uNWm6jVY-m-UmT-LMl5LS3zzPcnqvfBPbN5jpnmxGpaZAOYCjbOqp_7ff9VzR-I_B-i5iDWF37UjDso3560nrAoTWc5ivdsOiLYPFUrIKysuxszN3V0uMEBv-OnkUEsQf-29w99rMV4ZoHh7-Eu-MwUiV]--></g></svg>