<svg xmlns="http://www.w3.org/2000/svg" xmlns:xlink="http://www.w3.org/1999/xlink" contentStyleType="text/css" data-diagram-type="SEQUENCE" height="551px" preserveAspectRatio="none" style="width:958px;height:551px;background:#FFFFFF;" version="1.1" viewBox="0 0 958 551" width="958px" zoomAndPan="magnify"><title>Publiccode Installation</title><defs/><g><text fill="#000000" font-family="sans-serif" font-size="14" font-weight="bold" lengthAdjust="spacing" textLength="180.2227" x="385.2056" y="40.6357">Publiccode Installation</text><g><title>Employee</title><rect fill="#FFFFFF" fill-opacity="0.00000" height="324.3281" width="8" x="38.6685" y="131.2344"/><line style="stroke:#181818;stroke-width:0.5;stroke-dasharray:5.0,5.0;" x1="42" x2="42" y1="131.2344" y2="455.5625"/></g><g><title>Repository</title><rect fill="#FFFFFF" fill-opacity="0.00000" height="324.3281" width="8" x="344.3013" y="131.2344"/><line style="stroke:#181818;stroke-width:0.5;stroke-dasharray:5.0,5.0;" x1="347.7651" x2="347.7651" y1="131.2344" y2="455.5625"/></g><g><title>OpenCatalogi</title><rect fill="#FFFFFF" fill-opacity="0.00000" height="324.3281" width="8" x="572.2935" y="131.2344"/><line style="stroke:#181818;stroke-width:0.5;stroke-dasharray:5.0,5.0;" x1="575.77" x2="575.77" y1="131.2344" y2="455.5625"/></g><g><title>Frontend</title><rect fill="#FFFFFF" fill-opacity="0.00000" height="324.3281" width="8" x="752.084" y="131.2344"/><line style="stroke:#181818;stroke-width:0.5;stroke-dasharray:5.0,5.0;" x1="755.5293" x2="755.5293" y1="131.2344" y2="455.5625"/></g><g><title>Citizen</title><rect fill="#FFFFFF" fill-opacity="0.00000" height="324.3281" width="8" x="915.6943" y="131.2344"/><line style="stroke:#181818;stroke-width:0.5;stroke-dasharray:5.0,5.0;" x1="918.7549" x2="918.7549" y1="131.2344" y2="455.5625"/></g><g><text fill="#000000" font-family="sans-serif" font-size="14" lengthAdjust="spacing" textLength="69.3369" x="5" y="127.9326">Employee</text><ellipse cx="42.6685" cy="63.4375" fill="#E2E2F0" rx="8" ry="8" style="stroke:#181818;stroke-width:0.5;"/><path d="M42.6685,71.4375 L42.6685,98.4375 M29.6685,79.4375 L55.6685,79.4375 M42.6685,98.4375 L29.6685,113.4375 M42.6685,98.4375 L55.6685,113.4375 " fill="#FFFFFF" fill-opacity="0.00000" style="stroke:#181818;stroke-width:0.5;"/></g><g><text fill="#000000" font-family="sans-serif" font-size="14" lengthAdjust="spacing" textLength="69.3369" x="5" y="467.5576">Employee</text><ellipse cx="42.6685" cy="479.3594" fill="#E2E2F0" rx="8" ry="8" style="stroke:#181818;stroke-width:0.5;"/><path d="M42.6685,487.3594 L42.6685,514.3594 M29.6685,495.3594 L55.6685,495.3594 M42.6685,514.3594 L29.6685,529.3594 M42.6685,514.3594 L55.6685,529.3594 " fill="#FFFFFF" fill-opacity="0.00000" style="stroke:#181818;stroke-width:0.5;"/></g><g><text fill="#000000" font-family="sans-serif" font-size="14" lengthAdjust="spacing" textLength="75.0723" x="307.7651" y="127.9326">Repository</text><ellipse cx="348.3013" cy="98.9375" fill="#E2E2F0" rx="12" ry="12" style="stroke:#181818;stroke-width:0.5;"/><line style="stroke:#181818;stroke-width:0.5;" x1="336.3013" x2="360.3013" y1="112.9375" y2="112.9375"/></g><g><text fill="#000000" font-family="sans-serif" font-size="14" lengthAdjust="spacing" textLength="75.0723" x="307.7651" y="467.5576">Repository</text><ellipse cx="348.3013" cy="486.8594" fill="#E2E2F0" rx="12" ry="12" style="stroke:#181818;stroke-width:0.5;"/><line style="stroke:#181818;stroke-width:0.5;" x1="336.3013" x2="360.3013" y1="500.8594" y2="500.8594"/></g><g><text fill="#000000" font-family="sans-serif" font-size="14" lengthAdjust="spacing" textLength="95.0469" x="525.77" y="127.9326">OpenCatalogi</text><ellipse cx="576.2935" cy="98.9375" fill="#E2E2F0" rx="12" ry="12" style="stroke:#181818;stroke-width:0.5;"/><line style="stroke:#181818;stroke-width:0.5;" x1="564.2935" x2="588.2935" y1="112.9375" y2="112.9375"/></g><g><text fill="#000000" font-family="sans-serif" font-size="14" lengthAdjust="spacing" textLength="95.0469" x="525.77" y="467.5576">OpenCatalogi</text><ellipse cx="576.2935" cy="486.8594" fill="#E2E2F0" rx="12" ry="12" style="stroke:#181818;stroke-width:0.5;"/><line style="stroke:#181818;stroke-width:0.5;" x1="564.2935" x2="588.2935" y1="500.8594" y2="500.8594"/></g><g><text fill="#000000" font-family="sans-serif" font-size="14" lengthAdjust="spacing" textLength="63.1094" x="721.5293" y="127.9326">Frontend</text><ellipse cx="756.084" cy="98.9375" fill="#E2E2F0" rx="12" ry="12" style="stroke:#181818;stroke-width:0.5;"/><line style="stroke:#181818;stroke-width:0.5;" x1="744.084" x2="768.084" y1="112.9375" y2="112.9375"/></g><g><text fill="#000000" font-family="sans-serif" font-size="14" lengthAdjust="spacing" textLength="63.1094" x="721.5293" y="467.5576">Frontend</text><ellipse cx="756.084" cy="486.8594" fill="#E2E2F0" rx="12" ry="12" style="stroke:#181818;stroke-width:0.5;"/><line style="stroke:#181818;stroke-width:0.5;" x1="744.084" x2="768.084" y1="500.8594" y2="500.8594"/></g><g><text fill="#000000" font-family="sans-serif" font-size="14" lengthAdjust="spacing" textLength="47.8789" x="892.7549" y="127.9326">Citizen</text><ellipse cx="919.6943" cy="63.4375" fill="#E2E2F0" rx="8" ry="8" style="stroke:#181818;stroke-width:0.5;"/><path d="M919.6943,71.4375 L919.6943,98.4375 M906.6943,79.4375 L932.6943,79.4375 M919.6943,98.4375 L906.6943,113.4375 M919.6943,98.4375 L932.6943,113.4375 " fill="#FFFFFF" fill-opacity="0.00000" style="stroke:#181818;stroke-width:0.5;"/></g><g><text fill="#000000" font-family="sans-serif" font-size="14" lengthAdjust="spacing" textLength="47.8789" x="892.7549" y="467.5576">Citizen</text><ellipse cx="919.6943" cy="479.3594" fill="#E2E2F0" rx="8" ry="8" style="stroke:#181818;stroke-width:0.5;"/><path d="M919.6943,487.3594 L919.6943,514.3594 M906.6943,495.3594 L932.6943,495.3594 M919.6943,514.3594 L906.6943,529.3594 M919.6943,514.3594 L932.6943,529.3594 " fill="#FFFFFF" fill-opacity="0.00000" style="stroke:#181818;stroke-width:0.5;"/></g><g><polygon fill="#181818" points="336.3013,158.3672,346.3013,162.3672,336.3013,166.3672,340.3013,162.3672" style="stroke:#181818;stroke-width:1;"/><line style="stroke:#181818;stroke-width:1;" x1="42.6685" x2="342.3013" y1="162.3672" y2="162.3672"/><text fill="#000000" font-family="sans-serif" font-size="13" lengthAdjust="spacing" textLength="281.6328" x="49.6685" y="157.3013">Places data or code that schould be shared</text></g><g><polygon fill="#181818" points="336.3013,187.5,346.3013,191.5,336.3013,195.5,340.3013,191.5" style="stroke:#181818;stroke-width:1;"/><line style="stroke:#181818;stroke-width:1;" x1="42.6685" x2="342.3013" y1="191.5" y2="191.5"/><text fill="#000000" font-family="sans-serif" font-size="13" lengthAdjust="spacing" textLength="204.5596" x="49.6685" y="186.4341">Places and configures workflow</text></g><g><line style="stroke:#181818;stroke-width:1;" x1="348.3013" x2="390.3013" y1="220.6328" y2="220.6328"/><line style="stroke:#181818;stroke-width:1;" x1="390.3013" x2="390.3013" y1="220.6328" y2="233.6328"/><line style="stroke:#181818;stroke-width:1;" x1="349.3013" x2="390.3013" y1="233.6328" y2="233.6328"/><polygon fill="#181818" points="359.3013,229.6328,349.3013,233.6328,359.3013,237.6328,355.3013,233.6328" style="stroke:#181818;stroke-width:1;"/><text fill="#000000" font-family="sans-serif" font-size="13" lengthAdjust="spacing" textLength="213.9922" x="355.3013" y="215.5669">Workflow builds publiccode.yaml</text></g><g><polygon fill="#181818" points="564.2935,258.7656,574.2935,262.7656,564.2935,266.7656,568.2935,262.7656" style="stroke:#181818;stroke-width:1;"/><line style="stroke:#181818;stroke-width:1;" x1="348.3013" x2="570.2935" y1="262.7656" y2="262.7656"/><text fill="#000000" font-family="sans-serif" font-size="13" lengthAdjust="spacing" textLength="199.2656" x="355.3013" y="257.6997">Workflow notifies of repository</text></g><g><polygon fill="#181818" points="767.084,287.8984,757.084,291.8984,767.084,295.8984,763.084,291.8984" style="stroke:#181818;stroke-width:1;"/><line style="stroke:#181818;stroke-width:1;" x1="761.084" x2="918.6943" y1="291.8984" y2="291.8984"/><text fill="#000000" font-family="sans-serif" font-size="13" lengthAdjust="spacing" textLength="97.7412" x="773.084" y="286.8325">Views frontend</text></g><g><polygon fill="#181818" points="587.2935,317.0313,577.2935,321.0313,587.2935,325.0313,583.2935,321.0313" style="stroke:#181818;stroke-width:1;"/><line style="stroke:#181818;stroke-width:1;" x1="581.2935" x2="755.084" y1="321.0313" y2="321.0313"/><text fill="#000000" font-family="sans-serif" font-size="13" lengthAdjust="spacing" textLength="155.7905" x="593.2935" y="315.9653">Queries federilizad data</text></g><g><polygon fill="#181818" points="744.084,346.1641,754.084,350.1641,744.084,354.1641,748.084,350.1641" style="stroke:#181818;stroke-width:1;"/><line style="stroke:#181818;stroke-width:1;" x1="576.2935" x2="750.084" y1="350.1641" y2="350.1641"/><text fill="#000000" font-family="sans-serif" font-size="13" lengthAdjust="spacing" textLength="88.8799" x="583.2935" y="345.0981">Provides data</text></g><g><polygon fill="#181818" points="907.6943,375.2969,917.6943,379.2969,907.6943,383.2969,911.6943,379.2969" style="stroke:#181818;stroke-width:1;"/><line style="stroke:#181818;stroke-width:1;" x1="756.084" x2="913.6943" y1="379.2969" y2="379.2969"/><text fill="#000000" font-family="sans-serif" font-size="13" lengthAdjust="spacing" textLength="139.6104" x="763.084" y="374.231">Provides view of data</text></g><g><polygon fill="#181818" points="336.3013,404.4297,346.3013,408.4297,336.3013,412.4297,340.3013,408.4297" style="stroke:#181818;stroke-width:1;"/><line style="stroke:#181818;stroke-width:1;" x1="42.6685" x2="342.3013" y1="408.4297" y2="408.4297"/><text fill="#000000" font-family="sans-serif" font-size="13" lengthAdjust="spacing" textLength="152.0771" x="49.6685" y="403.3638">Alters any data or code</text></g><g><polygon fill="#181818" points="564.2935,433.5625,574.2935,437.5625,564.2935,441.5625,568.2935,437.5625" style="stroke:#181818;stroke-width:1;"/><line style="stroke:#181818;stroke-width:1;" x1="348.3013" x2="570.2935" y1="437.5625" y2="437.5625"/><text fill="#000000" font-family="sans-serif" font-size="13" lengthAdjust="spacing" textLength="187.8589" x="355.3013" y="432.4966">Workflow notifies of changes</text></g><text fill="#888888" font-family="sans-serif" font-size="10" lengthAdjust="spacing" textLength="53.8867" x="896.7471" y="14.2822">Publiccode</text><text fill="#888888" font-family="sans-serif" font-size="10" lengthAdjust="spacing" textLength="196.4258" x="377.104" y="541.1416">Open Catalogi | Publiccode  Installation</text><!--SRC=[dPB1JiCm38RlUGg_03p03aXe0eaJWyCufutJMcHnbRYhEl7m95EpfKC8YMFY__jj_ucGEDp0RcmSjIqRX1SVHJkdXTWhoomODl0we8UjJWNk2Bvg_HheKPiCN0LAwLOumDDXS3mZAlH2CiCx3XmfLUPoavkK7kNkER0Nz6OnsPBG2RrIgjZ1tKDb1Qcpqor6CCa84d6UKNej4DkUHsUWGOYz3cZ-zD3U9DvRwiQGZXE7J-juKfNsblnODD2Cv4o4uPB3_QmFxWQjDwvXpqAMKaks4AuvBTjdikIIg3tX5C6Me2wLd_vl8uRiQZ6z4JawQNFEIQrqQ_TTu2EP9T2LUPccqXpJA7dci_RNT1zT-bCvtNdrIl_8fksrxp1-0m00]--></g></svg>