<svg xmlns="http://www.w3.org/2000/svg" xmlns:xlink="http://www.w3.org/1999/xlink" contentStyleType="text/css" data-diagram-type="SEQUENCE" height="464px" preserveAspectRatio="none" style="width:1031px;height:464px;background:#FFFFFF;" version="1.1" viewBox="0 0 1031 464" width="1031px" zoomAndPan="magnify"><title>Publicorganisation Installation</title><defs/><g><text fill="#000000" font-family="sans-serif" font-size="14" font-weight="bold" lengthAdjust="spacing" textLength="242.4023" x="390.418" y="40.6357">Publicorganisation Installation</text><g><title>Employee</title><rect fill="#FFFFFF" fill-opacity="0.00000" height="236.9297" width="8" x="38.6685" y="131.2344"/><line style="stroke:#181818;stroke-width:0.5;stroke-dasharray:5.0,5.0;" x1="42" x2="42" y1="131.2344" y2="368.1641"/></g><g><title>Repository</title><rect fill="#FFFFFF" fill-opacity="0.00000" height="236.9297" width="8" x="267.228" y="131.2344"/><line style="stroke:#181818;stroke-width:0.5;stroke-dasharray:5.0,5.0;" x1="270.6919" x2="270.6919" y1="131.2344" y2="368.1641"/></g><g><title>OpenCatalogi</title><rect fill="#FFFFFF" fill-opacity="0.00000" height="236.9297" width="8" x="644.8979" y="131.2344"/><line style="stroke:#181818;stroke-width:0.5;stroke-dasharray:5.0,5.0;" x1="648.3745" x2="648.3745" y1="131.2344" y2="368.1641"/></g><g><title>Frontend</title><rect fill="#FFFFFF" fill-opacity="0.00000" height="236.9297" width="8" x="824.6885" y="131.2344"/><line style="stroke:#181818;stroke-width:0.5;stroke-dasharray:5.0,5.0;" x1="828.1338" x2="828.1338" y1="131.2344" y2="368.1641"/></g><g><title>Citizen</title><rect fill="#FFFFFF" fill-opacity="0.00000" height="236.9297" width="8" x="988.2988" y="131.2344"/><line style="stroke:#181818;stroke-width:0.5;stroke-dasharray:5.0,5.0;" x1="991.3594" x2="991.3594" y1="131.2344" y2="368.1641"/></g><g><text fill="#000000" font-family="sans-serif" font-size="14" lengthAdjust="spacing" textLength="69.3369" x="5" y="127.9326">Employee</text><ellipse cx="42.6685" cy="63.4375" fill="#E2E2F0" rx="8" ry="8" style="stroke:#181818;stroke-width:0.5;"/><path d="M42.6685,71.4375 L42.6685,98.4375 M29.6685,79.4375 L55.6685,79.4375 M42.6685,98.4375 L29.6685,113.4375 M42.6685,98.4375 L55.6685,113.4375 " fill="#FFFFFF" fill-opacity="0.00000" style="stroke:#181818;stroke-width:0.5;"/></g><g><text fill="#000000" font-family="sans-serif" font-size="14" lengthAdjust="spacing" textLength="69.3369" x="5" y="380.1592">Employee</text><ellipse cx="42.6685" cy="391.9609" fill="#E2E2F0" rx="8" ry="8" style="stroke:#181818;stroke-width:0.5;"/><path d="M42.6685,399.9609 L42.6685,426.9609 M29.6685,407.9609 L55.6685,407.9609 M42.6685,426.9609 L29.6685,441.9609 M42.6685,426.9609 L55.6685,441.9609 " fill="#FFFFFF" fill-opacity="0.00000" style="stroke:#181818;stroke-width:0.5;"/></g><g><text fill="#000000" font-family="sans-serif" font-size="14" lengthAdjust="spacing" textLength="75.0723" x="230.6919" y="127.9326">Repository</text><ellipse cx="271.228" cy="98.9375" fill="#E2E2F0" rx="12" ry="12" style="stroke:#181818;stroke-width:0.5;"/><line style="stroke:#181818;stroke-width:0.5;" x1="259.228" x2="283.228" y1="112.9375" y2="112.9375"/></g><g><text fill="#000000" font-family="sans-serif" font-size="14" lengthAdjust="spacing" textLength="75.0723" x="230.6919" y="380.1592">Repository</text><ellipse cx="271.228" cy="399.4609" fill="#E2E2F0" rx="12" ry="12" style="stroke:#181818;stroke-width:0.5;"/><line style="stroke:#181818;stroke-width:0.5;" x1="259.228" x2="283.228" y1="413.4609" y2="413.4609"/></g><g><text fill="#000000" font-family="sans-serif" font-size="14" lengthAdjust="spacing" textLength="95.0469" x="598.3745" y="127.9326">OpenCatalogi</text><ellipse cx="648.8979" cy="98.9375" fill="#E2E2F0" rx="12" ry="12" style="stroke:#181818;stroke-width:0.5;"/><line style="stroke:#181818;stroke-width:0.5;" x1="636.8979" x2="660.8979" y1="112.9375" y2="112.9375"/></g><g><text fill="#000000" font-family="sans-serif" font-size="14" lengthAdjust="spacing" textLength="95.0469" x="598.3745" y="380.1592">OpenCatalogi</text><ellipse cx="648.8979" cy="399.4609" fill="#E2E2F0" rx="12" ry="12" style="stroke:#181818;stroke-width:0.5;"/><line style="stroke:#181818;stroke-width:0.5;" x1="636.8979" x2="660.8979" y1="413.4609" y2="413.4609"/></g><g><text fill="#000000" font-family="sans-serif" font-size="14" lengthAdjust="spacing" textLength="63.1094" x="794.1338" y="127.9326">Frontend</text><ellipse cx="828.6885" cy="98.9375" fill="#E2E2F0" rx="12" ry="12" style="stroke:#181818;stroke-width:0.5;"/><line style="stroke:#181818;stroke-width:0.5;" x1="816.6885" x2="840.6885" y1="112.9375" y2="112.9375"/></g><g><text fill="#000000" font-family="sans-serif" font-size="14" lengthAdjust="spacing" textLength="63.1094" x="794.1338" y="380.1592">Frontend</text><ellipse cx="828.6885" cy="399.4609" fill="#E2E2F0" rx="12" ry="12" style="stroke:#181818;stroke-width:0.5;"/><line style="stroke:#181818;stroke-width:0.5;" x1="816.6885" x2="840.6885" y1="413.4609" y2="413.4609"/></g><g><text fill="#000000" font-family="sans-serif" font-size="14" lengthAdjust="spacing" textLength="47.8789" x="965.3594" y="127.9326">Citizen</text><ellipse cx="992.2988" cy="63.4375" fill="#E2E2F0" rx="8" ry="8" style="stroke:#181818;stroke-width:0.5;"/><path d="M992.2988,71.4375 L992.2988,98.4375 M979.2988,79.4375 L1005.2988,79.4375 M992.2988,98.4375 L979.2988,113.4375 M992.2988,98.4375 L1005.2988,113.4375 " fill="#FFFFFF" fill-opacity="0.00000" style="stroke:#181818;stroke-width:0.5;"/></g><g><text fill="#000000" font-family="sans-serif" font-size="14" lengthAdjust="spacing" textLength="47.8789" x="965.3594" y="380.1592">Citizen</text><ellipse cx="992.2988" cy="391.9609" fill="#E2E2F0" rx="8" ry="8" style="stroke:#181818;stroke-width:0.5;"/><path d="M992.2988,399.9609 L992.2988,426.9609 M979.2988,407.9609 L1005.2988,407.9609 M992.2988,426.9609 L979.2988,441.9609 M992.2988,426.9609 L1005.2988,441.9609 " fill="#FFFFFF" fill-opacity="0.00000" style="stroke:#181818;stroke-width:0.5;"/></g><g><polygon fill="#181818" points="259.228,158.3672,269.228,162.3672,259.228,166.3672,263.228,162.3672" style="stroke:#181818;stroke-width:1;"/><line style="stroke:#181818;stroke-width:1;" x1="42.6685" x2="265.228" y1="162.3672" y2="162.3672"/><text fill="#000000" font-family="sans-serif" font-size="13" lengthAdjust="spacing" textLength="204.5596" x="49.6685" y="157.3013">Places and configures workflow</text></g><g><line style="stroke:#181818;stroke-width:1;" x1="271.228" x2="313.228" y1="191.5" y2="191.5"/><line style="stroke:#181818;stroke-width:1;" x1="313.228" x2="313.228" y1="191.5" y2="204.5"/><line style="stroke:#181818;stroke-width:1;" x1="272.228" x2="313.228" y1="204.5" y2="204.5"/><polygon fill="#181818" points="282.228,200.5,272.228,204.5,282.228,208.5,278.228,204.5" style="stroke:#181818;stroke-width:1;"/><text fill="#000000" font-family="sans-serif" font-size="13" lengthAdjust="spacing" textLength="363.6699" x="278.228" y="186.4341">Workflow builds opencatalogi.yaml in .github repository</text></g><g><polygon fill="#181818" points="636.8979,229.6328,646.8979,233.6328,636.8979,237.6328,640.8979,233.6328" style="stroke:#181818;stroke-width:1;"/><line style="stroke:#181818;stroke-width:1;" x1="271.228" x2="642.8979" y1="233.6328" y2="233.6328"/><text fill="#000000" font-family="sans-serif" font-size="13" lengthAdjust="spacing" textLength="214.2524" x="278.228" y="228.5669">Workflow notifies of organisation</text></g><g><polygon fill="#181818" points="839.6885,258.7656,829.6885,262.7656,839.6885,266.7656,835.6885,262.7656" style="stroke:#181818;stroke-width:1;"/><line style="stroke:#181818;stroke-width:1;" x1="833.6885" x2="991.2988" y1="262.7656" y2="262.7656"/><text fill="#000000" font-family="sans-serif" font-size="13" lengthAdjust="spacing" textLength="97.7412" x="845.6885" y="257.6997">Views frontend</text></g><g><polygon fill="#181818" points="659.8979,287.8984,649.8979,291.8984,659.8979,295.8984,655.8979,291.8984" style="stroke:#181818;stroke-width:1;"/><line style="stroke:#181818;stroke-width:1;" x1="653.8979" x2="827.6885" y1="291.8984" y2="291.8984"/><text fill="#000000" font-family="sans-serif" font-size="13" lengthAdjust="spacing" textLength="155.7905" x="665.8979" y="286.8325">Queries federilizad data</text></g><g><polygon fill="#181818" points="816.6885,317.0313,826.6885,321.0313,816.6885,325.0313,820.6885,321.0313" style="stroke:#181818;stroke-width:1;"/><line style="stroke:#181818;stroke-width:1;" x1="648.8979" x2="822.6885" y1="321.0313" y2="321.0313"/><text fill="#000000" font-family="sans-serif" font-size="13" lengthAdjust="spacing" textLength="88.8799" x="655.8979" y="315.9653">Provides data</text></g><g><polygon fill="#181818" points="980.2988,346.1641,990.2988,350.1641,980.2988,354.1641,984.2988,350.1641" style="stroke:#181818;stroke-width:1;"/><line style="stroke:#181818;stroke-width:1;" x1="828.6885" x2="986.2988" y1="350.1641" y2="350.1641"/><text fill="#000000" font-family="sans-serif" font-size="13" lengthAdjust="spacing" textLength="139.6104" x="835.6885" y="345.0981">Provides view of data</text></g><text fill="#888888" font-family="sans-serif" font-size="10" lengthAdjust="spacing" textLength="92.085" x="931.1533" y="14.2822">Publicorganisation</text><text fill="#888888" font-family="sans-serif" font-size="10" lengthAdjust="spacing" textLength="231.4453" x="395.8965" y="453.7432">Open Catalogi | Publicorganisation Installation</text><!--SRC=[XP4nRiCm34LtdO8NQ0wGeKlG0fsQTcXcsQ8SeeeOI7GC1prygS1gvMReIFB_nqz9I09kOJzsWNfEWusKhH17U8bPR0YtmdXcmRI5rpD6s5aTy43mzQ_lYDOLtxtE6DiB9tWwdGFFY0QZaCpmZcVEf9EvTihEkhBsdXD7mUWMo8w4hgXCKt7myDYWG1C4ssC66ntq73qDOz9oulJf0q-cqVvr7XODT2C5bu4rJx_asSps580YR0QIuzX1-es_HhPNjD38Gfuq2djOlSzoK_7MQzNtGJXbyFNydydzXhSHK-5wr1-WG5VhmEdOh7Hh-ZxnXPoQRi8MNjCqcej6AQcBzXi0]--></g></svg>