<svg xmlns="http://www.w3.org/2000/svg" xmlns:xlink="http://www.w3.org/1999/xlink" contentStyleType="text/css" data-diagram-type="SEQUENCE" height="551px" preserveAspectRatio="none" style="width:880px;height:551px;background:#FFFFFF;" version="1.1" viewBox="0 0 880 551" width="880px" zoomAndPan="magnify"><title>Frontend Installation</title><defs/><g><text fill="#000000" font-family="sans-serif" font-size="14" font-weight="bold" lengthAdjust="spacing" textLength="166.8721" x="352.9797" y="40.6357">Frontend Installation</text><g><title>Employee</title><rect fill="#FFFFFF" fill-opacity="0.00000" height="324.3281" width="8" x="38.6685" y="131.2344"/><line style="stroke:#181818;stroke-width:0.5;stroke-dasharray:5.0,5.0;" x1="42" x2="42" y1="131.2344" y2="455.5625"/></g><g><title>Repository</title><rect fill="#FFFFFF" fill-opacity="0.00000" height="324.3281" width="8" x="267.228" y="131.2344"/><line style="stroke:#181818;stroke-width:0.5;stroke-dasharray:5.0,5.0;" x1="270.6919" x2="270.6919" y1="131.2344" y2="455.5625"/></g><g><title>OpenCatalogi</title><rect fill="#FFFFFF" fill-opacity="0.00000" height="324.3281" width="8" x="444.3882" y="131.2344"/><line style="stroke:#181818;stroke-width:0.5;stroke-dasharray:5.0,5.0;" x1="447.8647" x2="447.8647" y1="131.2344" y2="455.5625"/></g><g><title>NLDesignSystem</title><rect fill="#FFFFFF" fill-opacity="0.00000" height="324.3281" width="8" x="567.3193" y="131.2344"/><line style="stroke:#181818;stroke-width:0.5;stroke-dasharray:5.0,5.0;" x1="570.9116" x2="570.9116" y1="131.2344" y2="455.5625"/></g><g><title>Frontend</title><rect fill="#FFFFFF" fill-opacity="0.00000" height="324.3281" width="8" x="674.2817" y="131.2344"/><line style="stroke:#181818;stroke-width:0.5;stroke-dasharray:5.0,5.0;" x1="677.7271" x2="677.7271" y1="131.2344" y2="455.5625"/></g><g><title>Citizen</title><rect fill="#FFFFFF" fill-opacity="0.00000" height="324.3281" width="8" x="837.8921" y="131.2344"/><line style="stroke:#181818;stroke-width:0.5;stroke-dasharray:5.0,5.0;" x1="840.9526" x2="840.9526" y1="131.2344" y2="455.5625"/></g><g><text fill="#000000" font-family="sans-serif" font-size="14" lengthAdjust="spacing" textLength="69.3369" x="5" y="127.9326">Employee</text><ellipse cx="42.6685" cy="63.4375" fill="#E2E2F0" rx="8" ry="8" style="stroke:#181818;stroke-width:0.5;"/><path d="M42.6685,71.4375 L42.6685,98.4375 M29.6685,79.4375 L55.6685,79.4375 M42.6685,98.4375 L29.6685,113.4375 M42.6685,98.4375 L55.6685,113.4375 " fill="#FFFFFF" fill-opacity="0.00000" style="stroke:#181818;stroke-width:0.5;"/></g><g><text fill="#000000" font-family="sans-serif" font-size="14" lengthAdjust="spacing" textLength="69.3369" x="5" y="467.5576">Employee</text><ellipse cx="42.6685" cy="479.3594" fill="#E2E2F0" rx="8" ry="8" style="stroke:#181818;stroke-width:0.5;"/><path d="M42.6685,487.3594 L42.6685,514.3594 M29.6685,495.3594 L55.6685,495.3594 M42.6685,514.3594 L29.6685,529.3594 M42.6685,514.3594 L55.6685,529.3594 " fill="#FFFFFF" fill-opacity="0.00000" style="stroke:#181818;stroke-width:0.5;"/></g><g><text fill="#000000" font-family="sans-serif" font-size="14" lengthAdjust="spacing" textLength="75.0723" x="230.6919" y="127.9326">Repository</text><ellipse cx="271.228" cy="98.9375" fill="#E2E2F0" rx="12" ry="12" style="stroke:#181818;stroke-width:0.5;"/><line style="stroke:#181818;stroke-width:0.5;" x1="259.228" x2="283.228" y1="112.9375" y2="112.9375"/></g><g><text fill="#000000" font-family="sans-serif" font-size="14" lengthAdjust="spacing" textLength="75.0723" x="230.6919" y="467.5576">Repository</text><ellipse cx="271.228" cy="486.8594" fill="#E2E2F0" rx="12" ry="12" style="stroke:#181818;stroke-width:0.5;"/><line style="stroke:#181818;stroke-width:0.5;" x1="259.228" x2="283.228" y1="500.8594" y2="500.8594"/></g><g><text fill="#000000" font-family="sans-serif" font-size="14" lengthAdjust="spacing" textLength="95.0469" x="397.8647" y="127.9326">OpenCatalogi</text><ellipse cx="448.3882" cy="98.9375" fill="#E2E2F0" rx="12" ry="12" style="stroke:#181818;stroke-width:0.5;"/><line style="stroke:#181818;stroke-width:0.5;" x1="436.3882" x2="460.3882" y1="112.9375" y2="112.9375"/></g><g><text fill="#000000" font-family="sans-serif" font-size="14" lengthAdjust="spacing" textLength="95.0469" x="397.8647" y="467.5576">OpenCatalogi</text><ellipse cx="448.3882" cy="486.8594" fill="#E2E2F0" rx="12" ry="12" style="stroke:#181818;stroke-width:0.5;"/><line style="stroke:#181818;stroke-width:0.5;" x1="436.3882" x2="460.3882" y1="500.8594" y2="500.8594"/></g><g><text fill="#000000" font-family="sans-serif" font-size="14" lengthAdjust="spacing" textLength="118.8154" x="508.9116" y="127.9326">NLDesignSystem</text><ellipse cx="571.3193" cy="98.9375" fill="#E2E2F0" rx="12" ry="12" style="stroke:#181818;stroke-width:0.5;"/><line style="stroke:#181818;stroke-width:0.5;" x1="559.3193" x2="583.3193" y1="112.9375" y2="112.9375"/></g><g><text fill="#000000" font-family="sans-serif" font-size="14" lengthAdjust="spacing" textLength="118.8154" x="508.9116" y="467.5576">NLDesignSystem</text><ellipse cx="571.3193" cy="486.8594" fill="#E2E2F0" rx="12" ry="12" style="stroke:#181818;stroke-width:0.5;"/><line style="stroke:#181818;stroke-width:0.5;" x1="559.3193" x2="583.3193" y1="500.8594" y2="500.8594"/></g><g><text fill="#000000" font-family="sans-serif" font-size="14" lengthAdjust="spacing" textLength="63.1094" x="643.7271" y="127.9326">Frontend</text><ellipse cx="678.2817" cy="98.9375" fill="#E2E2F0" rx="12" ry="12" style="stroke:#181818;stroke-width:0.5;"/><line style="stroke:#181818;stroke-width:0.5;" x1="666.2817" x2="690.2817" y1="112.9375" y2="112.9375"/></g><g><text fill="#000000" font-family="sans-serif" font-size="14" lengthAdjust="spacing" textLength="63.1094" x="643.7271" y="467.5576">Frontend</text><ellipse cx="678.2817" cy="486.8594" fill="#E2E2F0" rx="12" ry="12" style="stroke:#181818;stroke-width:0.5;"/><line style="stroke:#181818;stroke-width:0.5;" x1="666.2817" x2="690.2817" y1="500.8594" y2="500.8594"/></g><g><text fill="#000000" font-family="sans-serif" font-size="14" lengthAdjust="spacing" textLength="47.8789" x="814.9526" y="127.9326">Citizen</text><ellipse cx="841.8921" cy="63.4375" fill="#E2E2F0" rx="8" ry="8" style="stroke:#181818;stroke-width:0.5;"/><path d="M841.8921,71.4375 L841.8921,98.4375 M828.8921,79.4375 L854.8921,79.4375 M841.8921,98.4375 L828.8921,113.4375 M841.8921,98.4375 L854.8921,113.4375 " fill="#FFFFFF" fill-opacity="0.00000" style="stroke:#181818;stroke-width:0.5;"/></g><g><text fill="#000000" font-family="sans-serif" font-size="14" lengthAdjust="spacing" textLength="47.8789" x="814.9526" y="467.5576">Citizen</text><ellipse cx="841.8921" cy="479.3594" fill="#E2E2F0" rx="8" ry="8" style="stroke:#181818;stroke-width:0.5;"/><path d="M841.8921,487.3594 L841.8921,514.3594 M828.8921,495.3594 L854.8921,495.3594 M841.8921,514.3594 L828.8921,529.3594 M841.8921,514.3594 L854.8921,529.3594 " fill="#FFFFFF" fill-opacity="0.00000" style="stroke:#181818;stroke-width:0.5;"/></g><g><polygon fill="#181818" points="259.228,158.3672,269.228,162.3672,259.228,166.3672,263.228,162.3672" style="stroke:#181818;stroke-width:1;"/><line style="stroke:#181818;stroke-width:1;" x1="42.6685" x2="265.228" y1="162.3672" y2="162.3672"/><text fill="#000000" font-family="sans-serif" font-size="13" lengthAdjust="spacing" textLength="204.5596" x="49.6685" y="157.3013">Places and configures workflow</text></g><g><polygon fill="#181818" points="282.228,187.5,272.228,191.5,282.228,195.5,278.228,191.5" style="stroke:#181818;stroke-width:1;"/><line style="stroke:#181818;stroke-width:1;" x1="276.228" x2="447.3882" y1="191.5" y2="191.5"/><text fill="#000000" font-family="sans-serif" font-size="13" lengthAdjust="spacing" textLength="130.2222" x="288.228" y="186.4341">Pulls Frontend Code</text></g><g><polygon fill="#181818" points="282.228,216.6328,272.228,220.6328,282.228,224.6328,278.228,220.6328" style="stroke:#181818;stroke-width:1;"/><line style="stroke:#181818;stroke-width:1;" x1="276.228" x2="570.3193" y1="220.6328" y2="220.6328"/><text fill="#000000" font-family="sans-serif" font-size="13" lengthAdjust="spacing" textLength="231.8608" x="288.228" y="215.5669">Pulls organistions NL Design tokens</text></g><g><line style="stroke:#181818;stroke-width:1;" x1="271.228" x2="313.228" y1="249.7656" y2="249.7656"/><line style="stroke:#181818;stroke-width:1;" x1="313.228" x2="313.228" y1="249.7656" y2="262.7656"/><line style="stroke:#181818;stroke-width:1;" x1="272.228" x2="313.228" y1="262.7656" y2="262.7656"/><polygon fill="#181818" points="282.228,258.7656,272.228,262.7656,282.228,266.7656,278.228,262.7656" style="stroke:#181818;stroke-width:1;"/><text fill="#000000" font-family="sans-serif" font-size="13" lengthAdjust="spacing" textLength="163.1602" x="278.228" y="244.6997">Workflow builds frontend</text></g><g><polygon fill="#181818" points="259.228,287.8984,269.228,291.8984,259.228,295.8984,263.228,291.8984" style="stroke:#181818;stroke-width:1;"/><line style="stroke:#181818;stroke-width:1;" x1="42.6685" x2="265.228" y1="291.8984" y2="291.8984"/><text fill="#000000" font-family="sans-serif" font-size="13" lengthAdjust="spacing" textLength="158.8501" x="49.6685" y="286.8325">Configures github Pages</text></g><g><polygon fill="#181818" points="666.2817,317.0313,676.2817,321.0313,666.2817,325.0313,670.2817,321.0313" style="stroke:#181818;stroke-width:1;"/><line style="stroke:#181818;stroke-width:1;" x1="271.228" x2="672.2817" y1="321.0313" y2="321.0313"/><text fill="#000000" font-family="sans-serif" font-size="13" lengthAdjust="spacing" textLength="136.5381" x="278.228" y="315.9653">Deploys Github page</text></g><g><polygon fill="#181818" points="689.2817,346.1641,679.2817,350.1641,689.2817,354.1641,685.2817,350.1641" style="stroke:#181818;stroke-width:1;"/><line style="stroke:#181818;stroke-width:1;" x1="683.2817" x2="840.8921" y1="350.1641" y2="350.1641"/><text fill="#000000" font-family="sans-serif" font-size="13" lengthAdjust="spacing" textLength="97.7412" x="695.2817" y="345.0981">Views frontend</text></g><g><polygon fill="#181818" points="459.3882,375.2969,449.3882,379.2969,459.3882,383.2969,455.3882,379.2969" style="stroke:#181818;stroke-width:1;"/><line style="stroke:#181818;stroke-width:1;" x1="453.3882" x2="677.2817" y1="379.2969" y2="379.2969"/><text fill="#000000" font-family="sans-serif" font-size="13" lengthAdjust="spacing" textLength="155.7905" x="465.3882" y="374.231">Queries federilizad data</text></g><g><polygon fill="#181818" points="666.2817,404.4297,676.2817,408.4297,666.2817,412.4297,670.2817,408.4297" style="stroke:#181818;stroke-width:1;"/><line style="stroke:#181818;stroke-width:1;" x1="448.3882" x2="672.2817" y1="408.4297" y2="408.4297"/><text fill="#000000" font-family="sans-serif" font-size="13" lengthAdjust="spacing" textLength="88.8799" x="455.3882" y="403.3638">Provides data</text></g><g><polygon fill="#181818" points="829.8921,433.5625,839.8921,437.5625,829.8921,441.5625,833.8921,437.5625" style="stroke:#181818;stroke-width:1;"/><line style="stroke:#181818;stroke-width:1;" x1="678.2817" x2="835.8921" y1="437.5625" y2="437.5625"/><text fill="#000000" font-family="sans-serif" font-size="13" lengthAdjust="spacing" textLength="139.6104" x="685.2817" y="432.4966">Provides view of data</text></g><text fill="#888888" font-family="sans-serif" font-size="10" lengthAdjust="spacing" textLength="45.0781" x="827.7534" y="14.2822">Frontend</text><text fill="#888888" font-family="sans-serif" font-size="10" lengthAdjust="spacing" textLength="184.4385" x="344.1965" y="541.1416">Open Catalogi | Frontend Installation</text><!--SRC=[TL9BRi8m4Dtx57E1NY2BRjAFAbKjj5AxDdWIHXXFP4-8WdhuJW230R7qlC-yDxAGUApW9N8G30xUGXBhlHNYO1fcmLZ1PuS1Qgi0jmH_TzWhj6vYPzGOknIEyBpfF8-81eEGZF257ITIPCoJoJ_Rvzd7-nCcQiFtc0GtUNhoFbZN9BJ3O4pU0G-FXJzKCFDsYGciXbroQAZjepu7Zkl6ys3ApRVQtljqBbkpGtCPwuw4Osi3fUagIOl0GGB2Qmp9589h-Uyn5onwyYv1a-lUxLUVIxKagtu1CzlYzP9JXqgpJ4u9NW_iJjdcUCOhvW_XK4Gu8SgwE5i5ynuZQO86zGEGfvrru1I-EM_XFeky9QUYFR4qpsaApbQZ03TxxZy0]--></g></svg>