<svg xmlns="http://www.w3.org/2000/svg" xmlns:xlink="http://www.w3.org/1999/xlink" contentStyleType="text/css" data-diagram-type="DESCRIPTION" height="1217px" preserveAspectRatio="none" style="width:1622px;height:1217px;background:#FFFFFF;" version="1.1" viewBox="0 0 1622 1217" width="1622px" zoomAndPan="magnify"><title>Open Catalogi</title><defs/><g><text fill="#888888" font-family="sans-serif" font-size="10" lengthAdjust="spacing" textLength="63.2666" x="1545.0703" y="9.2822">Components</text><text fill="#000000" font-family="sans-serif" font-size="14" font-weight="bold" lengthAdjust="spacing" textLength="111.3574" x="748.4897" y="35.6357">Open Catalogi</text><!--cluster Azure--><g id="cluster_Azure"><path d="M1512.407,843.0919 C1515.3559,837.0432 1521.2264,837.1136 1524.3408,842.9254 C1528.0683,837.0754 1532.8388,837.6062 1536.8489,842.5994 C1539.3991,836.6927 1545.1717,836.11 1548.5697,841.738 C1550.7993,835.5632 1555.8273,835.5098 1559.5847,840.1873 C1563.4789,835.8504 1569.6378,835.6176 1571.6044,842.2915 C1574.8478,837.3689 1579.4385,836.205 1583.3382,841.5407 C1587.0408,837.2235 1592.2648,837.0801 1594.2814,843.2928 C1598.4187,838.0556 1602.0357,836.9553 1606.0227,843.4433 C1611.4342,847.2013 1612.3311,852.7374 1606.288,856.7241 C1614.5501,859.8572 1615.3369,866.3544 1608.1976,871.4805 C1614.456,875.0358 1615.2986,880.0712 1608.9515,884.3642 C1614.6091,889.7534 1613.9679,895.0979 1607.0485,898.8329 C1612.2073,903.1522 1612.032,906.8822 1607.0375,911.1924 C1614.4623,915.7636 1613.1111,920.975 1606.6001,925.1082 C1602.5047,930.4025 1597.9429,931.178 1594.1934,924.7423 C1591.2135,931.568 1585.9042,931.4545 1581.8957,925.7519 C1578.8231,932.0271 1574.842,932.842 1570.4771,926.9663 C1567.4113,931.243 1563.1723,930.9842 1560.3681,926.6589 C1556.2494,932.7737 1550.3372,931.5955 1548.0024,924.9325 C1544.8828,930.5719 1539.24,932.5676 1534.9049,926.2658 C1530.9314,931.0788 1527.6374,931.8762 1524.1376,925.7975 C1520.0008,930.5606 1516.2059,930.1471 1512.535,925.2386 C1504.4629,922.6699 1504.162,916.9901 1509.5866,911.5206 C1501.879,908.1574 1500.2542,903.613 1506.2658,897.0922 C1499.8531,894.895 1498.0129,888.9517 1504.0446,884.5505 C1498.4387,879.0288 1499.3783,874.9889 1506.3224,871.69 C1500.5038,865.2039 1501.5539,858.6596 1510.5599,856.2395 C1504.0818,850.6683 1504.5406,846.6478 1512.407,843.0919 " fill="#FFFFFF" fill-opacity="0.00000" style="stroke:#181818;stroke-width:1;"/><text fill="#000000" font-family="sans-serif" font-size="14" font-weight="bold" lengthAdjust="spacing" textLength="45.3496" x="1535.6939" y="860.6226">Azure</text></g><!--cluster Internet--><g id="cluster_Internet"><path d="M541.4143,1075.7078 C545.0727,1068.7119 549.0977,1069.7538 553.9066,1074.4818 C556.0304,1068.7219 560.9953,1068.1271 564.3204,1073.3419 C567.4446,1068.1036 572.8495,1067.8603 575.9121,1073.4081 C579.9695,1067.796 583.6679,1068.1738 588.0325,1073.0532 C590.2666,1068.2527 594.6079,1066.4691 598.2095,1071.6602 C602.2005,1066.5955 606.2354,1065.867 609.9915,1071.9093 C612.7652,1066.7515 617.6135,1066.638 621.0185,1071.1924 C625.1835,1066.2458 628.6414,1066.7895 632.1124,1071.9539 C635.8698,1067.1392 640.5598,1068.0953 642.9273,1073.4343 C646.9642,1068.7645 650.6231,1068.1482 654.6054,1073.4979 C657.7467,1068.9661 663.111,1068.7068 665.8118,1074.0003 C673.9588,1069.1354 680.0797,1070.6636 682.3687,1080.5675 C682.966,1080.0909 683.5341,1080.0705 683.7615,1080.9479 C691.5481,1085.3126 691.041,1090.1387 684.9109,1095.5954 C692.0564,1098.1352 693.0524,1104.4696 686.6336,1108.7816 C692.5369,1112.0661 694.3581,1115.8946 688.3927,1120.9017 C693.7562,1126.1318 693.2343,1130.7093 686.8601,1134.629 C692.5359,1138.7341 691.078,1144.4776 685.405,1147.2771 C691.6535,1156.9704 688.4296,1166.9203 675.3687,1166.5675 C676.625,1166.4454 677.1512,1167.112 676.761,1168.3074 C673.2962,1174.3014 668.6696,1175.1629 664.7459,1168.7519 C662.8592,1173.3789 658.3856,1175.3836 654.8471,1170.4648 C651.6486,1176.4156 646.3528,1177.8241 642.0665,1171.6075 C640.4013,1176.6746 635.596,1177.3937 632.3268,1173.3157 C629.0426,1178.4725 623.5084,1178.6042 620.7123,1172.7986 C618.3918,1179.0512 614.3916,1179.5483 609.8671,1175.0147 C606.0368,1179.7226 602.6662,1179.9731 599.0394,1174.7919 C594.8086,1179.6795 590.5104,1178.5401 587.5895,1173.3096 C584.1554,1178.2079 578.6485,1178.4374 576.0145,1172.4582 C571.6022,1177.062 566.7912,1177.2559 563.87,1170.8182 C560.5599,1175.8753 555.9096,1174.7309 553.4063,1169.9593 C543.2125,1174.7854 535.4895,1171.3631 534.3687,1159.5675 C535.6616,1159.4949 536.2143,1160.5161 535.6564,1161.6102 C527.9979,1159.0486 527.1552,1153.0208 533.3684,1148.1084 C525.7142,1145.7193 524.2811,1139.8984 528.8419,1133.6778 C522.0462,1131.4753 521.8309,1125.7575 526.6726,1121.4846 C521.3926,1115.4381 522.6476,1111.3082 530.0378,1108.5608 C524.0371,1103.0751 525.7068,1098.2096 532.9021,1095.652 C526.197,1085.5657 529.5488,1076.5518 541.3687,1073.5675 C542.5297,1074.1142 542.486,1075.1135 541.4143,1075.7078 " fill="#FFFFFF" fill-opacity="0.00000" style="stroke:#181818;stroke-width:1;"/><text fill="#000000" font-family="sans-serif" font-size="14" font-weight="bold" lengthAdjust="spacing" textLength="64.4219" x="576.1578" y="1091.5626">Internet</text></g><!--cluster Kubernetes--><g id="cluster_Kubernetes"><path d="M77.2724,354.9764 C103.7659,314.3487 139.0365,300.4241 171.5046,348.6394 C199.779,297.3027 251.343,298.0696 281.0676,347.0558 C315.4483,300.0935 351.2755,307.1363 383.9593,349.0208 C405.674,300.4946 439.99,291.2744 474.4272,336.7806 C503.9665,282.6019 554.4408,282.7517 580.8997,339.7311 C606.8923,293.1125 645.8006,293.1108 672.5556,338.9754 C702.9868,283.4276 747.5397,286.163 784.2514,332.0603 C820.3962,291.6614 855.7893,295.5982 878.4087,346.0741 C898.2427,291.0495 944.6677,295.3939 976.349,333.6328 C1006.0435,278.186 1054.8607,286.3833 1080.11,337.9431 C1101.5874,298.5457 1145.208,295.0298 1168.4677,335.9832 C1208.1774,296.6149 1240.9693,293.8497 1265.8799,350.9302 C1297.3603,298.9076 1338.4693,304.6552 1367.0576,353.822 C1391.6742,304.013 1438.233,296.728 1471.3687,344.7375 C1480.9599,340.6831 1486.9597,345.7111 1487.2418,355.4501 C1530.09,385.1361 1522.1031,426.7878 1480.6779,450.6641 C1534.6004,488.0903 1540.6576,527.474 1480.5381,564.7606 C1532.7779,588.4565 1535.9297,634.6113 1487.1231,664.9486 C1531.3416,698.6045 1525.3781,734.1994 1481.4203,762.7116 C1533.0197,798.5333 1534.3544,844.8695 1477.3899,876.8579 C1511.9007,911.5056 1509.1648,948.1332 1464.3687,971.9175 C1469.199,971.3181 1471.6225,974.9339 1469.5653,979.2294 C1439.4035,1016.7493 1409.0259,1022.758 1379.3736,978.6664 C1346.8219,1025.5687 1304.3523,1029.5155 1273.7276,976.6263 C1239.0831,1024.588 1208.2594,1023.8495 1173.563,976.6808 C1148.0711,1022.0945 1100.7319,1036.628 1068.0697,984.43 C1037.0252,1025.6889 1007.995,1030.6605 977.9958,983.3668 C941.7142,1033.1731 913.3393,1021.2743 882.6368,977.6713 C850.5547,1027.2601 813.8137,1032.9311 772.7965,988.0615 C744.129,1027.12 701.697,1037.0824 676.1749,984.7365 C644.0101,1026.3927 594.7786,1034.7137 571.1775,975.7962 C538.9951,1020.1365 508.2096,1032.2514 468.9819,983.5332 C446.5903,1031.8923 407.6837,1032.0354 378.6793,990.1503 C338.0295,1029.1815 303.8609,1030.8137 272.968,978.8194 C245.5334,1020.6159 200.0067,1024.6436 172.7586,978.6067 C128.0101,1028.4699 94.552,1023.4531 63.3687,964.9175 C71.6786,961.121 78.5969,966.6421 77.8299,975.3853 C25.8904,953.143 10.4812,905.1133 63.9634,869.1151 C18.2587,835.6852 19.3155,796.8863 67.4771,766.6759 C7.3525,739.8928 6,688.2553 61.044,654.847 C13.43,620.6781 27.1681,589.9541 67.7042,562.1164 C23.3795,525.249 16.5065,489.6619 74.5988,459.6884 C6.9431,428.2062 15.4825,373.4702 70.3687,337.7375 C80.3318,340.7135 83.5944,345.4787 77.2724,354.9764 " fill="#FFFFFF" fill-opacity="0.00000" style="stroke:#181818;stroke-width:1;"/><text fill="#000000" font-family="sans-serif" font-size="14" font-weight="bold" lengthAdjust="spacing" textLength="91.2188" x="721.7594" y="355.7326">Kubernetes</text></g><!--cluster Layer 5 (interaction)--><g id="cluster_Layer 5 (interaction)"><path d="M81.8687,477.0275 L245.7281,477.0275 A3.75,3.75 0 0 1 248.2281,479.5275 L255.2281,499.3244 L504.8687,499.3244 A2.5,2.5 0 0 1 507.3687,501.8244 L507.3687,638.8275 A2.5,2.5 0 0 1 504.8687,641.3275 L81.8687,641.3275 A2.5,2.5 0 0 1 79.3687,638.8275 L79.3687,479.5275 A2.5,2.5 0 0 1 81.8687,477.0275 " fill="#FFFFFF" fill-opacity="0.00000" style="stroke:#000000;stroke-width:1.5;"/><line style="stroke:#000000;stroke-width:1.5;" x1="79.3687" x2="255.2281" y1="499.3244" y2="499.3244"/><text fill="#000000" font-family="sans-serif" font-size="14" font-weight="bold" lengthAdjust="spacing" textLength="162.8594" x="83.3687" y="492.0226">Layer 5 (interaction)</text></g><!--cluster React Container 1--><g id="cluster_React Container 1"><path d="M105.8687,520.0275 L248.2359,520.0275 A3.75,3.75 0 0 1 250.7359,522.5275 L257.7359,542.3244 L272.8687,542.3244 A2.5,2.5 0 0 1 275.3687,544.8244 L275.3687,614.8275 A2.5,2.5 0 0 1 272.8687,617.3275 L105.8687,617.3275 A2.5,2.5 0 0 1 103.3687,614.8275 L103.3687,522.5275 A2.5,2.5 0 0 1 105.8687,520.0275 " fill="#FFFFFF" fill-opacity="0.00000" style="stroke:#000000;stroke-width:1.5;"/><line style="stroke:#000000;stroke-width:1.5;" x1="103.3687" x2="257.7359" y1="542.3244" y2="542.3244"/><text fill="#000000" font-family="sans-serif" font-size="14" font-weight="bold" lengthAdjust="spacing" textLength="141.3672" x="107.3687" y="535.0226">React Container 1</text></g><!--cluster React Container 2--><g id="cluster_React Container 2"><path d="M301.8687,520.0275 L444.2359,520.0275 A3.75,3.75 0 0 1 446.7359,522.5275 L453.7359,542.3244 L480.8687,542.3244 A2.5,2.5 0 0 1 483.3687,544.8244 L483.3687,614.8275 A2.5,2.5 0 0 1 480.8687,617.3275 L301.8687,617.3275 A2.5,2.5 0 0 1 299.3687,614.8275 L299.3687,522.5275 A2.5,2.5 0 0 1 301.8687,520.0275 " fill="#FFFFFF" fill-opacity="0.00000" style="stroke:#000000;stroke-width:1.5;"/><line style="stroke:#000000;stroke-width:1.5;" x1="299.3687" x2="453.7359" y1="542.3244" y2="542.3244"/><text fill="#000000" font-family="sans-serif" font-size="14" font-weight="bold" lengthAdjust="spacing" textLength="141.3672" x="303.3687" y="535.0226">React Container 2</text></g><!--cluster Layer 4 (Logic)--><g id="cluster_Layer 4 (Logic)"><path d="M533.8687,476.0275 L652.7066,476.0275 A3.75,3.75 0 0 1 655.2066,478.5275 L662.2066,498.3244 L1260.8687,498.3244 A2.5,2.5 0 0 1 1263.3687,500.8244 L1263.3687,953.4175 A2.5,2.5 0 0 1 1260.8687,955.9175 L533.8687,955.9175 A2.5,2.5 0 0 1 531.3687,953.4175 L531.3687,478.5275 A2.5,2.5 0 0 1 533.8687,476.0275 " fill="#FFFFFF" fill-opacity="0.00000" style="stroke:#000000;stroke-width:1.5;"/><line style="stroke:#000000;stroke-width:1.5;" x1="531.3687" x2="662.2066" y1="498.3244" y2="498.3244"/><text fill="#000000" font-family="sans-serif" font-size="14" font-weight="bold" lengthAdjust="spacing" textLength="117.8379" x="535.3687" y="491.0226">Layer 4 (Logic)</text></g><!--cluster NGINX Container--><g id="cluster_NGINX Container"><path d="M657.8687,519.0275 L791.8345,519.0275 A3.75,3.75 0 0 1 794.3345,521.5275 L801.3345,541.3244 L800.8687,541.3244 A2.5,2.5 0 0 1 803.3687,543.8244 L803.3687,615.8275 A2.5,2.5 0 0 1 800.8687,618.3275 L657.8687,618.3275 A2.5,2.5 0 0 1 655.3687,615.8275 L655.3687,521.5275 A2.5,2.5 0 0 1 657.8687,519.0275 " fill="#FFFFFF" fill-opacity="0.00000" style="stroke:#000000;stroke-width:1.5;"/><line style="stroke:#000000;stroke-width:1.5;" x1="655.3687" x2="801.3345" y1="541.3244" y2="541.3244"/><text fill="#000000" font-family="sans-serif" font-size="14" font-weight="bold" lengthAdjust="spacing" textLength="132.9658" x="659.3687" y="534.0226">NGINX Container</text></g><!--cluster Gateway Container--><g id="cluster_Gateway Container"><path d="M557.8687,690.3275 L709.5396,690.3275 A3.75,3.75 0 0 1 712.0396,692.8275 L719.0396,712.6244 L879.8687,712.6244 A2.5,2.5 0 0 1 882.3687,715.1244 L882.3687,929.4175 A2.5,2.5 0 0 1 879.8687,931.9175 L557.8687,931.9175 A2.5,2.5 0 0 1 555.3687,929.4175 L555.3687,692.8275 A2.5,2.5 0 0 1 557.8687,690.3275 " fill="#FFFFFF" fill-opacity="0.00000" style="stroke:#000000;stroke-width:1.5;"/><line style="stroke:#000000;stroke-width:1.5;" x1="555.3687" x2="719.0396" y1="712.6244" y2="712.6244"/><text fill="#000000" font-family="sans-serif" font-size="14" font-weight="bold" lengthAdjust="spacing" textLength="150.6709" x="559.3687" y="705.3226">Gateway Container</text></g><!--cluster RedisContainer--><g id="cluster_RedisContainer"><path d="M908.8687,834.6275 L1030.4615,834.6275 A3.75,3.75 0 0 1 1032.9615,837.1275 L1039.9615,856.9244 L1039.8687,856.9244 A2.5,2.5 0 0 1 1042.3687,859.4244 L1042.3687,929.4175 A2.5,2.5 0 0 1 1039.8687,931.9175 L908.8687,931.9175 A2.5,2.5 0 0 1 906.3687,929.4175 L906.3687,837.1275 A2.5,2.5 0 0 1 908.8687,834.6275 " fill="#FFFFFF" fill-opacity="0.00000" style="stroke:#000000;stroke-width:1.5;"/><line style="stroke:#000000;stroke-width:1.5;" x1="906.3687" x2="1039.9615" y1="856.9244" y2="856.9244"/><text fill="#000000" font-family="sans-serif" font-size="14" font-weight="bold" lengthAdjust="spacing" textLength="120.5928" x="910.3687" y="849.6226">RedisContainer</text></g><!--cluster MongoDB Container--><g id="cluster_MongoDB Container"><path d="M1068.8687,835.1275 L1227.3551,835.1275 A3.75,3.75 0 0 1 1229.8551,837.6275 L1236.8551,857.4244 L1236.8687,857.4244 A2.5,2.5 0 0 1 1239.3687,859.9244 L1239.3687,928.9175 A2.5,2.5 0 0 1 1236.8687,931.4175 L1068.8687,931.4175 A2.5,2.5 0 0 1 1066.3687,928.9175 L1066.3687,837.6275 A2.5,2.5 0 0 1 1068.8687,835.1275 " fill="#FFFFFF" fill-opacity="0.00000" style="stroke:#000000;stroke-width:1.5;"/><line style="stroke:#000000;stroke-width:1.5;" x1="1066.3687" x2="1236.8551" y1="857.4244" y2="857.4244"/><text fill="#000000" font-family="sans-serif" font-size="14" font-weight="bold" lengthAdjust="spacing" textLength="157.4863" x="1070.3687" y="850.1226">MongoDB Container</text></g><!--cluster Layer 1 (data)--><g id="cluster_Layer 1 (data)"><path d="M716.8687,1028.9175 L829.6568,1028.9175 A3.75,3.75 0 0 1 832.1568,1031.4175 L839.1568,1051.2144 L1027.8687,1051.2144 A2.5,2.5 0 0 1 1030.3687,1053.7144 L1030.3687,1189.7175 A2.5,2.5 0 0 1 1027.8687,1192.2175 L716.8687,1192.2175 A2.5,2.5 0 0 1 714.3687,1189.7175 L714.3687,1031.4175 A2.5,2.5 0 0 1 716.8687,1028.9175 " fill="#FFFFFF" fill-opacity="0.00000" style="stroke:#000000;stroke-width:1.5;"/><line style="stroke:#000000;stroke-width:1.5;" x1="714.3687" x2="839.1568" y1="1051.2144" y2="1051.2144"/><text fill="#000000" font-family="sans-serif" font-size="14" font-weight="bold" lengthAdjust="spacing" textLength="111.7881" x="718.3687" y="1043.9126">Layer 1 (data)</text></g><!--cluster Database Service--><g id="cluster_Database Service"><path d="M746.5808,1081.1983 C751.5592,1072.3479 758.0065,1069.5173 765.4175,1078.6503 C770.9229,1069.8784 776.0803,1068.9291 782.5877,1077.6678 C786.9915,1067.9925 794.9259,1066.0842 802.0685,1074.7604 C807.9344,1065.7127 815.5762,1066.4624 820.9138,1075.3165 C824.1346,1065.3995 833.1579,1063.9974 839.5662,1071.9983 C843.892,1063.8248 851.9009,1064.5914 856.5915,1071.589 C860.666,1064.1006 868.7352,1063.7336 873.5355,1070.7406 C878.8447,1060.8763 885.4024,1061.1447 891.5026,1069.9807 C897.4677,1060.9504 905.0288,1062.8885 909.2488,1071.715 C915.3296,1064.7515 924.8861,1064.2314 927.9311,1074.9268 C932.8314,1067.9582 940.7065,1068.349 944.4322,1076.2319 C951.6504,1068.8209 959.6394,1069.3374 964.3326,1079.1495 C969.4212,1070.6637 975.3646,1070.5968 980.4047,1079.1953 C986.1511,1069.2974 994.9922,1070.8971 999.8419,1080.1075 C1012.5315,1084.0262 1012.3854,1093.834 1003.8496,1101.6936 C1015.5644,1106.2667 1017.1086,1115.2622 1007.2753,1123.2584 C1014.5721,1129.632 1013.2171,1137.7606 1003.7911,1140.8155 C1012.9657,1150.965 1011.0103,1158.0548 998.4651,1162.9866 C993.7033,1168.9537 987.8229,1169.221 983.4431,1162.5332 C978.1115,1172.0845 969.5781,1173.7319 962.9921,1163.8535 C957.9796,1171.4438 950.699,1169.7792 947.5767,1161.9623 C941.363,1171.6196 934.5486,1171.1556 928.2946,1162.0037 C923.1509,1172.3846 914.9755,1173.0142 908.6615,1163.138 C903.5336,1170.4253 897.8349,1170.4374 893.0981,1162.7321 C888.8477,1171.8598 880.6133,1173.3772 874.2682,1164.9833 C866.7095,1173.4334 861.0282,1171.2216 855.7325,1162.5355 C851.5429,1171.2091 842.868,1172.5126 837.2508,1164.0778 C832.5731,1172.6566 825.6875,1170.9685 821.001,1164.0871 C815.6733,1173.9079 806.7974,1171.3099 802.0937,1163.421 C795.1913,1172.4516 787.5453,1171.2034 783.2716,1160.8664 C777.9003,1169.2816 771.8523,1170.6095 764.7837,1162.8006 C758.5947,1171.5788 750.6591,1170.7997 746.8958,1160.5234 C737.6241,1153.7881 737.3471,1147.3297 746.8171,1140.5207 C737.5714,1136.0053 737.5912,1126.6879 746.3342,1121.7107 C735.7076,1114.1003 736.7757,1106.4047 748.4326,1101.0584 C737.7569,1095.1405 738.2128,1088.8919 746.5808,1081.1983 " fill="#FFFFFF" fill-opacity="0.00000" style="stroke:#181818;stroke-width:1;"/><text fill="#000000" font-family="sans-serif" font-size="14" font-weight="bold" lengthAdjust="spacing" textLength="137.5801" x="803.5787" y="1097.9126">Database Service</text></g><!--entity identity--><g id="elem_identity"><rect fill="#F1F1F1" height="46.2969" rx="2.5" ry="2.5" style="stroke:#181818;stroke-width:0.5;" width="77.2969" x="1519.7187" y="869.6275"/><rect fill="#F1F1F1" height="10" style="stroke:#181818;stroke-width:0.5;" width="15" x="1577.0156" y="874.6275"/><rect fill="#F1F1F1" height="2" style="stroke:#181818;stroke-width:0.5;" width="4" x="1575.0156" y="876.6275"/><rect fill="#F1F1F1" height="2" style="stroke:#181818;stroke-width:0.5;" width="4" x="1575.0156" y="880.6275"/><text fill="#000000" font-family="sans-serif" font-size="14" lengthAdjust="spacing" textLength="37.2969" x="1534.7187" y="902.6226">ADFS</text></g><!--entity externalCatalog--><g id="elem_externalCatalog"><ellipse cx="608.3687" cy="1129.5675" fill="#F1F1F1" rx="8" ry="8" style="stroke:#181818;stroke-width:0.5;"/><text fill="#000000" font-family="sans-serif" font-size="14" lengthAdjust="spacing" textLength="116.5459" x="550.0958" y="1159.5626">External Catalog</text></g><!--entity ingress--><g id="elem_ingress"><path d="M370.872,368.7375 L370.872,392.7375 M370.872,380.7375 L387.872,380.7375 " fill="#FFFFFF" fill-opacity="0.00000" style="stroke:#181818;stroke-width:0.5;"/><ellipse cx="399.872" cy="380.7375" fill="#F1F1F1" rx="12" ry="12" style="stroke:#181818;stroke-width:0.5;"/><text fill="#000000" font-family="sans-serif" font-size="14" lengthAdjust="spacing" textLength="50.6064" x="366.0687" y="409.7326">ingress</text></g><!--entity loki--><g id="elem_loki"><path d="M1279.1387,880.1275 C1279.1387,870.1275 1301.3648,870.1275 1301.3648,870.1275 C1301.3648,870.1275 1323.5909,870.1275 1323.5909,880.1275 L1323.5909,905.4244 C1323.5909,915.4244 1301.3648,915.4244 1301.3648,915.4244 C1301.3648,915.4244 1279.1387,915.4244 1279.1387,905.4244 L1279.1387,880.1275 " fill="#F1F1F1" style="stroke:#181818;stroke-width:0.5;"/><path d="M1279.1387,880.1275 C1279.1387,890.1275 1301.3648,890.1275 1301.3648,890.1275 C1301.3648,890.1275 1323.5909,890.1275 1323.5909,880.1275 " fill="#FFFFFF" fill-opacity="0.00000" style="stroke:#181818;stroke-width:0.5;"/><text fill="#000000" font-family="sans-serif" font-size="14" lengthAdjust="spacing" textLength="24.4521" x="1289.1387" y="907.1226">loki</text></g><!--entity prometheus--><g id="elem_prometheus"><path d="M1359.0687,880.1275 C1359.0687,870.1275 1411.3695,870.1275 1411.3695,870.1275 C1411.3695,870.1275 1463.6703,870.1275 1463.6703,880.1275 L1463.6703,905.4244 C1463.6703,915.4244 1411.3695,915.4244 1411.3695,915.4244 C1411.3695,915.4244 1359.0687,915.4244 1359.0687,905.4244 L1359.0687,880.1275 " fill="#F1F1F1" style="stroke:#181818;stroke-width:0.5;"/><path d="M1359.0687,880.1275 C1359.0687,890.1275 1411.3695,890.1275 1411.3695,890.1275 C1411.3695,890.1275 1463.6703,890.1275 1463.6703,880.1275 " fill="#FFFFFF" fill-opacity="0.00000" style="stroke:#181818;stroke-width:0.5;"/><text fill="#000000" font-family="sans-serif" font-size="14" lengthAdjust="spacing" textLength="84.6016" x="1369.0687" y="907.1226">prometheus</text></g><!--entity ui--><g id="elem_ui"><rect fill="#F1F1F1" height="46.2969" rx="2.5" ry="2.5" style="stroke:#181818;stroke-width:0.5;" width="139.0391" x="119.8487" y="555.0275"/><rect fill="#F1F1F1" height="10" style="stroke:#181818;stroke-width:0.5;" width="15" x="238.8878" y="560.0275"/><rect fill="#F1F1F1" height="2" style="stroke:#181818;stroke-width:0.5;" width="4" x="236.8878" y="562.0275"/><rect fill="#F1F1F1" height="2" style="stroke:#181818;stroke-width:0.5;" width="4" x="236.8878" y="566.0275"/><text fill="#000000" font-family="sans-serif" font-size="14" lengthAdjust="spacing" textLength="99.0391" x="134.8487" y="588.0226">User Interface</text></g><!--entity admin--><g id="elem_admin"><rect fill="#F1F1F1" height="46.2969" rx="2.5" ry="2.5" style="stroke:#181818;stroke-width:0.5;" width="151.9932" x="315.3687" y="555.0275"/><rect fill="#F1F1F1" height="10" style="stroke:#181818;stroke-width:0.5;" width="15" x="447.3619" y="560.0275"/><rect fill="#F1F1F1" height="2" style="stroke:#181818;stroke-width:0.5;" width="4" x="445.3619" y="562.0275"/><rect fill="#F1F1F1" height="2" style="stroke:#181818;stroke-width:0.5;" width="4" x="445.3619" y="566.0275"/><text fill="#000000" font-family="sans-serif" font-size="14" lengthAdjust="spacing" textLength="111.9932" x="330.3687" y="588.0226">Admin Interface</text></g><!--entity Nginx--><g id="elem_Nginx"><path d="M708.8687,558.0275 L708.8687,582.0275 M708.8687,570.0275 L725.8687,570.0275 " fill="#FFFFFF" fill-opacity="0.00000" style="stroke:#181818;stroke-width:0.5;"/><ellipse cx="737.8687" cy="570.0275" fill="#F1F1F1" rx="12" ry="12" style="stroke:#181818;stroke-width:0.5;"/><text fill="#000000" font-family="sans-serif" font-size="14" lengthAdjust="spacing" textLength="40.4072" x="709.1651" y="599.0226">Nginx</text></g><!--entity Plugins--><g id="elem_Plugins"><rect fill="#F1F1F1" height="46.2969" rx="2.5" ry="2.5" style="stroke:#181818;stroke-width:0.5;" width="187.2461" x="571.7487" y="869.6275"/><rect fill="#F1F1F1" height="10" style="stroke:#181818;stroke-width:0.5;" width="15" x="738.9948" y="874.6275"/><rect fill="#F1F1F1" height="2" style="stroke:#181818;stroke-width:0.5;" width="4" x="736.9948" y="876.6275"/><rect fill="#F1F1F1" height="2" style="stroke:#181818;stroke-width:0.5;" width="4" x="736.9948" y="880.6275"/><text fill="#000000" font-family="sans-serif" font-size="14" lengthAdjust="spacing" textLength="147.2461" x="586.7487" y="902.6226">Open Catalogi plugin</text></g><!--entity Gateway--><g id="elem_Gateway"><rect fill="#F1F1F1" height="46.2969" rx="2.5" ry="2.5" style="stroke:#181818;stroke-width:0.5;" width="137.6377" x="728.5487" y="725.3275"/><rect fill="#F1F1F1" height="10" style="stroke:#181818;stroke-width:0.5;" width="15" x="846.1864" y="730.3275"/><rect fill="#F1F1F1" height="2" style="stroke:#181818;stroke-width:0.5;" width="4" x="844.1864" y="732.3275"/><rect fill="#F1F1F1" height="2" style="stroke:#181818;stroke-width:0.5;" width="4" x="844.1864" y="736.3275"/><text fill="#000000" font-family="sans-serif" font-size="14" lengthAdjust="spacing" textLength="97.6377" x="743.5487" y="758.3226">Web Gateway</text></g><!--entity ORM--><g id="elem_ORM"><rect fill="#F1F1F1" height="46.2969" rx="2.5" ry="2.5" style="stroke:#181818;stroke-width:0.5;" width="72.8262" x="793.9587" y="869.6275"/><rect fill="#F1F1F1" height="10" style="stroke:#181818;stroke-width:0.5;" width="15" x="846.7849" y="874.6275"/><rect fill="#F1F1F1" height="2" style="stroke:#181818;stroke-width:0.5;" width="4" x="844.7849" y="876.6275"/><rect fill="#F1F1F1" height="2" style="stroke:#181818;stroke-width:0.5;" width="4" x="844.7849" y="880.6275"/><text fill="#000000" font-family="sans-serif" font-size="14" lengthAdjust="spacing" textLength="32.8262" x="808.9587" y="902.6226">ORM</text></g><!--entity Redis--><g id="elem_Redis"><rect fill="#F1F1F1" height="46.2969" rx="2.5" ry="2.5" style="stroke:#181818;stroke-width:0.5;" width="78.4111" x="922.1587" y="869.6275"/><rect fill="#F1F1F1" height="10" style="stroke:#181818;stroke-width:0.5;" width="15" x="980.5699" y="874.6275"/><rect fill="#F1F1F1" height="2" style="stroke:#181818;stroke-width:0.5;" width="4" x="978.5699" y="876.6275"/><rect fill="#F1F1F1" height="2" style="stroke:#181818;stroke-width:0.5;" width="4" x="978.5699" y="880.6275"/><text fill="#000000" font-family="sans-serif" font-size="14" lengthAdjust="spacing" textLength="38.4111" x="937.1587" y="902.6226">Redis</text></g><!--entity MognoDB--><g id="elem_MognoDB"><path d="M1082.4687,880.1275 C1082.4687,870.1275 1128.3711,870.1275 1128.3711,870.1275 C1128.3711,870.1275 1174.2734,870.1275 1174.2734,880.1275 L1174.2734,905.4244 C1174.2734,915.4244 1128.3711,915.4244 1128.3711,915.4244 C1128.3711,915.4244 1082.4687,915.4244 1082.4687,905.4244 L1082.4687,880.1275 " fill="#F1F1F1" style="stroke:#181818;stroke-width:0.5;"/><path d="M1082.4687,880.1275 C1082.4687,890.1275 1128.3711,890.1275 1128.3711,890.1275 C1128.3711,890.1275 1174.2734,890.1275 1174.2734,880.1275 " fill="#FFFFFF" fill-opacity="0.00000" style="stroke:#181818;stroke-width:0.5;"/><text fill="#000000" font-family="sans-serif" font-size="14" lengthAdjust="spacing" textLength="67.3545" x="1092.4687" y="907.1226">MongoDB</text></g><!--entity db--><g id="elem_db"><path d="M754.1487,1116.9175 C754.1487,1106.9175 872.3719,1106.9175 872.3719,1106.9175 C872.3719,1106.9175 990.595,1106.9175 990.595,1116.9175 L990.595,1142.2144 C990.595,1152.2144 872.3719,1152.2144 872.3719,1152.2144 C872.3719,1152.2144 754.1487,1152.2144 754.1487,1142.2144 L754.1487,1116.9175 " fill="#F1F1F1" style="stroke:#181818;stroke-width:0.5;"/><path d="M754.1487,1116.9175 C754.1487,1126.9175 872.3719,1126.9175 872.3719,1126.9175 C872.3719,1126.9175 990.595,1126.9175 990.595,1116.9175 " fill="#FFFFFF" fill-opacity="0.00000" style="stroke:#181818;stroke-width:0.5;"/><text fill="#000000" font-family="sans-serif" font-size="14" lengthAdjust="spacing" textLength="216.4463" x="764.1487" y="1143.9126">Postgress/MsSQL/MySql/Oracle</text></g><!--entity user--><g id="elem_user"><ellipse cx="94.3638" cy="63.9375" fill="#F1F1F1" rx="8" ry="8" style="stroke:#181818;stroke-width:0.5;"/><path d="M94.3638,71.9375 L94.3638,98.9375 M81.3638,79.9375 L107.3638,79.9375 M94.3638,98.9375 L81.3638,113.9375 M94.3638,98.9375 L107.3638,113.9375 " fill="#FFFFFF" fill-opacity="0.00000" style="stroke:#181818;stroke-width:0.5;"/><text fill="#000000" font-family="sans-serif" font-size="14" lengthAdjust="spacing" textLength="31.9102" x="78.4087" y="128.4326">User</text></g><!--entity f5extern--><g id="elem_f5extern"><ellipse cx="94.3687" cy="237.7375" fill="#F1F1F1" rx="8" ry="8" style="stroke:#181818;stroke-width:0.5;"/><text fill="#000000" font-family="sans-serif" font-size="14" lengthAdjust="spacing" textLength="142.2832" x="23.2271" y="267.7326">F5 extern (port 443)</text></g><!--entity adminUser--><g id="elem_adminUser"><ellipse cx="374.3709" cy="63.9375" fill="#F1F1F1" rx="8" ry="8" style="stroke:#181818;stroke-width:0.5;"/><path d="M374.3709,71.9375 L374.3709,98.9375 M361.3709,79.9375 L387.3709,79.9375 M374.3709,98.9375 L361.3709,113.9375 M374.3709,98.9375 L387.3709,113.9375 " fill="#FFFFFF" fill-opacity="0.00000" style="stroke:#181818;stroke-width:0.5;"/><text fill="#000000" font-family="sans-serif" font-size="14" lengthAdjust="spacing" textLength="44.8643" x="351.9387" y="128.4326">Admin</text></g><!--entity f5intern--><g id="elem_f5intern"><ellipse cx="376.3687" cy="237.7375" fill="#F1F1F1" rx="8" ry="8" style="stroke:#181818;stroke-width:0.5;"/><text fill="#000000" font-family="sans-serif" font-size="14" lengthAdjust="spacing" textLength="138.1475" x="307.295" y="267.7326">F5 intern (port 443)</text></g><!--entity externalCatalouge--><g id="elem_externalCatalouge"><ellipse cx="570.3674" cy="63.9375" fill="#F1F1F1" rx="8" ry="8" style="stroke:#181818;stroke-width:0.5;"/><path d="M570.3674,71.9375 L570.3674,98.9375 M557.3674,79.9375 L583.3674,79.9375 M570.3674,98.9375 L557.3674,113.9375 M570.3674,98.9375 L583.3674,113.9375 " fill="#FFFFFF" fill-opacity="0.00000" style="stroke:#181818;stroke-width:0.5;"/><text fill="#000000" font-family="sans-serif" font-size="14" lengthAdjust="spacing" textLength="128.8574" x="505.9387" y="128.4326">Externe Catalogus</text></g><!--entity hipp--><g id="elem_hipp"><ellipse cx="569.3687" cy="237.7375" fill="#F1F1F1" rx="8" ry="8" style="stroke:#181818;stroke-width:0.5;"/><text fill="#000000" font-family="sans-serif" font-size="14" lengthAdjust="spacing" textLength="142.8301" x="497.9537" y="267.7326">Hipp (outd of scope)</text></g><!--link externalCatalouge to hipp--><g id="link_externalCatalouge_hipp"><path d="M570.0652,137.9373 C569.8252,170.9973 569.5884,204.7476 569.4684,222.8776 " fill="#FFFFFF" fill-opacity="0.00000" id="externalCatalouge-hipp" style="stroke:#181818;stroke-width:1;stroke-dasharray:7.0,7.0;"/><polygon fill="#181818" points="570.1087,131.9375,566.0435,140.9082,570.0724,136.9374,574.0433,140.9663,570.1087,131.9375" style="stroke:#181818;stroke-width:1;"/><polygon fill="#181818" points="569.4287,228.8775,573.4882,219.9042,569.4618,223.8776,565.4884,219.8512,569.4287,228.8775" style="stroke:#181818;stroke-width:1;"/><text fill="#000000" font-family="sans-serif" font-size="13" lengthAdjust="spacing" textLength="30.4307" x="570.3687" y="174.8044">PKIO</text></g><!--link user to f5extern--><g id="link_user_f5extern"><path d="M94.3687,137.9375 C94.3687,170.9975 94.3687,204.7475 94.3687,222.8775 " fill="#FFFFFF" fill-opacity="0.00000" id="user-f5extern" style="stroke:#181818;stroke-width:1;stroke-dasharray:7.0,7.0;"/><polygon fill="#181818" points="94.3687,131.9375,90.3687,140.9375,94.3687,136.9375,98.3687,140.9375,94.3687,131.9375" style="stroke:#181818;stroke-width:1;"/><polygon fill="#181818" points="94.3687,228.8775,98.3687,219.8775,94.3687,223.8775,90.3687,219.8775,94.3687,228.8775" style="stroke:#181818;stroke-width:1;"/><text fill="#000000" font-family="sans-serif" font-size="13" lengthAdjust="spacing" textLength="118.936" x="95.3687" y="174.8044">Browser ANONIEM</text></g><!--link adminUser to f5intern--><g id="link_adminUser_f5intern"><path d="M374.9822,137.9369 C375.4422,170.9969 375.9127,204.7481 376.1727,222.8781 " fill="#FFFFFF" fill-opacity="0.00000" id="adminUser-f5intern" style="stroke:#181818;stroke-width:1;stroke-dasharray:7.0,7.0;"/><polygon fill="#181818" points="374.8987,131.9375,371.0243,140.9923,374.9683,136.937,379.0236,140.881,374.8987,131.9375" style="stroke:#181818;stroke-width:1;"/><polygon fill="#181818" points="376.2587,228.8775,380.1293,219.8211,376.187,223.878,372.1301,219.9358,376.2587,228.8775" style="stroke:#181818;stroke-width:1;"/><text fill="#000000" font-family="sans-serif" font-size="13" lengthAdjust="spacing" textLength="154.2925" x="376.3687" y="174.8044">Browser MET JWT Claim</text></g><!--link f5extern to ingress--><g id="link_f5extern_ingress"><path d="M94.6318,252.5637 C95.1718,267.7637 98.3787,295.3675 117.3687,313.7375 C187.3287,381.3975 306.4188,388.8043 359.9388,388.6543 " fill="#FFFFFF" fill-opacity="0.00000" id="f5extern-ingress" style="stroke:#181818;stroke-width:1;stroke-dasharray:7.0,7.0;"/><polygon fill="#181818" points="94.4187,246.5675,90.7408,255.7038,94.5962,251.5643,98.7357,255.4198,94.4187,246.5675" style="stroke:#181818;stroke-width:1;"/><polygon fill="#181818" points="365.9387,388.6375,356.9276,384.6627,360.9387,388.6515,356.95,392.6627,365.9387,388.6375" style="stroke:#181818;stroke-width:1;"/><text fill="#000000" font-family="sans-serif" font-size="13" lengthAdjust="spacing" textLength="255.8359" x="118.3687" y="309.8044">Alleen openbare endpoints en objecten</text></g><!--link f5intern to ingress--><g id="link_f5intern_ingress"><path d="M377.7299,252.3073 C379.8999,273.8573 384.9472,324.0577 388.4072,358.3977 " fill="#FFFFFF" fill-opacity="0.00000" id="f5intern-ingress" style="stroke:#181818;stroke-width:1;stroke-dasharray:7.0,7.0;"/><polygon fill="#181818" points="377.1287,246.3375,374.0506,255.693,377.6297,251.3123,382.0103,254.8915,377.1287,246.3375" style="stroke:#181818;stroke-width:1;"/><polygon fill="#181818" points="389.0087,364.3675,392.0863,355.0118,388.5075,359.3927,384.1266,355.8138,389.0087,364.3675" style="stroke:#181818;stroke-width:1;"/><text fill="#000000" font-family="sans-serif" font-size="13" lengthAdjust="spacing" textLength="92.6631" x="384.3687" y="309.8044">Alle endpionts</text></g><!--link hipp to ingress--><g id="link_hipp_ingress"><path d="M556.7648,250.4325 C541.9048,264.1825 513.8187,289.8475 485.3687,313.7375 C462.6087,332.8475 440.6899,350.0733 421.5899,364.8033 " fill="#FFFFFF" fill-opacity="0.00000" id="hipp-ingress" style="stroke:#181818;stroke-width:1;stroke-dasharray:7.0,7.0;"/><polygon fill="#181818" points="561.1687,246.3575,551.8462,249.534,557.4988,249.7533,557.2795,255.4059,561.1687,246.3575" style="stroke:#181818;stroke-width:1;"/><polygon fill="#181818" points="416.8387,368.4675,426.4083,366.1387,420.7981,365.414,421.5228,359.8038,416.8387,368.4675" style="stroke:#181818;stroke-width:1;"/><text fill="#000000" font-family="sans-serif" font-size="13" lengthAdjust="spacing" textLength="161.7573" x="504.3687" y="309.8044">Catalogus uitwisselingen</text></g><!--link ingress to ui--><g id="link_ingress_ui"><path d="M360.9799,415.4031 C349.5599,425.0231 340.5587,432.6275 328.3687,443.0275 C315.4187,454.0675 311.8587,456.4775 299.3687,468.0275 C267.9687,497.0775 237.3303,527.8544 215.4503,550.2644 " fill="#FFFFFF" fill-opacity="0.00000" id="ingress-ui" style="stroke:#181818;stroke-width:1;stroke-dasharray:7.0,7.0;"/><polygon fill="#181818" points="365.5687,411.5375,356.1084,414.2766,361.7447,414.7588,361.2625,420.3951,365.5687,411.5375" style="stroke:#181818;stroke-width:1;"/><polygon fill="#181818" points="211.2587,554.5575,220.4082,550.9122,214.7517,550.9799,214.684,545.3235,211.2587,554.5575" style="stroke:#181818;stroke-width:1;"/><text fill="#000000" font-family="sans-serif" font-size="13" lengthAdjust="spacing" textLength="53.6567" x="329.3687" y="456.0944">Exposes</text></g><!--link ingress to admin--><g id="link_ingress_admin"><path d="M391.3687,419.2275 C391.3687,455.5075 391.3687,512.9675 391.3687,548.7175 " fill="#FFFFFF" fill-opacity="0.00000" id="ingress-admin" style="stroke:#181818;stroke-width:1;stroke-dasharray:7.0,7.0;"/><polygon fill="#181818" points="391.3687,413.2275,387.3687,422.2275,391.3687,418.2275,395.3687,422.2275,391.3687,413.2275" style="stroke:#181818;stroke-width:1;"/><polygon fill="#181818" points="391.3687,554.7175,395.3687,545.7175,391.3687,549.7175,387.3687,545.7175,391.3687,554.7175" style="stroke:#181818;stroke-width:1;"/><text fill="#000000" font-family="sans-serif" font-size="13" lengthAdjust="spacing" textLength="53.6567" x="392.3687" y="456.0944">Exposes</text></g><!--link ingress to Nginx--><g id="link_ingress_Nginx"><path d="M422.297,407.0254 C485.467,442.0254 637.2406,526.1293 699.3906,560.5693 " fill="#FFFFFF" fill-opacity="0.00000" id="ingress-Nginx" style="stroke:#181818;stroke-width:1;stroke-dasharray:7.0,7.0;"/><polygon fill="#181818" points="417.0487,404.1175,422.9826,411.9781,421.4223,406.5407,426.8597,404.9804,417.0487,404.1175" style="stroke:#181818;stroke-width:1;"/><polygon fill="#181818" points="704.6387,563.4775,698.7054,555.6165,700.2653,561.054,694.8278,562.6139,704.6387,563.4775" style="stroke:#181818;stroke-width:1;"/><text fill="#000000" font-family="sans-serif" font-size="13" lengthAdjust="spacing" textLength="53.6567" x="510.3687" y="456.0944">Exposes</text></g><!--link Nginx to Gateway--><g id="link_Nginx_Gateway"><path d="M741.076,608.1408 C754.176,640.5708 773.1911,687.6344 786.0711,719.5144 " fill="#FFFFFF" fill-opacity="0.00000" id="Nginx-Gateway" style="stroke:#181818;stroke-width:1;stroke-dasharray:7.0,7.0;"/><polygon fill="#181818" points="738.8287,602.5775,738.4908,612.4206,740.7014,607.2135,745.9085,609.4242,738.8287,602.5775" style="stroke:#181818;stroke-width:1;"/><polygon fill="#181818" points="788.3187,725.0775,788.6561,715.2344,786.4457,720.4416,781.2386,718.2312,788.3187,725.0775" style="stroke:#181818;stroke-width:1;"/><text fill="#000000" font-family="sans-serif" font-size="13" lengthAdjust="spacing" textLength="32.2842" x="768.3687" y="670.3944">Runs</text></g><!--link Gateway to Plugins--><g id="link_Gateway_Plugins"><path d="M753.8332,775.3158 C741.3632,783.6658 733.0087,790.5075 722.3687,801.6275 C702.9087,821.9575 689.2436,844.6129 679.0936,863.9829 " fill="#FFFFFF" fill-opacity="0.00000" id="Gateway-Plugins" style="stroke:#181818;stroke-width:1;stroke-dasharray:7.0,7.0;"/><polygon fill="#181818" points="758.8187,771.9775,749.1149,773.6613,754.6641,774.7595,753.566,780.3087,758.8187,771.9775" style="stroke:#181818;stroke-width:1;"/><polygon fill="#181818" points="676.3087,869.2975,684.0291,863.1822,678.6294,864.8687,676.943,859.4691,676.3087,869.2975" style="stroke:#181818;stroke-width:1;"/><text fill="#000000" font-family="sans-serif" font-size="13" lengthAdjust="spacing" textLength="77.1304" x="723.3687" y="814.6944">Implements</text></g><!--link Gateway to identity--><g id="link_Gateway_identity"><path d="M872.4587,748.6482 C1022.1787,747.9182 1365.5887,751.7975 1471.3687,801.6275 C1502.8487,816.4575 1525.518,843.0491 1540.668,864.5991 " fill="#FFFFFF" fill-opacity="0.00000" id="Gateway-identity" style="stroke:#181818;stroke-width:1;stroke-dasharray:7.0,7.0;"/><polygon fill="#181818" points="866.4587,748.6775,875.4781,752.6336,871.4587,748.6531,875.4391,744.6337,866.4587,748.6775" style="stroke:#181818;stroke-width:1;"/><polygon fill="#181818" points="1544.1187,869.5075,1542.215,859.8444,1541.2431,865.4171,1535.6704,864.4453,1544.1187,869.5075" style="stroke:#181818;stroke-width:1;"/><text fill="#000000" font-family="sans-serif" font-size="13" lengthAdjust="spacing" textLength="77.1304" x="1497.3687" y="814.6944">Implements</text></g><!--link Gateway to loki--><g id="link_Gateway_loki"><path d="M866.3987,755.9175 C946.4287,764.9975 1081.2987,785.2875 1190.3687,826.6275 C1222.9687,838.9775 1252.1054,857.067 1273.7654,871.967 " fill="#FFFFFF" fill-opacity="0.00000" id="Gateway-to-loki" style="stroke:#181818;stroke-width:1;stroke-dasharray:7.0,7.0;"/><polygon fill="#181818" points="1278.7087,875.3675,1273.5608,866.9712,1274.5893,872.5337,1269.0267,873.5623,1278.7087,875.3675" style="stroke:#181818;stroke-width:1;"/><text fill="#000000" font-family="sans-serif" font-size="13" lengthAdjust="spacing" textLength="47.4043" x="1160.3687" y="814.6944">Logs to</text></g><!--link Gateway to prometheus--><g id="link_Gateway_prometheus"><path d="M866.5887,753.6675 C993.9287,762.2875 1259.7587,784.8175 1341.3687,826.6275 C1361.7587,837.0675 1376.509,850.7152 1389.459,865.1952 " fill="#FFFFFF" fill-opacity="0.00000" id="Gateway-to-prometheus" style="stroke:#181818;stroke-width:1;stroke-dasharray:7.0,7.0;"/><polygon fill="#181818" points="1393.4587,869.6675,1390.4406,860.2925,1390.1256,865.9406,1384.4775,865.6255,1393.4587,869.6675" style="stroke:#181818;stroke-width:1;"/><text fill="#000000" font-family="sans-serif" font-size="13" lengthAdjust="spacing" textLength="67.6343" x="1319.3687" y="814.6944">Reports to</text></g><!--link Plugins to externalCatalog--><g id="link_Plugins_externalCatalog"><path d="M658.4838,922.1183 C646.1738,972.8483 619.5435,1082.5367 611.7235,1114.7667 " fill="#FFFFFF" fill-opacity="0.00000" id="Plugins-externalCatalog" style="stroke:#181818;stroke-width:1;stroke-dasharray:7.0,7.0;"/><polygon fill="#181818" points="659.8987,916.2875,653.8892,924.0904,658.7197,921.1465,661.6636,925.9769,659.8987,916.2875" style="stroke:#181818;stroke-width:1;"/><polygon fill="#181818" points="610.3087,1120.5975,616.3181,1112.7944,611.4877,1115.7385,608.5436,1110.9081,610.3087,1120.5975" style="stroke:#181818;stroke-width:1;"/><text fill="#000000" font-family="sans-serif" font-size="13" lengthAdjust="spacing" textLength="157.5298" x="640.3687" y="1008.9844">exchanges based on pki</text></g><!--link Gateway to MognoDB--><g id="link_Gateway_MognoDB"><path d="M866.2587,770.0575 C910.0587,784.0475 967.5187,804.0575 1016.3687,826.6275 C1043.5287,839.1675 1067.6034,853.0993 1089.3634,866.6293 " fill="#FFFFFF" fill-opacity="0.00000" id="Gateway-to-MognoDB" style="stroke:#181818;stroke-width:1;stroke-dasharray:7.0,7.0;"/><polygon fill="#181818" points="1094.4587,869.7975,1088.9278,861.6483,1090.2126,867.1573,1084.7036,868.4421,1094.4587,869.7975" style="stroke:#181818;stroke-width:1;"/><text fill="#000000" font-family="sans-serif" font-size="13" lengthAdjust="spacing" textLength="36.0166" x="993.3687" y="814.6944">Index</text></g><!--link Gateway to Redis--><g id="link_Gateway_Redis"><path d="M823.3587,772.0275 C854.0587,798.6675 900.3166,838.7956 930.9766,865.3956 " fill="#FFFFFF" fill-opacity="0.00000" id="Gateway-to-Redis" style="stroke:#181818;stroke-width:1;stroke-dasharray:7.0,7.0;"/><polygon fill="#181818" points="935.5087,869.3275,931.3319,860.4082,931.732,866.0509,926.0893,866.451,935.5087,869.3275" style="stroke:#181818;stroke-width:1;"/><text fill="#000000" font-family="sans-serif" font-size="13" lengthAdjust="spacing" textLength="40.4282" x="875.3687" y="814.6944">Cache</text></g><!--link Gateway to ORM--><g id="link_Gateway_ORM"><path d="M802.5987,772.0275 C808.7787,798.6675 817.643,836.8827 823.813,863.4827 " fill="#FFFFFF" fill-opacity="0.00000" id="Gateway-to-ORM" style="stroke:#181818;stroke-width:1;stroke-dasharray:7.0,7.0;"/><polygon fill="#181818" points="825.1687,869.3275,827.0317,859.6564,824.0389,864.4568,819.2386,861.4641,825.1687,869.3275" style="stroke:#181818;stroke-width:1;"/><text fill="#000000" font-family="sans-serif" font-size="13" lengthAdjust="spacing" textLength="34.6455" x="813.3687" y="814.6944">Store</text></g><!--link ORM to db--><g id="link_ORM_db"><path d="M834.3987,916.2875 C842.4487,961.2775 859.3718,1055.9113 867.3618,1100.5613 " fill="#FFFFFF" fill-opacity="0.00000" id="ORM-to-db" style="stroke:#181818;stroke-width:1;stroke-dasharray:7.0,7.0;"/><polygon fill="#181818" points="868.4187,1106.4675,870.7708,1096.9036,867.538,1101.5457,862.8959,1098.3128,868.4187,1106.4675" style="stroke:#181818;stroke-width:1;"/><text fill="#000000" font-family="sans-serif" font-size="13" lengthAdjust="spacing" textLength="43.437" x="852.3687" y="1008.9844">Persist</text></g><text fill="#888888" font-family="sans-serif" font-size="10" lengthAdjust="spacing" textLength="165.3857" x="721.4756" y="1207.4997">Common Gateway | Components</text><!--SRC=[TLHHKzim37xthz3rgNk1OuENt6vt1GhhHbj6uTWTnuEJgAb7QcUnCzen_ljaEMcQ5fxYI9y-I_8dEULoZ61Qe8OpwMHkCYNcnZWi8pWpowNHS2aTFiir_FE6mcZKpee5ohJ6D2OX4sTAwDrPB7iWBLHq44eJrrmc2BsB4y0L_Mde5wPqS7pywGC3voV1tZ0CqgNIx97-TBVFmtzly0Jx9fKXqs9JMcKP5YwJUR1M6MwJVrL50NrJkHJC76nY2Wpa2t88aL10IXd-hKhilGXu69nVp1x10rHARL1kBLuti16dWuwGMrSCw_kRjDv8AlCa3SltAcOMjCGZObFfL9Phw2cTbMX3JVLPf1GUIukGcoVL_XMbMQ9RO4NFLCZaIMQKnvLSOmadqEVSg6NAQAhrfKNS85dfZRMJIXFso7lXmJy8Z9g2GlMLyYc_6_anHFBBxeRo8rEqBtadkMFeNv4aasvQaylHv6TBpjHjMoQPqYjk2fywQJLQxiO-TFGFHLvHuADdkEQZ9SWzniqaiAS- - -2RCLlekzE2LDcTYzZ6Q3vrInuRdPdpqvtaDc_O0hYuiSaq_OI-lUvrxWZwFf8RL-lel66QOVb79QpVBVPhOnsBw71iPp-k3iVhsU_yS4h2o95lJEDmsTxymEU3Woyy815SVnzDXP_yO6n6EuBJqZnxys0odOo6Ox4PxGPOptIB70zluTlzBPpbKYr5mnJWjTuZ6EGvqkFHcEfObWYeqy8G5KqKMUDVc3ZKOiE-7ymHf7o_rFpiTn6RpK42Ty_AMip9Humr8i0h5S5mLHYBjklW8j_niJfR7_z2SDNYYk2c8l4recLNhSW8HiiYnoLltWwWMKDl8Zp0RuO8QAmiEDFnj5k2RaQ_MnbINndeT_PKH8Pa8Qab5hoEQ6jgA6ZrRFFMKgMCT8ghZel7mBSvMM37GTCKmOosE0ew0jlIcFI5fLNM_GS0]--></g></svg>