<svg xmlns="http://www.w3.org/2000/svg" xmlns:xlink="http://www.w3.org/1999/xlink" contentStyleType="text/css" data-diagram-type="DESCRIPTION" height="1217px" preserveAspectRatio="none" style="width:1410px;height:1217px;background:#FFFFFF;" version="1.1" viewBox="0 0 1410 1217" width="1410px" zoomAndPan="magnify"><title>Open Catalogi | Admin</title><defs/><g><text fill="#888888" font-family="sans-serif" font-size="10" lengthAdjust="spacing" textLength="63.2666" x="1333.2911" y="9.2822">Components</text><text fill="#000000" font-family="sans-serif" font-size="14" font-weight="bold" lengthAdjust="spacing" textLength="176.4287" x="610.0645" y="35.6357">Open Catalogi | Admin</text><!--cluster Azure--><g id="cluster_Azure"><path d="M1300.6278,843.0919 C1303.5767,837.0432 1309.4472,837.1136 1312.5616,842.9254 C1316.2891,837.0754 1321.0595,837.6062 1325.0697,842.5994 C1327.6199,836.6927 1333.3925,836.11 1336.7904,841.738 C1339.02,835.5632 1344.0481,835.5098 1347.8055,840.1873 C1351.6996,835.8504 1357.8586,835.6176 1359.8252,842.2915 C1363.0685,837.3689 1367.6593,836.205 1371.5589,841.5407 C1375.2615,837.2235 1380.4855,837.0801 1382.5022,843.2928 C1386.6395,838.0556 1390.2565,836.9553 1394.2434,843.4433 C1399.655,847.2013 1400.5518,852.7374 1394.5087,856.7241 C1402.7709,859.8572 1403.5577,866.3544 1396.4184,871.4805 C1402.6767,875.0358 1403.5194,880.0712 1397.1723,884.3642 C1402.8299,889.7534 1402.1886,895.0979 1395.2693,898.8329 C1400.4281,903.1522 1400.2528,906.8822 1395.2583,911.1924 C1402.6831,915.7636 1401.3318,920.975 1394.8209,925.1082 C1390.7255,930.4025 1386.1637,931.178 1382.4142,924.7423 C1379.4343,931.568 1374.1249,931.4545 1370.1165,925.7519 C1367.0439,932.0271 1363.0627,932.842 1358.6979,926.9663 C1355.6321,931.243 1351.3931,930.9842 1348.5889,926.6589 C1344.4702,932.7737 1338.5579,931.5955 1336.2231,924.9325 C1333.1036,930.5719 1327.4607,932.5676 1323.1257,926.2658 C1319.1522,931.0788 1315.8582,931.8762 1312.3584,925.7975 C1308.2216,930.5606 1304.4266,930.1471 1300.7558,925.2386 C1292.6837,922.6699 1292.3827,916.9901 1297.8074,911.5206 C1290.0998,908.1574 1288.475,903.613 1294.4866,897.0922 C1288.0738,894.895 1286.2336,888.9517 1292.2654,884.5505 C1286.6595,879.0288 1287.599,874.9889 1294.5431,871.69 C1288.7246,865.2039 1289.7747,858.6596 1298.7807,856.2395 C1292.3025,850.6683 1292.7613,846.6478 1300.6278,843.0919 " fill="#FFFFFF" fill-opacity="0.00000" style="stroke:#181818;stroke-width:1;"/><text fill="#000000" font-family="sans-serif" font-size="14" font-weight="bold" lengthAdjust="spacing" textLength="45.3496" x="1323.9147" y="860.6226">Azure</text></g><!--cluster Internet--><g id="cluster_Internet"><path d="M329.6351,1075.7078 C333.2935,1068.7119 337.3184,1069.7538 342.1274,1074.4818 C344.2512,1068.7219 349.2161,1068.1271 352.5412,1073.3419 C355.6654,1068.1036 361.0702,1067.8603 364.1328,1073.4081 C368.1902,1067.796 371.8887,1068.1738 376.2532,1073.0532 C378.4874,1068.2527 382.8286,1066.4691 386.4303,1071.6602 C390.4212,1066.5955 394.4561,1065.867 398.2123,1071.9093 C400.9859,1066.7515 405.8343,1066.638 409.2393,1071.1924 C413.4043,1066.2458 416.8622,1066.7895 420.3332,1071.9539 C424.0906,1067.1392 428.7806,1068.0953 431.1481,1073.4343 C435.185,1068.7645 438.8439,1068.1482 442.8262,1073.4979 C445.9675,1068.9661 451.3317,1068.7068 454.0326,1074.0003 C462.1796,1069.1354 468.3004,1070.6636 470.5895,1080.5675 C471.1867,1080.0909 471.7548,1080.0705 471.9823,1080.9479 C479.7689,1085.3126 479.2618,1090.1387 473.1316,1095.5954 C480.2772,1098.1352 481.2731,1104.4696 474.8544,1108.7816 C480.7577,1112.0661 482.5788,1115.8946 476.6134,1120.9017 C481.9769,1126.1318 481.455,1130.7093 475.0809,1134.629 C480.7567,1138.7341 479.2988,1144.4776 473.6258,1147.2771 C479.8743,1156.9704 476.6503,1166.9203 463.5895,1166.5675 C464.8458,1166.4454 465.3719,1167.112 464.9818,1168.3074 C461.517,1174.3014 456.8904,1175.1629 452.9667,1168.7519 C451.08,1173.3789 446.6064,1175.3836 443.0679,1170.4648 C439.8694,1176.4156 434.5736,1177.8241 430.2873,1171.6075 C428.6221,1176.6746 423.8168,1177.3937 420.5476,1173.3157 C417.2634,1178.4725 411.7292,1178.6042 408.9331,1172.7986 C406.6126,1179.0512 402.6123,1179.5483 398.0879,1175.0147 C394.2575,1179.7226 390.887,1179.9731 387.2601,1174.7919 C383.0293,1179.6795 378.7312,1178.5401 375.8103,1173.3096 C372.3762,1178.2079 366.8692,1178.4374 364.2353,1172.4582 C359.823,1177.062 355.012,1177.2559 352.0908,1170.8182 C348.7807,1175.8753 344.1304,1174.7309 341.6271,1169.9593 C331.4332,1174.7854 323.7103,1171.3631 322.5895,1159.5675 C323.8824,1159.4949 324.435,1160.5161 323.8772,1161.6102 C316.2187,1159.0486 315.376,1153.0208 321.5891,1148.1084 C313.935,1145.7193 312.5019,1139.8984 317.0627,1133.6778 C310.267,1131.4753 310.0517,1125.7575 314.8934,1121.4846 C309.6134,1115.4381 310.8683,1111.3082 318.2585,1108.5608 C312.2579,1103.0751 313.9276,1098.2096 321.1229,1095.652 C314.4178,1085.5657 317.7696,1076.5518 329.5895,1073.5675 C330.7505,1074.1142 330.7067,1075.1135 329.6351,1075.7078 " fill="#FFFFFF" fill-opacity="0.00000" style="stroke:#181818;stroke-width:1;"/><text fill="#000000" font-family="sans-serif" font-size="14" font-weight="bold" lengthAdjust="spacing" textLength="64.4219" x="364.3786" y="1091.5626">Internet</text></g><!--cluster Kubernetes--><g id="cluster_Kubernetes"><path d="M60.7432,339.8865 C82.1475,299.3452 121.5331,304.4856 143.0616,339.7516 C171.426,298.7283 204.8001,307.1061 228.3144,344.9916 C260.1691,299.6237 297.9219,296.2136 326.2004,348.5736 C343.8872,310.1762 370.3017,301.5804 401.0681,334.924 C432.533,289.0572 461.2458,290.1373 489.0877,338.315 C516.941,289.2972 551.7696,288.7847 580.1784,337.7988 C606.7411,300.0633 639.4814,302.6361 661.1727,342.8598 C686.0479,300.6518 726.3051,299.197 748.6336,345.3796 C773.9417,305.6322 812.9249,300.4575 838.2297,345.3831 C863.2601,311.5223 898.0721,309.6247 921.7882,346.9264 C940.289,311.7403 979.7927,306.8102 1001.7868,343.0117 C1028.9216,305.2663 1055.4629,296.563 1088.3125,336.6594 C1121.9328,302.5624 1160.6224,307.0192 1181.6836,351.5698 C1199.8688,316.0819 1234.7473,304.3181 1259.5895,344.7375 C1265.7709,345.7965 1268.1458,349.2207 1265.3057,355.2059 C1305.7128,375.8421 1306.1444,415.8747 1265.8826,437.0793 C1295.0394,450.933 1303.612,481.4083 1274.9409,503.1859 C1322.4406,528.712 1320.5774,572.0146 1270.3671,592.5392 C1305.421,607.1648 1312.1812,636.2589 1278.3143,659.112 C1320.5335,690.9749 1310.5604,718.5218 1269.4185,741.3696 C1313.9288,762.774 1314.1831,793.323 1275.6992,821.2527 C1306.995,849.7818 1302.7488,876.1731 1266.2308,896.1265 C1297.3047,928.667 1289.8005,951.6673 1252.5895,971.9175 C1258.4487,968.8084 1263.5438,969.6225 1264.4545,977.3404 C1247.2559,1017.3812 1206.1873,1024.2673 1179.4388,987.9768 C1148.8936,1022.9336 1118.7037,1026.6615 1091.8458,983.825 C1066.3064,1027.5159 1027.2641,1033.5647 998.9199,986.7033 C975.3532,1023.1302 942.4489,1025.7521 919.7754,985.7781 C893.4945,1027.7856 862.2601,1029.0339 833.4505,988.4202 C806.5071,1030.286 764.3766,1027.4698 744.4224,981.3483 C717.9169,1021.146 689.7351,1017.0543 663.1186,981.4679 C639.1252,1022.8339 603.5345,1016.6505 582.3629,978.5986 C551.5871,1028.3549 513.9275,1033.0399 482.6863,979.0457 C458.3876,1021.3913 428.7837,1018.4222 399.5527,984.4161 C375.176,1030.7611 338.8134,1029.6085 313.6075,985.2013 C287.5581,1025.4105 262.3238,1023.5959 234.7218,986.7917 C207.4885,1023.8631 169.2187,1013.585 153.3221,974.6505 C114.4532,1017.0484 77.2239,1022.8366 47.5895,964.9175 C51.5897,961.3481 55.5314,962.6686 56.8473,967.7802 C23.6702,942.6032 28.0362,915.4496 59.5298,892.5796 C23.0877,870.9835 18.5241,844.8882 56.4879,820.1666 C9.1108,799.913 11.0556,764.5665 44.6467,733.2785 C10.5041,703.1377 9.4655,675.3039 54.3271,654.9238 C17.621,636.7505 17.098,602.835 50.3736,580.9229 C14.9026,564.799 10.1931,533.5858 46.1398,513.0096 C15.3241,484.2191 16.9511,449.3733 57.5545,430.4583 C7.7071,401.8152 6,369.5284 54.5895,337.7375 C57.7845,335.3715 59.7661,335.9017 60.7432,339.8865 " fill="#FFFFFF" fill-opacity="0.00000" style="stroke:#181818;stroke-width:1;"/><text fill="#000000" font-family="sans-serif" font-size="14" font-weight="bold" lengthAdjust="spacing" textLength="91.2188" x="607.9801" y="355.7326">Kubernetes</text></g><!--cluster Layer 5 (interaction)--><g id="cluster_Layer 5 (interaction)"><path d="M66.0895,477.0275 L229.9489,477.0275 A3.75,3.75 0 0 1 232.4489,479.5275 L239.4489,499.3244 L293.0895,499.3244 A2.5,2.5 0 0 1 295.5895,501.8244 L295.5895,638.8275 A2.5,2.5 0 0 1 293.0895,641.3275 L66.0895,641.3275 A2.5,2.5 0 0 1 63.5895,638.8275 L63.5895,479.5275 A2.5,2.5 0 0 1 66.0895,477.0275 " fill="#FFFFFF" fill-opacity="0.00000" style="stroke:#000000;stroke-width:1.5;"/><line style="stroke:#000000;stroke-width:1.5;" x1="63.5895" x2="239.4489" y1="499.3244" y2="499.3244"/><text fill="#000000" font-family="sans-serif" font-size="14" font-weight="bold" lengthAdjust="spacing" textLength="162.8594" x="67.5895" y="492.0226">Layer 5 (interaction)</text></g><!--cluster React Container 2--><g id="cluster_React Container 2"><path d="M90.0895,520.0275 L232.4567,520.0275 A3.75,3.75 0 0 1 234.9567,522.5275 L241.9567,542.3244 L269.0895,542.3244 A2.5,2.5 0 0 1 271.5895,544.8244 L271.5895,614.8275 A2.5,2.5 0 0 1 269.0895,617.3275 L90.0895,617.3275 A2.5,2.5 0 0 1 87.5895,614.8275 L87.5895,522.5275 A2.5,2.5 0 0 1 90.0895,520.0275 " fill="#FFFFFF" fill-opacity="0.00000" style="stroke:#000000;stroke-width:1.5;"/><line style="stroke:#000000;stroke-width:1.5;" x1="87.5895" x2="241.9567" y1="542.3244" y2="542.3244"/><text fill="#000000" font-family="sans-serif" font-size="14" font-weight="bold" lengthAdjust="spacing" textLength="141.3672" x="91.5895" y="535.0226">React Container 2</text></g><!--cluster Layer 4 (Logic)--><g id="cluster_Layer 4 (Logic)"><path d="M322.0895,476.0275 L440.9274,476.0275 A3.75,3.75 0 0 1 443.4274,478.5275 L450.4274,498.3244 L1049.0895,498.3244 A2.5,2.5 0 0 1 1051.5895,500.8244 L1051.5895,953.4175 A2.5,2.5 0 0 1 1049.0895,955.9175 L322.0895,955.9175 A2.5,2.5 0 0 1 319.5895,953.4175 L319.5895,478.5275 A2.5,2.5 0 0 1 322.0895,476.0275 " fill="#FFFFFF" fill-opacity="0.00000" style="stroke:#000000;stroke-width:1.5;"/><line style="stroke:#000000;stroke-width:1.5;" x1="319.5895" x2="450.4274" y1="498.3244" y2="498.3244"/><text fill="#000000" font-family="sans-serif" font-size="14" font-weight="bold" lengthAdjust="spacing" textLength="117.8379" x="323.5895" y="491.0226">Layer 4 (Logic)</text></g><!--cluster NGINX Container--><g id="cluster_NGINX Container"><path d="M446.0895,519.0275 L580.0553,519.0275 A3.75,3.75 0 0 1 582.5553,521.5275 L589.5553,541.3244 L589.0895,541.3244 A2.5,2.5 0 0 1 591.5895,543.8244 L591.5895,615.8275 A2.5,2.5 0 0 1 589.0895,618.3275 L446.0895,618.3275 A2.5,2.5 0 0 1 443.5895,615.8275 L443.5895,521.5275 A2.5,2.5 0 0 1 446.0895,519.0275 " fill="#FFFFFF" fill-opacity="0.00000" style="stroke:#000000;stroke-width:1.5;"/><line style="stroke:#000000;stroke-width:1.5;" x1="443.5895" x2="589.5553" y1="541.3244" y2="541.3244"/><text fill="#000000" font-family="sans-serif" font-size="14" font-weight="bold" lengthAdjust="spacing" textLength="132.9658" x="447.5895" y="534.0226">NGINX Container</text></g><!--cluster Gateway Container--><g id="cluster_Gateway Container"><path d="M346.0895,690.3275 L497.7604,690.3275 A3.75,3.75 0 0 1 500.2604,692.8275 L507.2604,712.6244 L668.0895,712.6244 A2.5,2.5 0 0 1 670.5895,715.1244 L670.5895,929.4175 A2.5,2.5 0 0 1 668.0895,931.9175 L346.0895,931.9175 A2.5,2.5 0 0 1 343.5895,929.4175 L343.5895,692.8275 A2.5,2.5 0 0 1 346.0895,690.3275 " fill="#FFFFFF" fill-opacity="0.00000" style="stroke:#000000;stroke-width:1.5;"/><line style="stroke:#000000;stroke-width:1.5;" x1="343.5895" x2="507.2604" y1="712.6244" y2="712.6244"/><text fill="#000000" font-family="sans-serif" font-size="14" font-weight="bold" lengthAdjust="spacing" textLength="150.6709" x="347.5895" y="705.3226">Gateway Container</text></g><!--cluster RedisContainer--><g id="cluster_RedisContainer"><path d="M697.0895,834.6275 L818.6823,834.6275 A3.75,3.75 0 0 1 821.1823,837.1275 L828.1823,856.9244 L828.0895,856.9244 A2.5,2.5 0 0 1 830.5895,859.4244 L830.5895,929.4175 A2.5,2.5 0 0 1 828.0895,931.9175 L697.0895,931.9175 A2.5,2.5 0 0 1 694.5895,929.4175 L694.5895,837.1275 A2.5,2.5 0 0 1 697.0895,834.6275 " fill="#FFFFFF" fill-opacity="0.00000" style="stroke:#000000;stroke-width:1.5;"/><line style="stroke:#000000;stroke-width:1.5;" x1="694.5895" x2="828.1823" y1="856.9244" y2="856.9244"/><text fill="#000000" font-family="sans-serif" font-size="14" font-weight="bold" lengthAdjust="spacing" textLength="120.5928" x="698.5895" y="849.6226">RedisContainer</text></g><!--cluster MongoDB Container--><g id="cluster_MongoDB Container"><path d="M857.0895,835.1275 L1015.5758,835.1275 A3.75,3.75 0 0 1 1018.0758,837.6275 L1025.0758,857.4244 L1025.0895,857.4244 A2.5,2.5 0 0 1 1027.5895,859.9244 L1027.5895,928.9175 A2.5,2.5 0 0 1 1025.0895,931.4175 L857.0895,931.4175 A2.5,2.5 0 0 1 854.5895,928.9175 L854.5895,837.6275 A2.5,2.5 0 0 1 857.0895,835.1275 " fill="#FFFFFF" fill-opacity="0.00000" style="stroke:#000000;stroke-width:1.5;"/><line style="stroke:#000000;stroke-width:1.5;" x1="854.5895" x2="1025.0758" y1="857.4244" y2="857.4244"/><text fill="#000000" font-family="sans-serif" font-size="14" font-weight="bold" lengthAdjust="spacing" textLength="157.4863" x="858.5895" y="850.1226">MongoDB Container</text></g><!--cluster Layer 1 (data)--><g id="cluster_Layer 1 (data)"><path d="M505.0895,1028.9175 L617.8776,1028.9175 A3.75,3.75 0 0 1 620.3776,1031.4175 L627.3776,1051.2144 L816.0895,1051.2144 A2.5,2.5 0 0 1 818.5895,1053.7144 L818.5895,1189.7175 A2.5,2.5 0 0 1 816.0895,1192.2175 L505.0895,1192.2175 A2.5,2.5 0 0 1 502.5895,1189.7175 L502.5895,1031.4175 A2.5,2.5 0 0 1 505.0895,1028.9175 " fill="#FFFFFF" fill-opacity="0.00000" style="stroke:#000000;stroke-width:1.5;"/><line style="stroke:#000000;stroke-width:1.5;" x1="502.5895" x2="627.3776" y1="1051.2144" y2="1051.2144"/><text fill="#000000" font-family="sans-serif" font-size="14" font-weight="bold" lengthAdjust="spacing" textLength="111.7881" x="506.5895" y="1043.9126">Layer 1 (data)</text></g><!--cluster Database Service--><g id="cluster_Database Service"><path d="M534.8016,1081.1983 C539.78,1072.3479 546.2273,1069.5173 553.6383,1078.6503 C559.1437,1069.8784 564.301,1068.9291 570.8085,1077.6678 C575.2123,1067.9925 583.1467,1066.0842 590.2893,1074.7604 C596.1552,1065.7127 603.797,1066.4624 609.1346,1075.3165 C612.3554,1065.3995 621.3787,1063.9974 627.787,1071.9983 C632.1128,1063.8248 640.1217,1064.5914 644.8123,1071.589 C648.8868,1064.1006 656.956,1063.7336 661.7563,1070.7406 C667.0655,1060.8763 673.6232,1061.1447 679.7234,1069.9807 C685.6885,1060.9504 693.2496,1062.8885 697.4696,1071.715 C703.5504,1064.7515 713.1069,1064.2314 716.1519,1074.9268 C721.0522,1067.9582 728.9273,1068.349 732.6529,1076.2319 C739.8712,1068.8209 747.8602,1069.3374 752.5534,1079.1495 C757.642,1070.6637 763.5854,1070.5968 768.6254,1079.1953 C774.3719,1069.2974 783.2129,1070.8971 788.0627,1080.1075 C800.7523,1084.0262 800.6062,1093.834 792.0703,1101.6936 C803.7852,1106.2667 805.3294,1115.2622 795.4961,1123.2584 C802.7929,1129.632 801.4379,1137.7606 792.0119,1140.8155 C801.1865,1150.965 799.2311,1158.0548 786.6858,1162.9866 C781.9241,1168.9537 776.0437,1169.221 771.6639,1162.5332 C766.3322,1172.0845 757.7989,1173.7319 751.2129,1163.8535 C746.2004,1171.4438 738.9198,1169.7792 735.7975,1161.9623 C729.5838,1171.6196 722.7694,1171.1556 716.5154,1162.0037 C711.3717,1172.3846 703.1963,1173.0142 696.8822,1163.138 C691.7544,1170.4253 686.0557,1170.4374 681.3188,1162.7321 C677.0685,1171.8598 668.8341,1173.3772 662.489,1164.9833 C654.9303,1173.4334 649.249,1171.2216 643.9533,1162.5355 C639.7637,1171.2091 631.0888,1172.5126 625.4715,1164.0778 C620.7938,1172.6566 613.9083,1170.9685 609.2218,1164.0871 C603.8941,1173.9079 595.0182,1171.3099 590.3145,1163.421 C583.4121,1172.4516 575.7661,1171.2034 571.4924,1160.8664 C566.1211,1169.2816 560.0731,1170.6095 553.0045,1162.8006 C546.8155,1171.5788 538.8799,1170.7997 535.1166,1160.5234 C525.8449,1153.7881 525.5678,1147.3297 535.0379,1140.5207 C525.7921,1136.0053 525.812,1126.6879 534.555,1121.7107 C523.9283,1114.1003 524.9964,1106.4047 536.6534,1101.0584 C525.9776,1095.1405 526.4336,1088.8919 534.8016,1081.1983 " fill="#FFFFFF" fill-opacity="0.00000" style="stroke:#181818;stroke-width:1;"/><text fill="#000000" font-family="sans-serif" font-size="14" font-weight="bold" lengthAdjust="spacing" textLength="137.5801" x="591.7995" y="1097.9126">Database Service</text></g><!--entity identity--><g id="elem_identity"><rect fill="#F1F1F1" height="46.2969" rx="2.5" ry="2.5" style="stroke:#181818;stroke-width:0.5;" width="77.2969" x="1307.9395" y="869.6275"/><rect fill="#F1F1F1" height="10" style="stroke:#181818;stroke-width:0.5;" width="15" x="1365.2364" y="874.6275"/><rect fill="#F1F1F1" height="2" style="stroke:#181818;stroke-width:0.5;" width="4" x="1363.2364" y="876.6275"/><rect fill="#F1F1F1" height="2" style="stroke:#181818;stroke-width:0.5;" width="4" x="1363.2364" y="880.6275"/><text fill="#000000" font-family="sans-serif" font-size="14" lengthAdjust="spacing" textLength="37.2969" x="1322.9395" y="902.6226">ADFS</text></g><!--entity externalCatalog--><g id="elem_externalCatalog"><ellipse cx="396.5895" cy="1129.5675" fill="#F1F1F1" rx="8" ry="8" style="stroke:#181818;stroke-width:0.5;"/><text fill="#000000" font-family="sans-serif" font-size="14" lengthAdjust="spacing" textLength="116.5459" x="338.3166" y="1159.5626">External Catalog</text></g><!--entity ingress--><g id="elem_ingress"><path d="M328.0927,368.7375 L328.0927,392.7375 M328.0927,380.7375 L345.0927,380.7375 " fill="#FFFFFF" fill-opacity="0.00000" style="stroke:#181818;stroke-width:0.5;"/><ellipse cx="357.0927" cy="380.7375" fill="#F1F1F1" rx="12" ry="12" style="stroke:#181818;stroke-width:0.5;"/><text fill="#000000" font-family="sans-serif" font-size="14" lengthAdjust="spacing" textLength="50.6064" x="323.2895" y="409.7326">ingress</text></g><!--entity loki--><g id="elem_loki"><path d="M1067.3595,880.1275 C1067.3595,870.1275 1089.5856,870.1275 1089.5856,870.1275 C1089.5856,870.1275 1111.8116,870.1275 1111.8116,880.1275 L1111.8116,905.4244 C1111.8116,915.4244 1089.5856,915.4244 1089.5856,915.4244 C1089.5856,915.4244 1067.3595,915.4244 1067.3595,905.4244 L1067.3595,880.1275 " fill="#F1F1F1" style="stroke:#181818;stroke-width:0.5;"/><path d="M1067.3595,880.1275 C1067.3595,890.1275 1089.5856,890.1275 1089.5856,890.1275 C1089.5856,890.1275 1111.8116,890.1275 1111.8116,880.1275 " fill="#FFFFFF" fill-opacity="0.00000" style="stroke:#181818;stroke-width:0.5;"/><text fill="#000000" font-family="sans-serif" font-size="14" lengthAdjust="spacing" textLength="24.4521" x="1077.3595" y="907.1226">loki</text></g><!--entity prometheus--><g id="elem_prometheus"><path d="M1147.2895,880.1275 C1147.2895,870.1275 1199.5903,870.1275 1199.5903,870.1275 C1199.5903,870.1275 1251.8911,870.1275 1251.8911,880.1275 L1251.8911,905.4244 C1251.8911,915.4244 1199.5903,915.4244 1199.5903,915.4244 C1199.5903,915.4244 1147.2895,915.4244 1147.2895,905.4244 L1147.2895,880.1275 " fill="#F1F1F1" style="stroke:#181818;stroke-width:0.5;"/><path d="M1147.2895,880.1275 C1147.2895,890.1275 1199.5903,890.1275 1199.5903,890.1275 C1199.5903,890.1275 1251.8911,890.1275 1251.8911,880.1275 " fill="#FFFFFF" fill-opacity="0.00000" style="stroke:#181818;stroke-width:0.5;"/><text fill="#000000" font-family="sans-serif" font-size="14" lengthAdjust="spacing" textLength="84.6016" x="1157.2895" y="907.1226">prometheus</text></g><!--entity admin--><g id="elem_admin"><rect fill="#F1F1F1" height="46.2969" rx="2.5" ry="2.5" style="stroke:#181818;stroke-width:0.5;" width="151.9932" x="103.5895" y="555.0275"/><rect fill="#F1F1F1" height="10" style="stroke:#181818;stroke-width:0.5;" width="15" x="235.5827" y="560.0275"/><rect fill="#F1F1F1" height="2" style="stroke:#181818;stroke-width:0.5;" width="4" x="233.5827" y="562.0275"/><rect fill="#F1F1F1" height="2" style="stroke:#181818;stroke-width:0.5;" width="4" x="233.5827" y="566.0275"/><text fill="#000000" font-family="sans-serif" font-size="14" lengthAdjust="spacing" textLength="111.9932" x="118.5895" y="588.0226">Admin Interface</text></g><!--entity Nginx--><g id="elem_Nginx"><path d="M497.0895,558.0275 L497.0895,582.0275 M497.0895,570.0275 L514.0895,570.0275 " fill="#FFFFFF" fill-opacity="0.00000" style="stroke:#181818;stroke-width:0.5;"/><ellipse cx="526.0895" cy="570.0275" fill="#F1F1F1" rx="12" ry="12" style="stroke:#181818;stroke-width:0.5;"/><text fill="#000000" font-family="sans-serif" font-size="14" lengthAdjust="spacing" textLength="40.4072" x="497.3859" y="599.0226">Nginx</text></g><!--entity Plugins--><g id="elem_Plugins"><rect fill="#F1F1F1" height="46.2969" rx="2.5" ry="2.5" style="stroke:#181818;stroke-width:0.5;" width="187.2461" x="359.9695" y="869.6275"/><rect fill="#F1F1F1" height="10" style="stroke:#181818;stroke-width:0.5;" width="15" x="527.2156" y="874.6275"/><rect fill="#F1F1F1" height="2" style="stroke:#181818;stroke-width:0.5;" width="4" x="525.2156" y="876.6275"/><rect fill="#F1F1F1" height="2" style="stroke:#181818;stroke-width:0.5;" width="4" x="525.2156" y="880.6275"/><text fill="#000000" font-family="sans-serif" font-size="14" lengthAdjust="spacing" textLength="147.2461" x="374.9695" y="902.6226">Open Catalogi plugin</text></g><!--entity Gateway--><g id="elem_Gateway"><rect fill="#F1F1F1" height="46.2969" rx="2.5" ry="2.5" style="stroke:#181818;stroke-width:0.5;" width="137.6377" x="516.7695" y="725.3275"/><rect fill="#F1F1F1" height="10" style="stroke:#181818;stroke-width:0.5;" width="15" x="634.4072" y="730.3275"/><rect fill="#F1F1F1" height="2" style="stroke:#181818;stroke-width:0.5;" width="4" x="632.4072" y="732.3275"/><rect fill="#F1F1F1" height="2" style="stroke:#181818;stroke-width:0.5;" width="4" x="632.4072" y="736.3275"/><text fill="#000000" font-family="sans-serif" font-size="14" lengthAdjust="spacing" textLength="97.6377" x="531.7695" y="758.3226">Web Gateway</text></g><!--entity ORM--><g id="elem_ORM"><rect fill="#F1F1F1" height="46.2969" rx="2.5" ry="2.5" style="stroke:#181818;stroke-width:0.5;" width="72.8262" x="582.1795" y="869.6275"/><rect fill="#F1F1F1" height="10" style="stroke:#181818;stroke-width:0.5;" width="15" x="635.0057" y="874.6275"/><rect fill="#F1F1F1" height="2" style="stroke:#181818;stroke-width:0.5;" width="4" x="633.0057" y="876.6275"/><rect fill="#F1F1F1" height="2" style="stroke:#181818;stroke-width:0.5;" width="4" x="633.0057" y="880.6275"/><text fill="#000000" font-family="sans-serif" font-size="14" lengthAdjust="spacing" textLength="32.8262" x="597.1795" y="902.6226">ORM</text></g><!--entity Redis--><g id="elem_Redis"><rect fill="#F1F1F1" height="46.2969" rx="2.5" ry="2.5" style="stroke:#181818;stroke-width:0.5;" width="78.4111" x="710.3795" y="869.6275"/><rect fill="#F1F1F1" height="10" style="stroke:#181818;stroke-width:0.5;" width="15" x="768.7906" y="874.6275"/><rect fill="#F1F1F1" height="2" style="stroke:#181818;stroke-width:0.5;" width="4" x="766.7906" y="876.6275"/><rect fill="#F1F1F1" height="2" style="stroke:#181818;stroke-width:0.5;" width="4" x="766.7906" y="880.6275"/><text fill="#000000" font-family="sans-serif" font-size="14" lengthAdjust="spacing" textLength="38.4111" x="725.3795" y="902.6226">Redis</text></g><!--entity MognoDB--><g id="elem_MognoDB"><path d="M870.6895,880.1275 C870.6895,870.1275 916.5918,870.1275 916.5918,870.1275 C916.5918,870.1275 962.4942,870.1275 962.4942,880.1275 L962.4942,905.4244 C962.4942,915.4244 916.5918,915.4244 916.5918,915.4244 C916.5918,915.4244 870.6895,915.4244 870.6895,905.4244 L870.6895,880.1275 " fill="#F1F1F1" style="stroke:#181818;stroke-width:0.5;"/><path d="M870.6895,880.1275 C870.6895,890.1275 916.5918,890.1275 916.5918,890.1275 C916.5918,890.1275 962.4942,890.1275 962.4942,880.1275 " fill="#FFFFFF" fill-opacity="0.00000" style="stroke:#181818;stroke-width:0.5;"/><text fill="#000000" font-family="sans-serif" font-size="14" lengthAdjust="spacing" textLength="67.3545" x="880.6895" y="907.1226">MongoDB</text></g><!--entity db--><g id="elem_db"><path d="M542.3695,1116.9175 C542.3695,1106.9175 660.5926,1106.9175 660.5926,1106.9175 C660.5926,1106.9175 778.8158,1106.9175 778.8158,1116.9175 L778.8158,1142.2144 C778.8158,1152.2144 660.5926,1152.2144 660.5926,1152.2144 C660.5926,1152.2144 542.3695,1152.2144 542.3695,1142.2144 L542.3695,1116.9175 " fill="#F1F1F1" style="stroke:#181818;stroke-width:0.5;"/><path d="M542.3695,1116.9175 C542.3695,1126.9175 660.5926,1126.9175 660.5926,1126.9175 C660.5926,1126.9175 778.8158,1126.9175 778.8158,1116.9175 " fill="#FFFFFF" fill-opacity="0.00000" style="stroke:#181818;stroke-width:0.5;"/><text fill="#000000" font-family="sans-serif" font-size="14" lengthAdjust="spacing" textLength="216.4463" x="552.3695" y="1143.9126">Postgress/MsSQL/MySql/Oracle</text></g><!--entity adminUser--><g id="elem_adminUser"><ellipse cx="348.5916" cy="63.9375" fill="#F1F1F1" rx="8" ry="8" style="stroke:#181818;stroke-width:0.5;"/><path d="M348.5916,71.9375 L348.5916,98.9375 M335.5916,79.9375 L361.5916,79.9375 M348.5916,98.9375 L335.5916,113.9375 M348.5916,98.9375 L361.5916,113.9375 " fill="#FFFFFF" fill-opacity="0.00000" style="stroke:#181818;stroke-width:0.5;"/><text fill="#000000" font-family="sans-serif" font-size="14" lengthAdjust="spacing" textLength="44.8643" x="326.1595" y="128.4326">Admin</text></g><!--entity f5intern--><g id="elem_f5intern"><ellipse cx="348.5895" cy="237.7375" fill="#F1F1F1" rx="8" ry="8" style="stroke:#181818;stroke-width:0.5;"/><text fill="#000000" font-family="sans-serif" font-size="14" lengthAdjust="spacing" textLength="142.5156" x="277.3317" y="267.7326">F5 Extern (port 443)</text></g><!--link adminUser to f5intern--><g id="link_adminUser_f5intern"><path d="M348.5895,137.9375 C348.5895,170.9975 348.5895,204.7475 348.5895,222.8775 " fill="#FFFFFF" fill-opacity="0.00000" id="adminUser-f5intern" style="stroke:#181818;stroke-width:1;stroke-dasharray:7.0,7.0;"/><polygon fill="#181818" points="348.5895,131.9375,344.5895,140.9375,348.5895,136.9375,352.5895,140.9375,348.5895,131.9375" style="stroke:#181818;stroke-width:1;"/><polygon fill="#181818" points="348.5895,228.8775,352.5895,219.8775,348.5895,223.8775,344.5895,219.8775,348.5895,228.8775" style="stroke:#181818;stroke-width:1;"/><text fill="#000000" font-family="sans-serif" font-size="13" lengthAdjust="spacing" textLength="154.2925" x="349.5895" y="174.8044">Browser MET JWT Claim</text></g><!--link f5intern to ingress--><g id="link_f5intern_ingress"><path d="M348.5895,252.3375 C348.5895,273.8875 348.5895,324.0275 348.5895,358.3675 " fill="#FFFFFF" fill-opacity="0.00000" id="f5intern-ingress" style="stroke:#181818;stroke-width:1;stroke-dasharray:7.0,7.0;"/><polygon fill="#181818" points="348.5895,246.3375,344.5895,255.3375,348.5895,251.3375,352.5895,255.3375,348.5895,246.3375" style="stroke:#181818;stroke-width:1;"/><polygon fill="#181818" points="348.5895,364.3675,352.5895,355.3675,348.5895,359.3675,344.5895,355.3675,348.5895,364.3675" style="stroke:#181818;stroke-width:1;"/><text fill="#000000" font-family="sans-serif" font-size="13" lengthAdjust="spacing" textLength="80.2026" x="349.5895" y="309.8044">/api/admin/*</text></g><!--link ingress to admin--><g id="link_ingress_admin"><path d="M323.5097,417.6819 C290.7697,453.9619 236.1285,514.5124 203.8785,550.2624 " fill="#FFFFFF" fill-opacity="0.00000" id="ingress-admin" style="stroke:#181818;stroke-width:1;stroke-dasharray:7.0,7.0;"/><polygon fill="#181818" points="327.5295,413.2275,318.5303,417.2292,324.1797,416.9395,324.4695,422.5889,327.5295,413.2275" style="stroke:#181818;stroke-width:1;"/><polygon fill="#181818" points="199.8595,554.7175,208.858,550.7141,203.2086,551.0049,202.9178,545.3555,199.8595,554.7175" style="stroke:#181818;stroke-width:1;"/><text fill="#000000" font-family="sans-serif" font-size="13" lengthAdjust="spacing" textLength="53.6567" x="300.5895" y="456.0944">Exposes</text></g><!--link ingress to Nginx--><g id="link_ingress_Nginx"><path d="M373.6694,417.6818 C406.0594,453.5718 459.6998,513.023 492.2398,549.083 " fill="#FFFFFF" fill-opacity="0.00000" id="ingress-Nginx" style="stroke:#181818;stroke-width:1;stroke-dasharray:7.0,7.0;"/><polygon fill="#181818" points="369.6495,413.2275,372.7098,422.5888,372.9994,416.9394,378.6488,417.229,369.6495,413.2275" style="stroke:#181818;stroke-width:1;"/><polygon fill="#181818" points="496.2595,553.5375,493.1997,544.176,492.9098,549.8254,487.2604,549.5356,496.2595,553.5375" style="stroke:#181818;stroke-width:1;"/><text fill="#000000" font-family="sans-serif" font-size="13" lengthAdjust="spacing" textLength="53.6567" x="409.5895" y="456.0944">Exposes</text></g><!--link Nginx to Gateway--><g id="link_Nginx_Gateway"><path d="M529.2968,608.1408 C542.3968,640.5708 561.4119,687.6344 574.2919,719.5144 " fill="#FFFFFF" fill-opacity="0.00000" id="Nginx-Gateway" style="stroke:#181818;stroke-width:1;stroke-dasharray:7.0,7.0;"/><polygon fill="#181818" points="527.0495,602.5775,526.7116,612.4206,528.9222,607.2135,534.1292,609.4242,527.0495,602.5775" style="stroke:#181818;stroke-width:1;"/><polygon fill="#181818" points="576.5395,725.0775,576.8769,715.2344,574.6665,720.4416,569.4594,718.2312,576.5395,725.0775" style="stroke:#181818;stroke-width:1;"/><text fill="#000000" font-family="sans-serif" font-size="13" lengthAdjust="spacing" textLength="32.2842" x="557.5895" y="670.3944">Runs</text></g><!--link Gateway to Plugins--><g id="link_Gateway_Plugins"><path d="M542.6591,775.473 C530.3591,783.843 522.1395,790.6175 511.5895,801.6275 C492.0095,822.0475 478.0812,844.7131 467.6812,864.0531 " fill="#FFFFFF" fill-opacity="0.00000" id="Gateway-Plugins" style="stroke:#181818;stroke-width:1;stroke-dasharray:7.0,7.0;"/><polygon fill="#181818" points="547.6195,772.0975,537.9285,773.8538,543.4858,774.9104,542.4292,780.4677,547.6195,772.0975" style="stroke:#181818;stroke-width:1;"/><polygon fill="#181818" points="464.8395,869.3375,472.6249,863.3053,467.2076,864.9338,465.5791,859.5164,464.8395,869.3375" style="stroke:#181818;stroke-width:1;"/><text fill="#000000" font-family="sans-serif" font-size="13" lengthAdjust="spacing" textLength="77.1304" x="512.5895" y="814.6944">Implements</text></g><!--link Gateway to identity--><g id="link_Gateway_identity"><path d="M660.6794,748.6482 C810.3994,747.9182 1153.8095,751.7975 1259.5895,801.6275 C1291.0695,816.4575 1313.7388,843.0491 1328.8888,864.5991 " fill="#FFFFFF" fill-opacity="0.00000" id="Gateway-identity" style="stroke:#181818;stroke-width:1;stroke-dasharray:7.0,7.0;"/><polygon fill="#181818" points="654.6795,748.6775,663.6989,752.6336,659.6794,748.6531,663.6599,744.6337,654.6795,748.6775" style="stroke:#181818;stroke-width:1;"/><polygon fill="#181818" points="1332.3395,869.5075,1330.4357,859.8444,1329.4639,865.4171,1323.8912,864.4453,1332.3395,869.5075" style="stroke:#181818;stroke-width:1;"/><text fill="#000000" font-family="sans-serif" font-size="13" lengthAdjust="spacing" textLength="77.1304" x="1285.5895" y="814.6944">Implements</text></g><!--link Gateway to loki--><g id="link_Gateway_loki"><path d="M654.6195,755.9175 C734.6495,764.9975 869.5195,785.2875 978.5895,826.6275 C1011.1895,838.9775 1040.3262,857.067 1061.9862,871.967 " fill="#FFFFFF" fill-opacity="0.00000" id="Gateway-to-loki" style="stroke:#181818;stroke-width:1;stroke-dasharray:7.0,7.0;"/><polygon fill="#181818" points="1066.9295,875.3675,1061.7815,866.9712,1062.8101,872.5337,1057.2475,873.5623,1066.9295,875.3675" style="stroke:#181818;stroke-width:1;"/><text fill="#000000" font-family="sans-serif" font-size="13" lengthAdjust="spacing" textLength="47.4043" x="948.5895" y="814.6944">Logs to</text></g><!--link Gateway to prometheus--><g id="link_Gateway_prometheus"><path d="M654.8095,753.6675 C782.1495,762.2875 1047.9795,784.8175 1129.5895,826.6275 C1149.9795,837.0675 1164.7297,850.7152 1177.6797,865.1952 " fill="#FFFFFF" fill-opacity="0.00000" id="Gateway-to-prometheus" style="stroke:#181818;stroke-width:1;stroke-dasharray:7.0,7.0;"/><polygon fill="#181818" points="1181.6795,869.6675,1178.6614,860.2925,1178.3464,865.9406,1172.6983,865.6255,1181.6795,869.6675" style="stroke:#181818;stroke-width:1;"/><text fill="#000000" font-family="sans-serif" font-size="13" lengthAdjust="spacing" textLength="67.6343" x="1107.5895" y="814.6944">Reports to</text></g><!--link Plugins to externalCatalog--><g id="link_Plugins_externalCatalog"><path d="M446.7046,922.1183 C434.3946,972.8483 407.7642,1082.5367 399.9442,1114.7667 " fill="#FFFFFF" fill-opacity="0.00000" id="Plugins-externalCatalog" style="stroke:#181818;stroke-width:1;stroke-dasharray:7.0,7.0;"/><polygon fill="#181818" points="448.1195,916.2875,442.11,924.0904,446.9404,921.1465,449.8844,925.9769,448.1195,916.2875" style="stroke:#181818;stroke-width:1;"/><polygon fill="#181818" points="398.5295,1120.5975,404.5388,1112.7944,399.7085,1115.7385,396.7644,1110.9081,398.5295,1120.5975" style="stroke:#181818;stroke-width:1;"/><text fill="#000000" font-family="sans-serif" font-size="13" lengthAdjust="spacing" textLength="157.5298" x="429.5895" y="1008.9844">exchanges based on pki</text></g><!--link Gateway to MognoDB--><g id="link_Gateway_MognoDB"><path d="M654.4795,770.0575 C698.2795,784.0475 755.7395,804.0575 804.5895,826.6275 C831.7495,839.1675 855.8242,853.0993 877.5842,866.6293 " fill="#FFFFFF" fill-opacity="0.00000" id="Gateway-to-MognoDB" style="stroke:#181818;stroke-width:1;stroke-dasharray:7.0,7.0;"/><polygon fill="#181818" points="882.6795,869.7975,877.1486,861.6483,878.4334,867.1573,872.9244,868.4421,882.6795,869.7975" style="stroke:#181818;stroke-width:1;"/><text fill="#000000" font-family="sans-serif" font-size="13" lengthAdjust="spacing" textLength="36.0166" x="782.5895" y="814.6944">Index</text></g><!--link Gateway to Redis--><g id="link_Gateway_Redis"><path d="M611.5795,772.0275 C642.2795,798.6675 688.5374,838.7956 719.1974,865.3956 " fill="#FFFFFF" fill-opacity="0.00000" id="Gateway-to-Redis" style="stroke:#181818;stroke-width:1;stroke-dasharray:7.0,7.0;"/><polygon fill="#181818" points="723.7295,869.3275,719.5527,860.4082,719.9528,866.0509,714.3101,866.451,723.7295,869.3275" style="stroke:#181818;stroke-width:1;"/><text fill="#000000" font-family="sans-serif" font-size="13" lengthAdjust="spacing" textLength="40.4282" x="664.5895" y="814.6944">Cache</text></g><!--link Gateway to ORM--><g id="link_Gateway_ORM"><path d="M590.8195,772.0275 C596.9995,798.6675 605.8638,836.8827 612.0338,863.4827 " fill="#FFFFFF" fill-opacity="0.00000" id="Gateway-to-ORM" style="stroke:#181818;stroke-width:1;stroke-dasharray:7.0,7.0;"/><polygon fill="#181818" points="613.3895,869.3275,615.2524,859.6564,612.2597,864.4568,607.4593,861.4641,613.3895,869.3275" style="stroke:#181818;stroke-width:1;"/><text fill="#000000" font-family="sans-serif" font-size="13" lengthAdjust="spacing" textLength="34.6455" x="602.5895" y="814.6944">Store</text></g><!--link ORM to db--><g id="link_ORM_db"><path d="M622.6195,916.2875 C630.6695,961.2775 647.5926,1055.9113 655.5826,1100.5613 " fill="#FFFFFF" fill-opacity="0.00000" id="ORM-to-db" style="stroke:#181818;stroke-width:1;stroke-dasharray:7.0,7.0;"/><polygon fill="#181818" points="656.6395,1106.4675,658.9916,1096.9036,655.7588,1101.5457,651.1167,1098.3128,656.6395,1106.4675" style="stroke:#181818;stroke-width:1;"/><text fill="#000000" font-family="sans-serif" font-size="13" lengthAdjust="spacing" textLength="43.437" x="640.5895" y="1008.9844">Persist</text></g><text fill="#888888" font-family="sans-serif" font-size="10" lengthAdjust="spacing" textLength="165.3857" x="615.586" y="1207.4997">Common Gateway | Components</text><!--SRC=[RLHBRzf04BxlhnXneZq4jOMBLLLA88beCQ6GAfMY7DRsO5QnTrtlkWb9yzyxEtw0QKyUptpppNkTSXa6S5EWXgbqCZEfWZzmdkHAYwqn3ii0fYRFZOPhwV19xibCYi9erCwA7SgamRGg8MDdIXWmoG2a1Ucb7nPBeJGnRcMCCBYQmEKp_MaO5gPqC1v_UiVexOHHMeWuCrL2H2zLYODN0VVdiwlD0tYGIYYMSdlnri7cx8MEa4TXwXWoQylZ4DWe6vqdQLc-LH6pe2KU4PbA9xBSmq3fj4HhsRsHHKBkaRG8cNbKXx-YD3cw7LRKYqB6ZpAbF1PoZoLCOCYvKOkKqLJlwn5aZQIcJcedbIRmHs-cedttODwMLDVFBQMyVUOdCSOmND0OOsRlRClh-VBdWPof3zKjKwMVkJQMF6tdsSwzxtlVtvaYgyZnmJEiMBG4kSEetHgsDB9tNeUieMylrXeJPKy2iOxHBFLB3erEpUpY9Bbk50S05nUQLDDFtRUtVpht0ORUanlNhCEiPTfW-Ll5l8P7x2jZ7U_2ABIRxujHkD_yoaOtDDyCEM8IrS6w4u3FPsTVkXs702vAy-JruUKjVBsxXMacLIuw0CERXGjW90irOgxHUo4QTOrXRK0tLHYBjc_ZeHvi_0krgPb90EkAPjREcatD80EOvqM6EHzt3z0UuNyH7k3l8W3QHWlEz2o76w78w1y0XZGXQ_gJAmr84U-aJj62Rty2z2WLT7Z7lCs4AIETu7FFnDj3BvMCTzWpq186iA4t2mM9mBea2c25fLNM_GK0]--></g></svg>