<svg xmlns="http://www.w3.org/2000/svg" xmlns:xlink="http://www.w3.org/1999/xlink" contentStyleType="text/css" data-diagram-type="DESCRIPTION" height="1194px" preserveAspectRatio="none" style="width:1064px;height:1194px;background:#FFFFFF;" version="1.1" viewBox="0 0 1064 1194" width="1064px" zoomAndPan="magnify"><title>Open Catalogi | Externe Catalogus</title><defs/><g><text fill="#888888" font-family="sans-serif" font-size="10" lengthAdjust="spacing" textLength="63.2666" x="987.3795" y="9.2822">Components</text><text fill="#000000" font-family="sans-serif" font-size="14" font-weight="bold" lengthAdjust="spacing" textLength="270.8398" x="389.9031" y="35.6357">Open Catalogi | Externe Catalogus</text><!--cluster Kubernetes--><g id="cluster_Kubernetes"><path d="M66.6525,338.6408 C87.5253,310.7219 116.2004,318.6176 130.1284,346.5357 C146.5973,313.2385 170.5761,311.0608 193.8765,339.4793 C218.4036,309.747 245.6863,313.2219 266.0698,344.3912 C285.748,308.8993 311.3519,313.0708 331.419,344.0087 C352.5113,307.6665 381.1137,309.0327 403.6379,342.528 C419.3119,311.2024 443.2736,307.8102 465.0081,336.3111 C494.1331,303.2232 515.9775,314.594 535.0149,347.0806 C552.2892,317.7851 581.0927,316.8885 597.7927,347.6807 C615.0107,310.0823 640.807,307.8877 664.7916,341.2961 C685.9684,303.4585 718.0176,308.5787 738.8999,341.604 C757.474,310.6256 782.4923,311.3317 804.3203,337.9052 C823.6471,310.1458 851.8101,300.4176 871.7164,337.3011 C891.2378,309.6277 922.8265,308.7814 941.4276,338.4205 C964.1804,312.8677 990.2451,309.1827 1007.1219,344.7375 C1008.4598,344.4938 1009.0665,345.1239 1008.8421,346.4497 C1043.4538,369.3952 1052.0984,404.2195 1010.0913,428.3338 C1046.1289,447.1778 1047.4081,468.4932 1019.2314,496.0098 C1053.4793,523.7251 1049.0459,549.7257 1013.175,571.8408 C1053.717,590.785 1057.6461,624.0554 1017.4424,647.5509 C1051.7021,670.5655 1057.035,701.6972 1022.044,728.6416 C1048.9527,753.2657 1045.1493,779.9147 1013.1972,796.9112 C1046.3334,819.6102 1048.2716,845.5976 1014.4993,869.4968 C1049.834,904.0306 1038.2497,927.6825 1000.1219,948.9175 C1001.9556,947.383 1003.6547,947.5557 1004.3877,950.0757 C985.4399,983.3983 959.7138,985.4838 938.6863,952.1248 C917.7484,984.0077 893.3873,995.1378 865.8483,959.2159 C849.1761,984.0012 826.1659,987.9721 808.2587,960.579 C783.3747,995.0136 755.2949,1000.1286 731.8166,959.154 C710.3418,987.7796 680.211,984.5748 664.6591,952.5912 C648.2852,984.6726 629.6433,984.2892 608.5013,957.1096 C587.1796,993.7156 559.5684,991.2942 534.4797,961.296 C511.9388,989.9651 484.5815,988.9316 471.3027,952.3308 C453.9434,984.2311 421.5756,989.9798 397.8338,959.8958 C383.0105,992.8826 351.3493,987.8889 334.118,962.5252 C310.333,996.5238 284.0018,995.8363 263.2804,959.4422 C243.5834,988.4042 212.4702,990.1218 195.0927,956.8989 C175.12,983.753 147.685,989.6297 129.0797,955.4207 C95.7857,988.9117 70.9474,986.1838 51.1219,941.9175 C59.5901,940.9875 63.3449,945.4523 61.7238,953.644 C23.5128,931.2479 13.8702,900.2171 54.7731,871.1546 C18.1832,853.0658 18.7456,818.7034 50.4902,796.6846 C14.0717,776.9904 13.5247,744.3724 42.8458,718.2695 C10.8915,702.1443 12.1312,669.3663 42.2371,652.6653 C7.4353,626.3127 6,595.697 49.2074,576.4817 C14.3815,550.4052 16.5704,523.178 55.7218,503.7253 C14.6019,481.648 14.44,451.1233 55.2893,428.5743 C18.3647,398.8482 9.5288,364.7969 58.1219,337.7375 C61.376,334.1898 64.2674,333.9816 66.6525,338.6408 " fill="#FFFFFF" fill-opacity="0.00000" style="stroke:#181818;stroke-width:1;"/><text fill="#000000" font-family="sans-serif" font-size="14" font-weight="bold" lengthAdjust="spacing" textLength="91.2188" x="483.5125" y="355.7326">Kubernetes</text></g><!--cluster Layer 4 (Logic)--><g id="cluster_Layer 4 (Logic)"><path d="M69.6219,476.0275 L188.4598,476.0275 A3.75,3.75 0 0 1 190.9598,478.5275 L197.9598,498.3244 L796.6219,498.3244 A2.5,2.5 0 0 1 799.1219,500.8244 L799.1219,930.4175 A2.5,2.5 0 0 1 796.6219,932.9175 L69.6219,932.9175 A2.5,2.5 0 0 1 67.1219,930.4175 L67.1219,478.5275 A2.5,2.5 0 0 1 69.6219,476.0275 " fill="#FFFFFF" fill-opacity="0.00000" style="stroke:#000000;stroke-width:1.5;"/><line style="stroke:#000000;stroke-width:1.5;" x1="67.1219" x2="197.9598" y1="498.3244" y2="498.3244"/><text fill="#000000" font-family="sans-serif" font-size="14" font-weight="bold" lengthAdjust="spacing" textLength="117.8379" x="71.1219" y="491.0226">Layer 4 (Logic)</text></g><!--cluster NGINX Container--><g id="cluster_NGINX Container"><path d="M261.6219,519.0275 L395.5877,519.0275 A3.75,3.75 0 0 1 398.0877,521.5275 L405.0877,541.3244 L404.6219,541.3244 A2.5,2.5 0 0 1 407.1219,543.8244 L407.1219,615.8275 A2.5,2.5 0 0 1 404.6219,618.3275 L261.6219,618.3275 A2.5,2.5 0 0 1 259.1219,615.8275 L259.1219,521.5275 A2.5,2.5 0 0 1 261.6219,519.0275 " fill="#FFFFFF" fill-opacity="0.00000" style="stroke:#000000;stroke-width:1.5;"/><line style="stroke:#000000;stroke-width:1.5;" x1="259.1219" x2="405.0877" y1="541.3244" y2="541.3244"/><text fill="#000000" font-family="sans-serif" font-size="14" font-weight="bold" lengthAdjust="spacing" textLength="132.9658" x="263.1219" y="534.0226">NGINX Container</text></g><!--cluster Gateway Container--><g id="cluster_Gateway Container"><path d="M93.6219,667.3275 L245.2928,667.3275 A3.75,3.75 0 0 1 247.7928,669.8275 L254.7928,689.6244 L415.6219,689.6244 A2.5,2.5 0 0 1 418.1219,692.1244 L418.1219,906.4175 A2.5,2.5 0 0 1 415.6219,908.9175 L93.6219,908.9175 A2.5,2.5 0 0 1 91.1219,906.4175 L91.1219,669.8275 A2.5,2.5 0 0 1 93.6219,667.3275 " fill="#FFFFFF" fill-opacity="0.00000" style="stroke:#000000;stroke-width:1.5;"/><line style="stroke:#000000;stroke-width:1.5;" x1="91.1219" x2="254.7928" y1="689.6244" y2="689.6244"/><text fill="#000000" font-family="sans-serif" font-size="14" font-weight="bold" lengthAdjust="spacing" textLength="150.6709" x="95.1219" y="682.3226">Gateway Container</text></g><!--cluster RedisContainer--><g id="cluster_RedisContainer"><path d="M444.6219,811.6275 L566.2146,811.6275 A3.75,3.75 0 0 1 568.7146,814.1275 L575.7146,833.9244 L575.6219,833.9244 A2.5,2.5 0 0 1 578.1219,836.4244 L578.1219,906.4175 A2.5,2.5 0 0 1 575.6219,908.9175 L444.6219,908.9175 A2.5,2.5 0 0 1 442.1219,906.4175 L442.1219,814.1275 A2.5,2.5 0 0 1 444.6219,811.6275 " fill="#FFFFFF" fill-opacity="0.00000" style="stroke:#000000;stroke-width:1.5;"/><line style="stroke:#000000;stroke-width:1.5;" x1="442.1219" x2="575.7146" y1="833.9244" y2="833.9244"/><text fill="#000000" font-family="sans-serif" font-size="14" font-weight="bold" lengthAdjust="spacing" textLength="120.5928" x="446.1219" y="826.6226">RedisContainer</text></g><!--cluster MongoDB Container--><g id="cluster_MongoDB Container"><path d="M604.6219,812.1275 L763.1082,812.1275 A3.75,3.75 0 0 1 765.6082,814.6275 L772.6082,834.4244 L772.6219,834.4244 A2.5,2.5 0 0 1 775.1219,836.9244 L775.1219,905.9175 A2.5,2.5 0 0 1 772.6219,908.4175 L604.6219,908.4175 A2.5,2.5 0 0 1 602.1219,905.9175 L602.1219,814.6275 A2.5,2.5 0 0 1 604.6219,812.1275 " fill="#FFFFFF" fill-opacity="0.00000" style="stroke:#000000;stroke-width:1.5;"/><line style="stroke:#000000;stroke-width:1.5;" x1="602.1219" x2="772.6082" y1="834.4244" y2="834.4244"/><text fill="#000000" font-family="sans-serif" font-size="14" font-weight="bold" lengthAdjust="spacing" textLength="157.4863" x="606.1219" y="827.1226">MongoDB Container</text></g><!--cluster Layer 1 (data)--><g id="cluster_Layer 1 (data)"><path d="M210.6219,1005.9175 L323.41,1005.9175 A3.75,3.75 0 0 1 325.91,1008.4175 L332.91,1028.2144 L521.6219,1028.2144 A2.5,2.5 0 0 1 524.1219,1030.7144 L524.1219,1166.7175 A2.5,2.5 0 0 1 521.6219,1169.2175 L210.6219,1169.2175 A2.5,2.5 0 0 1 208.1219,1166.7175 L208.1219,1008.4175 A2.5,2.5 0 0 1 210.6219,1005.9175 " fill="#FFFFFF" fill-opacity="0.00000" style="stroke:#000000;stroke-width:1.5;"/><line style="stroke:#000000;stroke-width:1.5;" x1="208.1219" x2="332.91" y1="1028.2144" y2="1028.2144"/><text fill="#000000" font-family="sans-serif" font-size="14" font-weight="bold" lengthAdjust="spacing" textLength="111.7881" x="212.1219" y="1020.9126">Layer 1 (data)</text></g><!--cluster Database Service--><g id="cluster_Database Service"><path d="M240.334,1058.1983 C245.3123,1049.3479 251.7597,1046.5173 259.1706,1055.6503 C264.676,1046.8784 269.8334,1045.9291 276.3408,1054.6678 C280.7446,1044.9925 288.6791,1043.0842 295.8217,1051.7604 C301.6875,1042.7127 309.3294,1043.4624 314.667,1052.3165 C317.8877,1042.3995 326.9111,1040.9974 333.3193,1048.9983 C337.6452,1040.8248 345.6541,1041.5914 350.3446,1048.589 C354.4192,1041.1006 362.4883,1040.7336 367.2887,1047.7406 C372.5979,1037.8763 379.1556,1038.1447 385.2558,1046.9807 C391.2209,1037.9504 398.782,1039.8885 403.0019,1048.715 C409.0828,1041.7515 418.6393,1041.2314 421.6842,1051.9268 C426.5845,1044.9582 434.4597,1045.349 438.1853,1053.2319 C445.4036,1045.8209 453.3925,1046.3374 458.0857,1056.1495 C463.1744,1047.6637 469.1178,1047.5968 474.1578,1056.1953 C479.9043,1046.2974 488.7453,1047.8971 493.595,1057.1075 C506.2847,1061.0262 506.1386,1070.834 497.6027,1078.6936 C509.3175,1083.2667 510.8618,1092.2622 501.0285,1100.2584 C508.3253,1106.632 506.9703,1114.7606 497.5443,1117.8155 C506.7189,1127.965 504.7634,1135.0548 492.2182,1139.9866 C487.4565,1145.9537 481.576,1146.221 477.1963,1139.5332 C471.8646,1149.0845 463.3312,1150.7319 456.7452,1140.8535 C451.7328,1148.4438 444.4521,1146.7792 441.3299,1138.9623 C435.1162,1148.6196 428.3017,1148.1556 422.0478,1139.0037 C416.9041,1149.3846 408.7286,1150.0142 402.4146,1140.138 C397.2868,1147.4253 391.5881,1147.4374 386.8512,1139.7321 C382.6009,1148.8598 374.3665,1150.3772 368.0214,1141.9833 C360.4627,1150.4334 354.7813,1148.2216 349.4856,1139.5355 C345.2961,1148.2091 336.6212,1149.5126 331.0039,1141.0778 C326.3262,1149.6566 319.4407,1147.9685 314.7541,1141.0871 C309.4265,1150.9079 300.5506,1148.3099 295.8469,1140.421 C288.9445,1149.4516 281.2985,1148.2034 277.0247,1137.8664 C271.6535,1146.2816 265.6055,1147.6095 258.5369,1139.8006 C252.3478,1148.5788 244.4123,1147.7997 240.649,1137.5234 C231.3772,1130.7881 231.1002,1124.3297 240.5702,1117.5207 C231.3245,1113.0053 231.3444,1103.6879 240.0874,1098.7107 C229.4607,1091.1003 230.5288,1083.4047 242.1857,1078.0584 C231.51,1072.1405 231.966,1065.8919 240.334,1058.1983 " fill="#FFFFFF" fill-opacity="0.00000" style="stroke:#181818;stroke-width:1;"/><text fill="#000000" font-family="sans-serif" font-size="14" font-weight="bold" lengthAdjust="spacing" textLength="137.5801" x="297.3318" y="1074.9126">Database Service</text></g><!--entity ingress--><g id="elem_ingress"><path d="M312.6251,368.7375 L312.6251,392.7375 M312.6251,380.7375 L329.6251,380.7375 " fill="#FFFFFF" fill-opacity="0.00000" style="stroke:#181818;stroke-width:0.5;"/><ellipse cx="341.6251" cy="380.7375" fill="#F1F1F1" rx="12" ry="12" style="stroke:#181818;stroke-width:0.5;"/><text fill="#000000" font-family="sans-serif" font-size="14" lengthAdjust="spacing" textLength="50.6064" x="307.8219" y="409.7326">ingress</text></g><!--entity loki--><g id="elem_loki"><path d="M814.8919,857.1275 C814.8919,847.1275 837.1179,847.1275 837.1179,847.1275 C837.1179,847.1275 859.344,847.1275 859.344,857.1275 L859.344,882.4244 C859.344,892.4244 837.1179,892.4244 837.1179,892.4244 C837.1179,892.4244 814.8919,892.4244 814.8919,882.4244 L814.8919,857.1275 " fill="#F1F1F1" style="stroke:#181818;stroke-width:0.5;"/><path d="M814.8919,857.1275 C814.8919,867.1275 837.1179,867.1275 837.1179,867.1275 C837.1179,867.1275 859.344,867.1275 859.344,857.1275 " fill="#FFFFFF" fill-opacity="0.00000" style="stroke:#181818;stroke-width:0.5;"/><text fill="#000000" font-family="sans-serif" font-size="14" lengthAdjust="spacing" textLength="24.4521" x="824.8919" y="884.1226">loki</text></g><!--entity prometheus--><g id="elem_prometheus"><path d="M894.8219,857.1275 C894.8219,847.1275 947.1227,847.1275 947.1227,847.1275 C947.1227,847.1275 999.4234,847.1275 999.4234,857.1275 L999.4234,882.4244 C999.4234,892.4244 947.1227,892.4244 947.1227,892.4244 C947.1227,892.4244 894.8219,892.4244 894.8219,882.4244 L894.8219,857.1275 " fill="#F1F1F1" style="stroke:#181818;stroke-width:0.5;"/><path d="M894.8219,857.1275 C894.8219,867.1275 947.1227,867.1275 947.1227,867.1275 C947.1227,867.1275 999.4234,867.1275 999.4234,857.1275 " fill="#FFFFFF" fill-opacity="0.00000" style="stroke:#181818;stroke-width:0.5;"/><text fill="#000000" font-family="sans-serif" font-size="14" lengthAdjust="spacing" textLength="84.6016" x="904.8219" y="884.1226">prometheus</text></g><!--entity Nginx--><g id="elem_Nginx"><path d="M312.6219,558.0275 L312.6219,582.0275 M312.6219,570.0275 L329.6219,570.0275 " fill="#FFFFFF" fill-opacity="0.00000" style="stroke:#181818;stroke-width:0.5;"/><ellipse cx="341.6219" cy="570.0275" fill="#F1F1F1" rx="12" ry="12" style="stroke:#181818;stroke-width:0.5;"/><text fill="#000000" font-family="sans-serif" font-size="14" lengthAdjust="spacing" textLength="40.4072" x="312.9183" y="599.0226">Nginx</text></g><!--entity Plugins--><g id="elem_Plugins"><rect fill="#F1F1F1" height="46.2969" rx="2.5" ry="2.5" style="stroke:#181818;stroke-width:0.5;" width="187.2461" x="107.5019" y="846.6275"/><rect fill="#F1F1F1" height="10" style="stroke:#181818;stroke-width:0.5;" width="15" x="274.748" y="851.6275"/><rect fill="#F1F1F1" height="2" style="stroke:#181818;stroke-width:0.5;" width="4" x="272.748" y="853.6275"/><rect fill="#F1F1F1" height="2" style="stroke:#181818;stroke-width:0.5;" width="4" x="272.748" y="857.6275"/><text fill="#000000" font-family="sans-serif" font-size="14" lengthAdjust="spacing" textLength="147.2461" x="122.5019" y="879.6226">Open Catalogi plugin</text></g><!--entity Gateway--><g id="elem_Gateway"><rect fill="#F1F1F1" height="46.2969" rx="2.5" ry="2.5" style="stroke:#181818;stroke-width:0.5;" width="137.6377" x="264.3019" y="702.3275"/><rect fill="#F1F1F1" height="10" style="stroke:#181818;stroke-width:0.5;" width="15" x="381.9396" y="707.3275"/><rect fill="#F1F1F1" height="2" style="stroke:#181818;stroke-width:0.5;" width="4" x="379.9396" y="709.3275"/><rect fill="#F1F1F1" height="2" style="stroke:#181818;stroke-width:0.5;" width="4" x="379.9396" y="713.3275"/><text fill="#000000" font-family="sans-serif" font-size="14" lengthAdjust="spacing" textLength="97.6377" x="279.3019" y="735.3226">Web Gateway</text></g><!--entity ORM--><g id="elem_ORM"><rect fill="#F1F1F1" height="46.2969" rx="2.5" ry="2.5" style="stroke:#181818;stroke-width:0.5;" width="72.8262" x="329.7119" y="846.6275"/><rect fill="#F1F1F1" height="10" style="stroke:#181818;stroke-width:0.5;" width="15" x="382.538" y="851.6275"/><rect fill="#F1F1F1" height="2" style="stroke:#181818;stroke-width:0.5;" width="4" x="380.538" y="853.6275"/><rect fill="#F1F1F1" height="2" style="stroke:#181818;stroke-width:0.5;" width="4" x="380.538" y="857.6275"/><text fill="#000000" font-family="sans-serif" font-size="14" lengthAdjust="spacing" textLength="32.8262" x="344.7119" y="879.6226">ORM</text></g><!--entity Redis--><g id="elem_Redis"><rect fill="#F1F1F1" height="46.2969" rx="2.5" ry="2.5" style="stroke:#181818;stroke-width:0.5;" width="78.4111" x="457.9119" y="846.6275"/><rect fill="#F1F1F1" height="10" style="stroke:#181818;stroke-width:0.5;" width="15" x="516.323" y="851.6275"/><rect fill="#F1F1F1" height="2" style="stroke:#181818;stroke-width:0.5;" width="4" x="514.323" y="853.6275"/><rect fill="#F1F1F1" height="2" style="stroke:#181818;stroke-width:0.5;" width="4" x="514.323" y="857.6275"/><text fill="#000000" font-family="sans-serif" font-size="14" lengthAdjust="spacing" textLength="38.4111" x="472.9119" y="879.6226">Redis</text></g><!--entity MognoDB--><g id="elem_MognoDB"><path d="M618.2219,857.1275 C618.2219,847.1275 664.1242,847.1275 664.1242,847.1275 C664.1242,847.1275 710.0266,847.1275 710.0266,857.1275 L710.0266,882.4244 C710.0266,892.4244 664.1242,892.4244 664.1242,892.4244 C664.1242,892.4244 618.2219,892.4244 618.2219,882.4244 L618.2219,857.1275 " fill="#F1F1F1" style="stroke:#181818;stroke-width:0.5;"/><path d="M618.2219,857.1275 C618.2219,867.1275 664.1242,867.1275 664.1242,867.1275 C664.1242,867.1275 710.0266,867.1275 710.0266,857.1275 " fill="#FFFFFF" fill-opacity="0.00000" style="stroke:#181818;stroke-width:0.5;"/><text fill="#000000" font-family="sans-serif" font-size="14" lengthAdjust="spacing" textLength="67.3545" x="628.2219" y="884.1226">MongoDB</text></g><!--entity db--><g id="elem_db"><path d="M247.9019,1093.9175 C247.9019,1083.9175 366.125,1083.9175 366.125,1083.9175 C366.125,1083.9175 484.3482,1083.9175 484.3482,1093.9175 L484.3482,1119.2144 C484.3482,1129.2144 366.125,1129.2144 366.125,1129.2144 C366.125,1129.2144 247.9019,1129.2144 247.9019,1119.2144 L247.9019,1093.9175 " fill="#F1F1F1" style="stroke:#181818;stroke-width:0.5;"/><path d="M247.9019,1093.9175 C247.9019,1103.9175 366.125,1103.9175 366.125,1103.9175 C366.125,1103.9175 484.3482,1103.9175 484.3482,1093.9175 " fill="#FFFFFF" fill-opacity="0.00000" style="stroke:#181818;stroke-width:0.5;"/><text fill="#000000" font-family="sans-serif" font-size="14" lengthAdjust="spacing" textLength="216.4463" x="257.9019" y="1120.9126">Postgress/MsSQL/MySql/Oracle</text></g><!--entity externalCatalouge--><g id="elem_externalCatalouge"><ellipse cx="333.1206" cy="63.9375" fill="#F1F1F1" rx="8" ry="8" style="stroke:#181818;stroke-width:0.5;"/><path d="M333.1206,71.9375 L333.1206,98.9375 M320.1206,79.9375 L346.1206,79.9375 M333.1206,98.9375 L320.1206,113.9375 M333.1206,98.9375 L346.1206,113.9375 " fill="#FFFFFF" fill-opacity="0.00000" style="stroke:#181818;stroke-width:0.5;"/><text fill="#000000" font-family="sans-serif" font-size="14" lengthAdjust="spacing" textLength="128.8574" x="268.6919" y="128.4326">Externe Catalogus</text></g><!--entity hipp--><g id="elem_hipp"><ellipse cx="333.1219" cy="237.7375" fill="#F1F1F1" rx="8" ry="8" style="stroke:#181818;stroke-width:0.5;"/><text fill="#000000" font-family="sans-serif" font-size="14" lengthAdjust="spacing" textLength="74.4434" x="295.9002" y="267.7326">Mtls (PKIo)</text></g><!--link externalCatalouge to hipp--><g id="link_externalCatalouge_hipp"><path d="M333.1219,137.9375 C333.1219,170.9975 333.1219,204.7475 333.1219,222.8775 " fill="#FFFFFF" fill-opacity="0.00000" id="externalCatalouge-hipp" style="stroke:#181818;stroke-width:1;stroke-dasharray:7.0,7.0;"/><polygon fill="#181818" points="333.1219,131.9375,329.1219,140.9375,333.1219,136.9375,337.1219,140.9375,333.1219,131.9375" style="stroke:#181818;stroke-width:1;"/><polygon fill="#181818" points="333.1219,228.8775,337.1219,219.8775,333.1219,223.8775,329.1219,219.8775,333.1219,228.8775" style="stroke:#181818;stroke-width:1;"/><text fill="#000000" font-family="sans-serif" font-size="13" lengthAdjust="spacing" textLength="28.1519" x="334.1219" y="174.8044">PKIo</text></g><!--link hipp to ingress--><g id="link_hipp_ingress"><path d="M333.1219,252.3375 C333.1219,273.8875 333.1219,324.0275 333.1219,358.3675 " fill="#FFFFFF" fill-opacity="0.00000" id="hipp-ingress" style="stroke:#181818;stroke-width:1;stroke-dasharray:7.0,7.0;"/><polygon fill="#181818" points="333.1219,246.3375,329.1219,255.3375,333.1219,251.3375,337.1219,255.3375,333.1219,246.3375" style="stroke:#181818;stroke-width:1;"/><polygon fill="#181818" points="333.1219,364.3675,337.1219,355.3675,333.1219,359.3675,329.1219,355.3675,333.1219,364.3675" style="stroke:#181818;stroke-width:1;"/><text fill="#000000" font-family="sans-serif" font-size="13" lengthAdjust="spacing" textLength="91.0762" x="334.1219" y="309.8044">/api/catalogi/*</text></g><!--link ingress to Nginx--><g id="link_ingress_Nginx"><path d="M333.1219,419.2275 C333.1219,455.1175 333.1219,511.4775 333.1219,547.5375 " fill="#FFFFFF" fill-opacity="0.00000" id="ingress-Nginx" style="stroke:#181818;stroke-width:1;stroke-dasharray:7.0,7.0;"/><polygon fill="#181818" points="333.1219,413.2275,329.1219,422.2275,333.1219,418.2275,337.1219,422.2275,333.1219,413.2275" style="stroke:#181818;stroke-width:1;"/><polygon fill="#181818" points="333.1219,553.5375,337.1219,544.5375,333.1219,548.5375,329.1219,544.5375,333.1219,553.5375" style="stroke:#181818;stroke-width:1;"/><text fill="#000000" font-family="sans-serif" font-size="13" lengthAdjust="spacing" textLength="53.6567" x="334.1219" y="456.0944">Exposes</text></g><!--link Nginx to Gateway--><g id="link_Nginx_Gateway"><path d="M333.1219,608.5275 C333.1219,635.9575 333.1219,669.1575 333.1219,696.1475 " fill="#FFFFFF" fill-opacity="0.00000" id="Nginx-Gateway" style="stroke:#181818;stroke-width:1;stroke-dasharray:7.0,7.0;"/><polygon fill="#181818" points="333.1219,602.5275,329.1219,611.5275,333.1219,607.5275,337.1219,611.5275,333.1219,602.5275" style="stroke:#181818;stroke-width:1;"/><polygon fill="#181818" points="333.1219,702.1475,337.1219,693.1475,333.1219,697.1475,329.1219,693.1475,333.1219,702.1475" style="stroke:#181818;stroke-width:1;"/><text fill="#000000" font-family="sans-serif" font-size="13" lengthAdjust="spacing" textLength="32.2842" x="334.1219" y="647.3944">Runs</text></g><!--link Gateway to Plugins--><g id="link_Gateway_Plugins"><path d="M289.5863,752.3158 C277.1163,760.6658 268.7619,767.5075 258.1219,778.6275 C238.6619,798.9575 224.9967,821.6129 214.8467,840.9829 " fill="#FFFFFF" fill-opacity="0.00000" id="Gateway-Plugins" style="stroke:#181818;stroke-width:1;stroke-dasharray:7.0,7.0;"/><polygon fill="#181818" points="294.5719,748.9775,284.868,750.6613,290.4173,751.7595,289.3191,757.3087,294.5719,748.9775" style="stroke:#181818;stroke-width:1;"/><polygon fill="#181818" points="212.0619,846.2975,219.7822,840.1822,214.3826,841.8687,212.6961,836.4691,212.0619,846.2975" style="stroke:#181818;stroke-width:1;"/><text fill="#000000" font-family="sans-serif" font-size="13" lengthAdjust="spacing" textLength="77.1304" x="259.1219" y="791.6944">Implements</text></g><!--link Gateway to loki--><g id="link_Gateway_loki"><path d="M402.1519,732.9175 C482.1819,741.9975 617.0519,762.2875 726.1219,803.6275 C758.7219,815.9775 787.8586,834.067 809.5186,848.967 " fill="#FFFFFF" fill-opacity="0.00000" id="Gateway-to-loki" style="stroke:#181818;stroke-width:1;stroke-dasharray:7.0,7.0;"/><polygon fill="#181818" points="814.4619,852.3675,809.3139,843.9712,810.3424,849.5337,804.7799,850.5623,814.4619,852.3675" style="stroke:#181818;stroke-width:1;"/><text fill="#000000" font-family="sans-serif" font-size="13" lengthAdjust="spacing" textLength="47.4043" x="696.1219" y="791.6944">Logs to</text></g><!--link Gateway to prometheus--><g id="link_Gateway_prometheus"><path d="M402.3419,730.6675 C529.6819,739.2875 795.5119,761.8175 877.1219,803.6275 C897.5119,814.0675 912.2621,827.7152 925.2121,842.1952 " fill="#FFFFFF" fill-opacity="0.00000" id="Gateway-to-prometheus" style="stroke:#181818;stroke-width:1;stroke-dasharray:7.0,7.0;"/><polygon fill="#181818" points="929.2119,846.6675,926.1938,837.2925,925.8787,842.9406,920.2307,842.6255,929.2119,846.6675" style="stroke:#181818;stroke-width:1;"/><text fill="#000000" font-family="sans-serif" font-size="13" lengthAdjust="spacing" textLength="67.6343" x="855.1219" y="791.6944">Reports to</text></g><!--link Gateway to MognoDB--><g id="link_Gateway_MognoDB"><path d="M402.0119,747.0575 C445.8119,761.0475 503.2719,781.0575 552.1219,803.6275 C579.2819,816.1675 603.3565,830.0993 625.1165,843.6293 " fill="#FFFFFF" fill-opacity="0.00000" id="Gateway-to-MognoDB" style="stroke:#181818;stroke-width:1;stroke-dasharray:7.0,7.0;"/><polygon fill="#181818" points="630.2119,846.7975,624.681,838.6483,625.9658,844.1573,620.4567,845.4421,630.2119,846.7975" style="stroke:#181818;stroke-width:1;"/><text fill="#000000" font-family="sans-serif" font-size="13" lengthAdjust="spacing" textLength="36.0166" x="529.1219" y="791.6944">Index</text></g><!--link Gateway to Redis--><g id="link_Gateway_Redis"><path d="M359.1119,749.0275 C389.8119,775.6675 436.0698,815.7956 466.7298,842.3956 " fill="#FFFFFF" fill-opacity="0.00000" id="Gateway-to-Redis" style="stroke:#181818;stroke-width:1;stroke-dasharray:7.0,7.0;"/><polygon fill="#181818" points="471.2619,846.3275,467.085,837.4082,467.4851,843.0509,461.8424,843.451,471.2619,846.3275" style="stroke:#181818;stroke-width:1;"/><text fill="#000000" font-family="sans-serif" font-size="13" lengthAdjust="spacing" textLength="40.4282" x="411.1219" y="791.6944">Cache</text></g><!--link Gateway to ORM--><g id="link_Gateway_ORM"><path d="M338.3519,749.0275 C344.5319,775.6675 353.3961,813.8827 359.5661,840.4827 " fill="#FFFFFF" fill-opacity="0.00000" id="Gateway-to-ORM" style="stroke:#181818;stroke-width:1;stroke-dasharray:7.0,7.0;"/><polygon fill="#181818" points="360.9219,846.3275,362.7848,836.6564,359.7921,841.4568,354.9917,838.4641,360.9219,846.3275" style="stroke:#181818;stroke-width:1;"/><text fill="#000000" font-family="sans-serif" font-size="13" lengthAdjust="spacing" textLength="34.6455" x="349.1219" y="791.6944">Store</text></g><!--link ORM to db--><g id="link_ORM_db"><path d="M366.1219,893.2875 C366.1219,938.2775 366.1219,1032.8175 366.1219,1077.4675 " fill="#FFFFFF" fill-opacity="0.00000" id="ORM-to-db" style="stroke:#181818;stroke-width:1;stroke-dasharray:7.0,7.0;"/><polygon fill="#181818" points="366.1219,1083.4675,370.1219,1074.4675,366.1219,1078.4675,362.1219,1074.4675,366.1219,1083.4675" style="stroke:#181818;stroke-width:1;"/><text fill="#000000" font-family="sans-serif" font-size="13" lengthAdjust="spacing" textLength="43.437" x="367.1219" y="985.9844">Persist</text></g><text fill="#888888" font-family="sans-serif" font-size="10" lengthAdjust="spacing" textLength="165.3857" x="442.6302" y="1184.4997">Common Gateway | Components</text><!--SRC=[PLF1Rjim3BthAmYViXrg5EZ967POEnH1upHB3Ximx23Rh2FKbZH9tX9q_VTHj3pFZI-c7XyVhKSwgD1X0OyMDTpA83lJAlW3dqy1dSO96hnuCeQW0cvDtniDzpBWRtacAW7MQDJ1YoFA9d4cICWw60VPXM06qWCoAhiH7LeKIXFo96k4h0oTXzNkOMtUCVceh1NngOdQGFOmL54oeCzUXAZCe1lfpf0ftJhqOuCKYuOQLD8ZTEPPpIVhJ8_XY7G_UgoidsLBdJVoZ0vkOBKXDshg_ZBdjlVhxJUweGvIQNGn1tFlRQlqYJjp95x_KvqiMzP-Nrflku4AVqI57OUUA5-ncWpdJ8fZyRvaXDwBNdjib7_JY35cSnJvSq5fT6lkFhtvk7z6pGI-N6bQJGUI897N2-UkOHKhsRWqhBj9wO3kbwenMwhlZ0yygRpqXo-Rl3mVVdRvevDrXzongSPc5ni37wwkFl9k511tHSHm1DFm2yYbLNcTBCxVYvGOMJoeWZRU6ezUy176LFAvWFr0SvZcnwaqd0BMlUsmvrsV234Vzwm0sXyFmImoyywHBbhZmWKbsKlYki7J8iMZepzCraTS96W32ZZGluQ2Gc2igSWJT5xvy1S0]--></g></svg>