<svg xmlns="http://www.w3.org/2000/svg" xmlns:xlink="http://www.w3.org/1999/xlink" contentStyleType="text/css" data-diagram-type="DESCRIPTION" height="1217px" preserveAspectRatio="none" style="width:1404px;height:1217px;background:#FFFFFF;" version="1.1" viewBox="0 0 1404 1217" width="1404px" zoomAndPan="magnify"><title>Open Catalogi | User</title><defs/><g><text fill="#888888" font-family="sans-serif" font-size="10" lengthAdjust="spacing" textLength="63.2666" x="1327.3671" y="9.2822">Components</text><text fill="#000000" font-family="sans-serif" font-size="14" font-weight="bold" lengthAdjust="spacing" textLength="162.3193" x="614.1572" y="35.6357">Open Catalogi | User</text><!--cluster Azure--><g id="cluster_Azure"><path d="M1294.7038,843.0919 C1297.6526,837.0432 1303.5231,837.1136 1306.6375,842.9254 C1310.365,837.0754 1315.1355,837.6062 1319.1456,842.5994 C1321.6959,836.6927 1327.4684,836.11 1330.8664,841.738 C1333.096,835.5632 1338.124,835.5098 1341.8814,840.1873 C1345.7756,835.8504 1351.9346,835.6176 1353.9012,842.2915 C1357.1445,837.3689 1361.7352,836.205 1365.6349,841.5407 C1369.3375,837.2235 1374.5615,837.0801 1376.5782,843.2928 C1380.7154,838.0556 1384.3325,836.9553 1388.3194,843.4433 C1393.7309,847.2013 1394.6278,852.7374 1388.5847,856.7241 C1396.8469,859.8572 1397.6337,866.3544 1390.4943,871.4805 C1396.7527,875.0358 1397.5954,880.0712 1391.2483,884.3642 C1396.9059,889.7534 1396.2646,895.0979 1389.3452,898.8329 C1394.5041,903.1522 1394.3288,906.8822 1389.3343,911.1924 C1396.7591,915.7636 1395.4078,920.975 1388.8969,925.1082 C1384.8014,930.4025 1380.2397,931.178 1376.4902,924.7423 C1373.5103,931.568 1368.2009,931.4545 1364.1925,925.7519 C1361.1199,932.0271 1357.1387,932.842 1352.7738,926.9663 C1349.708,931.243 1345.4691,930.9842 1342.6648,926.6589 C1338.5462,932.7737 1332.6339,931.5955 1330.2991,924.9325 C1327.1796,930.5719 1321.5367,932.5676 1317.2016,926.2658 C1313.2282,931.0788 1309.9342,931.8762 1306.4343,925.7975 C1302.2976,930.5606 1298.5026,930.1471 1294.8318,925.2386 C1286.7596,922.6699 1286.4587,916.9901 1291.8834,911.5206 C1284.1758,908.1574 1282.551,903.613 1288.5626,897.0922 C1282.1498,894.895 1280.3096,888.9517 1286.3414,884.5505 C1280.7354,879.0288 1281.675,874.9889 1288.6191,871.69 C1282.8005,865.2039 1283.8506,858.6596 1292.8566,856.2395 C1286.3785,850.6683 1286.8373,846.6478 1294.7038,843.0919 " fill="#FFFFFF" fill-opacity="0.00000" style="stroke:#181818;stroke-width:1;"/><text fill="#000000" font-family="sans-serif" font-size="14" font-weight="bold" lengthAdjust="spacing" textLength="45.3496" x="1317.9907" y="860.6226">Azure</text></g><!--cluster Internet--><g id="cluster_Internet"><path d="M323.711,1075.7078 C327.3694,1068.7119 331.3944,1069.7538 336.2034,1074.4818 C338.3271,1068.7219 343.2921,1068.1271 346.6172,1073.3419 C349.7414,1068.1036 355.1462,1067.8603 358.2088,1073.4081 C362.2662,1067.796 365.9646,1068.1738 370.3292,1073.0532 C372.5633,1068.2527 376.9046,1066.4691 380.5063,1071.6602 C384.4972,1066.5955 388.5321,1065.867 392.2883,1071.9093 C395.0619,1066.7515 399.9103,1066.638 403.3153,1071.1924 C407.4803,1066.2458 410.9382,1066.7895 414.4092,1071.9539 C418.1665,1067.1392 422.8565,1068.0953 425.2241,1073.4343 C429.261,1068.7645 432.9199,1068.1482 436.9022,1073.4979 C440.0435,1068.9661 445.4077,1068.7068 448.1085,1074.0003 C456.2556,1069.1354 462.3764,1070.6636 464.6655,1080.5675 C465.2627,1080.0909 465.8308,1080.0705 466.0582,1080.9479 C473.8448,1085.3126 473.3377,1090.1387 467.2076,1095.5954 C474.3532,1098.1352 475.3491,1104.4696 468.9304,1108.7816 C474.8337,1112.0661 476.6548,1115.8946 470.6894,1120.9017 C476.0529,1126.1318 475.531,1130.7093 469.1568,1134.629 C474.8327,1138.7341 473.3748,1144.4776 467.7018,1147.2771 C473.9503,1156.9704 470.7263,1166.9203 457.6655,1166.5675 C458.9217,1166.4454 459.4479,1167.112 459.0577,1168.3074 C455.5929,1174.3014 450.9664,1175.1629 447.0426,1168.7519 C445.1559,1173.3789 440.6824,1175.3836 437.1439,1170.4648 C433.9454,1176.4156 428.6495,1177.8241 424.3632,1171.6075 C422.698,1176.6746 417.8928,1177.3937 414.6236,1173.3157 C411.3394,1178.4725 405.8052,1178.6042 403.009,1172.7986 C400.6886,1179.0512 396.6883,1179.5483 392.1639,1175.0147 C388.3335,1179.7226 384.963,1179.9731 381.3361,1174.7919 C377.1053,1179.6795 372.8071,1178.5401 369.8862,1173.3096 C366.4521,1178.2079 360.9452,1178.4374 358.3112,1172.4582 C353.899,1177.062 349.0879,1177.2559 346.1667,1170.8182 C342.8567,1175.8753 338.2064,1174.7309 335.7031,1169.9593 C325.5092,1174.7854 317.7863,1171.3631 316.6655,1159.5675 C317.9584,1159.4949 318.511,1160.5161 317.9532,1161.6102 C310.2947,1159.0486 309.4519,1153.0208 315.6651,1148.1084 C308.011,1145.7193 306.5779,1139.8984 311.1386,1133.6778 C304.3429,1131.4753 304.1276,1125.7575 308.9694,1121.4846 C303.6893,1115.4381 304.9443,1111.3082 312.3345,1108.5608 C306.3339,1103.0751 308.0036,1098.2096 315.1988,1095.652 C308.4937,1085.5657 311.8456,1076.5518 323.6655,1073.5675 C324.8265,1074.1142 324.7827,1075.1135 323.711,1075.7078 " fill="#FFFFFF" fill-opacity="0.00000" style="stroke:#181818;stroke-width:1;"/><text fill="#000000" font-family="sans-serif" font-size="14" font-weight="bold" lengthAdjust="spacing" textLength="64.4219" x="358.4545" y="1091.5626">Internet</text></g><!--cluster Kubernetes--><g id="cluster_Kubernetes"><path d="M74.9678,338.4506 C104.2952,306.1116 139.2557,304.4988 157.0632,350.5196 C173.4077,303.5489 210.5612,308.7972 238.6162,337.9786 C271.7344,303.0212 304.8471,308.581 329.2394,348.5348 C349.3819,307.5882 382.1716,308.7852 406.4614,344.3489 C437.0955,303.4408 467.607,298.0601 496.5994,346.0141 C518.4053,304.832 546.7248,302.6103 576.9981,337.0064 C596.0991,294.4601 633.9963,298.7484 654.089,336.0489 C683.7127,288.4614 712.7969,291.3814 741.8254,336.6114 C772.5413,288.9329 815.2661,292.3155 836.5839,345.4455 C857.7559,301.0198 893.3403,298.0897 919.3055,340.9004 C948.3087,298.3154 978.898,299.8119 1002.0358,346.3454 C1019.9661,301.9129 1050.7121,302.1306 1078.9007,336.3158 C1109.6831,299.5153 1146.7213,295.8654 1170.5504,343.8335 C1193.5861,306.8717 1231.4616,305.2212 1253.6655,344.7375 C1256.2689,346.3725 1256.4641,348.2226 1253.6906,349.8839 C1288.1502,371.1785 1293.0815,399.1318 1258.6978,425.0145 C1303.4476,449.8207 1303.4737,483.7025 1259.6774,509.535 C1293.1368,530.6432 1294.1157,559.2758 1265.6568,585.2725 C1306.1862,610.888 1300.3073,641.8023 1261.0558,662.6755 C1298.7813,687.2991 1298.4733,719.1907 1256.2441,738.7577 C1297.9805,762.1753 1296.658,793.5131 1264.4085,824.0156 C1296.0499,845.2284 1299.2776,868.9987 1266.9034,892.5421 C1294.4711,927.3224 1285.6362,954.1022 1246.6655,971.9175 C1256.7757,972.2623 1260.1605,978.1192 1254.6436,986.8264 C1224.3366,1028.6416 1191.7947,1030.1507 1163.0299,985.1982 C1139.734,1025.008 1109.5001,1022.431 1088.5783,982.9684 C1060.4179,1029.9503 1031.9375,1026.8707 997.4383,989.8454 C968.4691,1027.2067 935.5948,1020.9191 911.2842,984.4119 C888.6785,1030.0223 847.6131,1017.6163 827.0313,982.3047 C803.4702,1028.5926 773.1281,1032.8691 741.5982,989.9352 C714.4411,1023.2439 691.9871,1027.9578 667.8575,986.9318 C643.9214,1028.6549 603.9811,1029.3098 583.8726,983.269 C557.1104,1030.1453 525.23,1031.5532 495.6511,985.9561 C469.6945,1030.4167 433.7772,1025.2071 411.9039,982.0531 C383.5202,1020.6647 344.7408,1028.401 315.9265,982.5424 C293.3834,1021.5522 265.9842,1015.3674 240.1468,986.2042 C213.8978,1018.4587 180.6145,1019.3504 159.2089,980.6771 C117.4626,1031.0223 78.8806,1025.2832 53.6655,964.9175 C58.5558,960.7687 62.5249,961.0432 65.2942,967.29 C33.8272,944.8059 28.8004,920.7452 62.1993,895.4659 C19.9689,867.309 21.8781,840.9057 62.7016,813.2562 C29.7761,799.0993 19.5099,771.1213 48.2679,744.0918 C9.6207,725.8787 6,690.6017 45.9602,669.9422 C13.4019,646.9768 16.9816,609.9483 51.7398,591.9727 C18.1572,561.2768 18.8904,535.9865 61.3764,514.7877 C25.0755,485.5312 27.0033,453.2034 64.617,426.6649 C27.5065,397.6681 13.9871,370.4575 60.6655,337.7375 C65.17,332.1127 71.1348,330.6065 74.9678,338.4506 " fill="#FFFFFF" fill-opacity="0.00000" style="stroke:#181818;stroke-width:1;"/><text fill="#000000" font-family="sans-serif" font-size="14" font-weight="bold" lengthAdjust="spacing" textLength="91.2188" x="608.0561" y="355.7326">Kubernetes</text></g><!--cluster Layer 5 (interaction)--><g id="cluster_Layer 5 (interaction)"><path d="M72.1655,477.0275 L236.0249,477.0275 A3.75,3.75 0 0 1 238.5249,479.5275 L245.5249,499.3244 L287.1655,499.3244 A2.5,2.5 0 0 1 289.6655,501.8244 L289.6655,638.8275 A2.5,2.5 0 0 1 287.1655,641.3275 L72.1655,641.3275 A2.5,2.5 0 0 1 69.6655,638.8275 L69.6655,479.5275 A2.5,2.5 0 0 1 72.1655,477.0275 " fill="#FFFFFF" fill-opacity="0.00000" style="stroke:#000000;stroke-width:1.5;"/><line style="stroke:#000000;stroke-width:1.5;" x1="69.6655" x2="245.5249" y1="499.3244" y2="499.3244"/><text fill="#000000" font-family="sans-serif" font-size="14" font-weight="bold" lengthAdjust="spacing" textLength="162.8594" x="73.6655" y="492.0226">Layer 5 (interaction)</text></g><!--cluster React Container 1--><g id="cluster_React Container 1"><path d="M96.1655,520.0275 L238.5327,520.0275 A3.75,3.75 0 0 1 241.0327,522.5275 L248.0327,542.3244 L263.1655,542.3244 A2.5,2.5 0 0 1 265.6655,544.8244 L265.6655,614.8275 A2.5,2.5 0 0 1 263.1655,617.3275 L96.1655,617.3275 A2.5,2.5 0 0 1 93.6655,614.8275 L93.6655,522.5275 A2.5,2.5 0 0 1 96.1655,520.0275 " fill="#FFFFFF" fill-opacity="0.00000" style="stroke:#000000;stroke-width:1.5;"/><line style="stroke:#000000;stroke-width:1.5;" x1="93.6655" x2="248.0327" y1="542.3244" y2="542.3244"/><text fill="#000000" font-family="sans-serif" font-size="14" font-weight="bold" lengthAdjust="spacing" textLength="141.3672" x="97.6655" y="535.0226">React Container 1</text></g><!--cluster Layer 4 (Logic)--><g id="cluster_Layer 4 (Logic)"><path d="M316.1655,476.0275 L435.0034,476.0275 A3.75,3.75 0 0 1 437.5034,478.5275 L444.5034,498.3244 L1043.1655,498.3244 A2.5,2.5 0 0 1 1045.6655,500.8244 L1045.6655,953.4175 A2.5,2.5 0 0 1 1043.1655,955.9175 L316.1655,955.9175 A2.5,2.5 0 0 1 313.6655,953.4175 L313.6655,478.5275 A2.5,2.5 0 0 1 316.1655,476.0275 " fill="#FFFFFF" fill-opacity="0.00000" style="stroke:#000000;stroke-width:1.5;"/><line style="stroke:#000000;stroke-width:1.5;" x1="313.6655" x2="444.5034" y1="498.3244" y2="498.3244"/><text fill="#000000" font-family="sans-serif" font-size="14" font-weight="bold" lengthAdjust="spacing" textLength="117.8379" x="317.6655" y="491.0226">Layer 4 (Logic)</text></g><!--cluster NGINX Container--><g id="cluster_NGINX Container"><path d="M440.1655,519.0275 L574.1313,519.0275 A3.75,3.75 0 0 1 576.6313,521.5275 L583.6313,541.3244 L583.1655,541.3244 A2.5,2.5 0 0 1 585.6655,543.8244 L585.6655,615.8275 A2.5,2.5 0 0 1 583.1655,618.3275 L440.1655,618.3275 A2.5,2.5 0 0 1 437.6655,615.8275 L437.6655,521.5275 A2.5,2.5 0 0 1 440.1655,519.0275 " fill="#FFFFFF" fill-opacity="0.00000" style="stroke:#000000;stroke-width:1.5;"/><line style="stroke:#000000;stroke-width:1.5;" x1="437.6655" x2="583.6313" y1="541.3244" y2="541.3244"/><text fill="#000000" font-family="sans-serif" font-size="14" font-weight="bold" lengthAdjust="spacing" textLength="132.9658" x="441.6655" y="534.0226">NGINX Container</text></g><!--cluster Gateway Container--><g id="cluster_Gateway Container"><path d="M340.1655,690.3275 L491.8364,690.3275 A3.75,3.75 0 0 1 494.3364,692.8275 L501.3364,712.6244 L662.1655,712.6244 A2.5,2.5 0 0 1 664.6655,715.1244 L664.6655,929.4175 A2.5,2.5 0 0 1 662.1655,931.9175 L340.1655,931.9175 A2.5,2.5 0 0 1 337.6655,929.4175 L337.6655,692.8275 A2.5,2.5 0 0 1 340.1655,690.3275 " fill="#FFFFFF" fill-opacity="0.00000" style="stroke:#000000;stroke-width:1.5;"/><line style="stroke:#000000;stroke-width:1.5;" x1="337.6655" x2="501.3364" y1="712.6244" y2="712.6244"/><text fill="#000000" font-family="sans-serif" font-size="14" font-weight="bold" lengthAdjust="spacing" textLength="150.6709" x="341.6655" y="705.3226">Gateway Container</text></g><!--cluster RedisContainer--><g id="cluster_RedisContainer"><path d="M691.1655,834.6275 L812.7582,834.6275 A3.75,3.75 0 0 1 815.2582,837.1275 L822.2582,856.9244 L822.1655,856.9244 A2.5,2.5 0 0 1 824.6655,859.4244 L824.6655,929.4175 A2.5,2.5 0 0 1 822.1655,931.9175 L691.1655,931.9175 A2.5,2.5 0 0 1 688.6655,929.4175 L688.6655,837.1275 A2.5,2.5 0 0 1 691.1655,834.6275 " fill="#FFFFFF" fill-opacity="0.00000" style="stroke:#000000;stroke-width:1.5;"/><line style="stroke:#000000;stroke-width:1.5;" x1="688.6655" x2="822.2582" y1="856.9244" y2="856.9244"/><text fill="#000000" font-family="sans-serif" font-size="14" font-weight="bold" lengthAdjust="spacing" textLength="120.5928" x="692.6655" y="849.6226">RedisContainer</text></g><!--cluster MongoDB Container--><g id="cluster_MongoDB Container"><path d="M851.1655,835.1275 L1009.6518,835.1275 A3.75,3.75 0 0 1 1012.1518,837.6275 L1019.1518,857.4244 L1019.1655,857.4244 A2.5,2.5 0 0 1 1021.6655,859.9244 L1021.6655,928.9175 A2.5,2.5 0 0 1 1019.1655,931.4175 L851.1655,931.4175 A2.5,2.5 0 0 1 848.6655,928.9175 L848.6655,837.6275 A2.5,2.5 0 0 1 851.1655,835.1275 " fill="#FFFFFF" fill-opacity="0.00000" style="stroke:#000000;stroke-width:1.5;"/><line style="stroke:#000000;stroke-width:1.5;" x1="848.6655" x2="1019.1518" y1="857.4244" y2="857.4244"/><text fill="#000000" font-family="sans-serif" font-size="14" font-weight="bold" lengthAdjust="spacing" textLength="157.4863" x="852.6655" y="850.1226">MongoDB Container</text></g><!--cluster Layer 1 (data)--><g id="cluster_Layer 1 (data)"><path d="M499.1655,1028.9175 L611.9536,1028.9175 A3.75,3.75 0 0 1 614.4536,1031.4175 L621.4536,1051.2144 L810.1655,1051.2144 A2.5,2.5 0 0 1 812.6655,1053.7144 L812.6655,1189.7175 A2.5,2.5 0 0 1 810.1655,1192.2175 L499.1655,1192.2175 A2.5,2.5 0 0 1 496.6655,1189.7175 L496.6655,1031.4175 A2.5,2.5 0 0 1 499.1655,1028.9175 " fill="#FFFFFF" fill-opacity="0.00000" style="stroke:#000000;stroke-width:1.5;"/><line style="stroke:#000000;stroke-width:1.5;" x1="496.6655" x2="621.4536" y1="1051.2144" y2="1051.2144"/><text fill="#000000" font-family="sans-serif" font-size="14" font-weight="bold" lengthAdjust="spacing" textLength="111.7881" x="500.6655" y="1043.9126">Layer 1 (data)</text></g><!--cluster Database Service--><g id="cluster_Database Service"><path d="M528.8776,1081.1983 C533.8559,1072.3479 540.3033,1069.5173 547.7142,1078.6503 C553.2196,1069.8784 558.377,1068.9291 564.8844,1077.6678 C569.2882,1067.9925 577.2227,1066.0842 584.3653,1074.7604 C590.2311,1065.7127 597.873,1066.4624 603.2106,1075.3165 C606.4314,1065.3995 615.4547,1063.9974 621.8629,1071.9983 C626.1888,1063.8248 634.1977,1064.5914 638.8882,1071.589 C642.9628,1064.1006 651.0319,1063.7336 655.8323,1070.7406 C661.1415,1060.8763 667.6992,1061.1447 673.7994,1069.9807 C679.7645,1060.9504 687.3256,1062.8885 691.5456,1071.715 C697.6264,1064.7515 707.1829,1064.2314 710.2278,1074.9268 C715.1281,1067.9582 723.0033,1068.349 726.7289,1076.2319 C733.9472,1068.8209 741.9361,1069.3374 746.6293,1079.1495 C751.718,1070.6637 757.6614,1070.5968 762.7014,1079.1953 C768.4479,1069.2974 777.2889,1070.8971 782.1386,1080.1075 C794.8283,1084.0262 794.6822,1093.834 786.1463,1101.6936 C797.8611,1106.2667 799.4054,1115.2622 789.5721,1123.2584 C796.8689,1129.632 795.5139,1137.7606 786.0879,1140.8155 C795.2625,1150.965 793.307,1158.0548 780.7618,1162.9866 C776.0001,1168.9537 770.1196,1169.221 765.7399,1162.5332 C760.4082,1172.0845 751.8748,1173.7319 745.2888,1163.8535 C740.2764,1171.4438 732.9958,1169.7792 729.8735,1161.9623 C723.6598,1171.6196 716.8454,1171.1556 710.5914,1162.0037 C705.4477,1172.3846 697.2722,1173.0142 690.9582,1163.138 C685.8304,1170.4253 680.1317,1170.4374 675.3948,1162.7321 C671.1445,1171.8598 662.9101,1173.3772 656.565,1164.9833 C649.0063,1173.4334 643.3249,1171.2216 638.0292,1162.5355 C633.8397,1171.2091 625.1648,1172.5126 619.5475,1164.0778 C614.8698,1172.6566 607.9843,1170.9685 603.2977,1164.0871 C597.9701,1173.9079 589.0942,1171.3099 584.3905,1163.421 C577.4881,1172.4516 569.8421,1171.2034 565.5683,1160.8664 C560.1971,1169.2816 554.1491,1170.6095 547.0805,1162.8006 C540.8914,1171.5788 532.9559,1170.7997 529.1926,1160.5234 C519.9208,1153.7881 519.6438,1147.3297 529.1139,1140.5207 C519.8681,1136.0053 519.888,1126.6879 528.631,1121.7107 C518.0043,1114.1003 519.0724,1106.4047 530.7293,1101.0584 C520.0536,1095.1405 520.5096,1088.8919 528.8776,1081.1983 " fill="#FFFFFF" fill-opacity="0.00000" style="stroke:#181818;stroke-width:1;"/><text fill="#000000" font-family="sans-serif" font-size="14" font-weight="bold" lengthAdjust="spacing" textLength="137.5801" x="585.8754" y="1097.9126">Database Service</text></g><!--entity identity--><g id="elem_identity"><rect fill="#F1F1F1" height="46.2969" rx="2.5" ry="2.5" style="stroke:#181818;stroke-width:0.5;" width="77.2969" x="1302.0155" y="869.6275"/><rect fill="#F1F1F1" height="10" style="stroke:#181818;stroke-width:0.5;" width="15" x="1359.3124" y="874.6275"/><rect fill="#F1F1F1" height="2" style="stroke:#181818;stroke-width:0.5;" width="4" x="1357.3124" y="876.6275"/><rect fill="#F1F1F1" height="2" style="stroke:#181818;stroke-width:0.5;" width="4" x="1357.3124" y="880.6275"/><text fill="#000000" font-family="sans-serif" font-size="14" lengthAdjust="spacing" textLength="37.2969" x="1317.0155" y="902.6226">ADFS</text></g><!--entity externalCatalog--><g id="elem_externalCatalog"><ellipse cx="390.6655" cy="1129.5675" fill="#F1F1F1" rx="8" ry="8" style="stroke:#181818;stroke-width:0.5;"/><text fill="#000000" font-family="sans-serif" font-size="14" lengthAdjust="spacing" textLength="116.5459" x="332.3925" y="1159.5626">External Catalog</text></g><!--entity ingress--><g id="elem_ingress"><path d="M324.1687,368.7375 L324.1687,392.7375 M324.1687,380.7375 L341.1687,380.7375 " fill="#FFFFFF" fill-opacity="0.00000" style="stroke:#181818;stroke-width:0.5;"/><ellipse cx="353.1687" cy="380.7375" fill="#F1F1F1" rx="12" ry="12" style="stroke:#181818;stroke-width:0.5;"/><text fill="#000000" font-family="sans-serif" font-size="14" lengthAdjust="spacing" textLength="50.6064" x="319.3655" y="409.7326">ingress</text></g><!--entity loki--><g id="elem_loki"><path d="M1061.4355,880.1275 C1061.4355,870.1275 1083.6616,870.1275 1083.6616,870.1275 C1083.6616,870.1275 1105.8876,870.1275 1105.8876,880.1275 L1105.8876,905.4244 C1105.8876,915.4244 1083.6616,915.4244 1083.6616,915.4244 C1083.6616,915.4244 1061.4355,915.4244 1061.4355,905.4244 L1061.4355,880.1275 " fill="#F1F1F1" style="stroke:#181818;stroke-width:0.5;"/><path d="M1061.4355,880.1275 C1061.4355,890.1275 1083.6616,890.1275 1083.6616,890.1275 C1083.6616,890.1275 1105.8876,890.1275 1105.8876,880.1275 " fill="#FFFFFF" fill-opacity="0.00000" style="stroke:#181818;stroke-width:0.5;"/><text fill="#000000" font-family="sans-serif" font-size="14" lengthAdjust="spacing" textLength="24.4521" x="1071.4355" y="907.1226">loki</text></g><!--entity prometheus--><g id="elem_prometheus"><path d="M1141.3655,880.1275 C1141.3655,870.1275 1193.6663,870.1275 1193.6663,870.1275 C1193.6663,870.1275 1245.967,870.1275 1245.967,880.1275 L1245.967,905.4244 C1245.967,915.4244 1193.6663,915.4244 1193.6663,915.4244 C1193.6663,915.4244 1141.3655,915.4244 1141.3655,905.4244 L1141.3655,880.1275 " fill="#F1F1F1" style="stroke:#181818;stroke-width:0.5;"/><path d="M1141.3655,880.1275 C1141.3655,890.1275 1193.6663,890.1275 1193.6663,890.1275 C1193.6663,890.1275 1245.967,890.1275 1245.967,880.1275 " fill="#FFFFFF" fill-opacity="0.00000" style="stroke:#181818;stroke-width:0.5;"/><text fill="#000000" font-family="sans-serif" font-size="14" lengthAdjust="spacing" textLength="84.6016" x="1151.3655" y="907.1226">prometheus</text></g><!--entity ui--><g id="elem_ui"><rect fill="#F1F1F1" height="46.2969" rx="2.5" ry="2.5" style="stroke:#181818;stroke-width:0.5;" width="139.0391" x="110.1455" y="555.0275"/><rect fill="#F1F1F1" height="10" style="stroke:#181818;stroke-width:0.5;" width="15" x="229.1845" y="560.0275"/><rect fill="#F1F1F1" height="2" style="stroke:#181818;stroke-width:0.5;" width="4" x="227.1845" y="562.0275"/><rect fill="#F1F1F1" height="2" style="stroke:#181818;stroke-width:0.5;" width="4" x="227.1845" y="566.0275"/><text fill="#000000" font-family="sans-serif" font-size="14" lengthAdjust="spacing" textLength="99.0391" x="125.1455" y="588.0226">User Interface</text></g><!--entity Nginx--><g id="elem_Nginx"><path d="M491.1655,558.0275 L491.1655,582.0275 M491.1655,570.0275 L508.1655,570.0275 " fill="#FFFFFF" fill-opacity="0.00000" style="stroke:#181818;stroke-width:0.5;"/><ellipse cx="520.1655" cy="570.0275" fill="#F1F1F1" rx="12" ry="12" style="stroke:#181818;stroke-width:0.5;"/><text fill="#000000" font-family="sans-serif" font-size="14" lengthAdjust="spacing" textLength="40.4072" x="491.4619" y="599.0226">Nginx</text></g><!--entity Plugins--><g id="elem_Plugins"><rect fill="#F1F1F1" height="46.2969" rx="2.5" ry="2.5" style="stroke:#181818;stroke-width:0.5;" width="187.2461" x="354.0455" y="869.6275"/><rect fill="#F1F1F1" height="10" style="stroke:#181818;stroke-width:0.5;" width="15" x="521.2916" y="874.6275"/><rect fill="#F1F1F1" height="2" style="stroke:#181818;stroke-width:0.5;" width="4" x="519.2916" y="876.6275"/><rect fill="#F1F1F1" height="2" style="stroke:#181818;stroke-width:0.5;" width="4" x="519.2916" y="880.6275"/><text fill="#000000" font-family="sans-serif" font-size="14" lengthAdjust="spacing" textLength="147.2461" x="369.0455" y="902.6226">Open Catalogi plugin</text></g><!--entity Gateway--><g id="elem_Gateway"><rect fill="#F1F1F1" height="46.2969" rx="2.5" ry="2.5" style="stroke:#181818;stroke-width:0.5;" width="137.6377" x="510.8455" y="725.3275"/><rect fill="#F1F1F1" height="10" style="stroke:#181818;stroke-width:0.5;" width="15" x="628.4832" y="730.3275"/><rect fill="#F1F1F1" height="2" style="stroke:#181818;stroke-width:0.5;" width="4" x="626.4832" y="732.3275"/><rect fill="#F1F1F1" height="2" style="stroke:#181818;stroke-width:0.5;" width="4" x="626.4832" y="736.3275"/><text fill="#000000" font-family="sans-serif" font-size="14" lengthAdjust="spacing" textLength="97.6377" x="525.8455" y="758.3226">Web Gateway</text></g><!--entity ORM--><g id="elem_ORM"><rect fill="#F1F1F1" height="46.2969" rx="2.5" ry="2.5" style="stroke:#181818;stroke-width:0.5;" width="72.8262" x="576.2555" y="869.6275"/><rect fill="#F1F1F1" height="10" style="stroke:#181818;stroke-width:0.5;" width="15" x="629.0816" y="874.6275"/><rect fill="#F1F1F1" height="2" style="stroke:#181818;stroke-width:0.5;" width="4" x="627.0816" y="876.6275"/><rect fill="#F1F1F1" height="2" style="stroke:#181818;stroke-width:0.5;" width="4" x="627.0816" y="880.6275"/><text fill="#000000" font-family="sans-serif" font-size="14" lengthAdjust="spacing" textLength="32.8262" x="591.2555" y="902.6226">ORM</text></g><!--entity Redis--><g id="elem_Redis"><rect fill="#F1F1F1" height="46.2969" rx="2.5" ry="2.5" style="stroke:#181818;stroke-width:0.5;" width="78.4111" x="704.4555" y="869.6275"/><rect fill="#F1F1F1" height="10" style="stroke:#181818;stroke-width:0.5;" width="15" x="762.8666" y="874.6275"/><rect fill="#F1F1F1" height="2" style="stroke:#181818;stroke-width:0.5;" width="4" x="760.8666" y="876.6275"/><rect fill="#F1F1F1" height="2" style="stroke:#181818;stroke-width:0.5;" width="4" x="760.8666" y="880.6275"/><text fill="#000000" font-family="sans-serif" font-size="14" lengthAdjust="spacing" textLength="38.4111" x="719.4555" y="902.6226">Redis</text></g><!--entity MognoDB--><g id="elem_MognoDB"><path d="M864.7655,880.1275 C864.7655,870.1275 910.6678,870.1275 910.6678,870.1275 C910.6678,870.1275 956.5702,870.1275 956.5702,880.1275 L956.5702,905.4244 C956.5702,915.4244 910.6678,915.4244 910.6678,915.4244 C910.6678,915.4244 864.7655,915.4244 864.7655,905.4244 L864.7655,880.1275 " fill="#F1F1F1" style="stroke:#181818;stroke-width:0.5;"/><path d="M864.7655,880.1275 C864.7655,890.1275 910.6678,890.1275 910.6678,890.1275 C910.6678,890.1275 956.5702,890.1275 956.5702,880.1275 " fill="#FFFFFF" fill-opacity="0.00000" style="stroke:#181818;stroke-width:0.5;"/><text fill="#000000" font-family="sans-serif" font-size="14" lengthAdjust="spacing" textLength="67.3545" x="874.7655" y="907.1226">MongoDB</text></g><!--entity db--><g id="elem_db"><path d="M536.4455,1116.9175 C536.4455,1106.9175 654.6686,1106.9175 654.6686,1106.9175 C654.6686,1106.9175 772.8918,1106.9175 772.8918,1116.9175 L772.8918,1142.2144 C772.8918,1152.2144 654.6686,1152.2144 654.6686,1152.2144 C654.6686,1152.2144 536.4455,1152.2144 536.4455,1142.2144 L536.4455,1116.9175 " fill="#F1F1F1" style="stroke:#181818;stroke-width:0.5;"/><path d="M536.4455,1116.9175 C536.4455,1126.9175 654.6686,1126.9175 654.6686,1126.9175 C654.6686,1126.9175 772.8918,1126.9175 772.8918,1116.9175 " fill="#FFFFFF" fill-opacity="0.00000" style="stroke:#181818;stroke-width:0.5;"/><text fill="#000000" font-family="sans-serif" font-size="14" lengthAdjust="spacing" textLength="216.4463" x="546.4455" y="1143.9126">Postgress/MsSQL/MySql/Oracle</text></g><!--entity user--><g id="elem_user"><ellipse cx="344.6606" cy="63.9375" fill="#F1F1F1" rx="8" ry="8" style="stroke:#181818;stroke-width:0.5;"/><path d="M344.6606,71.9375 L344.6606,98.9375 M331.6606,79.9375 L357.6606,79.9375 M344.6606,98.9375 L331.6606,113.9375 M344.6606,98.9375 L357.6606,113.9375 " fill="#FFFFFF" fill-opacity="0.00000" style="stroke:#181818;stroke-width:0.5;"/><text fill="#000000" font-family="sans-serif" font-size="14" lengthAdjust="spacing" textLength="31.9102" x="328.7055" y="128.4326">User</text></g><!--entity f5extern--><g id="elem_f5extern"><ellipse cx="344.6655" cy="237.7375" fill="#F1F1F1" rx="8" ry="8" style="stroke:#181818;stroke-width:0.5;"/><text fill="#000000" font-family="sans-serif" font-size="14" lengthAdjust="spacing" textLength="142.2832" x="273.5239" y="267.7326">F5 extern (port 443)</text></g><!--link user to f5extern--><g id="link_user_f5extern"><path d="M344.6655,137.9375 C344.6655,170.9975 344.6655,204.7475 344.6655,222.8775 " fill="#FFFFFF" fill-opacity="0.00000" id="user-f5extern" style="stroke:#181818;stroke-width:1;stroke-dasharray:7.0,7.0;"/><polygon fill="#181818" points="344.6655,131.9375,340.6655,140.9375,344.6655,136.9375,348.6655,140.9375,344.6655,131.9375" style="stroke:#181818;stroke-width:1;"/><polygon fill="#181818" points="344.6655,228.8775,348.6655,219.8775,344.6655,223.8775,340.6655,219.8775,344.6655,228.8775" style="stroke:#181818;stroke-width:1;"/><text fill="#000000" font-family="sans-serif" font-size="13" lengthAdjust="spacing" textLength="118.936" x="345.6655" y="174.8044">Browser ANONIEM</text></g><!--link f5extern to ingress--><g id="link_f5extern_ingress"><path d="M344.6655,252.3375 C344.6655,273.8875 344.6655,324.0275 344.6655,358.3675 " fill="#FFFFFF" fill-opacity="0.00000" id="f5extern-ingress" style="stroke:#181818;stroke-width:1;stroke-dasharray:7.0,7.0;"/><polygon fill="#181818" points="344.6655,246.3375,340.6655,255.3375,344.6655,251.3375,348.6655,255.3375,344.6655,246.3375" style="stroke:#181818;stroke-width:1;"/><polygon fill="#181818" points="344.6655,364.3675,348.6655,355.3675,344.6655,359.3675,340.6655,355.3675,344.6655,364.3675" style="stroke:#181818;stroke-width:1;"/><text fill="#000000" font-family="sans-serif" font-size="13" lengthAdjust="spacing" textLength="153.2388" x="345.6655" y="309.8044">/api/search/* en andere</text></g><!--link ingress to ui--><g id="link_ingress_ui"><path d="M320.1387,417.7291 C288.1687,454.0091 234.9114,514.4651 203.4214,550.2151 " fill="#FFFFFF" fill-opacity="0.00000" id="ingress-ui" style="stroke:#181818;stroke-width:1;stroke-dasharray:7.0,7.0;"/><polygon fill="#181818" points="324.1055,413.2275,315.1542,417.3354,320.7998,416.9788,321.1563,422.6244,324.1055,413.2275" style="stroke:#181818;stroke-width:1;"/><polygon fill="#181818" points="199.4555,554.7175,208.4059,550.6078,202.7604,550.9655,202.4027,545.32,199.4555,554.7175" style="stroke:#181818;stroke-width:1;"/><text fill="#000000" font-family="sans-serif" font-size="13" lengthAdjust="spacing" textLength="53.6567" x="297.6655" y="456.0944">Exposes</text></g><!--link ingress to Nginx--><g id="link_ingress_Nginx"><path d="M369.4685,417.7059 C401.4685,453.5959 454.4426,512.999 486.5926,549.059 " fill="#FFFFFF" fill-opacity="0.00000" id="ingress-Nginx" style="stroke:#181818;stroke-width:1;stroke-dasharray:7.0,7.0;"/><polygon fill="#181818" points="365.4755,413.2275,368.4794,422.6071,368.803,416.9595,374.4506,417.2831,365.4755,413.2275" style="stroke:#181818;stroke-width:1;"/><polygon fill="#181818" points="490.5855,553.5375,487.5818,544.1578,487.2581,549.8054,481.6105,549.4817,490.5855,553.5375" style="stroke:#181818;stroke-width:1;"/><text fill="#000000" font-family="sans-serif" font-size="13" lengthAdjust="spacing" textLength="53.6567" x="404.6655" y="456.0944">Exposes</text></g><!--link Nginx to Gateway--><g id="link_Nginx_Gateway"><path d="M523.3727,608.1408 C536.4727,640.5708 555.4879,687.6344 568.3679,719.5144 " fill="#FFFFFF" fill-opacity="0.00000" id="Nginx-Gateway" style="stroke:#181818;stroke-width:1;stroke-dasharray:7.0,7.0;"/><polygon fill="#181818" points="521.1255,602.5775,520.7875,612.4206,522.9982,607.2135,528.2052,609.4242,521.1255,602.5775" style="stroke:#181818;stroke-width:1;"/><polygon fill="#181818" points="570.6155,725.0775,570.9528,715.2344,568.7425,720.4416,563.5353,718.2312,570.6155,725.0775" style="stroke:#181818;stroke-width:1;"/><text fill="#000000" font-family="sans-serif" font-size="13" lengthAdjust="spacing" textLength="32.2842" x="551.6655" y="670.3944">Runs</text></g><!--link Gateway to Plugins--><g id="link_Gateway_Plugins"><path d="M536.735,775.473 C524.435,783.843 516.2155,790.6175 505.6655,801.6275 C486.0855,822.0475 472.1571,844.7131 461.7571,864.0531 " fill="#FFFFFF" fill-opacity="0.00000" id="Gateway-Plugins" style="stroke:#181818;stroke-width:1;stroke-dasharray:7.0,7.0;"/><polygon fill="#181818" points="541.6955,772.0975,532.0045,773.8538,537.5618,774.9104,536.5052,780.4677,541.6955,772.0975" style="stroke:#181818;stroke-width:1;"/><polygon fill="#181818" points="458.9155,869.3375,466.7009,863.3053,461.2835,864.9338,459.655,859.5164,458.9155,869.3375" style="stroke:#181818;stroke-width:1;"/><text fill="#000000" font-family="sans-serif" font-size="13" lengthAdjust="spacing" textLength="77.1304" x="506.6655" y="814.6944">Implements</text></g><!--link Gateway to identity--><g id="link_Gateway_identity"><path d="M654.7554,748.6482 C804.4754,747.9182 1147.8855,751.7975 1253.6655,801.6275 C1285.1455,816.4575 1307.8148,843.0491 1322.9648,864.5991 " fill="#FFFFFF" fill-opacity="0.00000" id="Gateway-identity" style="stroke:#181818;stroke-width:1;stroke-dasharray:7.0,7.0;"/><polygon fill="#181818" points="648.7555,748.6775,657.7749,752.6336,653.7554,748.6531,657.7359,744.6337,648.7555,748.6775" style="stroke:#181818;stroke-width:1;"/><polygon fill="#181818" points="1326.4155,869.5075,1324.5117,859.8444,1323.5399,865.4171,1317.9671,864.4453,1326.4155,869.5075" style="stroke:#181818;stroke-width:1;"/><text fill="#000000" font-family="sans-serif" font-size="13" lengthAdjust="spacing" textLength="77.1304" x="1279.6655" y="814.6944">Implements</text></g><!--link Gateway to loki--><g id="link_Gateway_loki"><path d="M648.6955,755.9175 C728.7255,764.9975 863.5955,785.2875 972.6655,826.6275 C1005.2655,838.9775 1034.4022,857.067 1056.0622,871.967 " fill="#FFFFFF" fill-opacity="0.00000" id="Gateway-to-loki" style="stroke:#181818;stroke-width:1;stroke-dasharray:7.0,7.0;"/><polygon fill="#181818" points="1061.0055,875.3675,1055.8575,866.9712,1056.886,872.5337,1051.3235,873.5623,1061.0055,875.3675" style="stroke:#181818;stroke-width:1;"/><text fill="#000000" font-family="sans-serif" font-size="13" lengthAdjust="spacing" textLength="47.4043" x="942.6655" y="814.6944">Logs to</text></g><!--link Gateway to prometheus--><g id="link_Gateway_prometheus"><path d="M648.8855,753.6675 C776.2255,762.2875 1042.0555,784.8175 1123.6655,826.6275 C1144.0555,837.0675 1158.8057,850.7152 1171.7557,865.1952 " fill="#FFFFFF" fill-opacity="0.00000" id="Gateway-to-prometheus" style="stroke:#181818;stroke-width:1;stroke-dasharray:7.0,7.0;"/><polygon fill="#181818" points="1175.7555,869.6675,1172.7374,860.2925,1172.4223,865.9406,1166.7743,865.6255,1175.7555,869.6675" style="stroke:#181818;stroke-width:1;"/><text fill="#000000" font-family="sans-serif" font-size="13" lengthAdjust="spacing" textLength="67.6343" x="1101.6655" y="814.6944">Reports to</text></g><!--link Plugins to externalCatalog--><g id="link_Plugins_externalCatalog"><path d="M440.7806,922.1183 C428.4706,972.8483 401.8402,1082.5367 394.0202,1114.7667 " fill="#FFFFFF" fill-opacity="0.00000" id="Plugins-externalCatalog" style="stroke:#181818;stroke-width:1;stroke-dasharray:7.0,7.0;"/><polygon fill="#181818" points="442.1955,916.2875,436.186,924.0904,441.0164,921.1465,443.9603,925.9769,442.1955,916.2875" style="stroke:#181818;stroke-width:1;"/><polygon fill="#181818" points="392.6055,1120.5975,398.6148,1112.7944,393.7844,1115.7385,390.8404,1110.9081,392.6055,1120.5975" style="stroke:#181818;stroke-width:1;"/><text fill="#000000" font-family="sans-serif" font-size="13" lengthAdjust="spacing" textLength="157.5298" x="423.6655" y="1008.9844">exchanges based on pki</text></g><!--link Gateway to MognoDB--><g id="link_Gateway_MognoDB"><path d="M648.5555,770.0575 C692.3555,784.0475 749.8155,804.0575 798.6655,826.6275 C825.8255,839.1675 849.9001,853.0993 871.6601,866.6293 " fill="#FFFFFF" fill-opacity="0.00000" id="Gateway-to-MognoDB" style="stroke:#181818;stroke-width:1;stroke-dasharray:7.0,7.0;"/><polygon fill="#181818" points="876.7555,869.7975,871.2246,861.6483,872.5094,867.1573,867.0003,868.4421,876.7555,869.7975" style="stroke:#181818;stroke-width:1;"/><text fill="#000000" font-family="sans-serif" font-size="13" lengthAdjust="spacing" textLength="36.0166" x="776.6655" y="814.6944">Index</text></g><!--link Gateway to Redis--><g id="link_Gateway_Redis"><path d="M605.6555,772.0275 C636.3555,798.6675 682.6134,838.7956 713.2734,865.3956 " fill="#FFFFFF" fill-opacity="0.00000" id="Gateway-to-Redis" style="stroke:#181818;stroke-width:1;stroke-dasharray:7.0,7.0;"/><polygon fill="#181818" points="717.8055,869.3275,713.6286,860.4082,714.0287,866.0509,708.3861,866.451,717.8055,869.3275" style="stroke:#181818;stroke-width:1;"/><text fill="#000000" font-family="sans-serif" font-size="13" lengthAdjust="spacing" textLength="40.4282" x="658.6655" y="814.6944">Cache</text></g><!--link Gateway to ORM--><g id="link_Gateway_ORM"><path d="M584.8955,772.0275 C591.0755,798.6675 599.9397,836.8827 606.1097,863.4827 " fill="#FFFFFF" fill-opacity="0.00000" id="Gateway-to-ORM" style="stroke:#181818;stroke-width:1;stroke-dasharray:7.0,7.0;"/><polygon fill="#181818" points="607.4655,869.3275,609.3284,859.6564,606.3357,864.4568,601.5353,861.4641,607.4655,869.3275" style="stroke:#181818;stroke-width:1;"/><text fill="#000000" font-family="sans-serif" font-size="13" lengthAdjust="spacing" textLength="34.6455" x="596.6655" y="814.6944">Store</text></g><!--link ORM to db--><g id="link_ORM_db"><path d="M616.6955,916.2875 C624.7455,961.2775 641.6686,1055.9113 649.6586,1100.5613 " fill="#FFFFFF" fill-opacity="0.00000" id="ORM-to-db" style="stroke:#181818;stroke-width:1;stroke-dasharray:7.0,7.0;"/><polygon fill="#181818" points="650.7155,1106.4675,653.0676,1096.9036,649.8347,1101.5457,645.1927,1098.3128,650.7155,1106.4675" style="stroke:#181818;stroke-width:1;"/><text fill="#000000" font-family="sans-serif" font-size="13" lengthAdjust="spacing" textLength="43.437" x="634.6655" y="1008.9844">Persist</text></g><text fill="#888888" font-family="sans-serif" font-size="10" lengthAdjust="spacing" textLength="165.3857" x="612.624" y="1207.4997">Common Gateway | Components</text><!--SRC=[RLHBRzf04BxlhnXneZq4HOMBLLKYWKIel0ggMWdbiDY3MSNikhlh1fhaltTsR6DCU_Bip3VVlEsLpp22HOuQxgMNcKaLlC5tXrRiZF5e8xWtXuFHy2WzliWJMKcH6utQEx57cLIOMYLax8s5Jk3eW7HG13AbYMidOuJEmm3mI2yDtTnO3_t-fmyCt0rAlH1nPee4EiC_XSNEgu3DSFImVe80KWb5KVuati-mIU3Mw0bv4MRCN3Ahw-8GM2ahNI2fMRuMMsP1HpnYQmgTI7k2ZjAfHUVOlP95GkvRwH0oywoQLsxD0VqU2-f2BkDdcL8UKtb22mFeScxK76KqrVlQ85P8McgXzb9fmju6Asn20s5I5rHMNoXAEIHzHT-7xfH65xU9vu-J-S-6c6cRmkQfqaSkYwL0U_QiXztstRJt9CyASdmA34iM7K5-uBPU5RPKSd1UpLX3trQi5IRANGLY7QDPQfSyCperexkhvCvJQ01StCoacXvbtzx_wTmjT8CdDwxQX57Dj4RxMyMyWHViI-Cyhq5lvjRVfhtPQVqhworej1bon6HR1WkB3vzlRhwSDpk2EsjUWdeuNymduvceBIMksgy8UZ9NFOVInllUHw2cIqrtXa9KY19Ug0Z6nzmuT6q33xInyHDAKpMF25O5pQkUCvkg8KOmEUGP7lYQMu3wzlwB281m3X7G9ZhmfcLfJeCYOxXxXbGXI_ghuun84U-bJj51Q7q2z1VAwTukUQlfKaRKe6FBn9j3loOPxx5be0MCO4q_AHGa0kkIRGHBj4uv_nS0]--></g></svg>