<?xml version="1.0" encoding="us-ascii" standalone="no"?><svg xmlns="http://www.w3.org/2000/svg" xmlns:xlink="http://www.w3.org/1999/xlink" contentStyleType="text/css" height="1216px" preserveAspectRatio="none" style="width:1422px;height:1216px;background:#FFFFFF;" version="1.1" viewBox="0 0 1422 1216" width="1422px" zoomAndPan="magnify"><defs/><g><text fill="#888888" font-family="sans-serif" font-size="10" lengthAdjust="spacing" textLength="70" x="1338.6148" y="9.2822">Components</text><text fill="#000000" font-family="sans-serif" font-size="14" font-weight="bold" lengthAdjust="spacing" textLength="166" x="621.3074" y="35.6357">Open Catalogi | User</text><!--cluster Azure--><g id="cluster_Azure"><path d="M1312.71,841.9019 C1315.6589,835.8532 1321.5294,835.9236 1324.6438,841.7354 C1328.3713,835.8854 1333.1418,836.4162 1337.1519,841.4094 C1339.7021,835.5027 1345.4747,834.92 1348.8726,840.548 C1351.1023,834.3732 1356.1303,834.3198 1359.8877,838.9973 C1363.7818,834.6604 1369.9408,834.4276 1371.9074,841.1015 C1375.1508,836.1789 1379.7415,835.015 1383.6412,840.3507 C1387.3437,836.0335 1392.5677,835.8901 1394.5844,842.1028 C1398.7217,836.8656 1402.3387,835.7653 1406.3257,842.2533 C1411.7178,845.9972 1412.6118,851.5131 1406.591,855.4858 C1414.8278,858.6053 1415.6148,865.0812 1408.5006,870.1938 C1414.7363,873.7344 1415.5769,878.7509 1409.2545,883.0292 C1414.8912,888.4032 1414.2497,893.7298 1407.3515,897.4496 C1412.4901,901.752 1412.3155,905.4674 1407.3405,909.7607 C1414.739,914.3169 1413.3919,919.5101 1406.9031,923.6282 C1402.8077,928.9225 1398.2459,929.698 1394.4964,923.2623 C1391.5165,930.088 1386.2071,929.9745 1382.1987,924.2719 C1379.1261,930.5471 1375.1449,931.362 1370.7801,925.4863 C1367.7143,929.763 1363.4753,929.5042 1360.6711,925.1789 C1356.5524,931.2937 1350.6401,930.1155 1348.3053,923.4525 C1345.1858,929.0919 1339.543,931.0876 1335.2079,924.7858 C1331.2344,929.5988 1327.9404,930.3962 1324.4406,924.3175 C1320.3038,929.0806 1316.5089,928.6671 1312.838,923.7586 C1304.7912,921.2044 1304.4872,915.544 1309.8896,910.0889 C1302.2041,906.742 1300.5811,902.2134 1306.5688,895.7089 C1300.1785,893.5241 1298.3413,887.6043 1304.3476,883.2155 C1298.7657,877.7103 1299.7044,873.6857 1306.6253,870.4033 C1300.8289,863.9315 1301.8811,857.4071 1310.8629,855.0011 C1304.4109,849.4467 1304.8701,845.441 1312.71,841.9019 " fill="none" style="stroke:#181818;stroke-width:1.0;"/><text fill="#000000" font-family="sans-serif" font-size="14" font-weight="bold" lengthAdjust="spacing" textLength="46" x="1335.6717" y="859.4326">Azure</text></g><!--cluster Internet--><g id="cluster_Internet"><path d="M325.1426,1073.1266 C328.5315,1066.3535 333.0003,1066.7755 337.3774,1072.1297 C340.1654,1066.0147 344.5549,1066.9321 348.1508,1071.2994 C351.6213,1065.2231 355.7729,1065.1263 360.3243,1070.1095 C362.7416,1064.8859 368.0221,1063.6467 371.3994,1069.1151 C373.9665,1064.697 378.6155,1064.4367 381.5227,1068.7194 C383.9577,1063.2742 389.7904,1062.6356 393.5753,1067.073 C397.6787,1060.9918 403.6719,1062.09 405.9392,1068.8419 C408.7835,1063.9386 414.1452,1063.9632 416.7451,1069.1049 C421.0866,1064.8988 424.8234,1065.0648 426.8671,1071.3268 C430.5891,1065.1768 434.4914,1064.7799 439.1947,1070.2892 C443.8304,1065.2198 449.2664,1066.3681 451.4034,1072.9152 C458.8493,1066.0891 465.7658,1070.7981 467.6717,1078.9375 C469.1755,1078.6805 470.0595,1079.5185 469.7673,1081.0463 C476.0016,1083.8132 477.0653,1088.7093 471.0355,1092.7995 C478.7541,1095.7644 479.3257,1102.3486 472.3414,1106.6953 C479.0828,1109.6945 479.34,1115.1045 473.1844,1118.9881 C479.0559,1122.8847 478.6733,1128.2339 472.9052,1131.8783 C479.2688,1136.6346 478.8933,1142.7709 471.3509,1145.9961 C476.1037,1155.9214 474.1747,1165.3049 460.6717,1164.9375 C461.3365,1165.1088 461.6006,1165.679 461.0713,1166.2218 C458.0352,1171.7542 453.0737,1171.1114 450.1569,1166.0983 C447.6084,1172.4385 442.69,1172.7375 438.2851,1168.1072 C435.8478,1173.2572 431.6383,1172.4338 428.6531,1168.7014 C426.4927,1175.2191 421.8946,1176.8083 416.8641,1171.5826 C413.6458,1177.6358 408.4608,1176.6594 405.4767,1171.348 C401.7838,1177.2887 397.3243,1177.524 392.8017,1172.2889 C389.2535,1177.5065 384.5975,1177.8081 381.5978,1171.7442 C377.9068,1175.9495 373.9719,1175.103 371.6333,1170.2557 C367.5764,1175.7723 363.6107,1176.4616 359.5727,1170.2364 C355.7837,1174.2991 350.985,1174.2753 348.863,1168.4337 C344.8958,1173.7815 338.8133,1173.9208 336.544,1166.7614 C325.9492,1172.9054 319.7467,1170.0153 317.6717,1157.9375 C318.5925,1158.2565 319.0725,1158.8794 318.2518,1159.7544 C310.7594,1156.5782 310.1968,1150.9365 317.0861,1146.4959 C310.0952,1143.5876 309.603,1138.735 314.4409,1133.4317 C307.2488,1129.3917 307.4813,1125.294 313.3157,1120.1504 C307.7101,1115.1829 307.2201,1110.1434 314.4285,1106.198 C309.4573,1101.2203 309.7772,1096.1213 316.2849,1092.7254 C308.6159,1083.0031 312.6579,1073.7188 324.6717,1071.9375 C325.4694,1072.0444 325.5384,1072.5471 325.1426,1073.1266 " fill="none" style="stroke:#181818;stroke-width:1.0;"/><text fill="#000000" font-family="sans-serif" font-size="14" font-weight="bold" lengthAdjust="spacing" textLength="66" x="359.6717" y="1089.9326">Internet</text></g><!--cluster Kubernetes--><g id="cluster_Kubernetes"><path d="M65.2502,351.1842 C90.9866,307.8994 120.411,299.9144 157.2985,338.6734 C181.6463,299.3433 220.5324,305.8867 238.7199,345.0625 C263.5056,305.4525 304.5832,306.5242 325.0907,349.535 C346.1675,301.9617 377.6026,296.0819 410.0471,338.8442 C435.4319,300.855 480.0546,304.4833 500.6894,344.3727 C523.6026,303.2654 562.6102,292.2389 591.1861,338.5077 C614.5327,289.6575 649.6109,291.3954 678.1669,333.5274 C706.379,299.1355 732.5529,305.6187 755.1049,339.8713 C783.5903,299.1159 824.5009,297.5075 846.5886,346.4 C870.058,308.352 895.2823,296.7342 929.2579,335.0223 C959.0827,296.3048 985.5784,299.6377 1007.5007,342.5928 C1032.1673,298.702 1075.4271,295.3325 1101.1949,341.4465 C1120.4157,296.7802 1158.3854,303.9503 1181.0851,337.9118 C1213.4769,303.2273 1244.5578,305.8564 1271.6717,344.4375 C1279.1846,342.8371 1282.473,347.3911 1279.8229,354.2409 C1317.0528,377.2958 1314.5955,405.7531 1281.2211,430.1091 C1311.0947,451.0127 1318.9593,483.0921 1281.1225,503.9053 C1309.4939,526.2844 1305.2119,561.9412 1273.4114,578.0636 C1307.3418,596.5242 1311.1915,635.4458 1275.8895,656.1048 C1320.1653,687.3711 1321.8662,715.3339 1273.3939,743.9659 C1306.1151,760.8197 1304.8295,787.8544 1277.7199,808.7061 C1324.3918,836.1447 1316.9343,873.255 1276.2435,899.2694 C1310.3649,928.4391 1304.6205,953.3114 1264.6717,970.4375 C1269.3635,966.9975 1273.2407,968.2419 1275.394,973.5491 C1247.8028,1020.4329 1217.9307,1024.3057 1184.7215,979.0795 C1155.632,1023.6606 1122.1716,1026.7675 1093.3056,978.8586 C1075.8495,1015.4483 1043.3503,1021.8503 1019.5201,985.2879 C985.8581,1029.5905 955.8232,1034.6894 923.3716,984.0621 C895.3302,1024.9235 865.7715,1013.6673 842.1208,979.3187 C821.96,1025.749 791.167,1021.9734 759.2155,992.1354 C730.0143,1030.2113 699.8298,1034.6142 674.9837,987.8133 C644.2145,1022.8807 613.737,1026.0974 586.5719,983.6998 C555.3135,1033.3901 526.9506,1029.8475 492.7259,986.6982 C466.7377,1018.5937 444.3534,1017.0765 420.7096,984.0958 C399.332,1028.0574 355.2397,1026.4301 330.9196,987.2746 C298.163,1030.9992 268.1814,1019.1835 244.9736,977.6489 C214.171,1025.6368 178.3147,1027.2233 148.9348,976.2679 C117.1324,1022.9784 73.523,1011.8762 54.6717,963.4375 C59.9325,960.4116 64.833,962.2889 64.8337,968.9535 C31.6904,952.3626 21.3131,924.8602 52.5955,897.2701 C15.7647,877.3776 20.4971,842.8329 51.4352,821.8973 C16.842,795.0039 6,764.53 50.3422,736.6249 C14.8004,705.7647 20.075,680.4514 57.8721,656.4818 C27.2408,634.5852 27.3918,602.8785 57.6729,580.8216 C19.6303,553.0727 16.9845,528.4806 57.6266,500.6863 C26.7806,476.8087 21.7046,442.8428 64.0886,425.2371 C16.3842,403.6646 23.1116,361.3846 61.6717,337.4375 C69.3668,340.4112 69.9222,344.9912 65.2502,351.1842 " fill="none" style="stroke:#181818;stroke-width:1.0;"/><text fill="#000000" font-family="sans-serif" font-size="14" font-weight="bold" lengthAdjust="spacing" textLength="91" x="617.6717" y="355.4326">Kubernetes</text></g><!--cluster Layer 5 (interaction)--><g id="cluster_Layer 5 (interaction)"><path d="M73.1717,476.4375 L242.1717,476.4375 A3.75,3.75 0 0 1 244.6717,478.9375 L251.6717,498.7344 L290.1717,498.7344 A2.5,2.5 0 0 1 292.6717,501.2344 L292.6717,637.9375 A2.5,2.5 0 0 1 290.1717,640.4375 L73.1717,640.4375 A2.5,2.5 0 0 1 70.6717,637.9375 L70.6717,478.9375 A2.5,2.5 0 0 1 73.1717,476.4375 " fill="none" style="stroke:#000000;stroke-width:1.5;"/><line style="stroke:#000000;stroke-width:1.5;" x1="70.6717" x2="251.6717" y1="498.7344" y2="498.7344"/><text fill="#000000" font-family="sans-serif" font-size="14" font-weight="bold" lengthAdjust="spacing" textLength="168" x="74.6717" y="491.4326">Layer 5 (interaction)</text></g><!--cluster React Container 1--><g id="cluster_React Container 1"><path d="M97.1717,519.4375 L244.1717,519.4375 A3.75,3.75 0 0 1 246.6717,521.9375 L253.6717,541.7344 L266.1717,541.7344 A2.5,2.5 0 0 1 268.6717,544.2344 L268.6717,613.9375 A2.5,2.5 0 0 1 266.1717,616.4375 L97.1717,616.4375 A2.5,2.5 0 0 1 94.6717,613.9375 L94.6717,521.9375 A2.5,2.5 0 0 1 97.1717,519.4375 " fill="none" style="stroke:#000000;stroke-width:1.5;"/><line style="stroke:#000000;stroke-width:1.5;" x1="94.6717" x2="253.6717" y1="541.7344" y2="541.7344"/><text fill="#000000" font-family="sans-serif" font-size="14" font-weight="bold" lengthAdjust="spacing" textLength="146" x="98.6717" y="534.4326">React Container 1</text></g><!--cluster Layer 4 (Logic)--><g id="cluster_Layer 4 (Logic)"><path d="M319.1717,475.4375 L440.1717,475.4375 A3.75,3.75 0 0 1 442.6717,477.9375 L449.6717,497.7344 L1056.1717,497.7344 A2.5,2.5 0 0 1 1058.6717,500.2344 L1058.6717,951.9375 A2.5,2.5 0 0 1 1056.1717,954.4375 L319.1717,954.4375 A2.5,2.5 0 0 1 316.6717,951.9375 L316.6717,477.9375 A2.5,2.5 0 0 1 319.1717,475.4375 " fill="none" style="stroke:#000000;stroke-width:1.5;"/><line style="stroke:#000000;stroke-width:1.5;" x1="316.6717" x2="449.6717" y1="497.7344" y2="497.7344"/><text fill="#000000" font-family="sans-serif" font-size="14" font-weight="bold" lengthAdjust="spacing" textLength="120" x="320.6717" y="490.4326">Layer 4 (Logic)</text></g><!--cluster NGINX Container--><g id="cluster_NGINX Container"><path d="M394.1717,518.4375 L529.1717,518.4375 A3.75,3.75 0 0 1 531.6717,520.9375 L538.6717,540.7344 L539.1717,540.7344 A2.5,2.5 0 0 1 541.6717,543.2344 L541.6717,614.9375 A2.5,2.5 0 0 1 539.1717,617.4375 L394.1717,617.4375 A2.5,2.5 0 0 1 391.6717,614.9375 L391.6717,520.9375 A2.5,2.5 0 0 1 394.1717,518.4375 " fill="none" style="stroke:#000000;stroke-width:1.5;"/><line style="stroke:#000000;stroke-width:1.5;" x1="391.6717" x2="538.6717" y1="540.7344" y2="540.7344"/><text fill="#000000" font-family="sans-serif" font-size="14" font-weight="bold" lengthAdjust="spacing" textLength="134" x="395.6717" y="533.4326">NGINX Container</text></g><!--cluster Gateway Container--><g id="cluster_Gateway Container"><path d="M343.1717,689.4375 L499.1717,689.4375 A3.75,3.75 0 0 1 501.6717,691.9375 L508.6717,711.7344 L669.1717,711.7344 A2.5,2.5 0 0 1 671.6717,714.2344 L671.6717,927.9375 A2.5,2.5 0 0 1 669.1717,930.4375 L343.1717,930.4375 A2.5,2.5 0 0 1 340.6717,927.9375 L340.6717,691.9375 A2.5,2.5 0 0 1 343.1717,689.4375 " fill="none" style="stroke:#000000;stroke-width:1.5;"/><line style="stroke:#000000;stroke-width:1.5;" x1="340.6717" x2="508.6717" y1="711.7344" y2="711.7344"/><text fill="#000000" font-family="sans-serif" font-size="14" font-weight="bold" lengthAdjust="spacing" textLength="155" x="344.6717" y="704.4326">Gateway Container</text></g><!--cluster RedisContainer--><g id="cluster_RedisContainer"><path d="M698.1717,833.4375 L822.1717,833.4375 A3.75,3.75 0 0 1 824.6717,835.9375 L831.6717,855.7344 L832.1717,855.7344 A2.5,2.5 0 0 1 834.6717,858.2344 L834.6717,927.9375 A2.5,2.5 0 0 1 832.1717,930.4375 L698.1717,930.4375 A2.5,2.5 0 0 1 695.6717,927.9375 L695.6717,835.9375 A2.5,2.5 0 0 1 698.1717,833.4375 " fill="none" style="stroke:#000000;stroke-width:1.5;"/><line style="stroke:#000000;stroke-width:1.5;" x1="695.6717" x2="831.6717" y1="855.7344" y2="855.7344"/><text fill="#000000" font-family="sans-serif" font-size="14" font-weight="bold" lengthAdjust="spacing" textLength="123" x="699.6717" y="848.4326">RedisContainer</text></g><!--cluster MongoDB Container--><g id="cluster_MongoDB Container"><path d="M861.1717,833.9375 L1022.1717,833.9375 A3.75,3.75 0 0 1 1024.6717,836.4375 L1031.6717,856.2344 L1032.1717,856.2344 A2.5,2.5 0 0 1 1034.6717,858.7344 L1034.6717,927.4375 A2.5,2.5 0 0 1 1032.1717,929.9375 L861.1717,929.9375 A2.5,2.5 0 0 1 858.6717,927.4375 L858.6717,836.4375 A2.5,2.5 0 0 1 861.1717,833.9375 " fill="none" style="stroke:#000000;stroke-width:1.5;"/><line style="stroke:#000000;stroke-width:1.5;" x1="858.6717" x2="1031.6717" y1="856.2344" y2="856.2344"/><text fill="#000000" font-family="sans-serif" font-size="14" font-weight="bold" lengthAdjust="spacing" textLength="160" x="862.6717" y="848.9326">MongoDB Container</text></g><!--cluster Layer 1 (data)--><g id="cluster_Layer 1 (data)"><path d="M502.1717,1027.4375 L618.1717,1027.4375 A3.75,3.75 0 0 1 620.6717,1029.9375 L627.6717,1049.7344 L817.1717,1049.7344 A2.5,2.5 0 0 1 819.6717,1052.2344 L819.6717,1187.9375 A2.5,2.5 0 0 1 817.1717,1190.4375 L502.1717,1190.4375 A2.5,2.5 0 0 1 499.6717,1187.9375 L499.6717,1029.9375 A2.5,2.5 0 0 1 502.1717,1027.4375 " fill="none" style="stroke:#000000;stroke-width:1.5;"/><line style="stroke:#000000;stroke-width:1.5;" x1="499.6717" x2="627.6717" y1="1049.7344" y2="1049.7344"/><text fill="#000000" font-family="sans-serif" font-size="14" font-weight="bold" lengthAdjust="spacing" textLength="115" x="503.6717" y="1042.4326">Layer 1 (data)</text></g><!--cluster Database Service--><g id="cluster_Database Service"><path d="M532.7464,1079.8451 C538.871,1071.5392 544.7672,1071.1487 551.3488,1079.3296 C554.7465,1071.1585 562.0179,1067.0399 569.0054,1075.5239 C573.1247,1063.9953 582.984,1063.9096 589.1357,1073.5953 C594.5061,1065.3842 601.3076,1062.8884 607.7944,1072.4213 C611.9558,1062.9578 619.6412,1063.0807 625.9328,1070.0735 C630.7587,1062.1265 637.2676,1062.2198 641.837,1070.3277 C647.2932,1060.6941 654.2379,1058.635 662.3201,1067.405 C666.9884,1060.6112 675.4883,1060.5835 679.4999,1068.1887 C686.1041,1061.1537 692.6438,1062.7778 696.5359,1071.1815 C702.7746,1062.0435 711.6293,1062.0919 716.4414,1072.625 C724.0623,1063.4324 730.4099,1066.0436 735.8726,1074.943 C740.7336,1068.5363 746.7859,1067.9133 751.4352,1075.1838 C759.5422,1066.5853 768.8967,1067.862 772.5975,1079.7379 C777.4238,1071.2299 783.2686,1071.5628 788.9829,1078.8146 C798.3031,1085.333 797.7925,1091.2651 789.7572,1098.4672 C802.848,1103.6601 802.1152,1114.6148 791.572,1121.6573 C799.5176,1127.8891 797.851,1134.2155 789.7417,1138.7256 C802.2064,1144.2824 801.6827,1154.7212 791.0645,1161.6122 C785.7945,1171.6435 777.4841,1170.8418 771.5289,1162.3343 C765.4234,1171.3424 757.2843,1170.5386 751.5239,1161.9421 C747.1791,1169.2397 739.2078,1171.3874 734.6451,1162.1648 C729.6686,1172.2617 723.0215,1170.6211 716.874,1163.364 C712.1366,1174.4596 705.203,1176.1043 697.1067,1166.5848 C692.43,1174.3825 684.6006,1173.9719 680.567,1165.914 C674.9816,1175.1525 669.119,1175.0878 661.561,1168.2454 C655.7872,1176.1735 646.6997,1176.1886 642.548,1166.4952 C637.0107,1174.7256 628.5963,1174.1277 625.1816,1164.4381 C620.001,1173.7072 613.3838,1173.6221 607.5117,1165.1258 C600.3521,1173.2787 592.9247,1172.4523 587.102,1163.528 C581.4135,1171.5717 575.5353,1170.3876 571.116,1162.2723 C564.0634,1172.3636 555.54,1171.4744 550.7332,1160.1361 C544.9577,1167.5147 537.8263,1168.7458 533.2796,1158.8915 C524.126,1155.6384 521.5771,1147.1106 530.2181,1140.8397 C517.5368,1137.7093 517.9663,1128.1735 525.23,1120.2186 C514.7372,1112.679 517.8704,1103.1436 528.2107,1098.4576 C520.9324,1091.2068 522.0497,1082.7155 532.7464,1079.8451 " fill="none" style="stroke:#181818;stroke-width:1.0;"/><text fill="#000000" font-family="sans-serif" font-size="14" font-weight="bold" lengthAdjust="spacing" textLength="140" x="589.6717" y="1096.4326">Database Service</text></g><!--entity identity--><g id="elem_identity"><rect fill="#F1F1F1" height="46.2969" rx="2.5" ry="2.5" style="stroke:#181818;stroke-width:0.5;" width="78" x="1319.6717" y="868.4375"/><rect fill="#F1F1F1" height="10" style="stroke:#181818;stroke-width:0.5;" width="15" x="1377.6717" y="873.4375"/><rect fill="#F1F1F1" height="2" style="stroke:#181818;stroke-width:0.5;" width="4" x="1375.6717" y="875.4375"/><rect fill="#F1F1F1" height="2" style="stroke:#181818;stroke-width:0.5;" width="4" x="1375.6717" y="879.4375"/><text fill="#000000" font-family="sans-serif" font-size="14" lengthAdjust="spacing" textLength="38" x="1334.6717" y="901.4326">ADFS</text></g><!--entity externalCatalog--><g id="elem_externalCatalog"><ellipse cx="392.6717" cy="1127.9375" fill="#F1F1F1" rx="8" ry="8" style="stroke:#181818;stroke-width:0.5;"/><text fill="#000000" font-family="sans-serif" font-size="14" lengthAdjust="spacing" textLength="119" x="333.1717" y="1157.9326">External Catalog</text></g><!--entity ingress--><g id="elem_ingress"><path d="M254.1717,368.4375 L254.1717,392.4375 M254.1717,380.4375 L271.1717,380.4375 " fill="none" style="stroke:#181818;stroke-width:0.5;"/><ellipse cx="283.1717" cy="380.4375" fill="#F1F1F1" rx="12" ry="12" style="stroke:#181818;stroke-width:0.5;"/><text fill="#000000" font-family="sans-serif" font-size="14" lengthAdjust="spacing" textLength="51" x="249.1717" y="409.4326">ingress</text></g><!--entity loki--><g id="elem_loki"><path d="M1074.6717,878.9375 C1074.6717,868.9375 1097.6717,868.9375 1097.6717,868.9375 C1097.6717,868.9375 1120.6717,868.9375 1120.6717,878.9375 L1120.6717,904.2344 C1120.6717,914.2344 1097.6717,914.2344 1097.6717,914.2344 C1097.6717,914.2344 1074.6717,914.2344 1074.6717,904.2344 L1074.6717,878.9375 " fill="#F1F1F1" style="stroke:#181818;stroke-width:0.5;"/><path d="M1074.6717,878.9375 C1074.6717,888.9375 1097.6717,888.9375 1097.6717,888.9375 C1097.6717,888.9375 1120.6717,888.9375 1120.6717,878.9375 " fill="none" style="stroke:#181818;stroke-width:0.5;"/><text fill="#000000" font-family="sans-serif" font-size="14" lengthAdjust="spacing" textLength="26" x="1084.6717" y="905.9326">loki</text></g><!--entity prometheus--><g id="elem_prometheus"><path d="M1155.6717,878.9375 C1155.6717,868.9375 1209.6717,868.9375 1209.6717,868.9375 C1209.6717,868.9375 1263.6717,868.9375 1263.6717,878.9375 L1263.6717,904.2344 C1263.6717,914.2344 1209.6717,914.2344 1209.6717,914.2344 C1209.6717,914.2344 1155.6717,914.2344 1155.6717,904.2344 L1155.6717,878.9375 " fill="#F1F1F1" style="stroke:#181818;stroke-width:0.5;"/><path d="M1155.6717,878.9375 C1155.6717,888.9375 1209.6717,888.9375 1209.6717,888.9375 C1209.6717,888.9375 1263.6717,888.9375 1263.6717,878.9375 " fill="none" style="stroke:#181818;stroke-width:0.5;"/><text fill="#000000" font-family="sans-serif" font-size="14" lengthAdjust="spacing" textLength="88" x="1165.6717" y="905.9326">prometheus</text></g><!--entity ui--><g id="elem_ui"><rect fill="#F1F1F1" height="46.2969" rx="2.5" ry="2.5" style="stroke:#181818;stroke-width:0.5;" width="141" x="111.1717" y="554.4375"/><rect fill="#F1F1F1" height="10" style="stroke:#181818;stroke-width:0.5;" width="15" x="232.1717" y="559.4375"/><rect fill="#F1F1F1" height="2" style="stroke:#181818;stroke-width:0.5;" width="4" x="230.1717" y="561.4375"/><rect fill="#F1F1F1" height="2" style="stroke:#181818;stroke-width:0.5;" width="4" x="230.1717" y="565.4375"/><text fill="#000000" font-family="sans-serif" font-size="14" lengthAdjust="spacing" textLength="101" x="126.1717" y="587.4326">User Interface</text></g><!--entity Nginx--><g id="elem_Nginx"><path d="M437.1717,557.4375 L437.1717,581.4375 M437.1717,569.4375 L454.1717,569.4375 " fill="none" style="stroke:#181818;stroke-width:0.5;"/><ellipse cx="466.1717" cy="569.4375" fill="#F1F1F1" rx="12" ry="12" style="stroke:#181818;stroke-width:0.5;"/><text fill="#000000" font-family="sans-serif" font-size="14" lengthAdjust="spacing" textLength="40" x="437.6717" y="598.4326">Nginx</text></g><!--entity Plugins--><g id="elem_Plugins"><rect fill="#F1F1F1" height="46.2969" rx="2.5" ry="2.5" style="stroke:#181818;stroke-width:0.5;" width="190" x="356.6717" y="868.4375"/><rect fill="#F1F1F1" height="10" style="stroke:#181818;stroke-width:0.5;" width="15" x="526.6717" y="873.4375"/><rect fill="#F1F1F1" height="2" style="stroke:#181818;stroke-width:0.5;" width="4" x="524.6717" y="875.4375"/><rect fill="#F1F1F1" height="2" style="stroke:#181818;stroke-width:0.5;" width="4" x="524.6717" y="879.4375"/><text fill="#000000" font-family="sans-serif" font-size="14" lengthAdjust="spacing" textLength="150" x="371.6717" y="901.4326">Open Catalogi plugin</text></g><!--entity Gateway--><g id="elem_Gateway"><rect fill="#F1F1F1" height="46.2969" rx="2.5" ry="2.5" style="stroke:#181818;stroke-width:0.5;" width="139" x="516.1717" y="724.4375"/><rect fill="#F1F1F1" height="10" style="stroke:#181818;stroke-width:0.5;" width="15" x="635.1717" y="729.4375"/><rect fill="#F1F1F1" height="2" style="stroke:#181818;stroke-width:0.5;" width="4" x="633.1717" y="731.4375"/><rect fill="#F1F1F1" height="2" style="stroke:#181818;stroke-width:0.5;" width="4" x="633.1717" y="735.4375"/><text fill="#000000" font-family="sans-serif" font-size="14" lengthAdjust="spacing" textLength="99" x="531.1717" y="757.4326">Web Gateway</text></g><!--entity ORM--><g id="elem_ORM"><rect fill="#F1F1F1" height="46.2969" rx="2.5" ry="2.5" style="stroke:#181818;stroke-width:0.5;" width="73" x="582.1717" y="868.4375"/><rect fill="#F1F1F1" height="10" style="stroke:#181818;stroke-width:0.5;" width="15" x="635.1717" y="873.4375"/><rect fill="#F1F1F1" height="2" style="stroke:#181818;stroke-width:0.5;" width="4" x="633.1717" y="875.4375"/><rect fill="#F1F1F1" height="2" style="stroke:#181818;stroke-width:0.5;" width="4" x="633.1717" y="879.4375"/><text fill="#000000" font-family="sans-serif" font-size="14" lengthAdjust="spacing" textLength="33" x="597.1717" y="901.4326">ORM</text></g><!--entity Redis--><g id="elem_Redis"><rect fill="#F1F1F1" height="46.2969" rx="2.5" ry="2.5" style="stroke:#181818;stroke-width:0.5;" width="79" x="712.1717" y="868.4375"/><rect fill="#F1F1F1" height="10" style="stroke:#181818;stroke-width:0.5;" width="15" x="771.1717" y="873.4375"/><rect fill="#F1F1F1" height="2" style="stroke:#181818;stroke-width:0.5;" width="4" x="769.1717" y="875.4375"/><rect fill="#F1F1F1" height="2" style="stroke:#181818;stroke-width:0.5;" width="4" x="769.1717" y="879.4375"/><text fill="#000000" font-family="sans-serif" font-size="14" lengthAdjust="spacing" textLength="39" x="727.1717" y="901.4326">Redis</text></g><!--entity MognoDB--><g id="elem_MognoDB"><path d="M875.1717,878.9375 C875.1717,868.9375 921.6717,868.9375 921.6717,868.9375 C921.6717,868.9375 968.1717,868.9375 968.1717,878.9375 L968.1717,904.2344 C968.1717,914.2344 921.6717,914.2344 921.6717,914.2344 C921.6717,914.2344 875.1717,914.2344 875.1717,904.2344 L875.1717,878.9375 " fill="#F1F1F1" style="stroke:#181818;stroke-width:0.5;"/><path d="M875.1717,878.9375 C875.1717,888.9375 921.6717,888.9375 921.6717,888.9375 C921.6717,888.9375 968.1717,888.9375 968.1717,878.9375 " fill="none" style="stroke:#181818;stroke-width:0.5;"/><text fill="#000000" font-family="sans-serif" font-size="14" lengthAdjust="spacing" textLength="69" x="885.1717" y="905.9326">MongoDB</text></g><!--entity db--><g id="elem_db"><path d="M539.6717,1115.4375 C539.6717,1105.4375 659.6717,1105.4375 659.6717,1105.4375 C659.6717,1105.4375 779.6717,1105.4375 779.6717,1115.4375 L779.6717,1140.7344 C779.6717,1150.7344 659.6717,1150.7344 659.6717,1150.7344 C659.6717,1150.7344 539.6717,1150.7344 539.6717,1140.7344 L539.6717,1115.4375 " fill="#F1F1F1" style="stroke:#181818;stroke-width:0.5;"/><path d="M539.6717,1115.4375 C539.6717,1125.4375 659.6717,1125.4375 659.6717,1125.4375 C659.6717,1125.4375 779.6717,1125.4375 779.6717,1115.4375 " fill="none" style="stroke:#181818;stroke-width:0.5;"/><text fill="#000000" font-family="sans-serif" font-size="14" lengthAdjust="spacing" textLength="220" x="549.6717" y="1142.4326">Postgress/MsSQL/MySql/Oracle</text></g><!--entity user--><g id="elem_user"><ellipse cx="274.6717" cy="63.9375" fill="#F1F1F1" rx="8" ry="8" style="stroke:#181818;stroke-width:0.5;"/><path d="M274.6717,71.9375 L274.6717,98.9375 M261.6717,79.9375 L287.6717,79.9375 M274.6717,98.9375 L261.6717,113.9375 M274.6717,98.9375 L287.6717,113.9375 " fill="none" style="stroke:#181818;stroke-width:0.5;"/><text fill="#000000" font-family="sans-serif" font-size="14" lengthAdjust="spacing" textLength="31" x="259.1717" y="128.4326">User</text></g><!--entity f5extern--><g id="elem_f5extern"><ellipse cx="274.6717" cy="237.4375" fill="#F1F1F1" rx="8" ry="8" style="stroke:#181818;stroke-width:0.5;"/><text fill="#000000" font-family="sans-serif" font-size="14" lengthAdjust="spacing" textLength="144" x="202.6717" y="267.4326">F5 extern (port 443)</text></g><!--link user to f5extern--><g id="link_user_f5extern"><path d="M274.6717,136.8475 C274.6717,166.1275 274.6717,203.1975 274.6717,222.8185 " fill="none" id="user-f5extern" style="stroke:#181818;stroke-width:1.0;stroke-dasharray:7.0,7.0;"/><polygon fill="#181818" points="274.6717,131.7475,270.6717,140.7475,274.6717,136.7475,278.6717,140.7475,274.6717,131.7475" style="stroke:#181818;stroke-width:1.0;"/><polygon fill="#181818" points="274.6717,228.3185,278.6717,219.3185,274.6717,223.3185,270.6717,219.3185,274.6717,228.3185" style="stroke:#181818;stroke-width:1.0;"/><text fill="#000000" font-family="sans-serif" font-size="13" lengthAdjust="spacing" textLength="114" x="275.6717" y="174.5044">Browser ANONIEM</text></g><!--link f5extern to ingress--><g id="link_f5extern_ingress"><path d="M274.6717,251.6585 C274.6717,275.6405 274.6717,326.8085 274.6717,359.0285 " fill="none" id="f5extern-ingress" style="stroke:#181818;stroke-width:1.0;stroke-dasharray:7.0,7.0;"/><polygon fill="#181818" points="274.6717,246.4485,270.6717,255.4485,274.6717,251.4485,278.6717,255.4485,274.6717,246.4485" style="stroke:#181818;stroke-width:1.0;"/><polygon fill="#181818" points="274.6717,364.4215,278.6717,355.4215,274.6717,359.4215,270.6717,355.4215,274.6717,364.4215" style="stroke:#181818;stroke-width:1.0;"/><text fill="#000000" font-family="sans-serif" font-size="13" lengthAdjust="spacing" textLength="150" x="275.6717" y="309.5044">/api/search/* en andere</text></g><!--link ingress to ui--><g id="link_ingress_ui"><path d="M260.6637,417.6045 C242.8707,453.3815 212.3887,514.6735 194.9507,549.7365 " fill="none" id="ingress-ui" style="stroke:#181818;stroke-width:1.0;stroke-dasharray:7.0,7.0;"/><polygon fill="#181818" points="263.0817,412.7435,255.4919,419.02,260.8548,417.2202,262.6546,422.5831,263.0817,412.7435" style="stroke:#181818;stroke-width:1.0;"/><polygon fill="#181818" points="192.6837,554.2955,200.2735,548.019,194.9106,549.8188,193.1108,544.4559,192.6837,554.2955" style="stroke:#181818;stroke-width:1.0;"/><text fill="#000000" font-family="sans-serif" font-size="13" lengthAdjust="spacing" textLength="54" x="248.6717" y="455.5044">Exposes</text></g><!--link ingress to Nginx--><g id="link_ingress_Nginx"><path d="M301.3137,416.6615 C336.1627,452.2725 396.8447,514.2815 431.4727,549.6665 " fill="none" id="ingress-Nginx" style="stroke:#181818;stroke-width:1.0;stroke-dasharray:7.0,7.0;"/><polygon fill="#181818" points="297.4787,412.7435,300.9138,421.9739,300.9755,416.3174,306.632,416.3791,297.4787,412.7435" style="stroke:#181818;stroke-width:1.0;"/><polygon fill="#181818" points="435.1517,553.4255,431.7167,544.1951,431.655,549.8516,425.9984,549.7899,435.1517,553.4255" style="stroke:#181818;stroke-width:1.0;"/><text fill="#000000" font-family="sans-serif" font-size="13" lengthAdjust="spacing" textLength="54" x="340.6717" y="455.5044">Exposes</text></g><!--link Nginx to Gateway--><g id="link_Nginx_Gateway"><path d="M478.4857,605.7565 C502.5647,637.3595 541.9297,689.0265 565.6617,720.1745 " fill="none" id="Nginx-Gateway" style="stroke:#181818;stroke-width:1.0;stroke-dasharray:7.0,7.0;"/><polygon fill="#181818" points="475.2007,601.4445,477.4731,611.0276,478.2308,605.4218,483.8367,606.1795,475.2007,601.4445" style="stroke:#181818;stroke-width:1.0;"/><polygon fill="#181818" points="568.7607,724.2425,566.4884,714.6594,565.7306,720.2652,560.1248,719.5075,568.7607,724.2425" style="stroke:#181818;stroke-width:1.0;"/><text fill="#000000" font-family="sans-serif" font-size="13" lengthAdjust="spacing" textLength="32" x="530.6717" y="669.5044">Runs</text></g><!--link Gateway to Plugins--><g id="link_Gateway_Plugins"><path d="M544.7537,773.7355 C533.6987,781.5635 522.1757,790.7095 512.6717,800.4375 C494.1877,819.3565 477.6627,844.5295 466.4897,863.4405 " fill="none" id="Gateway-Plugins" style="stroke:#181818;stroke-width:1.0;stroke-dasharray:7.0,7.0;"/><polygon fill="#181818" points="549.1267,770.6895,539.4552,772.5502,545.0236,773.5468,544.0269,779.1152,549.1267,770.6895" style="stroke:#181818;stroke-width:1.0;"/><polygon fill="#181818" points="463.7667,868.1065,471.7575,862.3491,466.2867,863.788,464.8478,858.3172,463.7667,868.1065" style="stroke:#181818;stroke-width:1.0;"/><text fill="#000000" font-family="sans-serif" font-size="13" lengthAdjust="spacing" textLength="76" x="513.6717" y="813.5044">Implements</text></g><!--link Gateway to identity--><g id="link_Gateway_identity"><path d="M660.8647,747.6005 C815.4147,746.9335 1163.1917,751.1605 1269.6717,800.4375 C1299.5817,814.2815 1325.0017,842.8005 1340.9217,864.0455 " fill="none" id="Gateway-identity" style="stroke:#181818;stroke-width:1.0;stroke-dasharray:7.0,7.0;"/><polygon fill="#181818" points="655.4487,747.6255,664.4669,751.5843,660.4487,747.6026,664.4303,743.5844,655.4487,747.6255" style="stroke:#181818;stroke-width:1.0;"/><polygon fill="#181818" points="1343.9717,868.1905,1341.841,858.5749,1341.0006,864.169,1335.4066,863.3286,1343.9717,868.1905" style="stroke:#181818;stroke-width:1.0;"/><text fill="#000000" font-family="sans-serif" font-size="13" lengthAdjust="spacing" textLength="76" x="1296.6717" y="813.5044">Implements</text></g><!--link Gateway to loki--><g id="link_Gateway_loki"><path d="M655.3237,754.8225 C736.4707,763.8525 873.5947,784.0935 984.6717,825.4375 C1015.6917,836.9835 1048.1517,856.5515 1070.2817,871.2075 " fill="none" id="Gateway-to-loki" style="stroke:#181818;stroke-width:1.0;stroke-dasharray:7.0,7.0;"/><polygon fill="#181818" points="1074.5617,874.0695,1069.2907,865.7498,1070.401,871.2967,1064.8542,872.4069,1074.5617,874.0695" style="stroke:#181818;stroke-width:1.0;"/><text fill="#000000" font-family="sans-serif" font-size="13" lengthAdjust="spacing" textLength="47" x="953.6717" y="813.5044">Logs to</text></g><!--link Gateway to prometheus--><g id="link_Gateway_prometheus"><path d="M655.2327,752.5405 C784.2937,761.0585 1055.2817,783.4595 1138.6717,825.4375 C1157.6417,834.9845 1175.2617,851.0665 1188.2117,864.8445 " fill="none" id="Gateway-to-prometheus" style="stroke:#181818;stroke-width:1.0;stroke-dasharray:7.0,7.0;"/><polygon fill="#181818" points="1191.7417,868.6615,1188.5731,859.3363,1188.349,864.9887,1182.6966,864.7646,1191.7417,868.6615" style="stroke:#181818;stroke-width:1.0;"/><text fill="#000000" font-family="sans-serif" font-size="13" lengthAdjust="spacing" textLength="67" x="1115.6717" y="813.5044">Reports to</text></g><!--link Plugins to externalCatalog--><g id="link_Plugins_externalCatalog"><path d="M444.8807,919.4275 C432.1747,969.9285 405.2497,1076.9465 395.9287,1113.9934 " fill="none" id="Plugins-externalCatalog" style="stroke:#181818;stroke-width:1.0;stroke-dasharray:7.0,7.0;"/><polygon fill="#181818" points="446.1207,914.4985,440.0455,922.2504,444.9006,919.3474,447.8037,924.2025,446.1207,914.4985" style="stroke:#181818;stroke-width:1.0;"/><polygon fill="#181818" points="394.6847,1118.9365,400.7599,1111.1846,395.9048,1114.0876,393.0018,1109.2325,394.6847,1118.9365" style="stroke:#181818;stroke-width:1.0;"/><text fill="#000000" font-family="sans-serif" font-size="13" lengthAdjust="spacing" textLength="155" x="427.6717" y="1007.5044">exchanges based on pki</text></g><!--link Gateway to MognoDB--><g id="link_Gateway_MognoDB"><path d="M655.4557,768.9975 C699.8387,782.9585 758.0797,802.9315 807.6717,825.4375 C833.6257,837.2165 861.4377,853.0055 883.0927,866.0725 " fill="none" id="Gateway-to-MognoDB" style="stroke:#181818;stroke-width:1.0;stroke-dasharray:7.0,7.0;"/><polygon fill="#181818" points="887.6177,868.8165,881.9982,860.7282,883.343,866.2228,877.8484,867.5677,887.6177,868.8165" style="stroke:#181818;stroke-width:1.0;"/><text fill="#000000" font-family="sans-serif" font-size="13" lengthAdjust="spacing" textLength="35" x="785.6717" y="813.5044">Index</text></g><!--link Gateway to Redis--><g id="link_Gateway_Redis"><path d="M611.6097,770.6255 C641.4547,796.1555 690.3797,838.0075 721.7947,864.8795 " fill="none" id="Gateway-to-Redis" style="stroke:#181818;stroke-width:1.0;stroke-dasharray:7.0,7.0;"/><polygon fill="#181818" points="725.9167,868.4055,721.6769,859.5159,722.1169,865.1557,716.4772,865.5956,725.9167,868.4055" style="stroke:#181818;stroke-width:1.0;"/><text fill="#000000" font-family="sans-serif" font-size="13" lengthAdjust="spacing" textLength="40" x="665.6717" y="813.5044">Cache</text></g><!--link Gateway to ORM--><g id="link_Gateway_ORM"><path d="M590.8277,770.6255 C596.6397,795.6345 606.0917,836.3055 612.3457,863.2155 " fill="none" id="Gateway-to-ORM" style="stroke:#181818;stroke-width:1.0;stroke-dasharray:7.0,7.0;"/><polygon fill="#181818" points="613.5517,868.4055,615.4119,858.7339,612.4205,863.5351,607.6193,860.5438,613.5517,868.4055" style="stroke:#181818;stroke-width:1.0;"/><text fill="#000000" font-family="sans-serif" font-size="13" lengthAdjust="spacing" textLength="34" x="602.6717" y="813.5044">Store</text></g><!--link ORM to db--><g id="link_ORM_db"><path d="M622.5287,914.4985 C630.0727,957.6435 646.7547,1053.0595 654.9467,1099.9105 " fill="none" id="ORM-to-db" style="stroke:#181818;stroke-width:1.0;stroke-dasharray:7.0,7.0;"/><polygon fill="#181818" points="655.8547,1105.1055,658.2472,1095.5516,654.9948,1100.18,650.3664,1096.9276,655.8547,1105.1055" style="stroke:#181818;stroke-width:1.0;"/><text fill="#000000" font-family="sans-serif" font-size="13" lengthAdjust="spacing" textLength="43" x="640.6717" y="1007.5044">Persist</text></g><text fill="#888888" font-family="sans-serif" font-size="10" lengthAdjust="spacing" textLength="180" x="614.3074" y="1205.7197">Common Gateway | Components</text><!--SRC=[RLHBRzf04BxlhnXneZq4HOMBLLKYWKIel0ggMWdbiDY3MSNikhlh1fhaltTsR6DCU_Bip3VVlEsLpp22HOuQxgMNcKaLlC5tXrRiZF5e8xWtXuFHy2WzliWJMKcH6utQEx57cLIOMYLax8s5Jk3eW7HG13AbYMidOuJEmm3mI2yDtTnO3_t-fmyCt0rAlH1nPee4EiC_XSNEgu3DSFImVe80KWb5KVuati-mIU3Mw0bv4MRCN3Ahw-8GM2ahNI2fMRuMMsP1HpnYQmgTI7k2ZjAfHUVOlP95GkvRwH0oywoQLsxD0VqU2-f2BkDdcL8UKtb22mFeScxK76KqrVlQ85P8McgXzb9fmju6Asn20s5I5rHMNoXAEIHzHT-7xfH65xU9vu-J-S-6c6cRmkQfqaSkYwL0U_QiXztstRJt9CyASdmA34iM7K5-uBPU5RPKSd1UpLX3trQi5IRANGLY7QDPQfSyCperexkhvCvJQ01StCoacXvbtzx_wTmjT8CdDwxQX57Dj4RxMyMyWHViI-Cyhq5lvjRVfhtPQVqhworej1bon6HR1WkB3vzlRhwSDpk2EsjUWdeuNymduvceBIMksgy8UZ9NFOVInllUHw2cIqrtXa9KY19Ug0Z6nzmuT6q33xInyHDAKpMF25O5pQkUCvkg8KOmEUGP7lYQMu3wzlwB281m3X7G9ZhmfcLfJeCYOxXxXbGXI_ghuun84U-bJj51Q7q2z1VAwTukUQlfKaRKe6FBn9j3loOPxx5be0MCO4q_AHGa0kkIRGHBj4uv_nS0]--></g></svg>