<?xml version="1.0" encoding="us-ascii" standalone="no"?><svg xmlns="http://www.w3.org/2000/svg" xmlns:xlink="http://www.w3.org/1999/xlink" contentStyleType="text/css" height="385px" preserveAspectRatio="none" style="width:1321px;height:385px;background:#FFFFFF;" version="1.1" viewBox="0 0 1321 385" width="1321px" zoomAndPan="magnify"><defs/><g><!--cluster Landelijk Federatief Netwerk--><g id="cluster_Landelijk Federatief Netwerk"><path d="M8.5,152 L240.5,152 A3.75,3.75 0 0 1 243,154.5 L250,174.2969 L250.5,174.2969 A2.5,2.5 0 0 1 253,176.7969 L253,375.5 A2.5,2.5 0 0 1 250.5,378 L8.5,378 A2.5,2.5 0 0 1 6,375.5 L6,154.5 A2.5,2.5 0 0 1 8.5,152 " fill="none" style="stroke:#000000;stroke-width:1.5;"/><line style="stroke:#000000;stroke-width:1.5;" x1="6" x2="250" y1="174.2969" y2="174.2969"/><text fill="#000000" font-family="sans-serif" font-size="14" font-weight="bold" lengthAdjust="spacing" textLength="231" x="10" y="166.9951">Landelijk Federatief Netwerk</text></g><!--cluster Organisatie Repository--><g id="cluster_Organisatie Repository"><path d="M279.5,6 L468.5,6 A3.75,3.75 0 0 1 471,8.5 L478,28.2969 L766.5,28.2969 A2.5,2.5 0 0 1 769,30.7969 L769,248.5 A2.5,2.5 0 0 1 766.5,251 L279.5,251 A2.5,2.5 0 0 1 277,248.5 L277,8.5 A2.5,2.5 0 0 1 279.5,6 " fill="none" style="stroke:#000000;stroke-width:1.5;"/><line style="stroke:#000000;stroke-width:1.5;" x1="277" x2="478" y1="28.2969" y2="28.2969"/><text fill="#000000" font-family="sans-serif" font-size="14" font-weight="bold" lengthAdjust="spacing" textLength="188" x="281" y="20.9951">Organisatie Repository</text></g><!--cluster Publicatie Repository--><g id="cluster_Publicatie Repository"><path d="M795.5,6 L970.5,6 A3.75,3.75 0 0 1 973,8.5 L980,28.2969 L1311.5,28.2969 A2.5,2.5 0 0 1 1314,30.7969 L1314,248.5 A2.5,2.5 0 0 1 1311.5,251 L795.5,251 A2.5,2.5 0 0 1 793,248.5 L793,8.5 A2.5,2.5 0 0 1 795.5,6 " fill="none" style="stroke:#000000;stroke-width:1.5;"/><line style="stroke:#000000;stroke-width:1.5;" x1="793" x2="980" y1="28.2969" y2="28.2969"/><text fill="#000000" font-family="sans-serif" font-size="14" font-weight="bold" lengthAdjust="spacing" textLength="174" x="797" y="20.9951">Publicatie Repository</text></g><!--class openCatalogi--><g id="elem_openCatalogi"><rect codeLine="4" fill="#F1F1F1" height="48" id="openCatalogi" rx="2.5" ry="2.5" style="stroke:#181818;stroke-width:0.5;" width="142" x="80" y="187"/><ellipse cx="95" cy="203" fill="#B4A7E5" rx="11" ry="11" style="stroke:#181818;stroke-width:1.0;"/><path d="M95.9531,199.7813 L97.6719,199.7813 C98.0625,199.7813 98.25,199.75 98.375,199.6719 C98.6406,199.5156 98.7813,199.2344 98.7813,198.9375 C98.7813,198.6719 98.6719,198.4063 98.4375,198.2344 C98.2656,198.125 98.125,198.0938 97.6719,198.0938 L92.5313,198.0938 C92.0938,198.0938 91.9688,198.1094 91.8125,198.2031 C91.5625,198.3594 91.4063,198.6563 91.4063,198.9375 C91.4063,199.2188 91.5469,199.4688 91.7656,199.6406 C91.9219,199.75 92.1094,199.7813 92.5313,199.7813 L94.25,199.7813 L94.25,206.2969 L92.5313,206.2969 C92.0938,206.2969 91.9688,206.3125 91.8125,206.4219 C91.5625,206.5781 91.4063,206.8594 91.4063,207.1563 C91.4063,207.4063 91.5469,207.6719 91.7656,207.8281 C91.9219,207.9531 92.125,208 92.5313,208 L97.6719,208 C98.4219,208 98.7813,207.7188 98.7813,207.1563 C98.7813,206.875 98.6719,206.625 98.4375,206.4531 C98.2656,206.3281 98.125,206.2969 97.6719,206.2969 L95.9531,206.2969 L95.9531,199.7813 Z " fill="#000000"/><text fill="#000000" font-family="sans-serif" font-size="14" font-style="italic" lengthAdjust="spacing" textLength="110" x="109" y="207.8467">opencatalogi.nl</text><line style="stroke:#181818;stroke-width:0.5;" x1="81" x2="221" y1="219" y2="219"/><line style="stroke:#181818;stroke-width:0.5;" x1="81" x2="221" y1="227" y2="227"/></g><!--class api--><g id="elem_api"><rect codeLine="5" fill="#F1F1F1" height="48" id="api" rx="2.5" ry="2.5" style="stroke:#181818;stroke-width:0.5;" width="171" x="65.5" y="314"/><ellipse cx="80.5" cy="330" fill="#ADD1B2" rx="11" ry="11" style="stroke:#181818;stroke-width:1.0;"/><path d="M82.8438,325.6719 C81.9063,325.2344 81.3125,325.0938 80.4375,325.0938 C77.8125,325.0938 75.8125,327.1719 75.8125,329.8906 L75.8125,331.0156 C75.8125,333.5938 77.9219,335.4844 80.8125,335.4844 C82.0313,335.4844 83.1875,335.1875 83.9375,334.6406 C84.5156,334.2344 84.8438,333.7813 84.8438,333.3906 C84.8438,332.9375 84.4531,332.5469 83.9844,332.5469 C83.7656,332.5469 83.5625,332.625 83.375,332.8125 C82.9219,333.2969 82.9219,333.2969 82.7344,333.3906 C82.3125,333.6563 81.625,333.7813 80.8594,333.7813 C78.8125,333.7813 77.5156,332.6875 77.5156,330.9844 L77.5156,329.8906 C77.5156,328.1094 78.7656,326.7969 80.5,326.7969 C81.0781,326.7969 81.6875,326.9531 82.1563,327.2031 C82.6406,327.4844 82.8125,327.7031 82.9063,328.1094 C82.9688,328.5156 83,328.6406 83.1406,328.7656 C83.2813,328.9063 83.5156,329.0156 83.7344,329.0156 C84,329.0156 84.2656,328.875 84.4375,328.6563 C84.5469,328.5 84.5781,328.3125 84.5781,327.8906 L84.5781,326.4688 C84.5781,326.0313 84.5625,325.9063 84.4688,325.75 C84.3125,325.4844 84.0313,325.3438 83.7344,325.3438 C83.4375,325.3438 83.2344,325.4375 83.0156,325.75 L82.8438,325.6719 Z " fill="#000000"/><text fill="#000000" font-family="sans-serif" font-size="14" lengthAdjust="spacing" textLength="139" x="94.5" y="334.8467">api.opencatalogi.nl</text><line style="stroke:#181818;stroke-width:0.5;" x1="66.5" x2="235.5" y1="346" y2="346"/><line style="stroke:#181818;stroke-width:0.5;" x1="66.5" x2="235.5" y1="354" y2="354"/></g><!--class orgAction--><g id="elem_orgAction"><rect codeLine="9" fill="#F1F1F1" height="48" id="orgAction" rx="2.5" ry="2.5" style="stroke:#181818;stroke-width:0.5;" width="225" x="293.5" y="41"/><ellipse cx="308.5" cy="57" fill="#ADD1B2" rx="11" ry="11" style="stroke:#181818;stroke-width:1.0;"/><path d="M310.8438,52.6719 C309.9063,52.2344 309.3125,52.0938 308.4375,52.0938 C305.8125,52.0938 303.8125,54.1719 303.8125,56.8906 L303.8125,58.0156 C303.8125,60.5938 305.9219,62.4844 308.8125,62.4844 C310.0313,62.4844 311.1875,62.1875 311.9375,61.6406 C312.5156,61.2344 312.8438,60.7813 312.8438,60.3906 C312.8438,59.9375 312.4531,59.5469 311.9844,59.5469 C311.7656,59.5469 311.5625,59.625 311.375,59.8125 C310.9219,60.2969 310.9219,60.2969 310.7344,60.3906 C310.3125,60.6563 309.625,60.7813 308.8594,60.7813 C306.8125,60.7813 305.5156,59.6875 305.5156,57.9844 L305.5156,56.8906 C305.5156,55.1094 306.7656,53.7969 308.5,53.7969 C309.0781,53.7969 309.6875,53.9531 310.1563,54.2031 C310.6406,54.4844 310.8125,54.7031 310.9063,55.1094 C310.9688,55.5156 311,55.6406 311.1406,55.7656 C311.2813,55.9063 311.5156,56.0156 311.7344,56.0156 C312,56.0156 312.2656,55.875 312.4375,55.6563 C312.5469,55.5 312.5781,55.3125 312.5781,54.8906 L312.5781,53.4688 C312.5781,53.0313 312.5625,52.9063 312.4688,52.75 C312.3125,52.4844 312.0313,52.3438 311.7344,52.3438 C311.4375,52.3438 311.2344,52.4375 311.0156,52.75 L310.8438,52.6719 Z " fill="#000000"/><text fill="#000000" font-family="sans-serif" font-size="14" lengthAdjust="spacing" textLength="193" x="322.5" y="61.8467">Publiccode Actions Service</text><line style="stroke:#181818;stroke-width:0.5;" x1="294.5" x2="517.5" y1="73" y2="73"/><line style="stroke:#181818;stroke-width:0.5;" x1="294.5" x2="517.5" y1="81" y2="81"/></g><!--class openCat--><g id="elem_openCat"><rect codeLine="10" fill="#F1F1F1" height="48" id="openCat" rx="2.5" ry="2.5" style="stroke:#181818;stroke-width:0.5;" width="211" x="293.5" y="187"/><ellipse cx="308.5" cy="203" fill="#ADD1B2" rx="11" ry="11" style="stroke:#181818;stroke-width:1.0;"/><path d="M310.8438,198.6719 C309.9063,198.2344 309.3125,198.0938 308.4375,198.0938 C305.8125,198.0938 303.8125,200.1719 303.8125,202.8906 L303.8125,204.0156 C303.8125,206.5938 305.9219,208.4844 308.8125,208.4844 C310.0313,208.4844 311.1875,208.1875 311.9375,207.6406 C312.5156,207.2344 312.8438,206.7813 312.8438,206.3906 C312.8438,205.9375 312.4531,205.5469 311.9844,205.5469 C311.7656,205.5469 311.5625,205.625 311.375,205.8125 C310.9219,206.2969 310.9219,206.2969 310.7344,206.3906 C310.3125,206.6563 309.625,206.7813 308.8594,206.7813 C306.8125,206.7813 305.5156,205.6875 305.5156,203.9844 L305.5156,202.8906 C305.5156,201.1094 306.7656,199.7969 308.5,199.7969 C309.0781,199.7969 309.6875,199.9531 310.1563,200.2031 C310.6406,200.4844 310.8125,200.7031 310.9063,201.1094 C310.9688,201.5156 311,201.6406 311.1406,201.7656 C311.2813,201.9063 311.5156,202.0156 311.7344,202.0156 C312,202.0156 312.2656,201.875 312.4375,201.6563 C312.5469,201.5 312.5781,201.3125 312.5781,200.8906 L312.5781,199.4688 C312.5781,199.0313 312.5625,198.9063 312.4688,198.75 C312.3125,198.4844 312.0313,198.3438 311.7344,198.3438 C311.4375,198.3438 311.2344,198.4375 311.0156,198.75 L310.8438,198.6719 Z " fill="#000000"/><text fill="#000000" font-family="sans-serif" font-size="14" lengthAdjust="spacing" textLength="179" x="322.5" y="207.8467">opencatalogi.yaml (data)</text><line style="stroke:#181818;stroke-width:0.5;" x1="294.5" x2="503.5" y1="219" y2="219"/><line style="stroke:#181818;stroke-width:0.5;" x1="294.5" x2="503.5" y1="227" y2="227"/></g><!--class catalogiAction--><g id="elem_catalogiAction"><rect codeLine="11" fill="#F1F1F1" height="48" id="catalogiAction" rx="2.5" ry="2.5" style="stroke:#181818;stroke-width:0.5;" width="199" x="553.5" y="41"/><ellipse cx="568.5" cy="57" fill="#ADD1B2" rx="11" ry="11" style="stroke:#181818;stroke-width:1.0;"/><path d="M570.8438,52.6719 C569.9063,52.2344 569.3125,52.0938 568.4375,52.0938 C565.8125,52.0938 563.8125,54.1719 563.8125,56.8906 L563.8125,58.0156 C563.8125,60.5938 565.9219,62.4844 568.8125,62.4844 C570.0313,62.4844 571.1875,62.1875 571.9375,61.6406 C572.5156,61.2344 572.8438,60.7813 572.8438,60.3906 C572.8438,59.9375 572.4531,59.5469 571.9844,59.5469 C571.7656,59.5469 571.5625,59.625 571.375,59.8125 C570.9219,60.2969 570.9219,60.2969 570.7344,60.3906 C570.3125,60.6563 569.625,60.7813 568.8594,60.7813 C566.8125,60.7813 565.5156,59.6875 565.5156,57.9844 L565.5156,56.8906 C565.5156,55.1094 566.7656,53.7969 568.5,53.7969 C569.0781,53.7969 569.6875,53.9531 570.1563,54.2031 C570.6406,54.4844 570.8125,54.7031 570.9063,55.1094 C570.9688,55.5156 571,55.6406 571.1406,55.7656 C571.2813,55.9063 571.5156,56.0156 571.7344,56.0156 C572,56.0156 572.2656,55.875 572.4375,55.6563 C572.5469,55.5 572.5781,55.3125 572.5781,54.8906 L572.5781,53.4688 C572.5781,53.0313 572.5625,52.9063 572.4688,52.75 C572.3125,52.4844 572.0313,52.3438 571.7344,52.3438 C571.4375,52.3438 571.2344,52.4375 571.0156,52.75 L570.8438,52.6719 Z " fill="#000000"/><text fill="#000000" font-family="sans-serif" font-size="14" lengthAdjust="spacing" textLength="167" x="582.5" y="61.8467">Catalogi Action Service</text><line style="stroke:#181818;stroke-width:0.5;" x1="554.5" x2="751.5" y1="73" y2="73"/><line style="stroke:#181818;stroke-width:0.5;" x1="554.5" x2="751.5" y1="81" y2="81"/></g><!--class organisatieCatalogi--><g id="elem_organisatieCatalogi"><rect codeLine="12" fill="#F1F1F1" height="48" id="organisatieCatalogi" rx="2.5" ry="2.5" style="stroke:#181818;stroke-width:0.5;" width="186" x="540" y="187"/><ellipse cx="555" cy="203" fill="#B4A7E5" rx="11" ry="11" style="stroke:#181818;stroke-width:1.0;"/><path d="M555.9531,199.7813 L557.6719,199.7813 C558.0625,199.7813 558.25,199.75 558.375,199.6719 C558.6406,199.5156 558.7813,199.2344 558.7813,198.9375 C558.7813,198.6719 558.6719,198.4063 558.4375,198.2344 C558.2656,198.125 558.125,198.0938 557.6719,198.0938 L552.5313,198.0938 C552.0938,198.0938 551.9688,198.1094 551.8125,198.2031 C551.5625,198.3594 551.4063,198.6563 551.4063,198.9375 C551.4063,199.2188 551.5469,199.4688 551.7656,199.6406 C551.9219,199.75 552.1094,199.7813 552.5313,199.7813 L554.25,199.7813 L554.25,206.2969 L552.5313,206.2969 C552.0938,206.2969 551.9688,206.3125 551.8125,206.4219 C551.5625,206.5781 551.4063,206.8594 551.4063,207.1563 C551.4063,207.4063 551.5469,207.6719 551.7656,207.8281 C551.9219,207.9531 552.125,208 552.5313,208 L557.6719,208 C558.4219,208 558.7813,207.7188 558.7813,207.1563 C558.7813,206.875 558.6719,206.625 558.4375,206.4531 C558.2656,206.3281 558.125,206.2969 557.6719,206.2969 L555.9531,206.2969 L555.9531,199.7813 Z " fill="#000000"/><text fill="#000000" font-family="sans-serif" font-size="14" font-style="italic" lengthAdjust="spacing" textLength="154" x="569" y="207.8467">Organisation Catalogi</text><line style="stroke:#181818;stroke-width:0.5;" x1="541" x2="725" y1="219" y2="219"/><line style="stroke:#181818;stroke-width:0.5;" x1="541" x2="725" y1="227" y2="227"/></g><!--class pubAction--><g id="elem_pubAction"><rect codeLine="16" fill="#F1F1F1" height="48" id="pubAction" rx="2.5" ry="2.5" style="stroke:#181818;stroke-width:0.5;" width="218" x="809" y="41"/><ellipse cx="824" cy="57" fill="#ADD1B2" rx="11" ry="11" style="stroke:#181818;stroke-width:1.0;"/><path d="M826.3438,52.6719 C825.4063,52.2344 824.8125,52.0938 823.9375,52.0938 C821.3125,52.0938 819.3125,54.1719 819.3125,56.8906 L819.3125,58.0156 C819.3125,60.5938 821.4219,62.4844 824.3125,62.4844 C825.5313,62.4844 826.6875,62.1875 827.4375,61.6406 C828.0156,61.2344 828.3438,60.7813 828.3438,60.3906 C828.3438,59.9375 827.9531,59.5469 827.4844,59.5469 C827.2656,59.5469 827.0625,59.625 826.875,59.8125 C826.4219,60.2969 826.4219,60.2969 826.2344,60.3906 C825.8125,60.6563 825.125,60.7813 824.3594,60.7813 C822.3125,60.7813 821.0156,59.6875 821.0156,57.9844 L821.0156,56.8906 C821.0156,55.1094 822.2656,53.7969 824,53.7969 C824.5781,53.7969 825.1875,53.9531 825.6563,54.2031 C826.1406,54.4844 826.3125,54.7031 826.4063,55.1094 C826.4688,55.5156 826.5,55.6406 826.6406,55.7656 C826.7813,55.9063 827.0156,56.0156 827.2344,56.0156 C827.5,56.0156 827.7656,55.875 827.9375,55.6563 C828.0469,55.5 828.0781,55.3125 828.0781,54.8906 L828.0781,53.4688 C828.0781,53.0313 828.0625,52.9063 827.9688,52.75 C827.8125,52.4844 827.5313,52.3438 827.2344,52.3438 C826.9375,52.3438 826.7344,52.4375 826.5156,52.75 L826.3438,52.6719 Z " fill="#000000"/><text fill="#000000" font-family="sans-serif" font-size="14" lengthAdjust="spacing" textLength="186" x="838" y="61.8467">Publiccode Action Service</text><line style="stroke:#181818;stroke-width:0.5;" x1="810" x2="1026" y1="73" y2="73"/><line style="stroke:#181818;stroke-width:0.5;" x1="810" x2="1026" y1="81" y2="81"/></g><!--class pubCode--><g id="elem_pubCode"><rect codeLine="17" fill="#F1F1F1" height="48" id="pubCode" rx="2.5" ry="2.5" style="stroke:#181818;stroke-width:0.5;" width="196" x="812" y="187"/><ellipse cx="827" cy="203" fill="#ADD1B2" rx="11" ry="11" style="stroke:#181818;stroke-width:1.0;"/><path d="M829.3438,198.6719 C828.4063,198.2344 827.8125,198.0938 826.9375,198.0938 C824.3125,198.0938 822.3125,200.1719 822.3125,202.8906 L822.3125,204.0156 C822.3125,206.5938 824.4219,208.4844 827.3125,208.4844 C828.5313,208.4844 829.6875,208.1875 830.4375,207.6406 C831.0156,207.2344 831.3438,206.7813 831.3438,206.3906 C831.3438,205.9375 830.9531,205.5469 830.4844,205.5469 C830.2656,205.5469 830.0625,205.625 829.875,205.8125 C829.4219,206.2969 829.4219,206.2969 829.2344,206.3906 C828.8125,206.6563 828.125,206.7813 827.3594,206.7813 C825.3125,206.7813 824.0156,205.6875 824.0156,203.9844 L824.0156,202.8906 C824.0156,201.1094 825.2656,199.7969 827,199.7969 C827.5781,199.7969 828.1875,199.9531 828.6563,200.2031 C829.1406,200.4844 829.3125,200.7031 829.4063,201.1094 C829.4688,201.5156 829.5,201.6406 829.6406,201.7656 C829.7813,201.9063 830.0156,202.0156 830.2344,202.0156 C830.5,202.0156 830.7656,201.875 830.9375,201.6563 C831.0469,201.5 831.0781,201.3125 831.0781,200.8906 L831.0781,199.4688 C831.0781,199.0313 831.0625,198.9063 830.9688,198.75 C830.8125,198.4844 830.5313,198.3438 830.2344,198.3438 C829.9375,198.3438 829.7344,198.4375 829.5156,198.75 L829.3438,198.6719 Z " fill="#000000"/><text fill="#000000" font-family="sans-serif" font-size="14" lengthAdjust="spacing" textLength="164" x="841" y="207.8467">publiccode.yaml (data)</text><line style="stroke:#181818;stroke-width:0.5;" x1="813" x2="1007" y1="219" y2="219"/><line style="stroke:#181818;stroke-width:0.5;" x1="813" x2="1007" y1="227" y2="227"/></g><!--class productPageAction--><g id="elem_productPageAction"><rect codeLine="18" fill="#F1F1F1" height="48" id="productPageAction" rx="2.5" ry="2.5" style="stroke:#181818;stroke-width:0.5;" width="235" x="1062.5" y="41"/><ellipse cx="1077.5" cy="57" fill="#ADD1B2" rx="11" ry="11" style="stroke:#181818;stroke-width:1.0;"/><path d="M1079.8438,52.6719 C1078.9063,52.2344 1078.3125,52.0938 1077.4375,52.0938 C1074.8125,52.0938 1072.8125,54.1719 1072.8125,56.8906 L1072.8125,58.0156 C1072.8125,60.5938 1074.9219,62.4844 1077.8125,62.4844 C1079.0313,62.4844 1080.1875,62.1875 1080.9375,61.6406 C1081.5156,61.2344 1081.8438,60.7813 1081.8438,60.3906 C1081.8438,59.9375 1081.4531,59.5469 1080.9844,59.5469 C1080.7656,59.5469 1080.5625,59.625 1080.375,59.8125 C1079.9219,60.2969 1079.9219,60.2969 1079.7344,60.3906 C1079.3125,60.6563 1078.625,60.7813 1077.8594,60.7813 C1075.8125,60.7813 1074.5156,59.6875 1074.5156,57.9844 L1074.5156,56.8906 C1074.5156,55.1094 1075.7656,53.7969 1077.5,53.7969 C1078.0781,53.7969 1078.6875,53.9531 1079.1563,54.2031 C1079.6406,54.4844 1079.8125,54.7031 1079.9063,55.1094 C1079.9688,55.5156 1080,55.6406 1080.1406,55.7656 C1080.2813,55.9063 1080.5156,56.0156 1080.7344,56.0156 C1081,56.0156 1081.2656,55.875 1081.4375,55.6563 C1081.5469,55.5 1081.5781,55.3125 1081.5781,54.8906 L1081.5781,53.4688 C1081.5781,53.0313 1081.5625,52.9063 1081.4688,52.75 C1081.3125,52.4844 1081.0313,52.3438 1080.7344,52.3438 C1080.4375,52.3438 1080.2344,52.4375 1080.0156,52.75 L1079.8438,52.6719 Z " fill="#000000"/><text fill="#000000" font-family="sans-serif" font-size="14" lengthAdjust="spacing" textLength="203" x="1091.5" y="61.8467">Product Page Action Service</text><line style="stroke:#181818;stroke-width:0.5;" x1="1063.5" x2="1296.5" y1="73" y2="73"/><line style="stroke:#181818;stroke-width:0.5;" x1="1063.5" x2="1296.5" y1="81" y2="81"/></g><!--class productPage--><g id="elem_productPage"><rect codeLine="19" fill="#F1F1F1" height="48" id="productPage" rx="2.5" ry="2.5" style="stroke:#181818;stroke-width:0.5;" width="125" x="1056.5" y="187"/><ellipse cx="1071.5" cy="203" fill="#B4A7E5" rx="11" ry="11" style="stroke:#181818;stroke-width:1.0;"/><path d="M1072.4531,199.7813 L1074.1719,199.7813 C1074.5625,199.7813 1074.75,199.75 1074.875,199.6719 C1075.1406,199.5156 1075.2813,199.2344 1075.2813,198.9375 C1075.2813,198.6719 1075.1719,198.4063 1074.9375,198.2344 C1074.7656,198.125 1074.625,198.0938 1074.1719,198.0938 L1069.0313,198.0938 C1068.5938,198.0938 1068.4688,198.1094 1068.3125,198.2031 C1068.0625,198.3594 1067.9063,198.6563 1067.9063,198.9375 C1067.9063,199.2188 1068.0469,199.4688 1068.2656,199.6406 C1068.4219,199.75 1068.6094,199.7813 1069.0313,199.7813 L1070.75,199.7813 L1070.75,206.2969 L1069.0313,206.2969 C1068.5938,206.2969 1068.4688,206.3125 1068.3125,206.4219 C1068.0625,206.5781 1067.9063,206.8594 1067.9063,207.1563 C1067.9063,207.4063 1068.0469,207.6719 1068.2656,207.8281 C1068.4219,207.9531 1068.625,208 1069.0313,208 L1074.1719,208 C1074.9219,208 1075.2813,207.7188 1075.2813,207.1563 C1075.2813,206.875 1075.1719,206.625 1074.9375,206.4531 C1074.7656,206.3281 1074.625,206.2969 1074.1719,206.2969 L1072.4531,206.2969 L1072.4531,199.7813 Z " fill="#000000"/><text fill="#000000" font-family="sans-serif" font-size="14" font-style="italic" lengthAdjust="spacing" textLength="93" x="1085.5" y="207.8467">Product Page</text><line style="stroke:#181818;stroke-width:0.5;" x1="1057.5" x2="1180.5" y1="219" y2="219"/><line style="stroke:#181818;stroke-width:0.5;" x1="1057.5" x2="1180.5" y1="227" y2="227"/></g><!--link openCat to api--><g id="link_openCat_api"><path codeLine="23" d="M353.224,235.073 C308.718,257.505 257.5607,283.2904 213.0027,305.7489 " fill="none" id="openCat-to-api" style="stroke:#181818;stroke-width:1.0;"/><polygon fill="none" points="196.929,313.8505,215.7032,311.1068,210.3022,300.391,196.929,313.8505" style="stroke:#181818;stroke-width:1.0;"/><text fill="#000000" font-family="sans-serif" font-size="13" lengthAdjust="spacing" textLength="53" x="291" y="280.0669">Register</text></g><!--link pubCode to api--><g id="link_pubCode_api"><path codeLine="24" d="M849.666,235.008 C824.971,243.661 795.922,252.876 769,259 C581.695,301.6034 374.743,321.3098 254.59,330.1958 " fill="none" id="pubCode-to-api" style="stroke:#181818;stroke-width:1.0;"/><polygon fill="none" points="236.639,331.5234,255.0325,336.1795,254.1475,324.2122,236.639,331.5234" style="stroke:#181818;stroke-width:1.0;"/><text fill="#000000" font-family="sans-serif" font-size="13" lengthAdjust="spacing" textLength="53" x="721" y="280.0669">Register</text></g><!--link productPage to api--><g id="link_productPage_api"><path codeLine="26" d="M1080.94,235.206 C1064.59,244.107 1044.92,253.452 1026,259 C879.467,301.9672 444.7674,324.6668 254.5524,332.8529 " fill="none" id="productPage-to-api" style="stroke:#181818;stroke-width:1.0;"/><polygon fill="none" points="236.569,333.6268,254.8103,338.8473,254.2944,326.8584,236.569,333.6268" style="stroke:#181818;stroke-width:1.0;"/><text fill="#000000" font-family="sans-serif" font-size="13" lengthAdjust="spacing" textLength="45" x="989" y="280.0669">Access</text></g><!--link openCatalogi to api--><g id="link_openCatalogi_api"><path codeLine="27" d="M151,235.219 C151,257.671 151,273.496 151,295.9058 " fill="none" id="openCatalogi-to-api" style="stroke:#181818;stroke-width:1.0;"/><polygon fill="none" points="151,313.9058,157,295.9058,145,295.9058,151,313.9058" style="stroke:#181818;stroke-width:1.0;"/><text fill="#000000" font-family="sans-serif" font-size="13" lengthAdjust="spacing" textLength="45" x="152" y="280.0669">Access</text></g><!--link organisatieCatalogi to api--><g id="link_organisatieCatalogi_api"><path codeLine="28" d="M584.312,235.024 C565.194,243.423 542.867,252.456 522,259 C426.07,289.083 330.2823,308.0427 254.3033,320.8575 " fill="none" id="organisatieCatalogi-to-api" style="stroke:#181818;stroke-width:1.0;"/><polygon fill="none" points="236.554,323.8511,255.3012,326.7739,253.3054,314.941,236.554,323.8511" style="stroke:#181818;stroke-width:1.0;"/><text fill="#000000" font-family="sans-serif" font-size="13" lengthAdjust="spacing" textLength="45" x="494" y="280.0669">Access</text></g><!--link catalogiAction to organisatieCatalogi--><g id="link_catalogiAction_organisatieCatalogi"><path codeLine="30" d="M649.787,89.136 C646.054,116.008 642.4104,142.2452 638.6814,169.0922 " fill="none" id="catalogiAction-to-organisatieCatalogi" style="stroke:#181818;stroke-width:1.0;"/><polygon fill="none" points="636.205,186.921,644.6243,169.9176,632.7384,168.2667,636.205,186.921" style="stroke:#181818;stroke-width:1.0;"/><text fill="#000000" font-family="sans-serif" font-size="13" lengthAdjust="spacing" textLength="134" x="647" y="132.0669">Creates and updates</text></g><!--link orgAction to openCat--><g id="link_orgAction_openCat"><path codeLine="31" d="M404.875,89.136 C403.569,116.008 402.3009,142.0952 400.9959,168.9422 " fill="none" id="orgAction-to-openCat" style="stroke:#181818;stroke-width:1.0;"/><polygon fill="none" points="400.122,186.921,406.9889,169.2335,395.003,168.6509,400.122,186.921" style="stroke:#181818;stroke-width:1.0;"/><text fill="#000000" font-family="sans-serif" font-size="13" lengthAdjust="spacing" textLength="134" x="405" y="132.0669">Creates and updates</text></g><!--link pubAction to pubCode--><g id="link_pubAction_pubCode"><path codeLine="32" d="M916.715,89.136 C915.222,116.008 913.7728,142.1017 912.2808,168.9487 " fill="none" id="pubAction-to-pubCode" style="stroke:#181818;stroke-width:1.0;"/><polygon fill="none" points="911.282,186.921,918.2715,169.2817,906.29,168.6158,911.282,186.921" style="stroke:#181818;stroke-width:1.0;"/><text fill="#000000" font-family="sans-serif" font-size="13" lengthAdjust="spacing" textLength="134" x="916" y="132.0669">Creates and updates</text></g><!--link productPageAction to productPage--><g id="link_productPageAction_productPage"><path codeLine="33" d="M1170.2,89.136 C1158.82,116.008 1147.1696,143.4992 1135.7996,170.3462 " fill="none" id="productPageAction-to-productPage" style="stroke:#181818;stroke-width:1.0;"/><polygon fill="none" points="1128.78,186.921,1141.3246,172.686,1130.2747,168.0063,1128.78,186.921" style="stroke:#181818;stroke-width:1.0;"/><text fill="#000000" font-family="sans-serif" font-size="13" lengthAdjust="spacing" textLength="134" x="1157" y="132.0669">Creates and updates</text></g><!--SRC=[dL9BJiCm4Dtx54DMi6WFq0LI5AK8gIfLwGLSUngP1Dko7L05t1sdJb8dDHkwIcVcpVjuxZYUX4JObyKXtpvjIc0DjPOGJLbDAuHiGoN7HhpLi4QEXZg19zYY-qHJP_15mF-UjuTolywB4ZAbKJBgQACgiPHD1jH2LolwscN-ofPHBPOfZA-JdqZ6Ywce5BQZXprgPOLJvZm8Y1RkscCZ65CS8MTEA6dX5Ss7O1Yqc2gKvxY9Y3DzR-2U-xyFiOCvPZ3LCqs8XbqHMnJJrOw73Mi6WOFHCRCuYE3l7pbCrEdsc8v1Zx2R47ohyFKR8gDuonpiEdafgj3lskaiuWLpH6UTzEd3Ol7zs1q6hBprIbY7XlIYaZqIBOe7SiRGttXybgdsxKCafiZqdIy32UGA2eFKeJzioQ7LlFicup46MD2J7XqVx3BQk_vZT1vuW5ohITWl]--></g></svg>