<svg xmlns="http://www.w3.org/2000/svg" xmlns:xlink="http://www.w3.org/1999/xlink" contentStyleType="text/css" height="610px" preserveAspectRatio="none" style="width:647px;height:610px;background:#FFFFFF;" version="1.1" viewBox="0 0 647 610" width="647px" zoomAndPan="magnify"><defs/><g><!--class OpenCatalogue--><g id="elem_OpenCatalogue"><rect codeLine="5" fill="#F1F1F1" height="113.1875" id="OpenCatalogue" rx="2.5" ry="2.5" style="stroke:#181818;stroke-width:0.5;" width="140" x="7" y="158.8"/><ellipse cx="22" cy="174.8" fill="#ADD1B2" rx="11" ry="11" style="stroke:#181818;stroke-width:1.0;"/><path d="M24.9688,180.4406 Q24.3906,180.7375 23.75,180.8781 Q23.1094,181.0344 22.4063,181.0344 Q19.9063,181.0344 18.5781,179.3938 Q17.2656,177.7375 17.2656,174.6125 Q17.2656,171.4875 18.5781,169.8313 Q19.9063,168.175 22.4063,168.175 Q23.1094,168.175 23.75,168.3313 Q24.4063,168.4875 24.9688,168.7844 L24.9688,171.5031 Q24.3438,170.925 23.75,170.6594 Q23.1563,170.3781 22.5313,170.3781 Q21.1875,170.3781 20.5,171.4563 Q19.8125,172.5188 19.8125,174.6125 Q19.8125,176.7063 20.5,177.7844 Q21.1875,178.8469 22.5313,178.8469 Q23.1563,178.8469 23.75,178.5813 Q24.3438,178.3 24.9688,177.7219 L24.9688,180.4406 Z " fill="#000000"/><text fill="#000000" font-family="sans-serif" font-size="14" lengthAdjust="spacing" textLength="108" x="36" y="179.6467">OpenCatalogue</text><line style="stroke:#181818;stroke-width:0.5;" x1="8" x2="146" y1="190.8" y2="190.8"/><text fill="#000000" font-family="sans-serif" font-size="14" lengthAdjust="spacing" textLength="55" x="13" y="207.7951">Catalogi</text><text fill="#000000" font-family="sans-serif" font-size="14" lengthAdjust="spacing" textLength="83" x="13" y="224.092">Publications</text><text fill="#000000" font-family="sans-serif" font-size="14" lengthAdjust="spacing" textLength="81" x="13" y="240.3889">Documents</text><text fill="#000000" font-family="sans-serif" font-size="14" lengthAdjust="spacing" textLength="37" x="13" y="256.6857">Index</text><line style="stroke:#181818;stroke-width:0.5;" x1="8" x2="146" y1="263.9875" y2="263.9875"/></g><!--class ObjectStore--><g id="elem_ObjectStore"><rect codeLine="12" fill="#F1F1F1" height="113.1875" id="ObjectStore" rx="2.5" ry="2.5" style="stroke:#181818;stroke-width:0.5;" width="155" x="246.5" y="348.99"/><ellipse cx="279.95" cy="364.99" fill="#ADD1B2" rx="11" ry="11" style="stroke:#181818;stroke-width:1.0;"/><path d="M282.9188,370.6306 Q282.3406,370.9275 281.7,371.0681 Q281.0594,371.2244 280.3563,371.2244 Q277.8563,371.2244 276.5281,369.5838 Q275.2156,367.9275 275.2156,364.8025 Q275.2156,361.6775 276.5281,360.0213 Q277.8563,358.365 280.3563,358.365 Q281.0594,358.365 281.7,358.5213 Q282.3563,358.6775 282.9188,358.9744 L282.9188,361.6931 Q282.2938,361.115 281.7,360.8494 Q281.1063,360.5681 280.4813,360.5681 Q279.1375,360.5681 278.45,361.6463 Q277.7625,362.7088 277.7625,364.8025 Q277.7625,366.8963 278.45,367.9744 Q279.1375,369.0369 280.4813,369.0369 Q281.1063,369.0369 281.7,368.7713 Q282.2938,368.49 282.9188,367.9119 L282.9188,370.6306 Z " fill="#000000"/><text fill="#000000" font-family="sans-serif" font-size="14" lengthAdjust="spacing" textLength="82" x="298.05" y="369.8367">ObjectStore</text><line style="stroke:#181818;stroke-width:0.5;" x1="247.5" x2="400.5" y1="380.99" y2="380.99"/><line style="stroke:#181818;stroke-width:0.5;" x1="247.5" x2="400.5" y1="388.99" y2="388.99"/><ellipse cx="257.5" cy="402.6384" fill="#84BE84" rx="3" ry="3" style="stroke:#038048;stroke-width:1.0;"/><text fill="#000000" font-family="sans-serif" font-size="14" lengthAdjust="spacing" textLength="101" x="266.5" y="405.9851">store(Catalogi)</text><ellipse cx="257.5" cy="418.9353" fill="#84BE84" rx="3" ry="3" style="stroke:#038048;stroke-width:1.0;"/><text fill="#000000" font-family="sans-serif" font-size="14" lengthAdjust="spacing" textLength="129" x="266.5" y="422.282">store(Publications)</text><ellipse cx="257.5" cy="435.2322" fill="#84BE84" rx="3" ry="3" style="stroke:#038048;stroke-width:1.0;"/><text fill="#000000" font-family="sans-serif" font-size="14" lengthAdjust="spacing" textLength="127" x="266.5" y="438.5789">store(Documents)</text><ellipse cx="257.5" cy="451.5291" fill="#84BE84" rx="3" ry="3" style="stroke:#038048;stroke-width:1.0;"/><text fill="#000000" font-family="sans-serif" font-size="14" lengthAdjust="spacing" textLength="83" x="266.5" y="454.8757">store(Index)</text></g><!--class SearchIndex--><g id="elem_SearchIndex"><rect codeLine="19" fill="#F1F1F1" height="64.2969" id="SearchIndex" rx="2.5" ry="2.5" style="stroke:#181818;stroke-width:0.5;" width="156" x="188" y="539.17"/><ellipse cx="220.55" cy="555.17" fill="#ADD1B2" rx="11" ry="11" style="stroke:#181818;stroke-width:1.0;"/><path d="M223.5188,560.8106 Q222.9406,561.1075 222.3,561.2481 Q221.6594,561.4044 220.9563,561.4044 Q218.4563,561.4044 217.1281,559.7638 Q215.8156,558.1075 215.8156,554.9825 Q215.8156,551.8575 217.1281,550.2013 Q218.4563,548.545 220.9563,548.545 Q221.6594,548.545 222.3,548.7013 Q222.9563,548.8575 223.5188,549.1544 L223.5188,551.8731 Q222.8938,551.295 222.3,551.0294 Q221.7063,550.7481 221.0813,550.7481 Q219.7375,550.7481 219.05,551.8263 Q218.3625,552.8888 218.3625,554.9825 Q218.3625,557.0763 219.05,558.1544 Q219.7375,559.2169 221.0813,559.2169 Q221.7063,559.2169 222.3,558.9513 Q222.8938,558.67 223.5188,558.0919 L223.5188,560.8106 Z " fill="#000000"/><text fill="#000000" font-family="sans-serif" font-size="14" lengthAdjust="spacing" textLength="85" x="238.45" y="560.0167">SearchIndex</text><line style="stroke:#181818;stroke-width:0.5;" x1="189" x2="343" y1="571.17" y2="571.17"/><line style="stroke:#181818;stroke-width:0.5;" x1="189" x2="343" y1="579.17" y2="579.17"/><ellipse cx="199" cy="592.8184" fill="#84BE84" rx="3" ry="3" style="stroke:#038048;stroke-width:1.0;"/><text fill="#000000" font-family="sans-serif" font-size="14" lengthAdjust="spacing" textLength="130" x="208" y="596.1651">index(Publications)</text></g><!--class SynchronizationService--><g id="elem_SynchronizationService"><rect codeLine="23" fill="#F1F1F1" height="64.2969" id="SynchronizationService" rx="2.5" ry="2.5" style="stroke:#181818;stroke-width:0.5;" width="203" x="201.5" y="183.24"/><ellipse cx="221.45" cy="199.24" fill="#ADD1B2" rx="11" ry="11" style="stroke:#181818;stroke-width:1.0;"/><path d="M224.4188,204.8806 Q223.8406,205.1775 223.2,205.3181 Q222.5594,205.4744 221.8563,205.4744 Q219.3563,205.4744 218.0281,203.8338 Q216.7156,202.1775 216.7156,199.0525 Q216.7156,195.9275 218.0281,194.2713 Q219.3563,192.615 221.8563,192.615 Q222.5594,192.615 223.2,192.7713 Q223.8563,192.9275 224.4188,193.2244 L224.4188,195.9431 Q223.7938,195.365 223.2,195.0994 Q222.6063,194.8181 221.9813,194.8181 Q220.6375,194.8181 219.95,195.8963 Q219.2625,196.9588 219.2625,199.0525 Q219.2625,201.1463 219.95,202.2244 Q220.6375,203.2869 221.9813,203.2869 Q222.6063,203.2869 223.2,203.0213 Q223.7938,202.74 224.4188,202.1619 L224.4188,204.8806 Z " fill="#000000"/><text fill="#000000" font-family="sans-serif" font-size="14" lengthAdjust="spacing" textLength="160" x="236.55" y="204.0867">SynchronizationService</text><line style="stroke:#181818;stroke-width:0.5;" x1="202.5" x2="403.5" y1="215.24" y2="215.24"/><line style="stroke:#181818;stroke-width:0.5;" x1="202.5" x2="403.5" y1="223.24" y2="223.24"/><ellipse cx="212.5" cy="236.8884" fill="#84BE84" rx="3" ry="3" style="stroke:#038048;stroke-width:1.0;"/><text fill="#000000" font-family="sans-serif" font-size="14" lengthAdjust="spacing" textLength="177" x="221.5" y="240.2351">createPublication(source)</text></g><!--entity User--><g id="elem_User"><ellipse cx="510" cy="375.93" fill="#F1F1F1" rx="8" ry="8" style="stroke:#181818;stroke-width:0.5;"/><path d="M510,383.93 L510,410.93 M497,391.93 L523,391.93 M510,410.93 L497,425.93 M510,410.93 L523,425.93 " fill="none" style="stroke:#181818;stroke-width:0.5;"/><text fill="#000000" font-family="sans-serif" font-size="14" lengthAdjust="spacing" textLength="32" x="494" y="440.4251">User</text></g><!--entity Admin--><g id="elem_Admin"><ellipse cx="473" cy="185.74" fill="#F1F1F1" rx="8" ry="8" style="stroke:#181818;stroke-width:0.5;"/><path d="M473,193.74 L473,220.74 M460,201.74 L486,201.74 M473,220.74 L460,235.74 M473,220.74 L486,235.74 " fill="none" style="stroke:#181818;stroke-width:0.5;"/><text fill="#000000" font-family="sans-serif" font-size="14" lengthAdjust="spacing" textLength="43" x="451.5" y="250.2351">Admin</text></g><!--entity ExternalSource--><g id="elem_ExternalSource"><ellipse cx="303" cy="14" fill="#F1F1F1" rx="8" ry="8" style="stroke:#181818;stroke-width:0.5;"/><path d="M303,22 L303,49 M290,30 L316,30 M303,49 L290,64 M303,49 L316,64 " fill="none" style="stroke:#181818;stroke-width:0.5;"/><text fill="#000000" font-family="sans-serif" font-size="14" lengthAdjust="spacing" textLength="104" x="251" y="78.4951">ExternalSource</text></g><!--link OpenCatalogue to ObjectStore--><g id="link_OpenCatalogue_ObjectStore"><path codeLine="32" d="M142.46,272.27 C161.12,287.72 181.64,304.28 201,318.99 C215.4,329.92 226.1334,337.7766 241.2934,348.4466 " fill="none" id="OpenCatalogue-to-ObjectStore" style="stroke:#181818;stroke-width:1.0;"/><polygon fill="#181818" points="246.2,351.9,241.1424,343.4489,242.1112,349.0222,236.5379,349.991,246.2,351.9" style="stroke:#181818;stroke-width:1.0;"/><text fill="#000000" font-family="sans-serif" font-size="13" lengthAdjust="spacing" textLength="88" x="202" y="315.0569">stores data in</text></g><!--link OpenCatalogue to SearchIndex--><g id="link_OpenCatalogue_SearchIndex"><path codeLine="33" d="M53.94,272.48 C36.15,325.34 19.93,404.78 55,462.17 C83.76,509.24 134.5268,534.7963 181.8068,550.2463 " fill="none" id="OpenCatalogue-to-SearchIndex" style="stroke:#181818;stroke-width:1.0;"/><polygon fill="#181818" points="187.51,552.11,180.1976,545.5123,182.7573,550.5569,177.7127,553.1166,187.51,552.11" style="stroke:#181818;stroke-width:1.0;"/><text fill="#000000" font-family="sans-serif" font-size="13" lengthAdjust="spacing" textLength="172" x="56" y="410.1469">transfers published data to</text></g><!--link SynchronizationService to ObjectStore--><g id="link_SynchronizationService_ObjectStore"><path codeLine="35" d="M299.39,247.97 C297.72,268.33 296.75,295.33 300,318.99 C301.35,328.77 302.0454,333.194 304.5454,343.054 " fill="none" id="SynchronizationService-to-ObjectStore" style="stroke:#181818;stroke-width:1.0;"/><polygon fill="#181818" points="306.02,348.87,307.6854,339.163,304.7911,344.0234,299.9307,341.1291,306.02,348.87" style="stroke:#181818;stroke-width:1.0;"/><text fill="#000000" font-family="sans-serif" font-size="13" lengthAdjust="spacing" textLength="128" x="301" y="315.0569">creates Publications</text></g><!--link ObjectStore to SearchIndex--><g id="link_ObjectStore_SearchIndex"><path codeLine="36" d="M277.05,462.41 C271.29,471.84 266.28,481.92 263,492.17 C258.24,507.04 257.725,518.3648 259.295,532.8848 " fill="none" id="ObjectStore-to-SearchIndex" style="stroke:#181818;stroke-width:1.0;"/><polygon fill="#181818" points="259.94,538.85,262.9493,529.4722,259.4025,533.879,254.9957,530.3322,259.94,538.85" style="stroke:#181818;stroke-width:1.0;"/><text fill="#000000" font-family="sans-serif" font-size="13" lengthAdjust="spacing" textLength="202" x="264" y="505.2369">transfers published Publications</text></g><!--link User to SearchIndex--><g id="link_User_SearchIndex"><path codeLine="38" d="M504.26,443.92 C499.07,465.72 489.29,492.18 471,509.17 C436.72,541.03 392.4312,555.3118 350.2912,562.6418 " fill="none" id="User-to-SearchIndex" style="stroke:#181818;stroke-width:1.0;"/><polygon fill="#181818" points="344.38,563.67,353.9323,566.0685,349.306,562.8131,352.5614,558.1868,344.38,563.67" style="stroke:#181818;stroke-width:1.0;"/><text fill="#000000" font-family="sans-serif" font-size="13" lengthAdjust="spacing" textLength="154" x="485" y="505.2369">queries search endpoint</text></g><!--link Admin to ObjectStore--><g id="link_Admin_ObjectStore"><path codeLine="39" d="M464.08,253.95 C457.94,274.52 448.27,299.68 434,318.99 C424.94,331.25 418.2184,338.7354 406.3884,348.9654 " fill="none" id="Admin-to-ObjectStore" style="stroke:#181818;stroke-width:1.0;"/><polygon fill="#181818" points="401.85,352.89,411.2741,350.0287,405.632,349.6195,406.0412,343.9775,401.85,352.89" style="stroke:#181818;stroke-width:1.0;"/><text fill="#000000" font-family="sans-serif" font-size="13" lengthAdjust="spacing" textLength="93" x="444" y="315.0569">manages data</text></g><!--link ExternalSource to SynchronizationService--><g id="link_ExternalSource_SynchronizationService"><path codeLine="42" d="M303,81.9 C303,112.15 303,148.34 303,176.92 " fill="none" id="ExternalSource-to-SynchronizationService" style="stroke:#181818;stroke-width:1.0;"/><polygon fill="#181818" points="303,182.92,307,173.92,303,177.92,299,173.92,303,182.92" style="stroke:#181818;stroke-width:1.0;"/><text fill="#000000" font-family="sans-serif" font-size="13" lengthAdjust="spacing" textLength="87" x="304" y="124.8669">provides data</text></g><!--SRC=[ZLBBJiCm4BpxAyo9LYW_q0DIrLO82G5gu8nSUziiSkpWTTe2ujz9xAJ4VKZuv7tCpExOGckxUojnZsR3hXIiqG1VBcOlqyUxXmMNMX0nTitdiGB6eqSWzjVoL86P2I-qtTJ0lnblJXTZ29xhbKOfF5f38J6tiYuRfXZT6mLxziE6bAjta3xtrlM4DzG6evvtF4mE-PF2GIV91hrnAfY3SB88bLuGs-28EyLy6bauQ_0hb7DmMvI7UQK3uM407v6jdOH08cGp2NybSDrrgaeqtNsnz-2Cq7deRxrVWeuJ55WHI_tEbDsPx7PesOI7HOchfeitlESHWvqdt3jXQ0sEUDMEJ0Me2FUMiGkRPiUoSMTA7tpubjb_P1CqQqqwnNtKu9fVo2aacr-fAel6i-3ZwM2bC6BJ6T8QsblCeyV4Ki-Ztjcb9xnoTekg8_i5]--></g></svg>