<svg xmlns="http://www.w3.org/2000/svg" xmlns:xlink="http://www.w3.org/1999/xlink" contentStyleType="text/css" height="1024px" preserveAspectRatio="none" style="width:1048px;height:1024px;background:#FFFFFF;" version="1.1" viewBox="0 0 1048 1024" width="1048px" zoomAndPan="magnify"><defs/><g><text fill="#888888" font-family="sans-serif" font-size="10" lengthAdjust="spacing" textLength="63.2666" x="971.1795" y="9.2822">Components</text><text fill="#000000" font-family="sans-serif" font-size="14" font-weight="bold" lengthAdjust="spacing" textLength="111.3574" x="461.5443" y="35.6357">Open Catalogi</text><!--cluster Internet--><g id="cluster_Internet"><path d="M126.8113,99.8726 C132.1326,91.5281 138.2964,88.7548 145.5447,97.7962 C152.0196,88.4909 158.1043,89.2414 164.4004,97.983 C170.4293,86.0576 178.2681,86.2438 185.6254,96.7245 C192.2108,86.2024 201.0333,88.7078 205.9956,98.3631 C209.941,87.7496 218.1486,86.9919 224.3634,96.2672 C232.1856,88.4342 238.4282,89.4315 243.2248,99.4619 C248.7342,89.6347 258.6747,90.2654 264.7472,98.8019 C270.0042,87.4136 276.9119,86.304 284.6983,96.4595 C292.2995,89.2825 298.5179,90.0823 303.2397,99.6482 C310.4312,87.9213 318.273,86.6246 326.8567,98.2397 C333.5358,90.6021 340.1411,91.0168 345.8238,99.4181 C350.6392,90.0902 358.4725,89.0021 365.1728,97.3555 C371.4359,89.1962 379.0608,89.0836 385.0961,97.6274 C396.9298,86.3703 404.6747,88.5502 410,103.753 C411.7917,103.6189 412.8008,104.9207 412.0682,106.6125 C424.8524,108.7405 429.4196,119.8919 419.8772,129.6033 C432.9883,134.839 435.8116,142.9984 425.2912,153.5719 C434.7854,165.1801 431.3879,174.2485 416.9577,177.5377 C429.0331,194.5487 419.9994,204.3408 403,208.053 C404.3265,207.5067 405.39,208.0414 405.2024,209.6213 C398.9375,218.0648 392.9248,217.8664 386.3197,210.0156 C382.3838,223.1577 371.5675,223.2767 363.4144,214.4033 C357.4513,223.0539 350.3894,224.9547 343.567,215.3369 C340.1182,224.0468 333.1192,225.362 326.8091,218.3956 C320.1375,228.5237 312.7434,228.2605 305.9796,218.4922 C300.3421,230.3413 292.4097,230.7787 283.2188,222.5131 C278.64,231.6391 269.5418,234.1822 263.574,223.9204 C257.3885,231.7072 247.4201,232.1779 243.561,221.411 C236.163,229.6656 228.7646,227.7905 224.7988,217.8683 C218.4249,225.3412 210.1142,224.6926 205.808,215.5107 C200.4605,225.3141 191.2527,226.0916 185.9188,215.4975 C179.2048,226.609 169.891,226.1135 164.3276,214.4088 C157.0728,222.1644 149.6292,222.4837 143.7125,212.8247 C129.9609,222.9633 118.2216,218.058 116,201.053 C119.1698,200.4809 120.1367,201.8339 119.6503,204.8121 C105.4181,196.9928 103.8351,188.3405 115.8103,176.914 C106.7151,171.2595 106.5648,162.1542 115.0391,155.8563 C104.6456,148.323 103.7262,138.4513 116.0667,131.8928 C103.948,118.8999 102.5643,103.3228 123,96.753 C125.8219,95.6248 127.0699,97.2373 126.8113,99.8726 " fill="none" style="stroke:#181818;stroke-width:1.0;"/><text fill="#000000" font-family="sans-serif" font-size="14" font-weight="bold" lengthAdjust="spacing" textLength="64.4219" x="230.7891" y="114.7481">Internet</text></g><!--cluster Federatief netwerk--><g id="cluster_Federatief netwerk"><path d="M804.1101,327.7881 C807.8206,318.0705 815.9164,318.0525 821.1598,326.3362 C826.0124,319.0823 830.9877,320.2423 835.4789,326.7132 C840.2559,317.965 845.8834,317.3616 852.6557,324.5645 C856.9923,316.1666 864.0548,316.0083 868.8773,324.0861 C872.7685,317.7656 879.405,317.6335 883.0594,324.3438 C887.2178,317.7772 893.3197,316.4604 898.0448,323.7301 C903.4782,314.1714 909.4805,314.2505 916.0414,322.5968 C920.386,316.4737 927.0216,315.7007 930.9411,323.0664 C936.0961,316.2364 942.2666,317.9057 945.7018,324.9023 C950.7097,317.9909 957.1381,316.7966 962.3797,324.638 C967.273,317.3964 974.1278,318.0805 978.027,325.6856 C981.2841,317.1567 988.8991,318.497 993.2612,324.5296 C998.0034,317.9999 1003.8097,318.3066 1006.9144,326.0914 C1015.6169,316.8961 1026.1277,319.6493 1029,332.053 C1030.3778,332.1126 1031.2199,332.913 1030.446,334.3357 C1038.8399,338.9153 1038.0212,344.2468 1031.2549,349.6283 C1039.5534,355.8451 1037.6708,362.5488 1029.8345,367.4819 C1038.4967,371.6965 1038.4781,376.9237 1032.7865,383.7439 C1039.8961,389.9189 1041.4461,395.0319 1032.1206,400.5559 C1038.9593,406.2824 1038.5223,412.9921 1031.2427,418.0084 C1039.3598,422.2421 1038.6121,428.7812 1031.5403,433.3102 C1039.9984,439.5561 1040.3133,448.4519 1029.4462,452.6 C1038.4442,462.8601 1033.6336,470.4955 1022,473.353 C1022.6914,472.9653 1023.2546,473.157 1023.3835,473.9903 C1018.4061,481.4513 1012.9064,481.6584 1007.6608,474.2743 C1002.8555,482.3937 996.403,481.8606 991.111,474.805 C988.2298,483.7007 982.3362,484.1311 976.103,478.1973 C972.2722,485.0919 967.1441,486.1659 962.2451,479.271 C956.2508,487.9101 950.6444,486.451 945.0511,478.8466 C939.7698,486.6921 933.6306,485.7525 928.6526,478.5168 C925.0565,486.4634 919.7537,485.7801 914.3563,480.4577 C907.939,487.8407 902.8718,485.2091 899.1442,477.7086 C894.6658,484.2974 890.3031,486.3836 884.3475,479.3083 C877.4667,486.2263 871.6155,486.5303 866.9173,476.996 C861.5433,485.1798 856.0681,484.0671 851.0188,476.6648 C846.7918,482.9068 841.3545,482.0635 838.1135,475.6586 C833.9583,482.9035 827.0913,483.4517 822.5617,476.0563 C811.3643,486.1089 798.9696,480.6097 797,466.353 C798.4516,466.8967 798.8445,468.1324 797.7335,469.3115 C789.8439,465.2643 787.2678,457.6672 796.1584,452.0857 C788.1894,446.3769 789.4816,440.7195 796.5428,435.3562 C788.2391,430.209 787.9188,424.0037 795.0974,417.5966 C786.0872,414.6837 784.8661,406.6033 791.2945,400.2967 C783.4658,395.1984 784.8193,387.1689 793.3144,384.1072 C786.8314,379.1628 785.9298,371.9222 794.1075,367.6859 C787.4011,361.3963 789.5936,354.4766 797.3855,351.0424 C789.0869,339.3852 790.4038,331.1378 804,325.053 C805.3248,325.8461 805.5398,326.8841 804.1101,327.7881 " fill="none" style="stroke:#181818;stroke-width:1.0;"/><text fill="#000000" font-family="sans-serif" font-size="14" font-weight="bold" lengthAdjust="spacing" textLength="151.6758" x="837.1621" y="343.0481">Federatief netwerk</text></g><!--cluster Catalogi--><g id="cluster_Catalogi"><path d="M815.5,360.053 L881.5986,360.053 A3.75,3.75 0 0 1 884.0986,362.553 L891.0986,382.3499 L1010.5,382.3499 A2.5,2.5 0 0 1 1013,384.8499 L1013,454.853 A2.5,2.5 0 0 1 1010.5,457.353 L815.5,457.353 A2.5,2.5 0 0 1 813,454.853 L813,362.553 A2.5,2.5 0 0 1 815.5,360.053 " fill="none" style="stroke:#000000;stroke-width:1.5;"/><line style="stroke:#000000;stroke-width:1.5;" x1="813" x2="891.0986" y1="382.3499" y2="382.3499"/><text fill="#000000" font-family="sans-serif" font-size="14" font-weight="bold" lengthAdjust="spacing" textLength="65.0986" x="817" y="375.0481">Catalogi</text></g><!--cluster Externe Applicaties--><g id="cluster_Externe Applicaties"><path d="M524.8225,71.9464 C530.9196,62.205 539.2418,60.7977 545.4915,71.7944 C549.9656,62.2256 557.3925,59.4294 564.6871,68.9596 C571.7889,60.4618 579.7627,57.8363 586.193,69.6699 C591.4297,58.6959 597.5699,57.6194 605.6866,66.8979 C613.0806,59.6186 619.5886,59.7458 624.4194,69.6863 C629.684,59.5797 639.1869,56.1974 646.6757,67.3588 C652.3533,55.9799 660.9966,56.2237 667.5011,66.566 C673.8692,56.8392 679.7784,58.2915 685.8622,66.8515 C691.5731,55.9375 700.9935,58.1192 706.7903,66.7594 C714.4195,57.7378 724.3986,58.6226 729.0896,69.9752 C733.9629,59.5274 741.1845,58.5404 748.5007,67.5365 C754.8455,57.9896 764.7676,58.7185 769.7225,69.0224 C776.5804,58.8442 783.8689,59.0007 789.8147,69.8922 C800.4992,62.1999 808.1026,63.6909 814,75.753 C815.6163,76.4689 815.8158,78.126 814.3472,79.1565 C826.0904,83.4717 827.2346,91.4606 818.1195,99.6207 C829.4649,106.0579 828.9149,113.2279 820.7159,121.9389 C835.1729,126.5174 838.0743,136.012 826.3898,146.604 C833.5282,155.4518 831.8113,162.066 820.6585,165.3095 C833.723,174.0447 830.4705,183.9081 818.7716,190.8109 C829.1572,204.1503 822.3747,215.269 807,217.053 C808.5301,217.2347 809.062,218.3012 808.2207,219.6135 C800.787,228.7487 794.5993,228.3402 788.3049,218.4226 C784.2436,227.7356 775.5239,227.2908 769.9785,220.0673 C763.127,228.8987 754.129,230.74 747.9865,219.2981 C741.9858,229.4866 735.947,228.2891 729.2652,219.9878 C723.4758,230.4508 713.4793,230.7263 706.3527,221.5476 C699.4075,229.1914 693.6431,227.7983 688.6503,219.3939 C682.2683,231.1693 674.0379,233.4149 664.5317,222.752 C657.6267,230.7193 650.7277,232.0773 645.1636,221.3619 C638.5559,229.2807 629.2134,230.1026 624.6393,219.1502 C618.7094,229.3975 611.9147,227.9994 605.4313,219.7242 C599.6624,228.693 591.6182,230.1685 585.3106,220.2996 C579.0047,229.7929 571.7113,231.547 565.0084,220.6958 C557.0942,229.4344 550.527,228.792 545.3231,217.9684 C531.7856,231.6816 520.7339,226.2344 515,210.053 C516.363,208.9029 517.4135,208.6433 518.2508,210.6026 C506.911,206.6573 502.6204,197.669 512.5334,188.2802 C500.677,182.4484 501.5165,175.014 509.5192,166.4413 C498.6497,161.7723 499.4506,153.169 507.2086,146.357 C498.3283,136.3364 497.5766,127.6423 511.1499,121.1298 C501.5989,113.0564 502.8344,104.6226 514.1803,99.4733 C503.1385,87.8374 505.6843,73.4252 522,68.753 C524.3761,68.2008 525.3416,69.9397 524.8225,71.9464 " fill="none" style="stroke:#181818;stroke-width:1.0;"/><text fill="#000000" font-family="sans-serif" font-size="14" font-weight="bold" lengthAdjust="spacing" textLength="153.5625" x="587.7188" y="86.7481">Externe Applicaties</text></g><!--cluster Bronnen--><g id="cluster_Bronnen"><path d="M533.5,103.753 L601.0889,103.753 A3.75,3.75 0 0 1 603.5889,106.253 L610.5889,126.0499 L795.5,126.0499 A2.5,2.5 0 0 1 798,128.5499 L798,198.553 A2.5,2.5 0 0 1 795.5,201.053 L533.5,201.053 A2.5,2.5 0 0 1 531,198.553 L531,106.253 A2.5,2.5 0 0 1 533.5,103.753 " fill="none" style="stroke:#000000;stroke-width:1.5;"/><line style="stroke:#000000;stroke-width:1.5;" x1="531" x2="610.5889" y1="126.0499" y2="126.0499"/><text fill="#000000" font-family="sans-serif" font-size="14" font-weight="bold" lengthAdjust="spacing" textLength="66.5889" x="535" y="118.7481">Bronnen</text></g><!--cluster Kubernetes--><g id="cluster_Kubernetes"><path d="M81.1542,290.7697 C92.6153,267.8101 106.6796,262.1815 126.6905,281.578 C140.2245,260.6735 160.7903,255.8976 176.5379,279.0749 C192.1074,261.1277 213.329,258.2121 223.6491,284.6472 C239.2959,260.938 257.685,252.4791 278.3769,279.1688 C293.0892,254.1669 309.1808,255.1509 324.7794,278.3148 C336.8531,256.345 354.9029,256.1898 370.8447,273.8145 C388.5427,252.1754 401.7119,257.0003 414.0253,279.1272 C430.3605,250.3347 454.4779,256.523 469.1317,280.8708 C479.7408,257.6376 495.5952,259.0451 510.7529,276.1811 C525.3273,248.3311 548.3209,254.6627 561.9202,277.1719 C580.9892,252.5687 598.1776,254.3946 613.5247,280.9278 C629.1395,260.2582 651.7358,263.2262 662.3447,286.4904 C673.614,261.0194 694.2489,259.0827 708.5516,283.6915 C727.1854,260.7279 743.8753,262.2358 757,289.053 C760.2258,289.3289 761.5167,291.7234 760.1466,294.6044 C786.2223,305.2442 789.7324,328.5364 765.6185,344.6625 C784.4219,359.9454 783.3042,380.3582 762.4217,393.0175 C786.4279,401.944 790.1436,421.5221 769.1579,437.2936 C789.6659,450.2493 795.1122,467.475 771.976,483.115 C798.8229,500.4921 799.0738,522.6592 769.0978,537.0012 C794.348,548.6943 795.6648,572.5493 771.5967,586.7211 C793.0472,599.1961 791.4798,615.1237 770.4493,626.3694 C790.8504,641.713 790.7458,662.6098 767.4508,675.2744 C793.1307,689.5125 789.7397,713.2126 765.8954,725.9301 C785.4052,751.0491 781.1886,768.1076 750,777.643 C755.6382,776.9324 758.6536,778.2798 757.2908,784.7506 C742.3187,811.0216 720.9308,805.9618 708.1972,782.5391 C693.8143,812.3013 672.3085,813.8075 654.7155,785.4953 C639.1768,808.1094 624.443,805.601 608.8734,785.5285 C596.7839,807.4491 574.8593,807.7447 563.5554,784.7362 C547.8556,808.8887 529.6728,808.5076 511.5085,787.5817 C497.1579,809.039 479.7718,805.9497 466.1868,786.7287 C452.2512,807.7146 437.6948,806.6551 421.5869,789.2525 C405.5579,816.6455 383.016,813.2132 367.5341,788.6829 C353.6631,814.7359 331.8769,810.9722 319.2271,787.492 C304.7105,805.3225 289.0296,808.3272 276.3088,785.592 C258.8188,806.4556 241.0644,806.9371 225.4687,783.422 C209.9445,801.9167 194.3463,804.7052 180.5191,781.5888 C169.3743,807.4785 143.6766,809.1729 128.8485,785.4228 C106.2565,805.0624 80.5015,802.2399 71,770.643 C75.4162,770.3312 76.8276,773.1825 75.6649,776.9785 C54.211,763.6666 48.3289,745.1362 72.15,728.5391 C51.453,716.561 47.0189,696.7827 69.1287,682.0242 C47.8446,668.1077 46.4102,649.8064 66.7641,633.8462 C41.6895,616.4083 41.8665,600.3988 65.8175,582.0647 C39.8475,570.3765 38.8666,550.7165 59.8309,533.27 C37.7375,513.4282 44.2231,497.2353 68.296,485.5897 C47.5284,474.4723 41.0257,454.6544 64.3093,439.7093 C43.6437,418.7643 44.6016,403.0151 71.3016,388.543 C51.3497,374.0391 51.9539,354.2325 74.9154,343.1445 C49.8553,324.4198 47.3117,297.9629 78,282.053 C82.564,283.0296 84.8497,286.8043 81.1542,290.7697 " fill="none" style="stroke:#181818;stroke-width:1.0;"/><text fill="#000000" font-family="sans-serif" font-size="14" font-weight="bold" lengthAdjust="spacing" textLength="91.2188" x="368.3906" y="300.0481">Kubernetes</text></g><!--cluster Layer 5 (interactie)--><g id="cluster_Layer 5 (interactie)"><path d="M89.5,317.053 L243.2695,317.053 A3.75,3.75 0 0 1 245.7695,319.553 L252.7695,339.3499 L518.5,339.3499 A2.5,2.5 0 0 1 521,341.8499 L521,478.853 A2.5,2.5 0 0 1 518.5,481.353 L89.5,481.353 A2.5,2.5 0 0 1 87,478.853 L87,319.553 A2.5,2.5 0 0 1 89.5,317.053 " fill="none" style="stroke:#000000;stroke-width:1.5;"/><line style="stroke:#000000;stroke-width:1.5;" x1="87" x2="252.7695" y1="339.3499" y2="339.3499"/><text fill="#000000" font-family="sans-serif" font-size="14" font-weight="bold" lengthAdjust="spacing" textLength="152.7695" x="91" y="332.0481">Layer 5 (interactie)</text></g><!--cluster Publicatie platform--><g id="cluster_Publicatie platform"><path d="M113.5,360.053 L266.1143,360.053 A3.75,3.75 0 0 1 268.6143,362.553 L275.6143,382.3499 L296.5,382.3499 A2.5,2.5 0 0 1 299,384.8499 L299,454.853 A2.5,2.5 0 0 1 296.5,457.353 L113.5,457.353 A2.5,2.5 0 0 1 111,454.853 L111,362.553 A2.5,2.5 0 0 1 113.5,360.053 " fill="none" style="stroke:#000000;stroke-width:1.5;"/><line style="stroke:#000000;stroke-width:1.5;" x1="111" x2="275.6143" y1="382.3499" y2="382.3499"/><text fill="#000000" font-family="sans-serif" font-size="14" font-weight="bold" lengthAdjust="spacing" textLength="151.6143" x="115" y="375.0481">Publicatie platform</text></g><!--cluster Beheer Interface--><g id="cluster_Beheer Interface"><path d="M325.5,360.053 L459.001,360.053 A3.75,3.75 0 0 1 461.501,362.553 L468.501,382.3499 L494.5,382.3499 A2.5,2.5 0 0 1 497,384.8499 L497,454.853 A2.5,2.5 0 0 1 494.5,457.353 L325.5,457.353 A2.5,2.5 0 0 1 323,454.853 L323,362.553 A2.5,2.5 0 0 1 325.5,360.053 " fill="none" style="stroke:#000000;stroke-width:1.5;"/><line style="stroke:#000000;stroke-width:1.5;" x1="323" x2="468.501" y1="382.3499" y2="382.3499"/><text fill="#000000" font-family="sans-serif" font-size="14" font-weight="bold" lengthAdjust="spacing" textLength="132.501" x="327" y="375.0481">Beheer Interface</text></g><!--cluster layer4--><g id="cluster_layer4"><path d="M547.5,360.053 L671.6631,360.053 A3.75,3.75 0 0 1 674.1631,362.553 L681.1631,382.3499 L738.5,382.3499 A2.5,2.5 0 0 1 741,384.8499 L741,454.853 A2.5,2.5 0 0 1 738.5,457.353 L547.5,457.353 A2.5,2.5 0 0 1 545,454.853 L545,362.553 A2.5,2.5 0 0 1 547.5,360.053 " fill="none" style="stroke:#000000;stroke-width:1.5;"/><line style="stroke:#000000;stroke-width:1.5;" x1="545" x2="681.1631" y1="382.3499" y2="382.3499"/><text fill="#000000" font-family="sans-serif" font-size="14" font-weight="bold" lengthAdjust="spacing" textLength="123.1631" x="549" y="375.0481">Layer 4 (logica)</text></g><!--cluster layer2--><g id="cluster_layer2"><path d="M291.5,530.353 L394.9844,530.353 A3.75,3.75 0 0 1 397.4844,532.853 L404.4844,552.6499 L738.5,552.6499 A2.5,2.5 0 0 1 741,555.1499 L741,759.143 A2.5,2.5 0 0 1 738.5,761.643 L291.5,761.643 A2.5,2.5 0 0 1 289,759.143 L289,532.853 A2.5,2.5 0 0 1 291.5,530.353 " fill="none" style="stroke:#000000;stroke-width:1.5;"/><line style="stroke:#000000;stroke-width:1.5;" x1="289" x2="404.4844" y1="552.6499" y2="552.6499"/><text fill="#000000" font-family="sans-serif" font-size="14" font-weight="bold" lengthAdjust="spacing" textLength="102.4844" x="293" y="545.3481">Layer 2 (API)</text></g><!--cluster Next Cloud framework--><g id="cluster_Next Cloud framework"><path d="M315.5,573.353 L493.1543,573.353 A3.75,3.75 0 0 1 495.6543,575.853 L502.6543,595.6499 L714.5,595.6499 A2.5,2.5 0 0 1 717,598.1499 L717,735.143 A2.5,2.5 0 0 1 714.5,737.643 L315.5,737.643 A2.5,2.5 0 0 1 313,735.143 L313,575.853 A2.5,2.5 0 0 1 315.5,573.353 " fill="none" style="stroke:#000000;stroke-width:1.5;"/><line style="stroke:#000000;stroke-width:1.5;" x1="313" x2="502.6543" y1="595.6499" y2="595.6499"/><text fill="#000000" font-family="sans-serif" font-size="14" font-weight="bold" lengthAdjust="spacing" textLength="176.6543" x="317" y="588.3481">Next Cloud framework</text></g><!--cluster Zoeken API--><g id="cluster_Zoeken API"><path d="M543.5,616.353 L633.7158,616.353 A3.75,3.75 0 0 1 636.2158,618.853 L643.2158,638.6499 L690.5,638.6499 A2.5,2.5 0 0 1 693,641.1499 L693,711.143 A2.5,2.5 0 0 1 690.5,713.643 L543.5,713.643 A2.5,2.5 0 0 1 541,711.143 L541,618.853 A2.5,2.5 0 0 1 543.5,616.353 " fill="none" style="stroke:#000000;stroke-width:1.5;"/><line style="stroke:#000000;stroke-width:1.5;" x1="541" x2="643.2158" y1="638.6499" y2="638.6499"/><text fill="#000000" font-family="sans-serif" font-size="14" font-weight="bold" lengthAdjust="spacing" textLength="89.2158" x="545" y="631.3481">Zoeken API</text></g><!--cluster Beheer  API--><g id="cluster_Beheer  API"><path d="M339.5,616.353 L432.5801,616.353 A3.75,3.75 0 0 1 435.0801,618.853 L442.0801,638.6499 L514.5,638.6499 A2.5,2.5 0 0 1 517,641.1499 L517,711.143 A2.5,2.5 0 0 1 514.5,713.643 L339.5,713.643 A2.5,2.5 0 0 1 337,711.143 L337,618.853 A2.5,2.5 0 0 1 339.5,616.353 " fill="none" style="stroke:#000000;stroke-width:1.5;"/><line style="stroke:#000000;stroke-width:1.5;" x1="337" x2="442.0801" y1="638.6499" y2="638.6499"/><text fill="#000000" font-family="sans-serif" font-size="14" font-weight="bold" lengthAdjust="spacing" textLength="92.0801" x="341" y="631.3481">Beheer  API</text></g><!--cluster Layer 1 (data)--><g id="cluster_Layer 1 (data)"><path d="M8.5,834.643 L121.2881,834.643 A3.75,3.75 0 0 1 123.7881,837.143 L130.7881,856.9399 L509.5,856.9399 A2.5,2.5 0 0 1 512,859.4399 L512,996.443 A2.5,2.5 0 0 1 509.5,998.943 L8.5,998.943 A2.5,2.5 0 0 1 6,996.443 L6,837.143 A2.5,2.5 0 0 1 8.5,834.643 " fill="none" style="stroke:#000000;stroke-width:1.5;"/><line style="stroke:#000000;stroke-width:1.5;" x1="6" x2="130.7881" y1="856.9399" y2="856.9399"/><text fill="#000000" font-family="sans-serif" font-size="14" font-weight="bold" lengthAdjust="spacing" textLength="111.7881" x="10" y="849.6381">Layer 1 (data)</text></g><!--cluster Search--><g id="cluster_Search"><path d="M32.5,877.643 L87.6953,877.643 A3.75,3.75 0 0 1 90.1953,880.143 L97.1953,899.9399 L197.5,899.9399 A2.5,2.5 0 0 1 200,902.4399 L200,972.443 A2.5,2.5 0 0 1 197.5,974.943 L32.5,974.943 A2.5,2.5 0 0 1 30,972.443 L30,880.143 A2.5,2.5 0 0 1 32.5,877.643 " fill="none" style="stroke:#000000;stroke-width:1.5;"/><line style="stroke:#000000;stroke-width:1.5;" x1="30" x2="97.1953" y1="899.9399" y2="899.9399"/><text fill="#000000" font-family="sans-serif" font-size="14" font-weight="bold" lengthAdjust="spacing" textLength="54.1953" x="34" y="892.6381">Search</text></g><!--cluster Object Store--><g id="cluster_Object Store"><path d="M250.5,877.643 L350.375,877.643 A3.75,3.75 0 0 1 352.875,880.143 L359.875,899.9399 L359.5,899.9399 A2.5,2.5 0 0 1 362,902.4399 L362,972.443 A2.5,2.5 0 0 1 359.5,974.943 L250.5,974.943 A2.5,2.5 0 0 1 248,972.443 L248,880.143 A2.5,2.5 0 0 1 250.5,877.643 " fill="none" style="stroke:#000000;stroke-width:1.5;"/><line style="stroke:#000000;stroke-width:1.5;" x1="248" x2="359.875" y1="899.9399" y2="899.9399"/><text fill="#000000" font-family="sans-serif" font-size="14" font-weight="bold" lengthAdjust="spacing" textLength="98.875" x="252" y="892.6381">Object Store</text></g><!--cluster DMS--><g id="cluster_DMS"><path d="M388.5,877.643 L425.1357,877.643 A3.75,3.75 0 0 1 427.6357,880.143 L434.6357,899.9399 L485.5,899.9399 A2.5,2.5 0 0 1 488,902.4399 L488,972.443 A2.5,2.5 0 0 1 485.5,974.943 L388.5,974.943 A2.5,2.5 0 0 1 386,972.443 L386,880.143 A2.5,2.5 0 0 1 388.5,877.643 " fill="none" style="stroke:#000000;stroke-width:1.5;"/><line style="stroke:#000000;stroke-width:1.5;" x1="386" x2="434.6357" y1="899.9399" y2="899.9399"/><text fill="#000000" font-family="sans-serif" font-size="14" font-weight="bold" lengthAdjust="spacing" textLength="35.6357" x="390" y="892.6381">DMS</text></g><!--entity user--><g id="elem_user"><ellipse cx="148.0046" cy="132.253" fill="#F1F1F1" rx="8" ry="8" style="stroke:#181818;stroke-width:0.5;"/><path d="M148.0046,140.253 L148.0046,167.253 M135.0046,148.253 L161.0046,148.253 M148.0046,167.253 L135.0046,182.253 M148.0046,167.253 L161.0046,182.253 " fill="none" style="stroke:#181818;stroke-width:0.5;"/><text fill="#000000" font-family="sans-serif" font-size="14" lengthAdjust="spacing" textLength="47.4893" x="124.26" y="196.7481">Burger</text></g><!--entity employee--><g id="elem_employee"><ellipse cx="250.0041" cy="132.253" fill="#F1F1F1" rx="8" ry="8" style="stroke:#181818;stroke-width:0.5;"/><path d="M250.0041,140.253 L250.0041,167.253 M237.0041,148.253 L263.0041,148.253 M250.0041,167.253 L237.0041,182.253 M250.0041,167.253 L263.0041,182.253 " fill="none" style="stroke:#181818;stroke-width:0.5;"/><text fill="#000000" font-family="sans-serif" font-size="14" lengthAdjust="spacing" textLength="86.4883" x="206.76" y="196.7481">Medewerker</text></g><!--entity admin--><g id="elem_admin"><ellipse cx="365.0046" cy="132.253" fill="#F1F1F1" rx="8" ry="8" style="stroke:#181818;stroke-width:0.5;"/><path d="M365.0046,140.253 L365.0046,167.253 M352.0046,148.253 L378.0046,148.253 M365.0046,167.253 L352.0046,182.253 M365.0046,167.253 L378.0046,182.253 " fill="none" style="stroke:#181818;stroke-width:0.5;"/><text fill="#000000" font-family="sans-serif" font-size="14" lengthAdjust="spacing" textLength="73.3291" x="328.34" y="196.7481">Beheerder</text></g><!--entity externalCatalouge--><g id="elem_externalCatalouge"><rect fill="#F1F1F1" height="46.2969" rx="2.5" ry="2.5" style="stroke:#181818;stroke-width:0.5;" width="168.8574" x="828.57" y="395.053"/><rect fill="#F1F1F1" height="10" style="stroke:#181818;stroke-width:0.5;" width="15" x="977.4274" y="400.053"/><rect fill="#F1F1F1" height="2" style="stroke:#181818;stroke-width:0.5;" width="4" x="975.4274" y="402.053"/><rect fill="#F1F1F1" height="2" style="stroke:#181818;stroke-width:0.5;" width="4" x="975.4274" y="406.053"/><text fill="#000000" font-family="sans-serif" font-size="14" lengthAdjust="spacing" textLength="128.8574" x="843.57" y="428.0481">Externe Catalogus</text></g><!--entity zaaksysteem--><g id="elem_zaaksysteem"><rect fill="#F1F1F1" height="46.2969" rx="2.5" ry="2.5" style="stroke:#181818;stroke-width:0.5;" width="134.083" x="546.96" y="138.753"/><rect fill="#F1F1F1" height="10" style="stroke:#181818;stroke-width:0.5;" width="15" x="661.043" y="143.753"/><rect fill="#F1F1F1" height="2" style="stroke:#181818;stroke-width:0.5;" width="4" x="659.043" y="145.753"/><rect fill="#F1F1F1" height="2" style="stroke:#181818;stroke-width:0.5;" width="4" x="659.043" y="149.753"/><text fill="#000000" font-family="sans-serif" font-size="14" lengthAdjust="spacing" textLength="94.083" x="561.96" y="171.7481">Zaaksysteem</text></g><!--entity overigebronnen--><g id="elem_overigebronnen"><rect fill="#F1F1F1" height="46.2969" rx="2.5" ry="2.5" style="stroke:#181818;stroke-width:0.5;" width="66.4824" x="715.76" y="138.753"/><rect fill="#F1F1F1" height="10" style="stroke:#181818;stroke-width:0.5;" width="15" x="762.2424" y="143.753"/><rect fill="#F1F1F1" height="2" style="stroke:#181818;stroke-width:0.5;" width="4" x="760.2424" y="145.753"/><rect fill="#F1F1F1" height="2" style="stroke:#181818;stroke-width:0.5;" width="4" x="760.2424" y="149.753"/><text fill="#000000" font-family="sans-serif" font-size="14" lengthAdjust="spacing" textLength="26.4824" x="730.76" y="171.7481">Etc.</text></g><!--entity userUi--><g id="elem_userUi"><rect fill="#F1F1F1" height="46.2969" rx="2.5" ry="2.5" style="stroke:#181818;stroke-width:0.5;" width="155.6162" x="127.19" y="395.053"/><rect fill="#F1F1F1" height="10" style="stroke:#181818;stroke-width:0.5;" width="15" x="262.8062" y="400.053"/><rect fill="#F1F1F1" height="2" style="stroke:#181818;stroke-width:0.5;" width="4" x="260.8062" y="402.053"/><rect fill="#F1F1F1" height="2" style="stroke:#181818;stroke-width:0.5;" width="4" x="260.8062" y="406.053"/><text fill="#000000" font-family="sans-serif" font-size="14" lengthAdjust="spacing" textLength="115.6162" x="142.19" y="428.0481">React NL Design</text></g><!--entity adminUi--><g id="elem_adminUi"><rect fill="#F1F1F1" height="46.2969" rx="2.5" ry="2.5" style="stroke:#181818;stroke-width:0.5;" width="142.5732" x="338.71" y="395.053"/><rect fill="#F1F1F1" height="10" style="stroke:#181818;stroke-width:0.5;" width="15" x="461.2832" y="400.053"/><rect fill="#F1F1F1" height="2" style="stroke:#181818;stroke-width:0.5;" width="4" x="459.2832" y="402.053"/><rect fill="#F1F1F1" height="2" style="stroke:#181818;stroke-width:0.5;" width="4" x="459.2832" y="406.053"/><text fill="#000000" font-family="sans-serif" font-size="14" lengthAdjust="spacing" textLength="102.5732" x="353.71" y="428.0481">Vue NL Design</text></g><!--entity service--><g id="elem_service"><rect fill="#F1F1F1" height="46.2969" rx="2.5" ry="2.5" style="stroke:#181818;stroke-width:0.5;" width="164.0791" x="560.96" y="395.053"/><rect fill="#F1F1F1" height="10" style="stroke:#181818;stroke-width:0.5;" width="15" x="705.0391" y="400.053"/><rect fill="#F1F1F1" height="2" style="stroke:#181818;stroke-width:0.5;" width="4" x="703.0391" y="402.053"/><rect fill="#F1F1F1" height="2" style="stroke:#181818;stroke-width:0.5;" width="4" x="703.0391" y="406.053"/><text fill="#000000" font-family="sans-serif" font-size="14" lengthAdjust="spacing" textLength="124.0791" x="575.96" y="428.0481">Synchronysations</text></g><!--entity searchAPI--><g id="elem_searchAPI"><rect fill="#F1F1F1" height="46.2969" rx="2.5" ry="2.5" style="stroke:#181818;stroke-width:0.5;" width="120.6299" x="556.69" y="651.353"/><rect fill="#F1F1F1" height="10" style="stroke:#181818;stroke-width:0.5;" width="15" x="657.3199" y="656.353"/><rect fill="#F1F1F1" height="2" style="stroke:#181818;stroke-width:0.5;" width="4" x="655.3199" y="658.353"/><rect fill="#F1F1F1" height="2" style="stroke:#181818;stroke-width:0.5;" width="4" x="655.3199" y="662.353"/><text fill="#000000" font-family="sans-serif" font-size="14" lengthAdjust="spacing" textLength="80.6299" x="571.69" y="684.3481">Open Index</text></g><!--entity objectsAPI--><g id="elem_objectsAPI"><rect fill="#F1F1F1" height="46.2969" rx="2.5" ry="2.5" style="stroke:#181818;stroke-width:0.5;" width="147.4063" x="353.3" y="651.353"/><rect fill="#F1F1F1" height="10" style="stroke:#181818;stroke-width:0.5;" width="15" x="480.7063" y="656.353"/><rect fill="#F1F1F1" height="2" style="stroke:#181818;stroke-width:0.5;" width="4" x="478.7063" y="658.353"/><rect fill="#F1F1F1" height="2" style="stroke:#181818;stroke-width:0.5;" width="4" x="478.7063" y="662.353"/><text fill="#000000" font-family="sans-serif" font-size="14" lengthAdjust="spacing" textLength="107.4063" x="368.3" y="684.3481">Open Registers</text></g><!--entity searchDb--><g id="elem_searchDb"><rect fill="#F1F1F1" height="46.2969" rx="2.5" ry="2.5" style="stroke:#181818;stroke-width:0.5;" width="138.54" x="45.73" y="912.643"/><rect fill="#F1F1F1" height="10" style="stroke:#181818;stroke-width:0.5;" width="15" x="164.27" y="917.643"/><rect fill="#F1F1F1" height="2" style="stroke:#181818;stroke-width:0.5;" width="4" x="162.27" y="919.643"/><rect fill="#F1F1F1" height="2" style="stroke:#181818;stroke-width:0.5;" width="4" x="162.27" y="923.643"/><text fill="#000000" font-family="sans-serif" font-size="14" lengthAdjust="spacing" textLength="98.54" x="60.73" y="945.6381">Elastic Search</text></g><!--entity objectsDb--><g id="elem_objectsDb"><rect fill="#F1F1F1" height="46.2969" rx="2.5" ry="2.5" style="stroke:#181818;stroke-width:0.5;" width="70.5225" x="275.74" y="912.643"/><rect fill="#F1F1F1" height="10" style="stroke:#181818;stroke-width:0.5;" width="15" x="326.2625" y="917.643"/><rect fill="#F1F1F1" height="2" style="stroke:#181818;stroke-width:0.5;" width="4" x="324.2625" y="919.643"/><rect fill="#F1F1F1" height="2" style="stroke:#181818;stroke-width:0.5;" width="4" x="324.2625" y="923.643"/><text fill="#000000" font-family="sans-serif" font-size="14" lengthAdjust="spacing" textLength="30.5225" x="290.74" y="945.6381">ORC</text></g><!--entity drc--><g id="elem_drc"><rect fill="#F1F1F1" height="46.2969" rx="2.5" ry="2.5" style="stroke:#181818;stroke-width:0.5;" width="70.2832" x="401.86" y="912.643"/><rect fill="#F1F1F1" height="10" style="stroke:#181818;stroke-width:0.5;" width="15" x="452.1432" y="917.643"/><rect fill="#F1F1F1" height="2" style="stroke:#181818;stroke-width:0.5;" width="4" x="450.1432" y="919.643"/><rect fill="#F1F1F1" height="2" style="stroke:#181818;stroke-width:0.5;" width="4" x="450.1432" y="923.643"/><text fill="#000000" font-family="sans-serif" font-size="14" lengthAdjust="spacing" textLength="30.2832" x="416.86" y="945.6381">DRC</text></g><!--link user to userUi--><g id="link_user_userUi"><path d="M120.5855,197.1678 C108.3055,215.6178 100.53,235.203 107,258.053 C122.25,311.903 157.6459,360.8031 181.5859,390.0031 " fill="none" id="user-userUi" style="stroke:#181818;stroke-width:1.0;stroke-dasharray:7.0,7.0;"/><polygon fill="#181818" points="123.91,192.173,115.5935,197.4489,121.1396,196.3354,122.2532,201.8815,123.91,192.173" style="stroke:#181818;stroke-width:1.0;"/><polygon fill="#181818" points="185.39,394.643,182.7771,385.1471,182.2199,390.7764,176.5906,390.2192,185.39,394.643" style="stroke:#181818;stroke-width:1.0;"/><text fill="#000000" font-family="sans-serif" font-size="13" lengthAdjust="spacing" textLength="118.936" x="108" y="254.1199">Browser ANONIEM</text></g><!--link employee to userUi--><g id="link_employee_userUi"><path d="M242.3141,206.3312 C232.8241,259.9412 217.7863,344.975 210.0363,388.735 " fill="none" id="employee-userUi" style="stroke:#181818;stroke-width:1.0;stroke-dasharray:7.0,7.0;"/><polygon fill="#181818" points="243.36,200.423,237.8525,208.588,242.4885,205.3465,245.73,209.9825,243.36,200.423" style="stroke:#181818;stroke-width:1.0;"/><polygon fill="#181818" points="208.99,394.643,214.4982,386.4785,209.8619,389.7196,206.6208,385.0834,208.99,394.643" style="stroke:#181818;stroke-width:1.0;"/><text fill="#000000" font-family="sans-serif" font-size="13" lengthAdjust="spacing" textLength="118.936" x="237" y="254.1199">Browser ANONIEM</text></g><!--link admin to adminUi--><g id="link_admin_adminUi"><path d="M372.6859,206.3312 C382.1759,259.9412 397.2137,344.975 404.9637,388.735 " fill="none" id="admin-adminUi" style="stroke:#181818;stroke-width:1.0;stroke-dasharray:7.0,7.0;"/><polygon fill="#181818" points="371.64,200.423,369.27,209.9825,372.5115,205.3465,377.1475,208.588,371.64,200.423" style="stroke:#181818;stroke-width:1.0;"/><polygon fill="#181818" points="406.01,394.643,408.3792,385.0834,405.1381,389.7196,400.5018,386.4785,406.01,394.643" style="stroke:#181818;stroke-width:1.0;"/><text fill="#000000" font-family="sans-serif" font-size="13" lengthAdjust="spacing" textLength="122.6748" x="382" y="254.1199">Browser JWT token</text></g><!--link userUi to searchAPI--><g id="link_userUi_searchAPI"><path d="M233.66,441.683 C256.46,458.163 289.92,479.333 323,489.353 C406.71,514.693 454.71,460.953 517,522.353 C556.89,561.663 586.8979,614.0514 603.1679,645.5714 " fill="none" id="userUi-to-searchAPI" style="stroke:#181818;stroke-width:1.0;stroke-dasharray:7.0,7.0;"/><polygon fill="#181818" points="605.92,650.903,605.3463,641.0709,603.6266,646.46,598.2375,644.7403,605.92,650.903" style="stroke:#181818;stroke-width:1.0;"/><text fill="#000000" font-family="sans-serif" font-size="13" lengthAdjust="spacing" textLength="65.0254" x="506" y="510.4199">Opzoeken</text></g><!--link adminUi to objectsAPI--><g id="link_adminUi_objectsAPI"><path d="M411.51,441.763 C414.73,490.023 421.8701,596.7864 425.0901,644.9964 " fill="none" id="adminUi-to-objectsAPI" style="stroke:#181818;stroke-width:1.0;stroke-dasharray:7.0,7.0;"/><polygon fill="#181818" points="425.49,650.983,428.8813,641.7365,425.1568,645.9941,420.8991,642.2696,425.49,650.983" style="stroke:#181818;stroke-width:1.0;"/><text fill="#000000" font-family="sans-serif" font-size="13" lengthAdjust="spacing" textLength="53.041" x="416" y="510.4199">Opslaan</text></g><!--link objectsAPI to objectsDb--><g id="link_objectsAPI_objectsDb"><path d="M406.47,697.843 C385.69,721.733 354.22,761.613 337,801.643 C321.18,838.423 315.4341,879.0968 313.0041,906.2868 " fill="none" id="objectsAPI-to-objectsDb" style="stroke:#181818;stroke-width:1.0;stroke-dasharray:7.0,7.0;"/><polygon fill="#181818" points="312.47,912.263,317.2553,903.6548,312.9151,907.2829,309.287,902.9427,312.47,912.263" style="stroke:#181818;stroke-width:1.0;"/><text fill="#000000" font-family="sans-serif" font-size="13" lengthAdjust="spacing" textLength="85.9346" x="338" y="814.7099">Data opslaan</text></g><!--link objectsAPI to drc--><g id="link_objectsAPI_drc"><path d="M427.87,698.053 C429.77,747.213 434.0185,857.5375 435.9085,906.4775 " fill="none" id="objectsAPI-to-drc" style="stroke:#181818;stroke-width:1.0;stroke-dasharray:7.0,7.0;"/><polygon fill="#181818" points="436.14,912.473,439.7897,903.3254,435.9471,907.4767,431.7957,903.6341,436.14,912.473" style="stroke:#181818;stroke-width:1.0;"/><text fill="#000000" font-family="sans-serif" font-size="13" lengthAdjust="spacing" textLength="138.4805" x="433" y="814.7099">Documenten opslaan</text></g><!--link searchAPI to searchDb--><g id="link_searchAPI_searchDb"><path d="M618.37,698.023 C618.97,730.563 614.59,789.953 578,818.643 C564.09,829.553 276.7,820.873 260,826.643 C209.55,844.093 166.3962,881.8139 140.2462,908.0439 " fill="none" id="searchAPI-to-searchDb" style="stroke:#181818;stroke-width:1.0;stroke-dasharray:7.0,7.0;"/><polygon fill="#181818" points="136.01,912.293,145.197,908.7435,139.5401,908.7521,139.5315,903.0952,136.01,912.293" style="stroke:#181818;stroke-width:1.0;"/><text fill="#000000" font-family="sans-serif" font-size="13" lengthAdjust="spacing" textLength="65.0254" x="592" y="814.7099">Opzoeken</text></g><!--reverse link searchDb to objectsDb--><g id="link_searchDb_objectsDb"><path d="M190.65,935.793 C221.35,935.793 250.11,935.793 275.39,935.793 " fill="none" id="searchDb-backto-objectsDb" style="stroke:#181818;stroke-width:1.0;stroke-dasharray:7.0,7.0;"/><polygon fill="#181818" points="184.65,935.793,193.65,939.793,189.65,935.793,193.65,931.793,184.65,935.793" style="stroke:#181818;stroke-width:1.0;"/><text fill="#000000" font-family="sans-serif" font-size="13" lengthAdjust="spacing" textLength="55.3198" x="202.5" y="928.8599">Updaten</text></g><!--link service to objectsAPI--><g id="link_service_objectsAPI"><path d="M637.56,441.573 C630.93,463.763 617.46,496.893 593,514.353 C573.97,527.933 561.07,510.353 541,522.353 C489.51,553.123 456.1088,611.4298 439.6688,645.4798 " fill="none" id="service-to-objectsAPI" style="stroke:#181818;stroke-width:1.0;stroke-dasharray:7.0,7.0;"/><polygon fill="#181818" points="437.06,650.883,444.5753,644.5174,439.234,646.3804,437.371,641.0391,437.06,650.883" style="stroke:#181818;stroke-width:1.0;"/><text fill="#000000" font-family="sans-serif" font-size="13" lengthAdjust="spacing" textLength="55.3198" x="610" y="510.4199">Updaten</text></g><!--link externalCatalouge to searchAPI--><g id="link_externalCatalouge_searchAPI"><path d="M827.7844,443.8721 C793.6544,456.3421 760.56,472.403 731,497.353 C679.22,541.053 644.9196,608.7425 628.7196,645.5025 " fill="none" id="externalCatalouge-searchAPI" style="stroke:#181818;stroke-width:1.0;stroke-dasharray:7.0,7.0;"/><polygon fill="#181818" points="833.42,441.813,823.5939,441.1446,828.7236,443.5289,826.3393,448.6587,833.42,441.813" style="stroke:#181818;stroke-width:1.0;"/><polygon fill="#181818" points="626.3,650.993,633.5898,644.3704,628.3164,646.4176,626.2691,641.1442,626.3,650.993" style="stroke:#181818;stroke-width:1.0;"/><text fill="#000000" font-family="sans-serif" font-size="13" lengthAdjust="spacing" textLength="136.9189" x="732" y="510.4199">Directory uitwisselen</text></g><!--link externalCatalouge to searchAPI--><g id="link_externalCatalouge_searchAPI"><path d="M907.76,441.683 C902.03,462.403 891.14,493.083 873,514.353 C818.06,578.753 735.8274,622.8538 678.6874,648.4038 " fill="none" id="externalCatalouge-to-searchAPI" style="stroke:#181818;stroke-width:1.0;stroke-dasharray:7.0,7.0;"/><polygon fill="#181818" points="673.21,650.853,683.0588,650.8308,677.7745,648.812,679.7932,643.5277,673.21,650.853" style="stroke:#181818;stroke-width:1.0;"/><text fill="#000000" font-family="sans-serif" font-size="13" lengthAdjust="spacing" textLength="65.0254" x="885" y="510.4199">Opzoeken</text></g><!--link zaaksysteem to service--><g id="link_zaaksysteem_service"><path d="M609.9085,191.3592 C607.8085,206.9392 606.08,222.233 605,241.053 C601.77,297.273 619.7969,355.8925 632.0169,389.0825 " fill="none" id="zaaksysteem-service" style="stroke:#181818;stroke-width:1.0;stroke-dasharray:7.0,7.0;"/><polygon fill="#181818" points="610.71,185.413,605.5436,193.798,610.0421,190.3682,613.4719,194.8667,610.71,185.413" style="stroke:#181818;stroke-width:1.0;"/><polygon fill="#181818" points="634.09,394.713,634.7341,384.8852,632.3625,390.0209,627.2268,387.6493,634.09,394.713" style="stroke:#181818;stroke-width:1.0;"/><text fill="#000000" font-family="sans-serif" font-size="13" lengthAdjust="spacing" textLength="105.1553" x="606" y="254.1199">Synchronyseren</text></g><!--link overigebronnen to service--><g id="link_overigebronnen_service"><path d="M740.0132,191.1385 C733.6932,210.5585 725.84,233.553 716,258.053 C696.12,307.553 671.8274,358.5937 656.8574,389.1837 " fill="none" id="overigebronnen-service" style="stroke:#181818;stroke-width:1.0;stroke-dasharray:7.0,7.0;"/><polygon fill="#181818" points="741.87,185.433,735.2812,192.7534,740.3227,190.1876,742.8885,195.2291,741.87,185.433" style="stroke:#181818;stroke-width:1.0;"/><polygon fill="#181818" points="654.22,394.573,661.7689,388.2474,656.4178,390.082,654.5832,384.7309,654.22,394.573" style="stroke:#181818;stroke-width:1.0;"/><text fill="#000000" font-family="sans-serif" font-size="13" lengthAdjust="spacing" textLength="105.1553" x="722" y="254.1199">Synchronyseren</text></g><text fill="#888888" font-family="sans-serif" font-size="10" lengthAdjust="spacing" textLength="144.0625" x="445.1918" y="1014.2252">Open Catalogi | Components</text><!--SRC=[XLJ1Rjim3BtxAmYVqak05Tqb60QqSGTaQvAYMJUWGmwop3XQRCcGvAPfrtyl9TcnawOOa4D0Fl8zyj6omXOuWdc54iRCiaBb8befPL4VHU4VZ5LPAOdIccYDB7EGNYZYXQepY2UIYYNQ-2LYt2eDyLMjSzGnC0ErGTs6fvZX5lMcIM5P5Mg7kA_2DQBEcYpBIY6Zw7LFyusgDRC2Lq1ahayCBr75-8Rb274hsmNXp_MJrzGEKvkbP_HHLeHedIErxmZQcikgAWHtJ2Rk4Lnf9MdmqF-1iOtP6OjOBi6rVku2ZjxoOOYhHzGYnpGK1xwMy4UT-iLvdexeXkrGmsSO2BTOMex0iuDHR-kq4GXLmUnAwJAekaD2m-m64ZGYbq61S-1UEDvk5BzfyCQj6CTG_Ql6urflWYzsieyKNi30BPopCszOuO8NljDY9_cQ9juP4gca2Sr8nwFWUAhLEGmkRoUzFkVKfuUQaNCmzbjRQLRYLf7xlOqyADpGwLAFC8e_v8dCy6aPc9dcQygUsi9HrHtcWcpKuM9K-XUvDQ7qDMf-H-e_mI2ZY_8cTRc59stEiM362WuXrgx3_K_IWuPppmSB-Y0QL-Ptu-QIWfIZWcIw2BYanMMQ1wtEUFWopDHM3hysPp02EkEjIrpEvhF9zJHglyB_8_qnTB3cDZhSzzy_mIho8GeTO4Ye_UhTw_BiROgQIf_l5km0fc1CHbsi3qbI6452UmPr6aU3EuJYTKdl4rdPulOQUegIj2UeOnWMkB87eFkAl4NNn5_lEz5j_jtRGfiw63yH6jr3juDQsAqm1ekJPHzjhVV2T2OqgaRGVNAetKG7pmvq1HzLl040]--></g></svg>