<?xml version="1.0" encoding="us-ascii" standalone="no"?><svg xmlns="http://www.w3.org/2000/svg" xmlns:xlink="http://www.w3.org/1999/xlink" contentStyleType="text/css" height="1193px" preserveAspectRatio="none" style="width:1082px;height:1193px;background:#FFFFFF;" version="1.1" viewBox="0 0 1082 1193" width="1082px" zoomAndPan="magnify"><defs/><g><text fill="#888888" font-family="sans-serif" font-size="10" lengthAdjust="spacing" textLength="70" x="998.4266" y="9.2822">Components</text><text fill="#000000" font-family="sans-serif" font-size="14" font-weight="bold" lengthAdjust="spacing" textLength="278" x="395.2133" y="35.6357">Open Catalogi | Externe Catalogus</text><!--cluster Kubernetes--><g id="cluster_Kubernetes"><path d="M73.158,343.5762 C91.4053,317.4711 120.8094,315.2204 136.3257,346.5783 C158.138,314.2192 179.9758,309.1399 208.1456,339.2717 C227.595,313.2873 249.7665,309.0878 268.4971,340.0337 C293.7221,307.5339 314.7195,306.2869 337.1701,342.7946 C358.9282,314.3145 383.7165,309.8908 405.7532,342.4817 C428.9854,310.9139 459.1159,304.4195 480.3493,344.561 C498.9089,315.0753 524.9584,307.1736 546.9414,340.9578 C564.7778,315.1434 590.6583,306.4762 609.0499,340.3804 C627.7781,307.3818 665.9319,299.576 685.8573,339.1127 C706.5382,309.1355 733.5827,309.4735 751.178,342.3208 C770.9511,313.3518 793.34,308.9604 815.1727,340.1291 C840.6637,310.827 861.5948,311.5924 882.9184,344.656 C897.8789,306.0835 932.8561,301.6969 954.9651,337.7551 C977.8568,302.458 1009.0131,308.4631 1025.1156,344.4375 C1031.5683,342.4533 1036.4293,345.1086 1034.9863,352.6335 C1067.7955,375.6534 1073.0186,407.8779 1035.2228,431.1106 C1064.7513,453.8037 1075.4266,475.6318 1037.9989,500.9851 C1070.6522,525.0994 1071.5221,554.9532 1032.3809,573.5058 C1067.4832,595.4651 1071.2681,631.1547 1031.8191,652.5843 C1059.4146,673.239 1066.4825,696.6582 1032.3727,717.8365 C1069.8533,743.2315 1071.2199,768.69 1033.0385,794.7401 C1074.8092,816.2121 1071.863,853.1703 1035.532,877.0095 C1062.9863,908.904 1056.5006,931.8246 1018.1156,947.4375 C1020.7824,943.4634 1025.2994,942.6662 1027.502,947.9101 C1013.1257,979.6989 985.2382,988.4461 960.0494,960.0228 C934.8908,996.2473 901.9052,995.3327 884.2227,952.8228 C870.3697,984.9362 844.8033,985.5015 822.2359,962.6507 C794.6382,1001.4495 771.498,994.7923 746.2386,960.2285 C725.5853,988.5031 702.8324,982.5072 686.0017,956.0235 C665.4324,990.1598 642.8953,997.3017 614.3015,964.6363 C590.8923,999.5714 570.8479,997.6773 549.1265,963.0549 C523.0703,996.3304 500.7345,997.9854 476.8674,960.8095 C457.6471,994.368 426.685,997.0061 407.1887,961.0862 C386.4446,994.3534 358.6491,996.1931 339.7498,959.3127 C311.3086,992.3698 287.654,986.9036 266.4624,951.5468 C252.7729,987.8022 226.2995,991.2267 201.9563,962.0497 C184.0798,986.9821 156.6003,992.1126 141.6394,959.0191 C106.95,1001.9399 68.9787,990.9032 54.1156,940.4375 C61.8924,938.8433 64.9965,942.2224 64.9709,949.7364 C25.1671,928.7275 20.8344,892.4995 62.1866,868.7021 C28.7202,850.963 25.9568,819.3776 53.9434,794.7852 C17.9425,772.2728 16.215,749.4417 48.1671,721.5682 C12.3548,698.0522 10.0789,662.0625 53.4296,643.911 C17.3834,621.29 15.4279,587.0623 57.4335,568.5904 C26.9065,553.4857 26.9701,521.459 54.4983,503.7272 C12.7936,479.4763 14.7269,453.3402 51.9264,426.4628 C6,394.5999 9.5592,359.2382 61.1156,337.4375 C67.6291,333.1473 72.7187,335.9508 73.158,343.5762 " fill="none" style="stroke:#181818;stroke-width:1.0;"/><text fill="#000000" font-family="sans-serif" font-size="14" font-weight="bold" lengthAdjust="spacing" textLength="91" x="494.1156" y="355.4326">Kubernetes</text></g><!--cluster Layer 4 (Logic)--><g id="cluster_Layer 4 (Logic)"><path d="M72.6156,475.4375 L193.6156,475.4375 A3.75,3.75 0 0 1 196.1156,477.9375 L203.1156,497.7344 L809.6156,497.7344 A2.5,2.5 0 0 1 812.1156,500.2344 L812.1156,928.9375 A2.5,2.5 0 0 1 809.6156,931.4375 L72.6156,931.4375 A2.5,2.5 0 0 1 70.1156,928.9375 L70.1156,477.9375 A2.5,2.5 0 0 1 72.6156,475.4375 " fill="none" style="stroke:#000000;stroke-width:1.5;"/><line style="stroke:#000000;stroke-width:1.5;" x1="70.1156" x2="203.1156" y1="497.7344" y2="497.7344"/><text fill="#000000" font-family="sans-serif" font-size="14" font-weight="bold" lengthAdjust="spacing" textLength="120" x="74.1156" y="490.4326">Layer 4 (Logic)</text></g><!--cluster NGINX Container--><g id="cluster_NGINX Container"><path d="M266.6156,518.4375 L401.6156,518.4375 A3.75,3.75 0 0 1 404.1156,520.9375 L411.1156,540.7344 L411.6156,540.7344 A2.5,2.5 0 0 1 414.1156,543.2344 L414.1156,614.9375 A2.5,2.5 0 0 1 411.6156,617.4375 L266.6156,617.4375 A2.5,2.5 0 0 1 264.1156,614.9375 L264.1156,520.9375 A2.5,2.5 0 0 1 266.6156,518.4375 " fill="none" style="stroke:#000000;stroke-width:1.5;"/><line style="stroke:#000000;stroke-width:1.5;" x1="264.1156" x2="411.1156" y1="540.7344" y2="540.7344"/><text fill="#000000" font-family="sans-serif" font-size="14" font-weight="bold" lengthAdjust="spacing" textLength="134" x="268.1156" y="533.4326">NGINX Container</text></g><!--cluster Gateway Container--><g id="cluster_Gateway Container"><path d="M96.6156,666.4375 L252.6156,666.4375 A3.75,3.75 0 0 1 255.1156,668.9375 L262.1156,688.7344 L422.6156,688.7344 A2.5,2.5 0 0 1 425.1156,691.2344 L425.1156,904.9375 A2.5,2.5 0 0 1 422.6156,907.4375 L96.6156,907.4375 A2.5,2.5 0 0 1 94.1156,904.9375 L94.1156,668.9375 A2.5,2.5 0 0 1 96.6156,666.4375 " fill="none" style="stroke:#000000;stroke-width:1.5;"/><line style="stroke:#000000;stroke-width:1.5;" x1="94.1156" x2="262.1156" y1="688.7344" y2="688.7344"/><text fill="#000000" font-family="sans-serif" font-size="14" font-weight="bold" lengthAdjust="spacing" textLength="155" x="98.1156" y="681.4326">Gateway Container</text></g><!--cluster RedisContainer--><g id="cluster_RedisContainer"><path d="M451.6156,810.4375 L575.6156,810.4375 A3.75,3.75 0 0 1 578.1156,812.9375 L585.1156,832.7344 L585.6156,832.7344 A2.5,2.5 0 0 1 588.1156,835.2344 L588.1156,904.9375 A2.5,2.5 0 0 1 585.6156,907.4375 L451.6156,907.4375 A2.5,2.5 0 0 1 449.1156,904.9375 L449.1156,812.9375 A2.5,2.5 0 0 1 451.6156,810.4375 " fill="none" style="stroke:#000000;stroke-width:1.5;"/><line style="stroke:#000000;stroke-width:1.5;" x1="449.1156" x2="585.1156" y1="832.7344" y2="832.7344"/><text fill="#000000" font-family="sans-serif" font-size="14" font-weight="bold" lengthAdjust="spacing" textLength="123" x="453.1156" y="825.4326">RedisContainer</text></g><!--cluster MongoDB Container--><g id="cluster_MongoDB Container"><path d="M614.6156,810.9375 L775.6156,810.9375 A3.75,3.75 0 0 1 778.1156,813.4375 L785.1156,833.2344 L785.6156,833.2344 A2.5,2.5 0 0 1 788.1156,835.7344 L788.1156,904.4375 A2.5,2.5 0 0 1 785.6156,906.9375 L614.6156,906.9375 A2.5,2.5 0 0 1 612.1156,904.4375 L612.1156,813.4375 A2.5,2.5 0 0 1 614.6156,810.9375 " fill="none" style="stroke:#000000;stroke-width:1.5;"/><line style="stroke:#000000;stroke-width:1.5;" x1="612.1156" x2="785.1156" y1="833.2344" y2="833.2344"/><text fill="#000000" font-family="sans-serif" font-size="14" font-weight="bold" lengthAdjust="spacing" textLength="160" x="616.1156" y="825.9326">MongoDB Container</text></g><!--cluster Layer 1 (data)--><g id="cluster_Layer 1 (data)"><path d="M214.6156,1004.4375 L330.6156,1004.4375 A3.75,3.75 0 0 1 333.1156,1006.9375 L340.1156,1026.7344 L529.6156,1026.7344 A2.5,2.5 0 0 1 532.1156,1029.2344 L532.1156,1164.9375 A2.5,2.5 0 0 1 529.6156,1167.4375 L214.6156,1167.4375 A2.5,2.5 0 0 1 212.1156,1164.9375 L212.1156,1006.9375 A2.5,2.5 0 0 1 214.6156,1004.4375 " fill="none" style="stroke:#000000;stroke-width:1.5;"/><line style="stroke:#000000;stroke-width:1.5;" x1="212.1156" x2="340.1156" y1="1026.7344" y2="1026.7344"/><text fill="#000000" font-family="sans-serif" font-size="14" font-weight="bold" lengthAdjust="spacing" textLength="115" x="216.1156" y="1019.4326">Layer 1 (data)</text></g><!--cluster Database Service--><g id="cluster_Database Service"><path d="M245.1903,1056.8451 C251.3149,1048.5392 257.2111,1048.1487 263.7927,1056.3296 C267.1904,1048.1585 274.4618,1044.0399 281.4493,1052.5239 C285.5686,1040.9953 295.4279,1040.9096 301.5796,1050.5953 C306.95,1042.3842 313.7515,1039.8884 320.2383,1049.4213 C324.3997,1039.9578 332.0851,1040.0807 338.3767,1047.0735 C343.2026,1039.1265 349.7115,1039.2198 354.2809,1047.3277 C359.7371,1037.6941 366.6818,1035.635 374.764,1044.405 C379.4323,1037.6112 387.9322,1037.5835 391.9438,1045.1887 C398.548,1038.1537 405.0877,1039.7778 408.9798,1048.1815 C415.2185,1039.0435 424.0732,1039.0919 428.8853,1049.625 C436.5062,1040.4324 442.8538,1043.0436 448.3165,1051.943 C453.1775,1045.5363 459.2298,1044.9133 463.8791,1052.1838 C471.9861,1043.5853 481.3406,1044.862 485.0414,1056.7379 C489.8677,1048.2299 495.7125,1048.5628 501.4268,1055.8146 C510.747,1062.333 510.2364,1068.2651 502.2011,1075.4672 C515.2919,1080.6601 514.5591,1091.6148 504.0159,1098.6573 C511.9615,1104.8891 510.2949,1111.2155 502.1856,1115.7256 C514.6503,1121.2824 514.1266,1131.7212 503.5084,1138.6122 C498.2384,1148.6435 489.928,1147.8418 483.9728,1139.3343 C477.8673,1148.3424 469.7282,1147.5386 463.9678,1138.9421 C459.623,1146.2397 451.6517,1148.3874 447.089,1139.1648 C442.1125,1149.2617 435.4654,1147.6211 429.3179,1140.364 C424.5805,1151.4596 417.6469,1153.1043 409.5506,1143.5848 C404.8739,1151.3825 397.0445,1150.9719 393.0109,1142.914 C387.4255,1152.1525 381.5629,1152.0878 374.0049,1145.2454 C368.2311,1153.1735 359.1436,1153.1886 354.9919,1143.4952 C349.4546,1151.7256 341.0402,1151.1277 337.6255,1141.4381 C332.4449,1150.7072 325.8277,1150.6221 319.9556,1142.1258 C312.796,1150.2787 305.3686,1149.4523 299.5459,1140.528 C293.8574,1148.5717 287.9792,1147.3876 283.5599,1139.2723 C276.5073,1149.3636 267.9839,1148.4744 263.1771,1137.1361 C257.4016,1144.5147 250.2702,1145.7458 245.7235,1135.8915 C236.5699,1132.6384 234.021,1124.1106 242.662,1117.8397 C229.9807,1114.7093 230.4102,1105.1735 237.6739,1097.2186 C227.1811,1089.679 230.3143,1080.1436 240.6546,1075.4576 C233.3763,1068.2068 234.4936,1059.7155 245.1903,1056.8451 " fill="none" style="stroke:#181818;stroke-width:1.0;"/><text fill="#000000" font-family="sans-serif" font-size="14" font-weight="bold" lengthAdjust="spacing" textLength="140" x="302.1156" y="1073.4326">Database Service</text></g><!--entity ingress--><g id="elem_ingress"><path d="M318.6156,368.4375 L318.6156,392.4375 M318.6156,380.4375 L335.6156,380.4375 " fill="none" style="stroke:#181818;stroke-width:0.5;"/><ellipse cx="347.6156" cy="380.4375" fill="#F1F1F1" rx="12" ry="12" style="stroke:#181818;stroke-width:0.5;"/><text fill="#000000" font-family="sans-serif" font-size="14" lengthAdjust="spacing" textLength="51" x="313.6156" y="409.4326">ingress</text></g><!--entity loki--><g id="elem_loki"><path d="M828.1156,855.9375 C828.1156,845.9375 851.1156,845.9375 851.1156,845.9375 C851.1156,845.9375 874.1156,845.9375 874.1156,855.9375 L874.1156,881.2344 C874.1156,891.2344 851.1156,891.2344 851.1156,891.2344 C851.1156,891.2344 828.1156,891.2344 828.1156,881.2344 L828.1156,855.9375 " fill="#F1F1F1" style="stroke:#181818;stroke-width:0.5;"/><path d="M828.1156,855.9375 C828.1156,865.9375 851.1156,865.9375 851.1156,865.9375 C851.1156,865.9375 874.1156,865.9375 874.1156,855.9375 " fill="none" style="stroke:#181818;stroke-width:0.5;"/><text fill="#000000" font-family="sans-serif" font-size="14" lengthAdjust="spacing" textLength="26" x="838.1156" y="882.9326">loki</text></g><!--entity prometheus--><g id="elem_prometheus"><path d="M909.1156,855.9375 C909.1156,845.9375 963.1156,845.9375 963.1156,845.9375 C963.1156,845.9375 1017.1156,845.9375 1017.1156,855.9375 L1017.1156,881.2344 C1017.1156,891.2344 963.1156,891.2344 963.1156,891.2344 C963.1156,891.2344 909.1156,891.2344 909.1156,881.2344 L909.1156,855.9375 " fill="#F1F1F1" style="stroke:#181818;stroke-width:0.5;"/><path d="M909.1156,855.9375 C909.1156,865.9375 963.1156,865.9375 963.1156,865.9375 C963.1156,865.9375 1017.1156,865.9375 1017.1156,855.9375 " fill="none" style="stroke:#181818;stroke-width:0.5;"/><text fill="#000000" font-family="sans-serif" font-size="14" lengthAdjust="spacing" textLength="88" x="919.1156" y="882.9326">prometheus</text></g><!--entity Nginx--><g id="elem_Nginx"><path d="M318.6156,557.4375 L318.6156,581.4375 M318.6156,569.4375 L335.6156,569.4375 " fill="none" style="stroke:#181818;stroke-width:0.5;"/><ellipse cx="347.6156" cy="569.4375" fill="#F1F1F1" rx="12" ry="12" style="stroke:#181818;stroke-width:0.5;"/><text fill="#000000" font-family="sans-serif" font-size="14" lengthAdjust="spacing" textLength="40" x="319.1156" y="598.4326">Nginx</text></g><!--entity Plugins--><g id="elem_Plugins"><rect fill="#F1F1F1" height="46.2969" rx="2.5" ry="2.5" style="stroke:#181818;stroke-width:0.5;" width="190" x="110.1156" y="845.4375"/><rect fill="#F1F1F1" height="10" style="stroke:#181818;stroke-width:0.5;" width="15" x="280.1156" y="850.4375"/><rect fill="#F1F1F1" height="2" style="stroke:#181818;stroke-width:0.5;" width="4" x="278.1156" y="852.4375"/><rect fill="#F1F1F1" height="2" style="stroke:#181818;stroke-width:0.5;" width="4" x="278.1156" y="856.4375"/><text fill="#000000" font-family="sans-serif" font-size="14" lengthAdjust="spacing" textLength="150" x="125.1156" y="878.4326">Open Catalogi plugin</text></g><!--entity Gateway--><g id="elem_Gateway"><rect fill="#F1F1F1" height="46.2969" rx="2.5" ry="2.5" style="stroke:#181818;stroke-width:0.5;" width="139" x="269.6156" y="701.4375"/><rect fill="#F1F1F1" height="10" style="stroke:#181818;stroke-width:0.5;" width="15" x="388.6156" y="706.4375"/><rect fill="#F1F1F1" height="2" style="stroke:#181818;stroke-width:0.5;" width="4" x="386.6156" y="708.4375"/><rect fill="#F1F1F1" height="2" style="stroke:#181818;stroke-width:0.5;" width="4" x="386.6156" y="712.4375"/><text fill="#000000" font-family="sans-serif" font-size="14" lengthAdjust="spacing" textLength="99" x="284.6156" y="734.4326">Web Gateway</text></g><!--entity ORM--><g id="elem_ORM"><rect fill="#F1F1F1" height="46.2969" rx="2.5" ry="2.5" style="stroke:#181818;stroke-width:0.5;" width="73" x="335.6156" y="845.4375"/><rect fill="#F1F1F1" height="10" style="stroke:#181818;stroke-width:0.5;" width="15" x="388.6156" y="850.4375"/><rect fill="#F1F1F1" height="2" style="stroke:#181818;stroke-width:0.5;" width="4" x="386.6156" y="852.4375"/><rect fill="#F1F1F1" height="2" style="stroke:#181818;stroke-width:0.5;" width="4" x="386.6156" y="856.4375"/><text fill="#000000" font-family="sans-serif" font-size="14" lengthAdjust="spacing" textLength="33" x="350.6156" y="878.4326">ORM</text></g><!--entity Redis--><g id="elem_Redis"><rect fill="#F1F1F1" height="46.2969" rx="2.5" ry="2.5" style="stroke:#181818;stroke-width:0.5;" width="79" x="465.6156" y="845.4375"/><rect fill="#F1F1F1" height="10" style="stroke:#181818;stroke-width:0.5;" width="15" x="524.6156" y="850.4375"/><rect fill="#F1F1F1" height="2" style="stroke:#181818;stroke-width:0.5;" width="4" x="522.6156" y="852.4375"/><rect fill="#F1F1F1" height="2" style="stroke:#181818;stroke-width:0.5;" width="4" x="522.6156" y="856.4375"/><text fill="#000000" font-family="sans-serif" font-size="14" lengthAdjust="spacing" textLength="39" x="480.6156" y="878.4326">Redis</text></g><!--entity MognoDB--><g id="elem_MognoDB"><path d="M628.6156,855.9375 C628.6156,845.9375 675.1156,845.9375 675.1156,845.9375 C675.1156,845.9375 721.6156,845.9375 721.6156,855.9375 L721.6156,881.2344 C721.6156,891.2344 675.1156,891.2344 675.1156,891.2344 C675.1156,891.2344 628.6156,891.2344 628.6156,881.2344 L628.6156,855.9375 " fill="#F1F1F1" style="stroke:#181818;stroke-width:0.5;"/><path d="M628.6156,855.9375 C628.6156,865.9375 675.1156,865.9375 675.1156,865.9375 C675.1156,865.9375 721.6156,865.9375 721.6156,855.9375 " fill="none" style="stroke:#181818;stroke-width:0.5;"/><text fill="#000000" font-family="sans-serif" font-size="14" lengthAdjust="spacing" textLength="69" x="638.6156" y="882.9326">MongoDB</text></g><!--entity db--><g id="elem_db"><path d="M252.1156,1092.4375 C252.1156,1082.4375 372.1156,1082.4375 372.1156,1082.4375 C372.1156,1082.4375 492.1156,1082.4375 492.1156,1092.4375 L492.1156,1117.7344 C492.1156,1127.7344 372.1156,1127.7344 372.1156,1127.7344 C372.1156,1127.7344 252.1156,1127.7344 252.1156,1117.7344 L252.1156,1092.4375 " fill="#F1F1F1" style="stroke:#181818;stroke-width:0.5;"/><path d="M252.1156,1092.4375 C252.1156,1102.4375 372.1156,1102.4375 372.1156,1102.4375 C372.1156,1102.4375 492.1156,1102.4375 492.1156,1092.4375 " fill="none" style="stroke:#181818;stroke-width:0.5;"/><text fill="#000000" font-family="sans-serif" font-size="14" lengthAdjust="spacing" textLength="220" x="262.1156" y="1119.4326">Postgress/MsSQL/MySql/Oracle</text></g><!--entity externalCatalouge--><g id="elem_externalCatalouge"><ellipse cx="339.1156" cy="63.9375" fill="#F1F1F1" rx="8" ry="8" style="stroke:#181818;stroke-width:0.5;"/><path d="M339.1156,71.9375 L339.1156,98.9375 M326.1156,79.9375 L352.1156,79.9375 M339.1156,98.9375 L326.1156,113.9375 M339.1156,98.9375 L352.1156,113.9375 " fill="none" style="stroke:#181818;stroke-width:0.5;"/><text fill="#000000" font-family="sans-serif" font-size="14" lengthAdjust="spacing" textLength="131" x="273.6156" y="128.4326">Externe Catalogus</text></g><!--entity hipp--><g id="elem_hipp"><ellipse cx="339.1156" cy="237.4375" fill="#F1F1F1" rx="8" ry="8" style="stroke:#181818;stroke-width:0.5;"/><text fill="#000000" font-family="sans-serif" font-size="14" lengthAdjust="spacing" textLength="76" x="301.1156" y="267.4326">Mtls (PKIo)</text></g><!--link externalCatalouge to hipp--><g id="link_externalCatalouge_hipp"><path d="M339.1156,136.8475 C339.1156,166.1275 339.1156,203.2005 339.1156,222.8185 " fill="none" id="externalCatalouge-hipp" style="stroke:#181818;stroke-width:1.0;stroke-dasharray:7.0,7.0;"/><polygon fill="#181818" points="339.1156,131.7475,335.1156,140.7475,339.1156,136.7475,343.1156,140.7475,339.1156,131.7475" style="stroke:#181818;stroke-width:1.0;"/><polygon fill="#181818" points="339.1156,228.3185,343.1156,219.3185,339.1156,223.3185,335.1156,219.3185,339.1156,228.3185" style="stroke:#181818;stroke-width:1.0;"/><text fill="#000000" font-family="sans-serif" font-size="13" lengthAdjust="spacing" textLength="27" x="340.1156" y="174.5044">PKIo</text></g><!--link hipp to ingress--><g id="link_hipp_ingress"><path d="M339.1156,251.6585 C339.1156,275.6405 339.1156,326.8085 339.1156,359.0285 " fill="none" id="hipp-ingress" style="stroke:#181818;stroke-width:1.0;stroke-dasharray:7.0,7.0;"/><polygon fill="#181818" points="339.1156,246.4485,335.1156,255.4485,339.1156,251.4485,343.1156,255.4485,339.1156,246.4485" style="stroke:#181818;stroke-width:1.0;"/><polygon fill="#181818" points="339.1156,364.4215,343.1156,355.4215,339.1156,359.4215,335.1156,355.4215,339.1156,364.4215" style="stroke:#181818;stroke-width:1.0;"/><text fill="#000000" font-family="sans-serif" font-size="13" lengthAdjust="spacing" textLength="88" x="340.1156" y="309.5044">/api/catalogi/*</text></g><!--link ingress to Nginx--><g id="link_ingress_Nginx"><path d="M339.1156,418.0195 C339.1156,453.2655 339.1156,512.8145 339.1156,547.9955 " fill="none" id="ingress-Nginx" style="stroke:#181818;stroke-width:1.0;stroke-dasharray:7.0,7.0;"/><polygon fill="#181818" points="339.1156,412.7435,335.1156,421.7435,339.1156,417.7435,343.1156,421.7435,339.1156,412.7435" style="stroke:#181818;stroke-width:1.0;"/><polygon fill="#181818" points="339.1156,553.4255,343.1156,544.4255,339.1156,548.4255,335.1156,544.4255,339.1156,553.4255" style="stroke:#181818;stroke-width:1.0;"/><text fill="#000000" font-family="sans-serif" font-size="13" lengthAdjust="spacing" textLength="54" x="340.1156" y="455.5044">Exposes</text></g><!--link Nginx to Gateway--><g id="link_Nginx_Gateway"><path d="M339.1156,607.0665 C339.1156,632.8465 339.1156,670.4865 339.1156,695.9185 " fill="none" id="Nginx-Gateway" style="stroke:#181818;stroke-width:1.0;stroke-dasharray:7.0,7.0;"/><polygon fill="#181818" points="339.1156,601.7345,335.1156,610.7345,339.1156,606.7345,343.1156,610.7345,339.1156,601.7345" style="stroke:#181818;stroke-width:1.0;"/><polygon fill="#181818" points="339.1156,701.1505,343.1156,692.1505,339.1156,696.1505,335.1156,692.1505,339.1156,701.1505" style="stroke:#181818;stroke-width:1.0;"/><text fill="#000000" font-family="sans-serif" font-size="13" lengthAdjust="spacing" textLength="32" x="340.1156" y="646.5044">Runs</text></g><!--link Gateway to Plugins--><g id="link_Gateway_Plugins"><path d="M298.1976,750.7355 C287.1426,758.5635 275.6196,767.7095 266.1156,777.4375 C247.6316,796.3565 231.1066,821.5295 219.9336,840.4405 " fill="none" id="Gateway-Plugins" style="stroke:#181818;stroke-width:1.0;stroke-dasharray:7.0,7.0;"/><polygon fill="#181818" points="302.5706,747.6895,292.8991,749.5502,298.4675,750.5468,297.4708,756.1152,302.5706,747.6895" style="stroke:#181818;stroke-width:1.0;"/><polygon fill="#181818" points="217.2106,845.1065,225.2014,839.3491,219.7306,840.788,218.2917,835.3172,217.2106,845.1065" style="stroke:#181818;stroke-width:1.0;"/><text fill="#000000" font-family="sans-serif" font-size="13" lengthAdjust="spacing" textLength="76" x="267.1156" y="790.5044">Implements</text></g><!--link Gateway to loki--><g id="link_Gateway_loki"><path d="M408.7676,731.8225 C489.9146,740.8525 627.0386,761.0935 738.1156,802.4375 C769.1356,813.9835 801.5936,833.5515 823.7216,848.2075 " fill="none" id="Gateway-to-loki" style="stroke:#181818;stroke-width:1.0;stroke-dasharray:7.0,7.0;"/><polygon fill="#181818" points="828.0056,851.0695,822.7426,842.7448,823.8476,848.2927,818.2997,849.3977,828.0056,851.0695" style="stroke:#181818;stroke-width:1.0;"/><text fill="#000000" font-family="sans-serif" font-size="13" lengthAdjust="spacing" textLength="47" x="707.1156" y="790.5044">Logs to</text></g><!--link Gateway to prometheus--><g id="link_Gateway_prometheus"><path d="M408.6766,729.5405 C537.7376,738.0585 808.7266,760.4595 892.1156,802.4375 C911.0816,811.9845 928.7096,828.0665 941.6576,841.8445 " fill="none" id="Gateway-to-prometheus" style="stroke:#181818;stroke-width:1.0;stroke-dasharray:7.0,7.0;"/><polygon fill="#181818" points="945.1826,845.6615,942.0176,836.335,941.7913,841.9874,936.139,841.7611,945.1826,845.6615" style="stroke:#181818;stroke-width:1.0;"/><text fill="#000000" font-family="sans-serif" font-size="13" lengthAdjust="spacing" textLength="67" x="869.1156" y="790.5044">Reports to</text></g><!--link Gateway to MognoDB--><g id="link_Gateway_MognoDB"><path d="M408.8996,745.9975 C453.2826,759.9585 511.5236,779.9315 561.1156,802.4375 C587.0696,814.2165 614.8816,830.0055 636.5366,843.0725 " fill="none" id="Gateway-to-MognoDB" style="stroke:#181818;stroke-width:1.0;stroke-dasharray:7.0,7.0;"/><polygon fill="#181818" points="641.0616,845.8165,635.4421,837.7282,636.7869,843.2228,631.2923,844.5677,641.0616,845.8165" style="stroke:#181818;stroke-width:1.0;"/><text fill="#000000" font-family="sans-serif" font-size="13" lengthAdjust="spacing" textLength="35" x="539.1156" y="790.5044">Index</text></g><!--link Gateway to Redis--><g id="link_Gateway_Redis"><path d="M365.0536,747.6255 C394.8986,773.1555 443.8236,815.0075 475.2386,841.8795 " fill="none" id="Gateway-to-Redis" style="stroke:#181818;stroke-width:1.0;stroke-dasharray:7.0,7.0;"/><polygon fill="#181818" points="479.3606,845.4055,475.1208,836.5159,475.5608,842.1557,469.9211,842.5956,479.3606,845.4055" style="stroke:#181818;stroke-width:1.0;"/><text fill="#000000" font-family="sans-serif" font-size="13" lengthAdjust="spacing" textLength="40" x="419.1156" y="790.5044">Cache</text></g><!--link Gateway to ORM--><g id="link_Gateway_ORM"><path d="M344.2716,747.6255 C350.0836,772.6345 359.5356,813.3055 365.7896,840.2155 " fill="none" id="Gateway-to-ORM" style="stroke:#181818;stroke-width:1.0;stroke-dasharray:7.0,7.0;"/><polygon fill="#181818" points="366.9956,845.4055,368.8558,835.7339,365.8644,840.5351,361.0632,837.5438,366.9956,845.4055" style="stroke:#181818;stroke-width:1.0;"/><text fill="#000000" font-family="sans-serif" font-size="13" lengthAdjust="spacing" textLength="34" x="356.1156" y="790.5044">Store</text></g><!--link ORM to db--><g id="link_ORM_db"><path d="M372.1156,891.4985 C372.1156,934.6435 372.1156,1030.0595 372.1156,1076.9105 " fill="none" id="ORM-to-db" style="stroke:#181818;stroke-width:1.0;stroke-dasharray:7.0,7.0;"/><polygon fill="#181818" points="372.1156,1082.1055,376.1156,1073.1055,372.1156,1077.1055,368.1156,1073.1055,372.1156,1082.1055" style="stroke:#181818;stroke-width:1.0;"/><text fill="#000000" font-family="sans-serif" font-size="13" lengthAdjust="spacing" textLength="43" x="373.1156" y="984.5044">Persist</text></g><text fill="#888888" font-family="sans-serif" font-size="10" lengthAdjust="spacing" textLength="180" x="444.2133" y="1182.7197">Common Gateway | Components</text><!--SRC=[PLF1Rjim3BthAmYViXrg5EZ967POEnH1upHB3Ximx23Rh2FKbZH9tX9q_VTHj3pFZI-c7XyVhKSwgD1X0OyMDTpA83lJAlW3dqy1dSO96hnuCeQW0cvDtniDzpBWRtacAW7MQDJ1YoFA9d4cICWw60VPXM06qWCoAhiH7LeKIXFo96k4h0oTXzNkOMtUCVceh1NngOdQGFOmL54oeCzUXAZCe1lfpf0ftJhqOuCKYuOQLD8ZTEPPpIVhJ8_XY7G_UgoidsLBdJVoZ0vkOBKXDshg_ZBdjlVhxJUweGvIQNGn1tFlRQlqYJjp95x_KvqiMzP-Nrflku4AVqI57OUUA5-ncWpdJ8fZyRvaXDwBNdjib7_JY35cSnJvSq5fT6lkFhtvk7z6pGI-N6bQJGUI897N2-UkOHKhsRWqhBj9wO3kbwenMwhlZ0yygRpqXo-Rl3mVVdRvevDrXzongSPc5ni37wwkFl9k511tHSHm1DFm2yYbLNcTBCxVYvGOMJoeWZRU6ezUy176LFAvWFr0SvZcnwaqd0BMlUsmvrsV234Vzwm0sXyFmImoyywHBbhZmWKbsKlYki7J8iMZepzCraTS96W32ZZGluQ2Gc2igSWJT5xvy1S0]--></g></svg>